<svg width="53px" height="64px" viewBox="455 243 53 64" version="1.1" xmlns="http://www.w3.org/2000/svg" xmlns:xlink="http://www.w3.org/1999/xlink">
    <defs></defs>
    <g id="Group" stroke="none" stroke-width="1" fill="none" fill-rule="evenodd" transform="translate(455.000000, 243.000000)">
        <g id="Group-7" transform="translate(0.009300, 0.000000)">
            <path d="M25.2706,8.102 C23.0426,9.305 22.2236,11.981 19.6976,12.626 C19.5696,12.659 19.4436,12.835 19.3806,12.974 C18.3656,15.183 16.5116,17.062 16.7116,19.758 C16.7316,20.024 16.5936,20.407 16.3946,20.567 C15.4136,21.352 15.2946,22.473 15.1396,23.578 C14.5926,27.471 13.6526,31.253 12.1706,34.906 C10.5796,38.83 9.0726,42.788 7.5186,46.726 C5.9056,50.815 4.2566,54.89 2.6826,58.993 C2.3546,59.847 2.2836,60.799 2.0326,62.004 C3.0286,62.004 3.7276,62.106 4.3846,61.987 C8.2316,61.287 12.0756,60.571 15.9066,59.792 C21.1706,58.721 26.2976,57.158 31.1706,54.905 C33.2506,53.943 35.2496,52.674 37.0386,51.238 C41.1476,47.939 44.1026,43.663 46.6316,39.084 C46.8036,38.771 46.8966,38.415 47.1306,37.812 C43.8936,40.18 43.8936,40.18 42.5316,40.196 C42.9726,39.757 43.2676,39.408 43.6166,39.126 C48.3286,35.313 50.7886,29.059 48.5756,22.807 C46.7886,17.763 44.6956,12.826 42.7026,7.856 C42.4936,7.335 42.0356,6.914 41.5166,6.205 C41.2096,6.905 41.0116,7.24 40.9106,7.603 C38.2446,17.115 34.6306,26.227 29.4476,34.671 C28.8626,35.623 28.7766,36.502 29.0636,37.611 C29.4826,39.226 29.8476,40.926 29.7986,42.577 C29.7266,44.951 29.3696,47.335 28.9156,49.672 C28.7216,50.675 28.1516,51.809 26.4146,51.445 C27.1746,47.203 29.9836,43.188 27.4636,38.446 C25.8936,40.13 25.0146,42.02 23.7216,43.58 C22.3956,45.179 21.0116,46.731 19.6536,48.305 C18.2986,49.876 16.9626,51.465 15.5856,53.017 C14.2676,54.502 13.2796,56.346 11.2186,57.107 C11.7506,55.748 12.4216,54.502 13.3026,53.427 C16.0396,50.09 18.8876,46.844 21.6286,43.51 C23.1006,41.721 24.4646,39.841 25.8236,37.964 C26.1456,37.519 26.2556,36.92 26.6086,36.024 C25.6216,36.296 25.0956,36.407 24.5926,36.585 C22.4106,37.359 20.2646,38.248 18.0486,38.905 C16.3086,39.422 14.4746,39.635 13.3446,41.743 C13.0526,40.621 12.8616,39.89 12.6636,39.128 C13.1626,38.777 13.5146,38.434 13.9356,38.248 C17.7676,36.562 21.8536,35.687 25.9276,34.953 C27.5216,34.666 28.3516,34.025 29.0046,32.781 C30.7886,29.385 32.6636,26.033 34.3046,22.569 C35.5186,20.009 36.4216,17.302 37.6546,14.175 C30.9956,16.329 25.3006,19.05 20.3176,23.192 C19.7056,22.292 19.9506,21.614 20.6936,21.079 C21.6656,20.38 22.6436,19.682 23.6626,19.055 C27.6296,16.613 31.8796,14.798 36.2866,13.305 C37.0426,13.049 37.9426,12.455 38.2496,11.778 C39.1036,9.9 39.7376,7.913 40.3516,5.936 C41.0046,3.83 39.8686,2.366 37.7406,2.673 C33.1546,3.336 28.5936,4.147 24.7136,7.194 C24.8396,7.4 24.9876,7.641 25.2706,8.102 M42.3996,3.321 C44.9336,4.426 46.5326,6.4 47.9036,8.753 C50.8806,13.86 51.4656,19.482 51.5026,25.159 C51.5186,27.581 50.6486,30.012 50.1476,32.432 C48.9916,38.015 46.5996,42.98 42.9046,47.357 C38.7236,52.307 33.6456,55.728 27.4746,57.847 C20.1116,60.374 12.5466,61.89 4.9376,63.309 C4.7806,63.339 4.6226,63.363 4.4636,63.384 C1.2676,63.81 0.3556,62.874 1.3906,59.893 C2.7756,55.903 4.3576,51.98 5.8776,48.037 C7.7146,43.271 9.6736,38.548 11.3866,33.737 C12.3186,31.121 12.8476,28.363 13.5586,25.669 C14.1496,23.434 14.7236,21.195 15.3386,18.967 C15.6776,17.739 16.0666,16.524 16.4696,15.315 C16.6966,14.637 16.8896,13.91 17.2846,13.333 C19.0806,10.711 20.8266,8.133 23.6976,6.376 C27.4506,4.08 31.4686,2.749 35.6956,1.82 C36.8276,1.571 37.9196,1.139 39.3346,0.696 C40.4406,1.121 41.7016,1.9 42.4296,3.348 L41.2536,3.348 C43.0066,6.978 44.8076,10.421 46.3486,13.977 C47.8866,17.528 49.1656,21.191 50.5676,24.829 C50.8566,22.735 50.5256,20.652 50.1246,18.562 C49.0836,13.141 47.2146,8.149 42.9946,4.32 C42.7196,4.071 42.5946,3.658 42.3996,3.321" id="Fill-124" fill="#000000"></path>
            <path d="M45.0273,33.6197 C44.8453,32.3977 44.7153,31.4017 44.5443,30.4127 C44.3693,29.3967 43.9973,28.3887 43.9863,27.3737 C43.9413,23.2787 42.3923,19.5857 41.0513,15.8347 C40.8123,15.1667 40.3943,14.6367 39.4113,14.7667 C40.9583,20.5457 42.8353,26.0787 42.9043,31.9757 C42.9163,32.9517 43.4393,33.6177 45.0273,33.6197 M25.2703,8.1017 C24.9873,7.6407 24.8393,7.3997 24.7133,7.1947 C28.5933,4.1477 33.1543,3.3367 37.7403,2.6737 C39.8693,2.3657 41.0053,3.8297 40.3513,5.9357 C39.7383,7.9127 39.1043,9.8997 38.2503,11.7777 C37.9423,12.4547 37.0433,13.0497 36.2863,13.3057 C31.8793,14.7977 27.6293,16.6137 23.6623,19.0547 C22.6433,19.6827 21.6663,20.3797 20.6943,21.0797 C19.9513,21.6137 19.7053,22.2927 20.3183,23.1927 C25.3013,19.0497 30.9953,16.3287 37.6543,14.1757 C36.4213,17.3017 35.5183,20.0087 34.3053,22.5697 C32.6633,26.0327 30.7883,29.3857 29.0053,32.7807 C28.3513,34.0247 27.5223,34.6657 25.9273,34.9527 C21.8533,35.6867 17.7683,36.5617 13.9363,38.2487 C13.5143,38.4337 13.1623,38.7777 12.6643,39.1287 C12.8623,39.8897 13.0523,40.6207 13.3443,41.7427 C14.4743,39.6357 16.3093,39.4217 18.0483,38.9057 C20.2643,38.2477 22.4103,37.3587 24.5923,36.5857 C25.0953,36.4077 25.6213,36.2957 26.6083,36.0237 C26.2553,36.9207 26.1463,37.5187 25.8243,37.9637 C24.4643,39.8407 23.1003,41.7207 21.6293,43.5097 C18.8883,46.8437 16.0393,50.0897 13.3033,53.4277 C12.4223,54.5017 11.7513,55.7477 11.2193,57.1067 C13.2803,56.3457 14.2673,54.5017 15.5853,53.0167 C16.9623,51.4647 18.2983,49.8757 19.6533,48.3047 C21.0113,46.7307 22.3953,45.1797 23.7213,43.5797 C25.0153,42.0197 25.8933,40.1297 27.4633,38.4467 C29.9833,43.1877 27.1743,47.2037 26.4143,51.4457 C28.1513,51.8087 28.7213,50.6747 28.9163,49.6727 C29.3693,47.3347 29.7273,44.9517 29.7983,42.5767 C29.8473,40.9257 29.4823,39.2267 29.0633,37.6107 C28.7763,36.5027 28.8633,35.6237 29.4473,34.6707 C34.6313,26.2267 38.2453,17.1157 40.9103,7.6027 C41.0123,7.2407 41.2093,6.9047 41.5163,6.2047 C42.0363,6.9147 42.4933,7.3357 42.7023,7.8567 C44.6963,12.8257 46.7893,17.7627 48.5753,22.8067 C50.7893,29.0587 48.3283,35.3137 43.6163,39.1257 C43.2673,39.4077 42.9733,39.7567 42.5313,40.1957 C43.8933,40.1807 43.8933,40.1807 47.1303,37.8117 C46.8963,38.4157 46.8033,38.7717 46.6313,39.0837 C44.1023,43.6627 41.1473,47.9387 37.0393,51.2377 C35.2503,52.6747 33.2513,53.9427 31.1703,54.9047 C26.2983,57.1577 21.1703,58.7207 15.9073,59.7917 C12.0763,60.5717 8.2313,61.2867 4.3853,61.9867 C3.7273,62.1067 3.0293,62.0037 2.0323,62.0037 C2.2843,60.7987 2.3543,59.8467 2.6823,58.9937 C4.2573,54.8897 5.9063,50.8157 7.5193,46.7267 C9.0723,42.7877 10.5793,38.8297 12.1713,34.9067 C13.6533,31.2537 14.5923,27.4707 15.1393,23.5777 C15.2943,22.4727 15.4133,21.3517 16.3943,20.5667 C16.5943,20.4067 16.7313,20.0247 16.7113,19.7587 C16.5113,17.0617 18.3653,15.1837 19.3803,12.9737 C19.4443,12.8347 19.5693,12.6587 19.6983,12.6257 C22.2243,11.9807 23.0433,9.3057 25.2703,8.1017" id="Fill-126" fill="#40641C" class="icon__color"></path>
            <path d="M42.4,3.3207 C42.595,3.6577 42.72,4.0717 42.994,4.3207 C47.215,8.1497 49.084,13.1417 50.124,18.5617 C50.526,20.6527 50.857,22.7347 50.568,24.8287 C49.166,21.1907 47.887,17.5277 46.348,13.9767 C44.807,10.4217 43.007,6.9787 41.254,3.3487 L42.43,3.3487 L42.4,3.3207 Z" id="Fill-128" fill="#40641C" class="icon__color"></path>
            <path d="M45.0273,33.6197 C43.4393,33.6177 42.9163,32.9517 42.9043,31.9757 C42.8353,26.0787 40.9583,20.5457 39.4113,14.7667 C40.3943,14.6367 40.8123,15.1667 41.0513,15.8347 C42.3923,19.5857 43.9413,23.2787 43.9863,27.3737 C43.9973,28.3887 44.3693,29.3967 44.5443,30.4127 C44.7153,31.4017 44.8453,32.3977 45.0273,33.6197" id="Fill-130" fill="#000000"></path>
        </g>
    </g>
</svg>
