<svg width="53px" height="75px" viewBox="499 676 53 75" version="1.1" xmlns="http://www.w3.org/2000/svg" xmlns:xlink="http://www.w3.org/1999/xlink">
    <defs></defs>
    <g id="Group" stroke="none" stroke-width="1" fill="none" fill-rule="evenodd" transform="translate(499.000000, 676.000000)">
        <g id="Group-24">
            <path d="M52.4314,18.8514 C51.7724,18.0884 51.2324,17.4634 50.6924,16.8384 L50.8634,16.3354 C51.3994,16.3354 52.1834,16.1144 52.4204,16.3804 C52.9614,16.9864 53.2634,17.8324 52.4314,18.8514" id="Fill-325" fill="#FFFFFF"></path>
            <path d="M49.9615,18.156 C50.0705,18.259 50.1775,18.361 50.2855,18.463 C50.1975,18.548 50.1095,18.633 50.0215,18.717 C49.9185,18.609 49.7975,18.511 49.7285,18.385 C49.7135,18.358 49.8865,18.228 49.9615,18.156" id="Fill-327" fill="#FFFFFF"></path>
            <path d="M23.7031,6.3527 C23.6281,6.4247 23.4551,6.5547 23.4701,6.5817 C23.5391,6.7077 23.6601,6.8057 23.7631,6.9137 C23.8511,6.8297 23.9391,6.7447 24.0271,6.6597 C23.9191,6.5577 23.8121,6.4557 23.7031,6.3527 L23.7031,6.3527 Z M27.2991,27.0277 C27.2251,26.9127 27.1751,26.7427 27.0721,26.6997 C26.9631,26.6557 26.8031,26.7327 26.6661,26.7577 C26.7471,26.9017 26.7991,27.0847 26.9211,27.1737 C26.9801,27.2167 27.1681,27.0827 27.2991,27.0277 L27.2991,27.0277 Z M30.9651,29.4587 C30.9891,29.5207 31.0131,29.5827 31.0381,29.6447 C31.3801,29.6187 31.7231,29.5927 32.0661,29.5667 C32.0621,29.5307 32.0591,29.4947 32.0551,29.4587 L30.9651,29.4587 Z M26.2881,9.3857 C25.9321,9.1697 25.7111,8.9787 25.4561,8.9107 C25.3691,8.8877 25.1991,9.1717 25.0671,9.3157 C25.2751,9.4937 25.4621,9.7187 25.7021,9.8237 C25.7881,9.8617 26.0011,9.6087 26.2881,9.3857 L26.2881,9.3857 Z M50.3051,32.9107 C50.1521,32.8607 49.9981,32.8117 49.8451,32.7627 C49.6781,33.0127 49.3971,33.2537 49.3741,33.5157 C49.3491,33.8077 49.5591,34.1197 49.6671,34.4217 C49.7851,34.4077 49.9031,34.3927 50.0201,34.3787 C50.1151,33.8887 50.2101,33.3997 50.3051,32.9107 L50.3051,32.9107 Z M22.9941,11.7277 C22.7921,13.0237 23.2751,13.3117 24.1301,13.2167 C24.2301,13.2047 24.3101,13.0067 24.5251,12.7377 C24.0641,12.4337 23.6221,12.1417 22.9941,11.7277 L22.9941,11.7277 Z M28.4851,11.6597 C27.8781,11.4957 27.2701,11.3317 26.3611,11.0877 C26.7851,12.7637 27.3811,12.9957 28.4851,11.6597 L28.4851,11.6597 Z M26.1731,7.0477 C27.0051,6.0287 26.7031,5.1837 26.1621,4.5767 C25.9241,4.3107 25.1401,4.5327 24.6051,4.5327 C24.5481,4.6997 24.4911,4.8677 24.4341,5.0357 C24.9741,5.6607 25.5141,6.2857 26.1731,7.0477 L26.1731,7.0477 Z M4.1341,25.7257 C3.9861,25.6287 3.8381,25.5327 3.6901,25.4357 C2.4031,26.5137 1.9391,27.9227 2.3831,29.7097 C2.9661,28.3817 3.5501,27.0537 4.1341,25.7257 L4.1341,25.7257 Z M17.6991,17.3017 C17.6191,17.1717 17.5391,17.0417 17.4591,16.9117 C16.5531,17.1987 15.6471,17.4857 14.3201,17.9057 C15.0731,18.6027 15.4771,18.9767 16.0111,19.4717 C16.6741,18.6187 17.1871,17.9607 17.6991,17.3017 L17.6991,17.3017 Z M24.5681,14.7427 C26.4031,15.6247 27.8791,16.3347 29.4681,17.0987 C29.8461,16.4587 30.1511,15.9417 30.4801,15.3847 C28.7261,13.8477 26.8741,14.2747 24.5681,14.7427 L24.5681,14.7427 Z M3.3501,34.7267 C4.9791,33.7117 4.3541,32.4377 4.0401,31.3527 C5.7961,29.3007 8.1161,28.8057 10.5401,27.9747 C9.0401,27.2317 7.5401,26.4877 5.8701,25.6597 C4.7401,27.7997 3.8291,29.7397 2.7181,31.5587 C1.9211,32.8657 2.1961,33.7617 3.3501,34.7267 L3.3501,34.7267 Z M41.9521,26.4147 C44.2511,28.2287 46.3791,29.9067 48.5121,31.5887 C50.0781,28.3347 48.5741,24.6397 44.6071,22.4797 C43.7591,23.7367 42.8951,25.0167 41.9521,26.4147 L41.9521,26.4147 Z M15.8221,20.2527 C14.8231,19.8197 13.8821,19.0267 13.3281,19.2397 C11.0681,20.1097 8.6831,20.9177 7.3561,23.2507 C6.8031,24.2217 7.0281,24.8917 7.9491,25.4177 C8.8391,25.9257 9.6791,26.5807 10.6321,26.8907 C11.1391,27.0547 12.1511,26.8207 12.3981,26.4287 C13.5671,24.5697 14.5521,22.5927 15.8221,20.2527 L15.8221,20.2527 Z M13.6011,27.0837 C13.7711,27.2397 13.9421,27.3967 14.1121,27.5527 C17.2621,27.4207 20.4151,27.3377 23.5581,27.1097 C24.1071,27.0697 24.6111,26.4137 25.4111,25.8477 C22.5361,23.8477 19.8361,22.5027 16.7981,21.2967 C15.6211,23.4267 14.6111,25.2557 13.6011,27.0837 L13.6011,27.0837 Z M30.1791,19.9197 C28.5651,21.4597 27.7851,23.2867 27.4081,25.2777 C29.7351,27.3277 35.7681,28.0507 39.0431,26.6527 C36.0571,24.3837 33.1471,22.1737 30.1791,19.9197 L30.1791,19.9197 Z M43.6141,21.5637 C42.3901,20.9317 41.1531,20.5527 40.2601,19.7787 C38.2671,18.0507 35.9291,17.1637 33.4861,16.3897 C32.5251,16.0847 31.8191,16.0877 31.2701,17.0627 C30.7401,18.0047 30.9661,18.7727 31.7241,19.3897 C33.8191,21.0917 35.8551,22.8877 38.0871,24.3907 C40.2151,25.8237 40.5021,25.6317 42.0911,23.4817 C42.5141,22.9097 42.9761,22.3647 43.6141,21.5637 L43.6141,21.5637 Z M21.2091,14.6567 C19.8921,16.5697 18.7021,18.2987 17.4311,20.1447 C19.9961,22.2887 22.9571,22.9967 25.8411,24.5387 C26.8771,22.4297 27.8021,20.5457 28.7631,18.5917 C26.6301,16.4787 23.8881,15.9867 21.2091,14.6567 L21.2091,14.6567 Z M16.3841,60.0247 C16.9921,60.6487 17.5691,61.3047 18.2141,61.8867 C18.9151,62.5187 19.6041,63.2247 20.4281,63.6447 C22.5571,64.7307 24.8181,65.5657 26.9141,66.7067 C29.3121,68.0117 31.5901,69.5387 34.0231,71.0327 C34.1981,70.7117 34.4981,70.3287 34.6261,69.8947 C35.3241,67.5147 36.9651,66.3117 39.3631,66.2087 C41.9231,66.0987 43.6801,64.7207 45.1631,62.8397 C47.4201,59.9757 48.6091,56.7127 48.5071,53.0587 C48.3661,48.0317 48.2021,43.0027 47.8861,37.9837 C47.7921,36.5037 47.1841,35.0477 46.7471,33.6007 C46.3901,32.4187 45.4951,31.7227 44.3141,31.5407 C42.2711,31.2247 40.2181,30.8957 38.1571,30.7937 C35.6861,30.6707 33.2011,30.8457 30.7271,30.7607 C29.5471,30.7197 28.2051,30.6727 27.2381,30.1107 C25.0921,28.8637 22.7951,28.6177 20.5131,28.8817 C16.8771,29.3037 13.2831,30.0817 9.6701,30.7057 C8.6661,30.8787 8.0721,31.5107 7.9911,32.4737 C7.8171,34.5407 7.3671,36.6797 7.7071,38.6727 C8.2941,42.1137 9.4141,45.4627 10.2691,48.8607 C10.4221,49.4697 10.3721,50.1307 10.4151,50.7677 C10.2651,50.8037 10.1151,50.8397 9.9661,50.8767 C9.5201,50.3387 9.0741,49.8017 8.6281,49.2637 C9.6571,53.1137 11.8071,56.2427 14.0531,59.3097 C14.4151,59.8047 14.9891,60.1837 15.5391,60.4797 C15.6971,60.5647 16.1121,60.1747 16.4091,60.0027 L16.3841,60.0247 Z M22.6371,66.2437 C22.7041,66.2627 22.7711,66.2827 22.8371,66.3027 C22.7671,66.2877 22.6961,66.2727 22.6251,66.2587 C22.3961,66.0657 22.1681,65.8717 21.9401,65.6787 C21.8911,65.7637 21.8431,65.8477 21.7941,65.9317 C22.0751,66.0357 22.3561,66.1397 22.6371,66.2437 L22.6371,66.2437 Z M19.3441,0.6197 C20.2281,1.2557 20.6551,1.4557 20.9311,1.7827 C21.6441,2.6317 22.5261,2.7467 23.5341,2.5757 C25.1061,2.3087 26.6801,2.0527 28.2571,1.8267 C28.7061,1.7617 29.1721,1.8167 29.8611,1.8167 C29.7301,2.9827 29.4861,3.9997 29.5321,5.0027 C29.6071,6.6557 29.6521,8.3627 30.1031,9.9347 C30.8281,12.4607 32.9341,13.9367 35.1781,14.8977 C40.0041,16.9637 44.2821,19.8917 48.3371,23.1097 C51.4791,25.6027 52.8021,29.0807 51.9091,33.1327 C51.7151,34.0097 51.2481,34.9467 50.6261,35.5817 C49.7081,36.5177 49.4691,37.3767 49.5481,38.7277 C49.8631,44.0657 50.3111,49.4427 49.9891,54.7617 C49.6181,60.8997 46.6621,65.6927 40.6541,68.1497 C39.0951,68.7867 37.8781,69.6737 37.0431,71.3787 C35.4211,74.6937 31.0601,75.1777 28.6931,72.2967 C26.9371,70.1587 24.8531,68.7837 22.3431,67.8117 C19.3051,66.6347 17.0051,64.3877 14.5391,62.3377 C8.4301,57.2577 6.3361,50.3587 5.2961,42.9137 C5.1741,42.0437 5.0161,41.1787 4.9011,40.3077 C4.6881,38.6857 4.1361,37.4377 2.6841,36.3347 C-0.1889,34.1527 -0.6259,29.0797 1.5231,25.5797 C2.5141,23.9667 3.5301,22.2987 5.5201,21.6667 C5.6691,21.6197 5.8331,21.5417 5.9321,21.4267 C8.3951,18.5667 11.8391,17.1697 14.9901,15.3337 C15.3331,15.1347 15.6441,14.7937 16.0061,14.7297 C18.8401,14.2337 19.6901,12.0417 19.9261,9.7057 C20.1301,7.6767 19.7551,5.5877 19.6201,3.5267 C19.5681,2.7337 19.4721,1.9437 19.3441,0.6197 L19.3441,0.6197 Z" id="Fill-329" fill="#000000"></path>
            <path d="M12.0112,53.9539 L12.0372,53.7929 L11.8872,53.8349 L12.0112,53.9539 Z M16.4092,60.0029 C16.1122,60.1749 15.6972,60.5649 15.5382,60.4799 C14.9892,60.1829 14.4152,59.8049 14.0522,59.3089 C11.8072,56.2429 9.6572,53.1139 8.6282,49.2639 C9.0742,49.8019 9.5202,50.3389 9.9652,50.8769 C10.1152,50.8399 10.2652,50.8039 10.4152,50.7679 C10.3712,50.1309 10.4222,49.4699 10.2692,48.8599 C9.4142,45.4629 8.2942,42.1139 7.7072,38.6729 C7.3662,36.6789 7.8172,34.5409 7.9912,32.4739 C8.0722,31.5109 8.6662,30.8789 9.6702,30.7059 C13.2822,30.0819 16.8772,29.3029 20.5132,28.8819 C22.7952,28.6179 25.0922,28.8639 27.2382,30.1109 C28.2052,30.6729 29.5472,30.7199 30.7272,30.7609 C33.2012,30.8449 35.6862,30.6709 38.1572,30.7929 C40.2182,30.8959 42.2712,31.2249 44.3142,31.5409 C45.4952,31.7229 46.3902,32.4189 46.7472,33.6009 C47.1842,35.0479 47.7922,36.5039 47.8852,37.9839 C48.2022,43.0019 48.3662,48.0319 48.5072,53.0589 C48.6092,56.7119 47.4202,59.9759 45.1622,62.8399 C43.6802,64.7209 41.9232,66.0989 39.3632,66.2089 C36.9652,66.3109 35.3232,67.5149 34.6262,69.8949 C34.4982,70.3289 34.1972,70.7119 34.0232,71.0329 C31.5892,69.5389 29.3122,68.0109 26.9142,66.7059 C24.8182,65.5649 22.5572,64.7309 20.4282,63.6449 C19.6042,63.2249 18.9152,62.5179 18.2142,61.8869 C17.5692,61.3049 16.9922,60.6479 16.3842,60.0249 C16.1342,58.5499 15.2812,57.5199 13.9702,56.8299 C14.3692,58.1989 15.2502,59.2059 16.4092,60.0029 L16.4092,60.0029 Z" id="Fill-331" fill="#40641C" class="icon__color"></path>
            <path d="M21.2091,14.6567 C23.8881,15.9867 26.6301,16.4787 28.7631,18.5917 C27.8021,20.5457 26.8771,22.4307 25.8411,24.5387 C22.9571,22.9967 19.9961,22.2887 17.4311,20.1447 C18.7021,18.2987 19.8921,16.5697 21.2091,14.6567" id="Fill-333" fill="#FFFFFF"></path>
            <path d="M43.6141,21.5636 C42.9761,22.3656 42.5141,22.9096 42.0911,23.4826 C40.5021,25.6316 40.2151,25.8236 38.0871,24.3906 C35.8551,22.8876 33.8191,21.0916 31.7241,19.3896 C30.9661,18.7736 30.7401,18.0046 31.2701,17.0626 C31.8191,16.0876 32.5251,16.0846 33.4861,16.3896 C35.9291,17.1636 38.2671,18.0506 40.2601,19.7786 C41.1531,20.5526 42.3901,20.9316 43.6141,21.5636" id="Fill-335" fill="#FFFFFF"></path>
            <path d="M30.179,19.9197 C33.147,22.1737 36.057,24.3837 39.044,26.6527 C35.768,28.0507 29.735,27.3277 27.408,25.2777 C27.785,23.2867 28.565,21.4597 30.179,19.9197" id="Fill-337" fill="#FFFFFF"></path>
            <path d="M13.6009,27.0837 C14.6109,25.2557 15.6209,23.4267 16.7979,21.2977 C19.8359,22.5027 22.5359,23.8477 25.4119,25.8477 C24.6109,26.4137 24.1069,27.0697 23.5579,27.1097 C20.4149,27.3377 17.2619,27.4207 14.1129,27.5527 C13.9419,27.3967 13.7719,27.2397 13.6009,27.0837" id="Fill-339" fill="#FFFFFF"></path>
            <path d="M15.8222,20.2528 C14.5522,22.5928 13.5672,24.5688 12.3972,26.4288 C12.1512,26.8208 11.1382,27.0548 10.6322,26.8908 C9.6792,26.5808 8.8392,25.9258 7.9492,25.4178 C7.0282,24.8918 6.8032,24.2218 7.3562,23.2498 C8.6832,20.9178 11.0682,20.1098 13.3282,19.2398 C13.8822,19.0268 14.8232,19.8198 15.8222,20.2528" id="Fill-341" fill="#FFFFFF"></path>
            <path d="M41.9518,26.4147 C42.8958,25.0167 43.7588,23.7367 44.6068,22.4797 C48.5738,24.6397 50.0778,28.3347 48.5118,31.5887 C46.3788,29.9067 44.2508,28.2287 41.9518,26.4147" id="Fill-343" fill="#FFFFFF"></path>
            <path d="M3.3502,34.7264 C2.1962,33.7614 1.9202,32.8664 2.7182,31.5594 C3.8292,29.7404 4.7402,27.7994 5.8702,25.6604 C7.5402,26.4884 9.0402,27.2314 10.5402,27.9754 C8.1162,28.8064 5.7962,29.3004 4.0402,31.3534 C4.3542,32.4374 4.9792,33.7114 3.3502,34.7264" id="Fill-345" fill="#FFFFFF"></path>
            <path d="M24.5681,14.7423 C26.8741,14.2743 28.7261,13.8483 30.4801,15.3843 C30.1511,15.9423 29.8461,16.4583 29.4681,17.0983 C27.8791,16.3343 26.4031,15.6253 24.5681,14.7423" id="Fill-347" fill="#FFFFFF"></path>
            <path d="M17.6988,17.3016 C17.1868,17.9606 16.6748,18.6186 16.0118,19.4716 C15.4768,18.9776 15.0728,18.6026 14.3198,17.9056 C15.6468,17.4856 16.5528,17.1986 17.4588,16.9116 C17.5388,17.0416 17.6188,17.1716 17.6988,17.3016" id="Fill-349" fill="#FFFFFF"></path>
            <path d="M4.134,25.7259 C3.55,27.0539 2.966,28.3819 2.383,29.7099 C1.939,27.9229 2.403,26.5129 3.69,25.4359 C3.838,25.5319 3.986,25.6289 4.134,25.7259" id="Fill-351" fill="#FFFFFF"></path>
            <path d="M50.3055,32.9103 C50.2105,33.3993 50.1155,33.8893 50.0205,34.3783 C49.9025,34.3933 49.7845,34.4073 49.6665,34.4223 C49.5595,34.1193 49.3495,33.8073 49.3745,33.5163 C49.3975,33.2533 49.6775,33.0133 49.8445,32.7633 C49.9985,32.8123 50.1515,32.8613 50.3055,32.9103" id="Fill-353" fill="#FFFFFF"></path>
            <path d="M30.9655,29.4588 L32.0555,29.4588 C32.0585,29.4948 32.0625,29.5308 32.0655,29.5668 C31.7235,29.5928 31.3805,29.6188 31.0375,29.6448 C31.0135,29.5828 30.9895,29.5208 30.9655,29.4588" id="Fill-355" fill="#FFFFFF"></path>
            <path d="M27.2986,27.028 C27.1686,27.082 26.9806,27.217 26.9216,27.174 C26.7996,27.085 26.7466,26.902 26.6666,26.757 C26.8036,26.733 26.9626,26.656 27.0726,26.7 C27.1746,26.742 27.2256,26.913 27.2986,27.028" id="Fill-357" fill="#FFFFFF"></path>
            <path d="M22.637,66.2435 C22.356,66.1395 22.075,66.0355 21.794,65.9315 C21.843,65.8475 21.892,65.7635 21.94,65.6785 C22.168,65.8725 22.397,66.0655 22.625,66.2585 L22.637,66.2435 Z" id="Fill-359" fill="#FFFFFF"></path>
            <path d="M22.6248,66.2584 C22.6958,66.2734 22.7668,66.2874 22.8378,66.3024 C22.7708,66.2824 22.7038,66.2634 22.6368,66.2434 L22.6248,66.2584 Z" id="Fill-361" fill="#FFFFFF"></path>
            <path d="M16.4094,60.0029 C15.2504,59.2059 14.3694,58.1989 13.9704,56.8299 C15.2814,57.5199 16.1344,58.5499 16.3844,60.0249 L16.4094,60.0029 Z" id="Fill-363" fill="#000000"></path>
            <polygon id="Fill-365" fill="#000000" points="12.0112 53.9539 11.8872 53.8349 12.0372 53.7929"></polygon>
        </g>
    </g>
</svg>
