<svg width="65px" height="71px" viewBox="643 204 65 71" version="1.1" xmlns="http://www.w3.org/2000/svg" xmlns:xlink="http://www.w3.org/1999/xlink">
    <defs></defs>
    <g id="Group" stroke="none" stroke-width="1" fill="none" fill-rule="evenodd" transform="translate(643.000000, 204.000000)">
        <g id="Group-30">
            <g id="Group-6">
                <path d="M33.8186,37.2047 C33.6496,37.2897 33.4806,37.3747 33.3116,37.4607 C33.9136,38.8277 34.3436,40.3077 35.1526,41.5397 C37.5246,45.1547 38.6406,49.1457 39.5046,53.3357 C40.5306,58.3117 39.7496,62.8037 37.1516,67.0787 C36.9376,67.4317 36.9136,67.9007 36.8016,68.3147 C36.9756,68.3997 37.1486,68.4847 37.3226,68.5697 C40.2196,66.6547 41.3176,63.4037 41.7686,60.2967 C43.0736,51.3227 41.3306,43.1957 33.8186,37.2047 M56.9616,45.0017 C57.7046,43.5577 58.7356,43.9897 59.6526,43.9847 C61.0346,43.9777 62.1966,43.3937 62.8576,42.2227 C63.4746,41.1287 63.0446,40.0117 62.2096,39.1577 C57.0016,33.8327 50.7086,31.2827 43.2306,31.8807 C41.8406,31.9927 40.4626,32.2477 38.9406,32.4557 C39.2166,32.8287 39.2826,33.0187 39.4026,33.0647 C43.2456,34.5387 45.9736,37.5267 48.9766,40.1317 C49.6366,40.7047 50.4936,41.3707 49.4896,42.8307 C48.1286,41.5627 46.8296,40.4447 45.6386,39.2227 C42.8926,36.4047 39.5006,34.6637 35.8676,33.3687 C35.0746,33.0857 34.0956,33.3277 33.2016,33.3277 C33.1726,33.4987 33.1426,33.6697 33.1126,33.8407 C33.6686,34.2537 34.2086,34.6887 34.7826,35.0757 C37.6476,37.0087 39.6726,39.6117 41.0106,42.7817 C41.4136,43.7357 41.8646,44.6717 42.3306,45.5977 C45.0396,50.9907 49.2816,54.2677 55.4016,54.6217 C57.0936,54.7187 58.8576,54.2397 60.5286,53.8007 C61.7626,53.4767 62.2716,52.4627 61.8936,51.1567 C61.2556,48.9517 60.2886,46.9877 58.1056,45.8807 C57.7076,45.6777 57.3826,45.3307 56.9616,45.0017 M33.5786,30.6927 C34.4006,30.6927 34.9436,30.7377 35.4766,30.6847 C37.4626,30.4847 39.4446,30.2417 41.4306,30.0327 C46.3086,29.5207 51.0186,28.2437 55.4746,26.2877 C57.0326,25.6027 58.2776,23.9747 59.3806,22.5557 C60.3226,21.3447 60.1816,19.8847 59.2366,18.5397 C58.0466,16.8447 56.4926,15.6617 54.5916,14.8997 C52.2006,13.9407 49.7686,13.3317 47.0126,14.2107 C47.2076,13.1107 47.5236,12.2767 47.9286,11.4877 C48.7376,9.9127 49.2476,8.2827 47.9766,6.7797 C46.6546,5.2177 44.9656,4.5297 42.8376,5.1307 C40.5636,5.7727 38.8566,7.0927 37.5756,9.0277 C34.1326,14.2287 32.3086,20.1177 30.4576,25.9817 C30.1106,27.0817 30.1946,28.3527 30.2676,29.5327 C30.2956,29.9817 30.8526,30.3967 31.3196,31.0327 C33.4366,24.8057 36.7616,20.7387 39.8936,20.7977 C38.0326,24.2677 33.8806,26.1187 33.5786,30.6927 M22.1106,46.7427 C20.6426,45.9067 20.9306,45.0347 21.1886,44.2077 C22.1156,41.2457 23.0346,38.2797 24.0186,35.3357 C24.7106,33.2667 23.9846,32.0237 21.7656,32.1847 C20.3946,32.2847 18.8806,32.7337 17.7546,33.5007 C13.1686,36.6237 9.7946,40.8157 7.5796,45.9177 C7.3906,46.3527 7.1786,46.8277 7.1726,47.2867 C7.1206,51.2887 8.1286,53.2797 12.2026,52.9937 C13.2896,52.9167 14.3726,52.7707 15.7116,52.6297 C15.7116,54.0287 15.6346,55.2867 15.7296,56.5307 C15.8786,58.4617 16.7246,59.2597 18.6516,59.2697 C19.5116,59.2737 20.4196,59.1407 21.2246,58.8467 C27.0886,56.7067 30.8506,52.5157 32.8836,46.6887 C33.4596,45.0387 33.4136,43.3987 32.7546,41.7727 C31.9456,39.7787 31.1266,37.7867 30.3606,35.7757 C29.7906,34.2797 28.8486,33.2257 27.1786,32.7357 C24.0566,36.7927 23.6296,41.8397 22.1106,46.7427 M11.2986,18.9157 C11.2196,19.1637 11.1406,19.4117 11.0616,19.6597 C10.1666,19.5777 9.2706,19.4977 8.3756,19.4147 C7.5066,19.3337 6.6276,19.1277 5.7716,19.1967 C4.3286,19.3127 3.1976,20.3997 2.9076,21.7087 C2.6046,23.0757 3.1716,24.0387 4.3116,24.7237 C5.0646,25.1757 5.8336,25.5997 6.5956,26.0337 C10.1426,28.0537 14.2196,28.3007 18.0366,29.4137 C20.3276,30.0817 22.7226,30.3967 25.0756,30.8427 C26.1686,31.0497 27.1236,30.8427 27.7556,29.6767 C25.8616,25.5587 21.8206,23.7417 18.5226,21.0367 C20.4866,21.1787 22.1796,21.9237 23.6916,22.9767 C25.1956,24.0257 26.5556,25.2817 28.2446,26.6657 C28.3396,25.7837 28.4686,25.3827 28.4086,25.0127 C27.9156,22.0177 27.5446,18.9897 26.8356,16.0447 C25.4636,10.3427 22.4046,5.7657 17.0246,3.1197 C12.9486,1.1157 10.1396,1.6937 7.9356,4.3757 C4.8176,8.1707 5.6336,14.6297 9.6706,17.6607 C10.2186,18.0717 10.7566,18.4977 11.2986,18.9157 M32.9426,69.5687 C40.0956,62.1937 38.3686,54.4587 35.9266,46.6587 C35.7126,46.5927 35.4996,46.5267 35.2856,46.4617 C34.9916,47.1307 34.6836,47.7937 34.4056,48.4687 C32.7116,52.5767 29.9786,55.8977 26.3206,58.3247 C24.5606,59.4927 22.4716,60.2797 20.4256,60.8747 C17.2546,61.7957 14.7626,60.1737 13.9046,56.9557 C13.3436,54.8517 13.3436,54.8517 11.1106,54.6937 C6.8666,54.3927 4.3186,50.8667 5.5476,46.7787 C6.9446,42.1307 9.8836,38.4447 13.3476,35.1707 C14.7326,33.8617 16.3086,32.7567 18.0196,31.3797 C17.4516,31.1207 16.9576,30.8187 16.4206,30.6637 C13.1996,29.7337 9.9366,28.9327 6.7546,27.8857 C5.3436,27.4217 3.9256,26.6777 2.7956,25.7227 C-0.2414,23.1577 0.5196,19.1647 4.1986,17.7267 C4.7796,17.4997 5.3626,17.2777 6.0716,17.0057 C5.9146,16.5407 5.8506,16.1507 5.6636,15.8337 C3.7266,12.5517 3.7126,9.1777 5.0426,5.6847 C6.5066,1.8397 10.2036,-0.3263 14.2276,0.5617 C20.5926,1.9677 24.8226,5.9387 27.0906,11.9437 C28.1886,14.8487 28.9066,17.8957 29.9156,21.2757 C30.4116,20.0827 30.7836,19.1047 31.2196,18.1557 C32.6516,15.0407 34.0396,11.9037 35.5716,8.8387 C37.1496,5.6797 39.8976,4.0077 43.2786,3.3207 C46.2556,2.7147 49.7456,4.7787 50.3366,7.6827 C50.5926,8.9417 50.2466,10.3227 50.1606,11.8947 C50.6116,12.0027 51.1906,12.1617 51.7776,12.2777 C54.9186,12.8987 57.6966,14.1357 59.8076,16.6757 C62.4576,19.8677 62.2806,22.5537 59.2836,25.4957 C56.9016,27.8347 53.9256,28.8817 50.8316,29.7457 C50.3176,29.8897 49.7936,29.9967 48.8566,30.2207 C54.4526,31.3617 58.8896,33.7417 62.6666,37.3767 C65.9016,40.4907 65.5536,43.1167 61.6146,45.2497 C61.4856,45.3207 61.4046,45.4807 61.1556,45.7667 C61.4176,46.2307 61.7376,46.7447 62.0066,47.2837 C62.5036,48.2807 63.0956,49.2537 63.4256,50.3057 C64.1846,52.7227 63.3226,54.3227 60.9436,55.2017 C55.3436,57.2707 50.2936,55.8977 45.5396,52.7217 C44.9666,52.3397 44.4426,51.8847 43.6236,51.2537 C43.6236,54.2997 43.8276,57.0147 43.5736,59.6857 C43.2326,63.2847 41.4806,66.3557 39.2276,69.1407 C38.5326,69.9997 37.8176,70.5797 36.5676,70.1697 C35.6286,69.8607 34.5986,69.8287 32.9426,69.5687" id="Fill-237" fill="#000000"></path>
                <path d="M11.2988,18.9162 C10.7558,18.4972 10.2178,18.0722 9.6698,17.6602 C5.6338,14.6302 4.8178,8.1702 7.9358,4.3752 C10.1388,1.6942 12.9488,1.1152 17.0248,3.1202 C22.4048,5.7662 25.4638,10.3422 26.8358,16.0442 C27.5448,18.9902 27.9158,22.0172 28.4078,25.0132 C28.4688,25.3822 28.3388,25.7842 28.2448,26.6662 C26.5548,25.2822 25.1958,24.0252 23.6918,22.9772 C22.1798,21.9242 20.4858,21.1792 18.5218,21.0372 C21.8198,23.7412 25.8618,25.5582 27.7558,29.6772 C27.1238,30.8422 26.1688,31.0492 25.0758,30.8422 C22.7228,30.3962 20.3278,30.0822 18.0368,29.4142 C14.2198,28.3012 10.1428,28.0542 6.5958,26.0342 C5.8338,25.5992 5.0638,25.1762 4.3118,24.7242 C3.1718,24.0392 2.6038,23.0752 2.9078,21.7092 C3.1978,20.3992 4.3288,19.3122 5.7708,19.1962 C6.6278,19.1272 7.5068,19.3342 8.3758,19.4142 C9.2708,19.4972 10.1658,19.5782 11.0618,19.6592 C11.1408,19.4112 11.2198,19.1642 11.2988,18.9162" id="Fill-239" fill="#FFFFFF"></path>
                <path d="M22.1108,46.7426 C23.6288,41.8396 24.0568,36.7926 27.1788,32.7356 C28.8488,33.2256 29.7898,34.2796 30.3598,35.7756 C31.1268,37.7876 31.9458,39.7786 32.7548,41.7736 C33.4138,43.3986 33.4598,45.0386 32.8838,46.6886 C30.8508,52.5156 27.0888,56.7066 21.2248,58.8476 C20.4198,59.1406 19.5108,59.2736 18.6518,59.2696 C16.7248,59.2596 15.8788,58.4616 15.7298,56.5306 C15.6338,55.2866 15.7118,54.0286 15.7118,52.6296 C14.3728,52.7706 13.2898,52.9176 12.2028,52.9936 C8.1288,53.2806 7.1208,51.2896 7.1728,47.2866 C7.1788,46.8276 7.3898,46.3526 7.5798,45.9176 C9.7938,40.8156 13.1688,36.6236 17.7548,33.5006 C18.8808,32.7336 20.3938,32.2856 21.7658,32.1856 C23.9848,32.0236 24.7108,33.2666 24.0188,35.3356 C23.0338,38.2796 22.1158,41.2456 21.1888,44.2076 C20.9298,45.0356 20.6418,45.9066 22.1108,46.7426" id="Fill-241" fill="#40641C" class="icon__color"></path>
                <path d="M33.5787,30.6926 C33.8797,26.1186 38.0327,24.2676 39.8937,20.7976 C36.7617,20.7396 33.4367,24.8056 31.3197,31.0326 C30.8527,30.3966 30.2957,29.9816 30.2677,29.5336 C30.1947,28.3526 30.1107,27.0816 30.4577,25.9816 C32.3087,20.1176 34.1327,14.2286 37.5757,9.0286 C38.8567,7.0926 40.5637,5.7726 42.8377,5.1306 C44.9657,4.5306 46.6547,5.2176 47.9767,6.7796 C49.2477,8.2826 48.7377,9.9126 47.9287,11.4876 C47.5237,12.2766 47.2077,13.1106 47.0127,14.2106 C49.7687,13.3316 52.2007,13.9406 54.5917,14.8996 C56.4927,15.6616 58.0467,16.8446 59.2367,18.5396 C60.1817,19.8846 60.3227,21.3456 59.3807,22.5556 C58.2767,23.9746 57.0327,25.6036 55.4747,26.2876 C51.0187,28.2446 46.3087,29.5206 41.4307,30.0336 C39.4447,30.2416 37.4627,30.4846 35.4757,30.6846 C34.9437,30.7386 34.4007,30.6926 33.5787,30.6926" id="Fill-243" fill="#40641C" class="icon__color"></path>
                <path d="M56.962,45.0022 C57.383,45.3312 57.707,45.6782 58.106,45.8802 C60.289,46.9882 61.256,48.9522 61.894,51.1572 C62.271,52.4632 61.762,53.4762 60.529,53.8002 C58.857,54.2402 57.094,54.7192 55.402,54.6212 C49.281,54.2672 45.039,50.9902 42.33,45.5982 C41.865,44.6722 41.413,43.7362 41.01,42.7812 C39.672,39.6122 37.648,37.0082 34.782,35.0762 C34.209,34.6892 33.668,34.2542 33.113,33.8412 C33.142,33.6702 33.172,33.4982 33.202,33.3272 C34.095,33.3272 35.075,33.0862 35.868,33.3682 C39.501,34.6642 42.892,36.4042 45.639,39.2232 C46.829,40.4452 48.128,41.5622 49.489,42.8312 C50.494,41.3712 49.636,40.7042 48.976,40.1322 C45.973,37.5272 43.245,34.5392 39.403,33.0652 C39.282,33.0192 39.217,32.8282 38.941,32.4562 C40.463,32.2482 41.841,31.9922 43.23,31.8812 C50.709,31.2822 57.002,33.8322 62.21,39.1582 C63.045,40.0122 63.475,41.1292 62.858,42.2222 C62.197,43.3932 61.034,43.9772 59.653,43.9852 C58.736,43.9902 57.705,43.5582 56.962,45.0022" id="Fill-245" fill="#FFFFFF"></path>
                <path d="M33.8186,37.2047 C41.3306,43.1957 43.0736,51.3227 41.7686,60.2967 C41.3176,63.4037 40.2196,66.6547 37.3226,68.5697 C37.1486,68.4847 36.9756,68.3997 36.8016,68.3147 C36.9136,67.9007 36.9376,67.4317 37.1516,67.0787 C39.7496,62.8037 40.5306,58.3117 39.5046,53.3357 C38.6406,49.1457 37.5246,45.1547 35.1526,41.5397 C34.3436,40.3077 33.9136,38.8277 33.3116,37.4607 C33.4806,37.3747 33.6496,37.2897 33.8186,37.2047" id="Fill-247" fill="#40641C" class="icon__color"></path>
            </g>
        </g>
    </g>
</svg>
