<svg width="51px" height="46px" viewBox="337 227 51 46" version="1.1" xmlns="http://www.w3.org/2000/svg" xmlns:xlink="http://www.w3.org/1999/xlink">
    <defs></defs>
    <g id="Group" stroke="none" stroke-width="1" fill="none" fill-rule="evenodd" transform="translate(337.000000, 227.000000)">
        <g id="Group-8">
            <path d="M31.8349,30.6688 C34.1029,32.1988 36.4919,32.1188 38.9559,32.3928 C42.2479,32.7588 44.6789,31.6098 47.1489,29.9858 C48.8879,28.8418 48.8409,26.7178 46.9929,25.7798 C46.1349,25.3438 44.9939,25.0948 44.0669,25.2558 C42.6829,25.4968 41.3349,26.0878 40.0419,26.6848 C37.3189,27.9418 34.6419,29.2988 31.8349,30.6688 M22.6959,29.5568 C20.2309,26.7778 18.0919,24.3648 15.9509,21.9538 C15.6869,21.6558 15.4199,21.3598 15.1459,21.0708 C12.1279,17.9038 8.2139,16.6558 4.0599,16.0168 C2.7919,15.8218 2.1539,16.6458 2.7349,17.7768 C3.4129,19.0968 4.2269,20.5038 5.3569,21.3988 C7.4129,23.0258 9.6469,24.4108 11.1969,26.6068 C11.4099,26.9088 11.8119,27.1418 12.1749,27.2638 C14.5079,28.0508 16.8299,28.8908 19.2079,29.5128 C20.2179,29.7768 21.3539,29.5568 22.6959,29.5568 M36.3579,3.7368 C33.8659,7.8778 30.4959,10.3888 27.1709,13.0038 C25.8839,14.0158 24.9799,15.7208 24.3329,17.2878 C23.5899,19.0888 24.7149,21.2978 26.3309,22.5038 C28.0129,23.7598 29.2959,22.7578 30.6689,21.9698 C31.9069,21.2598 33.0989,20.4158 34.4189,19.9168 C36.5849,19.0998 37.7819,17.5348 38.3149,15.4228 C39.0959,12.3328 38.8789,9.2468 37.8669,6.2388 C37.6259,5.5228 37.0789,4.9088 36.3579,3.7368 M23.9769,27.7668 C25.0429,26.0358 25.0979,24.6608 24.1869,23.2088 C21.3959,18.7578 22.5879,14.5148 26.1079,11.9198 C30.1679,8.9268 33.6589,5.5328 36.2049,1.1768 C36.3109,0.9948 36.5809,0.9078 36.9549,0.6528 C37.2929,1.0498 37.6989,1.3968 37.9419,1.8338 C40.0009,5.5428 40.3539,9.6808 40.1049,13.7158 C39.9049,16.9548 38.7529,20.1528 35.1749,21.5928 C32.8839,22.5148 30.6129,23.5058 28.4049,24.6088 C27.7069,24.9578 27.0189,25.6768 26.7229,26.3898 C26.3529,27.2788 26.8499,28.3578 27.8049,28.4468 C29.5169,28.6058 31.3819,28.7638 32.9669,28.2528 C35.1379,27.5548 37.0759,26.1628 39.1719,25.1938 C41.4919,24.1228 43.8549,23.0248 46.5299,23.8628 C48.1079,24.3588 49.5739,25.0998 49.9159,26.8978 C50.2889,28.8638 49.6339,30.4998 47.9699,31.7188 C43.2129,35.2068 38.1319,34.7918 32.9429,32.9898 C30.6909,32.2078 28.4659,31.3488 25.8899,30.3998 C25.4609,33.0048 25.1039,35.3058 26.2449,37.5598 C27.0389,39.1278 27.9679,40.6288 28.7369,42.2088 C29.1249,43.0048 29.2909,43.9078 29.6409,45.0298 C27.7929,44.2648 27.7169,44.2998 25.1349,38.8188 C24.0569,36.5308 23.3789,34.0558 22.4379,31.4388 C19.1459,31.4858 15.8449,30.5798 12.7539,29.0638 C11.3679,28.3838 10.1879,27.2678 8.9539,26.2988 C7.8319,25.4178 6.8489,24.3318 5.6519,23.5778 C3.4459,22.1888 2.0019,20.2548 1.0719,17.8908 C0.2589,15.8248 0.9569,14.6578 3.1709,14.3838 C3.7919,14.3068 4.4719,14.3288 5.0689,14.4988 C10.9779,16.1828 16.1439,18.9778 19.6559,24.2728 C20.6739,25.8068 22.0049,27.0378 23.9769,27.7668" id="Fill-249" fill="#000000"></path>
            <path d="M36.3583,3.7365 C37.0793,4.9095 37.6263,5.5225 37.8673,6.2395 C38.8793,9.2465 39.0953,12.3335 38.3153,15.4235 C37.7813,17.5355 36.5853,19.0995 34.4193,19.9175 C33.0983,20.4155 31.9063,21.2595 30.6693,21.9695 C29.2953,22.7585 28.0133,23.7595 26.3303,22.5035 C24.7153,21.2975 23.5893,19.0885 24.3333,17.2875 C24.9803,15.7205 25.8833,14.0165 27.1703,13.0035 C30.4953,10.3885 33.8663,7.8785 36.3583,3.7365" id="Fill-251" fill="#40641C" class="icon__color"></path>
            <path d="M22.6958,29.5568 C21.3548,29.5568 20.2178,29.7768 19.2078,29.5128 C16.8298,28.8908 14.5078,28.0508 12.1748,27.2638 C11.8118,27.1418 11.4098,26.9088 11.1968,26.6068 C9.6468,24.4108 7.4138,23.0258 5.3568,21.3988 C4.2268,20.5038 3.4128,19.0968 2.7348,17.7768 C2.1548,16.6458 2.7918,15.8218 4.0598,16.0168 C8.2148,16.6558 12.1278,17.9038 15.1458,21.0708 C15.4198,21.3598 15.6868,21.6558 15.9508,21.9538 C18.0918,24.3648 20.2308,26.7778 22.6958,29.5568" id="Fill-253" fill="#40641C" class="icon__color"></path>
            <path d="M31.8349,30.6688 C34.6419,29.2988 37.3189,27.9418 40.0419,26.6848 C41.3349,26.0878 42.6829,25.4968 44.0669,25.2558 C44.9939,25.0948 46.1349,25.3438 46.9929,25.7798 C48.8409,26.7178 48.8879,28.8418 47.1489,29.9858 C44.6789,31.6098 42.2479,32.7588 38.9559,32.3928 C36.4919,32.1188 34.1029,32.1988 31.8349,30.6688" id="Fill-255" fill="#40641C" class="icon__color"></path>
        </g>
    </g>
</svg>
