<svg width="43px" height="77px" viewBox="567 105 43 77" version="1.1" xmlns="http://www.w3.org/2000/svg" xmlns:xlink="http://www.w3.org/1999/xlink">
    <defs>
        <polygon id="path-1" points="0.000174534197 76 42.767694 76 42.767694 0.608 0.000174534197 0.608 0.000174534197 76"></polygon>
    </defs>
    <g id="Group" stroke="none" stroke-width="1" fill="none" fill-rule="evenodd" transform="translate(567.000000, 105.000000)">
        <g id="Page-1">
            <g id="Group-3" transform="translate(0.000000, 0.392400)">
                <mask id="mask-2" fill="white">
                    <use xlink:href="#path-1"></use>
                </mask>
                <g id="Clip-2"></g>
                <path d="M22.2631,16.0573 C23.5041,14.4333 24.8471,14.0823 26.2811,13.8103 C27.6031,13.5593 28.3271,12.7053 28.3321,11.8043 C28.3381,10.7843 27.7941,10.1553 26.4731,9.6633 C26.1011,9.5243 25.7251,9.3933 25.3481,9.2653 C23.5811,8.6643 22.4581,7.5373 22.2631,5.5913 L22.2631,16.0573 Z M22.2831,28.2003 C24.3491,27.0453 26.0001,26.1513 27.6221,25.2063 C29.1011,24.3433 29.6301,22.3923 28.8651,20.8473 C28.5061,20.1233 27.9321,19.9263 27.3271,20.4183 C26.1971,21.3363 24.9611,21.5953 23.5531,21.3783 C22.6101,21.2333 22.2861,21.8203 22.2841,22.6593 C22.2801,24.3893 22.2831,26.1203 22.2831,28.2003 L22.2831,28.2003 Z M22.7391,30.7163 C22.6741,31.3753 22.6091,31.7633 22.6011,32.1533 C22.4661,38.3863 22.3771,44.6203 22.1911,50.8513 C22.1121,53.4853 21.9391,56.1283 21.6121,58.7423 C21.2161,61.9093 20.4821,65.0363 20.1471,68.2083 C19.9581,70.0023 20.2331,71.8543 20.3891,73.6723 C20.4551,74.4463 21.1191,74.7093 21.8161,74.6053 C22.5791,74.4913 22.5381,73.8623 22.4551,73.2913 C22.3861,72.8173 22.2441,72.3543 22.1711,71.8813 C21.7841,69.3583 21.2531,66.8523 22.0331,64.2893 C22.6401,62.2953 24.1001,61.0133 26.1961,60.9613 C27.4741,60.9303 28.7551,61.0613 30.0331,61.0283 C30.9021,61.0063 31.7781,60.8793 32.6321,60.7053 C33.5551,60.5173 34.4491,60.1903 35.3691,59.9763 C36.2201,59.7783 39.4401,58.0193 39.8411,57.4373 C41.0741,55.6523 41.6431,53.6753 41.2341,51.5303 C40.9151,49.8573 40.3221,48.3043 38.6381,47.4313 C36.9781,46.5703 36.4731,46.5523 35.4271,48.0723 C34.5381,49.3623 33.3261,49.9523 31.9241,50.3993 C29.4761,51.1813 27.1821,50.6393 24.9551,49.6373 C23.0571,48.7833 22.4971,47.1743 23.3701,45.2973 C23.6721,44.6463 24.0501,44.0313 24.3741,43.3903 C25.3551,41.4523 26.6931,39.9723 28.9761,39.5923 C29.6791,39.4753 30.3821,39.2563 31.0381,38.9733 C32.5531,38.3193 33.4461,36.8623 33.3301,35.3713 C33.1851,33.5133 32.0841,32.8403 30.3741,33.5863 C29.9361,33.7773 29.5251,34.0333 29.1081,34.2703 C27.8531,34.9833 26.6161,34.9673 25.5741,33.9503 C24.6401,33.0373 23.8411,31.9863 22.7391,30.7163 L22.7391,30.7163 Z M1.6251,48.1433 C0.9341,53.0953 3.5021,55.7163 5.9901,57.2663 C7.4021,58.1453 8.9491,58.8913 10.5311,59.3933 C12.9581,60.1623 14.0111,61.8403 14.1601,64.1883 C14.2291,65.2843 13.9921,66.4003 13.8951,67.5083 C13.7971,68.6133 13.5501,69.7313 13.6351,70.8233 C13.7931,72.8613 14.7611,73.7503 16.7811,74.0283 C18.1341,74.2143 18.6501,73.7293 18.6301,72.2973 C18.6141,71.1863 18.4911,70.0613 18.6131,68.9653 C19.1941,63.7313 19.8911,58.5093 20.4461,53.2733 C20.6811,51.0533 20.7281,48.8073 20.7551,46.5713 C20.8441,39.3093 20.9051,32.0463 20.9381,24.7823 C20.9661,18.5543 20.9461,12.3263 20.9381,6.0983 C20.9371,4.9033 20.9771,3.6883 20.2631,2.2823 C19.6811,4.1753 19.3041,5.7243 18.7301,7.1963 C17.9251,9.2603 16.6791,10.9453 14.4591,11.7803 C13.5941,12.1063 12.7731,12.7123 12.1111,13.3713 C11.3051,14.1723 11.5921,15.1983 12.6251,15.7073 C12.9071,15.8473 13.2451,15.8713 13.5381,15.9933 C15.5061,16.8083 15.9691,17.9083 15.3541,20.2603 C14.7891,22.4193 14.2961,22.7523 11.9811,22.5313 C11.8231,22.5163 11.6681,22.4343 11.5121,22.4363 C10.5351,22.4453 9.2441,23.3493 8.8951,24.2763 C8.4851,25.3633 9.0331,26.0923 9.8061,26.7723 C10.9661,27.7893 12.1841,28.6023 13.7951,28.7753 C15.5561,28.9643 16.0991,29.5803 16.4421,31.2943 C16.7921,33.0453 16.1941,34.6173 15.5351,36.1643 C14.6731,38.1863 13.9591,38.5083 12.0911,37.3713 C10.5651,36.4423 9.4361,36.7113 8.2401,37.8443 C7.3261,38.7093 7.1871,39.4013 8.0741,40.2073 C8.5331,40.6243 9.1271,40.9253 9.7071,41.1683 C11.0321,41.7243 12.3971,42.1843 13.7221,42.7393 C14.3001,42.9823 14.9311,43.2593 15.3451,43.7013 C16.5841,45.0223 15.6281,49.5693 13.9891,50.3843 C11.3281,51.7083 8.6841,51.9443 6.0011,50.3763 C4.6451,49.5843 3.2011,48.9403 1.6251,48.1433 L1.6251,48.1433 Z M28.8841,62.4653 C28.2461,62.4163 27.6091,62.3633 26.9721,62.3163 C25.1321,62.1803 24.2251,62.6193 23.6761,64.3433 C23.2981,65.5313 23.1011,66.8543 23.1841,68.0923 C23.3061,69.9143 23.7351,71.7173 24.0601,73.5233 C24.4071,75.4483 23.9991,76.0263 22.0071,75.9993 C19.8631,75.9693 17.6971,76.1563 15.5991,75.4113 C14.1191,74.8863 13.1991,73.9423 12.7421,72.4443 C12.2201,70.7343 11.8911,69.0373 12.4131,67.2663 C12.5711,66.7303 12.6941,66.1803 12.7761,65.6283 C13.1931,62.8393 12.2081,61.2083 9.5641,60.2603 C7.3031,59.4493 5.1981,58.3863 3.3571,56.7943 C0.5481,54.3643 -0.0479,51.1463 0.0031,47.7043 C0.0231,46.3413 1.1451,45.9173 2.4101,46.6923 C3.7621,47.5213 5.1161,48.3463 6.4671,49.1763 C8.5671,50.4653 10.7121,50.3533 12.8461,49.3163 C14.2981,48.6113 14.2511,47.1193 14.4661,45.8193 C14.6441,44.7443 13.8871,44.2803 13.0121,43.9163 C11.6881,43.3663 10.3591,42.8153 9.0851,42.1633 C8.2491,41.7353 7.3441,41.2653 6.7531,40.5723 C5.6061,39.2303 5.9831,37.6473 7.4841,36.6223 C7.8131,36.3973 8.1191,36.1383 8.4391,35.9003 C9.8311,34.8713 11.1041,35.2843 12.4171,36.1333 C13.4741,36.8163 13.7581,36.7173 14.1831,35.6213 C14.5281,34.7333 14.8251,33.8093 14.9891,32.8733 C15.3161,30.9993 14.8361,30.3343 12.9471,29.8653 C11.0981,29.4063 9.6231,28.2923 8.2661,27.0633 C6.8531,25.7833 6.8591,24.3283 8.0771,22.8203 C9.0901,21.5673 10.3531,20.9043 12.0211,21.0093 C13.4401,21.0983 13.8071,20.7533 14.1171,19.3613 C14.3811,18.1783 14.1351,17.7113 12.9031,17.1283 C12.6171,16.9923 12.2831,16.9523 12.0001,16.8103 C9.7121,15.6653 9.4681,13.3973 11.4991,11.8793 C12.1981,11.3573 12.9621,10.8903 13.7571,10.5343 C15.5561,9.7293 16.7051,8.3853 17.3081,6.5473 C17.6811,5.4113 18.0101,4.2593 18.3471,3.1113 C18.8981,1.2323 19.8681,0.4183 21.3041,0.6443 C22.7501,0.8713 23.9021,2.2833 23.9571,3.9163 C23.9651,4.1523 23.8731,4.3903 23.8691,4.6283 C23.8301,6.8443 24.3451,7.6293 26.5891,8.1343 C28.2681,8.5123 29.2601,9.3783 29.7071,11.0313 C30.0441,12.2773 29.8361,13.3023 28.7131,13.9313 C27.8271,14.4263 26.8491,14.7973 25.8691,15.0733 C24.3771,15.4933 22.9491,17.5363 23.2031,19.0623 C23.3251,19.7923 24.0111,20.2633 24.8501,19.9693 C25.6631,19.6853 26.3851,19.1473 27.1561,18.7393 C28.1661,18.2053 28.7711,18.2743 29.4741,19.1423 C31.6611,21.8433 30.6661,25.1283 28.3191,26.3503 C27.3311,26.8643 26.2711,27.2813 25.3721,27.9223 C24.1071,28.8233 24.0511,29.3863 24.7561,30.7663 C24.9741,31.1923 25.1861,31.6283 25.4591,32.0193 C26.4141,33.3853 27.1451,33.5503 28.7101,32.7933 C28.9981,32.6533 29.2701,32.4833 29.5561,32.3413 C31.2961,31.4763 32.5241,31.5203 33.5491,32.4763 C34.7491,33.5963 35.1361,35.8183 34.4181,37.3703 C33.6271,39.0783 32.3581,40.1313 30.4771,40.5023 C28.8091,40.8323 27.1971,41.3853 26.2601,42.9563 C25.6091,44.0473 25.0151,45.1853 24.5291,46.3573 C24.1371,47.3033 24.5901,48.2503 25.6851,48.6363 C27.9111,49.4223 30.2211,49.7673 32.4551,48.7393 C33.1191,48.4353 33.6361,47.7093 34.0971,47.0843 C35.5341,45.1373 36.6251,44.8623 38.7821,46.0123 C42.2271,47.8493 43.5721,51.2443 42.2911,54.8723 C42.2381,55.0223 42.1291,55.1663 42.1201,55.3173 C41.9491,58.1853 40.1731,59.6603 37.6881,60.6433 C34.8491,61.7663 32.0401,62.9183 28.8841,62.4653 L28.8841,62.4653 Z" id="Fill-1" fill="#000000" mask="url(#mask-2)"></path>
            </g>
            <path d="M1.6249,48.5353 C3.2009,49.3333 4.6449,49.9763 6.0009,50.7683 C8.6849,52.3363 11.3279,52.1003 13.9889,50.7773 C15.6279,49.9613 16.5849,45.4153 15.3449,44.0933 C14.9309,43.6513 14.2999,43.3743 13.7219,43.1323 C12.3969,42.5763 11.0319,42.1163 9.7069,41.5613 C9.1269,41.3183 8.5329,41.0173 8.0739,40.6003 C7.1869,39.7933 7.3269,39.1023 8.2399,38.2373 C9.4359,37.1033 10.5649,36.8343 12.0909,37.7633 C13.9589,38.9003 14.6739,38.5793 15.5349,36.5573 C16.1939,35.0103 16.7919,33.4373 16.4419,31.6873 C16.0989,29.9733 15.5569,29.3563 13.7949,29.1673 C12.1839,28.9943 10.9669,28.1823 9.8069,27.1643 C9.0329,26.4853 8.4859,25.7553 8.8949,24.6683 C9.2449,23.7423 10.5349,22.8383 11.5129,22.8283 C11.6679,22.8263 11.8229,22.9083 11.9809,22.9233 C14.2969,23.1453 14.7889,22.8123 15.3539,20.6523 C15.9689,18.3003 15.5059,17.2013 13.5389,16.3853 C13.2449,16.2643 12.9079,16.2393 12.6249,16.1003 C11.5919,15.5913 11.3049,14.5643 12.1109,13.7633 C12.7739,13.1053 13.5939,12.4983 14.4589,12.1733 C16.6789,11.3373 17.9249,9.6533 18.7299,7.5893 C19.3039,6.1173 19.6819,4.5683 20.2629,2.6743 C20.9779,4.0813 20.9369,5.2953 20.9379,6.4903 C20.9459,12.7183 20.9669,18.9473 20.9379,25.1753 C20.9049,32.4383 20.8449,39.7013 20.7559,46.9643 C20.7279,49.1993 20.6809,51.4453 20.4459,53.6653 C19.8909,58.9023 19.1949,64.1233 18.6129,69.3573 C18.4909,70.4543 18.6149,71.5783 18.6299,72.6893 C18.6499,74.1223 18.1339,74.6063 16.7809,74.4203 C14.7619,74.1433 13.7929,73.2543 13.6349,71.2153 C13.5509,70.1243 13.7969,69.0063 13.8949,67.9003 C13.9919,66.7933 14.2299,65.6773 14.1599,64.5803 C14.0109,62.2333 12.9579,60.5553 10.5319,59.7863 C8.9489,59.2843 7.4019,58.5373 5.9899,57.6583 C3.5019,56.1093 0.9339,53.4873 1.6249,48.5353" id="Fill-4" fill="#40641C" class="icon__color"></path>
            <path d="M22.7392,31.1083 C23.8412,32.3783 24.6402,33.4303 25.5742,34.3423 C26.6162,35.3593 27.8532,35.3753 29.1082,34.6633 C29.5252,34.4263 29.9362,34.1703 30.3742,33.9793 C32.0842,33.2333 33.1852,33.9053 33.3302,35.7633 C33.4462,37.2543 32.5532,38.7113 31.0382,39.3653 C30.3822,39.6483 29.6792,39.8673 28.9762,39.9843 C26.6932,40.3653 25.3552,41.8443 24.3742,43.7823 C24.0492,44.4233 23.6722,45.0393 23.3702,45.6893 C22.4972,47.5663 23.0562,49.1763 24.9552,50.0303 C27.1822,51.0313 29.4762,51.5743 31.9242,50.7923 C33.3262,50.3443 34.5382,49.7553 35.4272,48.4643 C36.4732,46.9443 36.9782,46.9623 38.6382,47.8233 C40.3222,48.6963 40.9152,50.2493 41.2342,51.9223 C41.6432,54.0683 41.0742,56.0453 39.8412,57.8303 C39.4402,58.4113 36.2202,60.1713 35.3682,60.3693 C34.4492,60.5833 33.5552,60.9093 32.6322,61.0973 C31.7782,61.2723 30.9022,61.3993 30.0332,61.4213 C28.7552,61.4533 27.4732,61.3223 26.1962,61.3543 C24.1002,61.4063 22.6402,62.6873 22.0332,64.6813 C21.2532,67.2443 21.7842,69.7503 22.1712,72.2733 C22.2442,72.7473 22.3862,73.2103 22.4542,73.6833 C22.5372,74.2543 22.5792,74.8833 21.8162,74.9973 C21.1192,75.1013 20.4552,74.8393 20.3882,74.0653 C20.2332,72.2463 19.9582,70.3953 20.1472,68.6003 C20.4812,65.4293 21.2162,62.3013 21.6122,59.1343 C21.9392,56.5203 22.1122,53.8783 22.1912,51.2433 C22.3772,45.0123 22.4662,38.7783 22.6012,32.5463 C22.6092,32.1563 22.6742,31.7673 22.7392,31.1083" id="Fill-6" fill="#40641C" class="icon__color"></path>
            <path d="M22.283,28.5931 C22.283,26.5131 22.28,24.7821 22.284,23.0521 C22.286,22.2121 22.61,21.6261 23.553,21.7711 C24.961,21.9871 26.197,21.7291 27.327,20.8101 C27.932,20.3191 28.506,20.5151 28.865,21.2401 C29.63,22.7841 29.101,24.7361 27.622,25.5981 C26,26.5441 24.349,27.4381 22.283,28.5931" id="Fill-8" fill="#40641C" class="icon__color"></path>
            <path d="M22.2631,16.4497 L22.2631,5.9837 C22.4581,7.9297 23.5811,9.0567 25.3481,9.6577 C25.7251,9.7857 26.1011,9.9167 26.4731,10.0557 C27.7941,10.5477 28.3381,11.1767 28.3321,12.1967 C28.3271,13.0977 27.6031,13.9517 26.2811,14.2027 C24.8471,14.4747 23.5041,14.8257 22.2631,16.4497" id="Fill-10" fill="#40641C" class="icon__color"></path>
        </g>
    </g>
</svg>
