<svg width="37px" height="43px" viewBox="31 640 37 43" version="1.1" xmlns="http://www.w3.org/2000/svg" xmlns:xlink="http://www.w3.org/1999/xlink">
    <defs></defs>
    <g id="Group-17" stroke="none" stroke-width="1" fill="none" fill-rule="evenodd" transform="translate(31.000000, 640.000000)">
        <path d="M17.3769,40.8197 C17.9169,40.2107 18.2479,39.9757 18.3829,39.6577 C18.8189,38.6357 19.2069,37.5907 19.5679,36.5387 C20.4629,33.9347 21.9739,32.7837 24.7099,32.6817 C25.3479,32.6577 25.9899,32.7017 26.6269,32.6607 C29.7359,32.4597 32.3979,31.3377 34.1829,28.6807 C34.6939,27.9197 35.0979,26.9707 35.1909,26.0707 C35.3549,24.4677 34.5279,23.7127 32.9039,23.7827 C31.7909,23.8297 30.6849,24.0877 29.5729,24.1057 C28.4689,24.1237 27.3469,24.0427 26.2609,23.8507 C25.3269,23.6857 24.7089,23.0397 24.5979,22.0427 C24.4949,21.1187 25.0289,20.5097 25.7569,20.1097 C26.5219,19.6887 27.3709,19.4237 28.1469,19.0207 C29.3269,18.4077 29.7059,17.6317 29.4739,16.4987 C29.2669,15.4837 28.8559,15.2397 27.2849,15.2457 C26.5679,15.2487 25.8429,15.3677 25.1349,15.2947 C24.3699,15.2157 23.7749,14.7807 23.6689,13.9467 C23.5669,13.1467 24.1589,12.8087 24.7699,12.5807 C25.4419,12.3317 26.1449,12.1647 26.8359,11.9687 C27.9599,11.6497 28.8269,10.9867 29.4849,10.0297 C29.9629,9.3357 29.8259,8.6517 29.4249,8.0067 C28.9439,7.2317 28.3139,7.6717 27.7309,7.8717 C27.0539,8.1057 26.3969,8.4137 25.7049,8.5827 C22.9779,9.2497 21.8489,8.3717 21.5239,5.5877 C21.3799,4.3497 20.9979,3.1297 20.6229,1.9337 C20.5339,1.6487 20.0439,1.3247 19.7339,1.3197 C19.4109,1.3147 18.8849,1.6087 18.7929,1.8867 C18.5189,2.7067 18.4229,3.5857 18.2439,4.4387 C18.0649,5.2917 17.9809,6.1847 17.6589,6.9817 C17.0769,8.4217 16.0249,8.8187 14.5629,8.2897 C13.8889,8.0467 13.2459,7.6197 12.5599,7.5427 C11.9979,7.4797 11.1629,7.6377 10.8719,8.0197 C10.5989,8.3787 10.7349,9.2217 10.9569,9.7377 C11.1969,10.2967 11.8099,10.6837 12.1409,11.2197 C12.6789,12.0907 13.2449,12.9797 13.5699,13.9397 C13.9289,14.9997 13.5809,15.5817 12.5689,16.0387 C11.9909,16.2997 11.3389,16.3977 10.7599,16.6567 C9.9629,17.0147 9.1629,17.3937 8.4409,17.8777 C7.7489,18.3407 7.6049,19.0437 8.1239,19.7527 C8.5939,20.3947 9.1199,20.9977 9.6239,21.6157 C10.9729,23.2697 10.6779,24.0767 8.5349,24.4777 C7.8319,24.6087 7.0819,24.5307 6.3949,24.7087 C5.2479,25.0067 4.0489,25.2787 3.0299,25.8457 C1.8159,26.5207 1.8399,27.4847 3.0849,28.1677 C4.3229,28.8467 5.6919,29.3077 7.0389,29.7607 C8.6229,30.2937 10.2579,30.6737 11.8469,31.1947 C15.3029,32.3277 16.9619,34.8157 17.1469,38.3827 C17.1819,39.0577 17.2719,39.7297 17.3769,40.8197 M23.1929,0.4577 C23.1929,1.0537 23.2139,1.6747 23.1889,2.2937 C23.1439,3.4107 23.0009,4.5287 23.0269,5.6427 C23.0699,7.4297 23.7489,7.8797 25.5049,7.3437 C26.1109,7.1587 26.6779,6.8477 27.2619,6.5927 C28.3449,6.1197 29.4199,5.9007 30.3709,6.8507 C31.1549,7.6347 31.3779,9.3507 30.8379,10.4527 C30.2149,11.7247 29.2419,12.6457 27.8979,13.1277 C27.3149,13.3367 26.7039,13.4697 26.1199,13.9487 C26.7009,13.9487 27.2929,14.0197 27.8609,13.9347 C29.2949,13.7187 30.3069,14.3977 30.7859,15.8267 C31.3059,17.3747 30.9479,18.8127 29.7069,19.6827 C29.0599,20.1367 28.2949,20.4207 27.5859,20.7877 C27.1669,21.0047 26.6729,21.1597 26.3729,21.4897 C26.2209,21.6557 26.3689,22.4247 26.4819,22.4477 C27.3889,22.6397 28.3279,22.8537 29.2419,22.7987 C30.4269,22.7277 31.5929,22.2767 32.7759,22.2327 C35.6219,22.1267 37.5309,24.7317 36.5699,27.4287 C35.4979,30.4367 31.8269,33.6717 28.2769,33.8857 C26.9209,33.9667 25.5689,34.1177 24.2119,34.1747 C22.5409,34.2447 21.5879,35.1747 21.0429,36.6547 C20.6299,37.7797 20.2479,38.9177 19.7889,40.0227 C19.5469,40.6077 19.2349,41.1907 18.8379,41.6797 C18.0059,42.7037 16.9479,42.5797 16.3919,41.3667 C16.1359,40.8087 16.1279,40.1367 16.0179,39.5147 C15.8389,38.4937 15.7569,37.4457 15.4729,36.4557 C14.9599,34.6737 13.8749,33.3137 12.0599,32.7137 C10.1679,32.0877 8.2399,31.5757 6.3469,30.9537 C5.1409,30.5577 3.9529,30.0947 2.7909,29.5837 C1.6919,29.1007 0.8759,28.2327 0.9819,27.0017 C1.0919,25.7317 1.9409,24.8077 3.1609,24.3877 C4.2109,24.0257 5.3069,23.7947 6.3859,23.5177 C7.0659,23.3427 7.7509,23.1887 8.6319,22.9777 C8.0339,22.0407 7.4879,21.2747 7.0369,20.4557 C6.2249,18.9787 6.3099,18.0867 7.6329,17.1087 C8.6329,16.3687 9.8269,15.8667 10.9799,15.3627 C12.2649,14.7997 12.5279,14.0987 11.6879,12.9667 C11.0719,12.1377 10.3389,11.3897 9.7709,10.5317 C9.1089,9.5297 8.9999,8.3807 9.6839,7.3637 C10.3839,6.3227 11.5229,6.1627 12.6899,6.3437 C13.3179,6.4407 13.9269,6.6547 14.5499,6.7917 C16.1369,7.1417 16.2669,7.0977 16.7569,5.5197 C17.0639,4.5337 17.2749,3.5107 17.4459,2.4897 C17.8259,0.2247 18.6859,-0.3133 20.9059,0.2707 C21.6069,0.4557 22.3719,0.3977 23.1929,0.4577" id="Fill-87" fill="#000000"></path>
        <path d="M17.3769,40.8197 C17.2719,39.7297 17.1819,39.0577 17.1469,38.3827 C16.9619,34.8157 15.3029,32.3277 11.8469,31.1947 C10.2579,30.6737 8.6229,30.2937 7.0389,29.7607 C5.6919,29.3077 4.3229,28.8467 3.0849,28.1677 C1.8399,27.4847 1.8159,26.5207 3.0299,25.8457 C4.0489,25.2787 5.2479,25.0067 6.3949,24.7087 C7.0819,24.5307 7.8319,24.6087 8.5349,24.4777 C10.6779,24.0767 10.9729,23.2697 9.6239,21.6157 C9.1199,20.9977 8.5939,20.3947 8.1239,19.7527 C7.6049,19.0437 7.7489,18.3407 8.4409,17.8777 C9.1629,17.3937 9.9629,17.0147 10.7599,16.6567 C11.3389,16.3977 11.9909,16.2997 12.5689,16.0387 C13.5809,15.5817 13.9289,14.9997 13.5699,13.9397 C13.2449,12.9797 12.6789,12.0907 12.1409,11.2197 C11.8099,10.6837 11.1969,10.2967 10.9569,9.7377 C10.7349,9.2217 10.5989,8.3787 10.8719,8.0197 C11.1629,7.6377 11.9979,7.4797 12.5599,7.5427 C13.2459,7.6197 13.8889,8.0467 14.5629,8.2897 C16.0249,8.8187 17.0769,8.4217 17.6589,6.9817 C17.9809,6.1847 18.0649,5.2917 18.2439,4.4387 C18.4229,3.5857 18.5189,2.7067 18.7929,1.8867 C18.8849,1.6087 19.4109,1.3147 19.7339,1.3197 C20.0439,1.3247 20.5339,1.6487 20.6229,1.9337 C20.9979,3.1297 21.3799,4.3497 21.5239,5.5877 C21.8489,8.3717 22.9779,9.2497 25.7049,8.5827 C26.3969,8.4137 27.0539,8.1057 27.7309,7.8717 C28.3139,7.6717 28.9439,7.2317 29.4249,8.0067 C29.8259,8.6517 29.9629,9.3357 29.4849,10.0297 C28.8269,10.9867 27.9599,11.6497 26.8359,11.9687 C26.1449,12.1647 25.4419,12.3317 24.7699,12.5807 C24.1589,12.8087 23.5669,13.1467 23.6689,13.9467 C23.7749,14.7807 24.3699,15.2157 25.1349,15.2947 C25.8429,15.3677 26.5679,15.2487 27.2849,15.2457 C28.8559,15.2397 29.2669,15.4837 29.4739,16.4987 C29.7059,17.6317 29.3269,18.4077 28.1469,19.0207 C27.3709,19.4237 26.5219,19.6887 25.7569,20.1097 C25.0289,20.5097 24.4949,21.1187 24.5979,22.0427 C24.7089,23.0397 25.3269,23.6857 26.2609,23.8507 C27.3469,24.0427 28.4689,24.1237 29.5729,24.1057 C30.6849,24.0877 31.7909,23.8297 32.9039,23.7827 C34.5279,23.7127 35.3549,24.4677 35.1909,26.0707 C35.0979,26.9707 34.6939,27.9197 34.1829,28.6807 C32.3979,31.3377 29.7359,32.4597 26.6269,32.6607 C25.9899,32.7017 25.3479,32.6577 24.7099,32.6817 C21.9739,32.7837 20.4629,33.9347 19.5679,36.5387 C19.2069,37.5907 18.8189,38.6357 18.3829,39.6577 C18.2479,39.9757 17.9169,40.2107 17.3769,40.8197" id="Fill-89" fill="#40641C" class="icon__color"></path>
    </g>
</svg>
