<svg width="35px" height="64px" viewBox="337 740 35 64" version="1.1" xmlns="http://www.w3.org/2000/svg" xmlns:xlink="http://www.w3.org/1999/xlink">
    <defs>
        <polygon id="path-1" points="0.756535765 63 34.9505277 63 34.9505277 0.187793348 0.756535765 0.187793348 0.756535765 63"></polygon>
    </defs>
    <g id="Group" stroke="none" stroke-width="1" fill="none" fill-rule="evenodd" transform="translate(337.000000, 740.000000)">
        <g id="Group-22">
            <g id="Group-259" transform="translate(0.000000, 0.078000)">
                <mask id="mask-2" fill="white">
                    <use xlink:href="#path-1"></use>
                </mask>
                <g id="Clip-258"></g>
                <path d="M8.7452,60.8701 C14.0732,59.0331 18.9572,57.2991 23.3712,54.5871 C25.9402,53.0091 27.4042,50.3671 28.5392,47.5701 C29.2832,45.7371 30.0212,43.8391 31.1382,42.2321 C33.3022,39.1201 33.8522,35.7771 33.0912,32.1971 C32.7072,30.3851 32.5642,28.6481 32.6522,26.7801 C32.7712,24.2621 32.7342,21.3571 30.0582,20.0311 C27.6702,18.8471 26.9222,16.9121 26.0982,14.6801 C25.0252,11.7781 23.6442,8.9781 22.2452,6.2121 C21.1372,4.0231 19.1452,2.6841 16.8392,2.1411 C14.0312,1.4781 11.1342,1.4091 8.2882,2.1411 C6.7482,2.5361 5.4872,3.2991 4.9612,4.9301 C4.6272,5.9641 4.3242,7.0121 3.9132,8.0151 C2.7882,10.7631 2.8672,11.5431 5.1182,13.3831 C7.7772,15.5571 10.5632,17.5741 13.2632,19.6981 C14.0662,20.3291 15.1642,20.9611 15.4422,21.8161 C16.4762,24.9911 17.6402,28.2191 17.9602,31.5041 C18.2562,34.5431 17.3782,37.6761 18.0312,40.7831 C18.1222,41.2141 17.8472,41.7141 17.7852,42.1881 C17.3072,45.8481 15.4722,48.9731 13.7832,52.1361 C12.2892,54.9361 10.6172,57.6421 8.7452,60.8701 M4.7342,63.0001 C5.3162,62.0531 5.5162,61.5441 5.8672,61.1841 C10.9002,56.0291 13.9222,49.7461 16.1162,42.9951 C16.2402,42.6161 16.4282,42.2141 16.3992,41.8371 C15.9432,35.9291 17.4882,29.8631 14.9312,24.1091 C14.3622,22.8291 13.7402,21.7521 12.5742,20.9091 C10.0522,19.0851 7.4832,17.2851 5.1952,15.1891 C3.6422,13.7671 2.5072,11.8781 1.2382,10.1591 C0.6172,9.3171 0.6062,8.3491 1.1502,7.4511 C2.1392,5.8181 3.1322,4.1841 4.2132,2.6121 C4.5582,2.1121 5.1282,1.6511 5.6952,1.4381 C10.9882,-0.5499 20.2462,-0.9379 23.9162,6.1821 C25.3892,9.0391 26.8862,11.8311 27.6322,14.9651 C28.0422,16.6861 28.8492,17.9141 30.5812,18.7121 C33.8922,20.2381 33.9402,23.4491 34.1502,26.5011 C34.2692,28.2331 34.1892,30.0101 34.5592,31.6861 C35.5162,36.0181 34.7142,39.8831 32.1942,43.5141 C31.3052,44.7951 30.6952,46.2971 30.1232,47.7621 C28.6022,51.6521 26.5602,55.0521 22.6182,56.9841 C17.8042,59.3421 12.8572,61.3381 7.6732,62.7101 C6.8972,62.9151 6.0572,62.8781 4.7342,63.0001" id="Fill-257" fill="#000000" mask="url(#mask-2)"></path>
            </g>
            <path d="M28.9494,31.3855 C28.8864,28.2045 27.7624,27.3575 25.2814,28.0615 C24.9024,28.1695 24.4874,28.1555 24.1124,28.2735 C22.3434,28.8265 21.6894,30.2435 22.2374,32.2775 C22.8374,34.5045 24.6004,36.0885 26.1774,35.6515 C26.8014,35.4785 27.5224,34.9805 27.8134,34.4275 C28.3914,33.3255 28.7014,32.0835 28.9494,31.3855 M13.6754,7.1725 L13.7034,7.2015 C11.3194,5.6195 9.1004,6.4595 8.9744,9.1675 C8.7944,13.0445 11.3044,16.3285 15.5684,16.3265 C16.8534,16.3255 17.9304,15.7905 18.5364,14.6445 C19.6814,12.4805 18.9554,10.4795 17.8264,8.5555 C16.8494,6.8905 15.3654,6.7145 13.6754,7.1725 M8.7454,60.9485 C10.6174,57.7205 12.2894,55.0145 13.7834,52.2135 C15.4714,49.0505 17.3074,45.9255 17.7854,42.2655 C17.8474,41.7925 18.1214,41.2925 18.0314,40.8605 C17.3784,37.7545 18.2564,34.6215 17.9604,31.5825 C17.6404,28.2965 16.4764,25.0695 15.4424,21.8945 C15.1634,21.0395 14.0654,20.4075 13.2634,19.7755 C10.5624,17.6525 7.7764,15.6345 5.1184,13.4615 C2.8674,11.6215 2.7884,10.8415 3.9134,8.0935 C4.3244,7.0905 4.6274,6.0415 4.9614,5.0085 C5.4874,3.3775 6.7484,2.6145 8.2884,2.2185 C11.1344,1.4875 14.0304,1.5565 16.8394,2.2185 C19.1454,2.7625 21.1374,4.1015 22.2444,6.2895 C23.6444,9.0565 25.0254,11.8555 26.0974,14.7575 C26.9224,16.9895 27.6694,18.9245 30.0584,20.1085 C32.7334,21.4355 32.7704,24.3405 32.6524,26.8585 C32.5644,28.7255 32.7064,30.4635 33.0914,32.2745 C33.8524,35.8545 33.3024,39.1985 31.1384,42.3105 C30.0214,43.9175 29.2834,45.8145 28.5394,47.6485 C27.4044,50.4455 25.9404,53.0865 23.3714,54.6655 C18.9574,57.3775 14.0734,59.1105 8.7454,60.9485" id="Fill-260" fill="#40641C" class="icon__color"></path>
            <path d="M13.6753,7.1729 C15.3653,6.7139 16.8493,6.8909 17.8263,8.5549 C18.9553,10.4789 19.6813,12.4799 18.5373,14.6439 C17.9313,15.7899 16.8533,16.3259 15.5683,16.3269 C11.3043,16.3289 8.7943,13.0449 8.9743,9.1679 C9.1003,6.4589 11.3193,5.6199 13.7033,7.2009 C10.4063,7.2429 9.4733,8.5399 10.5573,11.6669 C10.7873,12.3299 11.1283,12.9979 11.5753,13.5319 C12.8283,15.0259 15.6503,15.4839 16.9923,14.4929 C18.2733,13.5469 18.3353,11.2329 16.9363,9.5439 C16.4373,8.9419 15.5433,8.4929 14.7613,8.3499 C13.9503,8.2019 13.6303,7.9489 13.6753,7.1729" id="Fill-262" fill="#000000"></path>
            <path d="M27.3306,29.5034 C26.5036,29.4654 25.7206,29.3044 24.9906,29.4374 C24.4586,29.5344 23.7876,29.9054 23.5456,30.3534 C22.9846,31.3874 23.6226,33.2914 24.5826,33.9834 C25.5016,34.6464 26.4416,34.5294 26.9816,33.5214 C27.6596,32.2564 28.0706,30.9034 27.3306,29.5034 M28.9496,31.3854 C28.7016,32.0844 28.3916,33.3254 27.8136,34.4274 C27.5226,34.9804 26.8006,35.4794 26.1776,35.6514 C24.5996,36.0884 22.8366,34.5044 22.2376,32.2774 C21.6896,30.2434 22.3436,28.8264 24.1126,28.2734 C24.4876,28.1554 24.9026,28.1694 25.2816,28.0614 C27.7626,27.3574 28.8866,28.2044 28.9496,31.3854" id="Fill-264" fill="#000000"></path>
            <path d="M13.6753,7.1729 C13.6303,7.9489 13.9503,8.2019 14.7613,8.3499 C15.5433,8.4929 16.4373,8.9419 16.9363,9.5439 C18.3353,11.2329 18.2733,13.5469 16.9923,14.4929 C15.6503,15.4839 12.8283,15.0259 11.5753,13.5319 C11.1283,12.9979 10.7873,12.3299 10.5573,11.6669 C9.4733,8.5399 10.4063,7.2429 13.7033,7.2009 L13.6753,7.1729 Z" id="Fill-266" fill="#FFFFFF"></path>
            <path d="M27.3306,29.5034 C28.0706,30.9034 27.6596,32.2564 26.9816,33.5214 C26.4416,34.5294 25.5016,34.6464 24.5826,33.9834 C23.6226,33.2914 22.9846,31.3874 23.5456,30.3534 C23.7876,29.9054 24.4586,29.5344 24.9906,29.4374 C25.7206,29.3044 26.5036,29.4654 27.3306,29.5034" id="Fill-268" fill="#FFFFFF"></path>
        </g>
    </g>
</svg>
