<svg width="55px" height="54px" viewBox="-43 214 55 54" version="1.1" xmlns="http://www.w3.org/2000/svg" xmlns:xlink="http://www.w3.org/1999/xlink">
    <defs></defs>
    <g id="Group-16" stroke="none" stroke-width="1" fill="none" fill-rule="evenodd" transform="translate(-43.000000, 214.000000)">
        <path d="M19.7385,24.1582 L19.6135,24.2562 L19.7475,24.3142 L19.7385,24.1582 Z M30.3355,28.9012 C30.5105,25.4892 28.5025,23.7832 25.3305,24.5032 C24.8805,24.6052 24.3925,24.5332 23.9225,24.5572 C22.2395,24.6422 21.2555,25.6052 21.3265,27.2772 C21.3765,28.4602 21.5475,29.6522 21.8225,30.8032 C21.9585,31.3722 22.3315,32.0532 22.8055,32.3422 C24.3615,33.2922 26.0115,33.0762 27.5895,32.3112 C29.0665,31.5962 30.3945,30.7242 30.3355,28.9012 L30.3355,28.9012 Z M22.7195,35.3152 C22.5315,35.2552 22.3445,35.1962 22.1565,35.1372 C21.6795,36.0992 21.2625,37.0962 20.7095,38.0122 C20.1365,38.9622 19.3205,39.7742 18.8065,40.7502 C17.4225,43.3752 17.9985,46.7142 20.1065,48.8852 C20.6065,49.4002 21.1455,49.8772 21.6415,50.3952 C23.9305,52.7912 28.0735,52.9382 30.6345,50.7782 C33.1465,48.6602 35.2825,42.5562 33.6795,38.6842 C32.0155,34.6662 31.0035,34.0772 26.8225,35.3332 C26.5935,35.4022 26.3605,35.4682 26.1255,35.5012 C24.6905,35.6992 24.1275,36.5302 24.0865,37.9582 C24.0525,39.1542 23.7765,40.3432 23.6075,41.5352 C23.3785,41.5202 23.1485,41.5052 22.9195,41.4912 C22.2985,39.4912 22.6525,37.3882 22.7195,35.3152 L22.7195,35.3152 Z M16.3415,22.0012 C15.0255,22.0012 13.5615,21.8142 12.1725,22.0582 C10.9815,22.2662 9.7235,22.7662 8.7685,23.4952 C7.1435,24.7372 5.7645,26.2962 4.2255,27.6572 C1.9445,29.6722 1.7605,33.7032 3.9835,35.7002 C5.0225,36.6332 6.3815,37.2502 7.2895,38.2792 C9.1025,40.3362 11.4845,40.4482 13.8505,40.4362 C16.4055,40.4242 17.9405,39.0392 18.7515,36.5332 C18.8435,36.2492 19.0055,35.9742 19.1885,35.7342 C20.4755,34.0492 20.4495,33.2302 18.9465,31.3892 C18.0205,31.9712 17.0805,32.5612 16.1405,33.1512 C16.0115,33.0032 15.8815,32.8552 15.7515,32.7072 C16.0815,32.2402 16.3545,31.7172 16.7505,31.3162 C18.9575,29.0852 19.1865,27.4242 17.6505,24.6272 C17.2065,23.8192 16.8255,22.9782 16.3415,22.0012 L16.3415,22.0012 Z M27.1125,21.8382 C29.7845,21.3262 31.7325,20.3232 33.5765,19.0502 C34.7675,18.2282 35.2975,17.1202 35.5915,15.6832 C36.1405,12.9992 35.1185,10.6702 34.4055,8.2292 C33.1645,3.9772 27.9235,1.6732 24.7365,1.5032 C23.5125,1.4382 22.3185,1.6952 21.6805,2.9592 C20.1005,6.0892 18.6585,9.2972 16.9245,12.3392 C14.8365,16.0032 16.9535,19.8982 19.1705,21.7942 C19.6915,22.2392 20.4895,22.3622 21.5125,22.7772 C21.3475,21.8032 21.2555,21.3542 21.1975,20.9002 C21.0565,19.7912 20.8025,18.6772 20.8305,17.5712 C20.8755,15.8202 21.8235,15.0112 23.3165,15.2122 C22.1125,18.2882 22.1045,18.6232 23.1985,21.3742 C23.9485,21.4112 24.7295,21.4492 25.4855,21.4862 C26.3125,18.1012 26.3125,18.1012 27.5785,17.6072 C27.4355,18.9082 27.3005,20.1332 27.1125,21.8382 L27.1125,21.8382 Z M32.7605,26.2962 C32.8725,26.4172 32.9845,26.5392 33.0955,26.6612 C34.2745,28.8412 36.0375,29.6192 38.5595,28.6242 C38.4185,29.3782 38.3285,29.8592 38.2345,30.3642 C40.6425,30.7572 42.6825,30.2272 44.4705,28.8402 C46.2855,27.4312 48.1795,26.4512 50.6015,26.5522 C52.0675,26.6132 52.5225,25.7482 52.0335,24.2972 C51.8335,23.7022 51.4485,23.1692 51.1465,22.6082 C49.7375,19.9932 46.6045,19.7502 44.6505,17.8862 C41.2215,17.5122 37.7815,16.9492 35.0365,19.9522 C34.3055,20.7512 33.3115,21.3682 32.3345,21.8672 C30.8175,22.6412 30.6365,22.8472 31.3945,24.3532 C31.7465,25.0532 32.2985,25.6512 32.7605,26.2962 L32.7605,26.2962 Z M35.1275,31.5382 C34.5315,30.8602 33.9355,30.1822 33.1725,29.3152 C32.9125,30.0082 32.7585,30.4182 32.5945,30.8542 C33.5235,31.0942 34.3365,31.3042 35.1495,31.5142 C36.0345,33.0402 37.9645,34.0092 37.9495,36.3072 C35.3205,35.9792 34.3285,33.2402 31.5775,32.9152 C35.4075,36.1132 36.8835,40.9892 35.5785,45.2722 C34.9615,47.2972 35.4535,48.0202 37.6035,47.6672 C42.2875,46.8992 46.2665,44.9162 48.5975,40.4832 C50.1375,37.5552 48.9095,33.7622 45.8715,32.3702 C45.0415,31.9892 43.9615,31.6262 43.1465,31.8362 C40.4085,32.5422 37.7745,32.3182 35.1275,31.5382 L35.1275,31.5382 Z M15.5985,20.2992 C15.2505,19.2062 15.0145,18.5372 14.8255,17.8552 C14.1995,15.5972 14.4295,13.4962 15.5925,11.3852 C17.2465,8.3822 18.7135,5.2742 20.1905,2.1782 C20.8225,0.8502 21.8905,0.3402 23.2225,0.1582 C27.6485,-0.4438 34.6795,2.8512 35.7865,7.7932 C36.2715,9.9582 36.6685,12.1432 37.0925,14.3212 C37.2115,14.9302 37.2845,15.5482 37.3625,16.0602 C39.8935,16.2262 42.2745,16.2422 44.6115,16.5662 C48.9625,17.1712 51.7165,20.0252 53.5515,23.7312 C54.8125,26.2782 53.4725,28.1412 50.6045,28.2092 C49.1635,28.2432 47.7595,28.2262 46.6915,29.5902 C48.2755,30.7372 51.0405,30.4572 51.0055,33.5702 C50.3645,33.3882 49.9385,33.2672 49.4465,33.1282 C49.5085,33.3772 49.4985,33.6412 49.6235,33.7962 C52.1525,36.9072 51.2965,39.7932 49.2435,42.7702 C46.4725,46.7862 42.3845,48.3552 37.8855,49.1622 C36.8375,49.3502 35.6855,48.9622 34.4655,48.8262 C34.1135,49.2972 33.7475,49.8082 33.3585,50.3022 C31.6395,52.4852 29.5285,53.8972 26.6095,53.7492 C25.6515,53.7002 24.6695,53.8392 23.7365,53.6732 C23.0045,53.5432 22.1515,53.2482 21.6625,52.7322 C18.8465,49.7622 15.9085,46.8102 16.6725,42.2362 C14.4665,42.0312 12.4875,41.9782 10.5585,41.6402 C7.0715,41.0302 4.4245,38.9132 2.3155,36.2402 C-0.1425,33.1252 0.6825,28.6802 3.8005,26.2002 C5.0865,25.1782 6.1935,23.9212 7.3215,22.7152 C8.7315,21.2072 10.5815,20.7812 12.4895,20.5012 C13.4185,20.3652 14.3685,20.3742 15.5985,20.2992 L15.5985,20.2992 Z" id="Fill-23" fill="#000000"></path>
        <path d="M27.1122,21.8385 C27.3002,20.1335 27.4352,18.9085 27.5782,17.6075 C26.3132,18.1015 26.3132,18.1015 25.4862,21.4865 C24.7292,21.4495 23.9482,21.4105 23.1982,21.3745 C22.1042,18.6235 22.1122,18.2885 23.3172,15.2115 C21.8232,15.0115 20.8762,15.8205 20.8302,17.5715 C20.8022,18.6775 21.0562,19.7915 21.1972,20.8995 C21.2552,21.3535 21.3472,21.8035 21.5122,22.7775 C20.4892,22.3625 19.6912,22.2395 19.1702,21.7935 C16.9532,19.8985 14.8372,16.0035 16.9252,12.3395 C18.6582,9.2975 20.1012,6.0895 21.6812,2.9595 C22.3182,1.6955 23.5132,1.4385 24.7362,1.5035 C27.9242,1.6735 33.1642,3.9775 34.4052,8.2285 C35.1182,10.6705 36.1402,12.9995 35.5912,15.6835 C35.2982,17.1205 34.7682,18.2275 33.5762,19.0505 C31.7332,20.3225 29.7842,21.3255 27.1122,21.8385" id="Fill-25" fill="#40641C" class="icon__color"></path>
        <path d="M11.1384,30.1615 C12.0674,29.4845 12.9004,28.7965 13.8134,28.2365 C14.7064,27.6895 15.9184,27.5595 16.2924,26.2505 C13.2654,26.2935 11.1534,27.8785 11.1384,30.1615 M16.3414,22.0015 C16.8264,22.9785 17.2074,23.8195 17.6504,24.6265 C19.1864,27.4245 18.9584,29.0855 16.7514,31.3155 C16.3544,31.7165 16.0814,32.2405 15.7514,32.7075 C15.8814,32.8555 16.0114,33.0035 16.1404,33.1515 C17.0804,32.5615 18.0204,31.9715 18.9464,31.3895 C20.4494,33.2305 20.4754,34.0485 19.1884,35.7345 C19.0064,35.9735 18.8434,36.2495 18.7514,36.5335 C17.9404,39.0385 16.4054,40.4235 13.8504,40.4365 C11.4844,40.4485 9.1024,40.3355 7.2894,38.2795 C6.3814,37.2495 5.0224,36.6335 3.9834,35.7005 C1.7604,33.7035 1.9444,29.6725 4.2254,27.6565 C5.7654,26.2965 7.1434,24.7375 8.7684,23.4955 C9.7234,22.7655 10.9824,22.2665 12.1734,22.0575 C13.5614,21.8145 15.0254,22.0015 16.3414,22.0015" id="Fill-27" fill="#40641C" class="icon__color"></path>
        <path d="M26.7418,39.7024 C27.0558,39.6634 27.3698,39.6244 27.6838,39.5864 C27.8798,38.3754 28.0688,37.1654 26.3618,36.2764 C26.4888,37.4184 26.6148,38.5604 26.7418,39.7024 M22.7198,35.3144 C22.6528,37.3874 22.2978,39.4914 22.9198,41.4914 C23.1488,41.5054 23.3778,41.5204 23.6078,41.5354 C23.7768,40.3434 24.0528,39.1534 24.0868,37.9584 C24.1268,36.5304 24.6908,35.6994 26.1248,35.5004 C26.3608,35.4684 26.5938,35.4014 26.8228,35.3334 C31.0038,34.0774 32.0148,34.6664 33.6798,38.6844 C35.2828,42.5564 33.1468,48.6604 30.6348,50.7784 C28.0728,52.9384 23.9308,52.7914 21.6418,50.3954 C21.1458,49.8774 20.6068,49.4004 20.1068,48.8854 C17.9978,46.7144 17.4228,43.3744 18.8058,40.7494 C19.3198,39.7744 20.1358,38.9624 20.7098,38.0124 C21.2618,37.0964 21.6798,36.0994 22.1558,35.1374 C22.3438,35.1964 22.5318,35.2554 22.7198,35.3144" id="Fill-29" fill="#40641C" class="icon__color"></path>
        <path d="M32.7605,26.2958 C32.2985,25.6518 31.7465,25.0528 31.3945,24.3528 C30.6365,22.8468 30.8175,22.6408 32.3345,21.8668 C33.3115,21.3688 34.3055,20.7508 35.0355,19.9528 C37.7815,16.9498 41.2215,17.5118 44.6505,17.8858 C46.6045,19.7508 49.7375,19.9938 51.1465,22.6088 C51.4485,23.1688 51.8335,23.7018 52.0335,24.2968 C52.5225,25.7478 52.0675,26.6138 50.6015,26.5528 C48.1795,26.4508 46.2855,27.4308 44.4705,28.8398 C42.6825,30.2278 40.6425,30.7568 38.2345,30.3638 C38.3285,29.8598 38.4185,29.3788 38.5595,28.6248 C36.0375,29.6198 34.2745,28.8418 33.0965,26.6618 C34.6205,25.8808 36.1435,25.0988 37.6655,24.3168 C37.5585,24.1198 37.4525,23.9228 37.3455,23.7258 C35.2055,23.3538 33.8415,24.5408 32.7605,26.2958" id="Fill-31" fill="#40641C" class="icon__color"></path>
        <path d="M45.3797,34.1014 C45.3407,33.8104 45.3027,33.5204 45.2637,33.2294 C44.3567,33.3494 43.4487,33.4694 42.5417,33.5884 C42.5667,33.8254 42.5917,34.0614 42.6177,34.2974 C43.5377,34.2324 44.4587,34.1674 45.3797,34.1014 L45.3797,34.1014 Z M35.1277,31.5384 C37.7747,32.3174 40.4087,32.5424 43.1457,31.8364 C43.9617,31.6254 45.0417,31.9894 45.8717,32.3704 C48.9097,33.7624 50.1367,37.5554 48.5977,40.4834 C46.2667,44.9164 42.2877,46.8994 37.6037,47.6674 C35.4527,48.0204 34.9617,47.2974 35.5787,45.2724 C36.8837,40.9894 35.4077,36.1134 31.5777,32.9154 C34.3287,33.2394 35.3207,35.9794 37.9497,36.3074 C37.9647,34.0094 36.0347,33.0404 35.1497,31.5144 L35.1277,31.5384 Z" id="Fill-33" fill="#40641C" class="icon__color"></path>
        <path d="M30.3359,28.9008 C30.3949,30.7238 29.0669,31.5958 27.5889,32.3118 C26.0119,33.0758 24.3609,33.2928 22.8059,32.3428 C22.3319,32.0528 21.9589,31.3718 21.8219,30.8028 C21.5469,29.6528 21.3759,28.4598 21.3269,27.2778 C21.2559,25.6048 22.2399,24.6428 23.9229,24.5568 C24.3919,24.5328 24.8809,24.6058 25.3309,24.5038 C28.5029,23.7828 30.5099,25.4888 30.3359,28.9008" id="Fill-35" fill="#40641C" class="icon__color"></path>
        <path d="M32.7605,26.2958 C33.8415,24.5408 35.2055,23.3538 37.3455,23.7258 C37.4525,23.9228 37.5585,24.1198 37.6655,24.3168 C36.1435,25.0988 34.6205,25.8808 33.0965,26.6618 C32.9845,26.5388 32.8725,26.4178 32.7605,26.2958" id="Fill-37" fill="#000000"></path>
        <path d="M35.1495,31.5143 C34.3365,31.3043 33.5235,31.0943 32.5945,30.8543 C32.7585,30.4183 32.9125,30.0083 33.1725,29.3153 C33.9355,30.1823 34.5315,30.8603 35.1275,31.5383 L35.1495,31.5143 Z" id="Fill-39" fill="#40641C" class="icon__color"></path>
        <polygon id="Fill-41" fill="#FFFFFF" points="19.7385 24.1582 19.7475 24.3142 19.6135 24.2562"></polygon>
        <path d="M11.1384,30.1615 C11.1534,27.8785 13.2654,26.2935 16.2924,26.2505 C15.9184,27.5595 14.7064,27.6895 13.8134,28.2365 C12.9004,28.7965 12.0674,29.4845 11.1384,30.1615" id="Fill-43" fill="#000000"></path>
        <path d="M26.7418,39.7024 C26.6148,38.5604 26.4888,37.4184 26.3618,36.2764 C28.0688,37.1654 27.8798,38.3754 27.6838,39.5864 C27.3698,39.6244 27.0558,39.6634 26.7418,39.7024" id="Fill-45" fill="#000000"></path>
        <path d="M45.3797,34.1014 C44.4587,34.1674 43.5377,34.2324 42.6177,34.2974 C42.5917,34.0614 42.5667,33.8254 42.5417,33.5884 C43.4487,33.4694 44.3567,33.3494 45.2637,33.2294 C45.3027,33.5204 45.3407,33.8104 45.3797,34.1014" id="Fill-47" fill="#000000"></path>
    </g>
</svg>
