<svg width="42px" height="48px" viewBox="84 294 42 48" version="1.1" xmlns="http://www.w3.org/2000/svg" xmlns:xlink="http://www.w3.org/1999/xlink">
    <defs></defs>
    <g id="Group" stroke="none" stroke-width="1" fill="none" fill-rule="evenodd" transform="translate(84.000000, 294.000000)">
        <g id="Group-11">
            <g id="Group-224" transform="translate(0.000000, 0.078000)">
                <path d="M40.9506,0.5454 C41.5706,3.2254 41.1306,5.5354 40.3506,7.7654 C39.2606,10.8454 38.1106,13.9154 36.8306,16.9254 C34.4706,22.4754 30.8506,27.0754 26.0606,30.7554 C23.5806,32.6554 20.7806,34.0254 18.1106,35.6054 C15.4506,37.1854 13.0606,39.2354 10.6106,41.1554 C9.3006,42.1954 8.1306,43.4154 6.8406,44.4954 C6.1406,45.0854 4.0506,45.3954 2.7006,45.1054 C2.8606,45.0254 3.0206,44.9454 3.1806,44.8754 C3.1506,44.7354 3.1206,44.5854 3.1006,44.4454 C3.1806,44.3354 3.2606,44.2454 3.3506,44.1754 C5.0906,44.0954 7.7106,42.3054 9.0106,41.0154 C12.1206,37.9554 15.6706,35.5354 19.5206,33.5554 C26.1406,30.1654 31.2806,25.1754 34.5606,18.5854 C36.6506,14.4054 37.8706,9.7854 39.4606,5.3554 C39.5906,4.9954 39.5706,4.5654 39.5506,4.1754 C39.5306,3.9654 39.3506,3.7554 39.1506,3.3554 C37.2606,4.2454 35.5906,5.4154 33.9206,6.5754 C29.4506,9.6754 25.0406,12.8454 20.5306,15.8554 C17.4006,17.9354 14.1506,19.8154 10.9306,21.7354 C7.7406,23.6454 5.5806,26.4954 3.6206,29.5354 C3.4506,29.7854 3.3306,30.1254 3.3306,30.4254 C3.3706,35.1054 2.2406,39.7554 3.1006,44.4454 C2.9706,44.6154 2.8306,44.8354 2.6306,45.0954 C2.3406,44.7854 1.9106,44.5154 1.8406,44.1654 C1.6106,43.0854 1.5506,41.9654 1.3906,40.8654 C1.2106,39.5354 0.9406,38.2254 0.8006,36.8954 C0.7006,35.9654 0.5606,34.9754 0.7806,34.0954 C2.3306,27.8954 5.8906,23.2954 11.4406,19.9954 C17.6906,16.2854 23.7606,12.2754 29.8306,8.2754 C33.0206,6.1654 36.0406,3.7854 39.1506,1.5454 C39.6306,1.1954 40.1906,0.9554 40.9506,0.5454" id="Fill-214" fill="#000000"></path>
                <path d="M28.9006,16.7754 C28.7406,16.6354 28.5806,16.4854 28.4206,16.3354 C28.1506,16.4654 27.8306,16.5554 27.6106,16.7454 C24.7306,19.1554 21.9106,21.6254 18.9906,23.9854 C16.3906,26.0954 13.6406,28.0154 11.0606,30.1454 C8.7906,32.0154 6.6206,34.0154 4.4806,36.0254 C3.9406,36.5354 3.5706,37.3154 4.4306,37.9654 C5.6006,36.7254 6.6306,35.5054 7.8006,34.4454 C9.0406,33.3254 10.4106,32.3454 11.7106,31.2954 C16.9306,27.1054 22.1606,22.9154 27.3506,18.6854 C27.9706,18.1854 28.3906,17.4254 28.9006,16.7754 M39.5506,4.1754 C39.5706,4.5654 39.5906,4.9954 39.4606,5.3554 C37.8706,9.7854 36.6506,14.4054 34.5606,18.5854 C31.2806,25.1754 26.1406,30.1654 19.5206,33.5554 C15.6706,35.5354 12.1206,37.9554 9.0106,41.0154 C7.7106,42.3054 5.0906,44.0954 3.3506,44.1754 C3.2606,44.2454 3.1806,44.3354 3.1006,44.4454 C2.2406,39.7554 3.3706,35.1054 3.3306,30.4254 C3.3306,30.1254 3.4506,29.7854 3.6206,29.5354 C5.5806,26.4954 7.7406,23.6454 10.9306,21.7354 C14.1506,19.8154 17.4006,17.9354 20.5306,15.8554 C25.0406,12.8454 29.4506,9.6754 33.9206,6.5754 C35.5906,5.4154 37.2606,4.2454 39.1506,3.3554 C39.3506,3.7554 39.5306,3.9654 39.5506,4.1754" id="Fill-216" fill="#40641C" class="icon__color"></path>
                <path d="M28.4206,16.3354 C28.5806,16.4854 28.7406,16.6354 28.9006,16.7754 C28.3906,17.4254 27.9706,18.1854 27.3506,18.6854 C22.1606,22.9154 16.9306,27.1054 11.7106,31.2954 C10.4106,32.3454 9.0406,33.3254 7.8006,34.4454 C6.6306,35.5054 5.6006,36.7254 4.4306,37.9654 C3.5706,37.3154 3.9406,36.5354 4.4806,36.0254 C6.6206,34.0154 8.7906,32.0154 11.0606,30.1454 C13.6406,28.0154 16.3906,26.0954 18.9906,23.9854 C21.9106,21.6254 24.7306,19.1554 27.6106,16.7454 C27.8306,16.5554 28.1506,16.4654 28.4206,16.3354" id="Fill-218" fill="#000000"></path>
                <path d="M3.1006,44.4454 C3.1206,44.5854 3.1506,44.7354 3.1806,44.8754 C3.0206,44.9454 2.8606,45.0254 2.7006,45.1054 C2.6806,45.1054 2.6506,45.1054 2.6306,45.0954 C2.8306,44.8354 2.9706,44.6154 3.1006,44.4454" id="Fill-220" fill="#000000"></path>
                <path d="M2.7006,45.1054 C2.6906,45.1154 2.6706,45.1154 2.6606,45.1254 C2.6506,45.1154 2.6406,45.1054 2.6306,45.0954 C2.6506,45.1054 2.6806,45.1054 2.7006,45.1054" id="Fill-222" fill="#000000"></path>
            </g>
        </g>
    </g>
</svg>
