<svg width="41px" height="83px" viewBox="545 318 41 83" version="1.1" xmlns="http://www.w3.org/2000/svg" xmlns:xlink="http://www.w3.org/1999/xlink">
    <defs></defs>
    <g id="Group" stroke="none" stroke-width="1" fill="none" fill-rule="evenodd" transform="translate(545.000000, 318.000000)">
        <g id="Group-26">
            <path d="M28.3782,80.7234 C30.3862,80.5604 32.3912,80.3984 34.3962,80.2364 C34.4102,80.3514 34.4242,80.4674 34.4392,80.5834 C32.4422,80.7714 30.4452,80.9594 28.4462,81.1314 C28.4362,81.1324 28.4052,80.8884 28.3782,80.7234" id="Fill-144" fill="#FFFFFF"></path>
            <path d="M20.4203,34.3574 C20.3053,34.2984 20.1903,34.2394 20.0763,34.1814 C19.9093,34.5114 19.7423,34.8414 19.5753,35.1714 C19.6863,35.2284 19.7983,35.2854 19.9093,35.3424 C20.0793,35.0134 20.2503,34.6854 20.4203,34.3574 M28.3783,80.7234 C28.4053,80.8884 28.4363,81.1324 28.4463,81.1314 C30.4443,80.9594 32.4423,80.7714 34.4393,80.5834 C34.4243,80.4674 34.4103,80.3514 34.3963,80.2364 C32.3913,80.3984 30.3863,80.5604 28.3783,80.7234 M7.1413,70.4764 C7.0383,72.1654 6.9763,73.5104 6.8703,74.8514 C6.7673,76.1434 7.3913,76.8474 8.4953,77.4764 C10.7633,78.7704 13.2123,79.3914 15.7393,79.7974 C18.4993,80.2414 21.2443,80.5894 24.0503,79.9084 C25.9033,79.4584 27.8323,79.1294 29.7313,79.1064 C32.6043,79.0714 35.1763,78.1064 37.9403,77.1434 C37.4333,74.9244 36.9453,72.7904 36.3923,70.3684 C26.6353,76.1524 17.0473,74.0054 7.1413,70.4764 M35.2363,60.2524 C34.4563,60.7464 33.9643,60.9984 33.5413,61.3364 C31.0073,63.3544 28.1293,63.8734 24.9853,63.4384 C22.0693,63.0354 19.1503,62.6174 16.2183,62.3764 C14.0913,62.2004 12.2003,61.4394 10.3313,60.5444 C9.4903,60.1424 8.6873,59.6604 7.4743,59.0014 C7.3943,60.5544 7.3163,61.7084 7.2813,62.8634 C7.2503,63.8944 7.4113,64.9544 7.2243,65.9514 C6.9763,67.2744 7.4733,68.1884 8.5063,68.7724 C9.8143,69.5124 11.1763,70.2224 12.5993,70.6824 C15.8823,71.7434 19.3113,72.0534 22.7383,72.1804 C27.0743,72.3404 31.0793,71.1324 34.8353,68.9964 C35.5893,68.5684 36.1083,68.0974 36.1273,67.1734 C36.1753,64.9454 35.8463,62.7754 35.2363,60.2524 M34.6603,47.2334 C33.1523,47.7674 32.1343,48.2804 31.0573,48.4784 C28.3973,48.9654 25.6803,49.7704 23.0413,49.6004 C19.1633,49.3504 15.3293,48.3844 11.4843,47.6794 C9.4103,47.2984 7.3533,46.8264 5.1913,46.3744 C5.1913,46.8114 5.0913,47.1634 5.2063,47.4184 C6.1413,49.4874 6.5343,51.6564 6.6493,53.9164 C6.7233,55.3794 7.5373,56.4804 8.9073,57.0614 C10.9643,57.9334 13.0183,58.8234 15.1183,59.5794 C18.6573,60.8514 22.2733,61.2054 25.9523,60.1654 C28.3353,59.4924 30.7343,58.8734 33.1003,58.1484 C34.1613,57.8244 35.2523,57.4354 35.1473,55.9164 C34.9533,53.1394 34.8313,50.3574 34.6603,47.2334 M18.9373,38.5794 C18.6073,37.6824 18.0133,36.8884 18.1193,36.2024 C18.4643,33.9664 16.8013,32.8064 15.8163,31.2734 C15.7363,31.1494 15.7463,30.9684 15.6993,30.7384 C16.0273,30.0944 16.3823,29.3984 16.7433,28.6904 C16.1733,27.8094 15.6583,27.0124 15.1053,26.1564 C15.3463,25.5044 15.5853,24.8574 15.7403,24.4364 C15.4203,22.9464 13.3483,22.4954 14.3043,20.6984 C14.9553,19.4744 15.5723,18.3184 17.3453,18.2044 C16.7553,17.4484 16.3483,16.9274 15.9813,16.4574 C16.4553,15.7864 16.8353,15.2474 17.2343,14.6824 C16.4233,14.2534 15.8103,13.9294 15.3433,13.6834 C15.2113,12.3104 15.0993,11.1384 14.9583,9.6754 C14.0753,9.9714 13.4023,10.1294 12.7883,10.4164 C10.6843,11.3984 10.6923,11.4164 8.6373,10.6454 C8.2353,11.9264 7.8663,13.2104 7.4273,14.4694 C6.9923,15.7154 6.4153,16.8214 4.8273,16.9164 C4.4443,16.9394 4.0843,17.3374 3.4613,17.7174 C4.1633,18.2634 4.6193,18.6784 5.1303,19.0054 C6.7823,20.0614 6.8353,20.2484 5.7933,22.0074 C5.6333,22.2774 5.4633,22.5414 5.3103,22.7884 C6.8013,24.7414 6.8013,24.7414 5.4533,27.1424 C5.8933,28.2294 6.3983,29.1034 6.5843,30.0414 C6.7673,30.9644 6.3853,32.0394 6.6943,32.8854 C7.0133,33.7574 7.8683,34.4344 8.5363,35.2554 C7.9263,35.9364 7.3283,36.6044 6.4333,37.6034 C7.6593,37.9014 8.4623,38.1724 9.2863,38.2834 C11.8003,38.6234 11.8813,38.6024 11.8123,41.0114 C11.7783,42.2164 12.1223,42.9604 13.3563,43.1364 C12.3783,45.1224 12.4973,45.3884 14.4043,45.8034 C14.8733,45.9054 15.3473,45.9834 15.8103,46.1034 C21.3533,47.5354 26.7373,46.9124 31.9993,44.8324 C32.5413,44.6184 33.0063,44.2094 33.6583,43.7944 C32.6393,42.8114 31.7933,42.2324 30.5293,42.4804 C30.0093,42.5824 27.7283,40.9804 27.6773,40.6114 C27.6683,40.5474 27.7043,40.4764 27.7293,40.3634 C28.2443,40.3884 28.7693,40.4144 29.2413,40.4374 C30.0093,38.8604 30.7243,37.3894 31.4743,35.8494 C31.0403,35.3384 30.5903,34.8084 30.0113,34.1274 C30.7613,33.0664 31.4743,32.0554 32.1583,31.0864 C31.6803,30.4244 31.2753,29.8614 30.7863,29.1824 C31.9183,27.9544 32.9853,26.7964 34.1043,25.5824 C33.6493,24.8354 33.2483,24.1754 32.7873,23.4184 C33.6443,22.0694 34.4843,20.7464 35.5533,19.0644 C34.9933,18.7754 34.3463,18.4404 33.9393,18.2304 C34.1933,16.1904 36.2213,15.4984 36.1503,13.6824 C35.7973,13.5124 35.5093,13.3844 35.2313,13.2384 C33.0073,12.0724 32.9213,11.8214 33.6833,9.5074 C33.9763,8.6194 34.1643,7.6954 34.4533,6.5824 C33.7633,6.6144 33.3013,6.6504 32.8393,6.6544 C30.8553,6.6714 30.8663,6.6634 30.1373,4.7334 C29.9233,4.1674 29.6233,3.6334 29.3463,3.0494 C26.5903,5.2174 26.5903,5.2174 24.5613,5.0314 C25.5603,6.7394 25.8363,8.4234 25.1223,10.2494 C24.4813,11.8864 25.0653,14.1964 22.4133,14.5244 C22.8553,15.5084 23.2883,16.2864 23.5463,17.1174 C23.6983,17.6054 23.7423,18.2564 23.5403,18.7004 C22.6603,20.6364 22.2963,22.8534 20.5643,24.3514 C20.3553,24.5314 20.3043,24.8934 20.0953,25.3624 C20.7123,25.8024 21.2733,26.2084 21.8403,26.6044 C23.1833,27.5424 23.2493,28.0134 22.1613,29.2704 C21.7963,29.6924 21.3553,30.0494 20.9963,30.4764 C20.3363,31.2614 20.3073,31.9514 21.1213,32.7604 C22.5753,34.2044 22.5243,34.2554 21.3983,35.9044 C20.5103,37.2044 20.5103,37.2044 21.7433,38.7034 C22.4673,38.5624 23.2073,38.4174 23.9103,38.2794 C24.0783,39.2134 24.3143,39.9824 24.3263,40.7564 C24.3383,41.4374 24.3073,42.5504 23.9353,42.7304 C22.5933,43.3804 22.1573,44.7504 21.1763,45.6434 C20.8673,45.9254 20.3643,45.9934 19.9503,46.1594 C20.6243,44.1754 22.1203,42.8724 22.5673,41.0374 C21.2043,40.0334 21.2043,40.0334 20.0413,40.1274 C19.1743,40.9144 21.4343,42.0044 19.7903,42.7314 C17.6383,40.8254 17.6383,40.8254 18.9373,38.5794 M19.8553,13.7634 C19.4503,12.9384 19.0453,12.1144 18.5893,11.1884 C20.3973,10.3674 21.2583,12.5224 22.9093,12.0574 C23.2543,10.8564 23.8603,9.5814 23.9103,8.2854 C23.9463,7.3604 23.3243,6.3564 22.8333,5.4784 C22.3023,4.5294 21.4663,3.7314 21.6353,2.1694 C22.6323,2.4844 23.5083,2.7224 24.3553,3.0394 C25.6883,3.5374 26.7713,3.4704 27.6703,2.1514 C28.1233,1.4874 28.8973,1.0434 29.4993,0.5224 C31.1983,1.6674 31.0913,3.5234 32.1183,4.9574 C33.4603,4.7524 34.8403,4.5424 36.4633,4.2944 C36.9203,6.8294 35.1173,8.7604 34.9933,11.2644 C35.7583,11.5544 36.5383,11.8764 37.3363,12.1484 C38.6743,12.6034 38.8483,12.9894 38.1553,14.2164 C37.8813,14.7014 37.5493,15.1574 37.2173,15.6064 C36.4713,16.6134 35.8373,17.5724 36.9203,18.7994 C37.5553,19.5184 37.1973,20.2894 36.6683,20.9724 C36.0403,21.7834 35.4343,22.6104 34.8543,23.3814 C35.3153,24.3264 35.6903,25.0954 36.0873,25.9094 C35.0553,27.0234 34.0943,28.0594 33.0813,29.1524 C33.6763,29.8384 34.1723,30.4104 34.6663,30.9804 C34.4903,31.2934 34.4143,31.5334 34.2563,31.6914 C32.1503,33.7854 32.1473,33.7824 33.5943,36.2704 C33.4443,36.5384 33.2713,36.8784 33.0713,37.2014 C31.9213,39.0544 32.4993,41.0494 34.4493,41.9404 C37.0983,43.1504 37.3413,43.5914 37.1513,46.4224 C36.9963,48.7314 36.8473,51.0434 36.8063,53.3554 C36.7713,55.3274 36.8403,55.3284 38.4173,56.7224 C36.2463,59.3954 37.6073,62.4064 37.7873,65.3544 C37.9733,68.4064 38.3563,71.4244 40.0513,74.0714 C41.2093,75.8784 40.0523,77.3954 39.2873,78.7174 C38.0513,80.8524 36.0353,82.1104 33.4753,82.5094 C29.2443,83.1684 25.0273,83.0514 20.8123,82.5454 C17.2513,82.1164 13.7063,81.5504 10.1553,81.0404 C9.9193,81.0064 9.6843,80.9484 9.4543,80.8844 C5.6833,79.8374 4.9043,78.6304 4.9943,74.6944 C5.1393,68.3074 5.4923,61.8774 4.3493,55.5664 C3.6303,51.6004 2.2103,47.7614 0.9813,43.4284 C1.1003,43.2914 1.5433,42.7824 2.1133,42.1264 C3.4513,43.7574 4.6303,43.8174 5.9423,42.6324 C6.5033,42.1254 7.2643,41.6434 8.2293,42.5394 C7.7923,43.1794 7.3453,43.8324 6.8503,44.5564 C9.6683,44.0684 10.3283,43.2014 10.3563,39.9864 C8.6103,39.5494 6.4253,39.7734 5.6143,37.2184 C5.8783,36.2104 6.1173,35.0384 5.5353,33.6404 C5.0573,32.4904 5.4383,30.9814 5.4383,29.6224 C4.4243,29.0074 3.5543,28.4804 2.4933,27.8364 C3.2873,27.0514 3.9863,26.3594 4.7673,25.5874 C3.9813,25.2664 3.3063,24.9904 2.2893,24.5744 C3.2223,23.1914 4.0293,21.9944 4.8883,20.7214 C3.3813,19.4364 1.6563,18.3334 2.2973,15.9064 C2.7643,15.7964 3.2293,15.5624 3.6653,15.6074 C5.3243,15.7764 5.9383,14.7574 6.3143,13.4264 C6.7883,11.7464 7.2463,10.0634 7.7053,8.4054 C9.1623,7.7744 9.6903,9.1964 10.7183,9.6334 C12.5193,9.1144 14.0783,7.4844 16.5063,8.0314 C16.6053,9.5154 16.7043,10.9964 16.8153,12.6654 C17.8133,13.0114 18.8533,13.3714 19.8933,13.7324 C20.1103,15.0524 18.8213,15.5434 18.3163,16.3554 C18.7523,17.0664 19.1113,17.6504 19.5313,18.3344 C18.1743,19.3914 16.9443,20.3494 15.6703,21.3414 C15.9593,21.8684 16.0833,22.2694 16.3443,22.5394 C17.2303,23.4584 17.8173,24.3664 17.1813,25.7374 C17.0103,26.1054 17.3263,26.8244 17.6123,27.2544 C18.2943,28.2804 18.5793,29.2114 17.7243,30.3084 C17.3443,30.7954 17.4263,31.3784 18.3213,31.6494 C19.1543,30.4864 20.0113,29.2894 20.9163,28.0254 C20.5203,27.7024 20.2083,27.4654 19.9163,27.2064 C17.9183,25.4344 17.8993,25.0454 19.6963,22.9764 C19.8533,22.7954 20.0273,22.6274 20.1723,22.4364 C22.6883,19.1294 22.5903,16.4804 19.8553,13.7634" id="Fill-146" fill="#000000"></path>
            <path d="M18.9371,38.5793 C17.6381,40.8253 17.6381,40.8253 19.7901,42.7313 C21.4341,42.0053 19.1741,40.9143 20.0421,40.1283 C21.2051,40.0333 21.2051,40.0333 22.5671,41.0373 C22.1201,42.8723 20.6241,44.1753 19.9501,46.1593 C20.3641,45.9933 20.8681,45.9253 21.1771,45.6443 C22.1571,44.7503 22.5931,43.3803 23.9351,42.7303 C24.3071,42.5503 24.3381,41.4373 24.3271,40.7563 C24.3141,39.9833 24.0781,39.2133 23.9101,38.2793 C23.2071,38.4173 22.4671,38.5623 21.7431,38.7043 C20.5101,37.2053 20.5101,37.2053 21.3991,35.9043 C22.5251,34.2553 22.5751,34.2043 21.1221,32.7603 C20.3071,31.9513 20.3361,31.2613 20.9961,30.4763 C21.3551,30.0493 21.7961,29.6923 22.1611,29.2703 C23.2491,28.0143 23.1831,27.5423 21.8411,26.6043 C21.2731,26.2083 20.7121,25.8023 20.0951,25.3623 C20.3051,24.8933 20.3561,24.5313 20.5641,24.3513 C22.2961,22.8533 22.6601,20.6363 23.5411,18.7003 C23.7421,18.2563 23.6981,17.6053 23.5471,17.1173 C23.2881,16.2863 22.8551,15.5083 22.4131,14.5243 C25.0651,14.1963 24.4811,11.8863 25.1221,10.2493 C25.8361,8.4233 25.5601,6.7393 24.5621,5.0323 C26.5901,5.2173 26.5901,5.2173 29.3461,3.0503 C29.6231,3.6333 29.9231,4.1673 30.1371,4.7333 C30.8661,6.6633 30.8551,6.6713 32.8391,6.6543 C33.3011,6.6503 33.7631,6.6143 34.4531,6.5823 C34.1641,7.6963 33.9771,8.6193 33.6841,9.5073 C32.9211,11.8223 33.0071,12.0723 35.2311,13.2393 C35.5091,13.3853 35.7971,13.5123 36.1501,13.6823 C36.2211,15.4983 34.1941,16.1913 33.9391,18.2303 C34.3461,18.4413 34.9931,18.7753 35.5531,19.0643 C34.4841,20.7463 33.6441,22.0693 32.7871,23.4183 C33.2481,24.1753 33.6491,24.8353 34.1041,25.5823 C32.9851,26.7963 31.9181,27.9543 30.7861,29.1823 C31.2761,29.8613 31.6811,30.4243 32.1581,31.0873 C31.4741,32.0563 30.7611,33.0663 30.0111,34.1283 C30.5901,34.8083 31.0411,35.3393 31.4741,35.8493 C30.7251,37.3893 30.0091,38.8603 29.2411,40.4373 C28.7691,40.4143 28.2441,40.3883 27.7291,40.3633 C27.7041,40.4763 27.6681,40.5473 27.6771,40.6113 C27.7281,40.9803 30.0091,42.5823 30.5291,42.4803 C31.7931,42.2323 32.6391,42.8113 33.6591,43.7943 C33.0061,44.2093 32.5411,44.6183 32.0001,44.8333 C26.7381,46.9123 21.3531,47.5363 15.8101,46.1033 C15.3471,45.9833 14.8731,45.9053 14.4051,45.8033 C12.4981,45.3883 12.3781,45.1233 13.3561,43.1363 C12.1221,42.9603 11.7781,42.2163 11.8121,41.0113 C11.8811,38.6023 11.8001,38.6243 9.2871,38.2843 C8.4621,38.1723 7.6591,37.9013 6.4341,37.6033 C7.3281,36.6043 7.9261,35.9373 8.5361,35.2553 C7.8681,34.4343 7.0131,33.7573 6.6941,32.8853 C6.3851,32.0393 6.7671,30.9643 6.5841,30.0413 C6.3991,29.1033 5.8931,28.2293 5.4531,27.1423 C6.8011,24.7413 6.8011,24.7413 5.3111,22.7883 C5.4641,22.5413 5.6331,22.2773 5.7931,22.0073 C6.8361,20.2493 6.7831,20.0613 5.1301,19.0053 C4.6191,18.6783 4.1641,18.2633 3.4621,17.7173 C4.0841,17.3373 4.4441,16.9393 4.8271,16.9163 C6.4161,16.8213 6.9921,15.7153 7.4271,14.4693 C7.8661,13.2103 8.2351,11.9263 8.6381,10.6453 C10.6921,11.4163 10.6841,11.3993 12.7891,10.4163 C13.4021,10.1303 14.0751,9.9723 14.9581,9.6753 C15.0991,11.1383 15.2121,12.3103 15.3441,13.6833 C15.8101,13.9293 16.4231,14.2533 17.2341,14.6823 C16.8351,15.2473 16.4551,15.7863 15.9811,16.4573 C16.3481,16.9273 16.7551,17.4483 17.3451,18.2043 C15.5721,18.3183 14.9551,19.4753 14.3041,20.6983 C13.3481,22.4953 15.4201,22.9463 15.7411,24.4363 C15.5851,24.8573 15.3461,25.5043 15.1051,26.1563 C15.6581,27.0123 16.1731,27.8093 16.7431,28.6903 C16.3821,29.3983 16.0271,30.0943 15.6991,30.7383 C15.7461,30.9683 15.7371,31.1493 15.8161,31.2733 C16.8011,32.8063 18.4641,33.9663 18.1191,36.2023 C18.0131,36.8883 18.6071,37.6823 18.9371,38.5793" id="Fill-148" fill="#40641C" class="icon__color"></path>
            <path d="M34.6606,47.2336 C34.8316,50.3576 34.9536,53.1396 35.1466,55.9166 C35.2526,57.4356 34.1616,57.8236 33.1006,58.1486 C30.7346,58.8736 28.3356,59.4916 25.9526,60.1656 C22.2736,61.2056 18.6566,60.8516 15.1186,59.5786 C13.0176,58.8236 10.9646,57.9326 8.9076,57.0616 C7.5376,56.4806 6.7236,55.3796 6.6486,53.9156 C6.5346,51.6566 6.1416,49.4876 5.2066,47.4176 C5.0916,47.1636 5.1916,46.8116 5.1916,46.3746 C7.3536,46.8256 9.4106,47.2986 11.4846,47.6786 C15.3286,48.3846 19.1636,49.3506 23.0416,49.6006 C25.6806,49.7706 28.3976,48.9656 31.0576,48.4776 C32.1346,48.2806 33.1526,47.7676 34.6606,47.2336" id="Fill-150" fill="#FFFFFF"></path>
            <path d="M35.2363,60.2529 C35.8463,62.7749 36.1753,64.9449 36.1273,67.1739 C36.1083,68.0979 35.5893,68.5679 34.8353,68.9969 C31.0793,71.1329 27.0743,72.3399 22.7393,72.1799 C19.3113,72.0539 15.8823,71.7429 12.5993,70.6819 C11.1763,70.2219 9.8143,69.5129 8.5063,68.7729 C7.4733,68.1889 6.9763,67.2739 7.2243,65.9519 C7.4113,64.9539 7.2503,63.8949 7.2813,62.8639 C7.3173,61.7079 7.3943,60.5539 7.4743,59.0009 C8.6873,59.6609 9.4903,60.1419 10.3313,60.5449 C12.2003,61.4399 14.0913,62.2009 16.2183,62.3759 C19.1503,62.6179 22.0693,63.0349 24.9853,63.4389 C28.1293,63.8739 31.0073,63.3539 33.5413,61.3359 C33.9643,60.9989 34.4563,60.7469 35.2363,60.2529" id="Fill-152" fill="#FFFFFF"></path>
            <path d="M7.1411,70.4769 C17.0471,74.0059 26.6351,76.1529 36.3921,70.3689 C36.9451,72.7899 37.4331,74.9249 37.9401,77.1429 C35.1771,78.1059 32.6041,79.0719 29.7321,79.1069 C27.8321,79.1299 25.9041,79.4589 24.0501,79.9079 C21.2441,80.5889 18.4991,80.2409 15.7391,79.7979 C13.2121,79.3919 10.7631,78.7699 8.4951,77.4769 C7.3911,76.8469 6.7681,76.1439 6.8701,74.8509 C6.9771,73.5099 7.0391,72.1649 7.1411,70.4769" id="Fill-154" fill="#FFFFFF"></path>
            <path d="M19.8558,13.7631 C22.5908,16.4811 22.6888,19.1301 20.1718,22.4371 C20.0268,22.6271 19.8538,22.7951 19.6958,22.9761 C17.8998,25.0461 17.9188,25.4351 19.9158,27.2071 C20.2078,27.4661 20.5198,27.7021 20.9158,28.0261 C20.0118,29.2891 19.1538,30.4861 18.3218,31.6491 C17.4268,31.3781 17.3448,30.7951 17.7248,30.3081 C18.5798,29.2121 18.2948,28.2811 17.6128,27.2541 C17.3268,26.8251 17.0108,26.1051 17.1808,25.7371 C17.8178,24.3661 17.2308,23.4581 16.3438,22.5391 C16.0838,22.2691 15.9588,21.8691 15.6698,21.3411 C16.9438,20.3491 18.1748,19.3911 19.5318,18.3341 C19.1108,17.6501 18.7528,17.0661 18.3158,16.3561 C18.8208,15.5441 20.1098,15.0531 19.8938,13.7321 L19.8558,13.7631 Z" id="Fill-156" fill="#FFFFFF"></path>
            <path d="M20.4203,34.3574 C20.2503,34.6854 20.0793,35.0134 19.9093,35.3424 C19.7983,35.2854 19.6863,35.2284 19.5753,35.1714 C19.7423,34.8414 19.9093,34.5114 20.0763,34.1814 C20.1903,34.2394 20.3053,34.2984 20.4203,34.3574" id="Fill-158" fill="#FFFFFF"></path>
        </g>
    </g>
</svg>
