<svg width="68px" height="71px" viewBox="499 388 68 71" version="1.1" xmlns="http://www.w3.org/2000/svg" xmlns:xlink="http://www.w3.org/1999/xlink">
    <defs></defs>
    <g id="Group" stroke="none" stroke-width="1" fill="none" fill-rule="evenodd" transform="translate(499.000000, 388.000000)">
        <g id="Group-29">
            <path d="M5.3684,29.8831 C5.2504,29.7721 5.1324,29.6621 5.0154,29.5511 C4.7674,29.9251 4.5204,30.2991 4.2734,30.6731 C4.3644,30.7361 4.4554,30.8001 4.5464,30.8631 C4.8204,30.5361 5.0944,30.2101 5.3684,29.8831 L5.3684,29.8831 Z M48.1744,5.3491 C48.1624,5.5281 48.1504,5.7071 48.1394,5.8861 C49.5874,6.6261 51.1194,6.9261 52.7764,6.5931 C51.2424,6.1781 49.7084,5.7641 48.1744,5.3491 L48.1744,5.3491 Z M35.4294,68.0001 C37.1264,68.4431 37.7784,67.6981 38.1494,66.4711 C38.7074,64.6231 38.7834,62.7671 38.7494,60.8261 C38.6764,56.6171 38.9614,52.4021 39.0174,48.1891 C39.0454,46.1101 38.7804,45.8991 36.6694,45.2631 C36.2214,45.1291 35.8124,44.8741 35.3764,44.6981 C34.9034,44.5061 34.4194,44.3421 33.9404,44.1661 C33.7744,44.7401 33.5504,45.3071 33.4624,45.8931 C33.4064,46.2711 33.5764,46.6761 33.6024,47.0721 C33.8354,50.6421 34.1554,54.2101 34.2564,57.7851 C34.3524,61.2151 34.7094,64.5911 35.4294,68.0001 L35.4294,68.0001 Z M10.8904,4.7571 C8.0494,6.8561 8.0864,9.8391 8.4524,12.7531 C8.7594,15.2011 9.1084,17.6361 8.6604,20.0571 C8.1244,22.9491 7.3954,25.8091 6.6444,28.6561 C6.4094,29.5501 5.8394,30.3571 5.4134,31.2001 C4.5894,32.8311 3.6164,34.4071 2.9894,36.1101 C2.6614,37.0031 2.6194,38.2571 2.9944,39.1051 C4.1234,41.6581 5.4854,44.0071 8.3744,45.1811 C12.6704,46.9261 16.8374,47.2791 21.0204,45.0201 C22.0704,44.4531 23.1494,43.9011 24.0964,43.1861 C26.5464,41.3331 29.4674,41.1281 32.2864,41.1131 C33.9244,41.1041 35.5714,42.1271 37.2064,42.7061 C37.8004,42.9171 38.3524,43.3071 38.9584,43.4131 C42.1754,43.9751 45.3084,43.7341 48.3224,42.3461 C50.2054,41.4791 52.1374,40.7161 54.0374,39.8831 C55.8864,39.0721 57.5484,37.9941 58.8954,36.4591 C60.3714,34.7781 61.8814,33.1271 63.3654,31.4541 C64.4484,30.2341 65.1794,28.8341 65.4984,27.2251 C66.4804,22.2691 65.3974,14.9851 58.6784,10.8121 C56.4044,9.3991 54.0634,8.1261 51.2344,7.7561 C46.4904,7.1371 41.7544,6.2771 37.5664,3.6621 C36.9794,3.2961 36.2204,3.1691 35.5214,3.0221 C29.6864,1.7991 23.9314,2.4591 18.2234,3.8451 C17.5474,4.0091 16.9294,4.4581 16.3174,4.8301 C15.3634,5.4101 14.4464,6.0521 13.4974,6.6421 C12.7724,7.0941 12.0584,7.6261 10.8904,7.3831 L10.8904,4.7571 Z M41.0424,46.0821 C41.0424,49.0961 41.0854,52.0331 41.0314,54.9671 C40.9564,59.0371 40.8914,63.1111 40.6574,67.1731 C40.5264,69.4391 40.1084,69.6741 37.8454,69.8631 C37.0504,69.9301 36.2624,70.0891 35.4674,70.1301 C33.9534,70.2081 33.1584,69.7171 32.9264,68.1951 C32.6644,66.4671 32.6474,64.6971 32.5944,62.9431 C32.4514,58.1541 32.3654,53.3631 32.2084,48.5741 C32.1774,47.6231 31.9754,46.6711 31.7744,45.7361 C31.4374,44.1731 30.8134,43.7081 29.2314,44.1861 C26.4874,45.0151 23.8094,46.0621 21.0774,46.9361 C19.1134,47.5651 17.1394,48.2771 15.1134,48.5701 C11.2214,49.1341 7.9004,47.7071 5.0644,45.0561 C4.0724,44.1301 3.0304,43.2541 2.0644,42.3021 C0.7684,41.0221 0.4174,39.4391 0.6994,37.6681 C0.8614,36.6491 0.8754,35.6011 1.1064,34.6011 C1.3534,33.5251 1.6934,32.4521 2.1484,31.4491 C2.5064,30.6591 3.0114,29.8901 3.6064,29.2601 C7.3904,25.2591 7.6164,20.3941 7.0624,15.3361 C6.8114,13.0421 6.2954,10.7911 6.7984,8.4361 C7.3204,5.9941 8.7154,4.3151 10.6494,2.8791 C13.4444,0.8051 16.6474,0.6631 19.8204,1.1081 C22.5924,1.4971 25.2194,0.9811 27.9024,0.6821 C32.4604,0.1751 36.8744,0.4801 40.7014,3.3511 C42.5094,4.7071 44.4944,4.5791 46.4404,4.1941 C48.4984,3.7861 50.3604,3.9101 52.2494,4.8461 C54.0294,5.7271 55.9174,6.3861 57.7294,7.2061 C61.3644,8.8521 63.8714,11.7551 66.0304,14.9671 C66.6814,15.9351 67.1374,17.1231 67.3604,18.2721 C68.1344,22.2731 67.5564,26.2201 66.5334,30.1061 C66.3194,30.9191 65.9634,31.6591 65.0044,32.1031 C64.1944,32.4781 63.5284,33.2881 62.9514,34.0261 C60.1444,37.6181 56.9314,40.5611 52.4334,42.0081 C49.6434,42.9051 47.0404,44.3721 44.3104,45.4781 C43.4514,45.8271 42.4534,45.8341 41.0424,46.0821 L41.0424,46.0821 Z" id="Fill-116" fill="#000000"></path>
            <path d="M10.8909,4.7571 L10.8909,7.3831 C12.0579,7.6261 12.7729,7.0941 13.4979,6.6421 C14.4459,6.0511 15.3639,5.4101 16.3179,4.8301 C16.9289,4.4581 17.5469,4.0091 18.2229,3.8451 C23.9319,2.4591 29.6869,1.7991 35.5209,3.0221 C36.2199,3.1691 36.9789,3.2961 37.5669,3.6621 C41.7539,6.2771 46.4899,7.1371 51.2339,7.7561 C54.0629,8.1261 56.4039,9.3981 58.6789,10.8121 C65.3969,14.9851 66.4799,22.2691 65.4979,27.2251 C65.1789,28.8341 64.4479,30.2341 63.3659,31.4541 C61.8809,33.1271 60.3719,34.7781 58.8959,36.4591 C57.5479,37.9941 55.8859,39.0721 54.0379,39.8831 C52.1379,40.7161 50.2059,41.4781 48.3219,42.3461 C45.3089,43.7341 42.1759,43.9751 38.9589,43.4131 C38.3519,43.3071 37.8009,42.9171 37.2069,42.7061 C35.5709,42.1261 33.9239,41.1041 32.2869,41.1131 C29.4679,41.1281 26.5469,41.3331 24.0969,43.1861 C23.1499,43.9011 22.0709,44.4521 21.0209,45.0201 C16.8369,47.2791 12.6709,46.9261 8.3749,45.1811 C5.4849,44.0071 4.1239,41.6581 2.9949,39.1051 C2.6199,38.2571 2.6609,37.0031 2.9899,36.1101 C3.6169,34.4071 4.5899,32.8311 5.4139,31.2001 C5.8389,30.3571 6.4089,29.5501 6.6449,28.6561 C7.3949,25.8091 8.1239,22.9491 8.6599,20.0571 C9.1089,17.6361 8.7599,15.2011 8.4519,12.7531 C8.0869,9.8391 8.0499,6.8561 10.8909,4.7571" id="Fill-118" fill="#40641C" class="icon__color"></path>
            <path d="M35.4296,68.0001 C34.7096,64.5911 34.3526,61.2151 34.2556,57.7851 C34.1546,54.2101 33.8346,50.6421 33.6026,47.0721 C33.5766,46.6761 33.4066,46.2711 33.4626,45.8931 C33.5506,45.3071 33.7746,44.7401 33.9406,44.1651 C34.4196,44.3421 34.9036,44.5061 35.3756,44.6981 C35.8126,44.8741 36.2216,45.1291 36.6686,45.2631 C38.7806,45.8991 39.0456,46.1101 39.0176,48.1891 C38.9606,52.4021 38.6766,56.6161 38.7496,60.8261 C38.7836,62.7661 38.7076,64.6231 38.1496,66.4711 C37.7786,67.6981 37.1266,68.4431 35.4296,68.0001" id="Fill-120" fill="#FFFFFF"></path>
            <path d="M5.3684,29.8831 C5.0944,30.2101 4.8204,30.5361 4.5464,30.8631 C4.4554,30.8001 4.3644,30.7361 4.2734,30.6731 C4.5204,30.2991 4.7674,29.9251 5.0154,29.5511 C5.1324,29.6621 5.2504,29.7721 5.3684,29.8831" id="Fill-122" fill="#FFFFFF"></path>
        </g>
    </g>
</svg>
