<svg width="47px" height="53px" viewBox="164 374 47 53" version="1.1" xmlns="http://www.w3.org/2000/svg" xmlns:xlink="http://www.w3.org/1999/xlink">
    <defs></defs>
    <g id="Group" stroke="none" stroke-width="1" fill="none" fill-rule="evenodd" transform="translate(164.000000, 374.000000)">
        <g id="Group-12" transform="translate(0.567589, 0.000000)">
            <path d="M39.0859,40.3296 C39.2679,41.2426 39.4509,42.1546 39.6699,43.2506 C40.7349,42.9266 41.5659,42.6746 42.3969,42.4226 C42.4159,42.2016 42.4349,41.9796 42.4549,41.7586 C41.3319,41.2826 40.2089,40.8056 39.0869,40.3296 C38.4929,38.9756 39.5609,39.0326 40.5099,38.9786 C39.1719,37.9156 37.9739,37.0136 36.8429,36.0346 C36.5209,35.7556 36.1449,35.1976 36.2189,34.8596 C36.5629,33.2786 35.5029,32.7816 34.4339,32.1646 C32.7289,31.1826 30.9469,30.2446 30.0709,27.9256 C33.6019,26.0436 38.4369,25.3686 37.9859,19.5546 C39.5189,19.8896 40.7449,20.1576 42.3719,20.5136 C41.6359,19.2346 41.1559,18.4026 40.5369,17.3286 C41.6069,17.1996 42.2809,17.1186 43.2589,17.0016 C42.9409,16.1476 42.6959,15.4876 42.3619,14.5906 C40.6599,16.0616 39.2699,17.7176 37.2019,15.6756 C36.5469,16.6046 36.1469,17.5736 35.4239,18.0856 C34.6559,18.6286 33.5809,18.7366 32.5049,19.0776 C32.5049,19.9866 32.5679,20.9446 32.4799,21.8876 C32.4309,22.4076 32.2749,23.0956 31.9109,23.3746 C30.6069,24.3726 29.0549,24.3826 27.5629,23.9186 C26.1099,23.4666 26.4059,22.1146 26.4959,21.0606 C26.7489,18.0836 26.5559,15.0396 27.6639,12.1706 C27.7389,11.9746 27.7289,11.7216 27.6859,11.5096 C27.0389,8.3006 27.0549,8.3046 27.5859,5.4736 C27.6649,5.0496 27.4629,4.5746 27.3899,4.1126 C26.1669,4.8086 25.0809,5.4266 23.9969,6.0456 C25.7589,8.5206 25.2189,10.0336 22.2469,10.8666 C21.7149,11.0156 21.1429,11.0146 20.5939,11.1056 C20.0919,11.1896 19.5949,11.3036 18.8079,11.4626 C20.4759,12.9946 21.8879,14.1786 24.1799,13.1146 C24.4479,15.7076 23.1289,17.6686 22.7219,19.8136 C22.3009,22.0266 21.7859,24.2216 21.2949,26.5056 C19.2549,26.0576 18.1809,24.7276 16.9269,23.6526 C16.2099,23.0386 15.4869,22.2616 14.6329,22.0076 C12.5039,21.3736 10.9719,20.1226 9.9389,18.2866 C9.0809,18.1826 8.2199,18.2686 7.5619,17.9436 C6.9639,17.6476 6.5879,16.9056 6.2039,16.4636 C5.2559,17.7576 4.3319,19.0186 3.4079,20.2796 C3.4659,20.3556 3.5229,20.4326 3.5799,20.5096 C4.4759,19.9616 5.3709,19.4146 6.5459,18.6966 C7.8719,22.1636 4.6449,22.1096 3.1599,23.3196 C4.6619,24.3306 6.1019,24.6146 7.6029,23.9746 C9.0879,23.3406 10.1669,23.5326 11.0199,25.0196 C11.3529,25.5986 12.0709,25.9486 12.5709,26.4446 C12.9509,26.8216 13.6039,27.3186 13.5499,27.6716 C13.3219,29.1556 14.7129,29.0876 15.0899,29.3876 C15.2579,31.1846 15.3629,32.6056 15.5309,34.0186 C15.7369,35.7436 15.2709,36.3916 13.5789,36.5936 C12.9609,36.6676 12.3419,36.7226 11.5939,36.8006 C11.6189,39.2956 9.9829,39.5246 8.0299,39.4836 C9.3619,40.0346 10.7109,40.1666 11.9049,40.6666 C13.3249,41.2616 13.9619,40.8056 14.8359,39.6576 C16.1149,37.9786 17.6339,36.4166 19.2899,35.1076 C20.8399,33.8836 22.1269,34.3696 22.8239,36.2676 C23.1629,37.1886 23.1049,38.2696 23.1449,39.2816 C23.1639,39.7456 22.8179,40.2616 22.9279,40.6766 C23.4669,42.7076 22.9919,44.4376 21.2429,46.0876 C22.8089,47.7066 24.2689,49.2166 25.6419,50.6356 C28.8089,49.1536 28.8089,49.1536 26.0219,44.9506 C26.5839,42.9156 27.7559,44.7956 28.9799,44.6466 C28.5039,43.5986 28.1299,42.7636 27.7439,41.9326 C27.4799,41.3656 27.1049,40.8316 26.9449,40.2376 C26.5729,38.8566 26.3339,37.4406 25.9799,36.0546 C25.5179,34.2386 25.8739,33.6666 27.6769,33.5336 C28.1539,33.4976 28.6579,33.4326 29.1129,33.5396 C33.7459,34.6216 35.8349,35.3186 35.4699,39.8926 C35.4609,40.0026 35.6549,40.1296 35.8219,40.3296 L39.0859,40.3296 Z M24.7249,52.9236 C24.3839,52.1426 24.1729,51.6596 23.9249,51.0926 C22.7239,51.5336 21.5999,51.9456 20.4769,52.3586 C20.3519,52.1636 20.2269,51.9696 20.1019,51.7746 C20.7649,51.1186 21.4289,50.4626 22.2969,49.6036 C21.7319,48.9026 21.2419,48.2116 20.6679,47.6006 C19.7679,46.6436 19.5539,45.6766 20.4699,44.6336 C21.3799,43.5976 21.6599,42.4806 21.3459,41.0926 C21.1819,40.3676 21.4389,39.5286 21.5869,38.7576 C21.7819,37.7416 21.7439,36.8516 20.4849,36.1346 C18.6699,37.2396 16.9209,38.5526 15.8039,40.5336 C14.5729,42.7186 14.2209,42.8656 11.8439,42.1386 C10.7929,41.8166 9.6769,41.7116 8.4929,41.4896 C8.1139,42.3176 7.7979,43.0066 7.3829,43.9136 C4.7069,43.1716 3.9799,41.0756 3.3389,38.9116 C4.4779,38.4066 5.4979,37.9526 6.5179,37.4996 C6.4879,37.3146 6.4579,37.1296 6.4279,36.9446 C7.3289,37.1686 8.2299,37.3926 9.3229,37.6636 C9.6399,35.0746 11.5809,34.7816 13.6679,34.7986 C14.0599,33.3846 13.5039,32.3096 12.8939,31.3106 C12.1869,30.1536 11.3589,29.0676 10.5479,27.9776 C9.3679,26.3916 8.0749,25.2896 5.7859,25.4336 C3.9389,25.5496 2.0419,24.9196 0.3969,23.5526 C0.8079,22.8916 1.1289,22.3746 1.4899,21.7936 C1.0289,21.4386 0.5529,21.0736 0.1339,20.7526 C1.4309,19.4696 2.8409,18.4176 3.7809,17.0446 C4.6919,15.7166 5.1189,14.0586 5.8149,12.4116 C7.9719,13.0776 7.4759,15.1236 8.3549,16.4686 C9.0829,16.1776 9.7869,15.8946 10.4969,15.6106 C12.9729,19.2116 16.6499,21.3446 19.8279,24.6856 C20.6959,21.6316 21.4729,19.2186 22.0159,16.7536 C22.1439,16.1716 21.6389,15.2526 21.1479,14.7756 C20.2429,13.8986 19.1039,13.2686 18.1209,12.4646 C17.7229,12.1386 17.1319,11.4956 17.2349,11.2286 C17.4259,10.7286 17.9969,10.2346 18.5219,10.0356 C19.3299,9.7296 20.2459,9.7246 21.0909,9.4976 C21.8939,9.2816 22.6649,8.9446 23.4489,8.6606 C23.4929,8.4636 23.5359,8.2676 23.5789,8.0716 C22.4659,7.3306 21.3529,6.5906 19.8489,5.5886 C20.7819,5.0706 21.4909,4.3336 22.1679,4.3606 C24.7289,4.4666 26.0599,2.8556 27.3659,1.0906 C27.6339,0.7296 27.9639,0.4146 28.3169,0.0216 C29.5969,1.0536 28.7889,2.3856 29.1449,3.4316 C29.4809,4.4206 30.0189,5.3406 30.5819,6.5316 C30.4599,7.5086 28.1719,7.2926 28.6789,8.8976 C28.9939,9.8956 29.6219,10.7946 30.1179,11.7526 C29.6339,12.7226 28.9419,13.7506 28.6049,14.8836 C28.2459,16.0936 28.1589,17.3986 28.0729,18.6706 C27.9879,19.9186 28.0539,21.1776 28.0539,22.4046 C30.5489,22.6946 31.1839,22.1596 31.1049,19.9846 C31.0639,18.8336 30.3959,17.6456 31.4459,16.3746 C32.2729,16.5896 33.1619,16.8206 34.1779,17.0856 C35.0779,15.8276 35.9829,14.5616 36.9869,13.1586 C37.8329,13.8296 38.4929,14.3516 39.3309,15.0156 C39.9959,14.4766 40.6309,13.8986 41.3269,13.4096 C42.4639,12.6116 43.1839,12.7856 43.8999,13.9526 C45.0149,15.7696 44.9219,17.5116 43.6389,18.8746 C44.4559,22.1196 44.0869,22.4086 39.9829,21.5936 C39.0589,22.9846 38.3109,24.6516 37.0809,25.8046 C35.8589,26.9506 34.1509,27.5796 32.5319,28.5066 C34.6759,32.2086 37.7759,31.4456 40.9349,30.4036 C41.1019,32.9506 37.9839,32.6486 38.0319,34.8476 C39.2849,35.8146 40.6629,36.8646 42.0249,37.9356 C42.4599,38.2776 43.0109,38.5976 43.2339,39.0606 C43.9069,40.4576 44.4439,41.9206 45.1119,43.5476 C44.6869,43.7496 44.2269,44.1466 43.7559,44.1596 C42.3739,44.1966 41.1299,44.3396 39.9779,45.3066 C39.1339,46.0146 38.5649,45.4176 38.3449,44.4186 C37.8179,42.0236 37.7999,41.9406 35.6089,41.8576 C34.0589,41.7986 33.7949,40.9276 33.7139,39.6756 C33.4819,36.0986 31.4969,34.5676 27.4729,34.9966 C28.2899,37.2036 27.6449,39.7576 29.5159,41.6706 C29.8679,42.0306 30.0909,42.7016 30.0659,43.2146 C29.9609,45.3126 29.8109,47.4156 29.5049,49.4916 C29.4279,50.0116 28.7809,50.5446 28.2709,50.8836 C27.2149,51.5846 26.0759,52.1586 24.7249,52.9236 L24.7249,52.9236 Z" id="Fill-49" fill="#000000"></path>
            <path d="M25.4675,21.0539 L25.8185,20.8849 C25.7455,20.7889 25.6785,20.6229 25.5965,20.6149 C25.4865,20.6039 25.3655,20.7159 25.2495,20.7759 C25.3215,20.8679 25.3945,20.9609 25.4675,21.0539 L25.4675,21.0539 Z M22.3205,28.8709 C22.2805,30.5169 23.5865,32.1599 24.8985,32.1149 C26.1165,32.0729 27.1905,30.7559 27.2665,29.2109 C27.3455,27.6069 26.0965,25.8809 24.8235,25.8369 C23.5885,25.7929 22.3595,27.2829 22.3205,28.8709 L22.3205,28.8709 Z M39.0855,40.3299 L35.8225,40.3299 C35.6555,40.1299 35.4605,40.0029 35.4695,39.8919 C35.8345,35.3179 33.7455,34.6209 29.1125,33.5389 C28.6585,33.4329 28.1545,33.4979 27.6775,33.5329 C25.8735,33.6669 25.5175,34.2389 25.9805,36.0539 C26.3335,37.4409 26.5735,38.8569 26.9455,40.2379 C27.1055,40.8309 27.4795,41.3659 27.7435,41.9329 C28.1295,42.7629 28.5035,43.5989 28.9805,44.6469 C27.7555,44.7959 26.5835,42.9159 26.0215,44.9509 C28.8085,49.1529 28.8085,49.1529 25.6415,50.6349 C24.2695,49.2159 22.8085,47.7069 21.2425,46.0869 C22.9915,44.4379 23.4665,42.7079 22.9275,40.6769 C22.8175,40.2619 23.1635,39.7449 23.1455,39.2819 C23.1045,38.2699 23.1635,37.1889 22.8245,36.2669 C22.1265,34.3689 20.8395,33.8839 19.2895,35.1079 C17.6335,36.4159 16.1155,37.9779 14.8365,39.6579 C13.9615,40.8059 13.3245,41.2619 11.9045,40.6669 C10.7105,40.1659 9.3615,40.0349 8.0305,39.4839 C9.9825,39.5249 11.6185,39.2959 11.5935,36.7999 C12.3415,36.7229 12.9615,36.6679 13.5785,36.5939 C15.2715,36.3909 15.7365,35.7439 15.5315,34.0189 C15.3635,32.6059 15.2585,31.1849 15.0895,29.3869 C14.7125,29.0879 13.3215,29.1559 13.5495,27.6719 C13.6045,27.3179 12.9515,26.8219 12.5715,26.4449 C12.0705,25.9479 11.3535,25.5989 11.0205,25.0189 C10.1675,23.5329 9.0875,23.3409 7.6025,23.9739 C6.1025,24.6149 4.6625,24.3309 3.1605,23.3199 C4.6455,22.1089 7.8725,22.1639 6.5465,18.6969 C5.3715,19.4149 4.4755,19.9619 3.5805,20.5089 C3.5235,20.4329 3.4655,20.3559 3.4085,20.2789 C4.3325,19.0179 5.2555,17.7579 6.2045,16.4629 C6.5875,16.9049 6.9645,17.6479 7.5615,17.9429 C8.2195,18.2689 9.0805,18.1829 9.9385,18.2859 C10.9715,20.1219 12.5035,21.3739 14.6325,22.0069 C15.4865,22.2609 16.2095,23.0379 16.9275,23.6529 C18.1815,24.7279 19.2555,26.0569 21.2955,26.5059 C21.7855,24.2219 22.3005,22.0269 22.7215,19.8139 C23.1295,17.6689 24.4475,15.7079 24.1795,13.1139 C21.8875,14.1789 20.4755,12.9949 18.8085,11.4629 C19.5945,11.3039 20.0915,11.1889 20.5935,11.1059 C21.1435,11.0149 21.7155,11.0149 22.2465,10.8669 C25.2185,10.0339 25.7585,8.5209 23.9955,6.0449 C25.0805,5.4269 26.1665,4.8089 27.3895,4.1129 C27.4635,4.5739 27.6645,5.0499 27.5855,5.4729 C27.0555,8.3039 27.0385,8.2999 27.6865,11.5099 C27.7285,11.7209 27.7395,11.9749 27.6635,12.1699 C26.5565,15.0389 26.7495,18.0829 26.4955,21.0609 C26.4055,22.1149 26.1095,23.4659 27.5625,23.9179 C29.0545,24.3829 30.6075,24.3729 31.9115,23.3739 C32.2745,23.0959 32.4305,22.4069 32.4795,21.8879 C32.5685,20.9439 32.5045,19.9869 32.5045,19.0779 C33.5805,18.7369 34.6555,18.6279 35.4235,18.0849 C36.1465,17.5739 36.5465,16.6049 37.2025,15.6759 C39.2695,17.7179 40.6595,16.0619 42.3615,14.5899 C42.6955,15.4879 42.9405,16.1469 43.2585,17.0009 C42.2805,17.1189 41.6065,17.1999 40.5375,17.3279 C41.1565,18.4019 41.6355,19.2349 42.3725,20.5139 C40.7445,20.1579 39.5185,19.8899 37.9855,19.5549 C38.4375,25.3689 33.6015,26.0429 30.0715,27.9249 C30.9475,30.2449 32.7285,31.1829 34.4335,32.1649 C35.5035,32.7819 36.5625,33.2779 36.2185,34.8599 C36.1455,35.1979 36.5205,35.7559 36.8425,36.0349 C37.9735,37.0139 39.1715,37.9159 40.5095,38.9779 C39.5615,39.0319 38.4935,38.9759 39.0865,40.3299 L39.0855,40.3299 Z" id="Fill-51" fill="#40641C" class="icon__color"></path>
            <path d="M39.0865,40.3296 C40.2095,40.8056 41.3315,41.2826 42.4545,41.7586 C42.4355,41.9796 42.4155,42.2016 42.3965,42.4226 C41.5655,42.6746 40.7345,42.9266 39.6695,43.2506 C39.4505,42.1546 39.2685,41.2426 39.0855,40.3296 L39.0865,40.3296 Z" id="Fill-53" fill="#40641C" class="icon__color"></path>
            <path d="M24.7835,27.9369 C23.5505,29.6939 23.5505,29.6939 25.3395,30.3819 C25.1465,29.5309 24.9955,28.8689 24.7835,27.9369 M22.3205,28.8709 C22.3595,27.2829 23.5885,25.7929 24.8245,25.8369 C26.0965,25.8809 27.3455,27.6069 27.2665,29.2109 C27.1905,30.7559 26.1165,32.0729 24.8985,32.1149 C23.5865,32.1599 22.2805,30.5169 22.3205,28.8709" id="Fill-55" fill="#000000"></path>
            <path d="M25.4671,21.0539 C25.3941,20.9609 25.3221,20.8689 25.2491,20.7759 C25.3651,20.7159 25.4871,20.6039 25.5961,20.6149 C25.6781,20.6229 25.7451,20.7889 25.8181,20.8849 C25.7011,20.9409 25.5841,20.9979 25.4671,21.0539" id="Fill-57" fill="#000000"></path>
            <path d="M24.7835,27.9369 C24.9955,28.8689 25.1465,29.5309 25.3395,30.3819 C23.5505,29.6939 23.5505,29.6939 24.7835,27.9369" id="Fill-59" fill="#FFFFFF"></path>
        </g>
    </g>
</svg>
