<svg width="28px" height="49px" viewBox="388 86 28 49" version="1.1" xmlns="http://www.w3.org/2000/svg" xmlns:xlink="http://www.w3.org/1999/xlink">
    <defs></defs>
    <g id="Group" stroke="none" stroke-width="1" fill="none" fill-rule="evenodd" transform="translate(388.000000, 86.000000)">
        <g id="Group-33">
            <path d="M16.3231,36.9064 C17.7011,35.9544 18.6841,35.3634 19.5431,34.6294 C19.8071,34.4034 19.9281,33.5024 19.7781,33.3994 C19.3961,33.1364 18.7551,32.9464 18.3411,33.0874 C16.8201,33.6084 16.6891,34.9814 16.3231,36.9064 M9.2531,34.4474 C10.6571,35.3404 11.9951,36.1924 13.5291,37.1684 C13.5771,34.6364 13.0381,33.5934 11.6351,33.0934 C10.6021,32.7254 9.7631,32.8614 9.2531,34.4474 M23.6721,17.1504 C22.4201,15.0574 23.5571,13.9864 24.6281,12.7244 C25.1741,12.0824 25.3591,10.9414 25.3271,10.0394 C25.2301,7.3424 22.3921,4.3434 19.7251,4.0724 C18.5931,3.9574 17.6331,3.9074 16.7891,2.8854 C16.3391,2.3414 15.1741,2.0434 14.4131,2.1614 C11.2431,2.6514 8.1241,3.3654 6.2151,6.3844 C5.9691,6.7744 5.5381,7.0544 5.1721,7.3614 C1.3741,10.5404 0.7341,14.9064 3.4501,19.1104 C3.6211,19.3764 3.7601,19.6694 3.8741,19.9644 C4.5631,21.7444 5.9121,22.4764 7.7601,22.6254 C8.7621,22.7064 9.7871,22.9574 10.7231,23.3294 C13.3991,24.3924 17.6201,23.4224 19.4931,21.3294 C20.2211,20.5154 21.2101,19.9394 21.9971,19.1704 C22.6271,18.5544 23.1321,17.8114 23.6721,17.1504 M15.3711,32.7004 C16.8111,32.2294 17.9041,31.7104 19.0451,31.5594 C19.7161,31.4714 20.8561,31.7744 21.0871,32.2454 C21.4531,32.9894 21.4311,34.0774 21.1921,34.9114 C21.0241,35.4964 20.2971,36.0414 19.6911,36.3614 C16.7721,37.9034 16.0881,40.6184 15.8301,43.5444 C15.7261,44.7344 15.8811,45.9454 15.8001,47.1384 C15.7581,47.7564 15.4591,48.3564 15.2761,48.9654 C15.0871,48.9584 14.8991,48.9514 14.7101,48.9444 C14.5301,48.4834 14.2271,48.0324 14.1901,47.5594 C14.0521,45.8094 13.9321,44.0514 13.9371,42.2964 C13.9441,39.8564 12.6051,38.2864 10.7521,37.0064 C10.3601,36.7354 9.9091,36.5504 9.4921,36.3144 C8.3551,35.6724 7.5841,34.8234 7.9921,33.4004 C8.3681,32.0884 9.7071,31.2484 11.1771,31.4254 C11.8731,31.5094 12.5551,31.7114 13.3961,31.8934 C13.9011,29.8614 13.3801,28.0114 13.0141,26.1844 C12.9331,25.7814 12.2911,25.3404 11.8221,25.1944 C10.3121,24.7264 8.7751,24.3244 7.2251,24.0144 C5.1631,23.6024 3.4321,22.8044 2.5351,20.7424 C2.3471,20.3084 2.0931,19.8864 1.7951,19.5184 C-0.2889,16.9524 -0.3629,14.1654 0.7091,11.1684 C1.8611,7.9484 4.3551,5.7314 6.6851,3.5214 C8.7481,1.5644 11.8031,0.7054 14.5061,1.0544 C18.9591,1.6284 23.4261,2.7784 26.0161,7.1744 C27.3731,9.4764 27.5161,11.7284 25.7941,13.8534 C25.0811,14.7334 24.8181,15.5574 24.9511,16.6774 C25.1461,18.3114 24.5771,19.6164 22.9891,20.4344 C22.2321,20.8244 21.6541,21.5484 20.9541,22.0654 C19.6931,22.9974 18.4891,24.0704 17.0951,24.7374 C15.9281,25.2954 15.2961,25.8614 15.3521,27.2034 C15.4281,29.0334 15.3711,30.8674 15.3711,32.7004" id="Fill-77" fill="#000000"></path>
            <path d="M10.6591,8.0462 L10.8091,8.6282 C11.4831,8.8232 12.1941,8.9372 12.8251,9.2272 C15.0181,10.2372 15.4051,12.1682 13.6321,13.7932 C12.8501,14.5092 11.7721,14.9672 10.7541,15.3422 C9.5331,15.7932 9.1891,14.4832 8.5021,13.9232 C6.2461,12.0842 6.3891,10.2372 8.8221,8.6712 C9.3501,8.3312 9.8371,7.9262 10.3431,7.5512 C10.2131,7.3522 10.0831,7.1532 9.9531,6.9552 C8.3381,7.4122 6.7241,7.9762 5.8211,9.6022 C5.4231,10.3192 5.0671,11.4002 5.3261,12.0732 C6.0051,13.8412 6.9531,15.5712 8.8221,16.4132 C11.4211,17.5832 15.0591,15.7282 15.8771,12.8772 C16.5441,10.5522 14.8511,7.7902 12.4691,7.4972 C11.8971,7.4272 11.2641,7.8502 10.6591,8.0462 M23.6721,17.1502 C23.1321,17.8112 22.6271,18.5542 21.9971,19.1702 C21.2101,19.9392 20.2211,20.5152 19.4931,21.3292 C17.6201,23.4222 13.3991,24.3922 10.7231,23.3292 C9.7871,22.9572 8.7621,22.7062 7.7601,22.6252 C5.9121,22.4762 4.5631,21.7442 3.8741,19.9642 C3.7601,19.6692 3.6211,19.3762 3.4501,19.1102 C0.7341,14.9072 1.3741,10.5402 5.1721,7.3612 C5.5381,7.0552 5.9691,6.7742 6.2151,6.3842 C8.1241,3.3652 11.2431,2.6512 14.4131,2.1612 C15.1741,2.0432 16.3391,2.3412 16.7891,2.8862 C17.6331,3.9072 18.5931,3.9572 19.7251,4.0722 C22.3921,4.3442 25.2301,7.3422 25.3271,10.0392 C25.3591,10.9412 25.1741,12.0822 24.6281,12.7242 C23.5571,13.9862 22.4201,15.0572 23.6721,17.1502" id="Fill-79" fill="#40641C" class="icon__color"></path>
            <path d="M9.2527,34.4472 C9.7627,32.8612 10.6017,32.7252 11.6347,33.0932 C13.0387,33.5932 13.5767,34.6362 13.5287,37.1692 C11.9947,36.1922 10.6567,35.3402 9.2527,34.4472" id="Fill-81" fill="#40641C" class="icon__color"></path>
            <path d="M16.3231,36.9064 C16.6891,34.9814 16.8201,33.6084 18.3411,33.0874 C18.7551,32.9464 19.3961,33.1364 19.7781,33.3994 C19.9281,33.5024 19.8071,34.4034 19.5431,34.6294 C18.6841,35.3634 17.7011,35.9544 16.3231,36.9064" id="Fill-83" fill="#40641C" class="icon__color"></path>
            <path d="M10.6591,8.0462 C11.2641,7.8502 11.8971,7.4272 12.4691,7.4972 C14.8511,7.7902 16.5441,10.5522 15.8771,12.8772 C15.0591,15.7282 11.4211,17.5832 8.8221,16.4132 C6.9531,15.5712 6.0051,13.8412 5.3261,12.0732 C5.0671,11.4002 5.4231,10.3192 5.8211,9.6022 C6.7241,7.9762 8.3381,7.4122 9.9531,6.9552 C10.0831,7.1532 10.2131,7.3522 10.3431,7.5512 C9.8371,7.9262 9.3501,8.3312 8.8221,8.6712 C6.3891,10.2372 6.2461,12.0842 8.5021,13.9232 C9.1891,14.4832 9.5331,15.7932 10.7541,15.3422 C11.7721,14.9672 12.8501,14.5092 13.6321,13.7932 C15.4051,12.1682 15.0181,10.2372 12.8251,9.2272 C12.1941,8.9372 11.4831,8.8232 10.8091,8.6282 L10.6591,8.0462 Z" id="Fill-85" fill="#000000"></path>
        </g>
    </g>
</svg>
