<svg width="47px" height="48px" viewBox="560 616 47 48" version="1.1" xmlns="http://www.w3.org/2000/svg" xmlns:xlink="http://www.w3.org/1999/xlink">
    <defs></defs>
    <g id="Group-2" stroke="none" stroke-width="1" fill="none" fill-rule="evenodd" transform="translate(560.000000, 616.000000)">
        <path d="M2.3281,2.0205 C2.1301,2.6595 2.0711,2.7455 2.0891,2.8095 C2.2401,3.3455 2.3891,3.8825 2.5681,4.4095 C4.7271,10.7825 5.5701,17.3415 4.8001,24.0085 C4.3341,28.0445 3.3641,32.0255 2.5551,36.0185 C1.8751,39.3795 2.8751,40.6305 6.3671,40.5975 C7.8021,40.5845 9.2631,40.3525 10.6661,40.5495 C16.4481,41.3615 22.1631,42.4855 27.6011,44.7335 C29.8681,45.6715 30.0271,45.5065 30.9411,43.2905 C32.4621,39.6035 33.7301,35.7605 35.7041,32.3275 C37.9581,28.4055 40.8431,24.8415 43.5021,21.1565 C44.9431,19.1595 44.6461,18.1935 42.2591,17.6665 C40.3111,17.2375 38.3181,16.9735 36.4041,16.4285 C28.3251,14.1275 20.4441,11.3235 13.1611,7.0305 C11.0991,5.8145 8.9631,4.7125 6.8001,3.6875 C5.3991,3.0235 3.8871,2.5915 2.3281,2.0205 M45.8621,17.0165 C46.4941,19.6025 45.8501,21.3705 44.3361,23.0635 C42.6891,24.9025 41.3251,26.9945 39.8361,28.9745 C36.4751,33.4465 34.5261,38.6015 32.6061,43.7825 C31.2051,47.5645 31.1011,47.6605 27.4161,46.2665 C22.8381,44.5355 18.2081,43.0695 13.3341,42.5095 C11.5931,42.3095 9.8311,42.3025 8.0811,42.1725 C6.4911,42.0545 4.8911,41.9775 3.3221,41.7205 C1.5381,41.4275 0.9961,40.8315 0.8521,39.0375 C0.7701,38.0185 0.8771,36.9585 1.0641,35.9475 C1.5731,33.1985 2.1631,30.4655 2.7341,27.7285 C4.3371,20.0385 3.9041,12.4815 1.2811,5.0635 C1.1471,4.6865 0.9781,4.3145 0.9051,3.9255 C0.7381,3.0395 0.0071,2.1575 0.9361,1.2525 C1.8351,0.3765 2.8211,0.4985 3.8241,0.9235 C6.4701,2.0465 9.2731,2.9215 11.7081,4.3985 C17.9701,8.1955 24.6741,10.9615 31.5561,13.2915 C35.0961,14.4905 38.8311,15.1065 42.4711,16.0145 C43.6191,16.3015 44.7441,16.6835 45.8621,17.0165" id="Fill-130" fill="#000000"></path>
        <path d="M2.3281,2.0205 C3.8871,2.5915 5.3991,3.0235 6.8001,3.6875 C8.9631,4.7125 11.0991,5.8145 13.1611,7.0305 C20.4441,11.3235 28.3251,14.1275 36.4041,16.4285 C38.3181,16.9735 40.3111,17.2375 42.2591,17.6665 C44.6461,18.1935 44.9431,19.1595 43.5021,21.1565 C40.8431,24.8415 37.9581,28.4055 35.7041,32.3275 C33.7301,35.7605 32.4621,39.6035 30.9411,43.2905 C30.0271,45.5065 29.8681,45.6715 27.6011,44.7335 C22.1631,42.4855 16.4481,41.3615 10.6661,40.5495 C9.2631,40.3525 7.8021,40.5845 6.3671,40.5975 C2.8751,40.6305 1.8751,39.3795 2.5551,36.0185 C3.3641,32.0255 4.3341,28.0445 4.8001,24.0085 C5.5701,17.3415 4.7271,10.7825 2.5681,4.4095 C2.3891,3.8825 2.2401,3.3455 2.0891,2.8095 C2.0711,2.7455 2.1301,2.6595 2.3281,2.0205" id="Fill-132" fill="#9CEDFF" class="icon__color"></path>
    </g>
</svg>
