<svg width="38px" height="36px" viewBox="612 325 38 36" version="1.1" xmlns="http://www.w3.org/2000/svg" xmlns:xlink="http://www.w3.org/1999/xlink">
    <defs></defs>
    <g id="Group-6" stroke="none" stroke-width="1" fill="none" fill-rule="evenodd" transform="translate(612.000000, 325.000000)">
        <g id="Group-5">
            <path d="M33.6262,33.1727 C32.9412,30.7537 20.8872,4.0157 20.1322,3.2637 C13.5912,12.7307 7.7422,22.5627 2.8002,33.1727 L33.6262,33.1727 Z M37.1822,35.2837 C30.8812,35.0667 24.7942,34.7747 18.7042,34.6687 C12.6702,34.5627 6.6322,34.6457 0.4562,34.6457 C0.5122,34.3957 0.5202,33.9307 0.7122,33.5597 C3.3542,28.4557 5.9572,23.3287 8.7102,18.2827 C10.1602,15.6257 11.8832,13.1177 13.4812,10.5407 C15.1212,7.8967 16.7242,5.2287 18.4192,2.6207 C18.9052,1.8717 19.6512,1.2917 20.2772,0.6347 C20.8842,1.3317 21.6632,1.9427 22.0642,2.7427 C23.2792,5.1677 24.4052,7.6427 25.4622,10.1417 C27.7942,15.6567 29.9542,21.2477 32.4032,26.7097 C33.6592,29.5107 35.3872,32.1007 37.1822,35.2837 L37.1822,35.2837 Z" id="Fill-54" fill="#000000"></path>
            <path d="M33.6262,33.1727 L2.8002,33.1727 C7.7422,22.5627 13.5912,12.7307 20.1322,3.2637 C20.8872,4.0157 32.9412,30.7537 33.6262,33.1727" id="Fill-60" fill="#9CEDFF" class="icon__color"></path>
        </g>
    </g>
</svg>
