<svg width="41px" height="37px" viewBox="185 368 41 37" version="1.1" xmlns="http://www.w3.org/2000/svg" xmlns:xlink="http://www.w3.org/1999/xlink">
    <defs></defs>
    <g id="Group-25" stroke="none" stroke-width="1" fill="none" fill-rule="evenodd" transform="translate(185.000000, 368.000000)">
        <path d="M13.3882,4.2892 C6.5212,9.0942 2.7382,15.8942 2.2882,24.5012 C2.2362,25.4912 2.7612,26.8762 3.5052,27.4782 C6.0322,29.5242 8.5372,31.9342 11.4872,33.0572 C18.8852,35.8722 26.2142,35.2982 32.9872,30.7892 C39.2122,26.6442 39.9232,19.9952 37.8452,13.5252 C37.0452,11.0312 35.2852,8.7682 33.6452,6.6452 C32.2422,4.8302 30.4662,3.2662 27.9302,3.0272 C26.4522,2.8872 24.9152,2.8182 23.5292,2.3482 C19.8412,1.0982 16.8492,2.9832 13.3882,4.2892 M37.8732,9.8422 C40.3792,13.3032 40.5302,17.2982 40.4022,21.3252 C40.2342,26.6222 37.2022,30.2412 33.0762,33.0252 C28.8862,35.8522 24.0762,36.4562 19.1272,36.5062 C12.6242,36.5732 7.4732,33.6832 2.8832,29.4272 C1.5272,28.1702 0.5942,26.6282 0.7782,24.7882 C1.0392,22.1852 1.2592,19.4992 2.0862,17.0482 C4.4722,9.9742 8.6992,4.4312 15.7872,1.2922 C22.2872,-1.5868 34.1392,1.2292 37.3172,8.7822 C37.4712,9.1482 37.6872,9.4892 37.8732,9.8422" id="Fill-42" fill="#000000"></path>
        <path d="M13.3882,4.2892 C16.8492,2.9832 19.8412,1.0982 23.5292,2.3482 C24.9152,2.8182 26.4522,2.8872 27.9302,3.0272 C30.4662,3.2662 32.2422,4.8302 33.6452,6.6452 C35.2852,8.7682 37.0452,11.0312 37.8452,13.5252 C39.9232,19.9952 39.2122,26.6442 32.9872,30.7892 C26.2142,35.2982 18.8852,35.8722 11.4872,33.0572 C8.5372,31.9342 6.0322,29.5242 3.5052,27.4782 C2.7612,26.8762 2.2362,25.4912 2.2882,24.5012 C2.7382,15.8942 6.5212,9.0942 13.3882,4.2892" id="Fill-44" fill="#9CEDFF" class="icon__color"></path>
    </g>
</svg>
