<svg width="51px" height="52px" viewBox="390 732 51 52" version="1.1" xmlns="http://www.w3.org/2000/svg" xmlns:xlink="http://www.w3.org/1999/xlink">
    <defs></defs>
    <g id="Group-13" stroke="none" stroke-width="1" fill="none" fill-rule="evenodd" transform="translate(390.000000, 732.000000)">
        <path d="M22.8581,50.1517 C26.2121,50.0737 29.7651,49.4767 33.1211,48.1697 C36.5321,46.8407 39.6951,44.9527 41.8541,41.8867 C43.6361,39.3557 45.3291,36.7327 46.7651,33.9957 C50.1991,27.4457 49.0411,21.1797 44.5991,15.6587 C41.5291,11.8437 37.5341,8.9797 32.7981,7.2847 C30.3201,6.3977 27.8931,5.3377 25.5171,4.2017 C22.6591,2.8347 19.6471,2.2717 16.5381,2.3097 C15.3011,2.3247 13.9801,2.6427 12.8541,3.1617 C8.1421,5.3337 5.6401,9.5547 4.1341,14.1147 C2.0361,20.4717 1.4151,27.1617 2.8741,33.7657 C3.9201,38.4997 6.1961,42.7317 10.1041,45.8907 C13.7541,48.8407 18.0081,49.9277 22.8581,50.1517 M50.7681,27.1007 C50.3761,31.3687 48.4911,34.8827 46.4521,38.3357 C46.0471,39.0207 45.4861,39.6137 45.0761,40.2967 C42.6001,44.4207 39.0931,47.2917 34.6621,49.1277 C28.1511,51.8247 21.5781,52.5637 14.8131,50.1157 C7.3561,47.4157 3.3351,41.7427 1.3591,34.4177 C0.0271,29.4777 0.2641,24.4507 1.2371,19.4547 C1.8631,16.2437 2.3211,12.9917 4.0551,10.0997 C6.1861,6.5487 8.8931,3.7437 12.5041,1.5167 C15.4061,-0.2733 17.9071,-0.2563 20.7921,0.9157 C26.1161,3.0787 31.6021,4.8997 36.7631,7.3957 C42.0971,9.9747 46.5221,13.8567 48.8231,19.5247 C49.7951,21.9187 50.1391,24.5677 50.7681,27.1007" id="Fill-62" fill="#000000"></path>
        <path d="M16.6202,29.969 C16.6202,30.106 16.6602,30.431 16.6142,30.742 C16.0592,34.483 19.7292,37.741 23.3802,37.269 C25.4672,36.999 27.5972,36.414 29.5022,35.529 C32.5042,34.134 33.6982,31.14 32.9222,27.932 C32.2872,25.31 30.9042,23.076 29.1132,21.115 C28.1972,20.112 27.0662,19.287 25.5612,19.464 C20.8642,20.015 15.6492,24.107 16.6202,29.969 M22.8582,50.152 C18.0082,49.928 13.7542,48.841 10.1042,45.891 C6.1962,42.732 3.9202,38.5 2.8742,33.766 C1.4152,27.162 2.0362,20.471 4.1342,14.115 C5.6392,9.555 8.1422,5.333 12.8542,3.161 C13.9802,2.642 15.3012,2.325 16.5372,2.31 C19.6472,2.272 22.6592,2.835 25.5172,4.202 C27.8932,5.338 30.3202,6.398 32.7982,7.285 C37.5342,8.98 41.5292,11.844 44.5992,15.659 C49.0412,21.18 50.1992,27.446 46.7642,33.996 C45.3292,36.733 43.6362,39.356 41.8542,41.887 C39.6952,44.953 36.5322,46.841 33.1212,48.17 C29.7652,49.477 26.2122,50.073 22.8582,50.152" id="Fill-64" fill="#9CEDFF" class="icon__color"></path>
        <path d="M23.782,35.7425 C25.688,35.8405 27.579,35.0655 29.3,33.8325 C31.27,32.4225 32.073,30.3875 31.315,28.1735 C30.632,26.1775 29.479,24.3085 28.318,22.5235 C27.592,21.4075 26.337,20.9115 24.945,21.4285 C23.609,21.9245 22.23,22.3605 20.985,23.0345 C18.841,24.1945 18.269,26.2145 18.406,28.5085 C18.443,29.1355 18.6,29.7675 18.553,30.3865 C18.278,33.9435 19.875,35.6855 23.782,35.7425 M16.62,29.9685 C15.649,24.1065 20.864,20.0145 25.562,19.4635 C27.066,19.2865 28.197,20.1115 29.113,21.1145 C30.905,23.0765 32.287,25.3095 32.922,27.9315 C33.699,31.1405 32.504,34.1345 29.502,35.5285 C27.597,36.4135 25.468,36.9995 23.381,37.2685 C19.729,37.7405 16.059,34.4825 16.614,30.7425 C16.66,30.4305 16.62,30.1065 16.62,29.9685" id="Fill-66" fill="#000000"></path>
        <path d="M23.782,35.7425 C19.875,35.6855 18.278,33.9435 18.553,30.3865 C18.6,29.7675 18.443,29.1355 18.406,28.5085 C18.269,26.2145 18.841,24.1945 20.985,23.0345 C22.23,22.3605 23.609,21.9245 24.945,21.4285 C26.337,20.9115 27.592,21.4075 28.318,22.5235 C29.479,24.3085 30.632,26.1775 31.315,28.1735 C32.073,30.3875 31.27,32.4225 29.3,33.8325 C27.579,35.0655 25.688,35.8405 23.782,35.7425" id="Fill-68" fill="#FFFFFF"></path>
    </g>
</svg>
