<svg width="49px" height="60px" viewBox="630 282 49 60" version="1.1" xmlns="http://www.w3.org/2000/svg" xmlns:xlink="http://www.w3.org/1999/xlink">
    <defs></defs>
    <g id="Group-29" stroke="none" stroke-width="1" fill="none" fill-rule="evenodd" transform="translate(630.000000, 282.000000)">
        <g id="Group-6">
            <path d="M44.1335,2.6243 C43.5385,2.5333 43.3065,2.4603 43.0765,2.4683 C37.6555,2.6373 32.2315,2.7443 26.8155,3.0143 C22.5975,3.2253 18.3785,3.5413 14.1825,4.0093 C11.8375,4.2713 11.8035,4.4573 11.9405,6.7433 C12.2105,11.2803 12.6005,15.8103 12.8395,20.3483 C12.9905,23.2103 13.2335,26.1093 12.9545,28.9453 C12.1545,37.0673 12.0635,45.1943 12.2625,53.3363 C12.3145,55.4353 12.6575,55.8223 14.7015,56.1363 C15.2525,56.2203 15.8155,56.2353 16.3735,56.2523 C22.4385,56.4443 28.5045,56.5803 34.5665,56.8423 C37.3525,56.9623 40.1335,57.2703 42.9055,57.5943 C45.7755,57.9313 46.2485,57.6943 46.1045,54.8063 C45.6845,46.3613 45.1385,37.9233 44.6285,29.4833 C44.5375,27.9723 44.2755,26.4653 44.2735,24.9563 C44.2625,18.4073 44.3265,11.8583 44.3405,5.3093 C44.3425,4.4523 44.2115,3.5953 44.1335,2.6243 M48.6705,1.8653 C47.9275,2.0863 47.1845,2.3083 46.4045,2.5403 C46.3075,2.7343 46.1145,2.9413 46.1105,3.1523 C45.9965,9.3833 45.8455,15.6133 45.8295,21.8443 C45.8225,24.4733 46.0785,27.1053 46.2605,29.7323 C46.7375,36.5873 47.2905,43.4383 47.7035,50.2963 C47.8425,52.5923 47.6625,54.9073 47.6065,57.2133 C47.5695,58.7263 46.9025,59.3733 45.3225,59.2833 C43.7315,59.1923 42.1515,58.9023 40.5605,58.8123 C32.1905,58.3423 23.8185,57.9063 15.4465,57.4623 C10.1315,57.1803 11.1835,57.0553 10.8535,52.6253 C10.6995,50.5583 10.6375,48.4733 10.7065,46.4023 C10.8635,41.6923 11.2285,36.9873 11.3165,32.2773 C11.4035,27.6543 11.4365,23.0163 11.1495,18.4063 C10.8975,14.3563 10.1605,10.3373 9.6555,6.3023 C9.4215,4.4283 10.4115,2.9203 12.2535,2.6693 C15.5715,2.2163 18.9035,1.7483 22.2435,1.5943 C28.2135,1.3173 34.1955,1.3003 40.1705,1.1073 C42.0825,1.0463 43.9855,0.6853 45.8975,0.6283 C46.8445,0.6003 47.8025,0.9503 48.7555,1.1303 C48.7275,1.3753 48.6985,1.6203 48.6705,1.8653" id="Fill-28" fill="#000000"></path>
            <path d="M1.0387,27.5108 C1.1517,27.5798 1.2637,27.6488 1.3767,27.7178 C1.2637,27.8538 1.1517,27.9908 1.0387,28.1268 C0.9517,28.0238 0.7967,27.9218 0.7967,27.8188 C0.7967,27.7158 0.9517,27.6138 1.0387,27.5108" id="Fill-30" fill="#000000"></path>
            <path d="M44.1335,2.6243 C44.2115,3.5953 44.3425,4.4523 44.3405,5.3093 C44.3265,11.8583 44.2625,18.4073 44.2735,24.9563 C44.2755,26.4653 44.5375,27.9723 44.6285,29.4833 C45.1385,37.9233 45.6845,46.3613 46.1045,54.8063 C46.2485,57.6943 45.7755,57.9313 42.9055,57.5943 C40.1335,57.2703 37.3525,56.9623 34.5665,56.8423 C28.5045,56.5803 22.4385,56.4443 16.3735,56.2523 C15.8155,56.2353 15.2525,56.2203 14.7015,56.1363 C12.6575,55.8223 12.3145,55.4353 12.2625,53.3363 C12.0635,45.1943 12.1545,37.0673 12.9545,28.9453 C13.2335,26.1093 12.9905,23.2103 12.8395,20.3483 C12.6005,15.8103 12.2105,11.2803 11.9405,6.7433 C11.8035,4.4573 11.8375,4.2713 14.1825,4.0093 C18.3785,3.5413 22.5975,3.2253 26.8155,3.0143 C32.2315,2.7443 37.6555,2.6373 43.0765,2.4683 C43.3065,2.4603 43.5385,2.5333 44.1335,2.6243" id="Fill-36" fill="#9CEDFF" class="icon__color"></path>
        </g>
    </g>
</svg>
