<svg width="83px" height="54px" viewBox="361 362 83 54" version="1.1" xmlns="http://www.w3.org/2000/svg" xmlns:xlink="http://www.w3.org/1999/xlink">
    <defs></defs>
    <g id="Group-27" stroke="none" stroke-width="1" fill="none" fill-rule="evenodd" transform="translate(361.000000, 362.000000)">
        <path d="M38.1677,1.8754 C34.1907,1.8354 31.2287,3.0204 28.9227,5.7774 C25.0437,10.4154 22.2327,15.5584 22.3967,21.8384 C22.4617,24.3454 21.2877,25.9354 19.1597,26.9414 C18.1537,27.4174 17.0627,27.7084 16.0207,28.1094 C11.4407,29.8704 7.2067,32.2704 3.3877,35.3314 C1.5027,36.8414 1.3167,39.0874 2.4377,41.9224 C3.3627,44.2644 3.8407,44.5734 6.8767,44.5644 C7.8297,44.5614 8.8007,44.4794 9.7317,44.2854 C11.8417,43.8454 13.9187,43.2434 16.0337,42.8334 C19.9867,42.0654 23.6947,42.2464 26.4947,45.7584 C27.3387,46.8154 28.3197,47.7764 29.3167,48.6964 C32.6737,51.7934 36.3907,53.3304 40.9057,51.2374 C41.7017,50.8684 42.5567,50.6284 43.3657,50.2854 C47.1907,48.6624 50.2467,46.0334 51.9097,42.2824 C52.9517,39.9334 53.6087,37.6524 56.1737,36.3954 C58.4467,35.2814 60.4137,33.5154 62.7227,32.5084 C67.5787,30.3914 72.0767,27.6584 76.4827,24.7944 C77.9967,23.8104 79.3397,22.1294 80.0667,20.4644 C81.4377,17.3234 81.1087,14.1684 78.4527,11.6394 C75.5907,8.9154 72.1587,8.2184 68.4787,9.4154 C66.4467,10.0774 64.6097,11.3144 62.6237,12.1484 C57.5767,14.2674 53.6787,14.1614 49.9857,10.5654 C48.0397,8.6714 46.1197,6.7364 44.3417,4.6864 C42.5787,2.6514 40.5027,1.6114 38.1677,1.8754 M37.2747,0.3224 C42.1717,-0.2176 44.9277,3.0334 47.7967,6.0704 C48.8917,7.2294 49.8847,8.5024 51.0747,9.5524 C54.2577,12.3554 58.1837,12.7064 61.9687,10.7334 C63.6647,9.8484 65.3947,9.0134 67.1607,8.2794 C72.1867,6.1864 77.8667,7.8294 81.0517,12.2304 C83.0717,15.0214 82.8017,20.2694 80.3517,23.2674 C79.4017,24.4304 78.3087,25.5764 77.0527,26.3724 C72.4727,29.2734 67.9187,32.2424 62.7737,34.1174 C59.9277,35.1554 57.7067,37.1284 55.5737,39.1784 C55.0307,39.7004 54.7417,40.5164 54.4207,41.2344 C51.9307,46.7944 47.7917,50.5274 42.0327,52.4784 C41.5037,52.6574 40.9407,52.7494 40.4267,52.9614 C35.9417,54.8074 32.3297,53.0234 29.0257,50.1684 C27.3367,48.7084 25.7797,47.0944 24.1557,45.5584 C22.3847,43.8834 20.2917,43.4074 17.9427,43.9254 C15.4467,44.4764 12.9537,45.0424 10.4547,45.5794 C9.5207,45.7804 8.5787,46.0114 7.6307,46.0704 C3.5567,46.3234 2.3827,45.5784 0.8167,41.8824 C-0.4363,38.9254 0.1137,36.3484 2.5377,34.0544 C3.0557,33.5644 3.6497,33.1354 4.2617,32.7664 C7.1317,31.0374 9.9987,29.3014 12.9167,27.6554 C13.7327,27.1944 14.7287,27.0644 15.6197,26.7244 C16.8067,26.2714 18.0067,25.8324 19.1357,25.2594 C20.2907,24.6734 20.9027,23.6624 20.8257,22.3214 C20.5057,16.7684 22.7757,12.0214 25.6077,7.5164 C28.2987,3.2344 32.1187,0.5834 37.2747,0.3224" id="Fill-114" fill="#000000"></path>
        <path d="M38.1677,1.8754 C40.5027,1.6114 42.5787,2.6514 44.3417,4.6864 C46.1197,6.7364 48.0397,8.6714 49.9857,10.5654 C53.6787,14.1614 57.5767,14.2674 62.6237,12.1484 C64.6097,11.3144 66.4467,10.0774 68.4787,9.4154 C72.1587,8.2184 75.5907,8.9154 78.4527,11.6394 C81.1087,14.1684 81.4377,17.3234 80.0667,20.4644 C79.3397,22.1294 77.9967,23.8104 76.4827,24.7944 C72.0767,27.6584 67.5787,30.3914 62.7227,32.5084 C60.4137,33.5154 58.4467,35.2814 56.1737,36.3954 C53.6087,37.6524 52.9517,39.9334 51.9097,42.2824 C50.2467,46.0334 47.1907,48.6624 43.3657,50.2854 C42.5567,50.6284 41.7017,50.8684 40.9057,51.2374 C36.3907,53.3304 32.6737,51.7934 29.3167,48.6964 C28.3197,47.7764 27.3387,46.8154 26.4947,45.7584 C23.6947,42.2464 19.9867,42.0654 16.0337,42.8334 C13.9187,43.2434 11.8417,43.8454 9.7317,44.2854 C8.8007,44.4794 7.8297,44.5614 6.8767,44.5644 C3.8407,44.5734 3.3627,44.2644 2.4377,41.9224 C1.3167,39.0874 1.5027,36.8414 3.3877,35.3314 C7.2067,32.2704 11.4407,29.8704 16.0207,28.1094 C17.0627,27.7084 18.1537,27.4174 19.1597,26.9414 C21.2877,25.9354 22.4617,24.3454 22.3967,21.8384 C22.2327,15.5584 25.0437,10.4154 28.9227,5.7774 C31.2287,3.0204 34.1907,1.8354 38.1677,1.8754" id="Fill-116" fill="#9CEDFF" class="icon__color"></path>
    </g>
</svg>
