<svg width="114px" height="77px" viewBox="648 85 114 77" version="1.1" xmlns="http://www.w3.org/2000/svg" xmlns:xlink="http://www.w3.org/1999/xlink">
    <defs></defs>
    <g id="Group-8" stroke="none" stroke-width="1" fill="none" fill-rule="evenodd" transform="translate(648.000000, 85.000000)">
        <path d="M14.7025,68.3984 C16.2725,71.7404 19.5365,73.5574 23.1245,74.8544 C25.2795,75.6334 26.0615,75.0014 26.3005,72.7694 C26.4115,71.7364 26.5845,70.7094 26.6665,69.6744 C27.0525,64.7444 30.4635,61.7644 35.0655,60.8274 C37.5645,60.3184 40.0625,59.6624 42.5905,59.4744 C47.2065,59.1314 51.5655,59.4854 55.1075,63.3414 C58.1705,66.6744 62.9935,65.1034 63.8925,60.6554 C64.3115,58.5804 64.4615,56.3504 64.1915,54.2604 C63.6175,49.8094 64.8015,46.2194 68.3825,43.4584 C69.0775,42.9224 69.8105,42.3894 70.3595,41.7184 C72.0225,39.6844 74.3085,38.7394 76.7075,38.0884 C81.9805,36.6564 85.3975,39.4104 85.2555,44.8694 C85.2445,45.2674 85.1525,45.6644 85.1505,46.0634 C85.1365,48.2914 85.1875,50.5214 85.1245,52.7484 C84.9795,57.8984 90.1495,60.2944 93.9545,60.8024 C98.6955,61.4354 102.0435,58.6164 105.0005,55.6524 C108.2875,52.3584 109.8435,47.9874 110.6185,43.4234 C111.0315,40.9844 111.1005,38.4884 111.4695,36.0404 C112.2575,30.8194 111.1065,25.9864 108.4235,21.5594 C107.4605,19.9694 105.8935,18.7324 104.5475,17.3894 C103.7055,16.5494 102.5355,15.9594 101.9075,14.9994 C99.7575,11.7174 96.5415,9.5394 93.8115,6.8644 C93.2545,6.3194 92.5385,5.8564 91.8105,5.5804 C88.9725,4.5024 86.1465,3.3504 83.2265,2.5514 C81.3355,2.0334 79.2525,1.7294 77.3205,1.9384 C72.3935,2.4704 67.8585,4.0404 65.5465,8.9584 C63.8865,12.4884 62.4315,16.1214 61.0235,19.7614 C60.3365,21.5384 59.8165,23.4114 59.4765,25.2864 C58.2215,32.1954 54.1955,36.9254 47.8375,39.4464 C43.2385,41.2694 38.4155,41.7204 34.2995,38.0094 C32.8905,36.7374 31.6265,35.2324 30.5805,33.6454 C29.0555,31.3334 26.9375,29.8414 24.5375,28.6974 C21.6975,27.3444 18.8475,27.9064 16.5715,30.0234 C14.3005,32.1364 14.0415,34.8864 14.0645,37.7194 C14.0735,38.9144 14.3155,40.1084 14.3175,41.3024 C14.3225,44.1144 13.2855,45.5684 10.6275,46.5244 C9.5005,46.9304 8.3265,47.2014 7.1815,47.5584 C2.0965,49.1474 -0.0425,53.9234 2.8615,58.3354 C4.9815,61.5564 7.6875,64.4914 11.0325,66.6264 C12.0815,67.2954 13.2845,67.7234 14.7025,68.3984 M83.4285,48.0864 C83.4285,46.4114 83.5295,44.7294 83.4065,43.0634 C83.1935,40.1884 81.1515,38.7264 78.3125,39.0984 C76.1615,39.3804 74.3755,40.4124 72.6935,41.6134 C71.3355,42.5834 70.1525,43.8024 68.9055,44.9244 C66.4895,47.0974 65.2285,49.7584 65.7405,53.0414 C66.1775,55.8534 66.0365,58.5734 65.2525,61.3254 C64.4615,64.1004 62.5795,65.7414 60.0015,66.4084 C57.6895,67.0054 55.4405,66.1174 53.9765,64.2884 C51.2705,60.9084 47.5125,60.5374 43.7775,60.6784 C40.5355,60.8004 37.3005,61.6174 34.1045,62.3184 C31.2415,62.9464 29.2155,64.6594 28.6135,67.6714 C28.2705,69.3904 27.9845,71.1294 27.8085,72.8724 C27.4625,76.3044 26.1645,77.2394 22.8475,76.1684 C19.6785,75.1444 16.9635,73.3784 14.6035,71.0004 C13.7985,70.1894 12.6375,69.7404 11.6915,69.0534 C10.9505,68.5154 10.2615,67.8964 9.5995,67.2614 C7.2945,65.0494 5.0015,62.8244 2.7235,60.5844 C1.0445,58.9324 0.2265,56.8364 0.1475,54.5514 C0.0255,51.0004 1.7385,48.4134 4.9225,46.9144 C6.3575,46.2394 7.9425,45.8904 9.4495,45.3644 C12.2255,44.3954 12.8575,43.5424 12.7235,40.5854 C12.6075,38.0344 12.2735,35.5044 13.0815,32.9844 C14.8135,27.5774 19.4845,25.1764 24.7705,27.3164 C27.5955,28.4594 30.0155,30.2374 31.7845,32.9074 C32.9535,34.6714 34.4055,36.4144 36.1165,37.6174 C39.3995,39.9264 43.2115,39.5924 46.7095,38.2544 C52.8945,35.8874 56.7825,31.3924 57.9045,24.7074 C58.0885,23.6104 58.3595,22.5064 58.7555,21.4694 C60.3435,17.3014 61.6895,13.0034 63.6925,9.0394 C67.1295,2.2384 74.7275,-1.0846 82.1045,0.7714 C85.5765,1.6444 88.9315,2.9914 92.3325,4.1404 C92.7065,4.2664 93.1065,4.4394 93.3825,4.7064 C96.3465,7.5844 99.9655,9.7554 102.3445,13.2824 C103.1685,14.5034 104.4065,15.5234 105.6355,16.3774 C109.1915,18.8464 111.0025,22.3964 112.2505,26.3684 C113.4275,30.1164 113.4635,33.8944 112.8565,37.7454 C112.1485,42.2274 111.8725,46.7384 109.7795,50.9684 C107.5535,55.4644 104.5505,59.0924 99.9605,61.0284 C96.8185,62.3534 93.6005,62.8254 90.0415,61.2694 C84.8535,59.0014 83.2575,55.1644 83.5265,49.9994 C83.5595,49.3614 83.5855,48.7234 83.6155,48.0854 C83.5535,48.0864 83.4905,48.0864 83.4285,48.0864" id="Fill-92" fill="#000000"></path>
        <path d="M14.7025,68.3984 C13.2845,67.7234 12.0815,67.2954 11.0325,66.6264 C7.6875,64.4914 4.9815,61.5564 2.8615,58.3354 C-0.0425,53.9234 2.0965,49.1474 7.1815,47.5584 C8.3265,47.2014 9.5005,46.9304 10.6275,46.5244 C13.2855,45.5684 14.3225,44.1144 14.3175,41.3024 C14.3155,40.1084 14.0735,38.9144 14.0645,37.7194 C14.0415,34.8864 14.3005,32.1364 16.5715,30.0234 C18.8475,27.9064 21.6975,27.3444 24.5375,28.6974 C26.9375,29.8414 29.0555,31.3334 30.5805,33.6454 C31.6265,35.2324 32.8905,36.7374 34.2995,38.0094 C38.4155,41.7204 43.2385,41.2694 47.8375,39.4464 C54.1955,36.9254 58.2215,32.1954 59.4765,25.2864 C59.8165,23.4114 60.3365,21.5384 61.0235,19.7614 C62.4315,16.1214 63.8865,12.4884 65.5465,8.9584 C67.8585,4.0404 72.3935,2.4704 77.3205,1.9384 C79.2525,1.7294 81.3355,2.0334 83.2265,2.5514 C86.1465,3.3504 88.9725,4.5024 91.8105,5.5804 C92.5385,5.8564 93.2545,6.3194 93.8115,6.8644 C96.5415,9.5394 99.7575,11.7174 101.9075,14.9994 C102.5355,15.9594 103.7055,16.5494 104.5475,17.3894 C105.8935,18.7324 107.4605,19.9694 108.4235,21.5594 C111.1065,25.9864 112.2575,30.8194 111.4695,36.0404 C111.1005,38.4884 111.0315,40.9844 110.6185,43.4234 C109.8435,47.9874 108.2875,52.3584 105.0005,55.6524 C102.0435,58.6164 98.6955,61.4354 93.9545,60.8024 C90.1495,60.2944 84.9795,57.8984 85.1245,52.7484 C85.1875,50.5214 85.1365,48.2914 85.1505,46.0634 C85.1525,45.6644 85.2445,45.2674 85.2555,44.8694 C85.3975,39.4104 81.9805,36.6564 76.7075,38.0884 C74.3085,38.7394 72.0225,39.6844 70.3595,41.7184 C69.8105,42.3894 69.0775,42.9224 68.3825,43.4584 C64.8015,46.2194 63.6175,49.8094 64.1915,54.2604 C64.4615,56.3504 64.3115,58.5804 63.8925,60.6554 C62.9935,65.1034 58.1705,66.6744 55.1075,63.3414 C51.5655,59.4854 47.2065,59.1314 42.5905,59.4744 C40.0625,59.6624 37.5645,60.3184 35.0655,60.8274 C30.4635,61.7644 27.0525,64.7444 26.6665,69.6744 C26.5845,70.7094 26.4115,71.7364 26.3005,72.7694 C26.0615,75.0014 25.2795,75.6334 23.1245,74.8544 C19.5365,73.5574 16.2725,71.7404 14.7025,68.3984" id="Fill-94" fill="#9CEDFF" class="icon__color"></path>
    </g>
</svg>
