<svg width="36px" height="31px" viewBox="221 626 36 31" version="1.1" xmlns="http://www.w3.org/2000/svg" xmlns:xlink="http://www.w3.org/1999/xlink">
    <defs></defs>
    <g id="Group-16" stroke="none" stroke-width="1" fill="none" fill-rule="evenodd" transform="translate(221.000000, 626.000000)">
        <path d="M2.4409,7.3088 C2.5109,8.1988 2.5449,8.7458 2.5979,9.2898 C2.9669,13.0198 3.3309,16.7498 3.7139,20.4788 C3.9339,22.6238 4.1189,24.7758 4.4459,26.9058 C4.7329,28.7718 5.0449,29.0568 6.9779,29.0148 C10.4079,28.9408 13.8799,29.0128 17.2499,28.4858 C20.2259,28.0198 23.1289,28.2008 26.0699,28.3078 C27.5049,28.3598 28.9429,28.3818 30.3729,28.5018 C31.5789,28.6038 32.1679,28.0468 32.3519,26.9318 C32.4299,26.4588 32.4639,25.9788 32.5379,25.5048 C33.6109,18.6638 33.0419,11.7868 32.9719,4.9218 C32.9529,3.0048 32.6339,2.7838 30.5779,3.1958 C22.9699,4.7178 15.2319,5.2418 7.5569,6.2448 C5.8539,6.4668 4.1839,6.9398 2.4409,7.3088 M0.5979,6.0438 C6.7129,4.7788 12.6789,4.0008 18.7189,3.4678 C23.6939,3.0278 28.5779,1.6068 33.5179,0.7078 C34.3469,0.5578 35.2579,0.8558 35.8419,0.9168 C35.4869,2.8588 34.9979,4.4258 34.9529,6.0048 C34.8459,9.7588 35.0679,13.5238 34.9319,17.2758 C34.8079,20.7008 34.5239,24.1348 34.0549,27.5298 C33.6949,30.1288 33.5159,30.1488 30.9749,30.1038 C29.0619,30.0708 27.1469,29.7748 25.2399,29.8328 C21.1759,29.9558 17.1179,30.2568 13.0549,30.4378 C10.7429,30.5408 8.4199,30.6848 6.1149,30.5618 C3.8649,30.4408 3.4949,29.8018 3.0939,27.6428 C2.3899,23.8548 2.2159,20.0508 2.1439,16.2048 C2.0939,13.5948 1.4079,10.9968 1.0009,8.3948 C0.8799,7.6268 0.7389,6.8628 0.5979,6.0438" id="Fill-46" fill="#000000"></path>
        <path d="M2.4409,7.3088 C4.1839,6.9398 5.8539,6.4668 7.5569,6.2448 C15.2319,5.2418 22.9699,4.7178 30.5779,3.1958 C32.6339,2.7838 32.9529,3.0048 32.9719,4.9218 C33.0419,11.7868 33.6109,18.6638 32.5379,25.5048 C32.4639,25.9788 32.4299,26.4588 32.3519,26.9318 C32.1679,28.0468 31.5789,28.6038 30.3729,28.5018 C28.9429,28.3818 27.5049,28.3598 26.0699,28.3078 C23.1289,28.2008 20.2259,28.0198 17.2499,28.4858 C13.8799,29.0128 10.4079,28.9408 6.9779,29.0148 C5.0449,29.0568 4.7329,28.7718 4.4459,26.9058 C4.1189,24.7758 3.9339,22.6238 3.7139,20.4788 C3.3309,16.7498 2.9669,13.0198 2.5979,9.2898 C2.5449,8.7458 2.5109,8.1988 2.4409,7.3088" id="Fill-48" fill="#9CEDFF" class="icon__color"></path>
    </g>
</svg>
