<svg width="49px" height="54px" viewBox="411 162 49 54" version="1.1" xmlns="http://www.w3.org/2000/svg" xmlns:xlink="http://www.w3.org/1999/xlink">
    <defs></defs>
    <g id="Group-7" stroke="none" stroke-width="1" fill="none" fill-rule="evenodd" transform="translate(411.000000, 162.000000)">
        <g id="Group-4">
            <path d="M2.3583,17.581 C2.4193,21.897 3.1183,25.954 4.9053,29.951 C6.9533,34.535 9.6823,38.632 12.6963,42.563 C14.7343,45.222 16.9583,47.774 20.0143,49.377 C25.4623,52.236 31.0733,53.674 37.0093,50.942 C41.9443,48.669 45.5323,45.163 46.0013,39.461 C46.2343,36.619 46.1103,33.703 45.7633,30.868 C44.9793,24.457 41.9583,18.875 38.7493,13.412 C36.6373,9.817 33.8143,6.938 29.8983,5.269 C26.3543,3.757 22.7823,2.438 18.8173,2.611 C17.0713,2.688 15.1943,2.874 13.5893,2.355 C11.1553,1.568 9.2673,2.008 7.4543,3.619 C5.2233,5.601 3.7673,8.076 3.1553,10.947 C2.6943,13.117 2.6103,15.367 2.3583,17.581 M0.6193,17.419 C1.2283,14.546 1.5923,11.594 2.5053,8.821 C3.7723,4.967 6.1863,1.921 10.2473,0.618 C11.0343,0.365 11.9593,0.42 12.8053,0.499 C14.6203,0.67 16.4233,1.133 18.2333,1.149 C24.1643,1.202 29.5213,2.988 34.4433,6.194 C37.1363,7.949 38.8393,10.612 40.4133,13.286 C43.2913,18.173 45.9823,23.16 47.1483,28.814 C48.0283,33.079 48.4463,37.305 47.3543,41.615 C46.4913,45.021 44.7503,47.764 41.9303,49.822 C36.6353,53.686 30.9363,54.897 24.5263,52.885 C19.5343,51.318 15.4643,48.521 12.2513,44.527 C8.9973,40.483 6.1093,36.187 3.8903,31.437 C1.8093,26.983 0.9933,22.347 0.6193,17.419" id="Fill-9" fill="#000000"></path>
            <path d="M2.3583,17.581 C2.6103,15.367 2.6943,13.117 3.1553,10.947 C3.7673,8.076 5.2233,5.601 7.4543,3.619 C9.2673,2.008 11.1553,1.568 13.5893,2.355 C15.1943,2.874 17.0713,2.688 18.8173,2.611 C22.7823,2.438 26.3543,3.757 29.8983,5.269 C33.8143,6.938 36.6373,9.817 38.7493,13.412 C41.9583,18.875 44.9793,24.457 45.7633,30.868 C46.1103,33.703 46.2343,36.619 46.0013,39.461 C45.5323,45.163 41.9443,48.669 37.0093,50.942 C31.0733,53.674 25.4623,52.236 20.0143,49.377 C16.9583,47.774 14.7343,45.222 12.6963,42.563 C9.6823,38.632 6.9533,34.535 4.9053,29.951 C3.1183,25.954 2.4193,21.897 2.3583,17.581" id="Fill-11" fill="#9CEDFF" class="icon__color"></path>
        </g>
    </g>
</svg>
