<svg width="45px" height="42px" viewBox="163 131 45 42" version="1.1" xmlns="http://www.w3.org/2000/svg" xmlns:xlink="http://www.w3.org/1999/xlink">
    <defs></defs>
    <g id="Group-3" stroke="none" stroke-width="1" fill="none" fill-rule="evenodd" transform="translate(163.000000, 131.000000)">
        <path d="M34.2674,2.3367 C33.5104,2.8837 33.2184,3.0207 33.0264,3.2427 C28.3444,8.6717 24.3404,14.6457 19.3294,19.8247 C16.5664,22.6797 14.3234,26.0337 11.7864,29.1137 C9.4544,31.9457 7.0274,34.7007 4.6804,37.5207 C4.3594,37.9067 4.2584,38.4767 4.0554,38.9607 C4.6124,39.1407 5.1664,39.3337 5.7294,39.4927 C5.8714,39.5327 6.0444,39.4447 6.2024,39.4497 C11.5374,39.5957 16.9424,39.2697 22.1864,40.0407 C26.7204,40.7067 31.0774,40.4097 35.4994,39.8737 C38.1684,39.5497 38.2394,39.3247 37.9604,36.6797 C37.4014,31.3687 36.8264,26.0597 36.3324,20.7427 C35.9044,16.1357 35.6174,11.5157 35.1834,6.9097 C35.0524,5.5177 34.6404,4.1527 34.2674,2.3367 M33.9354,0.0007 C36.2124,2.0267 36.4744,4.4467 36.7304,6.7957 C37.2844,11.8777 37.7074,16.9727 38.1944,22.0617 C38.6734,27.0667 39.1624,32.0707 39.6564,37.0747 C39.7094,37.6157 39.8214,38.1517 39.9394,38.9017 L44.8674,38.9017 C44.9064,39.0467 44.9454,39.1927 44.9844,39.3387 C44.5634,39.5897 44.1724,39.9597 43.7164,40.0757 C37.2304,41.7367 30.6264,42.3617 23.9874,41.5607 C18.5684,40.9077 13.1554,40.7517 7.7214,40.8567 C6.1314,40.8867 4.5504,41.2097 2.9594,41.3077 C2.2114,41.3527 1.4494,41.1817 0.2454,41.0667 C2.0344,37.4727 5.0794,35.5277 7.2004,32.8337 C9.3744,30.0727 11.6724,27.4087 13.8764,24.6707 C16.1304,21.8727 18.0744,18.7617 20.6394,16.2927 C23.2254,13.8037 24.9784,10.7877 27.1564,8.0487 C29.3154,5.3337 31.6214,2.7357 33.9354,0.0007" id="Fill-52" fill="#000000"></path>
        <path d="M34.2674,2.3367 C34.6404,4.1527 35.0524,5.5177 35.1834,6.9097 C35.6174,11.5157 35.9044,16.1357 36.3324,20.7427 C36.8264,26.0597 37.4014,31.3687 37.9604,36.6797 C38.2394,39.3247 38.1684,39.5497 35.4994,39.8737 C31.0774,40.4097 26.7204,40.7067 22.1864,40.0407 C16.9424,39.2697 11.5374,39.5957 6.2024,39.4497 C6.0444,39.4447 5.8714,39.5327 5.7294,39.4927 C5.1664,39.3337 4.6124,39.1407 4.0554,38.9607 C4.2584,38.4767 4.3594,37.9067 4.6804,37.5207 C7.0274,34.7007 9.4544,31.9457 11.7864,29.1137 C14.3234,26.0337 16.5664,22.6797 19.3294,19.8247 C24.3404,14.6457 28.3444,8.6717 33.0264,3.2427 C33.2184,3.0207 33.5104,2.8837 34.2674,2.3367" id="Fill-58" fill="#9CEDFF" class="icon__color"></path>
    </g>
</svg>
