<svg width="69px" height="60px" viewBox="39 282 69 60" version="1.1" xmlns="http://www.w3.org/2000/svg" xmlns:xlink="http://www.w3.org/1999/xlink">
    <defs></defs>
    <g id="Group" stroke="none" stroke-width="1" fill="none" fill-rule="evenodd" transform="translate(39.000000, 282.000000)">
        <path d="M47.9275,3.5986 C47.7185,3.5876 47.5095,3.5766 47.3005,3.5656 C45.5015,6.8286 43.7335,10.1096 41.8945,13.3516 C40.0825,16.5466 38.2395,19.7266 36.3275,22.8626 C35.6385,23.9926 34.6365,24.6406 33.1145,24.4846 C32.1485,24.3866 31.0785,24.6886 30.1415,25.0406 C26.3295,26.4736 22.5755,28.0596 18.7555,29.4686 C14.3305,31.1016 9.9675,32.8606 5.7995,35.0786 C5.0265,35.4906 4.2635,35.9266 3.5305,36.4056 C2.4935,37.0826 2.2295,37.9996 2.9035,39.0786 C4.0425,40.9016 5.3015,42.6546 6.3455,44.5296 C8.2265,47.9116 11.1425,47.9756 14.3995,47.3256 C22.2465,45.7596 29.9895,43.8266 37.5085,41.0526 C41.2715,39.6636 41.5665,39.8116 42.3665,43.8366 C43.0505,47.2856 43.5785,50.7646 44.1965,54.2276 C44.2825,54.7106 44.4865,55.1736 44.8105,56.1986 C50.1235,47.4386 57.1445,41.0346 65.3705,35.4566 C62.7545,33.9066 60.5405,32.4756 58.2205,31.2436 C54.2285,29.1246 52.1425,25.5756 51.2025,21.4386 C50.2495,17.2446 49.8885,12.9186 49.1745,8.6666 C48.8875,6.9556 48.3505,5.2866 47.9275,3.5986 M47.6965,0.4086 C49.3035,1.5986 49.5225,3.1836 49.8155,4.6076 C50.7475,9.1446 51.4665,13.7256 52.3885,18.2646 C52.8585,20.5786 53.1395,22.9106 54.2475,25.1246 C56.3525,29.3356 60.3735,30.7476 64.1665,32.5726 C65.5135,33.2196 66.8655,33.8576 68.6755,34.7186 C67.6805,35.6036 66.9805,36.2736 66.2315,36.8846 C62.1545,40.2106 57.7595,43.2186 54.0695,46.9276 C50.7195,50.2946 48.1315,54.4196 45.2035,58.2076 C44.9275,58.5646 44.6275,58.9026 43.9905,59.6666 C43.5985,58.4436 43.2275,57.6206 43.0785,56.7596 C42.3995,52.8226 41.8015,48.8716 41.1315,44.9336 C40.9745,44.0126 40.6505,43.1196 40.3335,41.9606 C39.0015,42.3266 37.8555,42.5786 36.7505,42.9546 C29.0265,45.5886 21.1675,47.6886 13.1125,49.0376 C10.0085,49.5576 7.4905,49.0106 5.7785,45.9726 C4.4525,43.6206 2.7225,41.4996 1.2185,39.2456 C0.3815,37.9916 0.4335,36.8226 1.8985,36.0406 C5.6885,34.0176 9.4405,31.9136 13.3065,30.0456 C15.7415,28.8696 18.3895,28.1416 20.8815,27.0706 C24.9295,25.3306 29.0525,23.8916 33.4175,23.1756 C33.9445,23.0896 34.5655,22.6286 34.8485,22.1626 C36.9175,18.7526 38.9525,15.3206 40.9165,11.8486 C42.8045,8.5116 44.5805,5.1106 46.4435,1.7586 C46.6975,1.3016 47.1695,0.9656 47.6965,0.4086" id="Fill-138" fill="#000000"></path>
        <path d="M47.9275,3.5986 C48.3505,5.2866 48.8875,6.9556 49.1745,8.6666 C49.8885,12.9186 50.2495,17.2446 51.2025,21.4386 C52.1425,25.5756 54.2285,29.1246 58.2205,31.2436 C60.5405,32.4756 62.7545,33.9066 65.3705,35.4566 C57.1445,41.0346 50.1235,47.4386 44.8105,56.1986 C44.4865,55.1736 44.2825,54.7106 44.1965,54.2276 C43.5785,50.7646 43.0505,47.2856 42.3665,43.8366 C41.5665,39.8116 41.2715,39.6636 37.5085,41.0526 C29.9895,43.8266 22.2465,45.7596 14.3995,47.3256 C11.1425,47.9756 8.2265,47.9116 6.3455,44.5296 C5.3015,42.6546 4.0425,40.9016 2.9035,39.0786 C2.2295,37.9996 2.4935,37.0826 3.5305,36.4056 C4.2635,35.9266 5.0265,35.4906 5.7995,35.0786 C9.9675,32.8606 14.3305,31.1016 18.7555,29.4686 C22.5755,28.0596 26.3295,26.4736 30.1415,25.0406 C31.0785,24.6886 32.1485,24.3866 33.1145,24.4846 C34.6365,24.6406 35.6385,23.9926 36.3275,22.8626 C38.2395,19.7266 40.0825,16.5466 41.8945,13.3516 C43.7335,10.1096 45.5015,6.8286 47.3005,3.5656 C47.5095,3.5766 47.7185,3.5876 47.9275,3.5986" id="Fill-142" fill="#9CEDFF" class="icon__color"></path>
    </g>
</svg>
