<svg width="41px" height="41px" viewBox="625 617 41 41" version="1.1" xmlns="http://www.w3.org/2000/svg" xmlns:xlink="http://www.w3.org/1999/xlink">
    <defs></defs>
    <g id="Group-30" stroke="none" stroke-width="1" fill="none" fill-rule="evenodd" transform="translate(625.000000, 617.000000)">
        <g id="Group-10">
            <path d="M20.1842,2.5352 C19.4672,2.5352 18.7462,2.5852 18.0342,2.5262 C14.9452,2.2722 12.3732,3.4402 10.2422,5.5352 C7.7862,7.9482 5.6522,10.6662 4.1442,13.7652 C2.8512,16.4232 1.9712,19.2722 2.5782,22.2942 C3.0962,24.8692 3.7172,27.4272 4.4032,29.9632 C5.3482,33.4562 7.6812,36.1372 10.7822,37.5352 C16.3882,40.0612 22.3032,39.3312 27.7982,37.0832 C35.0252,34.1262 41.5862,23.6112 37.2042,14.0562 C34.2892,7.7012 27.0232,2.3972 20.1842,2.5352 M17.9712,40.5232 C16.8452,40.4252 15.5732,40.3312 14.3052,40.2002 C8.5352,39.6022 4.9982,36.1062 3.1992,30.9452 C2.0542,27.6612 1.4832,24.1402 0.9862,20.6782 C0.5252,17.4702 1.8912,14.5772 3.3402,11.7802 C4.7932,8.9772 6.8302,6.6142 9.1282,4.5182 C12.3352,1.5912 16.0882,0.0942 20.5392,0.8322 C21.7962,1.0412 23.1432,0.8802 24.3432,1.2412 C32.9372,3.8302 39.9442,10.5632 40.4162,20.2632 C40.7322,26.7782 37.5882,32.0872 32.5412,36.2112 C28.3302,39.6522 23.3102,40.3302 17.9712,40.5232" id="Fill-70" fill="#000000"></path>
            <path d="M5.2596,22.3315 L5.2426,22.4975 L5.4136,22.4295 L5.2596,22.3315 Z M20.1876,33.9065 C22.7226,33.9505 25.6996,33.0155 28.3146,31.2265 C32.6286,28.2775 35.2086,22.9715 32.8716,17.8855 C31.3116,14.4915 28.7286,11.8495 25.3566,10.0725 C24.1126,9.4165 22.8846,9.1055 21.4536,9.5025 C20.3886,9.7965 19.2246,10.0065 18.1386,9.9025 C13.7916,9.4865 10.7686,11.1975 8.9076,15.1455 C6.9146,19.3715 6.6196,23.8455 8.6456,27.8725 C10.7316,32.0205 14.6166,34.1745 20.1876,33.9065 L20.1876,33.9065 Z M20.1846,2.5355 C27.0236,2.3975 34.2896,7.7015 37.2036,14.0565 C41.5866,23.6115 35.0256,34.1265 27.7986,37.0835 C22.3036,39.3315 16.3886,40.0615 10.7826,37.5345 C7.6816,36.1375 5.3476,33.4555 4.4026,29.9635 C3.7166,27.4275 3.0966,24.8695 2.5786,22.2945 C1.9716,19.2715 2.8506,16.4235 4.1436,13.7655 C5.6526,10.6665 7.7856,7.9475 10.2416,5.5345 C12.3736,3.4405 14.9446,2.2715 18.0336,2.5265 C18.7466,2.5855 19.4676,2.5355 20.1846,2.5355 L20.1846,2.5355 Z" id="Fill-72" fill="#9CEDFF" class="icon__color"></path>
            <path d="M20.1807,32.3308 C24.2627,32.1238 27.5787,30.3418 30.0467,27.1748 C32.1547,24.4678 32.7157,21.2868 31.1957,18.1698 C29.7027,15.1088 27.3467,12.6998 24.1507,11.2708 C23.7217,11.0788 23.2407,10.8688 22.7907,10.8828 C20.5667,10.9498 18.3247,10.9478 16.1257,11.2418 C13.9207,11.5358 11.9887,12.4548 11.1847,14.8188 C11.0867,15.1038 10.8767,15.3618 10.6817,15.6018 C8.4637,18.3348 8.6037,21.6128 9.4057,24.5798 C10.0117,26.8208 11.7797,28.7858 13.2117,30.7418 C13.6697,31.3668 14.6707,31.7728 15.4877,31.9188 C17.0307,32.1938 18.6197,32.2088 20.1807,32.3308 M20.1877,33.9058 C14.6167,34.1748 10.7317,32.0198 8.6457,27.8728 C6.6197,23.8458 6.9147,19.3708 8.9077,15.1448 C10.7687,11.1968 13.7917,9.4868 18.1387,9.9028 C19.2247,10.0068 20.3887,9.7968 21.4537,9.5018 C22.8847,9.1058 24.1127,9.4168 25.3567,10.0728 C28.7287,11.8498 31.3107,14.4918 32.8707,17.8858 C35.2087,22.9718 32.6287,28.2778 28.3147,31.2268 C25.6997,33.0148 22.7227,33.9498 20.1877,33.9058" id="Fill-74" fill="#000000"></path>
            <path d="M19.1296,26.7016 C20.9506,26.3726 22.9536,25.5786 24.2046,23.6926 C24.5886,23.1146 24.5026,21.9836 24.2286,21.2586 C23.4686,19.2446 21.5966,18.5666 19.7006,18.2256 C18.3346,17.9806 15.8706,19.8916 15.2466,21.3816 C14.1156,24.0796 15.7846,26.6046 19.1296,26.7016 M20.1806,32.3306 C18.6196,32.2086 17.0306,32.1946 15.4876,31.9186 C14.6706,31.7726 13.6696,31.3666 13.2116,30.7416 C11.7796,28.7856 10.0116,26.8206 9.4056,24.5796 C8.6036,21.6126 8.4636,18.3346 10.6816,15.6016 C10.8766,15.3616 11.0876,15.1046 11.1846,14.8186 C11.9886,12.4546 13.9206,11.5356 16.1256,11.2416 C18.3246,10.9486 20.5666,10.9496 22.7906,10.8826 C23.2416,10.8696 23.7216,11.0786 24.1506,11.2706 C27.3466,12.6996 29.7026,15.1096 31.1956,18.1696 C32.7156,21.2866 32.1546,24.4686 30.0466,27.1746 C27.5786,30.3426 24.2636,32.1246 20.1806,32.3306" id="Fill-78" fill="#FFFFFF"></path>
            <path d="M19.1042,20.0804 C18.0162,21.4534 16.6192,22.6274 17.4462,24.3604 C18.0532,25.6324 19.4112,25.1504 20.4262,24.7614 C21.6062,24.3084 22.9902,23.6904 22.8052,22.1734 C22.5552,20.1354 20.6542,20.4844 19.1042,20.0804 M19.1292,26.7014 C15.7842,26.6044 14.1152,24.0794 15.2462,21.3814 C15.8702,19.8924 18.3342,17.9804 19.7002,18.2264 C21.5972,18.5664 23.4692,19.2444 24.2282,21.2584 C24.5022,21.9844 24.5882,23.1154 24.2052,23.6934 C22.9532,25.5794 20.9502,26.3724 19.1292,26.7014" id="Fill-80" fill="#000000"></path>
        </g>
        <path d="M19.1042,20.0804 C20.6542,20.4844 22.5552,20.1354 22.8052,22.1734 C22.9902,23.6904 21.6062,24.3084 20.4262,24.7614 C19.4112,25.1504 18.0532,25.6324 17.4462,24.3604 C16.6192,22.6274 18.0162,21.4534 19.1042,20.0804" id="Fill-82" fill="#9CEDFF" class="icon__color"></path>
    </g>
</svg>
