<svg width="35px" height="46px" viewBox="86 379 35 46" version="1.1" xmlns="http://www.w3.org/2000/svg" xmlns:xlink="http://www.w3.org/1999/xlink">
    <defs></defs>
    <g id="Group" stroke="none" stroke-width="1" fill="none" fill-rule="evenodd" transform="translate(86.000000, 379.000000)">
        <g id="Group-24">
            <path d="M27.4828,2.3339 C27.2878,2.2979 27.0928,2.2619 26.8978,2.2269 C25.1468,4.0699 23.4518,5.9709 21.6238,7.7339 C20.5458,8.7729 19.3718,9.8839 18.0248,10.4229 C16.8678,10.8869 16.1738,11.5229 15.5718,12.4939 C15.1558,13.1639 14.6398,13.7739 14.1488,14.3949 C10.7738,18.6549 7.3598,22.8849 4.0288,27.1789 C2.2178,29.5139 1.4438,32.2449 2.3668,35.0859 C3.4018,38.2719 5.3598,40.9759 7.7268,43.6049 C8.6788,42.6789 9.5838,41.8999 10.3708,41.0159 C13.6228,37.3599 18.0128,35.9259 22.5208,34.7049 C25.2908,33.9559 28.0828,33.2759 30.8178,32.4129 C32.7258,31.8119 32.7878,31.6139 32.4168,29.6009 C31.7798,26.1439 31.1058,22.6929 30.3698,19.2559 C29.4828,15.1189 28.2438,11.0579 28.2358,6.7559 C28.2328,5.2809 27.7478,3.8079 27.4828,2.3339 M34.6828,33.6049 C32.8818,33.9139 31.5838,34.0679 30.3208,34.3689 C27.8398,34.9579 25.3918,35.6819 22.9078,36.2549 C18.2288,37.3359 14.0648,39.1579 10.7378,42.8789 C7.2278,46.8069 6.7078,45.7309 4.8168,42.5249 C3.6878,40.6129 2.3368,38.8089 1.4108,36.8059 C-0.0982,33.5419 0.0638,30.2259 2.2088,27.2509 C4.3088,24.3399 6.6208,21.5829 8.7768,18.7109 C11.1228,15.5859 13.4128,12.4179 15.6898,9.2429 C16.3758,8.2849 16.9448,7.4569 18.4008,7.9719 C18.8598,8.1349 19.7478,7.6359 20.1918,7.1929 C21.8868,5.5009 23.4548,3.6839 25.1228,1.9649 C25.9318,1.1309 26.8078,-0.2511 28.0458,0.4309 C28.7938,0.8429 29.1938,2.2649 29.3558,3.2949 C29.8008,6.1279 29.8008,9.0439 30.4028,11.8359 C31.7958,18.2939 33.4748,24.6889 34.9408,31.1319 C35.1338,31.9779 34.7618,32.9529 34.6828,33.6049" id="Fill-140" fill="#000000"></path>
            <path d="M27.4828,2.3339 C27.7478,3.8079 28.2328,5.2809 28.2358,6.7559 C28.2438,11.0579 29.4828,15.1189 30.3698,19.2559 C31.1058,22.6929 31.7798,26.1439 32.4168,29.6009 C32.7878,31.6139 32.7258,31.8119 30.8178,32.4129 C28.0828,33.2759 25.2908,33.9559 22.5208,34.7049 C18.0128,35.9259 13.6228,37.3599 10.3708,41.0159 C9.5838,41.8999 8.6788,42.6789 7.7268,43.6049 C5.3598,40.9759 3.4018,38.2719 2.3668,35.0859 C1.4438,32.2449 2.2178,29.5139 4.0288,27.1789 C7.3598,22.8849 10.7738,18.6549 14.1488,14.3949 C14.6398,13.7739 15.1558,13.1639 15.5718,12.4939 C16.1738,11.5229 16.8678,10.8869 18.0248,10.4229 C19.3718,9.8839 20.5458,8.7729 21.6238,7.7339 C23.4518,5.9709 25.1468,4.0699 26.8978,2.2269 C27.0928,2.2619 27.2878,2.2979 27.4828,2.3339" id="Fill-144" fill="#9CEDFF" class="icon__color"></path>
        </g>
    </g>
</svg>
