<svg width="41px" height="59px" viewBox="599 83 41 59" version="1.1" xmlns="http://www.w3.org/2000/svg" xmlns:xlink="http://www.w3.org/1999/xlink">
    <defs></defs>
    <g id="Group-32" stroke="none" stroke-width="1" fill="none" fill-rule="evenodd" transform="translate(599.000000, 83.000000)">
        <g id="Group-7">
            <path d="M25.9501,55.8315 C28.2571,55.6505 30.5611,55.4235 32.8711,55.3015 C35.6381,55.1555 35.8171,54.9045 35.6821,52.1975 C35.4721,47.9715 35.1341,43.7265 35.3141,39.5095 C35.7671,28.8985 36.4871,18.2975 37.0741,7.6915 C37.1401,6.4995 37.0881,5.2945 37.0011,4.1015 C36.9141,2.9095 36.2971,2.2135 34.9961,2.2105 C30.6881,2.2005 26.3801,2.1555 22.0721,2.1315 C20.7961,2.1245 20.1701,2.7695 20.1601,4.0515 C20.1451,5.9695 20.0991,7.8875 20.0761,9.8065 C19.9511,20.2805 20.0991,30.7365 21.3991,41.1575 C21.8221,44.5515 21.9241,48.0125 21.8491,51.4345 C21.7551,55.7545 21.6111,55.7515 25.9501,55.8315 M3.0381,3.1065 C2.7301,4.8395 2.2691,6.3015 2.2421,7.7715 C2.0701,17.0285 1.8591,26.2885 1.9381,35.5445 C1.9851,40.9615 2.5531,46.3735 2.8661,51.7895 C2.9581,53.3795 3.9731,54.1035 5.3451,54.2185 C8.9031,54.5195 12.4711,54.7765 16.0391,54.8825 C20.4391,55.0145 20.6171,54.9315 20.3841,50.6205 C19.9521,42.6565 19.0851,34.7125 18.7881,26.7465 C18.5201,19.5755 18.7151,12.3835 18.8271,5.2035 C18.8651,2.7735 18.5271,2.0805 16.0851,2.1935 C11.8721,2.3895 7.6681,2.7725 3.0381,3.1065 M0.7111,1.8185 C14.3391,0.1125 27.4931,0.0245 40.8001,0.6605 C40.7411,1.2145 40.8241,1.6185 40.6601,1.8035 C38.0671,4.7305 38.6341,8.4185 38.3971,11.8245 C37.7711,20.8275 37.3431,29.8455 36.9711,38.8635 C36.8041,42.9315 36.9121,47.0135 36.9921,51.0875 C37.0141,52.1835 37.3231,53.2915 37.6211,54.3595 C38.0531,55.9075 37.5251,56.8795 35.9331,56.9335 C33.1451,57.0305 30.3511,57.0595 27.5621,57.0115 C25.2301,56.9715 22.9411,57.0445 20.6381,58.1625 C19.6411,56.1795 17.7971,56.3105 15.9481,56.3695 C14.1111,56.4275 12.2671,56.3335 10.4331,56.4355 C7.9621,56.5725 5.7031,55.8725 3.4511,54.9925 C2.2751,54.5335 1.6321,53.7735 1.5211,52.5235 C1.2661,49.6615 0.8281,46.8055 0.7681,43.9395 C0.6491,38.3535 0.7451,32.7615 0.7411,27.1725 C0.7371,20.5375 0.7211,13.9025 0.7121,7.2675 C0.7091,5.4635 0.7111,3.6605 0.7111,1.8185" id="Fill-26" fill="#000000"></path>
            <path d="M3.0381,3.1069 C7.6681,2.7719 11.8721,2.3899 16.0851,2.1939 C18.5271,2.0799 18.8651,2.7739 18.8271,5.2029 C18.7151,12.3839 18.5201,19.5749 18.7881,26.7459 C19.0851,34.7129 19.9521,42.6569 20.3841,50.6209 C20.6171,54.9309 20.4391,55.0139 16.0391,54.8829 C12.4701,54.7759 8.9031,54.5189 5.3451,54.2189 C3.9731,54.1029 2.9581,53.3799 2.8661,51.7899 C2.5531,46.3739 1.9851,40.9619 1.9381,35.5439 C1.8591,26.2879 2.0701,17.0289 2.2421,7.7719 C2.2691,6.3019 2.7301,4.8399 3.0381,3.1069" id="Fill-32" fill="#9CEDFF" class="icon__color"></path>
            <path d="M25.9501,55.8315 C21.6111,55.7515 21.7551,55.7545 21.8491,51.4345 C21.9241,48.0125 21.8221,44.5515 21.3991,41.1575 C20.0991,30.7365 19.9511,20.2805 20.0761,9.8065 C20.0991,7.8875 20.1451,5.9695 20.1601,4.0515 C20.1701,2.7695 20.7961,2.1245 22.0721,2.1315 C26.3801,2.1555 30.6881,2.2005 34.9961,2.2105 C36.2971,2.2135 36.9141,2.9095 37.0011,4.1015 C37.0881,5.2945 37.1401,6.4995 37.0741,7.6915 C36.4871,18.2975 35.7671,28.8985 35.3141,39.5095 C35.1341,43.7265 35.4721,47.9715 35.6821,52.1975 C35.8171,54.9045 35.6381,55.1555 32.8711,55.3015 C30.5611,55.4235 28.2571,55.6505 25.9501,55.8315" id="Fill-34" fill="#FFFFFF"></path>
        </g>
    </g>
</svg>
