<svg width="51px" height="73px" viewBox="560 284 51 73" version="1.1" xmlns="http://www.w3.org/2000/svg" xmlns:xlink="http://www.w3.org/1999/xlink">
    <defs></defs>
    <path d="M577.5917,336.634 C577.7747,337.194 577.8487,337.585 578.0217,337.925 C579.2207,340.286 578.9247,341.179 576.5627,342.434 C575.8637,342.805 575.1757,343.228 574.5647,343.727 C572.2497,345.619 569.7057,347.067 566.8517,347.987 C565.8897,348.297 564.9777,348.76 563.5177,349.374 C564.6797,350.257 565.3787,351.031 566.2497,351.411 C571.9387,353.894 577.8757,355.315 584.1177,355.173 C586.0297,355.13 587.9357,354.82 589.8467,354.774 C593.1607,354.694 596.3307,353.984 599.4297,352.87 C603.6697,351.345 605.9867,347.949 607.8177,344.137 C608.1767,343.39 608.1677,342.422 608.1717,341.555 C608.1897,337.641 608.2507,333.724 608.1117,329.814 C607.9027,323.926 606.6577,318.232 603.7947,313.053 C601.4797,308.864 598.8337,304.857 596.3117,300.783 C593.3477,295.996 589.4897,291.945 585.6027,287.924 C585.2277,287.536 584.6537,287.341 583.8487,286.864 C583.9357,287.718 583.9177,288.115 584.0227,288.475 C585.5117,293.578 586.0217,298.762 585.7597,304.083 C585.5527,308.285 584.2267,311.867 581.2177,314.817 C580.3757,315.643 579.5797,316.515 578.6177,317.515 C579.3337,318.169 579.8597,318.78 580.5037,319.213 C582.2627,320.393 583.1507,322.168 583.8747,324.033 C584.7747,326.352 583.8997,328.555 581.7037,329.704 C581.2127,329.961 580.6627,330.104 580.1457,330.313 C578.5657,330.949 578.4957,331.363 579.7037,332.666 C580.1147,333.109 580.4867,333.587 581.0607,334.266 C579.8347,335.102 578.8107,335.802 577.5917,336.634 M560.4907,348.611 C561.2477,348.22 561.7997,347.729 562.4017,347.657 C566.1477,347.208 569.4487,345.733 572.4747,343.543 C573.7037,342.654 574.9697,341.817 576.2107,340.947 C576.9687,340.415 577.1857,339.811 576.6897,338.907 C575.3727,336.506 575.4087,336.493 577.6047,334.828 C577.9107,334.596 578.1717,334.304 578.8097,333.706 C577.8317,333.09 576.9637,332.543 576.1087,332.004 C577.1067,330.177 578.4607,329.559 579.8537,329.023 C582.4557,328.021 583.2257,326.517 582.1007,324.028 C581.5937,322.907 580.7047,321.936 579.8857,320.986 C579.4267,320.455 578.7387,320.126 578.1807,319.673 C576.0407,317.935 575.9667,317.421 578.1317,315.652 C582.3297,312.221 584.1217,307.873 584.2267,302.458 C584.3347,296.933 583.1917,291.671 581.9537,286.383 C581.7567,285.541 581.1427,284.506 582.2247,284.086 C582.8837,283.83 583.8947,284.197 584.6397,284.528 C585.2677,284.807 585.7917,285.389 586.2707,285.919 C592.1737,292.441 597.7967,299.143 602.1577,306.874 C604.6827,311.351 607.3587,315.701 608.2637,320.828 C609.0097,325.061 609.9307,329.267 609.7527,333.641 C609.6357,336.494 610.1097,339.366 610.1617,342.233 C610.2007,344.379 610.0837,346.438 607.9967,347.977 C606.4987,349.083 605.6157,351.029 604.1067,352.111 C602.2627,353.432 600.1447,354.563 597.9747,355.189 C595.3987,355.933 592.6527,356.192 589.9597,356.411 C585.3507,356.787 580.7067,357.257 576.1237,356.243 C570.8967,355.085 565.6607,353.873 561.6207,349.951 C561.2917,349.632 561.0247,349.249 560.4907,348.611" id="Fill-1" stroke="none" fill="#000000" fill-rule="evenodd"></path>
    <path d="M592.9334,313.1039 C592.9514,311.6249 591.9364,310.6869 590.3244,310.6879 C589.2524,310.6889 588.7234,311.2729 588.6714,312.2929 C588.5934,313.8099 590.0084,315.5999 591.2004,315.5399 C592.2474,315.4859 592.9154,314.5469 592.9334,313.1039 M577.5914,336.6339 C578.8104,335.8019 579.8354,335.1029 581.0604,334.2659 C580.4874,333.5869 580.1144,333.1089 579.7034,332.6659 C578.4954,331.3629 578.5664,330.9489 580.1454,330.3129 C580.6634,330.1039 581.2124,329.9609 581.7034,329.7039 C583.8994,328.5549 584.7754,326.3519 583.8744,324.0329 C583.1504,322.1679 582.2624,320.3929 580.5044,319.2129 C579.8594,318.7799 579.3334,318.1689 578.6184,317.5149 C579.5794,316.5149 580.3764,315.6429 581.2174,314.8169 C584.2274,311.8669 585.5524,308.2849 585.7594,304.0829 C586.0224,298.7619 585.5114,293.5779 584.0224,288.4749 C583.9174,288.1149 583.9364,287.7179 583.8484,286.8639 C584.6544,287.3409 585.2284,287.5369 585.6034,287.9239 C589.4894,291.9449 593.3474,295.9959 596.3114,300.7829 C598.8334,304.8569 601.4794,308.8639 603.7944,313.0529 C606.6574,318.2319 607.9024,323.9259 608.1114,329.8139 C608.2504,333.7239 608.1894,337.6419 608.1714,341.5549 C608.1674,342.4219 608.1764,343.3899 607.8174,344.1369 C605.9864,347.9489 603.6694,351.3449 599.4304,352.8699 C596.3304,353.9849 593.1604,354.6939 589.8474,354.7739 C587.9354,354.8209 586.0294,355.1299 584.1184,355.1729 C577.8754,355.3149 571.9384,353.8939 566.2494,351.4109 C565.3784,351.0309 564.6804,350.2569 563.5174,349.3739 C564.9774,348.7599 565.8904,348.2969 566.8514,347.9869 C569.7054,347.0669 572.2494,345.6199 574.5644,343.7269 C575.1754,343.2279 575.8644,342.8049 576.5634,342.4339 C578.9244,341.1789 579.2214,340.2859 578.0214,337.9249 C577.8484,337.5849 577.7744,337.1939 577.5914,336.6339" id="Fill-3" stroke="none" fill="#FFD716" fill-rule="evenodd" class="icon__moon"></path>
    <path d="M592.9334,313.1039 C592.9154,314.5469 592.2474,315.4859 591.2004,315.5399 C590.0084,315.5999 588.5934,313.8099 588.6714,312.2929 C588.7234,311.2729 589.2524,310.6889 590.3244,310.6879 C591.9364,310.6869 592.9514,311.6249 592.9334,313.1039" id="Fill-5" stroke="none" fill="#000000" fill-rule="evenodd"></path>
</svg>
