<svg width="94px" height="65px" viewBox="547 113 94 65" version="1.1" xmlns="http://www.w3.org/2000/svg" xmlns:xlink="http://www.w3.org/1999/xlink">
    <defs></defs>
    <path d="M614.597738,167.99686 C616.133738,167.82786 618.507738,167.88486 620.684738,167.25686 C624.637738,166.11586 628.215738,164.03286 631.203738,161.21286 C633.565738,158.98286 635.875738,156.59886 637.084738,153.44486 C639.386738,147.43686 639.699738,141.35386 637.979738,135.12586 C637.095738,131.92186 635.339738,129.27086 633.001738,127.08386 C631.784738,125.94486 630.050738,125.25086 628.437738,124.66386 C625.015738,123.41786 621.396738,123.55186 617.811738,123.31086 C613.444738,123.01786 609.115738,122.17386 604.763738,121.63186 C601.628738,121.24086 598.642738,120.40786 595.925738,118.78886 C591.020738,115.86586 585.717738,114.88486 580.062738,115.11086 C577.366738,115.21886 574.653738,114.85486 571.946738,114.73086 C571.156738,114.69486 570.250738,114.50186 569.590738,114.80286 C567.455738,115.77986 565.395738,116.92586 563.332738,118.05586 C560.030738,119.86586 557.977738,122.86786 556.388738,126.08686 C554.948738,129.00586 555.533738,132.16786 556.307738,135.24686 C556.714738,136.86386 557.139738,138.52486 557.177738,140.17486 C557.240738,142.89786 556.365738,145.25386 554.086738,147.08986 C550.083738,150.31586 547.462738,154.23186 548.917738,159.73686 C549.817738,163.14286 551.840738,165.77286 555.279738,166.55486 C558.348738,167.25286 560.439738,168.77986 562.066738,171.35486 C563.682738,173.91286 566.065738,175.57086 569.119738,175.78886 C571.657738,175.97086 574.228738,175.84786 576.776738,175.70686 C579.554738,175.55286 582.344738,174.88386 585.092738,175.05186 C589.131738,175.30086 592.432738,173.94686 595.488738,171.56486 C596.056738,171.12286 596.616738,170.66086 597.231738,170.29386 C600.203738,168.51586 603.229738,166.94386 606.890738,167.35986 C609.188738,167.62186 611.502738,167.74686 614.597738,167.99686 M613.545738,169.58486 C611.157738,169.39986 608.770738,169.17686 606.378738,169.03986 C603.376738,168.86786 600.519738,169.75286 598.319738,171.60786 C593.423738,175.73386 587.963738,177.27286 581.654738,176.68186 C579.557738,176.48586 577.388738,177.22886 575.241738,177.35086 C573.181738,177.46686 571.093738,177.47886 569.041738,177.27986 C565.368738,176.92486 562.660738,174.93286 560.727738,171.84286 C559.573738,169.99686 558.059738,168.64886 555.832738,168.32786 C548.205738,167.22586 543.368738,155.39286 550.444738,148.50586 C551.303738,147.66986 552.155738,146.82186 553.058738,146.03486 C555.551738,143.86386 556.234738,141.14586 555.533738,138.00986 C555.237738,136.68386 554.925738,135.35586 554.514738,134.06286 C552.673738,128.26586 556.069738,121.18886 560.957738,118.01286 C562.831738,116.79586 564.644738,115.48286 566.461738,114.18186 C567.831738,113.20086 569.318738,112.89986 570.991738,113.02786 C573.933738,113.25286 576.895738,113.59286 579.829738,113.45686 C586.269738,113.15786 592.126738,114.79286 597.715738,117.88886 C599.353738,118.79686 601.278738,119.30486 603.135738,119.67386 C606.736738,120.38986 610.373738,120.94086 614.012738,121.42986 C615.817738,121.67286 617.661738,121.70186 619.487738,121.69586 C623.534738,121.68086 627.470738,122.39686 631.159738,123.95686 C635.318738,125.71486 637.806738,129.28486 639.187738,133.36786 C640.884738,138.38686 641.446738,143.51786 640.289738,148.92486 C638.454738,157.50886 633.119738,163.02286 625.757738,166.90586 C620.390738,169.73686 619.615738,169.72586 613.545738,169.58486" id="Fill-7" stroke="none" fill="#000000" fill-rule="evenodd"></path>
    <path d="M587.058025,158.810876 C592.406025,158.473876 597.268025,157.353876 601.611025,154.562876 C605.016025,152.373876 606.759025,149.096876 606.775025,145.122876 C606.784025,143.006876 606.274025,140.832876 605.668025,138.782876 C604.617025,135.224876 602.159025,132.818876 598.519025,132.108876 C595.488025,131.516876 592.312025,130.970876 589.276025,131.244876 C583.905025,131.730876 578.742025,133.012876 575.940025,138.556876 C573.832025,142.726876 573.041025,146.908876 575.468025,151.106876 C578.072025,155.609876 581.733025,158.722876 587.058025,158.810876 M614.086025,168.360876 C610.991025,168.110876 608.677025,167.985876 606.379025,167.723876 C602.719025,167.306876 599.692025,168.879876 596.720025,170.656876 C596.106025,171.024876 595.545025,171.485876 594.978025,171.927876 C591.921025,174.309876 588.620025,175.663876 584.581025,175.415876 C581.834025,175.246876 579.044025,175.916876 576.265025,176.069876 C573.717025,176.210876 571.147025,176.334876 568.608025,176.152876 C565.554025,175.933876 563.171025,174.275876 561.555025,171.717876 C559.928025,169.143876 557.837025,167.616876 554.768025,166.918876 C551.329025,166.136876 549.306025,163.506876 548.406025,160.099876 C546.952025,154.594876 549.572025,150.678876 553.575025,147.453876 C555.854025,145.616876 556.729025,143.261876 556.666025,140.537876 C556.628025,138.887876 556.203025,137.226876 555.797025,135.609876 C555.022025,132.531876 554.437025,129.369876 555.878025,126.450876 C557.466025,123.230876 559.519025,120.229876 562.822025,118.419876 C564.884025,117.289876 566.944025,116.143876 569.079025,115.166876 C569.739025,114.864876 570.646025,115.057876 571.436025,115.093876 C574.142025,115.218876 576.856025,115.582876 579.551025,115.474876 C585.206025,115.247876 590.509025,116.229876 595.415025,119.152876 C598.131025,120.771876 601.117025,121.604876 604.252025,121.994876 C608.605025,122.536876 612.933025,123.380876 617.300025,123.674876 C620.885025,123.915876 624.504025,123.781876 627.926025,125.026876 C629.539025,125.613876 631.273025,126.308876 632.491025,127.447876 C634.829025,129.634876 636.584025,132.284876 637.469025,135.488876 C639.188025,141.717876 638.875025,147.800876 636.573025,153.807876 C635.364025,156.962876 633.054025,159.346876 630.692025,161.575876 C627.704025,164.396876 624.126025,166.479876 620.173025,167.620876 C617.997025,168.248876 615.622025,168.190876 614.086025,168.360876" id="Fill-9" stroke="none" fill="#FFFFFF" fill-rule="evenodd"></path>
    <path d="M591.001485,133.912787 C590.962485,134.159787 590.923485,134.407787 590.884485,134.654787 C587.876485,133.438787 585.034485,134.384787 582.137485,134.860787 C580.566485,135.117787 579.507485,135.883787 578.650485,137.111787 C575.783485,141.216787 574.458485,145.424787 577.048485,150.282787 C579.147485,154.218787 582.396485,156.489787 586.634485,156.776787 C591.415485,157.099787 595.986485,155.714787 600.062485,153.127787 C601.292485,152.346787 602.374485,151.198787 603.242485,150.012787 C605.339485,147.146787 605.315485,143.986787 604.397485,140.643787 C603.054485,135.749787 600.101485,132.949787 595.031485,132.447787 C593.313485,132.277787 591.546485,132.582787 589.802485,132.688787 C589.695485,132.695787 589.597485,132.867787 589.453485,133.002787 C589.979485,133.311787 590.490485,133.612787 591.001485,133.912787 M587.087485,158.638787 C581.762485,158.550787 578.100485,155.437787 575.497485,150.934787 C573.069485,146.736787 573.861485,142.554787 575.968485,138.384787 C578.771485,132.840787 583.933485,131.558787 589.304485,131.072787 C592.340485,130.798787 595.516485,131.344787 598.548485,131.936787 C602.188485,132.646787 604.646485,135.052787 605.697485,138.610787 C606.303485,140.660787 606.812485,142.834787 606.804485,144.950787 C606.788485,148.924787 605.045485,152.201787 601.639485,154.390787 C597.297485,157.181787 592.434485,158.301787 587.087485,158.638787" id="Fill-11" stroke="none" fill="#000000" fill-rule="evenodd"></path>
    <path d="M591.340287,133.5155 C590.829287,133.2155 590.318287,132.9145 589.792287,132.6055 C589.936287,132.4705 590.034287,132.2985 590.141287,132.2915 C591.885287,132.1855 593.652287,131.8805 595.370287,132.0505 C600.440287,132.5525 603.393287,135.3525 604.736287,140.2465 C605.654287,143.5895 605.678287,146.7495 603.581287,149.6155 C602.713287,150.8015 601.631287,151.9495 600.401287,152.7305 C596.325287,155.3175 591.754287,156.7025 586.973287,156.3795 C582.735287,156.0925 579.486287,153.8215 577.387287,149.8855 C574.797287,145.0275 576.122287,140.8195 578.989287,136.7145 C579.846287,135.4865 580.905287,134.7205 582.476287,134.4635 C585.373287,133.9875 588.215287,133.0415 591.223287,134.2575 C591.262287,134.0105 591.301287,133.7625 591.340287,133.5155" id="Fill-13" stroke="none" fill="#FFD716" fill-rule="evenodd" class="icon__color"></path>
</svg>
