<svg width="55px" height="45px" viewBox="175 484 55 45" version="1.1" xmlns="http://www.w3.org/2000/svg" xmlns:xlink="http://www.w3.org/1999/xlink">
    <defs></defs>
    <g id="Group" stroke="none" stroke-width="1" fill="none" fill-rule="evenodd" transform="translate(175.000000, 484.000000)">
        <path d="M42.3502,27.7734 C42.3052,27.1924 42.2892,25.9814 42.1042,24.7954 C41.5902,21.5134 40.3602,20.4674 36.9952,19.9894 C35.8342,19.8244 34.6802,19.3784 33.6052,18.8824 C31.2412,17.7934 28.9512,16.5464 26.5902,15.4514 C25.0492,14.7374 23.5512,14.7604 21.8582,15.4334 C19.6512,16.3104 17.2782,16.9014 14.9232,17.2304 C13.3062,17.4564 12.2872,18.1664 11.5232,19.4364 C10.4512,21.2164 9.2982,22.9664 8.4252,24.8424 C6.0152,30.0264 8.6742,37.5264 13.6152,39.4314 C19.9802,41.8844 26.3692,42.8814 33.1242,40.4934 C38.8182,38.4804 42.2122,34.4674 42.3502,27.7734 M22.1102,12.4484 C26.2122,12.1504 29.6042,13.9344 32.7872,16.1154 C34.3012,17.1534 35.7762,17.7654 37.6282,17.7714 C40.9112,17.7824 42.9732,19.2834 43.9562,22.4224 C46.7972,31.4974 43.4922,39.2194 33.8162,42.7764 C26.8462,45.3394 20.0672,44.3414 13.6032,41.8584 C6.0422,38.9534 2.7722,31.1694 6.5992,22.7704 C9.5712,16.2474 14.9282,12.8624 22.1102,12.4484" id="Fill-302" fill="#000000"></path>
        <path d="M42.9504,10.0779 C41.5294,9.1319 40.6594,8.1679 39.7064,8.0769 C39.2124,8.0299 38.1884,9.4859 38.0904,10.3419 C37.9534,11.5309 38.6534,12.9759 40.0964,12.6959 C40.9984,12.5209 41.6954,11.2859 42.9504,10.0779 M44.3404,10.1369 C44.4274,12.3119 42.2784,14.9709 40.3474,15.0769 C38.2274,15.1939 35.9144,12.8179 35.7354,10.3359 C35.5584,7.8919 37.7544,5.0159 39.9424,4.8269 C41.9044,4.6569 44.2344,7.4689 44.3404,10.1369" id="Fill-304" fill="#000000"></path>
        <path d="M7.1904,9.1146 C6.2524,9.4806 5.1774,9.6256 4.5274,10.2286 C3.8384,10.8676 3.0734,12.0326 3.2204,12.8006 C3.3794,13.6376 4.4444,14.6456 5.3094,14.8916 C5.9544,15.0756 7.1964,14.3706 7.6704,13.7046 C8.7394,12.2026 9.0064,10.5386 7.1904,9.1146 M10.4934,11.6126 C10.5054,14.4056 8.2844,17.1986 5.9904,17.2716 C3.6064,17.3486 0.7554,14.6416 0.7364,12.2846 C0.7144,9.6076 3.2664,7.1056 6.0164,7.1066 C8.8104,7.1076 10.4804,8.7886 10.4934,11.6126" id="Fill-306" fill="#000000"></path>
        <path d="M25.9203,2.3374 C25.0133,3.0714 24.1593,3.4924 23.7373,4.1794 C23.3033,4.8864 22.9753,5.9424 23.1873,6.6774 C23.3753,7.3274 24.3893,8.1784 25.0003,8.1494 C25.6563,8.1174 26.5403,7.2804 26.8423,6.5854 C27.4543,5.1724 27.5593,3.6594 25.9203,2.3374 M29.2223,5.1284 C29.2073,7.8444 27.9953,9.5904 25.9423,10.1384 C24.1483,10.6184 22.1763,9.6964 21.2593,7.9484 C20.2793,6.0804 20.6003,3.6454 22.2913,2.2714 C23.5733,1.2304 24.7773,-0.5556 26.8223,0.3934 C28.9053,1.3604 29.1983,3.3674 29.2223,5.1284" id="Fill-308" fill="#000000"></path>
        <path d="M50.5436,19.4284 C48.7436,20.9884 48.0546,22.5224 48.9616,24.4864 C49.5856,25.8384 50.9896,25.9414 51.6696,24.6204 C52.5966,22.8194 52.3566,21.1214 50.5436,19.4284 M54.4366,23.0034 C53.9396,24.0774 53.6266,25.1474 53.0096,25.9974 C52.0706,27.2884 50.7446,28.1444 49.0506,27.7864 C47.2096,27.3974 46.5546,25.7624 46.6956,24.2814 C46.8726,22.4114 47.3826,20.3974 48.3566,18.8204 C49.6076,16.7954 51.8196,17.1324 52.9856,19.3074 C53.5936,20.4394 53.9406,21.7124 54.4366,23.0034" id="Fill-310" fill="#000000"></path>
        <path d="M42.3502,27.7734 C42.2122,34.4674 38.8182,38.4804 33.1242,40.4934 C26.3692,42.8814 19.9802,41.8844 13.6152,39.4314 C8.6742,37.5264 6.0152,30.0264 8.4252,24.8424 C9.2982,22.9664 10.4512,21.2164 11.5232,19.4364 C12.2872,18.1664 13.3062,17.4564 14.9232,17.2304 C17.2782,16.9014 19.6512,16.3104 21.8582,15.4334 C23.5512,14.7604 25.0492,14.7374 26.5902,15.4514 C28.9512,16.5464 31.2412,17.7934 33.6052,18.8824 C34.6802,19.3784 35.8342,19.8244 36.9952,19.9894 C40.3602,20.4674 41.5902,21.5134 42.1042,24.7954 C42.2892,25.9814 42.3052,27.1924 42.3502,27.7734" id="Fill-312" fill="#3B82EE" class="icon__color"></path>
        <path d="M42.9504,10.0779 C41.6954,11.2859 40.9984,12.5209 40.0964,12.6959 C38.6534,12.9759 37.9534,11.5309 38.0904,10.3419 C38.1884,9.4859 39.2124,8.0299 39.7064,8.0769 C40.6594,8.1679 41.5294,9.1319 42.9504,10.0779" id="Fill-314" fill="#3B82EE" class="icon__color"></path>
        <path d="M7.1904,9.1146 C9.0064,10.5386 8.7394,12.2026 7.6704,13.7046 C7.1964,14.3706 5.9544,15.0756 5.3094,14.8916 C4.4444,14.6456 3.3794,13.6376 3.2204,12.8006 C3.0734,12.0326 3.8384,10.8676 4.5274,10.2286 C5.1774,9.6256 6.2524,9.4806 7.1904,9.1146" id="Fill-316" fill="#3B82EE" class="icon__color"></path>
        <path d="M25.9203,2.3374 C27.5593,3.6594 27.4543,5.1724 26.8423,6.5854 C26.5403,7.2804 25.6563,8.1174 25.0003,8.1494 C24.3893,8.1784 23.3753,7.3274 23.1873,6.6774 C22.9753,5.9424 23.3033,4.8864 23.7373,4.1794 C24.1593,3.4924 25.0133,3.0714 25.9203,2.3374" id="Fill-318" fill="#3B82EE" class="icon__color"></path>
        <path d="M50.5436,19.4284 C52.3566,21.1214 52.5966,22.8194 51.6696,24.6204 C50.9896,25.9414 49.5856,25.8384 48.9616,24.4864 C48.0546,22.5224 48.7436,20.9884 50.5436,19.4284" id="Fill-320" fill="#3B82EE" class="icon__color"></path>
    </g>
</svg>
