<svg width="52px" height="44px" viewBox="275 497 52 44" version="1.1" xmlns="http://www.w3.org/2000/svg" xmlns:xlink="http://www.w3.org/1999/xlink">
    <defs></defs>
    <g id="Group" stroke="none" stroke-width="1" fill="none" fill-rule="evenodd" transform="translate(275.000000, 497.000000)">
        <path d="M5.7846,4.2992 C5.8716,5.1392 5.8266,5.6322 5.9826,6.0512 C6.7546,8.1172 7.5206,10.1882 8.3996,12.2092 C9.6726,15.1312 11.7996,17.2602 14.8966,18.4732 C12.4706,20.0512 12.3116,20.0012 11.3666,23.0462 C10.8196,24.8092 10.8166,26.7572 10.6986,28.6302 C10.6396,29.5552 10.5786,30.7092 11.0546,31.3772 C11.5536,32.0792 12.6946,32.3242 13.6856,32.8372 C12.8506,34.1562 13.6896,34.9362 14.8206,35.7862 C18.2586,38.3712 22.2676,39.7772 26.1636,41.4012 C27.3146,41.8812 28.6446,42.1612 29.8896,42.1492 C35.9366,42.0922 41.0856,39.8762 45.2216,35.4112 C45.9016,34.6762 46.3406,33.9802 45.8586,32.8502 C45.6376,32.3312 46.0866,31.5272 46.2646,30.7032 C46.9376,31.1782 47.2646,31.4082 47.7876,31.7772 C48.6366,28.3772 49.1176,25.3372 47.2406,22.3542 C44.8606,23.1192 43.8486,26.1012 40.4696,25.5592 C42.1886,23.9742 43.5446,22.7802 44.8266,21.5112 C45.2516,21.0912 45.7806,20.4662 45.7566,19.9582 C45.6786,18.2902 45.5676,16.5772 45.1096,14.9842 C44.0186,11.1932 42.2096,7.7222 39.8566,4.5442 C39.2936,3.7832 38.7606,3.0002 38.0706,2.0242 C36.7116,3.3052 35.8156,4.0692 35.0166,4.9232 C34.0356,5.9732 33.2106,7.1762 32.1836,8.1752 C30.4226,9.8862 27.9676,9.9792 25.9566,8.5622 C25.7076,8.3872 25.4166,8.2702 25.1836,8.1472 C24.5606,8.8372 24.0516,9.8922 23.4296,9.9642 C22.6426,10.0552 21.7626,9.3462 20.8536,8.9522 C20.3916,9.6042 19.9936,10.1672 19.5446,10.8022 C15.1496,8.2792 11.1776,5.0752 5.7846,4.2992 M3.4976,2.3102 C9.2136,2.4572 13.4056,5.7452 18.2346,7.8282 C18.6636,7.0032 19.1216,6.1252 19.7656,4.8892 C20.6966,5.7122 21.4696,6.3962 22.3116,7.1412 C22.4456,7.0552 22.7036,6.9822 22.7946,6.8172 C23.8176,4.9552 24.1096,4.8642 25.8106,6.1102 C26.6956,6.7592 27.4156,7.1712 28.7416,7.1202 C30.7336,7.0422 31.7476,6.0562 32.8486,4.7752 C33.8886,3.5652 34.9476,2.3522 36.1376,1.2972 C37.8166,-0.1908 38.4856,-0.1448 39.8046,1.7282 C41.4576,4.0752 43.0346,6.4932 44.4246,9.0022 C45.9266,11.7142 47.4526,14.4792 47.2056,17.7772 C47.1886,18.0002 47.3006,18.2452 47.3976,18.4592 C47.4586,18.5962 47.6016,18.6962 47.7096,18.8112 C48.7756,19.4332 50.2436,17.2912 51.2436,19.3422 C50.4356,19.8242 49.7116,20.2572 49.1336,20.6022 C49.7276,23.6082 50.3256,26.4602 50.8286,29.3282 C50.9406,29.9712 50.9436,30.8262 50.6096,31.3242 C47.8786,35.4012 44.7956,39.1082 40.2936,41.4382 C34.0456,44.6722 27.8406,44.5892 21.6896,41.3832 C18.7296,39.8402 15.9316,37.9842 13.0606,36.2702 C12.6526,36.0272 12.2446,35.7842 11.7856,35.5102 C10.4766,36.3872 9.1996,37.2422 7.6346,38.2912 C7.4036,35.7812 9.6406,35.3702 10.2766,33.7762 C9.7556,32.6362 9.2006,31.4252 8.6146,30.1422 C5.5766,30.4032 3.4466,33.2942 0.4016,33.0322 C0.3086,32.8202 0.2146,32.6082 0.1206,32.3952 C1.3096,31.6822 2.4896,30.9532 3.6896,30.2602 C4.5896,29.7402 5.4806,29.1842 6.4356,28.7882 C8.0856,28.1052 8.8446,26.9492 9.1306,25.1742 C9.3806,23.6252 10.1756,22.1722 10.5746,20.6362 C10.7306,20.0352 10.6906,19.1602 10.3526,18.6862 C7.5446,14.7472 5.5406,10.4482 4.2906,5.7882 C4.0086,4.7402 3.8056,3.6722 3.4976,2.3102" id="Fill-1" fill="#000000"></path>
        <path d="M21.4058,4.3353 C21.4688,4.3113 21.5388,4.2603 21.5938,4.2723 C21.6428,4.2843 21.6748,4.3663 21.7148,4.4183 C21.6158,4.4553 21.5168,4.4933 21.4178,4.5313 C21.4138,4.4653 21.4098,4.4003 21.4058,4.3353" id="Fill-3" fill="#000000"></path>
        <path d="M27.9701,5.5568 C27.9251,5.6078 27.8481,5.7058 27.8391,5.7008 C27.7381,5.6338 27.6441,5.5548 27.5601,5.4678 C27.5531,5.4608 27.6391,5.3648 27.6831,5.3108 C27.7781,5.3928 27.8741,5.4748 27.9701,5.5568" id="Fill-5" fill="#000000"></path>
        <path d="M32.2449,19.4891 C32.4169,18.4121 32.5609,17.5131 32.7159,16.5491 C31.4469,16.0821 30.7159,16.5141 30.4699,17.6331 C30.2219,18.7591 30.6829,19.4671 32.2449,19.4891 M21.5249,18.3961 C21.4929,17.1521 20.7329,16.3161 19.8029,16.3561 C18.7379,16.4011 17.7459,17.4031 17.9079,18.3791 C18.0779,19.4011 18.6329,20.2321 19.7799,20.1541 C20.8609,20.0811 21.4309,19.3271 21.5249,18.3961 M27.9429,28.1901 C30.9499,28.3021 32.8109,27.3081 34.4019,24.5271 C34.8829,23.6861 35.4099,22.6051 34.4189,21.9541 C33.8589,21.5861 32.8329,21.8781 32.0259,21.9601 C31.7419,21.9891 31.4359,22.2331 31.2249,22.4591 C30.1389,23.6211 28.9529,24.1491 27.4289,23.2601 C27.1709,23.1101 26.8119,23.1031 26.4969,23.0851 C25.1179,23.0101 23.7829,24.0791 23.5889,25.3941 C23.3989,26.6851 24.4659,27.8751 26.0269,28.0761 C26.5789,28.1471 27.1409,28.1451 27.9429,28.1901 M5.7849,4.2991 C11.1779,5.0751 15.1489,8.2791 19.5439,10.8021 C19.9939,10.1671 20.3909,9.6041 20.8529,8.9521 C21.7629,9.3461 22.6419,10.0551 23.4289,9.9641 C24.0519,9.8921 24.5599,8.8371 25.1839,8.1471 C25.4159,8.2711 25.7069,8.3871 25.9559,8.5631 C27.9669,9.9791 30.4219,9.8861 32.1829,8.1751 C33.2099,7.1761 34.0349,5.9731 35.0169,4.9241 C35.8159,4.0691 36.7119,3.3051 38.0709,2.0241 C38.7609,3.0001 39.2939,3.7831 39.8569,4.5441 C42.2099,7.7221 44.0189,11.1931 45.1099,14.9841 C45.5679,16.5771 45.6789,18.2911 45.7569,19.9581 C45.7799,20.4661 45.2519,21.0911 44.8269,21.5111 C43.5439,22.7801 42.1889,23.9741 40.4699,25.5591 C43.8489,26.1011 44.8609,23.1191 47.2399,22.3551 C49.1179,25.3371 48.6369,28.3771 47.7879,31.7781 C47.2639,31.4081 46.9369,31.1781 46.2639,30.7031 C46.0869,31.5271 45.6379,32.3311 45.8589,32.8501 C46.3409,33.9801 45.9019,34.6761 45.2209,35.4111 C41.0859,39.8761 35.9369,42.0921 29.8889,42.1491 C28.6449,42.1611 27.3149,41.8811 26.1639,41.4011 C22.2669,39.7771 18.2589,38.3711 14.8209,35.7861 C13.6899,34.9361 12.8509,34.1561 13.6849,32.8371 C12.6939,32.3241 11.5539,32.0791 11.0539,31.3771 C10.5789,30.7091 10.6399,29.5561 10.6979,28.6301 C10.8169,26.7571 10.8199,24.8091 11.3669,23.0461 C12.3109,20.0021 12.4699,20.0511 14.8969,18.4731 C11.7989,17.2611 9.6719,15.1311 8.3999,12.2091 C7.5199,10.1881 6.7539,8.1171 5.9829,6.0511 C5.8259,5.6331 5.8719,5.1391 5.7849,4.2991" id="Fill-7" fill="#3B82EE" class="icon__color"></path>
        <path d="M27.943,28.1898 C27.141,28.1448 26.579,28.1478 26.027,28.0758 C24.465,27.8748 23.399,26.6848 23.589,25.3938 C23.783,24.0798 25.118,23.0098 26.497,23.0858 C26.812,23.1028 27.171,23.1098 27.428,23.2608 C28.953,24.1488 30.139,23.6208 31.225,22.4588 C31.436,22.2328 31.742,21.9888 32.025,21.9598 C32.833,21.8778 33.859,21.5858 34.419,21.9538 C35.41,22.6048 34.883,23.6868 34.402,24.5268 C32.811,27.3078 30.95,28.3028 27.943,28.1898" id="Fill-9" fill="#000000"></path>
        <path d="M21.5248,18.396 C21.4308,19.327 20.8608,20.081 19.7798,20.154 C18.6328,20.232 18.0778,19.401 17.9078,18.379 C17.7458,17.403 18.7378,16.401 19.8028,16.356 C20.7328,16.317 21.4938,17.152 21.5248,18.396" id="Fill-11" fill="#000000"></path>
        <path d="M32.2449,19.4891 C30.6829,19.4671 30.2219,18.7591 30.4699,17.6331 C30.7159,16.5141 31.4469,16.0821 32.7159,16.5491 C32.5609,17.5131 32.4169,18.4121 32.2449,19.4891" id="Fill-13" fill="#000000"></path>
    </g>
</svg>
