<svg width="95px" height="78px" viewBox="564 448 95 78" version="1.1" xmlns="http://www.w3.org/2000/svg" xmlns:xlink="http://www.w3.org/1999/xlink">
    <defs></defs>
    <g id="Group" stroke="none" stroke-width="1" fill="none" fill-rule="evenodd" transform="translate(564.000000, 448.000000)">
        <path d="M74.9689,27.6706 L74.8689,27.5316 L74.8069,27.6656 L74.9689,27.6706 Z M40.2859,44.7256 C43.8269,44.7236 48.3999,43.7326 50.6499,42.5406 C57.9439,38.6766 62.5169,32.9766 62.8689,24.4156 C63.0729,19.4456 61.5789,15.2406 57.3249,12.3826 C55.7469,11.3226 54.0129,10.4216 52.2379,9.7406 C46.6879,7.6116 41.0559,5.9446 34.9589,6.9186 C32.2089,7.3576 29.7859,8.7346 28.0499,10.4936 C24.6889,13.9016 22.9219,18.3526 23.3719,23.2376 C23.9009,28.9796 25.8029,34.2816 29.4399,38.8976 C32.3879,42.6386 35.9999,44.9066 40.2859,44.7256 L40.2859,44.7256 Z M80.1659,38.2606 C79.6759,40.4976 79.6259,42.5096 78.7879,44.1076 C77.6939,46.1946 76.1239,48.0936 74.4879,49.8166 C72.7129,51.6856 70.0379,51.5456 68.3619,49.5266 C67.1559,48.0736 66.2159,46.3596 65.3729,44.6556 C64.2279,42.3376 63.7469,39.8386 63.7749,37.2236 C63.7809,36.6466 63.3029,35.7456 62.8339,35.5726 C62.3559,35.3956 61.6009,35.9036 60.9949,36.1726 C60.8049,36.2576 60.7189,36.5556 60.5599,36.7336 C54.5769,43.4656 47.3159,47.0986 38.1009,45.9846 C37.9419,45.9656 37.7829,45.9386 37.6239,45.9346 C35.9739,45.8986 35.5579,46.4286 35.8609,48.0546 C35.9589,48.5806 35.8319,49.1456 35.9069,49.6776 C36.1139,51.1386 36.2399,52.6306 36.6459,54.0386 C37.1619,55.8246 37.7259,57.5156 36.6839,59.3176 C36.3409,59.9126 36.3399,60.6956 36.1069,61.3666 C35.6399,62.7126 35.1919,64.0726 34.6049,65.3676 C33.9129,66.8926 33.0449,68.3356 32.3249,69.8476 C31.8039,70.9436 31.7899,72.2166 32.7589,72.9376 C33.7969,73.7106 35.1579,74.5656 36.3469,74.5216 C39.8459,74.3926 43.4329,74.0716 45.2009,70.1936 C45.5269,69.4766 46.1319,68.8916 46.5119,68.1936 C47.2439,66.8506 48.2969,66.2736 49.8429,66.3866 C52.5469,66.5856 55.2629,66.6316 57.9649,66.8516 C59.4679,66.9736 60.9459,67.3836 62.4479,67.5486 C64.8949,67.8176 67.3509,68.0016 69.8049,68.2026 C70.8609,68.2886 72.4359,67.9146 72.8749,68.4666 C73.9129,69.7716 72.2959,70.7046 71.6599,71.7126 C70.3359,73.8146 70.7439,75.4586 73.2059,76.0146 C74.8479,76.3846 76.6669,76.1276 78.3869,75.9526 C80.2859,75.7606 81.6319,74.6346 82.3179,72.8526 C83.1489,70.6946 84.0359,68.5426 84.6489,66.3186 C86.7059,58.8506 88.4819,51.3176 89.7309,43.6616 C89.9799,42.1346 90.7859,40.6866 91.4149,39.2356 C91.8569,38.2136 92.5339,37.2876 92.9239,36.2496 C93.3919,35.0046 92.8209,33.4826 91.8059,32.8496 C90.5609,32.0746 89.5909,32.8176 88.8599,33.6366 C88.0799,34.5096 87.4569,35.5646 86.9479,36.6276 C85.9339,38.7456 85.8559,38.8596 83.5299,38.6476 C82.3549,38.5406 81.1859,38.3796 80.1659,38.2606 L80.1659,38.2606 Z M23.1359,6.8806 C23.1709,6.9356 23.2059,6.9906 23.2399,7.0466 C23.1999,6.9966 23.1589,6.9456 23.1179,6.8956 C23.0689,6.8366 23.0189,6.7776 22.9699,6.7186 C23.0259,6.7726 23.0809,6.8266 23.1359,6.8806 L23.1359,6.8806 Z M29.2639,7.4686 C29.5539,7.3766 29.8879,7.3356 30.1509,7.1766 C34.1749,4.7406 38.5309,4.8706 42.9299,5.5786 C48.0119,6.3956 52.8829,7.8966 57.4429,10.5606 C58.3569,9.1916 59.1149,7.9006 60.0369,6.7406 C60.4929,6.1656 61.2019,5.5566 61.8809,5.4366 C64.3939,4.9896 66.9479,4.7726 69.4759,4.3976 C70.4239,4.2566 71.1679,4.3536 71.8349,5.1246 C72.1829,5.5276 72.7169,5.8286 73.2259,6.0236 C78.1679,7.9156 80.5249,12.0026 82.2189,16.6236 C82.7119,17.9696 82.9979,19.3916 83.3619,20.7836 C84.1749,23.8956 83.5419,26.7926 82.0419,29.5606 C81.4789,30.5996 80.5419,30.9286 79.4459,30.9806 C75.9339,31.1476 72.7899,28.7156 71.9999,25.2196 C71.1729,21.5586 68.2309,19.6686 64.2989,20.4296 C64.9039,24.9026 64.0249,29.2456 62.5549,33.7666 C63.4829,34.0686 64.2689,34.3956 65.0859,34.5786 C67.5809,35.1366 70.0879,35.6446 72.5919,36.1636 C75.1319,36.6896 75.1329,36.6846 76.9219,35.6586 C79.1529,36.1576 81.0479,36.5946 82.9479,37.0026 C84.1379,37.2576 84.8639,36.7306 85.4519,35.6776 C86.1449,34.4366 86.8919,33.1636 87.8779,32.1626 C89.3739,30.6456 91.0299,30.4786 92.4409,31.3556 C94.0759,32.3726 94.9369,34.2496 94.5819,36.0726 C94.5059,36.4626 94.4519,36.9086 94.2279,37.2096 C91.2119,41.2636 91.1829,46.2006 90.1529,50.8416 C89.2879,54.7416 88.5089,58.6666 87.4609,62.5176 C86.4779,66.1286 85.2299,69.6696 84.0279,73.2176 C83.1449,75.8216 81.1869,77.1776 78.5229,77.5876 C77.6549,77.7206 76.7849,77.8776 75.9099,77.9356 C70.9059,78.2716 68.2699,74.8656 69.9329,70.2406 C69.8329,70.1276 69.7439,69.9306 69.6299,69.9146 C65.5289,69.3426 61.4309,68.7396 57.3199,68.2526 C55.2619,68.0086 53.1749,68.0156 51.1059,67.8486 C48.7379,67.6566 47.2099,68.8266 46.5699,70.9366 C45.7949,73.4896 43.9929,74.7526 41.6349,75.3136 C39.8659,75.7346 38.0029,76.1006 36.2079,76.0036 C31.4359,75.7436 29.5399,72.1776 31.6469,67.9356 C32.8099,65.5956 34.6089,63.5266 34.8359,60.7676 C34.9219,59.7336 35.1539,58.6886 35.0739,57.6676 C34.7829,53.9256 34.4719,50.1806 33.9729,46.4636 C33.8519,45.5626 33.1619,44.5326 32.4259,43.9546 C27.1519,39.8076 24.1499,34.3156 22.6549,27.9006 C22.2929,26.3456 22.0439,24.7626 21.7829,23.1856 C21.2939,20.2286 19.3539,18.8576 16.5669,19.9346 C14.7509,20.6356 13.1659,21.9356 11.4849,22.9796 C10.2819,23.7286 9.1409,24.5976 7.8819,25.2336 C6.3849,25.9906 4.9299,25.5626 3.5749,24.6856 C0.1269,22.4526 -0.8441,17.6436 1.7249,14.4886 C3.3279,12.5196 5.2529,10.8106 7.0619,9.0126 C8.0779,8.0026 9.2359,7.1246 10.1829,6.0566 C12.1879,3.7976 14.6279,2.2076 17.3099,0.8786 C19.8529,-0.3814 22.1739,-0.1414 24.1579,1.7856 C25.9189,3.4956 27.4559,5.4366 29.2639,7.4686 L29.2639,7.4686 Z" id="Fill-246" fill="#000000"></path>
        <path d="M80.1658,38.2601 C81.1858,38.3791 82.3548,38.5401 83.5298,38.6471 C85.8558,38.8591 85.9338,38.7451 86.9478,36.6271 C87.4568,35.5641 88.0798,34.5091 88.8598,33.6361 C89.5908,32.8181 90.5618,32.0741 91.8058,32.8501 C92.8208,33.4831 93.3918,35.0051 92.9238,36.2491 C92.5338,37.2871 91.8568,38.2141 91.4148,39.2361 C90.7858,40.6861 89.9798,42.1341 89.7308,43.6611 C88.4818,51.3181 86.7058,58.8501 84.6488,66.3181 C84.0358,68.5421 83.1488,70.6941 82.3178,72.8531 C81.6318,74.6341 80.2858,75.7601 78.3868,75.9531 C76.6678,76.1271 74.8478,76.3851 73.2058,76.0141 C70.7438,75.4591 70.3358,73.8151 71.6608,71.7131 C72.2958,70.7041 73.9128,69.7711 72.8748,68.4661 C72.4358,67.9151 70.8608,68.2881 69.8048,68.2021 C67.3508,68.0021 64.8948,67.8181 62.4478,67.5491 C60.9458,67.3841 59.4678,66.9741 57.9648,66.8511 C55.2628,66.6311 52.5468,66.5861 49.8428,66.3871 C48.2968,66.2731 47.2438,66.8511 46.5118,68.1931 C46.1318,68.8911 45.5268,69.4761 45.2008,70.1931 C43.4328,74.0721 39.8458,74.3921 36.3468,74.5211 C35.1578,74.5651 33.7968,73.7101 32.7588,72.9371 C31.7908,72.2161 31.8038,70.9431 32.3258,69.8481 C33.0458,68.3351 33.9138,66.8921 34.6048,65.3681 C35.1918,64.0731 35.6398,62.7131 36.1068,61.3661 C36.3398,60.6961 36.3408,59.9131 36.6838,59.3181 C37.7258,57.5151 37.1618,55.8241 36.6458,54.0381 C36.2398,52.6301 36.1138,51.1391 35.9068,49.6781 C35.8318,49.1451 35.9588,48.5801 35.8608,48.0541 C35.5578,46.4281 35.9738,45.8981 37.6238,45.9351 C37.7828,45.9381 37.9418,45.9651 38.1008,45.9841 C47.3158,47.0981 54.5768,43.4651 60.5598,36.7341 C60.7188,36.5551 60.8048,36.2571 60.9948,36.1731 C61.6008,35.9031 62.3558,35.3961 62.8338,35.5721 C63.3028,35.7451 63.7808,36.6471 63.7748,37.2241 C63.7468,39.8381 64.2278,42.3381 65.3738,44.6551 C66.2158,46.3591 67.1558,48.0731 68.3618,49.5261 C70.0378,51.5461 72.7128,51.6851 74.4878,49.8161 C76.1238,48.0931 77.6938,46.1941 78.7878,44.1081 C79.6258,42.5091 79.6758,40.4981 80.1658,38.2601" id="Fill-248" fill="#3B82EE" class="icon__color"></path>
        <path d="M51.6455,21.2038 C52.9125,21.2958 54.1825,20.4048 54.2985,19.3428 C54.4285,18.1508 53.1715,16.7588 51.8215,16.6008 C50.5165,16.4468 49.2185,17.2878 49.1315,18.3428 C49.0085,19.8378 50.1105,21.0918 51.6455,21.2038 M32.1875,21.1878 C32.2315,21.1018 32.2755,21.0158 32.3195,20.9298 C32.6385,20.9298 32.9595,20.9498 33.2765,20.9258 C34.2635,20.8498 35.4185,20.6998 35.4695,19.5348 C35.5105,18.5908 35.1935,17.4168 34.5905,16.7418 C34.2485,16.3578 33.0025,16.7118 32.1845,16.8518 C31.8275,16.9138 31.5045,17.2518 31.1955,17.5018 C30.3455,18.1868 29.5715,19.1068 30.0855,20.1398 C30.3635,20.6998 31.4605,20.8518 32.1875,21.1878 M49.9055,28.5888 C50.0105,26.2458 47.6945,24.3298 45.5385,22.2658 C43.9755,20.7698 42.4035,21.7128 40.8075,21.9818 C40.1775,22.0888 39.5305,22.1228 38.9125,22.2748 C34.6805,23.3188 32.4695,25.8578 31.7675,30.3068 C31.1305,34.3428 33.7415,37.4018 38.3765,38.6068 C44.4315,40.1808 49.9975,35.8498 49.9055,28.5888 M40.2855,44.7258 C36.0005,44.9058 32.3875,42.6388 29.4405,38.8978 C25.8035,34.2808 23.9005,28.9788 23.3715,23.2378 C22.9215,18.3528 24.6885,13.9008 28.0505,10.4938 C29.7855,8.7348 32.2095,7.3578 34.9585,6.9178 C41.0565,5.9448 46.6885,7.6108 52.2385,9.7408 C54.0135,10.4208 55.7465,11.3228 57.3245,12.3828 C61.5795,15.2398 63.0725,19.4448 62.8685,24.4158 C62.5175,32.9768 57.9435,38.6768 50.6505,42.5408 C48.4005,43.7328 43.8275,44.7238 40.2855,44.7258" id="Fill-250" fill="#3B82EE" class="icon__color"></path>
        <polygon id="Fill-252" fill="#FFFFFF" points="74.9689 27.6706 74.8069 27.6656 74.8689 27.5316"></polygon>
        <path d="M23.1364,6.88 C23.0804,6.826 23.0254,6.772 22.9704,6.718 C23.0194,6.777 23.0684,6.837 23.1184,6.896 L23.1364,6.88 Z" id="Fill-254" fill="#FFFFFF"></path>
        <path d="M23.1182,6.8958 C23.1592,6.9458 23.1992,6.9958 23.2402,7.0458 C23.2062,6.9908 23.1712,6.9358 23.1362,6.8798 L23.1182,6.8958 Z" id="Fill-256" fill="#FFFFFF"></path>
        <path d="M47.4477,31.446 C47.4377,31.376 47.4287,31.307 47.4187,31.237 C47.3517,31.31 47.2707,31.375 47.2247,31.459 C47.2117,31.483 47.2977,31.561 47.3377,31.614 C47.3747,31.558 47.4107,31.502 47.4477,31.446 M45.1617,25.123 C45.0637,25.058 44.9647,24.993 44.8657,24.928 C44.8417,24.986 44.7847,25.081 44.7997,25.095 C44.8867,25.173 44.9917,25.231 45.0897,25.296 C45.1137,25.239 45.1377,25.181 45.1617,25.123 M49.9047,28.589 C49.9967,35.849 44.4317,40.18 38.3767,38.607 C33.7417,37.402 31.1297,34.343 31.7677,30.307 C32.4697,25.858 34.6807,23.318 38.9127,22.275 C39.5307,22.122 40.1767,22.089 40.8077,21.982 C42.4037,21.713 43.9757,20.77 45.5377,22.266 C47.6947,24.33 50.0097,26.245 49.9047,28.589" id="Fill-258" fill="#000000"></path>
        <path d="M32.1875,21.1875 C31.4605,20.8515 30.3635,20.6995 30.0855,20.1405 C29.5715,19.1065 30.3455,18.1875 31.1955,17.5015 C31.5045,17.2525 31.8275,16.9135 32.1845,16.8525 C33.0025,16.7115 34.2485,16.3585 34.5905,16.7415 C35.1935,17.4175 35.5105,18.5905 35.4695,19.5345 C35.4185,20.6995 34.2635,20.8505 33.2765,20.9255 C32.9595,20.9505 32.6385,20.9295 32.3195,20.9295 C32.2755,21.0155 32.2315,21.1015 32.1875,21.1875" id="Fill-260" fill="#000000"></path>
        <path d="M51.6455,21.2038 C50.1105,21.0918 49.0085,19.8378 49.1315,18.3428 C49.2185,17.2878 50.5165,16.4468 51.8215,16.6008 C53.1715,16.7588 54.4285,18.1508 54.2985,19.3428 C54.1825,20.4048 52.9125,21.2958 51.6455,21.2038" id="Fill-262" fill="#000000"></path>
        <path d="M45.1617,25.1236 C45.1377,25.1816 45.1137,25.2386 45.0897,25.2966 C44.9917,25.2316 44.8867,25.1726 44.7997,25.0946 C44.7847,25.0816 44.8417,24.9856 44.8657,24.9286 C44.9647,24.9936 45.0637,25.0586 45.1617,25.1236" id="Fill-264" fill="#FFFFFF"></path>
        <path d="M47.4477,31.446 C47.4107,31.502 47.3747,31.558 47.3377,31.614 C47.2977,31.561 47.2117,31.483 47.2247,31.459 C47.2707,31.375 47.3517,31.31 47.4187,31.237 C47.4287,31.307 47.4377,31.376 47.4477,31.446" id="Fill-266" fill="#FFFFFF"></path>
    </g>
</svg>
