<svg width="55px" height="63px" viewBox="87 459 55 63" version="1.1" xmlns="http://www.w3.org/2000/svg" xmlns:xlink="http://www.w3.org/1999/xlink">
    <defs></defs>
    <g id="Group" stroke="none" stroke-width="1" fill="none" fill-rule="evenodd" transform="translate(88.000000, 459.000000)">
        <g id="Group-140" transform="translate(0.000000, 0.826000)" fill="#000000">
            <path d="M26.1044,3.0133 C26.0824,2.9203 26.0604,2.8263 26.0374,2.7333 C25.8344,2.7843 25.6304,2.8353 25.4264,2.8873 C25.4454,2.9553 25.4644,3.0223 25.4844,3.0903 C25.6904,3.0643 25.8974,3.0393 26.1044,3.0133 M51.8414,11.7193 C49.1354,11.3913 47.0404,11.1373 44.5154,10.8313 C45.7684,12.1753 46.7594,13.2393 47.8414,14.4003 C49.0304,13.6033 50.1814,12.8313 51.8414,11.7193 M20.3164,43.1803 C21.4184,45.7823 19.4884,47.4383 18.3814,49.5073 C20.5364,49.6373 22.1284,48.6803 23.7324,47.8703 C26.3344,46.5583 25.4164,43.4493 26.8114,41.2543 C28.4804,43.3833 26.5434,45.4313 27.1884,47.5713 C27.8584,47.2513 28.5894,47.0803 29.0744,46.6393 C31.3174,44.6013 32.9304,42.1893 33.1974,39.0553 C33.2584,38.3423 32.9134,37.4363 33.9984,37.0153 C35.4614,38.4963 34.2794,40.3213 34.5484,42.0453 C34.9624,41.7783 35.1814,41.6763 35.3514,41.5213 C39.0824,38.1173 39.3754,33.7283 38.7714,29.1503 C38.5044,27.1273 38.2334,24.9793 35.8924,24.0513 C35.7824,24.0083 35.7994,23.6413 35.7574,23.4243 C38.7064,22.8463 42.1574,26.4073 41.5494,29.2863 C41.2054,30.9173 40.7594,32.5523 40.6624,34.2033 C40.4534,37.7913 38.6874,40.5263 36.3294,43.0273 C33.6564,45.8633 30.5294,48.0933 26.9614,49.5763 C24.6344,50.5433 22.1504,51.4283 19.6704,51.6653 C15.9634,52.0193 12.1964,51.6883 8.4604,51.8123 C6.4394,51.8803 4.6044,53.9363 4.6154,55.6373 C5.3424,56.1863 6.0704,56.6273 6.6624,57.2073 C7.5664,58.0923 8.5424,58.4143 9.6984,57.8563 C10.9094,57.2723 11.9884,57.5733 13.1334,58.1053 C14.4994,58.7403 15.8944,59.5353 17.3474,59.7243 C24.8284,60.6993 32.0534,59.8053 38.4484,55.5313 C41.0044,53.8233 43.4714,51.7273 45.3494,49.3173 C48.6214,45.1203 49.0804,40.1253 48.2184,34.9343 C47.7284,31.9793 46.1414,29.2943 46.1884,26.2293 C46.2024,25.3073 46.1864,24.3693 46.3484,23.4683 C46.5574,22.3093 46.4954,21.2753 45.5564,20.1263 C44.4754,20.7453 43.4204,21.3483 42.2034,22.0443 C41.9594,19.5583 44.4314,19.6403 45.1794,18.4453 C44.8014,15.2733 44.1724,12.3333 42.1104,9.9133 C41.9104,9.6793 41.7244,9.3513 41.7074,9.0573 C41.5944,7.1473 40.2234,6.0123 38.9184,5.0573 C37.1364,3.7523 35.0284,2.0993 32.7954,3.0113 C29.9704,4.1663 27.0214,4.1633 24.1814,4.8793 C22.6814,5.2583 20.9284,5.7933 19.9504,6.8623 C17.1604,9.9113 15.7784,13.6893 16.3274,17.8523 C17.0484,23.3253 17.8204,28.7683 17.3884,34.3163 C17.0904,38.1353 16.0144,41.6673 13.9624,44.8893 C12.8184,46.6843 11.5904,48.4253 10.1184,50.6073 C12.3024,50.1183 14.2674,50.0153 15.9084,49.2313 C18.3194,48.0793 19.0134,45.3893 20.3164,43.1803 M1.8194,55.6903 C1.3094,56.0973 0.9014,56.4223 0.5204,56.7263 C-0.2596,56.2683 -0.1286,54.3023 0.6844,53.7213 C1.0644,53.4503 1.5414,53.2993 1.9904,53.1423 C8.8594,50.7363 13.1644,45.7703 15.1064,38.9893 C16.6074,33.7453 16.7824,28.2503 15.6394,22.8463 C14.7684,18.7293 14.9064,14.6103 15.2524,10.4843 C15.4284,8.3873 16.5804,6.7633 18.3254,5.5673 C19.6344,4.6703 20.8204,3.4993 22.2484,2.8893 C24.3514,1.9913 26.6154,0.9603 28.8224,0.9333 C32.0274,0.8953 35.4314,0.9143 38.2624,2.9613 C39.4794,3.8413 40.8604,4.6493 41.7354,5.8133 C44.0244,8.8583 46.9494,10.1203 50.6784,9.7933 C51.6104,9.7113 52.5554,9.7813 53.9914,9.7813 C53.5824,10.8603 53.4814,11.8693 52.9274,12.4383 C51.6634,13.7383 50.2644,14.9573 48.7494,15.9473 C47.7914,16.5733 47.4164,17.1623 47.5714,18.2533 C48.3664,23.8503 48.2964,29.5453 49.8154,35.0693 C51.4084,40.8623 49.9474,46.3013 46.4064,50.8983 C43.9954,54.0283 40.7384,56.5033 37.1074,58.3183 C32.0554,60.8433 26.6044,61.4613 21.0764,61.6823 C18.4684,61.7853 16.0344,61.1163 13.6884,59.9553 C12.8084,59.5193 11.6194,59.0583 10.7774,59.3073 C7.3604,60.3203 5.0234,58.4543 2.6214,56.6333 C2.3274,56.4103 2.1284,56.0613 1.8194,55.6903" id="Fill-138"></path>
        </g>
        <path d="M38.8027,15.1633 C38.8447,13.7953 38.0117,12.8393 36.7137,12.7643 C35.0917,12.6723 33.6337,13.9403 33.6507,15.4293 C33.6657,16.6903 34.7867,17.9443 35.9807,18.0363 C37.5297,18.1553 38.7487,16.9143 38.8027,15.1633 M20.3167,44.0063 C19.0137,46.2153 18.3197,48.9053 15.9077,50.0573 C14.2677,50.8413 12.3017,50.9443 10.1187,51.4333 C11.5897,49.2513 12.8187,47.5103 13.9627,45.7153 C16.0147,42.4933 17.0897,38.9613 17.3877,35.1423 C17.8207,29.5943 17.0487,24.1513 16.3267,18.6783 C15.7777,14.5153 17.1597,10.7363 19.9497,7.6883 C20.9277,6.6193 22.6807,6.0843 24.1817,5.7053 C27.0217,4.9893 29.9707,4.9923 32.7957,3.8373 C35.0277,2.9253 37.1357,4.5783 38.9187,5.8833 C40.2237,6.8383 41.5947,7.9733 41.7077,9.8833 C41.7247,10.1773 41.9107,10.5053 42.1097,10.7393 C44.1727,13.1593 44.8017,16.0993 45.1797,19.2713 C44.4307,20.4663 41.9597,20.3843 42.2037,22.8703 C43.4197,22.1743 44.4747,21.5703 45.5567,20.9523 C46.4947,22.1013 46.5577,23.1353 46.3487,24.2943 C46.1867,25.1953 46.2017,26.1333 46.1877,27.0553 C46.1417,30.1203 47.7277,32.8053 48.2187,35.7603 C49.0807,40.9513 48.6207,45.9463 45.3497,50.1433 C43.4717,52.5533 41.0037,54.6493 38.4477,56.3573 C32.0537,60.6313 24.8287,61.5253 17.3467,60.5503 C15.8947,60.3613 14.4997,59.5663 13.1327,58.9313 C11.9887,58.3993 10.9097,58.0973 9.6987,58.6823 C8.5417,59.2403 7.5657,58.9183 6.6627,58.0333 C6.0707,57.4533 5.3427,57.0123 4.6157,56.4633 C4.6047,54.7623 6.4387,52.7063 8.4597,52.6383 C12.1957,52.5143 15.9637,52.8453 19.6707,52.4913 C22.1497,52.2543 24.6337,51.3693 26.9617,50.4023 C30.5287,48.9193 33.6567,46.6893 36.3297,43.8533 C38.6877,41.3523 40.4537,38.6173 40.6627,35.0293 C40.7587,33.3783 41.2047,31.7423 41.5497,30.1123 C42.1567,27.2333 38.7067,23.6723 35.7567,24.2503 C35.7997,24.4673 35.7817,24.8343 35.8927,24.8773 C38.2327,25.8053 38.5037,27.9533 38.7707,29.9763 C39.3747,34.5533 39.0827,38.9433 35.3507,42.3473 C35.1817,42.5023 34.9627,42.6043 34.5487,42.8713 C34.2797,41.1473 35.4617,39.3223 33.9987,37.8413 C32.9127,38.2623 33.2587,39.1683 33.1977,39.8813 C32.9297,43.0153 31.3177,45.4273 29.0747,47.4653 C28.5887,47.9063 27.8577,48.0773 27.1887,48.3973 C26.5427,46.2573 28.4797,44.2093 26.8107,42.0803 C25.4167,44.2753 26.3347,47.3843 23.7327,48.6963 C22.1287,49.5063 20.5367,50.4633 18.3817,50.3333 C19.4887,48.2643 21.4187,46.6083 20.3167,44.0063" id="Fill-141" fill="#3B82EE" class="icon__color"></path>
        <path d="M51.841,12.5451 C50.182,13.6571 49.03,14.4291 47.842,15.2261 C46.76,14.0651 45.768,13.0011 44.515,11.6571 C47.041,11.9631 49.135,12.2171 51.841,12.5451" id="Fill-143" fill="#FFFFFF"></path>
        <path d="M26.1044,3.8393 C25.8974,3.8653 25.6904,3.8903 25.4844,3.9163 C25.4644,3.8483 25.4454,3.7813 25.4264,3.7133 C25.6304,3.6613 25.8344,3.6103 26.0374,3.5593 C26.0604,3.6523 26.0824,3.7463 26.1044,3.8393" id="Fill-145" fill="#FFFFFF"></path>
        <path d="M38.8027,15.1633 C38.7487,16.9143 37.5297,18.1553 35.9807,18.0363 C34.7867,17.9443 33.6657,16.6903 33.6507,15.4293 C33.6337,13.9403 35.0917,12.6723 36.7137,12.7643 C38.0117,12.8393 38.8447,13.7953 38.8027,15.1633" id="Fill-147" fill="#000000"></path>
    </g>
</svg>
