<svg width="88px" height="41px" viewBox="230 407 88 41" version="1.1" xmlns="http://www.w3.org/2000/svg" xmlns:xlink="http://www.w3.org/1999/xlink">
    <defs></defs>
    <g id="Group" stroke="none" stroke-width="1" fill="none" fill-rule="evenodd" transform="translate(230.000000, 407.000000)">
        <path d="M36.4085,5.6462 C38.8055,6.9832 41.0345,8.1882 43.2255,9.4592 C45.3895,10.7142 46.8815,12.9522 49.4995,13.9532 C50.1325,9.6622 47.9725,6.0782 47.7455,2.1262 C47.0665,2.0942 46.5945,2.0052 46.1405,2.0612 C43.9365,2.3322 41.7345,2.6302 39.5355,2.9432 C37.9725,3.1652 37.0025,4.1012 36.4085,5.6462 M75.3145,17.1162 C76.1985,18.7142 77.5705,19.6492 79.1925,20.4882 C83.0325,22.4742 85.6425,25.6432 87.1155,29.7222 C87.4875,30.7512 87.5765,31.7602 86.7655,32.6442 C85.9735,33.5072 85.0485,33.5072 84.3275,32.5832 C83.8875,32.0202 83.5235,31.3842 83.2105,30.7402 C82.5105,29.3002 81.3505,28.3762 79.9825,27.6382 C78.3965,26.7832 77.0815,26.6752 75.3635,27.8232 C73.6295,28.9832 71.4175,29.5102 69.3495,30.0682 C66.5675,30.8202 63.7645,31.1932 60.8485,30.3622 C59.2025,29.8922 57.4345,29.8152 55.6355,30.1132 C54.0875,30.3692 52.4495,30.0912 50.8525,30.0442 C50.3745,30.0302 49.8945,29.9592 49.4195,29.9862 C47.6065,30.0872 47.3075,30.3572 46.9445,32.2022 C46.4735,34.5902 45.7135,36.8392 43.9205,38.5972 C43.0065,39.4932 42.0735,40.3692 40.7795,40.3102 C40.1035,39.3082 39.5845,38.3462 38.8845,37.5402 C37.1965,35.5932 35.3185,34.5872 32.6075,35.8682 C31.5695,36.3592 30.0955,36.0922 28.8495,35.9362 C27.1895,35.7292 25.5365,35.3752 23.9205,34.9392 C21.5105,34.2892 19.2845,33.2692 17.4075,31.5262 C16.0055,30.2242 14.4415,29.0982 12.9685,27.8712 C11.8325,26.9252 10.5515,27.2332 9.2975,27.4142 C7.4015,27.6882 5.5185,28.0442 3.6225,28.3172 C2.0955,28.5372 1.0165,27.8892 0.3665,26.5422 C0.7105,25.2822 1.8295,25.0622 2.7065,24.5652 C4.9235,23.3072 7.1935,22.1362 9.3645,20.8052 C11.3055,19.6172 12.4455,17.8162 12.6905,15.5202 C13.1485,11.2192 16.1155,8.8332 19.6405,7.3892 C24.2415,5.5032 29.1205,4.5072 34.1045,5.5232 C35.0365,4.5082 35.8035,3.4842 36.7625,2.6912 C37.4695,2.1072 38.3895,1.5932 39.2795,1.4502 C42.1905,0.9832 45.1295,0.6842 48.0625,0.3602 C48.6605,0.2942 49.2775,0.4012 50.0115,0.4342 C49.9695,1.0842 50.0195,1.5642 49.8975,1.9952 C49.2825,4.1782 49.8405,6.2552 50.3365,8.3622 C50.7355,10.0592 51.0655,11.7792 51.3005,13.5062 C51.4995,14.9692 51.6325,15.2562 53.0875,15.6182 C56.7665,16.5332 60.5085,16.7292 64.2805,16.5852 C64.9285,16.5602 65.5455,16.5672 65.8165,15.7632 C65.8965,15.5262 66.2965,15.2422 66.5505,15.2412 C69.0475,15.2262 69.6375,13.2232 70.3335,11.4942 C70.9865,9.8742 71.3315,8.1292 71.8205,6.4422 C72.2845,4.8472 72.6125,3.1922 73.7245,1.8782 C77.3965,3.5122 78.7345,10.5642 76.6245,17.1652 L75.2795,17.1652 C75.5155,16.2352 75.7365,15.3012 75.9875,14.3752 C76.9365,10.8832 76.5545,7.6452 74.1215,4.5622 C73.8985,5.0582 73.7085,5.3842 73.6015,5.7362 C72.9485,7.8732 72.3865,10.0402 71.6595,12.1512 C70.3275,16.0202 67.2705,18.1312 63.1645,18.1462 C62.4445,18.1492 61.7205,18.1982 61.0045,18.1422 C56.3785,17.7792 51.7055,17.5522 47.7425,14.6772 C46.5185,13.7892 45.3475,12.8242 44.1875,11.8522 C36.7205,5.5982 26.5525,5.0512 18.4295,9.7892 C16.0055,11.2042 14.7295,13.0012 15.3225,15.7572 C14.7115,16.5182 13.9395,17.1152 13.6705,17.8872 C13.0685,19.6132 11.8215,20.6822 10.3885,21.5612 C8.5535,22.6862 6.6295,23.6652 4.7475,24.7132 C3.8775,25.1972 2.8095,25.4222 2.2135,26.5912 C2.6775,26.7612 3.0515,27.0452 3.3665,26.9892 C5.2405,26.6572 7.0935,26.2042 8.9685,25.8762 C10.5315,25.6022 12.1165,25.2382 13.5255,26.4732 C15.0265,27.7882 16.5515,29.0862 18.1445,30.2862 C19.3455,31.1912 20.5755,32.2162 21.9625,32.6822 C24.5975,33.5672 27.3385,34.1652 30.0665,34.7282 C31.2275,34.9672 32.4335,34.7042 33.3625,33.8312 C32.3855,31.3612 32.3855,31.3612 32.6835,30.6722 C35.7715,33.1812 38.8625,35.6942 41.9255,38.1832 C43.6395,36.6912 44.6195,35.1292 44.6125,33.9132 C44.5935,30.8572 45.9475,28.9442 49.0745,28.7082 C52.2385,28.4692 55.4705,28.3062 58.6035,28.6862 C61.5795,29.0472 64.4795,28.5452 67.4135,28.6592 C68.1105,28.6862 68.8755,28.5332 69.5125,28.2472 C71.9575,27.1452 74.3635,25.9552 76.9225,24.7322 C78.4705,25.4982 80.2785,26.0812 81.6885,27.1772 C83.1525,28.3162 84.2325,29.9502 85.4865,31.3752 C85.5865,31.2262 85.7415,31.0992 85.7305,30.9892 C85.6905,30.5972 85.6515,30.1892 85.5105,29.8262 C84.0975,26.1692 81.6405,23.4372 78.1685,21.6172 C77.5325,21.2842 76.8465,21.0202 76.2725,20.6012 C75.0315,19.6932 74.7825,18.6522 75.3145,17.1162" id="Fill-80" fill="#000000"></path>
        <path d="M36.4085,5.6462 C37.0025,4.1012 37.9725,3.1652 39.5355,2.9432 C41.7345,2.6302 43.9365,2.3322 46.1405,2.0612 C46.5945,2.0052 47.0665,2.0942 47.7455,2.1262 C47.9725,6.0782 50.1325,9.6622 49.4995,13.9532 C46.8815,12.9522 45.3895,10.7142 43.2255,9.4592 C41.0345,8.1882 38.8055,6.9832 36.4085,5.6462" id="Fill-82" fill="#3B82EE" class="icon__color"></path>
        <path d="M29.433,16.5859 C29.465,17.4089 28.658,18.1789 27.742,18.1989 C26.845,18.2189 25.988,17.5149 25.914,16.6989 C25.837,15.8379 26.733,14.8009 27.602,14.7479 C28.371,14.6999 29.4,15.7339 29.433,16.5859" id="Fill-84" fill="#000000"></path>
    </g>
</svg>
