<svg width="81px" height="46px" viewBox="130 188 81 46" version="1.1" xmlns="http://www.w3.org/2000/svg" xmlns:xlink="http://www.w3.org/1999/xlink">
    <defs></defs>
    <g id="Group" stroke="none" stroke-width="1" fill="none" fill-rule="evenodd" transform="translate(130.000000, 188.000000)">
        <path d="M26.1664,44.0805 C27.4584,44.1275 28.7014,44.1905 29.9444,44.2135 C32.0364,44.2535 33.6414,43.3595 34.7874,41.6205 C35.0954,41.1535 35.4414,40.7065 35.7134,40.2195 C36.8354,38.2085 38.5434,37.2625 40.8344,37.2925 C43.0354,37.3215 45.1444,36.7975 47.0864,35.8285 C49.9434,34.4015 52.7504,32.8655 55.5214,31.2765 C57.2624,30.2765 58.6304,28.8475 59.8994,27.2575 C61.3304,25.4665 63.3584,24.2205 65.6684,24.2795 C68.1194,24.3425 70.6244,24.7285 72.9774,25.4125 C75.0494,26.0155 76.4074,25.1095 77.7074,23.9685 C79.4144,22.4685 79.1644,21.4865 77.1504,20.3345 C75.4964,19.3885 73.8514,18.4025 72.3144,17.2805 C70.9984,16.3195 70.5014,14.8395 70.6754,13.2385 C70.7694,12.3785 71.1164,11.5415 71.3904,10.7075 C72.6354,6.9285 72.2914,5.7135 68.9524,2.8155 C68.6394,3.7025 68.3624,4.4935 68.0814,5.2825 C67.5454,6.7855 67.0534,8.3045 66.4604,9.7845 C65.1694,13.0035 62.8784,14.6335 59.2864,14.6975 C56.3414,14.7505 53.4654,15.3875 50.6754,16.5505 C48.7944,17.3335 46.6854,17.7955 44.6474,17.9285 C39.0984,18.2905 33.8484,16.9435 28.9424,14.3835 C24.8664,12.2575 20.6494,10.5845 16.0684,10.0455 C14.6814,9.8835 13.1054,9.8155 11.8494,10.3035 C6.2414,12.4815 3.7514,17.2455 2.2814,22.6675 C1.8994,24.0805 2.0674,25.5795 4.0604,25.9915 C3.9154,26.4125 3.8084,26.6985 3.7184,26.9905 C3.6024,27.3585 3.4304,27.7285 3.4184,28.1015 C3.4114,28.3255 3.6654,28.5565 3.7914,28.7675 C1.5364,30.5395 1.4254,31.2475 2.5744,33.4525 C3.6594,35.5345 5.5544,36.7595 7.3074,38.0945 C10.9694,40.8825 15.2564,41.3975 19.6184,40.6585 C22.3134,40.2015 25.0264,39.4055 27.0924,37.4055 C27.3084,37.6095 27.5294,37.7375 27.5134,37.8155 C27.1014,39.8055 26.6644,41.7915 26.1664,44.0805 M68.1024,0.6055 C72.9564,2.8355 74.4454,6.1945 72.9244,10.7355 C72.7724,11.1895 72.6124,11.6415 72.4404,12.0895 C71.7424,13.9135 71.9034,14.8585 73.3124,16.1275 C74.5534,17.2455 75.7584,18.4165 77.4574,18.9065 C78.1194,19.0975 78.7204,19.5755 79.2904,20.0015 C80.8944,21.1995 80.9764,21.8915 79.9004,23.6085 C78.5844,25.7075 76.6194,26.6715 74.2404,26.6075 C71.9304,26.5465 69.5894,26.4025 67.3334,25.9445 C65.4854,25.5705 64.1204,25.9165 62.7464,27.1575 C58.1574,31.3025 53.1584,34.8345 47.4344,37.2985 C45.4914,38.1355 43.5524,38.7535 41.4334,38.7495 C39.2734,38.7455 37.6234,39.4605 36.5894,41.5635 C34.9644,44.8715 32.5094,46.2175 27.7434,45.5045 C26.5894,45.3315 25.4684,44.9375 24.1224,44.5915 C24.6704,43.1455 25.1274,41.9395 25.7514,40.2925 C24.1194,40.8365 22.9404,41.2385 21.7554,41.6215 C16.2504,43.3995 11.1604,42.3685 6.5284,39.1105 C4.9204,37.9795 3.4524,36.5425 2.2224,35.0045 C0.4234,32.7535 0.0734,30.1195 0.9954,27.3335 C1.1844,26.7615 1.1834,26.0905 1.1254,25.4785 C0.8784,22.8645 1.2974,20.4625 2.5704,18.0865 C3.8254,15.7455 5.0214,13.4725 7.0514,11.6545 C10.1514,8.8775 13.6124,7.8665 17.6754,8.7955 C21.8234,9.7445 25.8004,11.1085 29.5794,13.1005 C34.6514,15.7745 40.1074,16.8515 45.8084,16.3385 C47.3594,16.1985 48.9084,15.5955 50.3644,14.9825 C51.5474,14.4845 52.6554,13.9855 53.9814,13.8815 C56.2844,13.6995 58.5714,13.3025 60.8654,12.9965 C62.3804,12.7945 63.5014,12.1085 64.3084,10.7255 C65.7764,8.2095 66.7184,5.5245 67.3554,2.7045 C67.5044,2.0435 67.8074,1.4185 68.1024,0.6055" id="Fill-86" fill="#000000"></path>
        <path d="M19.0059,26.5338 C17.5899,28.1708 17.4729,28.9238 18.3839,29.6158 C19.1269,30.1788 19.5659,29.9308 20.6959,28.1928 C20.1569,27.6638 19.5869,27.1048 19.0059,26.5338 M8.5809,33.7268 C9.5479,35.6568 11.6659,36.3318 13.3049,35.3688 C12.1609,33.7548 10.6339,33.4188 8.5809,33.7268 M11.5579,25.0578 C11.6089,24.2448 10.7299,23.3028 9.9469,23.3348 C9.3309,23.3588 8.3959,24.4418 8.3419,25.1938 C8.2929,25.8768 9.0839,26.6628 9.8779,26.7198 C10.7029,26.7798 11.4979,25.9928 11.5579,25.0578 M26.1669,44.0808 C26.6649,41.7908 27.1019,39.8058 27.5139,37.8158 C27.5299,37.7368 27.3089,37.6098 27.0919,37.4058 C25.0269,39.4058 22.3139,40.2018 19.6179,40.6588 C15.2569,41.3978 10.9689,40.8828 7.3079,38.0948 C5.5549,36.7598 3.6589,35.5348 2.5739,33.4518 C1.4249,31.2478 1.5369,30.5398 3.7919,28.7678 C3.6649,28.5568 3.4119,28.3248 3.4189,28.1018 C3.4299,27.7278 3.6029,27.3578 3.7179,26.9898 C3.8089,26.6988 3.9149,26.4128 4.0599,25.9918 C2.0679,25.5798 1.8989,24.0808 2.2819,22.6678 C3.7509,17.2458 6.2409,12.4818 11.8489,10.3038 C13.1059,9.8158 14.6809,9.8828 16.0679,10.0458 C20.6489,10.5838 24.8659,12.2578 28.9419,14.3838 C33.8479,16.9438 39.0989,18.2908 44.6479,17.9278 C46.6849,17.7948 48.7949,17.3338 50.6749,16.5508 C53.4659,15.3878 56.3409,14.7498 59.2859,14.6978 C62.8779,14.6338 65.1699,13.0038 66.4609,9.7838 C67.0539,8.3048 67.5459,6.7848 68.0809,5.2828 C68.3629,4.4938 68.6399,3.7028 68.9529,2.8158 C72.2919,5.7128 72.6349,6.9288 71.3909,10.7078 C71.1159,11.5408 70.7689,12.3788 70.6759,13.2388 C70.5019,14.8398 70.9979,16.3198 72.3149,17.2808 C73.8519,18.4018 75.4959,19.3888 77.1499,20.3348 C79.1639,21.4868 79.4149,22.4688 77.7069,23.9678 C76.4079,25.1098 75.0489,26.0148 72.9769,25.4128 C70.6239,24.7278 68.1189,24.3428 65.6689,24.2798 C63.3589,24.2208 61.3299,25.4668 59.8999,27.2578 C58.6299,28.8468 57.2629,30.2768 55.5209,31.2758 C52.7499,32.8658 49.9439,34.4018 47.0859,35.8278 C45.1439,36.7978 43.0349,37.3218 40.8339,37.2928 C38.5439,37.2628 36.8349,38.2088 35.7129,40.2198 C35.4409,40.7068 35.0959,41.1528 34.7879,41.6208 C33.6409,43.3598 32.0369,44.2538 29.9449,44.2138 C28.7009,44.1898 27.4579,44.1278 26.1669,44.0808" id="Fill-88" fill="#3B82EE" class="icon__color"></path>
        <path d="M11.5576,25.0582 C11.4986,25.9922 10.7026,26.7792 9.8776,26.7202 C9.0836,26.6632 8.2936,25.8772 8.3426,25.1932 C8.3956,24.4412 9.3306,23.3592 9.9476,23.3342 C10.7296,23.3032 11.6096,24.2452 11.5576,25.0582" id="Fill-90" fill="#000000"></path>
        <path d="M8.5814,33.7265 C10.6344,33.4185 12.1604,33.7545 13.3044,35.3685 C11.6654,36.3325 9.5474,35.6565 8.5814,33.7265" id="Fill-92" fill="#000000"></path>
        <path d="M19.0059,26.5338 C19.5869,27.1048 20.1569,27.6638 20.6959,28.1928 C19.5659,29.9308 19.1269,30.1788 18.3839,29.6158 C17.4729,28.9238 17.5899,28.1708 19.0059,26.5338" id="Fill-94" fill="#000000"></path>
    </g>
</svg>
