<svg width="48px" height="59px" viewBox="310 335 48 59" version="1.1" xmlns="http://www.w3.org/2000/svg" xmlns:xlink="http://www.w3.org/1999/xlink">
    <defs></defs>
    <g id="Group" stroke="none" stroke-width="1" fill="none" fill-rule="evenodd" transform="translate(310.000000, 335.000000)">
        <path d="M27.3434,10.3737 C24.6994,8.4027 21.9624,8.3447 19.2374,8.5057 C17.8884,8.5857 16.9934,8.1757 16.1234,7.1907 C14.6054,5.4687 12.7984,4.0807 10.5064,2.8917 C10.2304,4.0947 9.9534,5.0817 9.7824,6.0867 C9.1494,9.8067 8.2554,13.4037 6.1974,16.6697 C5.5054,17.7677 5.2574,19.2117 5.0564,20.5357 C4.7614,22.4787 5.4914,24.1717 6.9404,25.4817 C7.4604,25.9507 8.1684,26.2107 8.7904,26.5657 C8.7564,26.6707 8.7214,26.7747 8.6874,26.8797 L6.4694,26.8797 C6.6534,27.9587 6.8884,28.8787 6.9534,29.8107 C7.1324,32.3517 7.4904,34.9157 7.3164,37.4387 C7.0434,41.3807 6.2484,45.2377 2.9554,47.9897 C2.1534,48.6597 2.1494,49.4797 2.4744,50.3887 C5.1154,52.2007 7.7274,51.7487 10.3494,50.3177 C11.0914,49.9127 11.8854,49.6037 12.8454,49.1637 C13.2824,51.0407 14.4054,52.0477 15.9344,52.3457 C19.4544,53.0307 22.9884,53.8247 26.5504,54.0577 C29.4394,54.2467 32.2844,53.4257 34.4984,51.2567 C34.6424,51.3257 34.8394,51.3557 34.9224,51.4687 C37.0344,54.3507 40.4324,55.1287 43.3824,56.6287 C44.0404,56.9637 44.8134,57.0297 45.3434,56.3287 C45.8644,55.6397 45.9664,54.8877 45.4914,54.0957 C44.8124,52.9647 44.0974,51.9367 42.5884,52.6467 C42.4514,52.3287 42.3304,52.1817 42.3354,52.0377 C42.4584,48.5367 42.6114,45.0357 42.7164,41.5337 C42.7374,40.8237 42.7794,40.0087 42.4764,39.4137 C41.5064,37.5077 40.4394,35.6437 39.2894,33.8407 C38.4234,32.4817 37.2324,31.6357 35.4924,32.4407 C35.4334,32.4677 35.2654,32.2607 34.9164,31.9697 C35.4124,31.0797 35.9704,30.1487 36.4614,29.1847 C37.9384,26.2807 39.4504,23.3667 36.6194,20.3327 C38.0554,19.4807 38.0494,18.1997 37.5934,16.9937 C36.3244,13.6367 34.9494,10.3187 33.5694,7.0047 C33.2794,6.3067 32.7874,5.6937 32.2584,4.8277 C30.5664,6.7367 29.0544,8.4437 27.3434,10.3737 M38.2694,30.9727 C45.5864,35.8937 46.6534,44.2337 43.7384,50.3737 C44.4394,51.0187 45.1834,51.7027 45.9254,52.3897 C46.8684,53.2627 47.2814,54.3437 47.1594,55.6207 C46.9564,57.7307 45.1394,58.9037 43.2074,58.0217 C40.8874,56.9637 38.6014,55.8107 36.3904,54.5427 C35.2654,53.8967 34.2834,53.5617 33.0584,54.1587 C29.0964,56.0917 24.9824,55.6527 20.8564,54.8607 C20.4644,54.7857 20.0834,54.6567 19.6914,54.5847 C16.9274,54.0767 14.1804,53.5367 12.1664,51.2097 C11.3614,51.6077 10.6634,51.9707 9.9514,52.3017 C7.2744,53.5457 4.6444,53.2667 2.1374,51.8767 C0.1484,50.7747 -0.0906,49.5297 1.4224,47.8357 C2.9754,46.0987 4.5974,44.4387 5.1534,42.0827 C6.2094,37.6127 6.6974,33.2537 5.0424,28.6807 C3.5504,24.5607 2.8074,20.1547 4.5744,15.7947 C4.7814,15.2837 4.8894,14.5927 5.2784,14.3197 C6.6754,13.3387 6.9614,11.8277 7.3214,10.3777 C7.8594,8.2107 8.2474,6.0067 8.7344,3.8267 C8.9714,2.7667 9.2874,1.7247 9.6584,0.3367 C10.7954,0.8547 11.7434,1.0867 12.4314,1.6417 C13.9054,2.8327 15.3014,4.1347 16.6184,5.4997 C17.4404,6.3507 18.2164,6.8897 19.4914,6.8497 C22.0424,6.7697 24.6184,6.7797 26.8814,8.2877 C28.8624,6.4787 30.1534,4.1897 32.5134,2.5827 C33.0984,3.3967 33.6444,4.0477 34.0734,4.7687 C36.9534,9.6207 38.7284,14.9087 40.1324,20.3377 C40.1924,20.5687 40.3044,20.8267 40.2534,21.0387 C39.5484,23.9657 39.9734,27.1027 38.5974,29.9047 C38.4304,30.2447 38.3704,30.6367 38.2694,30.9727" id="Fill-96" fill="#000000"></path>
        <path d="M27.1643,15.8479 C27.1303,14.7899 26.7003,14.3779 25.9753,14.3189 C25.3133,14.2659 24.9193,14.6159 24.9083,15.2999 C24.8963,16.0469 25.2473,16.6019 26.0233,16.5099 C26.4663,16.4569 26.8653,16.0319 27.1643,15.8479 M18.3003,13.9409 C18.3353,13.0669 17.8703,12.6019 17.0473,12.5159 C16.2373,12.4319 15.4783,13.2459 15.4073,14.2049 C15.3463,15.0219 15.8733,15.6409 16.6223,15.6309 C17.4743,15.6199 18.2483,14.8399 18.3003,13.9409 M21.1173,21.1919 C20.5703,20.4119 20.2513,19.7439 19.7443,19.2829 C18.9353,18.5489 18.0403,17.8859 17.1053,17.3189 C16.3193,16.8409 15.6953,17.2839 15.4213,18.0549 C15.2403,18.5639 15.0753,19.2179 15.2433,19.6859 C15.9903,21.7679 16.7143,23.8819 17.7343,25.8349 C18.4143,27.1359 19.9613,27.4439 21.0463,26.8339 C22.1523,26.2119 23.2423,25.5499 24.2773,24.8179 C25.9773,23.6149 26.6913,21.8429 26.1923,20.3069 C25.6113,18.5129 24.0713,18.0469 22.6883,19.2969 C22.1673,19.7679 21.7763,20.3849 21.1173,21.1919 M27.3433,10.3739 C29.0543,8.4429 30.5663,6.7369 32.2583,4.8279 C32.7873,5.6939 33.2793,6.3069 33.5693,7.0039 C34.9493,10.3189 36.3243,13.6369 37.5933,16.9939 C38.0493,18.1999 38.0553,19.4799 36.6193,20.3329 C39.4503,23.3659 37.9383,26.2809 36.4613,29.1839 C35.9703,30.1489 35.4123,31.0789 34.9163,31.9699 C35.2653,32.2609 35.4333,32.4679 35.4923,32.4409 C37.2323,31.6359 38.4233,32.4819 39.2893,33.8399 C40.4393,35.6429 41.5063,37.5079 42.4763,39.4129 C42.7803,40.0089 42.7373,40.8229 42.7163,41.5329 C42.6113,45.0359 42.4583,48.5369 42.3353,52.0379 C42.3303,52.1809 42.4513,52.3289 42.5883,52.6459 C44.0973,51.9369 44.8123,52.9649 45.4913,54.0949 C45.9673,54.8869 45.8643,55.6399 45.3433,56.3279 C44.8133,57.0299 44.0403,56.9639 43.3823,56.6289 C40.4323,55.1289 37.0343,54.3509 34.9223,51.4689 C34.8393,51.3559 34.6423,51.3259 34.4983,51.2579 C32.2843,53.4249 29.4393,54.2469 26.5503,54.0579 C22.9883,53.8249 19.4543,53.0309 15.9343,52.3449 C14.4053,52.0469 13.2823,51.0409 12.8453,49.1639 C11.8853,49.6039 11.0913,49.9129 10.3493,50.3179 C7.7273,51.7489 5.1153,52.2009 2.4743,50.3889 C2.1493,49.4799 2.1533,48.6599 2.9553,47.9899 C6.2483,45.2369 7.0433,41.3809 7.3163,37.4389 C7.4903,34.9159 7.1323,32.3519 6.9533,29.8109 C6.8883,28.8789 6.6533,27.9589 6.4693,26.8789 L8.6873,26.8789 C8.7213,26.7749 8.7563,26.6699 8.7903,26.5659 C8.1683,26.2109 7.4603,25.9509 6.9403,25.4819 C5.4913,24.1719 4.7613,22.4789 5.0563,20.5359 C5.2573,19.2119 5.5053,17.7669 6.1973,16.6699 C8.2553,13.4039 9.1493,9.8059 9.7823,6.0869 C9.9533,5.0819 10.2303,4.0949 10.5063,2.8909 C12.7983,4.0799 14.6053,5.4689 16.1233,7.1899 C16.9933,8.1759 17.8883,8.5859 19.2383,8.5059 C21.9623,8.3449 24.6993,8.4019 27.3433,10.3739" id="Fill-98" fill="#3B82EE" class="icon__color"></path>
        <path d="M21.1169,21.1916 C21.7769,20.3846 22.1669,19.7686 22.6889,19.2966 C24.0709,18.0466 25.6109,18.5126 26.1929,20.3066 C26.6909,21.8426 25.9769,23.6146 24.2779,24.8176 C23.2419,25.5496 22.1519,26.2126 21.0459,26.8346 C19.9609,27.4446 18.4139,27.1356 17.7349,25.8346 C16.7149,23.8826 15.9899,21.7686 15.2429,19.6856 C15.0749,19.2186 15.2409,18.5636 15.4219,18.0556 C15.6959,17.2846 16.3189,16.8406 17.1059,17.3186 C18.0399,17.8866 18.9349,18.5486 19.7439,19.2826 C20.2519,19.7436 20.5699,20.4126 21.1169,21.1916" id="Fill-100" fill="#000000"></path>
        <path d="M18.3008,13.9405 C18.2488,14.8395 17.4748,15.6195 16.6228,15.6305 C15.8738,15.6405 15.3468,15.0225 15.4078,14.2055 C15.4788,13.2455 16.2378,12.4315 17.0468,12.5155 C17.8708,12.6015 18.3358,13.0665 18.3008,13.9405" id="Fill-102" fill="#000000"></path>
        <path d="M27.1643,15.8479 C26.8653,16.0319 26.4663,16.4569 26.0233,16.5099 C25.2473,16.6019 24.8963,16.0469 24.9083,15.2999 C24.9193,14.6159 25.3133,14.2659 25.9753,14.3189 C26.7003,14.3779 27.1303,14.7899 27.1643,15.8479" id="Fill-104" fill="#000000"></path>
    </g>
</svg>
