<svg width="70px" height="49px" viewBox="429 484 70 49" version="1.1" xmlns="http://www.w3.org/2000/svg" xmlns:xlink="http://www.w3.org/1999/xlink">
    <defs></defs>
    <g id="Group" stroke="none" stroke-width="1" fill="none" fill-rule="evenodd" transform="translate(429.000000, 484.000000)">
        <g id="Group-39" transform="translate(0.000000, 0.826000)">
            <path d="M66.1131,14.9561 C69.1331,20.3261 70.7831,25.8661 68.3731,32.1061 C65.8831,38.5761 60.9631,42.1261 54.8531,44.4361 C53.0031,45.1361 51.0331,45.5761 49.0831,45.9061 C45.3831,46.5261 41.6731,47.2161 37.9431,47.4161 C34.7731,47.5961 31.5531,47.2861 28.3931,46.8961 C25.6431,46.5561 22.9231,45.8361 20.2031,45.2261 C15.7831,44.2361 11.8231,42.2361 8.0031,39.8261 C5.7831,38.4261 3.8931,36.7961 2.6631,34.4961 C1.9931,33.2461 1.3831,31.9061 1.0931,30.5261 C-0.3169,23.7461 0.9931,17.6661 6.1531,12.7361 C7.3031,11.6261 7.9331,10.6261 7.6231,8.7961 C7.2431,6.6561 8.2731,4.7661 10.3431,3.6361 C13.2631,2.0361 16.4031,1.0461 19.6931,0.9061 C23.9031,0.7261 27.5931,2.1161 30.2131,5.5661 C31.0531,6.6761 32.0131,7.0461 33.2731,7.0161 C35.8031,6.9761 38.1831,6.4861 40.2131,4.8361 C40.7631,4.3861 41.3331,3.9361 41.9231,3.5261 C44.0831,1.9961 46.3831,1.0561 49.1031,1.6961 C51.1231,2.1761 53.2231,2.4161 55.1431,3.1361 C58.3431,4.3061 61.5931,8.9961 62.3131,12.3661 C61.9631,12.2961 61.6031,12.2661 61.2331,12.2561 C60.6131,11.1861 59.7931,9.7761 59.6431,9.3561 C58.4531,6.1061 55.9131,4.4761 52.7631,3.6261 C51.5331,3.2961 50.2531,3.1561 48.9931,2.9661 C46.2831,2.5761 43.9631,3.3961 41.9131,5.1861 C39.4831,7.3261 36.6831,8.4961 33.3631,8.2561 C31.6131,8.1261 30.1631,7.6161 29.0731,6.0761 C26.7331,2.7661 23.1731,2.1361 19.4931,2.2161 C16.4231,2.2961 13.5431,3.2861 10.8831,4.8961 C8.9031,6.0961 8.4231,7.1161 8.9131,9.8061 C9.2331,9.8761 9.6031,9.9661 9.9731,10.0561 C10.3231,10.1461 10.6831,10.2461 11.4031,10.4261 C10.7631,10.8961 10.4531,11.2361 10.0631,11.3761 C7.5831,12.2861 6.0731,14.1561 4.9331,16.4261 C4.1531,17.9761 3.3131,19.5161 2.6131,21.0961 C1.7131,23.1261 1.6931,25.2861 1.7831,27.4561 C1.9731,32.1861 4.0831,35.7461 8.0131,38.4061 C13.4931,42.1061 19.5231,44.1161 26.0031,45.1861 C31.4931,46.0861 36.9731,46.4261 42.4531,45.5261 C47.5631,44.6961 52.7531,44.1961 57.4931,41.7761 C61.4831,39.7361 64.4331,36.8861 66.4231,32.8161 C69.2531,27.0161 68.0231,21.6461 65.3231,16.3061 C64.6831,15.0461 63.5831,14.2561 62.3031,13.6861 C62.1631,13.6261 62.0231,13.5561 61.8831,13.4761 L61.9031,13.4261 C62.1631,13.2261 63.5731,13.9961 63.5831,13.9361 C63.6231,13.7161 62.3731,12.6561 62.3331,12.4361 C62.3331,12.4161 62.3231,12.3861 62.3131,12.3661 C63.9031,12.6361 65.2831,13.4761 66.1131,14.9561" id="Fill-15" fill="#000000"></path>
            <path d="M21.7231,14.2861 C24.5031,13.7861 25.0731,13.0761 25.0331,10.2761 C24.9931,7.4161 23.7431,5.8561 20.9931,5.2361 C20.4431,5.1161 19.9031,4.9961 19.3631,4.8761 C17.6931,4.5261 16.1831,4.8961 14.8431,5.9061 C13.3231,7.0461 12.4631,8.6261 11.8931,10.1461 C12.4931,10.9861 13.1031,11.5861 13.4031,12.3261 C13.9431,13.6661 14.8931,14.2261 16.2731,14.4961 C18.1331,14.8761 19.9231,14.6161 21.7231,14.2861 M34.8931,40.8161 C36.0931,40.6861 37.3631,40.2761 38.1331,38.3361 C35.9431,38.6961 34.2631,39.0661 32.5631,39.2061 C30.8931,39.3461 29.2031,39.2361 27.5231,39.2361 C29.7331,41.2161 32.3331,41.1161 34.8931,40.8161 M45.8931,29.4661 C47.2831,27.8861 47.5131,25.6461 46.2731,23.9661 C44.8231,21.9961 43.0431,20.3961 40.4931,19.9961 C37.8931,19.5861 35.2931,19.2161 32.6931,18.8361 C30.8131,18.9961 28.9131,18.8261 27.3131,19.9461 C26.2331,20.6961 25.3531,21.7261 24.3731,22.6161 C22.1631,24.6161 22.1331,27.2161 24.2831,29.3061 C25.7831,30.7861 27.7231,31.2961 29.6931,31.6361 C32.0531,32.0461 34.4231,32.3461 36.8031,32.6461 C40.3431,33.0961 43.4531,32.2561 45.8931,29.4661 M53.2231,13.6361 C54.4031,12.5561 54.1031,11.1761 53.8231,9.8261 C53.7831,9.6761 53.7431,9.5061 53.7731,9.3561 C54.1031,7.6461 52.9831,6.8061 51.7131,6.2661 C50.5631,5.7661 49.2931,5.4561 48.0331,5.2861 C46.3531,5.0461 44.8531,6.0261 44.3531,7.6761 C44.0031,8.8061 43.9031,10.0061 43.6931,11.1761 C43.7331,11.1861 43.7731,11.1961 43.8231,11.1961 C43.8231,11.5161 43.8031,11.8361 43.8231,12.1561 C43.9131,14.3761 44.2831,14.7561 46.4831,14.9661 C47.1931,15.0261 47.9031,15.1461 48.6131,15.2061 C50.3731,15.3461 51.9331,14.8061 53.2231,13.6361 M65.3231,16.3061 C68.0231,21.6461 69.2531,27.0161 66.4231,32.8161 C64.4331,36.8861 61.4831,39.7361 57.4931,41.7761 C52.7531,44.1961 47.5631,44.6961 42.4531,45.5261 C36.9731,46.4261 31.4931,46.0861 26.0031,45.1861 C19.5231,44.1161 13.4931,42.1061 8.0131,38.4061 C4.0831,35.7461 1.9731,32.1861 1.7831,27.4561 C1.6931,25.2861 1.7131,23.1261 2.6131,21.0961 C3.3131,19.5161 4.1531,17.9761 4.9331,16.4261 C6.0731,14.1561 7.5831,12.2861 10.0631,11.3761 C10.4531,11.2361 10.7631,10.8961 11.4031,10.4261 C10.6831,10.2461 10.3231,10.1461 9.9731,10.0561 C9.6031,9.9661 9.2331,9.8761 8.9131,9.8061 C8.4231,7.1161 8.9031,6.0961 10.8831,4.8961 C13.5431,3.2861 16.4231,2.2961 19.4931,2.2161 C23.1731,2.1361 26.7331,2.7661 29.0731,6.0761 C30.1631,7.6161 31.6131,8.1261 33.3631,8.2561 C36.6831,8.4961 39.4831,7.3261 41.9131,5.1861 C43.9631,3.3961 46.2831,2.5761 48.9931,2.9661 C50.2531,3.1561 51.5331,3.2961 52.7631,3.6261 C55.9131,4.4761 58.4531,6.1061 59.6431,9.3561 C59.7931,9.7761 60.6131,11.1861 61.2331,12.2561 C61.0931,12.2461 60.9531,12.2561 60.8131,12.2561 C60.7231,12.4261 60.6431,12.5861 60.5531,12.7461 C60.9931,12.9861 61.4331,13.2461 61.8831,13.4761 C62.0231,13.5561 62.1631,13.6261 62.3031,13.6861 C63.5831,14.2561 64.6831,15.0461 65.3231,16.3061" id="Fill-17" fill="#3B82EE" clas="icon__color"></path>
            <path d="M62.3331,12.4361 C62.3731,12.6561 63.6231,13.7161 63.5831,13.9361 C63.5731,13.9961 62.1631,13.2261 61.9031,13.4261 C61.7931,13.2261 61.5431,12.7861 61.2331,12.2561 C61.6031,12.2661 61.9631,12.2961 62.3131,12.3661 C62.3231,12.3861 62.3331,12.4161 62.3331,12.4361" id="Fill-19" fill="#000000"></path>
            <path d="M61.9031,13.4261 L61.8831,13.4761 C61.4331,13.2461 60.9931,12.9861 60.5531,12.7461 C60.6431,12.5861 60.7231,12.4261 60.8131,12.2561 C60.9531,12.2561 61.0931,12.2461 61.2331,12.2561 C61.5431,12.7861 61.7931,13.2261 61.9031,13.4261" id="Fill-21" fill="#000000"></path>
            <path d="M48.0131,7.0461 C46.1531,7.0661 46.1531,7.0661 45.7331,8.7361 C46.5231,8.1461 47.1631,7.6761 48.0131,7.0461 M48.2531,10.0861 C48.4531,11.1461 48.4531,11.1461 49.4831,11.1961 C49.0231,10.7761 48.7231,10.5061 48.2531,10.0861 M53.8231,9.8261 C54.1031,11.1761 54.4031,12.5561 53.2231,13.6361 C51.9331,14.8061 50.3731,15.3461 48.6131,15.2061 C47.9031,15.1461 47.1931,15.0261 46.4831,14.9661 C44.2831,14.7561 43.9131,14.3761 43.8231,12.1561 C43.8031,11.8361 43.8231,11.5161 43.8231,11.1961 C43.7731,11.1961 43.7331,11.1861 43.6931,11.1761 C43.9031,10.0061 44.0031,8.8061 44.3531,7.6761 C44.8531,6.0261 46.3531,5.0461 48.0331,5.2861 C49.2931,5.4561 50.5631,5.7661 51.7131,6.2661 C52.9831,6.8061 54.1031,7.6461 53.7731,9.3561 C53.7431,9.5061 53.7831,9.6761 53.8231,9.8261" id="Fill-23" fill="#000000"></path>
            <path d="M49.4831,11.1961 C48.4531,11.1461 48.4531,11.1461 48.2531,10.0861 C48.7231,10.5061 49.0231,10.7761 49.4831,11.1961" id="Fill-25" fill="#FFFFFF"></path>
            <path d="M42.5031,30.4461 C46.7331,27.9861 46.5131,25.5861 43.6631,22.9161 C42.9931,22.2861 42.0831,21.8361 41.2031,21.5661 C38.0731,20.5961 34.8931,19.9261 32.1931,20.5261 C28.6131,20.4361 26.4231,22.0061 24.5931,24.0661 C23.2631,25.5561 23.6431,27.7461 25.4231,28.8261 C26.6131,29.5461 28.0331,29.9761 29.4131,30.2561 C31.7531,30.7261 34.1531,30.8761 36.4831,31.3561 C38.6431,31.7961 40.7431,31.4661 42.5031,30.4461 M46.2731,23.9661 C47.5131,25.6461 47.2831,27.8861 45.8931,29.4661 C43.4531,32.2561 40.3431,33.0961 36.8031,32.6461 C34.4231,32.3461 32.0531,32.0461 29.6931,31.6361 C27.7231,31.2961 25.7831,30.7861 24.2831,29.3061 C22.1331,27.2161 22.1631,24.6161 24.3731,22.6161 C25.3531,21.7261 26.2331,20.6961 27.3131,19.9461 C28.9131,18.8261 30.8131,18.9961 32.6931,18.8361 C35.2931,19.2161 37.8931,19.5861 40.4931,19.9961 C43.0431,20.3961 44.8231,21.9961 46.2731,23.9661" id="Fill-27" fill="#000000"></path>
            <path d="M45.7331,8.7361 C46.1531,7.0661 46.1531,7.0661 48.0131,7.0461 C47.1631,7.6761 46.5231,8.1461 45.7331,8.7361" id="Fill-29" fill="#FFFFFF"></path>
            <path d="M43.6631,22.9161 C46.5131,25.5861 46.7331,27.9861 42.5031,30.4461 C40.7431,31.4661 38.6431,31.7961 36.4831,31.3561 C34.1531,30.8761 31.7531,30.7261 29.4131,30.2561 C28.0331,29.9761 26.6131,29.5461 25.4231,28.8261 C23.6431,27.7461 23.2631,25.5561 24.5931,24.0661 C26.4231,22.0061 28.6131,20.4361 32.1931,20.5261 C34.8931,19.9261 38.0731,20.5961 41.2031,21.5661 C42.0831,21.8361 42.9931,22.2861 43.6631,22.9161" id="Fill-31" fill="#FFFFFF"></path>
            <path d="M38.1331,38.3361 C37.3631,40.2761 36.0931,40.6861 34.8931,40.8161 C32.3331,41.1161 29.7331,41.2161 27.5231,39.2361 C29.2031,39.2361 30.8931,39.3461 32.5631,39.2061 C34.2631,39.0661 35.9431,38.6961 38.1331,38.3361" id="Fill-33" fill="#000000"></path>
            <path d="M20.1631,11.9761 C20.1431,11.8361 20.1231,11.7061 20.1031,11.5761 C19.4931,11.6461 18.8931,11.7161 18.2831,11.7961 C18.3131,11.9461 18.3331,12.0961 18.3631,12.2561 C18.9631,12.1561 19.5631,12.0661 20.1631,11.9761 M25.0331,10.2761 C25.0731,13.0761 24.5031,13.7861 21.7231,14.2861 C19.9231,14.6161 18.1331,14.8761 16.2731,14.4961 C14.8931,14.2261 13.9431,13.6661 13.4031,12.3261 C13.1031,11.5861 12.4931,10.9861 11.8931,10.1461 C12.4631,8.6261 13.3231,7.0461 14.8431,5.9061 C16.1831,4.8961 17.6931,4.5261 19.3631,4.8761 C19.9031,4.9961 20.4431,5.1161 20.9931,5.2361 C23.7431,5.8561 24.9931,7.4161 25.0331,10.2761" id="Fill-35" fill="#000000"></path>
            <path d="M20.1031,11.5761 C20.1231,11.7061 20.1431,11.8361 20.1631,11.9761 C19.5631,12.0661 18.9631,12.1561 18.3631,12.2561 C18.3331,12.0961 18.3131,11.9461 18.2831,11.7961 C18.8931,11.7161 19.4931,11.6461 20.1031,11.5761" id="Fill-37" fill="#FFFFFF"></path>
        </g>
    </g>
</svg>
