<svg width="96px" height="86px" viewBox="171 108 96 86" version="1.1" xmlns="http://www.w3.org/2000/svg" xmlns:xlink="http://www.w3.org/1999/xlink">
    <defs></defs>
    <g id="Group" stroke="none" stroke-width="1" fill="none" fill-rule="evenodd" transform="translate(171.000000, 108.000000)">
        <path d="M6.5851,2.116 C6.6771,1.949 6.7691,1.782 6.6291,2.036 C6.8481,1.846 6.7051,1.97 6.5621,2.094 L6.5851,2.116 Z" id="Fill-106" fill="#FFFFFF"></path>
        <path d="M15.3557,82.9699 L15.4997,83.0509 L15.5227,82.9339 L15.3557,82.9699 Z M85.7127,30.2559 C89.5577,26.2039 89.4307,23.5069 85.4287,19.3339 C84.4447,19.6209 83.3967,20.2799 82.5607,20.0739 C81.7167,19.8659 81.0837,18.8009 80.6677,18.4059 C79.1967,18.9239 77.9287,19.3709 76.6677,19.8149 C76.7487,19.8819 76.8957,20.0919 77.0887,20.1499 C79.4487,20.8649 80.6737,22.3709 80.6627,24.9079 C80.6597,25.4649 81.0257,26.1599 81.4447,26.5569 C82.7697,27.8149 84.1997,28.9619 85.7127,30.2559 L85.7127,30.2559 Z M6.5847,2.1159 C5.0437,2.1779 3.5027,2.2399 1.8127,2.3079 C2.5337,3.5789 3.0867,4.5339 3.6217,5.4989 C5.0927,8.1509 6.4777,10.8539 8.0477,13.4459 C9.1107,15.1999 10.7357,16.3779 12.7507,16.9499 C13.6737,17.2119 14.6137,17.4399 15.4957,17.8049 C16.0547,18.0369 16.8107,18.3879 16.9817,18.8639 C18.1167,22.0279 19.2417,25.2579 18.5387,28.6809 C17.8967,31.8099 16.0877,34.0219 12.8017,34.7329 C12.0207,34.9019 11.2307,35.0309 10.4497,35.2009 C10.2377,35.2469 10.0437,35.3719 9.8277,35.4669 C10.2227,35.9819 10.5827,36.4519 10.9857,36.9779 C10.4897,37.4529 10.1037,37.8229 9.7087,38.1999 C11.1817,39.2419 11.1817,39.2419 10.3807,41.8219 C11.6687,41.3829 13.0847,41.3199 13.8067,40.5809 C16.7927,37.5219 20.3777,34.9089 21.8737,30.6239 C22.0077,30.2409 22.4117,29.9509 23.0397,29.2009 C23.6097,32.9249 26.5417,33.3229 28.9367,34.4179 C29.2277,34.5509 29.5237,34.6709 29.8187,34.7949 C39.1007,38.7229 48.7047,40.6709 58.7987,39.3469 C61.0337,39.0539 63.2527,38.4999 65.2237,37.2429 C62.8477,33.3049 62.9017,32.6039 65.6047,32.1779 C64.4787,34.8649 66.2087,36.1199 68.2587,37.1679 C67.8877,37.8859 67.3557,38.4429 67.3557,39.0009 C67.3547,41.5359 65.5207,42.1269 63.6497,42.7109 C61.8997,43.2579 60.0267,43.5429 58.4047,44.3419 C55.4027,45.8219 52.2877,46.6089 48.9757,46.8599 C47.8777,46.9429 46.8047,47.3489 45.7207,47.6079 C48.2887,48.9489 51.4007,47.0609 53.6587,49.7689 C53.0787,50.3829 52.6067,50.9089 52.1057,51.4049 C51.5637,51.9409 50.9947,52.4489 50.3197,53.0789 C51.4657,53.3089 52.5417,53.2549 53.2377,53.7429 C53.8897,54.1999 54.1397,55.2299 54.6487,56.1559 C54.8937,55.8449 55.0747,55.5789 55.2927,55.3479 C58.7347,51.6939 62.6277,48.9469 67.9317,48.9229 C68.8797,48.9179 69.8447,48.7109 70.7687,48.4679 C73.2227,47.8229 75.3737,46.6359 76.9167,44.5659 C77.2687,44.0949 77.7107,43.2559 77.5217,42.8969 C76.8847,41.6849 77.4947,41.0849 78.3587,40.5419 C79.3697,39.9069 80.3967,40.0019 81.1867,40.8869 C82.0807,41.8909 83.0597,42.9019 83.6387,44.0869 C85.9167,48.7469 86.3877,53.7139 85.7617,58.8149 C85.3957,61.8049 84.6647,64.7739 82.5167,66.9219 C78.7027,70.7339 74.4107,73.8799 69.0117,75.2519 C61.1207,77.2559 53.2737,79.4349 45.3867,81.4559 C42.3817,82.2269 39.3367,82.8989 36.2727,83.3709 C33.3297,83.8249 30.3387,83.9609 27.3687,84.2369 C30.2627,84.4809 33.1327,84.5409 35.9997,84.4679 C41.2707,84.3349 46.5477,84.2399 51.8077,83.9109 C56.9047,83.5919 62.0037,83.1459 67.0637,82.4729 C70.3647,82.0339 73.6467,81.2549 76.8477,80.3219 C79.5927,79.5209 81.6077,77.6109 83.3807,75.3069 C86.6417,71.0719 88.6407,66.1789 91.0467,61.4969 C92.9437,57.8069 93.8597,53.8369 93.9007,49.7119 C93.9307,46.7449 93.6497,43.7319 92.1497,41.1039 C89.3967,36.2819 85.4757,32.4149 81.4257,28.6899 C80.6737,27.9989 79.7377,27.5099 78.9527,26.8499 C76.2737,24.5959 73.2257,22.9739 69.8087,22.4049 C66.1957,21.8039 62.4977,21.7359 58.8547,21.2889 C56.4867,20.9989 54.1277,20.5449 51.8057,19.9949 C46.7627,18.7999 41.7437,17.4989 36.7167,16.2349 C33.7007,15.4759 30.6617,14.7969 27.6817,13.9159 C24.7117,13.0359 22.2247,11.3469 20.1797,8.9729 C17.8677,6.2889 15.2397,3.9839 11.9577,2.4949 C10.5177,1.8409 9.1697,1.3069 7.6547,2.2819 C7.4257,2.4289 6.9327,2.1669 6.5617,2.0939 C6.7047,1.9699 6.8477,1.8459 6.6297,2.0359 C6.7687,1.7819 6.6767,1.9489 6.5847,2.1159 L6.5847,2.1159 Z M80.6927,42.3769 C80.0207,43.1899 79.6027,43.5719 79.3357,44.0399 C76.7737,48.5259 72.6217,50.3229 67.7597,50.5779 C62.9007,50.8329 59.3607,53.3039 56.2697,56.7079 C55.1167,57.9769 54.0687,59.3429 52.8487,60.8149 C51.4087,58.8549 52.8137,57.0579 52.2877,55.3689 C49.6067,53.9329 47.5117,56.2209 44.9967,56.5099 C46.1597,53.5549 49.8387,53.0069 50.7927,49.8839 C48.0917,49.1919 45.0147,50.0459 41.8387,48.9689 C42.3827,48.2989 42.6297,47.7929 43.0347,47.5299 C45.2967,46.0599 47.8307,45.4229 50.4957,45.1579 C51.9157,45.0169 53.3777,44.8799 54.7177,44.4319 C57.8157,43.3969 60.8587,42.1919 63.9057,41.0099 C64.5807,40.7489 65.1827,40.2979 65.8177,39.9349 C65.7597,39.7789 65.7017,39.6239 65.6447,39.4689 C65.3677,39.4369 65.0477,39.2979 64.8207,39.3899 C61.7457,40.6269 58.5157,41.2969 55.2467,41.3869 C52.2327,41.4689 49.1927,41.1589 46.1877,40.8229 C38.7937,39.9959 31.8807,37.5689 25.2287,34.3079 C22.9277,33.1799 22.9247,33.2559 21.2627,35.1389 C19.5177,37.1169 17.7577,39.0849 15.9327,40.9889 C13.7627,43.2519 11.1077,43.4589 7.9527,42.6979 C8.3207,41.7289 8.6107,40.9629 8.9657,40.0289 C8.0697,39.8329 7.2067,39.6439 5.8877,39.3549 C6.8517,38.3889 7.5407,37.6979 8.4417,36.7949 C7.0657,36.0419 5.7457,35.3209 4.4267,34.5999 C4.4577,34.3879 4.4877,34.1759 4.5187,33.9649 C5.2287,33.8569 5.9357,33.6809 6.6487,33.6569 C8.2457,33.6009 9.8567,33.7399 11.4407,33.5849 C14.8447,33.2519 16.9727,30.9739 17.1277,27.5719 C17.2347,25.2439 17.1977,22.8869 16.0377,20.7879 C15.6147,20.0239 14.8447,19.1079 14.0797,18.9329 C9.3797,17.8599 6.9117,14.4229 4.7367,10.5829 C3.5607,8.5079 2.3447,6.4549 1.0887,4.4269 C-0.2343,2.2919 0.3057,1.2239 2.8047,0.9899 C3.7297,0.9029 4.6227,0.5199 5.5437,0.3499 C6.4677,0.1789 7.4257,-0.0691 8.3407,0.0189 C11.2627,0.3009 13.9137,1.3619 16.1397,3.3109 C17.8807,4.8349 19.4757,6.5329 21.2707,7.9869 C23.0497,9.4289 24.8317,11.0999 26.9097,11.8879 C30.3877,13.2069 34.0967,13.9219 37.7177,14.8579 C42.5737,16.1129 47.4687,17.2289 52.2887,18.6099 C55.9417,19.6569 59.6787,20.0429 63.4077,20.1609 C68.7317,20.3289 73.6897,21.4499 78.2227,24.2909 C78.4727,24.4479 78.7917,24.4939 79.1157,24.6049 C79.0697,22.5219 78.6707,22.0019 76.4777,21.2479 C75.0787,20.7669 73.6557,20.3549 72.0897,19.8649 C73.0467,18.2459 74.4817,18.1949 75.7617,18.0859 C77.4467,17.9419 78.6537,17.4809 78.9367,15.5819 C78.9997,15.1579 79.5827,14.5289 79.9507,14.5109 C80.3477,14.4919 80.8907,15.0029 81.1637,15.4179 C81.7737,16.3429 82.2557,17.3529 82.7517,18.2569 C83.0537,18.2769 83.2537,18.3549 83.3547,18.2869 C85.7557,16.6629 85.7517,16.6609 87.4647,19.1369 C87.6917,19.4649 87.8937,19.8369 88.1917,20.0859 C90.8427,22.2969 90.5577,24.9519 89.3037,27.6969 C88.7087,28.9969 87.9207,30.2089 87.0887,31.6959 C87.6997,32.4799 88.4017,33.3179 89.0347,34.2049 C90.5157,36.2819 92.0797,38.3119 93.3937,40.4909 C94.9337,43.0429 94.7517,46.0359 94.9827,48.8689 C95.4387,54.4409 93.9257,59.5729 91.4227,64.5549 C89.2287,68.9219 87.0537,73.2519 84.0227,77.1229 C82.6027,78.9369 80.9577,80.2109 78.8187,81.1409 C72.9707,83.6819 66.7657,84.1759 60.5567,84.7139 C51.4747,85.5009 42.3727,85.6659 33.2577,85.8099 C26.7277,85.9129 20.3627,85.3239 14.0217,83.9459 C11.1337,83.3189 8.2217,82.8049 5.3327,82.1849 C3.0647,81.6989 2.3547,81.2669 0.7787,79.6479 C1.6777,79.0219 2.5557,78.8049 3.6567,79.0529 C6.8977,79.7849 10.1537,80.4579 13.4177,81.0819 C16.1587,81.6059 18.9067,82.1329 21.6757,82.4579 C23.6287,82.6869 25.6407,82.7849 27.5917,82.5879 C33.6137,81.9789 39.6667,81.7449 45.5467,79.8839 C52.1597,77.7919 58.9387,76.2289 65.6207,74.3499 C69.9607,73.1299 74.2587,71.8819 77.8537,68.8379 C81.0297,66.1499 83.3217,63.1439 83.9397,58.9139 C84.6377,54.1329 84.4107,49.5059 82.3407,45.0779 C81.9487,44.2399 81.3757,43.4849 80.6927,42.3769 L80.6927,42.3769 Z" id="Fill-108" fill="#000000"></path>
        <path d="M14.413,9.8349 C14.4,9.6559 14.387,9.4759 14.375,9.2969 C13.082,8.7959 13.082,8.7959 12.043,10.0679 C13.047,9.9689 13.73,9.9019 14.413,9.8349 L14.413,9.8349 Z M6.562,2.0939 C6.933,2.1669 7.426,2.4289 7.655,2.2819 C9.17,1.3069 10.518,1.8409 11.958,2.4949 C15.24,3.9839 17.868,6.2889 20.18,8.9729 C22.224,11.3469 24.712,13.0359 27.682,13.9159 C30.661,14.7969 33.701,15.4759 36.717,16.2349 C41.744,17.4989 46.762,18.7999 51.806,19.9949 C54.128,20.5449 56.487,20.9989 58.854,21.2889 C62.498,21.7359 66.196,21.8039 69.809,22.4049 C73.225,22.9739 76.274,24.5959 78.953,26.8499 C79.738,27.5099 80.673,27.9989 81.425,28.6899 C85.476,32.4149 89.397,36.2819 92.15,41.1039 C93.649,43.7319 93.93,46.7449 93.901,49.7119 C93.86,53.8369 92.944,57.8069 91.047,61.4969 C88.64,66.1789 86.642,71.0719 83.381,75.3069 C81.608,77.6109 79.593,79.5209 76.847,80.3219 C73.646,81.2549 70.365,82.0339 67.064,82.4729 C62.003,83.1459 56.904,83.5919 51.808,83.9109 C46.547,84.2399 41.271,84.3349 36,84.4679 C33.133,84.5409 30.263,84.4809 27.369,84.2369 C30.339,83.9609 33.33,83.8239 36.273,83.3709 C39.337,82.8989 42.382,82.2269 45.387,81.4559 C53.274,79.4349 61.121,77.2559 69.012,75.2519 C74.411,73.8799 78.703,70.7339 82.516,66.9219 C84.665,64.7739 85.396,61.8049 85.762,58.8149 C86.387,53.7139 85.917,48.7469 83.639,44.0869 C83.06,42.9019 82.08,41.8909 81.186,40.8869 C80.397,40.0019 79.369,39.9069 78.359,40.5419 C77.495,41.0849 76.885,41.6849 77.522,42.8969 C77.711,43.2559 77.268,44.0949 76.917,44.5659 C75.374,46.6359 73.223,47.8229 70.768,48.4679 C69.845,48.7109 68.879,48.9179 67.932,48.9229 C62.628,48.9469 58.735,51.6939 55.292,55.3479 C55.075,55.5789 54.894,55.8449 54.648,56.1559 C54.14,55.2299 53.89,54.1999 53.238,53.7429 C52.542,53.2549 51.466,53.3089 50.32,53.0789 C50.995,52.4489 51.564,51.9409 52.106,51.4049 C52.607,50.9089 53.078,50.3829 53.658,49.7689 C51.4,47.0609 48.289,48.9489 45.721,47.6079 C46.805,47.3489 47.878,46.9429 48.976,46.8599 C52.287,46.6089 55.402,45.8219 58.405,44.3419 C60.027,43.5429 61.9,43.2579 63.65,42.7109 C65.521,42.1269 67.355,41.5359 67.356,39.0009 C67.356,38.4429 67.888,37.8859 68.259,37.1679 C66.209,36.1199 64.479,34.8649 65.604,32.1779 C62.902,32.6039 62.848,33.3049 65.224,37.2429 C63.253,38.4999 61.034,39.0539 58.798,39.3469 C48.704,40.6709 39.1,38.7229 29.819,34.7949 C29.524,34.6709 29.228,34.5509 28.937,34.4179 C26.541,33.3229 23.61,32.9249 23.04,29.2009 C22.412,29.9509 22.008,30.2409 21.874,30.6239 C20.378,34.9089 16.793,37.5219 13.807,40.5809 C13.085,41.3199 11.669,41.3829 10.38,41.8219 C11.181,39.2419 11.181,39.2419 9.709,38.1999 C10.103,37.8229 10.49,37.4529 10.986,36.9779 C10.583,36.4519 10.223,35.9819 9.828,35.4669 C10.044,35.3719 10.238,35.2469 10.45,35.2009 C11.231,35.0309 12.02,34.9009 12.801,34.7329 C16.088,34.0219 17.896,31.8099 18.539,28.6799 C19.242,25.2579 18.117,22.0279 16.981,18.8639 C16.81,18.3879 16.055,18.0369 15.496,17.8049 C14.614,17.4399 13.674,17.2119 12.751,16.9499 C10.735,16.3779 9.11,15.1999 8.048,13.4459 C6.478,10.8539 5.092,8.1509 3.622,5.4989 C3.087,4.5339 2.534,3.5789 1.812,2.3079 C3.502,2.2399 5.044,2.1779 6.585,2.1159 L6.562,2.0939 Z" id="Fill-110" fill="#3B82EE" class="icon__color"></path>
        <path d="M85.7122,30.256 C84.2002,28.961 82.7692,27.815 81.4442,26.557 C81.0262,26.16 80.6592,25.465 80.6622,24.908 C80.6742,22.371 79.4492,20.865 77.0892,20.15 C76.8962,20.091 76.7482,19.882 76.6682,19.815 C77.9282,19.371 79.1972,18.924 80.6672,18.406 C81.0832,18.801 81.7162,19.866 82.5612,20.074 C83.3962,20.28 84.4452,19.621 85.4282,19.333 C89.4302,23.507 89.5572,26.204 85.7122,30.256" id="Fill-112" fill="#3B82EE" class="icon__color"></path>
        <polygon id="Fill-114" fill="#FFFFFF" points="15.3557 82.9699 15.5227 82.9339 15.4997 83.0509"></polygon>
        <path d="M14.413,9.8349 C13.73,9.9019 13.047,9.9689 12.043,10.0679 C13.082,8.7959 13.082,8.7959 14.375,9.2969 C14.387,9.4759 14.4,9.6559 14.413,9.8349" id="Fill-116" fill="#000000"></path>
    </g>
</svg>
