<svg width="92px" height="68px" viewBox="93 170 92 68" version="1.1" xmlns="http://www.w3.org/2000/svg" xmlns:xlink="http://www.w3.org/1999/xlink">
    <defs></defs>
    <g id="Group" stroke="none" stroke-width="1" fill="none" fill-rule="evenodd" transform="translate(93.000000, 170.000000)">
        <path d="M43.1274,14.5914 L42.7304,14.6974 C42.8804,15.4834 43.0304,16.2684 43.1814,17.0544 C43.3844,17.0034 43.5874,16.9514 43.7914,16.9004 C43.5694,16.1304 43.3484,15.3614 43.1274,14.5914 M40.4374,7.4144 C39.9974,6.4064 39.5264,5.3104 39.0424,4.2214 C38.5694,3.1574 37.7014,2.5074 36.5884,2.7094 C35.9264,2.8294 35.3674,3.5134 34.7624,3.9444 C35.2084,4.5254 35.5354,5.3304 36.1234,5.6404 C37.4724,6.3514 38.9494,6.8214 40.4374,7.4144 M49.9804,18.6634 C50.0694,18.4034 50.1904,18.1964 50.2004,17.9844 C50.2204,17.5894 50.2304,17.1794 50.1484,16.7954 C49.3154,12.8604 50.2264,9.2174 51.9614,5.7054 C52.1374,5.3484 52.4924,4.9624 52.4434,4.6374 C52.3374,3.9234 52.2294,2.9074 51.7534,2.6154 C50.8644,2.0704 50.3064,2.9464 50.0524,3.7194 C49.7814,4.5434 49.6164,5.4174 49.5254,6.2834 C49.1774,9.5954 48.8894,12.9144 48.5544,16.2284 C48.4374,17.3814 48.7554,18.2324 49.9804,18.6634 M28.9134,64.8084 C27.8764,61.6124 26.8894,58.5684 25.9534,55.6834 C23.9064,57.7944 21.8534,59.9104 19.8064,62.0214 C22.2414,64.1624 26.3134,65.4194 28.9134,64.8084 M44.0404,19.8094 C43.4654,21.7944 43.4104,23.9194 44.0584,25.8174 C45.4334,29.8444 47.1584,33.7514 48.7544,37.7424 C48.9134,37.6084 49.0214,37.5614 49.0234,37.5094 C49.2634,32.5414 49.5204,27.5734 49.6924,22.6024 C49.7124,22.0274 49.2854,21.4234 49.0094,20.8594 C48.9274,20.6914 48.6544,20.6164 48.4594,20.4934 C48.2574,21.0604 48.0724,21.5764 47.8354,22.2404 C46.5984,21.2024 46.0714,19.5494 44.0404,19.8094 M70.7474,46.5334 C70.8084,46.3714 70.8694,46.2084 70.9304,46.0464 C68.2974,44.1884 65.6134,42.3964 63.0524,40.4444 C61.6794,39.3984 60.3874,38.1824 59.2984,36.8464 C58.2494,35.5604 57.5284,34.0104 56.6304,32.5984 C55.3214,30.5404 54.0434,28.4514 52.0624,26.7794 C51.7714,27.2274 51.5484,27.4134 51.5374,27.6104 C51.3424,31.1914 51.1974,34.7754 50.9844,38.3544 C50.9054,39.6744 51.7144,40.1404 52.7244,40.5904 C56.2204,42.1484 59.6714,43.8134 63.1914,45.3144 C65.6034,46.3424 68.1574,46.7044 70.7474,46.5334 M26.7574,23.7314 C24.0584,23.1014 21.5574,22.6084 19.1154,21.9094 C17.9284,21.5694 17.0444,21.7534 15.9684,22.3044 C14.2834,23.1674 12.4654,23.7884 10.6664,24.4034 C9.7224,24.7274 8.7004,24.8214 7.5264,25.0564 C8.0934,27.2114 8.5204,29.2374 9.1684,31.1904 C9.8894,33.3644 11.3784,34.2694 13.4444,33.4114 C16.6664,32.0724 19.8514,30.5484 22.8154,28.7184 C24.5704,27.6334 26.2434,26.0934 26.7574,23.7314 M57.3284,23.9824 C57.7544,24.4774 57.9834,24.7944 58.2624,25.0604 C62.0914,28.6964 66.7794,30.9524 71.5254,33.0304 C72.9924,33.6724 74.8074,33.7024 76.4554,33.6704 C77.2624,33.6544 78.3874,33.0514 78.7944,32.3714 C80.4754,29.5584 80.7944,26.4524 80.3984,23.2634 C79.9264,23.1624 79.6934,23.0534 79.4724,23.0744 C74.2634,23.5594 69.1094,23.7074 64.3314,20.9964 C63.9734,20.7934 63.3414,20.7384 62.9894,20.9164 C61.1604,21.8374 59.3804,22.8574 57.3284,23.9824 M47.0354,39.6774 C45.0074,44.6414 41.3544,46.8664 37.0014,48.2314 C34.9424,48.8774 32.8934,49.5544 30.8484,50.2414 C28.8754,50.9044 27.2734,52.8504 27.5234,54.7124 C27.8284,56.9894 28.2064,59.3154 29.0024,61.4534 C30.3524,65.0784 32.5224,65.7084 35.4374,63.2594 C37.8644,61.2194 39.9394,58.7624 42.1694,56.4894 C42.6274,56.0224 43.0814,55.5524 43.6204,54.9994 C43.9564,55.7004 44.1414,56.0844 44.3784,56.5794 C44.9304,56.1264 45.3384,55.7504 45.7874,55.4314 C47.4504,54.2534 48.1634,52.7994 47.6234,50.6924 C47.3774,49.7334 47.6424,48.6374 47.7114,47.6054 C47.8764,45.1454 48.1904,42.6784 47.0354,39.6774 M51.8774,23.2934 C52.5594,23.2244 53.1104,23.1854 53.6564,23.1074 C54.1294,23.0394 54.5994,22.9414 55.0644,22.8324 C60.6694,21.5244 64.8544,17.9174 68.6824,13.9664 C69.9784,12.6294 70.3914,10.4224 71.1594,8.5924 C71.5404,7.6854 71.5924,6.5304 73.2404,6.5054 C73.0774,9.3134 72.0994,11.8154 70.6704,13.9214 C69.2074,16.0774 67.0634,17.7724 65.1094,19.7804 C66.6434,20.9124 68.2684,21.5484 70.0344,21.6204 C72.6604,21.7284 75.2954,21.7384 77.9224,21.6574 C80.1234,21.5894 80.7104,21.0464 80.4544,18.8504 C80.1324,16.0904 79.5374,13.3544 78.9124,10.6424 C78.0364,6.8424 75.7164,5.3884 71.8484,5.9394 C68.0934,6.4754 65.1414,8.2244 62.8354,11.2694 C60.5734,14.2554 58.2514,17.2674 54.2484,18.1194 C54.0204,18.1684 53.8074,18.3064 53.5984,18.4224 C51.7724,19.4354 51.2784,20.7154 51.8774,23.2934 M75.4464,35.6274 C74.2214,35.3574 73.2384,35.3144 72.4134,34.9314 C66.9134,32.3824 61.3304,29.9574 57.0014,25.4804 C55.5274,23.9574 54.9704,23.9604 53.1184,25.0654 C54.9264,27.8644 56.8934,30.5804 58.5094,33.4914 C60.9884,37.9534 64.8134,40.5804 69.4554,42.2654 C70.1784,42.5274 70.8994,42.7974 71.7874,43.1244 C71.3584,43.6434 71.0844,43.9754 70.7954,44.3244 C71.8264,45.4084 73.0594,45.6604 74.4914,45.6964 C76.7174,45.7524 78.9604,45.9134 81.1534,46.2854 C83.2754,46.6464 85.0924,47.7044 86.2544,49.7614 C82.7614,47.9654 79.1624,46.8874 75.0614,47.5164 C80.6844,50.8184 81.2574,56.8754 83.1634,62.1674 C84.4764,61.4064 85.5434,60.7484 86.6464,60.1584 C89.0994,58.8474 90.0734,56.7284 89.3164,54.0194 C88.4094,50.7744 87.0564,47.8774 84.6994,45.2494 C81.7814,41.9964 78.5704,39.4964 74.4734,38.0724 C74.0744,37.9334 73.7524,37.5744 73.1924,37.1724 C73.7284,36.8564 74.0554,36.6844 74.3584,36.4774 C74.6534,36.2754 74.9244,36.0384 75.4464,35.6274 M72.2724,48.6124 C73.5624,55.2364 72.3664,61.6634 69.3844,63.8504 C69.5134,63.2264 69.5764,62.7864 69.6974,62.3624 C70.3534,60.0684 71.2684,57.8144 71.6154,55.4754 C71.9124,53.4674 71.6194,51.3604 71.4804,49.3044 C71.4094,48.2564 70.7014,47.8754 69.6264,47.9254 C66.2534,48.0824 63.2144,46.9404 60.2504,45.4564 C58.0394,44.3494 55.7694,43.3564 53.4994,42.3714 C52.8074,42.0714 52.0314,41.9664 51.0704,41.7134 C50.5344,46.1524 50.5784,50.2684 51.4064,54.3444 C51.5254,54.9284 52.3664,55.6214 53.0044,55.8034 C58.0204,57.2354 62.2054,60.2074 66.4764,62.9944 C70.8754,65.8664 75.3934,66.6144 80.2454,64.3174 C81.9624,63.5034 82.2154,63.2044 81.6644,61.3374 C80.8514,58.5844 80.0434,55.7904 78.8234,53.2074 C77.6264,50.6744 75.4744,49.0314 72.2724,48.6124 M15.6684,21.1814 C15.6774,20.9654 15.6864,20.7494 15.6954,20.5344 C13.8004,19.0964 11.8684,17.7034 10.0174,16.2104 C6.3074,13.2164 5.9034,12.6444 5.7584,10.2104 C6.9254,11.5694 7.6514,12.8694 8.7524,13.6114 C11.9444,15.7644 14.5434,18.6424 18.4444,19.9854 C21.4334,21.0154 24.2744,21.8624 27.4174,21.8614 C29.8904,21.8614 32.3764,21.9064 34.8304,22.1714 C36.3074,22.3304 37.7534,22.8944 39.1724,23.3944 C39.5664,23.5334 39.8124,24.0924 40.4854,24.8804 C39.4634,24.6884 39.0214,24.5964 38.5764,24.5234 C36.2304,24.1354 33.8844,23.7444 31.5354,23.3704 C29.6964,23.0774 28.5684,23.9364 27.6754,25.5114 C26.3094,27.9244 24.3114,29.7814 21.8384,31.0414 C19.0154,32.4794 16.1384,33.8104 13.1344,35.2604 C15.2384,36.7134 17.4764,37.1854 19.9324,36.9204 C22.7704,36.6134 25.5614,35.6074 28.4684,36.2864 C30.9434,36.8654 33.3864,36.7014 35.8224,36.0594 C36.4584,35.8924 37.1104,35.7864 38.1544,35.5694 C37.3274,37.1064 36.2844,37.4564 35.2074,37.7314 C32.8294,38.3384 30.4734,38.1964 28.0914,37.6474 C25.4854,37.0464 23.0894,37.6514 20.7534,38.9734 C17.0444,41.0714 15.0714,44.4094 14.2534,48.3324 C13.5524,51.6974 13.5664,55.1694 15.4954,58.3284 C17.0374,60.8554 18.3184,61.1884 20.7664,59.4934 C23.1224,57.8624 24.1514,55.3174 25.2784,52.8414 C26.0994,51.0384 26.9384,49.2424 27.7914,47.4554 C28.0564,46.9014 28.3974,46.3844 28.8784,45.5454 C23.9594,45.4094 20.2584,48.1034 15.9054,49.7944 C16.4964,48.1654 17.5964,47.6644 18.6574,47.1884 C20.6254,46.3044 22.6514,45.5454 24.6104,44.6424 C25.9574,44.0214 27.2614,43.6074 28.7674,44.0334 C29.2504,44.1704 29.9334,44.1114 30.3584,43.8604 C35.4804,40.8394 39.6764,37.1214 40.1414,30.6294 C40.1994,29.8224 40.5724,29.0384 40.7984,28.2434 C41.4074,28.7874 41.7554,29.3124 41.6954,29.7854 C41.1704,33.8914 40.0934,37.7964 36.9084,40.7254 C35.5004,42.0204 33.9164,43.1224 32.4744,44.3824 C30.9474,45.7184 29.3024,46.9934 28.5494,49.3214 C31.7714,48.2754 34.7174,47.3544 37.6384,46.3624 C40.7614,45.3014 43.1134,43.3904 45.0334,40.6004 C46.6344,38.2744 46.5344,36.2044 45.1604,34.2084 C42.5464,30.4114 41.5314,26.0474 40.3884,21.7414 C39.9594,20.1264 39.2214,19.1354 37.7394,18.7224 C35.7424,18.1674 33.7254,17.6334 31.6814,17.3164 C28.5184,16.8254 25.7474,15.5194 23.1154,13.7774 C21.2504,12.5434 19.3864,11.2774 17.3994,10.2654 C14.5424,8.8114 11.5614,7.6794 8.2304,7.9114 C5.2524,8.1184 4.9604,8.2924 4.1584,11.0584 C1.9894,11.7864 2.1504,11.7994 1.9624,14.0594 C1.7254,16.9034 2.9714,19.1084 4.8364,20.8824 C6.1464,22.1274 7.6694,23.6824 9.8244,23.1284 C11.8084,22.6184 13.7234,21.8404 15.6684,21.1814 M52.0264,17.0344 C56.4014,16.6744 58.9604,14.0434 61.2264,10.9374 C63.2464,8.1694 65.6684,5.8784 69.1004,4.9874 C70.3284,4.6684 71.6024,4.4084 72.8654,4.3574 C76.7934,4.1974 79.1394,5.7374 80.1884,9.5334 C81.0354,12.5984 81.4464,15.7824 82.0444,18.9154 C82.0884,19.1494 82.0044,19.4274 82.1004,19.6284 C83.5174,22.6134 82.0694,25.4904 81.7784,28.4064 C81.4604,31.5954 79.7924,34.0914 77.6264,36.3234 C77.4234,36.5334 77.3454,36.8634 77.2024,37.1514 C79.4834,38.7784 81.6944,40.3344 83.8824,41.9214 C88.3034,45.1264 90.3004,49.7654 91.2174,54.9054 C91.7074,57.6534 90.4784,60.0354 88.1814,61.5254 C85.5124,63.2564 82.6854,64.7724 79.8244,66.1714 C75.0684,68.4994 70.6314,67.1124 66.3994,64.6134 C63.5124,62.9074 60.7304,61.0174 57.8044,59.3864 C56.2154,58.5014 54.4704,57.7444 52.7034,57.3904 C51.6454,57.1784 50.4084,57.8564 48.8084,58.2404 C48.5874,57.8434 48.1534,57.0644 47.6364,56.1364 C45.1844,57.9594 42.4724,59.5544 40.2794,61.6834 C33.2074,68.5484 26.1354,67.6614 18.8224,63.5024 C13.8374,60.6664 12.2084,56.0914 12.6164,50.4964 C12.8704,47.0134 14.0944,43.9984 15.9374,41.1374 C16.4084,40.4054 16.7994,39.6224 17.3784,38.5964 C16.4414,38.2974 15.6054,38.1114 14.8354,37.7724 C11.1904,36.1704 8.1614,33.9814 7.3434,29.7264 C6.7754,26.7754 5.6724,24.0674 3.6954,21.7474 C1.6884,19.3934 1.1464,16.4454 0.5824,13.5454 C0.4454,12.8424 0.5934,11.8414 1.0234,11.3184 C2.3414,9.7184 2.4824,7.2284 5.3274,6.7384 C8.9664,6.1124 12.3754,6.4724 15.6124,7.9814 C18.4984,9.3264 21.2844,10.9334 23.9634,12.6594 C26.6434,14.3864 29.4704,15.4494 32.6084,15.9844 C34.8664,16.3704 37.0594,17.1844 39.2494,17.9034 C41.0154,18.4824 41.4804,18.2374 41.3284,16.4334 C41.1944,14.8424 41.1184,13.2104 40.6904,11.6874 C40.0414,9.3754 38.7294,7.5154 36.1424,6.9864 C35.9854,6.9544 35.8274,6.9224 35.6764,6.8724 C33.7484,6.2354 32.6574,4.5674 33.2044,3.0984 C33.8214,1.4374 36.1674,0.4334 37.8364,1.3834 C38.8094,1.9364 39.7474,2.9124 40.2164,3.9234 C41.7244,7.1794 43.0014,10.5424 44.3804,13.8594 C44.8534,14.9944 45.3634,16.1144 46.1194,17.2094 C47.4574,15.2394 47.8004,13.1274 47.8834,10.9164 C47.9674,8.6874 48.0384,6.4444 48.3584,4.2424 C48.4964,3.2934 49.0974,2.2964 49.7594,1.5664 C50.5684,0.6734 51.7384,0.5214 52.8344,1.1994 C53.9534,1.8914 54.6104,2.8424 54.0624,4.2194 C53.5924,5.4004 53.0474,6.5524 52.5704,7.7314 C51.3394,10.7754 51.1954,13.8624 52.0264,17.0344" id="Fill-178" fill="#000000"></path>
        <path d="M15.6684,21.1809 C13.7234,21.8409 11.8084,22.6189 9.8244,23.1289 C7.6694,23.6829 6.1464,22.1279 4.8364,20.8819 C2.9724,19.1079 1.7254,16.9039 1.9624,14.0589 C2.1504,11.7989 1.9894,11.7859 4.1584,11.0589 C4.9604,8.2919 5.2524,8.1179 8.2304,7.9109 C11.5614,7.6789 14.5424,8.8109 17.3994,10.2659 C19.3864,11.2769 21.2504,12.5429 23.1154,13.7779 C25.7474,15.5199 28.5184,16.8249 31.6814,17.3159 C33.7254,17.6339 35.7424,18.1669 37.7394,18.7229 C39.2214,19.1349 39.9594,20.1269 40.3884,21.7409 C41.5314,26.0469 42.5464,30.4109 45.1604,34.2089 C46.5344,36.2039 46.6344,38.2739 45.0334,40.5999 C43.1134,43.3899 40.7614,45.3019 37.6384,46.3619 C34.7174,47.3539 31.7714,48.2759 28.5494,49.3219 C29.3024,46.9929 30.9474,45.7189 32.4744,44.3829 C33.9164,43.1219 35.5004,42.0209 36.9084,40.7259 C40.0934,37.7969 41.1704,33.8919 41.6954,29.7849 C41.7554,29.3119 41.4074,28.7879 40.7984,28.2439 C40.5724,29.0379 40.1994,29.8229 40.1414,30.6289 C39.6764,37.1219 35.4804,40.8399 30.3584,43.8599 C29.9334,44.1109 29.2504,44.1699 28.7674,44.0339 C27.2624,43.6069 25.9574,44.0209 24.6104,44.6419 C22.6514,45.5459 20.6264,46.3039 18.6574,47.1879 C17.5964,47.6639 16.4964,48.1649 15.9054,49.7949 C20.2584,48.1029 23.9594,45.4099 28.8784,45.5449 C28.3974,46.3839 28.0564,46.9009 27.7914,47.4549 C26.9384,49.2429 26.0994,51.0379 25.2784,52.8409 C24.1514,55.3169 23.1224,57.8629 20.7664,59.4939 C18.3194,61.1879 17.0374,60.8549 15.4954,58.3279 C13.5664,55.1699 13.5524,51.6979 14.2534,48.3329 C15.0714,44.4099 17.0444,41.0709 20.7534,38.9729 C23.0904,37.6519 25.4854,37.0469 28.0914,37.6469 C30.4734,38.1959 32.8294,38.3389 35.2074,37.7319 C36.2844,37.4559 37.3274,37.1069 38.1544,35.5689 C37.1104,35.7859 36.4584,35.8919 35.8234,36.0589 C33.3874,36.7009 30.9434,36.8649 28.4684,36.2869 C25.5614,35.6079 22.7704,36.6129 19.9324,36.9199 C17.4774,37.1859 15.2384,36.7129 13.1344,35.2599 C16.1384,33.8099 19.0164,32.4789 21.8384,31.0409 C24.3114,29.7809 26.3094,27.9249 27.6754,25.5119 C28.5684,23.9359 29.6964,23.0779 31.5354,23.3709 C33.8844,23.7439 36.2304,24.1349 38.5764,24.5229 C39.0214,24.5959 39.4634,24.6879 40.4854,24.8799 C39.8124,24.0929 39.5664,23.5329 39.1724,23.3939 C37.7534,22.8949 36.3074,22.3309 34.8304,22.1709 C32.3764,21.9069 29.8904,21.8609 27.4174,21.8619 C24.2744,21.8619 21.4334,21.0149 18.4444,19.9859 C14.5434,18.6429 11.9444,15.7639 8.7524,13.6119 C7.6514,12.8689 6.9254,11.5689 5.7584,10.2099 C5.9034,12.6449 6.3074,13.2169 10.0174,16.2099 C11.8684,17.7029 13.8004,19.0959 15.6954,20.5339 C15.6864,20.7499 15.6774,20.9649 15.6684,21.1809" id="Fill-180" fill="#FFFFFF"></path>
        <path d="M72.2729,48.6128 C75.4739,49.0308 77.6269,50.6738 78.8229,53.2068 C80.0429,55.7898 80.8509,58.5848 81.6639,61.3378 C82.2159,63.2048 81.9629,63.5038 80.2449,64.3178 C75.3939,66.6148 70.8759,65.8658 66.4759,62.9948 C62.2059,60.2078 58.0209,57.2358 53.0039,55.8038 C52.3659,55.6208 51.5249,54.9278 51.4069,54.3438 C50.5789,50.2678 50.5339,46.1528 51.0699,41.7138 C52.0309,41.9668 52.8079,42.0718 53.4999,42.3718 C55.7689,43.3558 58.0389,44.3488 60.2509,45.4558 C63.2149,46.9398 66.2529,48.0828 69.6269,47.9258 C70.7009,47.8748 71.4099,48.2558 71.4809,49.3038 C71.6199,51.3598 71.9119,53.4668 71.6149,55.4748 C71.2689,57.8138 70.3539,60.0678 69.6979,62.3628 C69.5769,62.7868 69.5139,63.2268 69.3849,63.8508 C72.3669,61.6628 73.5629,55.2358 72.2729,48.6128" id="Fill-182" fill="#FFFFFF"></path>
        <path d="M75.4462,35.6273 C74.9242,36.0383 74.6532,36.2753 74.3582,36.4773 C74.0552,36.6843 73.7282,36.8563 73.1932,37.1723 C73.7522,37.5743 74.0742,37.9333 74.4732,38.0723 C78.5702,39.4963 81.7812,41.9963 84.6992,45.2493 C87.0562,47.8783 88.4092,50.7743 89.3162,54.0193 C90.0732,56.7293 89.0992,58.8473 86.6462,60.1583 C85.5432,60.7483 84.4762,61.4063 83.1632,62.1673 C81.2572,56.8753 80.6842,50.8183 75.0612,47.5163 C79.1632,46.8873 82.7612,47.9653 86.2542,49.7613 C85.0922,47.7043 83.2762,46.6463 81.1532,46.2863 C78.9612,45.9133 76.7172,45.7523 74.4922,45.6963 C73.0592,45.6603 71.8262,45.4093 70.7952,44.3253 C71.0842,43.9753 71.3582,43.6433 71.7872,43.1243 C70.8992,42.7973 70.1782,42.5273 69.4562,42.2653 C64.8142,40.5803 60.9892,37.9533 58.5102,33.4913 C56.8932,30.5803 54.9262,27.8643 53.1182,25.0653 C54.9702,23.9603 55.5282,23.9573 57.0012,25.4803 C61.3312,29.9573 66.9132,32.3823 72.4142,34.9313 C73.2392,35.3143 74.2212,35.3573 75.4462,35.6273" id="Fill-184" fill="#3B82EE" class="icon__color"></path>
        <path d="M51.8773,23.2938 C51.2783,20.7148 51.7723,19.4358 53.5993,18.4218 C53.8073,18.3068 54.0203,18.1678 54.2483,18.1198 C58.2523,17.2678 60.5733,14.2558 62.8353,11.2698 C65.1423,8.2248 68.0933,6.4748 71.8483,5.9398 C75.7163,5.3888 78.0363,6.8428 78.9123,10.6418 C79.5373,13.3538 80.1333,16.0908 80.4543,18.8498 C80.7103,21.0458 80.1233,21.5888 77.9223,21.6568 C75.2953,21.7378 72.6603,21.7288 70.0343,21.6208 C68.2683,21.5478 66.6433,20.9118 65.1093,19.7798 C67.0633,17.7718 69.2073,16.0778 70.6703,13.9218 C72.0993,11.8158 73.0773,9.3128 73.2403,6.5058 C71.5923,6.5308 71.5403,7.6858 71.1593,8.5918 C70.3913,10.4218 69.9793,12.6288 68.6833,13.9668 C64.8543,17.9168 60.6703,21.5238 55.0643,22.8328 C54.5993,22.9408 54.1293,23.0388 53.6573,23.1068 C53.1113,23.1848 52.5593,23.2238 51.8773,23.2938" id="Fill-186" fill="#3B82EE" class="icon__color"></path>
        <path d="M47.0353,39.6777 C48.1903,42.6787 47.8763,45.1457 47.7113,47.6047 C47.6423,48.6367 47.3773,49.7337 47.6233,50.6927 C48.1643,52.7987 47.4503,54.2537 45.7873,55.4317 C45.3383,55.7497 44.9313,56.1267 44.3783,56.5797 C44.1413,56.0847 43.9563,55.7007 43.6203,54.9987 C43.0813,55.5527 42.6273,56.0227 42.1693,56.4897 C39.9393,58.7627 37.8643,61.2197 35.4373,63.2587 C32.5223,65.7087 30.3523,65.0787 29.0023,61.4537 C28.2073,59.3157 27.8283,56.9887 27.5233,54.7127 C27.2743,52.8507 28.8753,50.9047 30.8483,50.2417 C32.8943,49.5547 34.9423,48.8767 37.0013,48.2317 C41.3553,46.8667 45.0073,44.6407 47.0353,39.6777" id="Fill-188" fill="#3B82EE" class="icon__color"></path>
        <path d="M57.328,23.9823 C59.38,22.8573 61.16,21.8373 62.989,20.9163 C63.342,20.7383 63.973,20.7933 64.331,20.9963 C69.11,23.7073 74.264,23.5593 79.473,23.0743 C79.693,23.0533 79.926,23.1623 80.398,23.2633 C80.794,26.4523 80.475,29.5583 78.794,32.3713 C78.388,33.0513 77.263,33.6543 76.455,33.6703 C74.807,33.7023 72.993,33.6723 71.526,33.0303 C66.779,30.9523 62.092,28.6963 58.263,25.0603 C57.984,24.7943 57.754,24.4773 57.328,23.9823" id="Fill-190" fill="#FFFFFF"></path>
        <path d="M26.7577,23.7315 C26.2427,26.0935 24.5707,27.6335 22.8147,28.7185 C19.8517,30.5485 16.6667,32.0725 13.4437,33.4115 C11.3777,34.2695 9.8897,33.3645 9.1687,31.1905 C8.5207,29.2375 8.0937,27.2115 7.5267,25.0565 C8.6997,24.8215 9.7217,24.7275 10.6657,24.4035 C12.4647,23.7875 14.2837,23.1675 15.9687,22.3045 C17.0447,21.7535 17.9287,21.5695 19.1157,21.9095 C21.5577,22.6085 24.0587,23.1015 26.7577,23.7315" id="Fill-192" fill="#3B82EE" class="icon__color"></path>
        <path d="M70.7473,46.5334 C68.1573,46.7044 65.6033,46.3424 63.1913,45.3144 C59.6713,43.8134 56.2203,42.1484 52.7243,40.5904 C51.7153,40.1404 50.9053,39.6744 50.9843,38.3544 C51.1973,34.7754 51.3423,31.1914 51.5383,27.6104 C51.5483,27.4134 51.7713,27.2274 52.0623,26.7794 C54.0433,28.4514 55.3213,30.5404 56.6303,32.5984 C57.5293,34.0104 58.2493,35.5604 59.2983,36.8464 C60.3873,38.1824 61.6793,39.3984 63.0523,40.4444 C65.6133,42.3964 68.2973,44.1884 70.9303,46.0464 C70.8693,46.2084 70.8083,46.3714 70.7473,46.5334" id="Fill-194" fill="#3B82EE" class="icon__color"></path>
        <path d="M44.0407,19.8096 C46.0717,19.5496 46.5987,21.2026 47.8357,22.2396 C48.0727,21.5766 48.2577,21.0606 48.4597,20.4936 C48.6537,20.6166 48.9267,20.6916 49.0097,20.8596 C49.2857,21.4226 49.7127,22.0276 49.6927,22.6026 C49.5207,27.5736 49.2637,32.5416 49.0237,37.5096 C49.0217,37.5616 48.9137,37.6086 48.7537,37.7426 C47.1587,33.7506 45.4337,29.8436 44.0587,25.8176 C43.4107,23.9196 43.4657,21.7946 44.0407,19.8096" id="Fill-196" fill="#FFFFFF"></path>
        <path d="M28.9135,64.8088 C26.3135,65.4188 22.2405,64.1628 19.8065,62.0218 C21.8535,59.9108 23.9065,57.7938 25.9535,55.6828 C26.8895,58.5688 27.8765,61.6128 28.9135,64.8088" id="Fill-198" fill="#3B82EE" class="icon__color"></path>
        <path d="M49.9808,18.6635 C48.7548,18.2325 48.4378,17.3815 48.5548,16.2285 C48.8898,12.9145 49.1778,9.5955 49.5248,6.2835 C49.6158,5.4175 49.7818,4.5435 50.0528,3.7195 C50.3068,2.9455 50.8648,2.0705 51.7528,2.6155 C52.2288,2.9075 52.3368,3.9235 52.4438,4.6375 C52.4918,4.9625 52.1368,5.3485 51.9608,5.7055 C50.2268,9.2175 49.3158,12.8605 50.1488,16.7955 C50.2298,17.1795 50.2198,17.5895 50.2008,17.9845 C50.1908,18.1965 50.0698,18.4025 49.9808,18.6635" id="Fill-200" fill="#FFFFFF"></path>
        <path d="M40.437,7.414 C38.949,6.821 37.473,6.352 36.124,5.64 C35.535,5.33 35.208,4.525 34.762,3.945 C35.367,3.514 35.927,2.829 36.588,2.709 C37.701,2.508 38.57,3.158 39.042,4.221 C39.527,5.311 39.997,6.406 40.437,7.414" id="Fill-202" fill="#FFFFFF"></path>
        <path d="M43.1274,14.5914 C43.3484,15.3614 43.5694,16.1304 43.7914,16.9004 C43.5874,16.9514 43.3844,17.0034 43.1814,17.0544 C43.0304,16.2684 42.8804,15.4834 42.7304,14.6974 L43.1274,14.5914 Z" id="Fill-204" fill="#FFFFFF"></path>
    </g>
</svg>
