<svg width="68px" height="74px" viewBox="146 277 68 74" version="1.1" xmlns="http://www.w3.org/2000/svg" xmlns:xlink="http://www.w3.org/1999/xlink">
    <defs></defs>
    <g id="Group-5" stroke="none" stroke-width="1" fill="none" fill-rule="evenodd" transform="translate(146.000000, 277.000000)">
        <path d="M49.7475,66.7296 C49.8985,66.8056 50.0485,66.8806 50.1995,66.9566 C50.3225,66.6186 50.4455,66.2796 50.5685,65.9416 C50.4615,65.8946 50.3555,65.8476 50.2485,65.8006 C50.0815,66.1106 49.9145,66.4196 49.7475,66.7296 M61.4535,43.5026 C61.8275,44.3496 62.0125,45.1586 62.4875,45.7256 C62.8965,46.2146 63.6825,46.7516 64.2145,46.6736 C64.7425,46.5966 65.4755,45.8276 65.5655,45.2726 C65.7775,43.9646 65.8805,42.5566 64.4355,41.6626 C63.9925,41.3896 63.6805,40.8876 63.3435,40.4616 C62.3495,39.2066 61.0505,38.9476 59.8495,39.9576 C59.2205,40.4856 58.7005,40.9396 57.8065,40.9816 C57.3845,41.0016 56.6755,41.5476 56.6525,41.8936 C56.6165,42.4246 56.9145,43.2106 57.3335,43.4836 C57.8625,43.8276 58.6565,43.8556 59.3355,43.8506 C60.0205,43.8456 60.7035,43.6346 61.4535,43.5026 M24.5715,25.9456 C26.3285,23.9546 28.0815,22.1116 29.6595,20.1296 C30.6885,18.8366 31.8825,17.4426 32.2515,15.9126 C32.8045,13.6206 32.9255,11.1586 32.8135,8.7886 C32.6665,5.6446 30.8425,3.4566 27.9195,2.3096 C25.9825,1.5496 24.6105,2.5956 25.0975,4.6206 C25.5225,6.3896 25.1215,7.8986 24.6295,9.5116 C24.0725,11.3376 23.6175,13.1976 23.1975,15.0606 C22.5905,17.7486 21.6735,20.2536 19.6165,22.2166 C19.2565,22.5606 19.0715,23.0856 18.7815,23.5656 C20.7945,24.3926 22.6255,25.1456 24.5715,25.9456 M47.4715,9.2426 C46.4435,10.2176 45.5225,11.0786 44.6145,11.9536 C42.5485,13.9446 40.5115,15.9666 38.4175,17.9286 C36.8885,19.3596 35.1695,20.5406 33.0855,20.9896 C30.4165,21.5646 28.6065,23.3516 26.9095,25.2696 C25.5185,26.8406 25.7425,28.0846 27.6115,29.1326 C28.8545,29.8296 29.7285,30.7676 30.3675,32.0126 C30.6415,32.5476 31.0885,32.9946 31.4875,33.5236 C35.1885,32.3156 38.8735,31.4866 42.0155,29.3416 C43.3195,28.4516 44.3715,27.1986 45.6515,26.2656 C49.7145,23.3056 50.6385,19.0186 50.5895,14.4226 C50.5685,12.4046 49.6585,10.5846 47.4715,9.2426 M30.0185,33.8216 C29.3335,32.3606 28.9205,30.6616 27.2895,30.5636 C26.0365,30.4876 25.6405,29.8366 25.1585,29.0486 C23.9095,27.0076 22.0335,25.9076 19.7665,25.3836 C19.1465,25.2406 18.4525,25.2846 17.8985,25.0196 C16.5775,24.3886 15.4515,24.7946 14.2495,25.3556 C12.5365,26.1536 11.6045,27.5856 10.7905,29.1756 C10.0625,30.5956 9.3835,32.0596 8.4875,33.3706 C7.0495,35.4756 5.4245,37.4516 3.9245,39.5156 C1.4615,42.9076 1.6385,44.1356 4.8905,46.6956 C5.2025,46.9406 5.5415,47.1636 5.8955,47.3406 C11.2535,50.0216 16.7045,50.5016 22.2705,47.9976 C23.9285,47.2516 25.5145,46.2276 27.2485,45.7976 C30.2175,45.0606 31.4545,43.1326 31.6185,40.3526 C31.6955,39.0316 31.4025,37.6846 31.2395,36.3546 C31.2145,36.1516 30.9785,35.9746 30.8535,35.8046 C30.1585,35.7516 29.5085,35.7016 28.5575,35.6286 C29.1465,34.9016 29.5285,34.4286 30.0185,33.8216 M16.6135,63.8586 C14.1625,64.8086 11.7695,65.9786 9.2445,66.6486 C6.4945,67.3786 4.0225,66.4256 2.1255,64.2606 C0.5845,62.5016 0.9175,60.4146 2.8995,59.2186 C3.8555,58.6426 4.8185,58.0396 5.8515,57.6336 C7.8135,56.8636 9.0245,55.2576 10.3635,53.7966 C11.0905,53.0036 11.4805,52.0466 11.0235,50.9346 C9.3195,50.2506 7.5985,49.6246 5.9335,48.8746 C4.0765,48.0386 2.5665,46.7926 1.5345,44.9666 C0.8395,43.7376 0.6525,42.5726 1.4095,41.3576 C2.2935,39.9396 3.1415,38.4876 4.1475,37.1576 C6.3645,34.2266 8.6335,31.3566 10.1275,27.9396 C11.1825,25.5266 13.2515,24.0316 15.7345,23.4246 C18.1135,22.8416 19.3445,21.1906 20.3905,19.2976 C21.0015,18.1936 21.4175,16.9586 21.7705,15.7396 C22.5225,13.1356 23.2075,10.5116 23.8515,7.8786 C24.0335,7.1316 24.2145,6.2506 23.9875,5.5656 C23.5005,4.0926 24.0905,2.9076 24.6095,1.6576 C25.0615,0.5716 25.8845,0.3666 26.9585,0.5666 C30.9225,1.3066 33.9255,4.7506 34.0095,8.8216 C34.0465,10.6566 34.0395,12.5136 33.7915,14.3256 C33.6115,15.6326 33.0255,16.8896 32.5725,18.1526 C32.3975,18.6406 32.0895,19.0806 31.6945,19.8186 C34.0035,19.5686 35.6315,18.5676 37.0355,17.2946 C39.3985,15.1516 41.6325,12.8656 43.9215,10.6406 C44.5505,10.0286 45.1555,9.3876 45.8205,8.8156 C47.1395,7.6826 48.0765,7.6506 49.3915,8.8306 C51.2895,10.5316 52.2745,12.7616 51.9905,15.2566 C51.7225,17.6126 51.0825,19.9426 50.4255,22.2326 C49.9085,24.0306 48.7315,25.4566 47.2615,26.6456 C45.7725,27.8496 44.4045,29.2076 42.8765,30.3556 C40.6015,32.0656 37.8295,32.7096 35.2065,33.6586 C34.2465,34.0056 33.2805,34.3376 32.3015,34.6816 C32.3005,37.3186 33.2505,39.1666 35.5455,40.1976 C35.9645,40.3856 36.4695,40.6216 36.8835,40.5476 C40.5255,39.8946 44.0205,40.9856 47.5695,41.3916 C49.9315,41.6616 52.2805,42.0496 54.8025,42.4086 C55.0945,40.6156 56.1145,39.5716 57.9045,39.2526 C58.4085,39.1626 58.8285,38.6566 59.3135,38.3896 C61.0215,37.4456 62.7565,37.7156 64.1295,39.1126 C64.7935,39.7876 65.4645,40.4566 66.1255,41.1346 C67.8805,42.9346 67.4295,46.1626 65.0275,48.1276 C66.2805,50.1406 67.0215,52.3516 67.1445,54.7936 C67.2555,57.0066 66.8895,59.1186 66.0865,61.1276 C64.4495,65.2216 61.9135,68.7786 58.1885,71.1066 C54.5875,73.3566 50.4725,74.1636 46.2355,73.0256 C45.2205,72.7526 44.1885,72.0886 43.4585,71.3236 C42.6515,70.4776 41.8525,70.1066 40.7385,70.2186 C40.1835,70.2736 39.6045,70.1736 39.0635,70.2776 C33.6195,71.3286 28.4285,69.9716 23.2735,68.5456 C21.6025,68.0836 20.0115,67.2406 18.4805,66.3976 C17.5305,65.8746 16.5715,65.1606 16.5925,63.8306 C18.6295,65.2336 20.6745,66.6126 23.0855,67.3366 C28.9645,69.0996 34.9395,69.7796 41.0365,68.8946 C41.7695,68.7876 42.5095,68.3216 43.1165,67.8546 C43.8905,67.2576 44.6255,66.8636 45.6495,66.7026 C46.8095,66.5206 48.1335,66.2656 48.8745,65.1856 C47.7735,63.7336 46.7175,62.4356 45.7685,61.0636 C44.6935,59.5086 44.2355,57.7236 44.2985,55.8466 C44.3495,54.3276 45.5865,53.6256 47.2435,54.0636 C46.8895,54.4706 46.2065,54.9066 46.2375,55.2826 C46.3865,57.0816 46.2215,59.0006 47.5285,60.5166 C48.4155,61.5456 49.1995,62.7246 50.2655,63.5206 C51.6435,64.5486 52.1965,65.7176 51.7235,67.1986 C52.3405,67.4246 52.7795,67.5866 53.4025,67.8156 C51.3045,69.4626 48.8865,69.2906 46.4115,70.1466 C47.9215,70.8536 49.0305,71.7736 50.1875,71.8396 C53.5525,72.0326 56.7105,71.1866 59.1665,68.6856 C60.3385,67.4916 61.4515,66.2136 62.4175,64.8496 C64.8445,61.4256 66.2345,57.6896 65.5515,53.3816 C64.9395,49.5256 62.6585,47.0846 59.1385,45.6976 C55.1315,44.1186 51.0835,42.8066 46.7125,42.4526 C42.7605,42.1316 38.8685,41.1126 34.8875,42.3126 C33.5525,42.7156 32.4955,43.1526 31.6265,44.4146 C30.6535,45.8266 29.2325,46.9566 27.9015,48.0846 C27.3925,48.5156 26.5215,48.9136 25.9385,48.7826 C24.6165,48.4856 23.6205,49.1076 22.4995,49.4826 C21.2185,49.9116 19.9115,50.3036 18.5855,50.5536 C16.8825,50.8736 15.1495,51.0366 13.5475,51.2516 C13.0545,52.1616 12.6615,52.9396 12.2225,53.6896 C10.7725,56.1646 8.6905,57.9946 6.2795,59.4896 C4.8845,60.3546 3.7345,61.4086 3.5135,63.2376 C4.7655,65.0136 6.4695,65.5606 8.5245,64.9876 C10.5235,64.4306 12.4935,63.7706 14.4815,63.1736 C15.0105,63.0146 15.5565,62.8166 16.0955,62.8166 C16.7915,62.8156 16.7375,63.3586 16.6135,63.8586" id="Fill-40" fill="#000000"></path>
        <path d="M16.6134,63.859 C16.7374,63.359 16.7914,62.816 16.0954,62.817 C15.5564,62.817 15.0104,63.014 14.4814,63.173 C12.4934,63.771 10.5234,64.43 8.5244,64.988 C6.4694,65.561 4.7654,65.013 3.5134,63.238 C3.7344,61.409 4.8844,60.354 6.2794,59.489 C8.6904,57.995 10.7724,56.164 12.2224,53.69 C12.6614,52.94 13.0544,52.162 13.5474,51.252 C15.1494,51.037 16.8824,50.874 18.5854,50.553 C19.9114,50.304 21.2184,49.912 22.4994,49.483 C23.6204,49.108 24.6164,48.485 25.9384,48.782 C26.5214,48.914 27.3924,48.516 27.9014,48.085 C29.2324,46.956 30.6534,45.827 31.6264,44.414 C32.4954,43.153 33.5524,42.716 34.8874,42.313 C38.8684,41.112 42.7604,42.132 46.7124,42.452 C51.0834,42.807 55.1314,44.119 59.1384,45.698 C62.6584,47.085 64.9394,49.525 65.5514,53.382 C66.2354,57.689 64.8444,61.426 62.4174,64.85 C61.4514,66.213 60.3384,67.492 59.1664,68.685 C56.7104,71.186 53.5524,72.033 50.1874,71.84 C49.0304,71.774 47.9214,70.854 46.4114,70.146 C48.8864,69.29 51.3044,69.463 53.4024,67.816 C52.7794,67.587 52.3404,67.425 51.7234,67.198 C52.1964,65.717 51.6434,64.548 50.2654,63.52 C49.1994,62.725 48.4154,61.545 47.5284,60.517 C46.2214,59 46.3864,57.082 46.2374,55.282 C46.2064,54.906 46.8894,54.471 47.2434,54.063 C45.5864,53.625 44.3494,54.328 44.2984,55.847 C44.2354,57.723 44.6934,59.509 45.7684,61.064 C46.7174,62.436 47.7734,63.734 48.8744,65.185 C48.1334,66.266 46.8094,66.521 45.6494,66.703 C44.6254,66.864 43.8904,67.258 43.1164,67.854 C42.5094,68.322 41.7694,68.788 41.0364,68.894 C34.9394,69.78 28.9644,69.1 23.0854,67.336 C20.6744,66.613 18.6294,65.234 16.5924,63.83 L16.6134,63.859 Z" id="Fill-42" fill="#3B82EE" class="icon__color"></path>
        <path d="M6.2627,44.3254 C6.2527,43.0904 5.0737,42.1964 4.0237,42.2584 C3.3397,42.2984 3.0407,42.7094 3.0837,43.3564 C3.1427,44.2224 4.1567,45.2064 5.0217,45.0694 C5.5247,44.9904 5.9647,44.5144 6.2627,44.3254 M20.2427,39.0064 C20.6947,38.8304 21.6247,38.5804 22.4377,38.1224 C23.3627,37.6004 23.6727,36.6894 23.3767,35.6464 C23.1047,34.6864 22.0567,33.9494 20.9857,34.0884 C20.2097,34.1884 19.4257,34.4274 18.7117,34.7504 C17.3477,35.3664 16.8157,36.3204 17.1327,37.3304 C17.4537,38.3554 18.4957,39.0244 20.2427,39.0064 M30.0187,33.8214 C29.5277,34.4284 29.1457,34.9014 28.5577,35.6294 C29.5087,35.7014 30.1587,35.7514 30.8537,35.8044 C30.9777,35.9754 31.2137,36.1514 31.2387,36.3544 C31.4027,37.6854 31.6957,39.0314 31.6177,40.3534 C31.4547,43.1324 30.2167,45.0604 27.2487,45.7974 C25.5137,46.2274 23.9277,47.2514 22.2707,47.9974 C16.7037,50.5024 11.2537,50.0214 5.8957,47.3404 C5.5417,47.1634 5.2027,46.9404 4.8907,46.6954 C1.6387,44.1354 1.4607,42.9084 3.9247,39.5154 C5.4247,37.4514 7.0497,35.4754 8.4877,33.3704 C9.3837,32.0594 10.0627,30.5954 10.7897,29.1754 C11.6037,27.5854 12.5367,26.1544 14.2497,25.3554 C15.4517,24.7954 16.5777,24.3884 17.8987,25.0194 C18.4527,25.2844 19.1467,25.2404 19.7667,25.3834 C22.0337,25.9074 23.9097,27.0074 25.1587,29.0484 C25.6407,29.8364 26.0367,30.4884 27.2897,30.5634 C28.9207,30.6614 29.3337,32.3604 30.0187,33.8214" id="Fill-44" fill="#3B82EE" class="icon__color"></path>
        <path d="M31.0188,29.9671 C30.8118,27.5641 32.2938,26.5811 34.0538,25.8521 C35.4538,25.2721 36.8798,24.7531 38.2898,24.1951 C40.3778,23.3701 41.7388,21.7861 42.9618,19.8561 C41.6958,19.2161 41.1728,20.1391 40.7168,20.7391 C39.6988,22.0801 38.3508,22.8341 36.8248,23.3961 C35.7028,23.8101 34.5098,24.1421 33.5208,24.7781 C32.3448,25.5351 31.2158,26.4661 30.3318,27.5391 C29.7868,28.2001 29.5688,29.3141 31.0188,29.9671 M47.4708,9.2431 C49.6588,10.5841 50.5688,12.4051 50.5898,14.4221 C50.6378,19.0191 49.7148,23.3051 45.6518,26.2661 C44.3718,27.1981 43.3198,28.4521 42.0158,29.3421 C38.8728,31.4861 35.1878,32.3151 31.4878,33.5231 C31.0878,32.9951 30.6418,32.5481 30.3668,32.0121 C29.7278,30.7671 28.8548,29.8291 27.6108,29.1321 C25.7428,28.0841 25.5188,26.8411 26.9098,25.2701 C28.6068,23.3521 30.4158,21.5641 33.0848,20.9891 C35.1698,20.5401 36.8888,19.3591 38.4168,17.9281 C40.5118,15.9671 42.5478,13.9441 44.6148,11.9531 C45.5228,11.0791 46.4438,10.2171 47.4708,9.2431" id="Fill-46" fill="#3B82EE" class="icon__color"></path>
        <path d="M24.5716,25.9452 C22.6256,25.1452 20.7946,24.3932 18.7816,23.5662 C19.0706,23.0852 19.2566,22.5602 19.6156,22.2172 C21.6726,20.2532 22.5906,17.7492 23.1966,15.0612 C23.6176,13.1982 24.0726,11.3372 24.6296,9.5122 C25.1216,7.8992 25.5226,6.3892 25.0966,4.6202 C24.6106,2.5962 25.9826,1.5492 27.9196,2.3102 C30.8426,3.4572 32.6656,5.6452 32.8136,8.7882 C32.9256,11.1582 32.8046,13.6202 32.2516,15.9122 C31.8826,17.4422 30.6886,18.8362 29.6596,20.1292 C28.0816,22.1122 26.3286,23.9552 24.5716,25.9452" id="Fill-48" fill="#3B82EE" class="icon__color"></path>
        <path d="M49.7475,66.7296 C49.9145,66.4196 50.0815,66.1106 50.2485,65.8006 C50.3555,65.8476 50.4615,65.8946 50.5685,65.9416 C50.4455,66.2796 50.3225,66.6186 50.1995,66.9566 C50.0485,66.8806 49.8985,66.8056 49.7475,66.7296" id="Fill-50" fill="#FFFFFF"></path>
        <path d="M20.2424,39.0064 C18.4964,39.0244 17.4544,38.3554 17.1324,37.3304 C16.8154,36.3204 17.3474,35.3664 18.7114,34.7504 C19.4254,34.4274 20.2104,34.1884 20.9854,34.0884 C22.0564,33.9494 23.1054,34.6864 23.3774,35.6464 C23.6724,36.6894 23.3624,37.6004 22.4374,38.1224 C21.6244,38.5804 20.6944,38.8304 20.2424,39.0064" id="Fill-52" fill="#000000"></path>
        <path d="M6.2627,44.3254 C5.9647,44.5144 5.5247,44.9904 5.0217,45.0694 C4.1567,45.2064 3.1427,44.2224 3.0837,43.3564 C3.0407,42.7094 3.3397,42.2984 4.0237,42.2584 C5.0737,42.1964 6.2527,43.0904 6.2627,44.3254" id="Fill-54" fill="#000000"></path>
        <path d="M31.0188,29.9671 C29.5688,29.3141 29.7868,28.2001 30.3318,27.5391 C31.2158,26.4661 32.3448,25.5351 33.5208,24.7781 C34.5098,24.1421 35.7028,23.8101 36.8248,23.3961 C38.3508,22.8341 39.6988,22.0801 40.7168,20.7391 C41.1728,20.1391 41.6958,19.2161 42.9618,19.8561 C41.7388,21.7861 40.3778,23.3701 38.2898,24.1951 C36.8798,24.7531 35.4538,25.2721 34.0538,25.8521 C32.2938,26.5811 30.8118,27.5641 31.0188,29.9671" id="Fill-56" fill="#000000"></path>
    </g>
</svg>
