<svg width="73px" height="73px" viewBox="235 190 73 73" version="1.1" xmlns="http://www.w3.org/2000/svg" xmlns:xlink="http://www.w3.org/1999/xlink">
    <g id="Group-3" stroke="none" stroke-width="1" fill="none" fill-rule="evenodd" transform="translate(235.000000, 190.000000)">
        <path d="M9.021,4.902 C23.212,7.994 37.379,10.543 51.589,4.909 C47.149,4.654 42.705,4.598 38.265,4.427 C35.802,4.331 33.337,4.118 30.889,3.823 C26.382,3.28 21.899,2.509 17.382,2.09 C15.192,1.887 12.941,2.199 10.729,2.405 C9.413,2.528 8.814,3.393 9.021,4.902 M59.388,70.591 C58.749,69.323 58.354,68.393 57.834,67.539 C57.129,66.379 56.32,65.282 55.572,64.147 C53.873,61.569 54.405,61.199 50.863,62.264 C50.409,62.401 49.92,62.434 49.444,62.488 C44.683,63.028 39.876,63.313 35.175,64.173 C31.231,64.895 27.375,64.674 23.492,64.238 C19.535,63.793 16.358,65.504 14.486,69.428 C15.236,70.425 16.35,70.442 17.469,70.463 C24.82,70.602 32.171,70.748 39.522,70.884 C40.321,70.899 41.121,70.86 41.921,70.858 C47.105,70.85 52.289,70.851 57.474,70.833 C57.931,70.832 58.388,70.721 59.388,70.591 M67.624,15.855 C66.679,14.806 65.695,13.671 64.665,12.581 C62.863,10.676 61.027,8.802 59.216,6.905 C58.831,6.501 58.57,5.921 58.115,5.659 C57.623,5.375 56.909,5.143 56.401,5.283 C54.408,5.831 52.436,6.471 50.498,7.191 C42.414,10.192 34.043,10.298 25.652,9.406 C20.263,8.834 14.936,7.683 9.572,6.849 C8.93,6.749 7.874,6.771 7.619,7.149 C6.198,9.251 4.913,11.452 3.691,13.679 C3.174,14.621 3.602,15.439 4.369,16.23 C7.269,19.224 11.604,20.19 15.58,18.465 C16.756,17.954 17.692,17.735 18.507,18.897 C21.108,22.602 25.415,21.94 28.273,20.659 C29.877,19.941 30.793,20.092 32.105,21.048 C35.37,23.426 39.11,23.612 41.913,21.39 C43.222,20.353 44.137,20.34 45.514,21.058 C48.055,22.384 50.753,22.45 52.89,20.415 C54.348,19.028 55.529,18.876 57.328,19.54 C60.557,20.731 65.023,20.389 67.624,15.855 M3.263,17.657 L2.592,17.857 C2.334,19.559 1.876,21.258 1.855,22.963 C1.789,28.476 1.69,34 1.979,39.501 C2.213,43.957 2.716,48.489 5.797,52.121 C7.13,53.693 8.59,55.173 10.106,56.572 C16.386,62.367 24.016,63.672 32.168,62.937 C36.613,62.537 41.029,61.837 45.467,61.359 C49.451,60.93 53.394,60.313 57.072,58.674 C58.423,58.072 59.727,57.186 60.794,56.16 C63.692,53.372 65.821,50.005 67.801,46.511 C70.251,42.191 71.139,37.444 71.089,32.679 C71.045,28.491 69.962,24.312 69.284,20.137 C69.192,19.572 68.787,19.058 68.484,18.433 C68.012,18.726 67.703,18.847 67.489,19.063 C64.704,21.879 61.294,22.219 57.723,21.287 C56.099,20.864 54.889,21.01 53.518,21.991 C51.173,23.669 48.515,24.098 45.803,22.92 C44.592,22.394 43.647,22.393 42.466,23.082 C38.979,25.116 35.402,24.951 32.035,22.823 C30.793,22.039 29.777,22.01 28.465,22.432 C24.591,23.678 20.882,23.622 17.76,20.538 C16.974,19.761 16.151,19.996 15.319,20.305 C13.714,20.9 12.121,21.093 10.391,20.803 C7.745,20.358 5.304,19.533 3.263,17.657 M54.073,3.262 C53.382,2.711 52.99,2.398 52.293,1.843 C54.434,1.557 56.169,1.704 57.495,2.94 C59.238,4.564 60.766,6.415 62.417,8.14 C63.461,9.231 64.488,10.356 65.649,11.314 C68.318,13.517 70.257,16.126 71.044,19.571 C72.188,24.572 73.202,29.572 72.918,34.75 C72.519,42.057 69.64,48.358 65.125,53.971 C63.832,55.578 62.426,57.165 60.805,58.415 C59.256,59.61 57.36,60.355 55.428,61.4 C56.704,63.345 57.934,65.19 59.13,67.057 C59.646,67.863 60.197,68.673 60.543,69.555 C61.184,71.194 60.238,72.389 58.487,72.373 C47.059,72.27 35.631,72.189 24.203,72.088 C21.332,72.062 18.453,72.099 15.596,71.875 C14.683,71.803 13.554,71.182 13.017,70.451 C12.314,69.494 13.106,68.439 13.834,67.692 C15.21,66.282 16.679,64.964 18.294,63.433 C17.398,62.91 16.762,62.438 16.053,62.141 C12.208,60.53 9.095,57.873 6.213,54.996 C3.632,52.42 1.835,49.23 1.268,45.583 C0.754,42.278 0.425,38.92 0.33,35.577 C0.132,28.634 -0.139,21.665 1.589,14.836 C1.881,13.684 2.271,12.519 2.837,11.48 C4.436,8.544 6.191,5.693 7.798,2.761 C8.438,1.592 9.325,1.12 10.59,0.804 C14.213,-0.102 17.754,0.747 21.312,1.089 C27.112,1.647 32.898,2.348 38.697,2.916 C40.037,3.048 41.408,2.831 42.762,2.872 C46.026,2.971 49.288,3.13 52.55,3.26 C52.934,3.275 53.319,3.262 54.073,3.262" id="Fill-278" fill="#000000"></path>
        <path d="M60.7151,49.9354 C61.0601,49.2944 61.1761,49.1634 61.1991,49.0164 C61.2371,48.7844 61.3071,48.4814 61.2001,48.3114 C59.0071,44.8314 59.4381,41.4524 61.3891,38.0174 C61.8001,37.2944 61.9891,36.1614 60.6051,35.3194 C58.8661,37.3954 57.3361,39.8264 54.3091,40.2904 C51.5511,40.7144 48.8291,41.2144 46.3851,38.9334 C47.6341,37.5234 48.4771,36.0654 47.6031,34.2874 C46.7701,32.5934 45.8451,30.9444 45.0581,29.4604 C43.1121,29.4604 41.2011,29.6514 39.3521,29.3974 C37.9691,29.2064 36.7871,29.2854 35.7621,30.1614 C33.2431,32.3154 30.7861,34.5264 27.3811,35.2334 C26.8771,35.3384 26.4481,35.8304 25.9961,36.1594 C24.2721,37.4154 22.3281,38.0364 20.2251,38.3094 C18.8111,38.4924 17.4161,38.8324 16.0221,39.1454 C15.8511,39.1834 15.7391,39.4894 15.5341,39.7564 C15.8991,40.2724 16.2531,40.7744 16.6161,41.2884 C16.3841,41.8594 16.1541,42.4244 15.8041,43.2834 C16.8871,43.8864 17.8951,44.4684 18.9221,45.0164 C20.3821,45.7964 22.0561,46.3174 23.2821,47.3664 C25.9351,49.6364 28.9951,50.2564 32.2351,49.8464 C34.0771,49.6124 35.1931,50.2654 36.4951,51.3374 C37.6861,52.3174 39.1661,53.0024 40.6071,53.6044 C41.8651,54.1304 42.8941,53.6804 44.0451,52.7404 C45.7381,51.3574 46.0201,50.0004 45.1581,48.1544 C45.0081,47.8334 45.0691,47.4134 45.0151,46.8494 C49.6151,46.2004 53.9951,45.7014 57.9531,48.7334 C58.7141,49.3154 59.7561,49.5304 60.7151,49.9354 L60.7151,49.9354 Z M3.2631,17.6564 C5.3041,19.5334 7.7451,20.3584 10.3911,20.8024 C12.1211,21.0934 13.7141,20.9004 15.3191,20.3044 C16.1511,19.9964 16.9731,19.7614 17.7601,20.5384 C20.8821,23.6224 24.5911,23.6784 28.4651,22.4324 C29.7771,22.0104 30.7931,22.0394 32.0341,22.8234 C35.4021,24.9504 38.9791,25.1164 42.4651,23.0824 C43.6471,22.3934 44.5921,22.3944 45.8031,22.9204 C48.5151,24.0974 51.1731,23.6694 53.5181,21.9904 C54.8891,21.0094 56.0981,20.8634 57.7231,21.2874 C61.2941,22.2184 64.7031,21.8784 67.4891,19.0624 C67.7021,18.8464 68.0121,18.7264 68.4841,18.4324 C68.7871,19.0584 69.1921,19.5724 69.2841,20.1374 C69.9621,24.3114 71.0451,28.4914 71.0891,32.6794 C71.1391,37.4434 70.2501,42.1914 67.8011,46.5114 C65.8201,50.0044 63.6921,53.3724 60.7941,56.1604 C59.7271,57.1864 58.4231,58.0724 57.0711,58.6744 C53.3941,60.3134 49.4511,60.9294 45.4671,61.3584 C41.0291,61.8364 36.6131,62.5374 32.1681,62.9374 C24.0161,63.6714 16.3861,62.3664 10.1051,56.5724 C8.5901,55.1734 7.1301,53.6934 5.7971,52.1214 C2.7151,48.4884 2.2131,43.9574 1.9791,39.5004 C1.6901,34.0004 1.7891,28.4754 1.8551,22.9634 C1.8761,21.2584 2.3341,19.5584 2.5921,17.8564 L3.2631,17.6564 Z" id="Fill-280" fill="#3B82EE" class="icon__color"></path>
        <path d="M67.6244,15.8548 C65.0234,20.3888 60.5574,20.7308 57.3274,19.5398 C55.5294,18.8758 54.3474,19.0278 52.8904,20.4158 C50.7524,22.4498 48.0544,22.3838 45.5134,21.0588 C44.1364,20.3398 43.2224,20.3528 41.9134,21.3898 C39.1094,23.6128 35.3704,23.4258 32.1044,21.0478 C30.7924,20.0928 29.8774,19.9408 28.2734,20.6598 C25.4144,21.9408 21.1084,22.6028 18.5074,18.8968 C17.6914,17.7358 16.7564,17.9538 15.5794,18.4648 C11.6044,20.1908 7.2694,19.2238 4.3684,16.2298 C3.6024,15.4388 3.1734,14.6208 3.6904,13.6788 C4.9124,11.4518 6.1974,9.2508 7.6184,7.1488 C7.8744,6.7718 8.9304,6.7488 9.5724,6.8488 C14.9364,7.6828 20.2624,8.8338 25.6524,9.4058 C34.0434,10.2978 42.4134,10.1928 50.4974,7.1908 C52.4354,6.4708 54.4084,5.8308 56.4004,5.2828 C56.9094,5.1428 57.6234,5.3748 58.1144,5.6588 C58.5694,5.9208 58.8314,6.5008 59.2164,6.9048 C61.0264,8.8028 62.8624,10.6758 64.6644,12.5818 C65.6954,13.6708 66.6784,14.8058 67.6244,15.8548" id="Fill-282" fill="#FFFFFF"></path>
        <path d="M59.3875,70.5911 C58.3875,70.7211 57.9305,70.8311 57.4735,70.8331 C52.2895,70.8511 47.1045,70.8501 41.9205,70.8581 C41.1215,70.8591 40.3215,70.8981 39.5225,70.8841 C32.1705,70.7471 24.8195,70.6021 17.4685,70.4631 C16.3505,70.4421 15.2365,70.4251 14.4865,69.4281 C16.3585,65.5041 19.5355,63.7931 23.4925,64.2381 C27.3745,64.6741 31.2305,64.8951 35.1745,64.1731 C39.8765,63.3131 44.6835,63.0281 49.4435,62.4881 C49.9195,62.4341 50.4085,62.4011 50.8635,62.2641 C54.4045,61.1981 53.8735,61.5691 55.5725,64.1471 C56.3195,65.2821 57.1295,66.3791 57.8345,67.5391 C58.3535,68.3931 58.7495,69.3231 59.3875,70.5911" id="Fill-284" fill="#FFFFFF"></path>
        <path d="M9.021,4.902 C8.814,3.393 9.413,2.528 10.729,2.405 C12.941,2.199 15.192,1.887 17.382,2.09 C21.899,2.509 26.382,3.28 30.889,3.823 C33.337,4.118 35.802,4.331 38.265,4.427 C42.705,4.598 47.149,4.654 51.589,4.909 C37.379,10.543 23.212,7.994 9.021,4.902" id="Fill-286" fill="#FFFFFF"></path>
        <path d="M36.2873,49.0462 C38.6323,52.1242 40.5493,52.6342 42.7433,51.1752 C43.6733,50.5572 44.1513,49.9992 43.6863,48.8732 C43.2273,47.7592 42.4903,47.1862 41.2893,47.5192 C39.6503,47.9752 38.0323,48.5092 36.2873,49.0462 M44.8733,38.2212 C46.5723,36.0692 46.6103,35.5742 45.4893,33.7872 C45.1543,33.2532 44.8633,32.6862 44.6043,32.1112 C44.2263,31.2692 43.6533,30.9712 42.7083,31.0782 C41.6983,31.1922 40.6063,31.3202 39.6533,31.0612 C37.3413,30.4342 35.9923,31.6662 34.2253,33.4582 C38.8453,33.2362 41.6703,35.9912 44.8733,38.2212 M18.3073,42.7232 C20.9133,44.3182 23.2313,45.8072 25.6223,47.1672 C26.5683,47.7052 27.6503,48.1632 28.7153,48.3012 C31.2753,48.6322 33.8473,48.4392 36.2393,47.3902 C40.7083,45.4292 45.3633,44.7262 50.2173,44.8472 C53.2333,44.9232 56.0983,45.2562 58.5053,47.2932 C58.5813,47.3572 58.7773,47.2822 59.1853,47.2512 C57.7783,45.1022 57.2283,42.8892 58.6103,40.4672 C57.8413,40.6322 57.3673,40.8882 56.8693,41.0852 C53.1403,42.5592 49.4483,42.9542 45.9003,40.5892 C44.3763,39.5732 42.8873,38.5022 41.3903,37.4452 C39.3123,35.9772 36.8733,35.2342 34.4613,35.2312 C31.6173,35.2282 28.7893,35.8962 26.3653,37.7312 C25.3753,38.4812 24.1203,38.9272 22.9293,39.3522 C21.9223,39.7112 20.8343,39.8402 19.4693,40.1402 C20.3903,40.6802 20.9613,41.0152 21.8593,41.5422 C20.4453,42.0122 19.3733,42.3682 18.3073,42.7232 M60.7153,49.9352 C59.7563,49.5312 58.7143,49.3152 57.9533,48.7332 C53.9943,45.7022 49.6143,46.2002 45.0143,46.8492 C45.0693,47.4132 45.0073,47.8332 45.1583,48.1542 C46.0193,50.0002 45.7383,51.3572 44.0453,52.7402 C42.8943,53.6802 41.8653,54.1302 40.6073,53.6052 C39.1663,53.0022 37.6863,52.3172 36.4953,51.3372 C35.1933,50.2652 34.0763,49.6132 32.2353,49.8462 C28.9953,50.2562 25.9353,49.6362 23.2823,47.3662 C22.0563,46.3172 20.3823,45.7962 18.9213,45.0162 C17.8953,44.4682 16.8863,43.8872 15.8033,43.2832 C16.1543,42.4242 16.3843,41.8592 16.6163,41.2892 C16.2533,40.7742 15.8993,40.2732 15.5343,39.7572 C15.7393,39.4892 15.8503,39.1842 16.0223,39.1452 C17.4153,38.8322 18.8103,38.4922 20.2243,38.3092 C22.3273,38.0362 24.2723,37.4152 25.9963,36.1592 C26.4483,35.8302 26.8773,35.3382 27.3813,35.2332 C30.7863,34.5262 33.2433,32.3152 35.7623,30.1612 C36.7863,29.2852 37.9693,29.2062 39.3523,29.3972 C41.2013,29.6522 43.1123,29.4602 45.0583,29.4602 C45.8453,30.9442 46.7703,32.5932 47.6033,34.2872 C48.4773,36.0652 47.6343,37.5232 46.3853,38.9332 C48.8293,41.2142 51.5513,40.7142 54.3093,40.2912 C57.3363,39.8262 58.8663,37.3952 60.6053,35.3192 C61.9883,36.1612 61.7993,37.2942 61.3893,38.0172 C59.4383,41.4522 59.0073,44.8312 61.2003,48.3112 C61.3073,48.4812 61.2373,48.7842 61.1993,49.0162 C61.1763,49.1632 61.0603,49.2952 60.7153,49.9352" id="Fill-288" fill="#000000"></path>
        <path d="M36.9285,44.6212 C38.7405,43.8772 38.8955,42.7612 38.7605,41.5432 C38.6585,40.6242 38.2815,39.9192 37.0235,40.0502 C37.0905,40.8092 37.1975,41.4292 37.1865,42.0472 C37.1735,42.7392 37.0545,43.4292 36.9285,44.6212 M40.6625,44.3802 C42.1915,43.9692 42.6935,43.0622 42.2545,41.5172 C41.8635,40.1442 41.4085,39.8942 40.0975,40.2622 C40.2875,41.6462 40.4755,43.0142 40.6625,44.3802 M33.7925,41.1922 C33.7265,39.7812 32.6145,38.5512 31.4575,38.6072 C30.3225,38.6622 29.3635,39.8732 29.4395,41.1552 C29.5145,42.4082 30.5185,43.2322 31.9225,43.1912 C33.1205,43.1552 33.8485,42.3772 33.7925,41.1922 M18.3075,42.7232 C19.3735,42.3682 20.4455,42.0122 21.8585,41.5422 C20.9615,41.0152 20.3905,40.6802 19.4695,40.1402 C20.8345,39.8402 21.9225,39.7112 22.9285,39.3522 C24.1205,38.9272 25.3755,38.4812 26.3655,37.7312 C28.7895,35.8962 31.6175,35.2282 34.4615,35.2312 C36.8735,35.2342 39.3115,35.9772 41.3905,37.4452 C42.8875,38.5022 44.3755,39.5732 45.9005,40.5892 C49.4485,42.9542 53.1405,42.5592 56.8685,41.0852 C57.3665,40.8892 57.8415,40.6332 58.6095,40.4672 C57.2285,42.8892 57.7785,45.1032 59.1855,47.2512 C58.7775,47.2822 58.5815,47.3582 58.5055,47.2932 C56.0985,45.2562 53.2335,44.9232 50.2165,44.8472 C45.3635,44.7262 40.7075,45.4292 36.2395,47.3902 C33.8465,48.4392 31.2755,48.6322 28.7155,48.3012 C27.6495,48.1642 26.5685,47.7052 25.6225,47.1672 C23.2315,45.8072 20.9135,44.3182 18.3075,42.7232" id="Fill-290" fill="#FFFFFF"></path>
        <path d="M44.8733,38.2214 C41.6703,35.9914 38.8453,33.2364 34.2253,33.4584 C35.9923,31.6654 37.3413,30.4344 39.6533,31.0614 C40.6063,31.3204 41.6983,31.1924 42.7083,31.0784 C43.6533,30.9714 44.2263,31.2694 44.6043,32.1104 C44.8633,32.6864 45.1543,33.2534 45.4893,33.7874 C46.6103,35.5744 46.5723,36.0694 44.8733,38.2214" id="Fill-292" fill="#FFFFFF"></path>
        <path d="M36.2873,49.0462 C38.0323,48.5092 39.6503,47.9752 41.2893,47.5192 C42.4903,47.1862 43.2273,47.7592 43.6863,48.8732 C44.1513,49.9992 43.6733,50.5572 42.7433,51.1752 C40.5493,52.6342 38.6323,52.1242 36.2873,49.0462" id="Fill-294" fill="#FFFFFF"></path>
        <path d="M33.7928,41.1925 C33.8488,42.3775 33.1208,43.1555 31.9228,43.1905 C30.5188,43.2325 29.5148,42.4085 29.4398,41.1545 C29.3628,39.8725 30.3218,38.6625 31.4578,38.6065 C32.6148,38.5505 33.7258,39.7815 33.7928,41.1925" id="Fill-296" fill="#000000"></path>
        <path d="M40.6628,44.3801 C40.4758,43.0151 40.2878,41.6461 40.0978,40.2621 C41.4088,39.8941 41.8638,40.1441 42.2538,41.5171 C42.6938,43.0631 42.1908,43.9691 40.6628,44.3801" id="Fill-298" fill="#000000"></path>
        <path d="M36.9285,44.6212 C37.0545,43.4292 37.1735,42.7392 37.1865,42.0472 C37.1975,41.4292 37.0905,40.8092 37.0235,40.0502 C38.2815,39.9192 38.6585,40.6242 38.7605,41.5432 C38.8955,42.7612 38.7405,43.8772 36.9285,44.6212" id="Fill-300" fill="#000000"></path>
    </g>
</svg>
