<svg width="61px" height="87px" viewBox="612 254 61 87" version="1.1" xmlns="http://www.w3.org/2000/svg" xmlns:xlink="http://www.w3.org/1999/xlink">
    <defs></defs>
    <g id="Group-8" stroke="none" stroke-width="1" fill="none" fill-rule="evenodd" transform="translate(612.000000, 254.000000)">
        <g id="Group-34" transform="translate(0.000000, 0.911000)">
            <path d="M59.9248,81.4034 C59.9548,81.9534 59.9548,82.5134 59.8248,83.0434 C59.7748,83.2534 59.3748,83.4434 59.1048,83.5034 C58.9748,83.5334 58.6548,83.2634 58.6248,83.0934 C58.4348,82.0734 58.2248,81.0534 58.1648,80.0234 C58.0048,77.2934 57.8548,74.5734 57.6948,71.8434 C58.0748,71.6834 58.3848,71.5534 58.5848,71.4534 C58.8648,71.3134 59.1348,71.1334 59.3048,70.8534 C59.4048,72.9334 59.5248,75.0134 59.6348,77.1034 C59.7048,78.5334 59.8448,79.9734 59.9248,81.4034" id="Fill-18" fill="#000000"></path>
            <path d="M59.4648,69.8334 C59.5448,70.2834 59.4648,70.6034 59.3048,70.8534 C59.2948,70.5334 59.2748,70.2134 59.2648,69.9034 C59.3348,69.8834 59.4048,69.8534 59.4648,69.8334" id="Fill-20" fill="#000000"></path>
            <path d="M59.2648,69.9034 C59.2748,70.2134 59.2948,70.5334 59.3048,70.8534 C59.1348,71.1334 58.8648,71.3134 58.5848,71.4534 C58.3848,71.5534 58.0748,71.6834 57.6948,71.8434 C57.6748,71.3934 57.6548,70.9434 57.6248,70.4934 C58.2348,70.2734 58.7948,70.0734 59.2648,69.9034" id="Fill-22" fill="#000000"></path>
            <path d="M29.4848,43.7934 C30.3648,43.6634 30.5548,43.2234 30.3448,42.4834 C30.1548,41.7934 29.9648,41.0934 29.6948,40.4234 C28.7748,38.2134 27.8448,36.0034 26.8848,33.8034 C24.9848,29.4934 23.0748,25.1834 21.1548,20.8834 C20.9248,20.3834 20.5848,19.9234 20.3148,19.4334 C19.3348,17.6134 18.3348,15.8034 17.3948,13.9634 C16.6048,12.4234 15.8948,10.8434 15.1448,9.2834 C14.9348,9.3034 14.7248,9.3234 14.5148,9.3534 C13.8648,11.2234 13.1348,13.0634 12.5748,14.9634 C10.0148,23.6234 7.4848,32.2934 4.9848,40.9734 C4.6548,42.1134 4.4448,43.3034 4.3548,44.4934 C4.1948,46.5434 5.1748,47.4134 7.2548,47.1234 C10.9648,46.6134 14.6648,46.0734 18.3748,45.5134 C22.0748,44.9534 25.7748,44.3334 29.4848,43.7934 M30.7448,78.4834 C30.7848,74.1634 30.7648,69.8434 30.7648,65.5334 L30.7048,65.5334 C30.7048,61.8534 30.7348,58.1734 30.6948,54.5034 C30.6748,52.8634 30.9648,51.1434 29.7648,49.7134 C29.6348,49.5534 29.5648,49.1234 29.6648,49.0334 C30.9448,47.8934 30.0948,47.5734 29.0448,47.2434 C28.8448,47.1734 28.6348,46.7334 28.6448,46.4734 C28.7048,45.2634 27.8848,45.4134 27.1848,45.5434 C26.0848,45.7434 25.0248,46.1434 23.9248,46.2934 C17.5948,47.1634 11.2648,47.9934 4.9248,48.8134 C2.8648,49.0834 2.6348,49.4334 2.8648,51.6434 C3.2848,55.6134 3.7748,59.5834 3.9648,63.5634 C4.2548,69.7034 4.3148,75.8634 4.4748,82.0134 C4.4848,82.1734 4.4748,82.3334 4.4848,82.4834 C4.6048,83.7134 4.8648,84.0434 6.1248,84.0734 C7.6348,84.1034 9.1648,84.0534 10.6748,83.9134 C15.2048,83.5234 19.7348,83.0834 24.2648,82.6234 C25.4548,82.5034 26.6448,82.3134 27.8048,82.0634 C30.2248,81.5234 30.7248,80.9434 30.7448,78.4834 M54.1048,32.1634 C55.0148,31.8534 55.3948,31.2434 55.0748,30.3134 C53.8048,26.6034 53.1548,22.7434 52.4548,18.9034 C51.7548,15.0634 50.7848,11.2734 49.9148,7.4634 C49.5248,5.7434 48.8648,4.1834 47.3548,2.9334 C47.0048,3.5434 46.7148,4.0234 46.4048,4.5534 C45.0148,3.1634 45.0148,3.1434 43.4248,3.4934 C42.4948,3.6934 41.5748,3.9934 40.6448,4.1834 C37.9948,4.7134 35.3448,5.3334 32.6748,5.7134 C28.6548,6.2734 24.6048,6.6534 20.5648,7.1234 C20.0948,7.1734 19.6348,7.3234 19.1748,7.4334 C16.3848,8.1234 16.3248,8.1534 17.5148,10.6934 C19.2848,14.4434 21.2548,18.1034 22.9348,21.8834 C25.7148,28.1534 28.3348,34.5034 31.0148,40.8134 C31.3848,41.6834 31.7448,42.5534 32.2148,43.6634 C34.7148,42.3334 36.8948,41.1734 39.0648,39.9934 C44.0248,37.2934 48.6848,34.0034 54.1048,32.1634 M59.1048,65.3634 C59.1348,66.8734 59.1948,68.3934 59.2648,69.9034 C58.7948,70.0734 58.2348,70.2734 57.6248,70.4934 C57.4348,66.9634 57.2348,63.4434 57.0148,59.9134 C56.8748,57.5334 56.5248,55.1634 56.3048,52.7934 C56.2748,52.4534 56.3648,51.9534 56.5948,51.7734 C57.4748,51.0934 57.5348,50.1334 57.5648,49.1834 C57.6848,44.6134 57.4448,40.0834 56.4948,35.5934 C56.4548,35.3634 56.3648,35.1334 56.2948,34.9034 C55.8248,33.5234 55.5348,33.3134 54.2148,33.8134 C52.7948,34.3434 51.3748,34.9034 50.0348,35.6134 C46.6448,37.4134 43.3048,39.3034 39.9448,41.1434 C38.1948,42.1034 36.4148,43.0034 34.6648,43.9734 C32.7348,45.0534 32.7348,45.1134 33.4248,47.1534 C33.5848,47.6134 33.7948,48.0634 33.8248,48.5334 C33.8448,48.8834 33.7148,49.4634 33.4748,49.5634 C32.2448,50.1334 32.3248,51.1834 32.3448,52.2234 C32.4448,58.8534 32.5848,65.4834 32.6548,72.1234 C32.6748,74.1934 32.5148,76.2734 32.4548,78.3534 C32.4448,78.8134 32.5148,79.2834 32.5648,79.9934 C36.4948,79.1334 39.6248,76.7634 43.2048,75.5134 C46.2948,74.4434 53.3548,72.0034 57.6248,70.4934 C57.6548,70.9434 57.6748,71.3934 57.6948,71.8434 C55.3148,72.8334 49.8948,74.8134 48.5848,75.1934 C44.1048,76.5034 40.1548,78.4734 35.9348,80.3634 C34.1848,81.1534 32.5048,82.0734 30.7448,82.8034 C28.2748,83.8334 25.6348,84.0134 23.0048,84.2634 C19.9048,84.5534 16.8148,84.9434 13.7148,85.2034 C11.1748,85.4134 8.6248,85.5234 6.0748,85.6134 C5.4548,85.6334 4.8248,85.4034 4.2048,85.2434 C3.4148,85.0334 2.9948,84.4734 3.0148,83.6534 C3.0448,82.2234 3.1048,80.7834 3.1548,79.3434 C3.1948,78.0734 3.3348,76.7934 3.2648,75.5234 C3.0548,71.6934 2.7948,67.8634 2.5048,64.0434 C2.1948,59.9734 1.8348,55.9134 1.4948,51.8534 C1.4748,51.6134 1.4848,51.3534 1.3948,51.1434 C0.3748,48.8134 0.8248,46.6734 2.0648,44.5434 C2.5448,43.7334 2.7648,42.7634 3.0148,41.8434 C4.1348,37.7534 5.1848,33.6534 6.3248,29.5734 C6.9748,27.2634 7.7848,25.0034 8.4648,22.7034 C9.1948,20.2534 9.7948,17.7634 10.5848,15.3334 C11.5948,12.2134 12.7048,9.1334 13.8448,6.0634 C14.3148,4.7834 14.7548,4.6634 15.6948,5.5534 C16.3048,6.1234 16.8248,6.2534 17.6148,6.1434 C22.8248,5.4234 28.0448,4.7834 33.2448,4.0234 C35.4548,3.6934 37.6748,3.2834 39.7948,2.6234 C42.2948,1.8334 45.0048,1.8334 47.3548,0.4334 C48.0348,0.0334 49.0648,0.1734 49.9448,0.1634 C50.7648,0.1634 51.2148,0.9634 50.6348,1.4334 C49.3948,2.4434 49.8548,3.2834 50.5348,4.2934 C50.8348,4.7434 51.0148,5.3034 51.1348,5.8434 C52.1848,10.6034 53.2048,15.3734 54.2348,20.1334 C54.7948,22.7134 55.2948,25.3034 55.9548,27.8534 C56.2048,28.8234 56.8148,29.7034 57.2548,30.6234 C57.4148,30.9634 57.6248,31.3134 57.6848,31.6734 C57.9248,33.3234 58.0448,34.9934 58.3448,36.6334 C59.0648,40.5134 58.9148,44.4234 58.9148,48.3334 C58.9148,54.0134 58.9748,59.6834 59.1048,65.3634" id="Fill-24" fill="#000000"></path>
            <path d="M56.4948,35.5934 C57.4448,40.0834 57.6848,44.6134 57.5648,49.1834 C57.5348,50.1334 57.4748,51.0934 56.5948,51.7734 C56.3648,51.9534 56.2748,52.4534 56.3048,52.7934 C56.5248,55.1634 56.8748,57.5334 57.0148,59.9134 C57.2348,63.4434 57.4348,66.9634 57.6248,70.4934 C53.3548,72.0034 46.2948,74.4434 43.2048,75.5134 C39.6248,76.7634 36.4948,79.1334 32.5648,79.9934 C32.5148,79.2834 32.4448,78.8134 32.4548,78.3534 C32.5148,76.2734 32.6748,74.1934 32.6548,72.1234 C32.5848,65.4834 32.4448,58.8534 32.3448,52.2234 C32.3248,51.1834 32.2448,50.1334 33.4748,49.5634 C33.7148,49.4634 33.8448,48.8834 33.8248,48.5334 C33.7948,48.0634 33.5848,47.6134 33.4248,47.1534 C32.7348,45.1134 32.7348,45.0534 34.6648,43.9734 C36.4148,43.0034 38.1948,42.1034 39.9448,41.1434 C43.3048,39.3034 46.6448,37.4134 50.0348,35.6134 C51.3748,34.9034 52.7948,34.3434 54.2148,33.8134 C55.5348,33.3134 55.8248,33.5234 56.2948,34.9034 C56.3648,35.1334 56.4548,35.3634 56.4948,35.5934" id="Fill-26" fill="#DF2D1C" class="icon__color"></path>
            <path d="M55.0748,30.3134 C55.3948,31.2434 55.0148,31.8534 54.1048,32.1634 C48.6848,34.0034 44.0248,37.2934 39.0648,39.9934 C36.8948,41.1734 34.7148,42.3334 32.2148,43.6634 C31.7448,42.5534 31.3848,41.6834 31.0148,40.8134 C28.3348,34.5034 25.7148,28.1534 22.9348,21.8834 C21.2548,18.1034 19.2848,14.4434 17.5148,10.6934 C16.3248,8.1534 16.3848,8.1234 19.1748,7.4334 C19.6348,7.3234 20.0948,7.1734 20.5648,7.1234 C24.6048,6.6534 28.6548,6.2734 32.6748,5.7134 C35.3448,5.3334 37.9948,4.7134 40.6448,4.1834 C41.5748,3.9934 42.4948,3.6934 43.4248,3.4934 C45.0148,3.1434 45.0148,3.1634 46.4048,4.5534 C46.7148,4.0234 47.0048,3.5434 47.3548,2.9334 C48.8648,4.1834 49.5248,5.7434 49.9148,7.4634 C50.7848,11.2734 51.7548,15.0634 52.4548,18.9034 C53.1548,22.7434 53.8048,26.6034 55.0748,30.3134" id="Fill-28" fill="#DF2D1C" class="icon__color"></path>
            <path d="M30.7648,65.5334 C30.7648,69.8434 30.7848,74.1634 30.7448,78.4834 C30.7248,80.9434 30.2248,81.5234 27.8048,82.0634 C26.6448,82.3134 25.4548,82.5034 24.2648,82.6234 C19.7348,83.0834 15.2048,83.5234 10.6748,83.9134 C9.1648,84.0534 7.6348,84.1034 6.1248,84.0734 C4.8648,84.0434 4.6048,83.7134 4.4848,82.4834 C4.4748,82.3334 4.4848,82.1734 4.4748,82.0134 C4.3148,75.8634 4.2548,69.7034 3.9648,63.5634 C3.7748,59.5834 3.2848,55.6134 2.8648,51.6434 C2.6348,49.4334 2.8648,49.0834 4.9248,48.8134 C11.2648,47.9934 17.5948,47.1634 23.9248,46.2934 C25.0248,46.1434 26.0848,45.7434 27.1848,45.5434 C27.8848,45.4134 28.7048,45.2634 28.6448,46.4734 C28.6348,46.7334 28.8448,47.1734 29.0448,47.2434 C30.0948,47.5734 30.9448,47.8934 29.6648,49.0334 C29.5648,49.1234 29.6348,49.5534 29.7648,49.7134 C30.9648,51.1434 30.6748,52.8634 30.6948,54.5034 C30.7348,58.1734 30.7048,61.8534 30.7048,65.5334 L30.7648,65.5334 Z" id="Fill-30" fill="#DF2D1C" class="icon__color"></path>
            <path d="M30.3448,42.4834 C30.5548,43.2234 30.3648,43.6634 29.4848,43.7934 C25.7748,44.3334 22.0748,44.9534 18.3748,45.5134 C14.6648,46.0734 10.9648,46.6134 7.2548,47.1234 C5.1748,47.4134 4.1948,46.5434 4.3548,44.4934 C4.4448,43.3034 4.6548,42.1134 4.9848,40.9734 C7.4848,32.2934 10.0148,23.6234 12.5748,14.9634 C13.1348,13.0634 13.8648,11.2234 14.5148,9.3534 C14.7248,9.3234 14.9348,9.3034 15.1448,9.2834 C15.8948,10.8434 16.6048,12.4234 17.3948,13.9634 C18.3348,15.8034 19.3348,17.6134 20.3148,19.4334 C20.5848,19.9234 20.9248,20.3834 21.1548,20.8834 C23.0748,25.1834 24.9848,29.4934 26.8848,33.8034 C27.8448,36.0034 28.7748,38.2134 29.6948,40.4234 C29.9648,41.0934 30.1548,41.7934 30.3448,42.4834" id="Fill-32" fill="#DF2D1C" class="icon__color"></path>
        </g>
    </g>
</svg>
