<svg width="51px" height="117px" viewBox="118 242 51 117" version="1.1" xmlns="http://www.w3.org/2000/svg" xmlns:xlink="http://www.w3.org/1999/xlink">
    <defs></defs>
    <g id="Group-6" stroke="none" stroke-width="1" fill="none" fill-rule="evenodd" transform="translate(118.000000, 242.000000)">
        <g id="Group-3">
            <g id="Group-7">
                <g id="Group-134" transform="translate(0.000000, 0.911000)" fill="#000000">
                    <path d="M34.5658,113.0562 L34.5658,112.9712 C35.1238,112.9712 35.6828,112.9882 36.2398,112.9682 C37.7078,112.9142 37.7828,112.8702 37.6478,111.4792 C37.4088,109.0162 37.0948,106.5602 36.8458,104.0982 C36.7008,102.6702 36.6808,101.2272 36.4958,99.8052 C36.3238,98.4922 35.8628,98.1792 34.5668,98.2932 C33.5338,98.3852 32.5028,98.5112 31.4718,98.6272 C29.7218,98.8232 29.6028,98.9622 29.8038,100.7272 C30.1838,104.0572 30.5888,107.3852 30.9598,110.7162 C31.2088,112.9622 31.2738,113.0382 33.6078,113.0562 C33.9268,113.0582 34.2468,113.0562 34.5658,113.0562 M39.3048,113.3152 C40.2968,113.2582 41.3148,113.2162 42.3308,113.1382 C44.4528,112.9762 44.8358,112.6912 45.1438,110.6402 C45.4398,108.6672 45.7758,106.6732 45.7748,104.6892 C45.7738,101.2852 46.2798,97.8122 44.8628,94.5232 C44.7898,94.3552 44.9388,94.0912 45.0198,93.6962 C45.6888,94.0862 46.2618,94.4212 47.0978,94.9092 C46.7268,91.8222 46.3978,89.0602 46.0608,86.2992 C45.7908,84.0822 45.5628,81.8592 45.2148,79.6552 C44.9908,78.2362 44.7478,78.0642 43.3178,78.0462 C42.2028,78.0332 41.0638,78.0392 39.9738,78.2452 C32.8648,79.5882 25.6988,79.7082 18.4978,79.4612 C13.8788,79.3032 9.2578,78.7292 4.6298,79.4032 C2.7168,79.6822 2.5188,79.7492 2.6608,81.5652 C2.8838,84.4232 3.2038,87.2782 3.5848,90.1202 C3.8628,92.1922 4.0268,94.2202 3.5258,96.2952 C3.2298,97.5202 3.1618,98.8162 3.1218,100.0842 C3.0618,102.0002 3.0678,103.9212 3.1368,105.8362 C3.1848,107.1782 3.2858,108.5332 3.5388,109.8492 C3.9968,112.2342 4.3788,112.5052 6.8018,112.6082 C7.3598,112.6322 7.9208,112.6172 8.4788,112.5882 C14.2278,112.2922 19.9678,112.4002 25.7008,112.9342 C26.6538,113.0222 27.6158,113.0552 28.5718,113.0422 C29.4828,113.0302 29.8238,112.5212 29.6748,111.6132 C29.4938,110.5112 29.3638,109.4002 29.2318,108.2912 C28.8718,105.2782 28.4988,102.2672 28.1778,99.2502 C27.9878,97.4592 28.2468,97.2372 30.0908,97.0962 C31.9168,96.9562 33.7398,96.7712 35.5608,96.5832 C37.3188,96.4012 37.5648,96.5662 37.7208,98.2202 C38.0428,101.6332 38.3348,105.0492 38.6748,108.4602 C38.8228,109.9562 39.0588,111.4422 39.3048,113.3152 M10.0138,6.2282 C10.0898,7.0352 10.0968,7.4792 10.1778,7.9082 C10.7148,10.7292 11.5888,13.5292 11.7458,16.3692 C12.0548,21.9712 13.1388,27.4472 14.1918,32.9072 C15.5868,40.1422 15.0958,47.1862 13.2618,54.2242 C12.8798,55.6922 12.4358,57.1452 12.0878,58.6202 C10.6828,64.5712 8.5618,70.2162 5.0978,75.3022 C4.8948,75.5992 4.7678,75.9492 4.5428,76.3992 C7.6028,77.1592 10.5478,77.3512 13.4798,77.4322 C19.6278,77.6012 25.7698,77.4372 31.9058,76.9092 C35.1428,76.6302 38.4068,76.7532 41.6198,76.0632 C42.6618,75.8402 43.7908,76.0282 45.0608,76.0282 C44.9028,75.2632 44.8368,74.8012 44.7108,74.3562 C44.1218,72.2822 43.4888,70.2222 42.9228,68.1432 C41.3038,62.1962 39.1768,56.4372 36.6518,50.8172 C33.5338,43.8772 29.5418,37.4172 25.6258,30.9242 C23.8568,27.9922 21.5598,25.3802 19.7758,22.4562 C17.1178,18.1002 14.7148,13.5902 12.1708,9.1632 C11.6348,8.2302 11.2178,7.1792 10.0138,6.2282 M35.1088,115.1622 C30.0108,114.8472 24.9168,114.4252 19.8138,114.2542 C16.1478,114.1302 12.4658,114.2662 8.7978,114.4372 C7.1738,114.5132 5.6138,114.4602 4.0618,113.9892 C3.0448,113.6812 2.3738,113.0342 2.2118,112.0002 C1.9638,110.4252 1.6948,108.8392 1.6438,107.2522 C1.5538,104.4562 1.7828,101.6432 1.5808,98.8592 C1.3518,95.6892 1.3448,92.5552 1.4588,89.3742 C1.5888,85.7312 0.9948,82.0582 0.6468,78.4052 C0.5358,77.2362 0.6648,76.2152 1.3508,75.2282 C2.5828,73.4552 3.6588,71.5692 4.9518,69.8462 C7.0938,66.9902 8.3498,63.7072 9.7708,60.4932 C10.7998,58.1632 10.8038,55.6572 11.0628,53.2082 C11.3488,50.5112 11.4898,47.7902 11.5268,45.0762 C11.5958,40.1222 11.6608,35.1612 11.4958,30.2112 C11.3888,27.0272 10.7948,23.8622 10.5518,20.6782 C10.1908,15.9602 9.2338,11.3522 8.2238,6.7482 C8.0868,6.1232 7.9448,5.4992 7.7968,4.8772 C7.5468,3.8292 7.1548,2.9992 5.9488,2.6162 C4.8918,2.2802 4.8728,1.3672 5.7488,0.6462 C6.4588,0.0612 8.4228,-0.1388 9.1628,0.4172 C9.4938,0.6652 9.6378,1.1852 9.8188,1.6032 C10.1598,2.3862 10.4048,3.2162 10.7978,3.9702 C12.0168,6.3072 13.2878,8.6172 14.5338,10.9392 C15.2888,12.3452 15.9388,13.8182 16.8058,15.1502 C19.4668,19.2362 22.2698,23.2302 24.9098,27.3302 C31.3708,37.3602 37.4218,47.6302 41.6298,58.8402 C43.1708,62.9452 44.1648,67.2552 45.4228,71.4672 C45.6728,72.3082 46.0038,73.1252 46.2688,73.9612 C46.7538,75.4892 47.2978,76.8762 49.3898,76.4722 C49.6658,76.4182 50.2928,76.9472 50.3588,77.2842 C50.5098,78.0642 49.8078,78.1012 49.2478,78.1502 C48.9308,78.1782 48.6088,78.1572 48.2888,78.1592 C47.3968,78.1642 46.9468,78.6592 46.9548,79.5042 C46.9658,80.7002 46.9978,81.9012 47.1238,83.0892 C47.6878,88.4112 48.2888,93.7292 48.8758,99.0492 C48.9818,100.0102 49.1018,100.9482 48.1978,101.6892 C47.9428,101.8992 47.8588,102.3942 47.8168,102.7722 C47.5718,104.9942 47.4678,107.2372 47.1198,109.4412 C46.3308,114.4432 46.2368,114.6012 41.1198,114.9752 C39.1318,115.1212 37.1248,114.9992 35.1258,114.9992 C35.1198,115.0532 35.1148,115.1072 35.1088,115.1622" id="Fill-132"></path>
                </g>
                <path d="M10.0143,7.1392 C11.2183,8.0902 11.6353,9.1412 12.1713,10.0742 C14.7143,14.5012 17.1173,19.0112 19.7753,23.3672 C21.5603,26.2912 23.8573,28.9032 25.6253,31.8352 C29.5423,38.3282 33.5343,44.7882 36.6523,51.7282 C39.1773,57.3482 41.3033,63.1072 42.9223,69.0542 C43.4883,71.1332 44.1223,73.1942 44.7113,75.2672 C44.8373,75.7122 44.9033,76.1742 45.0603,76.9392 C43.7913,76.9392 42.6613,76.7512 41.6203,76.9742 C38.4073,77.6642 35.1433,77.5412 31.9063,77.8202 C25.7693,78.3482 19.6283,78.5122 13.4803,78.3432 C10.5483,78.2622 7.6033,78.0702 4.5433,77.3102 C4.7683,76.8602 4.8953,76.5102 5.0973,76.2132 C8.5623,71.1272 10.6833,65.4822 12.0883,59.5312 C12.4363,58.0562 12.8803,56.6032 13.2623,55.1352 C15.0953,48.0972 15.5863,41.0532 14.1913,33.8182 C13.1383,28.3582 12.0543,22.8822 11.7453,17.2802 C11.5893,14.4402 10.7143,11.6402 10.1783,8.8192 C10.0963,8.3902 10.0903,7.9462 10.0143,7.1392" id="Fill-135" fill="#DF2D1C" class="icon__color"></path>
                <path d="M16.4942,85.1298 L16.5342,85.1578 C15.2062,84.4118 13.8922,84.8888 12.5812,85.2118 C11.2832,85.5318 10.0682,86.1578 8.6232,85.7508 C7.8332,85.5278 7.3172,86.3868 7.5262,87.3698 C8.0902,90.0188 8.6952,92.6588 9.2192,95.3158 C9.3832,96.1438 9.7742,96.6138 10.5822,96.7368 C11.1312,96.8198 11.6882,96.9208 12.2392,96.9108 C14.9512,96.8618 17.6632,96.8078 20.3722,96.6958 C22.2292,96.6188 22.5992,96.2928 22.6972,94.4068 C22.8252,91.9358 22.8102,89.4578 22.8632,86.9818 C22.8802,86.1478 22.5322,85.5868 21.6832,85.4508 C19.9652,85.1748 18.2582,84.6738 16.4942,85.1298 M39.3052,114.2268 C39.0582,112.3528 38.8232,110.8668 38.6742,109.3718 C38.3352,105.9598 38.0432,102.5438 37.7202,99.1308 C37.5642,97.4768 37.3192,97.3128 35.5612,97.4938 C33.7392,97.6818 31.9172,97.8668 30.0912,98.0068 C28.2472,98.1478 27.9872,98.3698 28.1782,100.1618 C28.4982,103.1778 28.8722,106.1898 29.2312,109.2018 C29.3642,110.3118 29.4942,111.4228 29.6742,112.5248 C29.8232,113.4328 29.4822,113.9408 28.5722,113.9528 C27.6152,113.9658 26.6532,113.9338 25.7012,113.8448 C19.9682,113.3108 14.2282,113.2028 8.4792,113.4998 C7.9212,113.5278 7.3592,113.5428 6.8012,113.5188 C4.3792,113.4168 3.9962,113.1458 3.5392,110.7598 C3.2862,109.4448 3.1852,108.0888 3.1372,106.7468 C3.0682,104.8318 3.0622,102.9108 3.1222,100.9948 C3.1622,99.7268 3.2302,98.4318 3.5262,97.2058 C4.0262,95.1318 3.8632,93.1028 3.5852,91.0318 C3.2032,88.1888 2.8832,85.3348 2.6602,82.4758 C2.5192,80.6598 2.7172,80.5938 4.6302,80.3148 C9.2572,79.6398 13.8792,80.2148 18.4982,80.3728 C25.6982,80.6188 32.8652,80.4988 39.9742,79.1558 C41.0632,78.9498 42.2032,78.9438 43.3182,78.9578 C44.7482,78.9748 44.9912,79.1468 45.2152,80.5658 C45.5632,82.7698 45.7902,84.9938 46.0612,87.2098 C46.3982,89.9708 46.7262,92.7328 47.0982,95.8198 C46.2622,95.3318 45.6882,94.9978 45.0202,94.6078 C44.9382,95.0018 44.7902,95.2658 44.8632,95.4338 C46.2792,98.7238 45.7742,102.1968 45.7752,105.5998 C45.7752,107.5848 45.4402,109.5788 45.1442,111.5518 C44.8362,113.6028 44.4532,113.8868 42.3312,114.0498 C41.3152,114.1268 40.2972,114.1698 39.3052,114.2268" id="Fill-137" fill="#FFFFFF"></path>
                <path d="M34.5658,113.9672 C34.2468,113.9672 33.9268,113.9692 33.6078,113.9672 C31.2738,113.9492 31.2088,113.8732 30.9598,111.6272 C30.5888,108.2962 30.1838,104.9682 29.8038,101.6382 C29.6028,99.8732 29.7218,99.7342 31.4718,99.5382 C32.5028,99.4222 33.5338,99.2962 34.5668,99.2042 C35.8628,99.0902 36.3238,99.4032 36.4958,100.7162 C36.6808,102.1382 36.7008,103.5812 36.8458,105.0092 C37.0948,107.4712 37.4088,109.9272 37.6478,112.3902 C37.7828,113.7812 37.7078,113.8252 36.2398,113.8792 C35.6828,113.8992 35.1238,113.8822 34.5658,113.8822 L34.5658,113.9672" id="Fill-139" fill="#DF2D1C" class="icon__color"></path>
                <path d="M16.4942,85.1298 C18.2582,84.6738 19.9652,85.1748 21.6832,85.4508 C22.5322,85.5868 22.8802,86.1478 22.8632,86.9818 C22.8102,89.4578 22.8252,91.9358 22.6972,94.4068 C22.5992,96.2928 22.2292,96.6188 20.3722,96.6958 C17.6632,96.8078 14.9512,96.8618 12.2392,96.9108 C11.6882,96.9208 11.1312,96.8198 10.5822,96.7368 C9.7742,96.6138 9.3832,96.1438 9.2192,95.3158 C8.6952,92.6588 8.0902,90.0188 7.5262,87.3698 C7.3172,86.3868 7.8332,85.5278 8.6232,85.7508 C10.0682,86.1578 11.2832,85.5318 12.5812,85.2118 C13.8922,84.8888 15.2062,84.4118 16.5342,85.1578 C14.6682,85.8398 12.8102,86.5468 10.9332,87.1948 C9.5942,87.6578 9.3472,87.8628 9.5132,89.2318 C9.6862,90.6518 9.9832,92.0598 10.2792,93.4618 C10.6582,95.2528 10.9692,95.5928 12.8562,95.5528 C15.1572,95.5048 17.4542,95.2388 19.7532,95.0788 C20.6662,95.0158 21.0092,94.3968 21.0432,93.6368 C21.1272,91.7288 21.1372,89.8168 21.1652,87.9068 C21.1762,87.1458 20.7562,86.7498 20.0252,86.6228 C19.3982,86.5148 18.7792,86.3378 18.1482,86.2648 C17.3782,86.1748 16.7592,85.9268 16.4942,85.1298" id="Fill-141" fill="#000000"></path>
                <path d="M16.4942,85.1298 C16.7592,85.9268 17.3782,86.1748 18.1482,86.2648 C18.7792,86.3378 19.3982,86.5148 20.0252,86.6228 C20.7562,86.7498 21.1762,87.1458 21.1652,87.9068 C21.1372,89.8168 21.1272,91.7288 21.0432,93.6368 C21.0092,94.3968 20.6662,95.0158 19.7532,95.0788 C17.4542,95.2388 15.1572,95.5048 12.8562,95.5528 C10.9692,95.5928 10.6582,95.2528 10.2792,93.4618 C9.9832,92.0598 9.6862,90.6518 9.5132,89.2318 C9.3472,87.8628 9.5942,87.6578 10.9332,87.1948 C12.8102,86.5468 14.6682,85.8398 16.5342,85.1578 L16.4942,85.1298 Z" id="Fill-143" fill="#FFFFFF"></path>
            </g>
        </g>
    </g>
</svg>
