<svg width="76px" height="90px" viewBox="280 164 76 90" version="1.1" xmlns="http://www.w3.org/2000/svg" xmlns:xlink="http://www.w3.org/1999/xlink">
    <defs></defs>
    <g id="Group-131" stroke="none" stroke-width="1" fill="none" fill-rule="evenodd" transform="translate(280.000000, 164.000000)">
        <path d="M65.5506,12.601 C65.3006,11.691 64.7606,10.871 64.4306,9.981 C64.3606,9.781 64.6006,9.461 64.7006,9.191 C64.9106,9.281 65.2106,9.311 65.3106,9.471 C65.5706,9.861 65.7906,10.301 65.9406,10.741 C66.6206,12.871 67.3606,14.981 67.9206,17.131 C68.9306,21.041 69.8306,24.981 70.7806,28.911 C69.3806,27.361 68.9706,25.511 68.5006,23.681 C67.5406,19.981 66.5806,16.281 65.5506,12.601" id="Fill-93" fill="#000000"></path>
        <path d="M58.8706,45.691 C56.9406,46.021 56.5006,45.601 56.0306,43.691 C55.9406,43.301 55.8806,42.901 55.8406,42.511 C55.1606,35.981 53.8706,29.561 52.5806,23.131 C51.4306,17.411 50.2706,11.701 48.4706,6.131 C48.2006,5.281 47.8006,4.461 47.4606,3.621 L47.4306,2.061 C52.1706,1.981 56.9206,1.901 61.6606,1.821 C61.9806,1.811 62.3006,1.811 62.6206,1.821 C64.3106,1.871 64.3006,1.881 64.8006,3.391 C65.9406,6.801 67.1706,10.191 68.2106,13.631 C68.8006,15.611 69.1006,17.681 69.5306,19.711 C70.5206,24.411 71.4906,29.101 72.5006,33.791 C72.9406,35.821 73.4706,37.831 73.9706,39.851 C74.4606,41.841 73.6106,43.111 71.6306,43.341 C70.7606,43.441 69.8906,43.601 69.0306,43.721 C68.0906,43.861 67.4606,43.481 67.2606,42.541 C66.9206,40.901 66.6006,39.251 66.2906,37.601 C64.9206,30.291 63.6006,22.981 62.1606,15.691 C61.6906,13.341 60.9606,11.051 60.2906,8.741 C60.0406,7.881 59.8306,6.891 58.6806,6.581 C59.8406,11.391 60.9506,16.111 62.1006,20.811 C63.7206,27.501 65.0406,34.241 65.9206,41.061 C66.0006,41.701 66.1806,42.361 66.0606,42.961 C65.9706,43.421 65.5506,44.051 65.1506,44.161 C63.0806,44.761 60.9906,45.321 58.8706,45.691 M65.3106,9.471 C65.2106,9.311 64.9106,9.281 64.7006,9.191 C64.6006,9.461 64.3606,9.781 64.4306,9.981 C64.7606,10.871 65.3006,11.691 65.5506,12.601 C66.5806,16.281 67.5406,19.981 68.5006,23.681 C68.9706,25.511 69.3806,27.361 70.7806,28.911 C69.8306,24.981 68.9306,21.041 67.9206,17.131 C67.3606,14.981 66.6206,12.871 65.9406,10.741 C65.7906,10.301 65.5706,9.861 65.3106,9.471" id="Fill-95" fill="#DF2D1C" class="icon__color"></path>
        <path d="M57.0606,55.761 L57.6606,55.761 C57.8906,56.661 58.0706,57.581 58.3506,58.461 C58.7306,59.631 59.0706,59.841 60.3106,59.661 C61.0106,59.551 61.7206,59.381 62.3806,59.131 C63.0906,58.871 64.1906,58.631 64.3506,58.131 C64.7406,56.911 64.5106,55.541 63.5906,54.561 C63.2906,54.231 62.4306,54.281 61.8706,54.381 C60.2006,54.691 58.5906,54.701 56.5706,53.691 C59.1706,53.341 61.3006,53.021 63.4406,52.811 C63.8206,52.781 64.3806,53.111 64.6106,53.441 C65.7006,55.001 66.1906,56.721 65.8606,58.641 C65.7306,59.411 65.4106,60.021 64.6006,60.191 C62.5006,60.611 60.3906,60.971 58.2906,61.421 C57.3706,61.621 56.8906,61.401 56.9606,60.391 C57.0706,58.851 56.5406,57.271 57.0606,55.761" id="Fill-97" fill="#000000"></path>
        <path d="M36.9306,3.8111 C37.8406,7.9511 38.7906,12.0711 39.7506,16.2011 C41.1906,22.3611 41.9106,28.6311 42.6506,34.9011 C42.9106,37.1211 43.3306,39.3311 43.7006,41.5311 C43.8006,42.0811 43.9606,42.6311 44.1606,43.1411 C44.2206,43.3011 44.5206,43.3911 44.7306,43.4311 C44.8006,43.4411 44.9706,43.2111 44.9906,43.0811 C45.0406,42.8511 45.0406,42.6011 45.0006,42.3711 C43.6306,33.8511 42.3206,25.3211 40.8306,16.8211 C40.1406,12.8911 39.1206,9.0211 38.2506,5.1211 C38.1406,4.6511 38.0206,4.1911 37.9706,3.7111 C37.8706,2.8611 38.2406,2.3211 39.1406,2.2511 C39.5306,2.2211 39.9306,2.1911 40.3306,2.1811 C42.7006,2.1411 45.0606,2.1011 47.4306,2.0611 L47.4606,3.6211 C47.3006,3.6811 47.1506,3.7411 46.9906,3.8011 C47.1806,4.5411 47.3006,5.3111 47.5706,6.0211 C49.2306,10.4611 50.0406,15.1111 50.9306,19.7411 C51.9006,24.8511 52.9406,29.9411 53.8106,35.0611 C54.3406,38.2111 54.5906,41.4011 54.9706,44.5711 C55.0806,45.4611 54.6706,45.9711 53.8206,46.0711 C50.1206,46.5011 46.5106,47.6411 42.6606,46.8711 C40.5206,46.4411 38.2106,46.8011 35.9906,46.8111 C36.1006,45.9711 36.3806,45.1211 36.2706,44.3111 C35.6906,39.6311 35.0006,34.9711 34.3806,30.3011 C33.5806,24.2811 32.8406,18.2611 32.0106,12.2511 C31.7906,10.5911 31.3606,8.9511 31.0306,7.3111 C30.8206,6.2911 30.5606,5.2811 30.4106,4.2611 C30.2506,3.1011 30.4806,2.8411 31.6706,2.7511 C32.8606,2.6611 34.0606,2.7011 35.2606,2.5811 C36.2406,2.4811 36.7106,2.8311 36.9306,3.8111" id="Fill-99" fill="#DF2D1C" class="icon__color"></path>
        <path d="M39.9106,55.731 C40.6006,55.731 41.1306,55.351 40.7806,54.501 C42.4006,54.591 43.8906,55.771 45.6306,55.161 C45.7206,55.131 46.2206,55.721 46.1706,55.951 C45.7706,57.731 45.3106,59.501 44.7806,61.251 C44.7106,61.501 44.1606,61.781 43.8406,61.761 C42.4906,61.711 41.1406,61.611 39.8006,61.401 C39.4706,61.351 38.9906,60.841 38.9506,60.491 C38.7906,59.321 38.7506,58.121 38.7706,56.931 C38.7806,56.271 39.0206,55.741 39.9106,55.731" id="Fill-101" fill="#DF2D1C" class="icon__color"></path>
        <path d="M40.7806,54.4911 L40.7806,54.5011 L40.7406,54.5011 C40.7506,54.5011 40.7606,54.5011 40.7706,54.4911 L40.7806,54.4911 Z" id="Fill-103" fill="#DF2D1C" class="icon__color"></path>
        <path d="M40.7706,54.4911 C40.7606,54.5011 40.7506,54.5011 40.7406,54.5011 L40.7706,54.4711 C40.7706,54.4811 40.7806,54.4811 40.7706,54.4911" id="Fill-105" fill="#DF2D1C" class="icon__color"></path>
        <path d="M37.8106,62.0511 C37.5806,59.7511 37.3406,57.4411 37.1706,55.1411 C37.1206,54.4711 37.5006,54.0211 38.2306,54.4211 C39.0906,54.8811 39.9206,54.7311 40.7706,54.4711 L40.7406,54.5011 L40.7806,54.5011 C41.1306,55.3511 40.6006,55.7311 39.9106,55.7311 C39.0206,55.7411 38.7806,56.2711 38.7706,56.9311 C38.7506,58.1211 38.7906,59.3211 38.9506,60.4911 C38.9906,60.8411 39.4706,61.3511 39.8006,61.4011 C41.1406,61.6111 42.4906,61.7111 43.8406,61.7611 C44.1606,61.7811 44.7106,61.5011 44.7806,61.2511 C45.3106,59.5011 45.7706,57.7311 46.1706,55.9511 C46.2206,55.7211 45.7206,55.1311 45.6306,55.1611 C43.8906,55.7711 42.4006,54.5911 40.7806,54.5011 L40.7806,54.4911 C42.7206,54.1511 44.6306,53.7511 46.5806,53.5011 C47.5106,53.3811 48.0206,54.0811 47.9106,55.0611 C47.8606,55.5311 47.6906,55.9811 47.5606,56.4511 C47.0706,58.2111 46.5906,59.9811 46.0906,61.7411 C45.7806,62.8411 45.3406,63.1611 44.1906,63.1211 C42.4406,63.0711 40.7006,62.9911 38.9506,62.9811 C38.2706,62.9711 37.8806,62.7111 37.8106,62.0511" id="Fill-107" fill="#000000"></path>
        <path d="M38.9606,84.651 C37.1906,85.511 36.5306,85.181 36.6206,83.281 C36.8006,79.611 37.1206,75.961 37.3906,72.301 C37.4506,71.521 37.6806,70.731 36.7206,70.091 L37.0306,69.391 C37.1006,69.411 37.1606,69.431 37.2306,69.431 C38.5106,69.421 39.7906,69.391 41.0606,69.291 C42.3406,69.191 43.6006,68.981 44.8706,68.861 C46.2906,68.721 46.3606,68.871 46.2406,70.241 C45.9606,73.261 45.6306,76.281 45.5506,79.311 C45.5106,81.061 44.7206,81.891 43.2406,82.511 C41.7706,83.131 40.3906,83.951 38.9606,84.651" id="Fill-109" fill="#DF2D1C" class="icon__color"></path>
        <path d="M35.9906,46.8111 C35.9806,46.8211 35.9806,46.8411 35.9806,46.8511 L35.9706,46.8111 L35.9906,46.8111 Z" id="Fill-111" fill="#DF2D1C" class="icon__color"></path>
        <path d="M36.4406,69.0211 C36.6406,69.1311 36.8406,69.3011 37.0306,69.3911 L36.7206,70.0911 C35.9106,71.7411 35.8606,73.3811 35.8106,75.0411 C35.7006,78.1511 35.5006,81.2611 35.4206,84.3711 C35.3806,85.5211 34.9206,86.1611 33.8306,86.4311 C32.9706,86.6411 32.1506,86.9711 31.2906,87.1211 C30.3406,87.2911 29.9706,86.8611 30.1006,85.8911 C30.3306,84.2411 30.6306,82.6011 30.7806,80.9511 C31.5906,71.8811 32.3606,62.8011 33.1506,53.7311 C33.1706,53.4911 33.1806,53.2511 33.2106,53.0111 C33.6606,49.6711 33.6606,49.7111 36.9706,49.6811 C38.4806,49.6611 39.9906,49.5011 41.5006,49.3411 C46.4206,48.8111 51.3106,48.0711 56.2706,47.7911 C60.4706,47.5611 64.6206,46.5211 68.7906,45.8311 C69.9706,45.6411 71.1406,45.3811 72.3306,45.2411 C73.4106,45.1111 74.1806,46.1311 73.4806,46.8111 C71.8706,48.3811 72.4006,50.2011 72.5106,51.9911 C72.7306,55.7311 73.0206,59.4811 73.2606,63.2211 C73.3506,64.5011 73.3006,65.7811 73.4506,67.0511 C73.6106,68.4811 73.1206,69.4311 71.9306,70.2811 C69.7206,71.8811 67.5106,73.4111 64.8506,74.2111 C64.0106,74.4611 63.2106,74.8611 62.4406,75.2811 C59.8906,76.6611 57.1806,77.6011 54.3806,78.3211 C52.4506,78.8311 50.5606,79.4611 48.6406,80.0211 C47.4806,80.3611 47.1306,80.1611 47.1406,78.9911 C47.1406,77.5511 47.2706,76.1111 47.3706,74.6811 C47.5106,72.5311 47.6506,70.3811 47.8106,68.2311 C47.8606,67.5911 47.4606,67.3211 46.9606,67.3411 C43.9306,67.4411 40.8906,67.5811 37.8606,67.7311 C37.5606,67.7411 37.2006,67.8611 37.0006,68.0711 C36.7406,68.3111 36.6206,68.7011 36.4406,69.0211 M40.7706,54.4711 C39.9206,54.7311 39.0906,54.8811 38.2306,54.4211 C37.5006,54.0211 37.1206,54.4711 37.1706,55.1411 C37.3406,57.4411 37.5806,59.7511 37.8106,62.0511 C37.8806,62.7111 38.2706,62.9711 38.9506,62.9811 C40.7006,62.9911 42.4406,63.0711 44.1906,63.1211 C45.3406,63.1611 45.7806,62.8411 46.0906,61.7411 C46.5906,59.9811 47.0706,58.2111 47.5606,56.4511 C47.6906,55.9811 47.8606,55.5311 47.9106,55.0611 C48.0206,54.0811 47.5106,53.3811 46.5806,53.5011 C44.6306,53.7511 42.7206,54.1511 40.7806,54.4911 L40.7706,54.4911 C40.7806,54.4811 40.7706,54.4811 40.7706,54.4711 M57.6606,55.7611 L57.0606,55.7611 C56.5406,57.2711 57.0706,58.8511 56.9606,60.3911 C56.8906,61.4011 57.3706,61.6211 58.2906,61.4211 C60.3906,60.9711 62.5006,60.6111 64.6006,60.1911 C65.4106,60.0211 65.7306,59.4111 65.8606,58.6411 C66.1906,56.7211 65.7006,55.0011 64.6106,53.4411 C64.3806,53.1111 63.8206,52.7811 63.4406,52.8111 C61.3006,53.0211 59.1706,53.3411 56.5706,53.6911 C58.5906,54.7011 60.2006,54.6911 61.8706,54.3811 C62.4306,54.2811 63.2906,54.2311 63.5906,54.5611 C64.5106,55.5411 64.7406,56.9111 64.3506,58.1311 C64.1906,58.6311 63.0906,58.8711 62.3806,59.1311 C61.7206,59.3811 61.0106,59.5511 60.3106,59.6611 C59.0706,59.8411 58.7306,59.6311 58.3506,58.4611 C58.0706,57.5811 57.8906,56.6611 57.6606,55.7611" id="Fill-113" fill="#DF2D1C" class="icon__color"></path>
        <path d="M29.2806,88.7111 C28.9706,88.2511 28.9306,87.6511 28.9406,87.1011 C28.9606,87.1211 28.9806,87.1311 29.0006,87.1511 C29.1806,87.3111 29.4606,87.4311 29.5206,87.6211 C29.6306,87.9611 29.6006,88.3411 29.6306,88.7011 C29.5206,88.7011 29.4006,88.7111 29.2806,88.7111" id="Fill-115" fill="#000000"></path>
        <path d="M12.1206,49.8011 C12.3706,49.7811 12.7006,49.4911 12.8006,49.2511 C12.9406,48.9011 12.9006,48.4811 12.9406,48.0911 C13.1306,46.1211 13.3306,44.1611 14.3406,42.2611 C15.3906,42.6211 16.8506,42.6911 16.8006,44.0711 C16.7206,46.1511 16.6606,48.3511 15.1506,50.0811 C16.9806,51.5011 19.4306,52.5311 21.2006,52.6211 C21.4406,52.6411 21.7606,52.7011 21.9106,52.5811 C22.2206,52.3211 22.7006,51.9411 22.6806,51.6311 C22.4506,47.6011 23.2106,43.6611 24.1806,39.8111 C24.7706,37.4911 24.2006,35.2111 24.6706,32.9411 C24.8006,32.3211 24.3006,31.7311 23.6906,31.8811 C21.8806,32.3211 20.2106,31.7311 18.4906,31.4311 C17.6406,31.2811 16.6806,31.4411 15.9006,31.1311 C15.1506,30.8411 14.5706,30.1211 13.7906,29.4811 C13.3306,32.4111 12.8206,35.2111 12.4706,38.0411 C12.0706,41.2011 11.8206,44.3811 11.5306,47.5511 C11.4706,48.1011 11.4606,48.6711 11.5406,49.2111 C11.5806,49.4511 11.9306,49.8111 12.1206,49.8011 M21.1506,7.2411 C21.7906,6.0211 22.6706,4.9311 23.5106,3.6711 C23.9506,5.5111 24.3506,7.1211 24.7106,8.7311 C25.8606,13.9611 27.0906,19.1811 28.0906,24.4311 C29.2706,30.5511 30.2106,36.7211 31.3206,42.8511 C31.9906,46.4911 32.1406,50.1211 31.7706,53.7911 C31.3606,57.7711 31.0206,61.7511 30.6406,65.7311 C30.2206,70.1011 29.7506,74.4711 29.3706,78.8411 C29.1406,81.5411 28.9906,84.2511 28.9406,86.9611 L28.9406,87.1011 C26.1106,84.7311 20.8306,80.9211 18.0306,78.5811 C13.3606,74.6911 8.6806,70.8211 4.0106,66.9511 C3.7006,66.6911 3.4006,66.4211 3.1006,66.1711 C2.2206,65.4311 1.9806,64.4911 2.0606,63.3711 C2.4606,58.0311 2.9506,52.7011 3.1706,47.3511 C3.3406,43.1311 3.2106,38.8811 3.1206,34.6511 C3.0906,32.9111 3.4306,31.2311 4.3406,29.8611 C6.2406,27.0011 8.3706,24.3011 10.4606,21.5811 C12.2506,19.2311 14.2906,17.0611 15.9006,14.6011 C17.5506,12.0711 19.7206,9.9311 21.1506,7.2411" id="Fill-117" fill="#DF2D1C" class="icon__color"></path>
        <path d="M35.3706,45.0811 C35.4706,45.6811 35.7606,46.2311 35.9606,46.8111 C34.2706,47.0911 33.6406,46.8411 33.1706,45.5211 C32.9106,44.7711 32.7806,43.9711 32.6406,43.1911 C30.5706,30.9911 28.5706,18.7811 25.3806,6.8111 C25.3206,6.5811 25.2506,6.3511 25.2006,6.1111 C24.6306,3.4311 25.3106,2.7111 27.9706,3.0911 C28.9206,3.2211 29.3506,3.7811 29.5606,4.6211 C29.9306,6.1711 30.4206,7.7111 30.6506,9.2811 C31.4806,15.1211 32.2406,20.9711 33.0106,26.8211 C33.5906,31.2411 34.1606,35.6711 34.7306,40.1011 C34.9406,41.7611 35.1106,43.4311 35.3706,45.0811" id="Fill-119" fill="#DF2D1C" class="icon__color"></path>
        <path d="M20.7006,42.381 C20.2306,42.361 19.7506,42.351 19.2706,42.361 C18.3006,42.371 18.0206,41.841 18.1206,40.981 C18.1506,40.661 18.1706,40.341 18.2006,40.031 L18.1906,40.021 C18.3706,38.121 18.5606,36.231 18.7206,34.321 C18.8106,33.341 19.3006,32.891 20.2806,32.951 C20.5206,32.971 20.7506,32.981 20.9906,33.001 C24.1906,33.291 24.1306,32.961 23.5006,36.401 C23.2006,38.031 22.6706,39.611 22.2506,41.221 C22.0406,42.031 21.5506,42.421 20.7006,42.381" id="Fill-121" fill="#DF2D1C" class="icon__color"></path>
        <path d="M20.1006,50.7111 C19.2006,50.1811 17.4906,50.6611 17.3906,49.2711 C17.2606,47.5711 17.5206,45.8011 17.9506,44.1411 C18.2106,43.1111 19.4406,43.4911 20.2606,43.4911 C21.6406,43.5011 21.8006,43.7211 21.6106,45.0311 C21.5406,45.5011 21.4406,45.9711 21.2906,46.4211 C20.8106,47.8511 20.5806,49.2811 21.5806,51.1511 C20.6906,50.8911 20.3606,50.8611 20.1006,50.7111" id="Fill-123" fill="#DF2D1C" class="icon__color"></path>
        <path d="M17.1806,40.9011 C17.1306,41.5911 16.7206,41.7411 16.0106,41.6111 C14.1506,41.2511 13.8606,40.9411 14.0106,39.1211 C14.0706,38.3311 14.1306,37.5511 14.1906,36.8411 C14.1906,35.8111 14.1606,34.8611 14.2006,33.9111 C14.2506,32.6111 14.6806,32.0511 15.5506,32.0811 C16.8406,32.1111 17.6806,32.6911 17.6506,33.8011 C17.5706,36.1711 17.3706,38.5411 17.1806,40.9011" id="Fill-125" fill="#DF2D1C" class="icon__color"></path>
        <path d="M17.6506,33.8011 C17.6806,32.6911 16.8406,32.1111 15.5506,32.0811 C14.6806,32.0511 14.2506,32.6111 14.2006,33.9111 C14.1606,34.8611 14.1906,35.8111 14.1906,36.8411 C14.1306,37.5511 14.0706,38.3311 14.0106,39.1211 C13.8606,40.9411 14.1506,41.2511 16.0106,41.6111 C16.7206,41.7411 17.1306,41.5911 17.1806,40.9011 C17.3706,38.5411 17.5706,36.1711 17.6506,33.8011 M11.5406,49.2111 C11.4606,48.6711 11.4706,48.1011 11.5306,47.5511 C11.8206,44.3811 12.0706,41.2011 12.4706,38.0411 C12.8206,35.2111 13.3306,32.4111 13.7906,29.4811 C14.5706,30.1211 15.1506,30.8411 15.9006,31.1311 C16.6806,31.4411 17.6406,31.2811 18.4906,31.4311 C20.2106,31.7311 21.8806,32.3211 23.6906,31.8811 C24.3006,31.7311 24.8006,32.3211 24.6706,32.9411 C24.2006,35.2111 24.7706,37.4911 24.1806,39.8111 C23.2106,43.6611 22.4506,47.6011 22.6806,51.6311 C22.7006,51.9411 22.2206,52.3211 21.9106,52.5811 C21.7606,52.7011 21.4406,52.6411 21.2006,52.6211 C19.4306,52.5311 16.9806,51.5011 15.1506,50.0811 C16.6606,48.3511 16.7206,46.1511 16.8006,44.0711 C16.8506,42.6911 15.3906,42.6211 14.3406,42.2611 C13.3306,44.1611 13.1306,46.1211 12.9406,48.0911 C12.9006,48.4811 12.9406,48.9011 12.8006,49.2511 C12.7006,49.4911 12.3706,49.7811 12.1206,49.8011 C11.9306,49.8111 11.5806,49.4511 11.5406,49.2111 M17.9506,44.1411 C17.5206,45.8011 17.2606,47.5711 17.3906,49.2711 C17.4906,50.6611 19.2006,50.1811 20.1006,50.7111 C20.3606,50.8611 20.6906,50.8911 21.5806,51.1511 C20.5806,49.2811 20.8106,47.8511 21.2906,46.4211 C21.4406,45.9711 21.5406,45.5011 21.6106,45.0311 C21.8006,43.7211 21.6406,43.5011 20.2606,43.4911 C19.4406,43.4911 18.2106,43.1111 17.9506,44.1411 M18.7206,34.3211 C18.5606,36.2311 18.3706,38.1211 18.1906,40.0211 L18.2006,40.0311 C18.1706,40.3411 18.1506,40.6611 18.1206,40.9811 C18.0206,41.8411 18.3006,42.3711 19.2706,42.3611 C19.7506,42.3511 20.2306,42.3611 20.7006,42.3811 C21.5506,42.4211 22.0406,42.0311 22.2506,41.2211 C22.6706,39.6111 23.2006,38.0311 23.5006,36.4011 C24.1306,32.9611 24.1906,33.2911 20.9906,33.0011 C20.7506,32.9811 20.5206,32.9711 20.2806,32.9511 C19.3006,32.8911 18.8106,33.3411 18.7206,34.3211" id="Fill-127" fill="#000000"></path>
        <path d="M0.9006,63.1311 C1.5506,56.3711 1.9906,49.6011 1.9106,42.8011 C1.9006,41.8411 2.0506,40.8811 2.1306,39.9311 C2.3806,37.0511 2.3806,34.1911 1.3706,31.4211 C0.8806,30.0611 1.7006,29.1011 2.4506,28.1911 C3.0606,27.4711 3.9006,26.9411 4.5706,26.2611 C11.5306,19.2311 17.1806,11.2111 22.2706,2.7711 C22.7706,1.9411 23.1706,1.5011 24.2806,1.5211 C27.4706,1.6111 30.7006,1.8011 33.8406,1.3711 C38.7006,0.7011 43.5606,0.7511 48.4306,0.5911 C50.5006,0.5211 52.5706,0.3211 54.6506,0.2811 C58.0006,0.2111 61.3506,0.2211 64.7006,0.2111 C65.1006,0.2111 65.5006,0.2211 65.8906,0.3011 C67.1106,0.5411 67.3006,1.0011 66.4206,1.9211 C65.8506,2.5211 65.9506,3.0411 66.1506,3.6611 C67.0206,6.4011 67.7506,9.2011 68.8306,11.8611 C70.1906,15.1611 70.6006,18.6611 71.4206,22.0611 C72.8706,28.1211 74.1906,34.2211 75.5406,40.3011 C75.8606,41.7511 76.4706,43.2211 75.2406,44.6011 C75.0306,44.8311 75.1506,45.3711 75.1506,45.7711 C75.0906,52.5611 75.0306,59.3511 74.9606,66.1411 C74.9606,66.7011 74.9306,67.2611 74.9406,67.8211 C74.9606,70.7211 74.9806,70.7511 72.5406,72.1111 C69.6906,73.7111 66.8106,75.2511 63.9506,76.8011 C56.3006,80.9511 47.9606,83.2011 39.7206,85.7411 C37.2406,86.5111 34.8006,87.3111 32.2506,87.7911 C31.4006,87.9411 30.6706,88.6811 29.8106,89.2011 C29.5806,89.0711 29.4006,88.9111 29.2806,88.7111 C29.4006,88.7111 29.5206,88.7011 29.6306,88.7011 C29.6006,88.3411 29.6306,87.9611 29.5206,87.6211 C29.4606,87.4311 29.1806,87.3111 29.0006,87.1511 C28.9806,87.1311 28.9606,87.1211 28.9406,87.1011 L28.9406,86.9611 C28.9906,84.2511 29.1406,81.5411 29.3706,78.8411 C29.7506,74.4711 30.2206,70.1011 30.6406,65.7311 C31.0206,61.7511 31.3606,57.7711 31.7706,53.7911 C32.1406,50.1211 31.9906,46.4911 31.3206,42.8511 C30.2106,36.7211 29.2706,30.5511 28.0906,24.4311 C27.0906,19.1811 25.8606,13.9611 24.7106,8.7311 C24.3506,7.1211 23.9506,5.5111 23.5106,3.6711 C22.6706,4.9311 21.7906,6.0211 21.1506,7.2411 C19.7206,9.9311 17.5506,12.0711 15.9006,14.6011 C14.2906,17.0611 12.2506,19.2311 10.4606,21.5811 C8.3706,24.3011 6.2406,27.0011 4.3406,29.8611 C3.4306,31.2311 3.0906,32.9111 3.1206,34.6511 C3.2106,38.8811 3.3406,43.1311 3.1706,47.3511 C2.9506,52.7011 2.4606,58.0311 2.0606,63.3711 C1.9806,64.4911 2.2206,65.4311 3.1006,66.1711 C3.4006,66.4211 3.7006,66.6911 4.0106,66.9511 C8.6806,70.8211 13.3606,74.6911 18.0306,78.5811 C20.8306,80.9211 26.1106,84.7311 28.9406,87.1011 C28.9306,87.6511 28.9706,88.2511 29.2806,88.7111 C29.0906,88.7211 28.9106,88.7211 28.7606,88.6511 C28.4106,88.4911 25.5806,86.7311 25.2806,86.4711 C19.7606,81.7311 14.2906,76.9411 8.7206,72.2611 C6.4806,70.3711 4.0206,68.7311 1.7006,66.9311 C1.3706,66.6711 1.1006,66.1811 1.0306,65.7611 C0.9006,64.9011 0.8206,64.0011 0.9006,63.1311 M36.6206,83.2811 C36.5306,85.1811 37.1906,85.5111 38.9606,84.6511 C40.3906,83.9511 41.7706,83.1311 43.2406,82.5111 C44.7206,81.8911 45.5106,81.0611 45.5506,79.3111 C45.6306,76.2811 45.9606,73.2611 46.2406,70.2411 C46.3606,68.8711 46.2906,68.7211 44.8706,68.8611 C43.6006,68.9811 42.3406,69.1911 41.0606,69.2911 C39.7906,69.3911 38.5106,69.4211 37.2306,69.4311 C37.1606,69.4311 37.1006,69.4111 37.0306,69.3911 C36.8406,69.3011 36.6406,69.1311 36.4406,69.0211 C36.6206,68.7011 36.7406,68.3111 37.0006,68.0711 C37.2006,67.8611 37.5606,67.7411 37.8606,67.7311 C40.8906,67.5811 43.9306,67.4411 46.9606,67.3411 C47.4606,67.3211 47.8606,67.5911 47.8106,68.2311 C47.6506,70.3811 47.5106,72.5311 47.3706,74.6811 C47.2706,76.1111 47.1406,77.5511 47.1406,78.9911 C47.1306,80.1611 47.4806,80.3611 48.6406,80.0211 C50.5606,79.4611 52.4506,78.8311 54.3806,78.3211 C57.1806,77.6011 59.8906,76.6611 62.4406,75.2811 C63.2106,74.8611 64.0106,74.4611 64.8506,74.2111 C67.5106,73.4111 69.7206,71.8811 71.9306,70.2811 C73.1206,69.4311 73.6106,68.4811 73.4506,67.0511 C73.3006,65.7811 73.3506,64.5011 73.2606,63.2211 C73.0206,59.4811 72.7306,55.7311 72.5106,51.9911 C72.4006,50.2011 71.8706,48.3811 73.4806,46.8111 C74.1806,46.1311 73.4106,45.1111 72.3306,45.2411 C71.1406,45.3811 69.9706,45.6411 68.7906,45.8311 C64.6206,46.5211 60.4706,47.5611 56.2706,47.7911 C51.3106,48.0711 46.4206,48.8111 41.5006,49.3411 C39.9906,49.5011 38.4806,49.6611 36.9706,49.6811 C33.6606,49.7111 33.6606,49.6711 33.2106,53.0111 C33.1806,53.2511 33.1706,53.4911 33.1506,53.7311 C32.3606,62.8011 31.5906,71.8811 30.7806,80.9511 C30.6306,82.6011 30.3306,84.2411 30.1006,85.8911 C29.9706,86.8611 30.3406,87.2911 31.2906,87.1211 C32.1506,86.9711 32.9706,86.6411 33.8306,86.4311 C34.9206,86.1611 35.3806,85.5211 35.4206,84.3711 C35.5006,81.2611 35.7006,78.1511 35.8106,75.0411 C35.8606,73.3811 35.9106,71.7411 36.7206,70.0911 C37.6806,70.7311 37.4506,71.5211 37.3906,72.3011 C37.1206,75.9611 36.8006,79.6111 36.6206,83.2811 M36.9306,3.8111 C36.7106,2.8311 36.2406,2.4811 35.2606,2.5811 C34.0606,2.7011 32.8606,2.6611 31.6706,2.7511 C30.4806,2.8411 30.2506,3.1011 30.4106,4.2611 C30.5606,5.2811 30.8206,6.2911 31.0306,7.3111 C31.3606,8.9511 31.7906,10.5911 32.0106,12.2511 C32.8406,18.2611 33.5806,24.2811 34.3806,30.3011 C35.0006,34.9711 35.6906,39.6311 36.2706,44.3111 C36.3806,45.1211 36.1006,45.9711 35.9906,46.8111 L35.9706,46.8111 L35.9806,46.8511 C35.9806,46.8411 35.9806,46.8211 35.9906,46.8111 C38.2106,46.8011 40.5206,46.4411 42.6606,46.8711 C46.5106,47.6411 50.1206,46.5011 53.8206,46.0711 C54.6706,45.9711 55.0806,45.4611 54.9706,44.5711 C54.5906,41.4011 54.3406,38.2111 53.8106,35.0611 C52.9406,29.9411 51.9006,24.8511 50.9306,19.7411 C50.0406,15.1111 49.2306,10.4611 47.5706,6.0211 C47.3006,5.3111 47.1806,4.5411 46.9906,3.8011 C47.1506,3.7411 47.3006,3.6811 47.4606,3.6211 C47.8006,4.4611 48.2006,5.2811 48.4706,6.1311 C50.2706,11.7011 51.4306,17.4111 52.5806,23.1311 C53.8706,29.5611 55.1606,35.9811 55.8406,42.5111 C55.8806,42.9011 55.9406,43.3011 56.0306,43.6911 C56.5006,45.6011 56.9406,46.0211 58.8706,45.6911 C60.9906,45.3211 63.0806,44.7611 65.1506,44.1611 C65.5506,44.0511 65.9706,43.4211 66.0606,42.9611 C66.1806,42.3611 66.0006,41.7011 65.9206,41.0611 C65.0406,34.2411 63.7206,27.5011 62.1006,20.8111 C60.9506,16.1111 59.8406,11.3911 58.6806,6.5811 C59.8306,6.8911 60.0406,7.8811 60.2906,8.7411 C60.9606,11.0511 61.6906,13.3411 62.1606,15.6911 C63.6006,22.9811 64.9206,30.2911 66.2906,37.6011 C66.6006,39.2511 66.9206,40.9011 67.2606,42.5411 C67.4606,43.4811 68.0906,43.8611 69.0306,43.7211 C69.8906,43.6011 70.7606,43.4411 71.6306,43.3411 C73.6106,43.1111 74.4606,41.8411 73.9706,39.8511 C73.4706,37.8311 72.9406,35.8211 72.5006,33.7911 C71.4906,29.1011 70.5206,24.4111 69.5306,19.7111 C69.1006,17.6811 68.8006,15.6111 68.2106,13.6311 C67.1706,10.1911 65.9406,6.8011 64.8006,3.3911 C64.3006,1.8811 64.3106,1.8711 62.6206,1.8211 C62.3006,1.8111 61.9806,1.8111 61.6606,1.8211 C56.9206,1.9011 52.1706,1.9811 47.4306,2.0611 C45.0606,2.1011 42.7006,2.1411 40.3306,2.1811 C39.9306,2.1911 39.5306,2.2211 39.1406,2.2511 C38.2406,2.3211 37.8706,2.8611 37.9706,3.7111 C38.0206,4.1911 38.1406,4.6511 38.2506,5.1211 C39.1206,9.0211 40.1406,12.8911 40.8306,16.8211 C42.3206,25.3211 43.6306,33.8511 45.0006,42.3711 C45.0406,42.6011 45.0406,42.8511 44.9906,43.0811 C44.9706,43.2111 44.8006,43.4411 44.7306,43.4311 C44.5206,43.3911 44.2206,43.3011 44.1606,43.1411 C43.9606,42.6311 43.8006,42.0811 43.7006,41.5311 C43.3306,39.3311 42.9106,37.1211 42.6506,34.9011 C41.9106,28.6311 41.1906,22.3611 39.7506,16.2011 C38.7906,12.0711 37.8406,7.9511 36.9306,3.8111 M35.9606,46.8111 C35.7606,46.2311 35.4706,45.6811 35.3706,45.0811 C35.1106,43.4311 34.9406,41.7611 34.7306,40.1011 C34.1606,35.6711 33.5906,31.2411 33.0106,26.8211 C32.2406,20.9711 31.4806,15.1211 30.6506,9.2811 C30.4206,7.7111 29.9306,6.1711 29.5606,4.6211 C29.3506,3.7811 28.9206,3.2211 27.9706,3.0911 C25.3106,2.7111 24.6306,3.4311 25.2006,6.1111 C25.2506,6.3511 25.3206,6.5811 25.3806,6.8111 C28.5706,18.7811 30.5706,30.9911 32.6406,43.1911 C32.7806,43.9711 32.9106,44.7711 33.1706,45.5211 C33.6406,46.8411 34.2706,47.0911 35.9606,46.8111" id="Fill-129" fill="#000000"></path>
    </g>
</svg>
