<svg width="73px" height="55px" viewBox="283 341 73 55" version="1.1" xmlns="http://www.w3.org/2000/svg" xmlns:xlink="http://www.w3.org/1999/xlink">
    <defs></defs>
    <g id="Group-9" stroke="none" stroke-width="1" fill="none" fill-rule="evenodd" transform="translate(283.000000, 341.000000)">
        <path d="M42.8854,25.6048 C42.8524,25.2278 42.9344,24.5418 42.6964,23.9918 C42.5224,23.5878 41.9624,23.1918 41.5154,23.1078 C41.0454,23.0198 40.4034,23.1758 40.0234,23.4688 C39.6044,23.7898 40.2834,27.1928 40.7284,27.4748 C40.8564,27.5568 41.0164,27.5968 41.1684,27.6318 C42.3614,27.9008 42.8774,27.3658 42.8854,25.6048 M54.2094,27.8728 C54.0464,26.3638 53.9444,25.0198 53.7434,23.6898 C53.5964,22.7188 52.8764,22.4458 51.9734,22.4978 C51.0204,22.5528 50.7864,23.1518 50.8234,23.9668 C50.8454,24.4448 50.8664,24.9228 50.9164,25.3978 C51.1654,27.7428 51.4184,27.9478 54.2094,27.8728 M49.5794,25.5648 C49.5794,25.1668 49.6064,24.7668 49.5744,24.3718 C49.4624,23.0148 49.3584,22.9228 47.9954,22.8918 C47.7574,22.8868 47.5164,22.9278 47.2804,22.9078 C44.4464,22.6688 44.1934,23.4198 44.4604,26.1178 C44.6014,27.5438 44.9504,27.8728 46.3904,28.0248 C47.0204,28.0918 47.6614,28.0708 48.2974,28.0858 C49.2034,28.1078 49.5894,27.6238 49.5814,26.7578 C49.5774,26.3598 49.5804,25.9618 49.5794,25.5648 M31.9034,48.7838 C31.9454,48.7788 31.9864,48.7738 32.0284,48.7688 C31.8424,47.3468 31.7164,45.9138 31.4534,44.5058 C31.2044,43.1708 30.8884,42.9708 29.4924,42.9708 C24.6324,42.9698 19.7704,43.0358 14.9124,42.9538 C13.5574,42.9318 11.9774,43.2398 11.0074,41.7158 C10.8914,41.5328 10.1524,41.4648 10.0204,41.6188 C9.0904,42.6958 7.7774,42.7438 6.5564,43.0748 C2.2404,44.2428 2.2234,44.2858 2.7194,48.8128 C2.7634,49.2088 2.7614,49.6118 2.7514,50.0098 C2.7304,50.8368 3.1654,51.3198 3.8664,51.6848 C5.2574,52.4088 6.7284,52.5598 8.2734,52.5858 C10.5814,52.6248 12.8854,52.8898 15.1944,52.9438 C18.5374,53.0208 21.8604,53.7138 25.2184,53.2628 C26.5614,53.0818 27.9014,52.8798 29.2444,52.7008 C31.7514,52.3668 31.7954,52.3248 31.9014,49.7428 C31.9144,49.4238 31.9034,49.1038 31.9034,48.7838 M43.1634,19.7248 C43.9094,21.3548 45.1354,21.4628 46.4784,21.3248 C48.2174,21.1458 49.9604,20.9998 51.7014,20.8448 C52.4294,20.7798 53.0374,20.4458 52.9224,19.6758 C52.5544,17.1958 52.4784,14.7588 49.9324,13.0138 C45.2624,9.8148 40.0494,7.3748 35.9924,3.2928 C35.3704,2.6658 34.6754,2.8558 34.0554,3.3718 C33.0124,4.2418 31.9464,5.0888 30.9454,6.0058 C26.1604,10.3888 21.0954,14.4088 15.5414,17.7768 C14.1644,18.6118 13.5744,19.6228 13.5774,21.2708 C13.5874,26.1378 13.4134,31.0038 13.3544,35.8718 C13.3394,37.0628 13.4164,38.2668 13.5834,39.4458 C13.8604,41.4098 14.1484,41.5498 16.0344,41.4258 C17.7034,41.3168 19.3794,41.3058 21.0524,41.2988 C23.5254,41.2878 25.9974,41.3328 28.4704,41.3278 C33.3444,41.3188 38.2244,41.1448 43.0924,41.3188 C47.0014,41.4578 50.8974,41.7368 54.8044,41.3478 C55.3644,41.2918 55.7634,41.1508 55.7034,40.5258 C55.4174,37.5848 55.1234,34.6438 54.8044,31.7068 C54.6884,30.6478 54.0414,30.1888 52.9794,30.2818 C51.6304,30.3988 50.2794,30.4848 48.9304,30.6028 C45.7944,30.8778 42.6954,30.5678 39.6484,29.8648 C38.8584,29.6828 37.8294,29.2168 37.5044,28.5788 C36.3454,26.3038 36.4694,23.7738 36.6594,21.3028 C36.7254,20.4518 37.4054,20.3408 38.4104,20.8558 C40.3754,21.8648 41.5324,21.6498 43.1634,19.7248 M58.4254,43.8678 L67.6384,43.8678 C67.7414,44.9218 67.0714,45.1258 66.4724,45.2078 C65.2094,45.3818 63.9324,45.4788 62.6584,45.5348 C61.3804,45.5908 60.0994,45.5898 58.8204,45.5588 C57.6114,45.5288 56.4274,45.5348 56.1544,43.8448 C55.9974,42.8698 54.9424,42.8088 54.1804,42.9258 C48.9774,43.7208 43.8114,42.8298 38.6294,42.6778 C37.1944,42.6358 35.7554,42.7058 34.3174,42.7348 C33.4354,42.7528 32.9874,43.2018 33.0614,44.0988 C33.1284,44.8938 33.2774,45.6848 33.2964,46.4798 C33.3374,48.2338 33.3544,49.9898 33.3144,51.7438 C33.2854,53.0298 32.5934,53.7808 31.2934,54.0158 C28.2244,54.5698 25.1414,55.0178 22.0174,54.8388 C16.6754,54.5308 11.3264,54.2758 6.0014,53.7698 C1.9064,53.3808 1.1594,53.0948 1.1724,48.6638 C1.1754,47.4738 1.0094,46.2768 0.8354,45.0958 C0.5564,43.2058 0.6904,43.0428 2.6644,42.5208 C4.5924,42.0098 6.4964,41.4078 8.3994,40.8088 C9.0064,40.6188 9.5644,40.2788 10.1654,40.0668 C11.2034,39.7008 11.6454,39.0058 11.6904,37.9018 C11.8004,35.1888 12.0474,32.4798 12.1304,29.7658 C12.2074,27.2898 12.1644,24.8098 12.1224,22.3318 C12.1104,21.6288 11.9894,20.9088 11.7904,20.2338 C11.6464,19.7498 10.9984,19.2558 11.0894,18.8958 C11.2774,18.1498 11.7324,17.4288 12.2294,16.8218 C12.4704,16.5288 13.1324,16.2978 13.4704,16.4168 C14.5774,16.8068 15.3764,16.2348 16.1134,15.6728 C20.1784,12.5748 24.2264,9.4528 28.2324,6.2788 C30.1094,4.7908 31.8514,3.1328 33.7044,1.6138 C35.1164,0.4578 35.3494,0.5068 36.6754,1.7798 C39.0494,4.0588 41.6384,6.0158 44.5244,7.6398 C47.3704,9.2408 50.0814,11.0898 52.7924,12.9188 C53.2304,13.2138 53.4724,13.9398 53.6114,14.5128 C53.9284,15.8268 53.9964,17.2128 54.4164,18.4868 C54.6934,19.3278 55.6394,19.9678 55.8494,20.8068 C56.0364,21.5498 55.0104,22.2028 55.2474,23.2338 C55.6024,24.7818 55.6724,26.3928 55.9044,27.9708 C55.9974,28.5988 56.3444,28.9578 57.0764,28.8148 C57.7014,28.6918 58.3454,28.6568 58.9814,28.5958 C61.6694,28.3388 64.3584,28.0848 67.0464,27.8348 C67.8414,27.7608 68.4584,28.0038 68.7514,28.8188 C69.1294,29.8688 69.6764,30.8838 69.8784,31.9658 C70.6844,36.2788 71.3884,40.6108 72.1184,44.9378 C72.1704,45.2448 72.1944,45.5828 72.1174,45.8758 C72.0684,46.0608 71.8274,46.2798 71.6384,46.3208 C71.4524,46.3608 71.0874,46.2478 71.0334,46.1108 C70.7754,45.4528 70.5164,44.7778 70.4014,44.0838 C69.8104,40.5408 69.2684,36.9898 68.6974,33.4428 C68.6344,33.0508 68.4974,32.6698 68.3834,32.2878 C67.6144,29.6968 67.1764,29.8818 65.1604,29.5718 C62.4104,29.1498 59.9824,30.3908 57.3614,30.4048 C56.5764,30.4098 56.3364,31.0258 56.4134,31.7748 C56.6924,34.4758 56.9494,37.1778 57.2274,39.8788 C57.3374,40.9538 57.8474,41.5938 59.0164,41.7558 C59.8714,41.8748 60.6984,42.2378 61.5174,42.5448 C61.6874,42.6088 61.9154,42.9868 61.8654,43.0758 C61.7274,43.3148 61.4644,43.6258 61.2334,43.6418 C60.3024,43.7048 59.3654,43.6678 58.4304,43.6678 C58.4284,43.7348 58.4274,43.8018 58.4254,43.8678" id="Fill-35" fill="#000000"></path>
        <path d="M43.1635,19.7246 C41.5325,21.6496 40.3755,21.8646 38.4105,20.8556 C37.4055,20.3406 36.7255,20.4526 36.6595,21.3036 C36.4695,23.7736 36.3455,26.3046 37.5045,28.5786 C37.8295,29.2166 38.8585,29.6826 39.6485,29.8646 C42.6955,30.5676 45.7945,30.8776 48.9305,30.6026 C50.2795,30.4846 51.6305,30.3986 52.9795,30.2816 C54.0415,30.1896 54.6885,30.6476 54.8035,31.7066 C55.1235,34.6446 55.4175,37.5846 55.7025,40.5256 C55.7635,41.1506 55.3645,41.2916 54.8045,41.3476 C50.8965,41.7366 47.0015,41.4576 43.0915,41.3186 C38.2245,41.1456 33.3445,41.3186 28.4705,41.3286 C25.9975,41.3326 23.5255,41.2876 21.0525,41.2986 C19.3795,41.3056 17.7035,41.3166 16.0345,41.4266 C14.1485,41.5506 13.8605,41.4096 13.5835,39.4456 C13.4165,38.2666 13.3395,37.0626 13.3535,35.8716 C13.4125,31.0046 13.5875,26.1376 13.5775,21.2706 C13.5745,19.6226 14.1645,18.6116 15.5415,17.7776 C21.0955,14.4086 26.1605,10.3886 30.9455,6.0056 C31.9465,5.0886 33.0125,4.2416 34.0555,3.3726 C34.6755,2.8556 35.3705,2.6656 35.9925,3.2926 C40.0495,7.3746 45.2615,9.8146 49.9325,13.0136 C52.4785,14.7586 52.5545,17.1966 52.9225,19.6756 C53.0375,20.4456 52.4295,20.7806 51.7015,20.8446 C49.9605,21.0006 48.2175,21.1456 46.4785,21.3246 C45.1355,21.4626 43.9095,21.3546 43.1635,19.7246" id="Fill-37" fill="#DF2D1C" class="icon__color"></path>
        <path d="M31.9033,48.7841 C31.9033,49.1041 31.9143,49.4231 31.9013,49.7421 C31.7953,52.3251 31.7513,52.3671 29.2443,52.7011 C27.9013,52.8791 26.5613,53.0821 25.2183,53.2621 C21.8603,53.7141 18.5373,53.0211 15.1943,52.9431 C12.8863,52.8891 10.5813,52.6251 8.2733,52.5861 C6.7283,52.5601 5.2573,52.4091 3.8663,51.6851 C3.1653,51.3201 2.7303,50.8371 2.7513,50.0101 C2.7613,49.6111 2.7633,49.2091 2.7193,48.8131 C2.2233,44.2851 2.2403,44.2431 6.5563,43.0741 C7.7773,42.7441 9.0913,42.6961 10.0203,41.6181 C10.1523,41.4651 10.8913,41.5331 11.0073,41.7161 C11.9773,43.2401 13.5573,42.9311 14.9123,42.9541 C19.7713,43.0351 24.6323,42.9701 29.4923,42.9711 C30.8883,42.9711 31.2043,43.1711 31.4533,44.5061 C31.7163,45.9141 31.8423,47.3461 32.0283,48.7681 C31.9863,48.7741 31.9453,48.7791 31.9033,48.7841" id="Fill-39" fill="#DF2D1C" class="icon__color"></path>
        <path d="M49.5798,25.5645 C49.5808,25.9625 49.5778,26.3605 49.5808,26.7575 C49.5888,27.6235 49.2038,28.1075 48.2978,28.0865 C47.6608,28.0715 47.0208,28.0915 46.3898,28.0255 C44.9498,27.8735 44.6008,27.5435 44.4598,26.1175 C44.1928,23.4195 44.4458,22.6685 47.2798,22.9085 C47.5168,22.9285 47.7568,22.8865 47.9958,22.8925 C49.3578,22.9225 49.4628,23.0145 49.5738,24.3715 C49.6068,24.7665 49.5788,25.1665 49.5798,25.5645" id="Fill-41" fill="#FFFFFF"></path>
        <path d="M54.2096,27.8732 C51.4176,27.9472 51.1646,27.7422 50.9166,25.3982 C50.8666,24.9232 50.8456,24.4442 50.8236,23.9672 C50.7866,23.1522 51.0206,22.5532 51.9736,22.4982 C52.8766,22.4462 53.5966,22.7192 53.7436,23.6902 C53.9446,25.0202 54.0466,26.3642 54.2096,27.8732" id="Fill-43" fill="#FFFFFF"></path>
        <path d="M42.8854,25.6048 C42.8774,27.3658 42.3614,27.9008 41.1684,27.6318 C41.0164,27.5968 40.8564,27.5568 40.7284,27.4748 C40.2834,27.1928 39.6044,23.7898 40.0234,23.4688 C40.4034,23.1758 41.0454,23.0198 41.5154,23.1078 C41.9624,23.1918 42.5224,23.5878 42.6964,23.9918 C42.9344,24.5418 42.8524,25.2278 42.8854,25.6048" id="Fill-45" fill="#FFFFFF"></path>
    </g>
</svg>
