<svg width="63px" height="91px" viewBox="432 269 63 91" version="1.1" xmlns="http://www.w3.org/2000/svg" xmlns:xlink="http://www.w3.org/1999/xlink">
    <defs>
        <polygon id="path-1" points="0 89 62.77 89 62.77 0.869 0 0.869"></polygon>
    </defs>
    <g id="Page-1" stroke="none" stroke-width="1" fill="none" fill-rule="evenodd" transform="translate(432.000000, 269.311752)">
        <path d="M40.2601,34.071 C40.2601,33.674 40.2041,33.267 40.2701,32.881 C40.4891,31.613 41.3681,31.219 42.5161,31.821 C43.4241,32.298 44.3071,32.877 45.2741,33.179 C46.7671,33.647 47.4841,33.085 47.7361,31.51 C47.8851,30.574 47.9511,29.61 48.2291,28.712 C48.5361,27.718 48.9861,27.614 49.8331,28.148 C50.1001,28.317 50.3431,28.528 50.5891,28.73 C52.7961,30.552 52.7721,30.932 50.1561,32.202 C47.3721,33.552 44.5541,34.833 41.7391,36.119 C40.6111,36.634 40.3101,36.447 40.2181,35.263 C40.1871,34.868 40.2131,34.469 40.2131,34.071 L40.2601,34.071 Z" id="Fill-1" fill="#DF2D1C" class="icon__color"></path>
        <path d="M26.3349,13.7725 C28.9259,12.0415 31.6999,10.7135 34.6799,9.8305 C38.8919,8.5815 43.0779,7.2795 47.0849,5.4275 C49.0839,4.5045 51.2349,3.9105 53.2749,3.1825 C53.4249,3.4525 53.4829,3.5125 53.4879,3.5775 C53.4929,3.6475 53.4689,3.7655 53.4229,3.7875 C52.4889,4.2205 51.5699,4.6995 50.6069,5.0595 C42.5619,8.0645 34.6569,11.4565 26.3349,13.7725" id="Fill-3" fill="#FFFFFF"></path>
        <path d="M41.9811,17.8934 C41.9701,18.8494 42.0351,19.8134 41.9281,20.7584 C41.7841,22.0284 41.0371,22.4024 39.9321,21.8684 C39.8611,21.8344 39.7991,21.7774 39.7261,21.7494 C38.9521,21.4524 38.4651,20.1444 37.5721,20.7154 C37.1181,21.0044 37.2751,22.1694 37.0431,22.9024 C36.3851,24.9874 34.5451,25.3854 33.0661,23.8374 C32.3761,23.1164 32.1721,21.8984 30.9431,21.7204 L30.9631,21.7394 C31.1421,21.0574 31.6081,20.8434 32.2381,21.0424 C34.0481,21.6134 35.3031,20.9124 36.3361,19.4384 C36.5961,19.0664 37.3741,18.6144 37.6161,18.7464 C39.3551,19.6924 40.6821,18.8854 42.0141,17.9214 L41.9811,17.8934 Z" id="Fill-5" fill="#DF2D1C" class="icon__color"></path>
        <g id="Group-28" transform="translate(0.000000, 0.131200)">
            <path d="M29.2945,21.2722 C30.1445,20.1322 30.0545,19.8222 28.7245,19.3022 C28.1545,19.0822 27.5945,18.8222 26.9845,18.5622 C26.4345,19.1622 25.8845,19.7122 25.3945,20.3122 C24.6045,21.2822 24.8545,22.0022 26.0645,22.4022 C27.4945,22.8722 28.3145,22.5922 29.2945,21.2722 L29.2945,21.2722 Z M30.5645,48.9522 C31.0345,47.0722 31.2245,45.1322 30.7445,43.2522 C29.2445,37.2822 27.2745,31.4522 24.7745,25.8122 C23.5245,22.9922 21.9545,20.4322 18.9245,18.7822 C18.6945,19.0022 18.4445,19.1922 18.2445,19.4322 C15.3145,22.8122 12.3745,26.1822 9.4645,29.5722 C8.1145,31.1522 6.7945,32.7622 5.5045,34.3822 C5.1645,34.8122 4.6145,35.5122 4.7545,35.8022 C5.4245,37.1322 4.4545,38.3222 4.5945,39.5922 C4.7145,40.6222 4.6245,41.6722 4.5545,42.7122 C4.0945,49.2422 3.6245,55.7722 3.1645,62.3022 C3.0945,63.1722 3.0345,64.0522 2.9445,64.9222 C2.3145,70.8422 1.9245,70.7022 6.9145,74.0722 C13.3845,78.4622 20.2245,82.3022 26.9145,86.3622 C27.1445,86.4922 27.4845,86.4422 27.8445,86.4822 C27.9945,81.6422 28.3445,76.9322 28.2245,72.2422 C28.0245,64.3622 28.6745,56.6022 30.5645,48.9522 L30.5645,48.9522 Z M37.2645,38.1622 C36.3745,37.3722 35.5745,36.6722 34.5945,35.8122 C34.2745,37.2622 33.9845,38.3822 33.7745,39.5122 C33.6545,40.2122 34.1845,40.6322 34.7545,40.2622 C35.6445,39.6922 36.6145,39.1722 37.2645,38.1622 L37.2645,38.1622 Z M35.3645,27.4222 C35.6145,26.6722 35.3445,26.2622 34.5645,26.0122 C33.7445,25.7422 32.9745,25.3022 32.0245,24.8722 C31.6145,25.6622 31.3145,26.3022 30.9645,26.9122 C30.1645,28.3122 30.1645,28.3122 31.7645,29.4822 C32.0545,28.8322 32.3345,28.2122 32.6645,27.4922 C33.1245,27.6922 33.4845,27.8422 33.8445,28.0022 C34.5445,28.3222 35.0945,28.2122 35.3645,27.4222 L35.3645,27.4222 Z M33.7345,19.4822 C34.7245,19.2922 35.6245,18.1422 35.6045,17.0722 C35.4245,16.8722 35.1745,16.4222 34.8045,16.2822 C34.4445,16.1422 33.8345,16.1822 33.5645,16.4122 C33.0945,16.8022 32.7445,17.3722 32.4645,17.9322 C32.2745,18.3122 32.1045,19.0922 32.2345,19.1622 C32.6645,19.4122 33.2545,19.5722 33.7345,19.4822 L33.7345,19.4822 Z M38.9345,35.4622 C39.0245,34.5322 39.0145,33.5822 39.0045,32.6422 C38.9945,31.7222 38.5245,31.2122 37.5945,31.1622 C37.1945,32.4222 36.8145,33.6022 36.4645,34.7922 C36.2245,35.6222 36.8245,36.5622 37.6545,36.7822 C38.3245,36.9522 38.8245,36.4922 38.9345,35.4622 L38.9345,35.4622 Z M40.2745,28.5022 C40.7045,27.4822 39.7245,27.6122 39.2245,27.3422 C38.5545,26.9822 37.8945,26.5922 37.1445,26.1622 C36.8045,27.3222 36.5245,28.3122 36.2345,29.2822 L36.2145,29.2822 L36.2145,29.3022 C35.6145,29.4022 35.0045,29.4922 34.4045,29.6222 C33.9645,29.7122 33.3345,29.7222 33.1545,29.9922 C32.4145,31.1622 31.3945,31.1222 29.8545,30.5522 C30.3345,31.2922 30.4645,31.7222 30.7545,31.8922 C31.8445,32.5122 33.0045,33.0422 34.1245,33.6222 C34.8645,34.0122 35.4545,33.7922 35.6245,33.0522 C35.9045,31.8222 36.0245,30.5422 36.2145,29.3022 L36.2345,29.3022 L36.2345,29.2822 C36.8345,29.3822 37.4545,29.4422 38.0345,29.6022 C38.9845,29.8622 39.8445,29.5322 40.2745,28.5022 L40.2745,28.5022 Z M44.7145,20.7522 C44.7245,20.4322 44.2145,20.1022 43.8245,19.6322 C43.4945,20.8322 43.1745,21.7822 42.9845,22.7522 C42.9245,23.0422 43.2145,23.4022 43.3445,23.7222 C43.6645,23.5722 44.1845,23.4922 44.2545,23.2722 C44.5045,22.4522 44.6945,21.5922 44.7145,20.7522 L44.7145,20.7522 Z M46.3545,31.4222 C46.5245,30.7922 46.8945,30.0022 46.1445,29.4722 C44.9345,28.6422 43.6745,27.8722 42.2545,26.9622 C41.9045,29.6822 42.6145,30.8822 44.9945,31.7122 C45.5245,31.8922 46.1445,32.2122 46.3545,31.4222 L46.3545,31.4222 Z M48.2245,17.9422 C48.3745,17.9322 48.4945,17.1522 48.5545,16.7222 C48.5545,16.6722 47.9945,16.4022 47.8145,16.4922 C46.2145,17.2322 44.7645,16.9322 43.3045,16.0622 C42.5145,15.5922 42.1445,16.0422 42.0745,16.8422 C42.0445,17.1422 42.0345,17.4422 42.0145,17.7422 C42.0045,17.7522 41.9945,17.7522 41.9845,17.7622 L41.9845,17.8122 C40.6645,18.7622 39.3445,19.5522 37.6145,18.6122 C37.3745,18.4822 36.5945,18.9322 36.3345,19.3022 C35.3045,20.7822 34.0445,21.4822 32.2345,20.9122 C31.6045,20.7122 31.1445,20.9222 30.9645,21.6022 C30.9545,21.5922 30.9545,21.5922 30.9445,21.5922 C30.9445,21.6122 30.9345,21.6222 30.9345,21.6422 C30.1745,22.3222 29.4745,23.0722 28.6545,23.6822 C27.9545,24.2022 27.6945,24.7622 28.1945,25.4822 C28.4345,25.8122 28.9245,26.2122 29.2645,26.1822 C30.0945,26.1122 30.3745,25.4222 30.4845,24.6522 C30.6145,23.6422 30.7745,22.6422 30.9345,21.6422 C30.9445,21.6322 30.9545,21.6222 30.9645,21.6122 L30.9645,21.6022 C32.1745,21.7822 32.3745,22.9822 33.0645,23.7022 C34.5445,25.2522 36.3845,24.8522 37.0445,22.7722 C37.2745,22.0422 37.1145,20.8722 37.5745,20.5822 C38.4645,20.0122 38.9545,21.3222 39.7245,21.6222 C39.7945,21.6422 39.8645,21.7022 39.9345,21.7422 C41.0345,22.2722 41.7845,21.9022 41.9245,20.6222 C42.0345,19.7022 41.9745,18.7522 41.9845,17.8122 C41.9945,17.8022 42.0045,17.8022 42.0145,17.7922 L42.0145,17.7422 C42.5845,17.3822 43.2145,17.2122 43.6945,17.8122 C45.1545,19.6722 46.7145,18.0422 48.2245,17.9422 L48.2245,17.9422 Z M47.5645,14.7022 C48.4245,13.9522 48.6345,12.9822 48.4545,11.4222 C46.6445,13.7122 44.7545,14.6322 42.1645,13.5922 C41.1545,13.1922 40.1345,13.5622 39.5145,14.6522 C39.2345,15.1322 38.8345,15.5422 38.4745,15.9622 C38.1145,16.3722 37.9345,16.8622 38.4445,17.1822 C38.7845,17.3922 39.3645,17.4622 39.7245,17.3222 C40.5445,16.9922 40.7545,16.2122 40.9245,15.3922 C41.2545,13.8522 41.6045,13.7022 43.0245,14.3822 C43.5245,14.6222 43.9845,14.9422 44.4745,15.2022 C45.6245,15.7922 46.6345,15.5122 47.5645,14.7022 L47.5645,14.7022 Z M50.1545,32.0722 C52.7745,30.8022 52.7945,30.4222 50.5845,28.6022 C50.3445,28.3922 50.1045,28.1822 49.8345,28.0222 C48.9845,27.4822 48.5345,27.5822 48.2245,28.5822 C47.9545,29.4822 47.8845,30.4422 47.7345,31.3822 C47.4845,32.9522 46.7645,33.5122 45.2745,33.0522 C44.3045,32.7422 43.4245,32.1622 42.5145,31.6922 C41.3645,31.0922 40.4845,31.4822 40.2745,32.7522 C40.2045,33.1322 40.2645,33.5422 40.2645,33.9422 L40.2145,33.9422 C40.2145,34.3422 40.1845,34.7322 40.2145,35.1322 C40.3145,36.3122 40.6145,36.5022 41.7345,35.9922 C44.5545,34.7022 47.3745,33.4222 50.1545,32.0722 L50.1545,32.0722 Z M51.5045,23.3922 C51.5745,23.0022 51.5845,22.5922 51.5745,22.1922 C51.5245,20.8122 50.8845,20.3322 49.5645,20.7022 C48.8845,20.8922 48.2145,21.2322 47.5245,21.2722 C46.5045,21.3222 46.0445,21.8722 45.9845,22.7422 C45.8845,24.1922 45.0845,25.0822 43.6345,25.7622 C44.1145,26.4022 44.3545,26.8322 44.7045,27.1422 C44.9745,27.3822 45.4345,27.6422 45.7145,27.5622 C45.9645,27.4922 46.2045,26.9722 46.2345,26.6322 C46.3145,25.9222 46.2145,25.1922 46.2545,24.4722 C46.3245,22.8722 46.7545,22.6022 48.1645,23.2422 C48.8145,23.5422 49.4445,23.9122 50.1045,24.1822 C50.8545,24.4822 51.3545,24.1822 51.5045,23.3922 L51.5045,23.3922 Z M53.4245,3.6522 C53.4645,3.6322 53.4945,3.5122 53.4845,3.4422 C53.4845,3.3822 53.4245,3.3222 53.2745,3.0522 C51.2345,3.7822 49.0845,4.3722 47.0845,5.2922 C43.0745,7.1522 38.8945,8.4522 34.6845,9.7022 C31.6945,10.5822 28.9245,11.9122 26.3345,13.6422 C34.6545,11.3222 42.5645,7.9322 50.6045,4.9322 C51.5745,4.5722 52.4845,4.0922 53.4245,3.6522 L53.4245,3.6522 Z M52.8945,16.3522 C53.5645,15.8522 54.0845,14.4522 53.8145,13.8022 C53.7445,13.6122 53.5245,13.3922 53.3345,13.3522 C52.4945,13.1822 51.6445,13.0622 50.5345,12.8822 C50.5045,12.9122 50.2345,13.0822 50.0945,13.3122 C49.3745,14.5022 49.5545,15.1822 50.7545,16.0922 C51.4345,16.6022 52.1045,16.9522 52.8945,16.3522 L52.8945,16.3522 Z M53.3645,11.3922 C54.0245,10.8222 54.2445,10.1222 54.0745,9.2822 C53.9345,8.6422 53.5445,8.2222 52.9145,8.5622 C51.9745,9.0722 51.1145,9.7122 49.9545,10.4722 C50.5845,10.9522 50.8845,11.2122 51.2045,11.4222 C51.9245,11.8722 52.6345,12.0222 53.3645,11.3922 L53.3645,11.3922 Z M55.2545,28.4422 C55.3845,27.2622 55.3845,26.0622 55.3545,24.8722 C55.3145,23.2022 55.1645,23.0622 53.2245,22.3622 C53.1145,22.9122 53.0645,23.4622 52.9045,23.9922 C52.3945,25.6422 51.4945,26.0822 49.8245,25.5322 C49.1745,25.3222 48.5345,25.0822 47.8745,24.8522 C47.5845,25.6522 47.8045,26.1522 48.4845,26.2022 C49.9745,26.3322 50.8945,27.3122 51.8945,28.2222 C52.3545,28.6422 52.8345,29.0922 53.3745,29.4022 C54.3345,29.9322 55.1345,29.5522 55.2545,28.4422 L55.2545,28.4422 Z M57.1645,20.4622 C57.2745,20.1722 57.3345,19.8222 57.2745,19.5222 C57.1645,19.0222 57.0445,18.1922 56.7645,18.1122 C56.0745,17.9322 55.1845,17.6022 54.6245,18.5222 C54.2945,19.0622 53.9045,19.5522 53.4745,20.1522 C53.9245,20.5422 54.3045,20.9422 54.7445,21.2422 C55.7445,21.9222 56.7745,21.5922 57.1645,20.4622 L57.1645,20.4622 Z M56.6945,28.4322 C59.4245,27.4422 59.4245,27.4422 58.7945,25.1822 C58.7345,24.9522 58.7445,24.6822 58.6245,24.4822 C58.4445,24.1722 58.1845,23.6722 57.9545,23.6722 C57.6345,23.6722 57.1845,23.9922 57.0245,24.2922 C56.3845,25.5522 56.4645,26.8822 56.6945,28.4322 L56.6945,28.4322 Z M62.4345,28.7922 C62.6345,29.5222 62.4645,29.9622 62.1245,30.5522 C61.7345,31.2122 61.4045,31.9922 61.3145,32.7522 C60.7445,37.6722 60.1045,42.5922 59.7545,47.5322 C59.4245,52.3022 59.4145,57.1122 59.2645,61.9022 C59.2345,62.7222 59.3545,63.4622 60.0545,64.0522 C60.6545,64.5422 60.6045,65.1322 60.0445,65.7022 C58.9545,66.7922 57.9145,67.7922 56.4645,68.5622 C55.0245,69.3222 53.6645,70.2422 52.3345,71.1922 L51.4545,69.9522 C52.8745,68.9422 54.3045,67.9422 55.7445,66.9622 C56.8445,66.2222 57.3945,65.4022 57.3945,64.0322 C57.4145,59.7222 57.4645,55.4022 57.6545,51.1022 C57.8745,45.8322 58.2545,40.5722 58.5645,35.3122 C58.5845,34.9922 58.6245,34.6822 58.6345,34.3622 C58.6645,32.4322 58.3745,32.1422 56.6045,32.8422 C52.5145,34.4422 48.4245,36.0522 44.4445,37.8822 C41.6245,39.1722 38.5545,39.9522 36.0245,41.8422 C35.1945,42.4622 34.3845,43.1022 33.6445,43.8222 C33.3345,44.1222 33.1445,44.6322 33.0445,45.0722 C32.0445,49.5122 31.7945,54.0322 31.4745,58.5522 C31.2745,61.4222 31.2545,64.2922 31.0645,67.1622 C30.9545,68.9122 30.6345,70.6422 30.5045,72.3922 C30.1845,76.5322 29.9245,80.6722 29.6345,84.8122 C29.5845,85.5122 29.5345,86.2022 29.4645,86.9022 L29.4545,86.9022 C28.7245,87.4922 28.1045,88.0622 27.8645,88.4322 L27.8645,88.4422 C27.7745,88.4022 27.6745,88.3422 27.5645,88.2822 C25.4145,87.0422 23.3145,85.7322 21.1945,84.4422 C17.0345,81.9122 12.8545,79.4022 8.7345,76.8122 C7.1845,75.8322 5.8045,74.6022 4.3045,73.5422 C3.3445,72.8622 2.3345,72.2322 1.2945,71.6722 C0.2745,71.1122 0.0145,70.7922 0.4645,69.8422 C1.7745,67.0622 1.5545,64.0722 1.7945,61.1422 C1.9745,58.9222 1.9645,56.6822 2.1145,54.4522 C2.3945,50.4722 2.7645,46.4922 3.0445,42.5122 C3.1345,41.2422 3.1045,39.9522 3.0545,38.6822 C3.0345,38.0522 3.0045,37.3122 1.9845,37.5222 C1.9045,37.5422 1.5745,37.0522 1.6345,36.9222 C1.9045,36.2822 2.1845,35.6122 2.6245,35.0822 C5.1845,32.0122 7.7945,28.9922 10.3545,25.9322 C10.8145,25.3822 11.2045,24.7622 11.5345,24.1222 C13.4345,20.4722 16.2245,17.4822 18.7845,14.3222 C19.3845,13.5722 19.9445,13.1522 21.0145,13.7922 C21.4045,14.0322 22.3245,13.5822 22.9245,13.2922 C25.5145,12.0422 28.0545,10.7122 30.6545,9.4822 C31.7245,8.9722 32.8745,8.5722 34.0245,8.2622 C39.1145,6.8622 43.9945,4.8622 48.8745,2.8722 C50.3445,2.2722 51.8845,1.8122 53.4145,1.3522 C54.0745,1.1622 55.1045,0.8222 55.3145,1.6522 C55.5645,2.6022 57.2445,3.2822 55.9845,4.5622 C55.3745,5.1922 55.5145,5.9822 55.9045,6.5722 C57.2145,8.5822 57.1145,11.2322 58.9045,13.0322 C59.1745,13.3022 59.2545,13.9522 59.1745,14.3822 C58.9345,15.7122 59.3945,16.8922 59.7245,18.1322 C60.6645,21.6722 61.4845,25.2522 62.4345,28.7922 L62.4345,28.7922 Z" id="Fill-7" fill="#000000"></path>
            <path d="M58.7946,25.1823 C59.4246,27.4423 59.4246,27.4423 56.6946,28.4323 C56.4646,26.8823 56.3846,25.5523 57.0246,24.2923 C57.1846,23.9923 57.6346,23.6723 57.9546,23.6723 C58.1846,23.6723 58.4446,24.1723 58.6246,24.4823 C58.7446,24.6823 58.7346,24.9523 58.7946,25.1823" id="Fill-9" fill="#DF2D1C" class="icon__color"></path>
            <path d="M56.6046,32.8423 C58.3746,32.1423 58.6646,32.4323 58.6346,34.3623 C58.6246,34.6823 58.5846,34.9923 58.5646,35.3123 C58.2546,40.5723 57.8746,45.8323 57.6546,51.1023 C57.4646,55.4023 57.4146,59.7223 57.3946,64.0323 C57.3946,65.4023 56.8446,66.2223 55.7446,66.9623 C54.3046,67.9423 52.8746,68.9423 51.4546,69.9523 C49.7546,71.1623 48.0546,72.3723 46.3546,73.5723 C45.3946,74.2523 44.4146,74.8823 43.2046,75.7023 C42.8246,72.9823 42.4746,70.6323 42.1646,68.2723 C41.9646,66.7323 41.3646,65.1023 42.9446,63.8623 C43.0246,63.8023 43.0346,63.4923 42.9546,63.4323 C42.7946,63.2923 42.5646,63.1623 42.3546,63.1623 C42.1346,63.1523 41.8746,63.2523 41.6846,63.3823 C39.3646,65.0623 37.0746,66.8123 34.7146,68.4323 C33.9146,68.9823 33.7646,69.6723 33.7446,70.4723 C33.6746,73.5123 33.6146,76.5423 33.5746,79.5823 C33.5746,80.0523 33.6046,80.5723 33.7946,81.0023 C34.4146,82.4523 33.7546,83.3523 32.7146,84.3123 C32.1746,84.8023 30.6746,85.8923 29.4646,86.9023 C29.5346,86.2023 29.5846,85.5123 29.6346,84.8123 C29.9246,80.6723 30.1846,76.5323 30.5046,72.3923 C30.6346,70.6423 30.9546,68.9123 31.0646,67.1623 C31.2546,64.2923 31.2746,61.4223 31.4746,58.5523 C31.7946,54.0323 32.0446,49.5123 33.0446,45.0723 C33.1446,44.6323 33.3346,44.1223 33.6446,43.8223 C34.3846,43.1023 35.1946,42.4623 36.0246,41.8423 C38.5546,39.9523 41.6246,39.1723 44.4446,37.8823 C48.4246,36.0523 52.5146,34.4423 56.6046,32.8423" id="Fill-11" fill="#DF2D1C" class="icon__color"></path>
            <path d="M53.4845,3.4422 C53.4945,3.5122 53.4645,3.6322 53.4245,3.6522 C52.4845,4.0922 51.5745,4.5722 50.6045,4.9322 C42.5645,7.9322 34.6545,11.3222 26.3345,13.6422 C28.9245,11.9122 31.6945,10.5822 34.6845,9.7022 C38.8945,8.4522 43.0745,7.1522 47.0845,5.2922 C49.0845,4.3722 51.2345,3.7822 53.2745,3.0522 C53.4245,3.3222 53.4845,3.3822 53.4845,3.4422" id="Fill-13" fill="#000000"></path>
            <path d="M40.1545,77.7623 C40.4145,77.6023 40.6745,77.4423 40.9345,77.2923 C40.6145,75.5123 40.2945,73.7323 39.9545,71.9523 C39.9145,71.7323 39.7345,71.3723 39.6045,71.3623 C38.0345,71.2723 38.6545,70.1423 38.6845,69.3623 C38.6945,69.1723 39.2245,68.8823 39.5145,68.8823 C39.7745,68.8723 40.0445,69.1923 40.4645,69.4723 C40.2445,67.1223 40.2445,67.1223 38.6345,68.0023 C37.9445,68.3823 37.2445,68.7823 36.5645,69.2023 C34.8545,70.2323 34.8645,71.2623 36.8145,72.8223 C36.6745,72.1123 36.5045,71.5923 36.4845,71.0723 C36.4645,70.8123 36.6545,70.4023 36.8545,70.3223 C37.0445,70.2523 37.5645,70.4823 37.6045,70.6423 C37.8045,71.5823 39.1745,72.7223 37.2345,73.3723 C36.5945,74.7023 37.1545,76.9423 38.4845,78.4023 C38.5745,77.6523 38.6545,76.8923 38.7345,76.1423 C38.9045,76.0323 39.0745,75.9223 39.2445,75.8123 C39.5445,76.4623 39.8445,77.1123 40.1545,77.7623 M51.4545,69.9523 L52.3345,71.1923 C51.0045,72.1523 49.6945,73.1523 48.3645,74.1023 C46.1545,75.6823 44.0445,77.3923 41.7945,78.8923 C38.1745,81.3023 34.9745,84.1723 32.0145,87.3323 C31.8545,87.5023 31.0045,87.9323 30.9045,87.9723 C30.1245,88.3023 29.5245,88.4823 29.0645,88.5723 C29.2245,88.3723 29.3145,88.0023 29.3945,87.4323 C29.4145,87.2523 29.4445,87.0823 29.4545,86.9023 L29.4645,86.9023 C30.6745,85.8923 32.1745,84.8023 32.7145,84.3123 C33.7545,83.3523 34.4145,82.4523 33.7945,81.0023 C33.6045,80.5723 33.5745,80.0523 33.5745,79.5823 C33.6145,76.5423 33.6745,73.5123 33.7445,70.4723 C33.7645,69.6723 33.9145,68.9823 34.7145,68.4323 C37.0745,66.8123 39.3645,65.0623 41.6845,63.3823 C41.8745,63.2523 42.1345,63.1523 42.3545,63.1623 C42.5645,63.1623 42.7945,63.2923 42.9545,63.4323 C43.0345,63.4923 43.0245,63.8023 42.9445,63.8623 C41.3645,65.1023 41.9645,66.7323 42.1645,68.2723 C42.4745,70.6323 42.8245,72.9823 43.2045,75.7023 C44.4145,74.8823 45.3945,74.2523 46.3545,73.5723 C48.0545,72.3723 49.7545,71.1623 51.4545,69.9523" id="Fill-15" fill="#000000"></path>
            <path d="M42.0145,17.7422 L42.0145,17.7922 C42.0045,17.8022 41.9945,17.8022 41.9845,17.8122 L41.9845,17.7622 C41.9945,17.7522 42.0045,17.7522 42.0145,17.7422" id="Fill-17" fill="#000000"></path>
            <path d="M40.9346,77.2923 C40.6746,77.4423 40.4146,77.6023 40.1546,77.7623 C39.8446,77.1123 39.5446,76.4623 39.2446,75.8123 C39.0746,75.9223 38.9046,76.0323 38.7346,76.1423 C38.6546,76.8923 38.5746,77.6523 38.4846,78.4023 C37.1546,76.9423 36.5946,74.7023 37.2346,73.3723 C39.1746,72.7223 37.8046,71.5823 37.6046,70.6423 C37.5646,70.4823 37.0446,70.2523 36.8546,70.3223 C36.6546,70.4023 36.4646,70.8123 36.4846,71.0723 C36.5046,71.5923 36.6746,72.1123 36.8146,72.8223 C34.8646,71.2623 34.8546,70.2323 36.5646,69.2023 C37.2446,68.7823 37.9446,68.3823 38.6346,68.0023 C40.2446,67.1223 40.2446,67.1223 40.4646,69.4723 C40.0446,69.1923 39.7746,68.8723 39.5146,68.8823 C39.2246,68.8823 38.6946,69.1723 38.6846,69.3623 C38.6546,70.1423 38.0346,71.2723 39.6046,71.3623 C39.7346,71.3723 39.9146,71.7323 39.9546,71.9523 C40.2946,73.7323 40.6146,75.5123 40.9346,77.2923" id="Fill-19" fill="#000000"></path>
            <mask id="mask-2" fill="white">
                <use xlink:href="#path-1"></use>
            </mask>
            <g id="Clip-22"></g>
            <polygon id="Fill-21" fill="#000000" mask="url(#mask-2)" points="36.215 29.302 36.235 29.302 36.235 29.282 36.215 29.282"></polygon>
            <path d="M30.9445,21.5923 C30.9545,21.5923 30.9545,21.5923 30.9645,21.6023 L30.9645,21.6123 C30.9545,21.6223 30.9445,21.6323 30.9345,21.6423 C30.9345,21.6223 30.9445,21.6123 30.9445,21.5923" id="Fill-23" fill="#000000" mask="url(#mask-2)"></path>
            <path d="M23.0845,45.2023 C23.0345,44.4023 23.0445,43.8423 22.9545,43.2923 C22.4045,40.0723 19.3745,38.1723 16.4045,39.1523 C12.4645,40.4523 9.4945,44.7023 9.7545,48.8823 C9.9945,52.9623 14.4145,55.2723 17.5045,53.7323 C21.2245,51.8723 22.7545,48.8723 23.0845,45.2023 M30.7445,43.2523 C31.2245,45.1323 31.0345,47.0723 30.5645,48.9523 C28.6745,56.6023 28.0245,64.3623 28.2245,72.2423 C28.3445,76.9323 27.9945,81.6423 27.8445,86.4823 C27.4845,86.4423 27.1445,86.4923 26.9145,86.3623 C20.2245,82.3023 13.3845,78.4623 6.9145,74.0723 C1.9245,70.7023 2.3145,70.8423 2.9445,64.9223 C3.0345,64.0523 3.0945,63.1723 3.1645,62.3023 C3.6245,55.7723 4.0945,49.2423 4.5545,42.7123 C4.6245,41.6723 4.7145,40.6223 4.5945,39.5923 C4.4545,38.3223 5.4245,37.1323 4.7545,35.8023 C4.6145,35.5123 5.1645,34.8123 5.5045,34.3823 C6.7945,32.7623 8.1145,31.1523 9.4645,29.5723 C12.3745,26.1823 15.3145,22.8123 18.2445,19.4323 C18.4445,19.1923 18.6945,19.0023 18.9245,18.7823 C21.9545,20.4323 23.5245,22.9923 24.7745,25.8123 C27.2745,31.4523 29.2445,37.2823 30.7445,43.2523" id="Fill-24" fill="#DF2D1C" class="icon__color" mask="url(#mask-2)"></path>
            <path d="M29.4545,86.9023 C29.4445,87.0823 29.4145,87.2523 29.3945,87.4323 C29.3145,88.0023 29.2245,88.3723 29.0645,88.5723 C29.0545,88.5723 29.0545,88.5823 29.0545,88.5823 C28.7045,88.6423 28.4445,88.6523 28.2545,88.6323 C28.1345,88.5823 28.0145,88.5223 27.8645,88.4423 L27.8645,88.4323 C28.1045,88.0623 28.7245,87.4923 29.4545,86.9023" id="Fill-25" fill="#000000" mask="url(#mask-2)"></path>
            <path d="M29.0546,88.5823 C28.8946,88.7823 28.6446,88.7923 28.2546,88.6323 C28.4446,88.6523 28.7046,88.6423 29.0546,88.5823" id="Fill-26" fill="#000000" mask="url(#mask-2)"></path>
            <path d="M27.8645,88.4423 C28.0145,88.5223 28.1345,88.5823 28.2545,88.6323 C27.9445,88.6023 27.8345,88.5023 27.8645,88.4423" id="Fill-27" fill="#000000" mask="url(#mask-2)"></path>
        </g>
        <path d="M47.8779,24.981 C48.5359,25.213 49.1789,25.453 49.8289,25.667 C51.4939,26.217 52.3929,25.776 52.9069,24.119 C53.0689,23.598 53.1179,23.041 53.2199,22.494 C55.1639,23.189 55.3149,23.329 55.3529,25.008 C55.3799,26.197 55.3839,27.397 55.2539,28.576 C55.1319,29.681 54.3339,30.064 53.3789,29.529 C52.8339,29.223 52.3589,28.777 51.8919,28.351 C50.8959,27.44 49.9699,26.462 48.4869,26.336 C47.8079,26.278 47.5879,25.786 47.8779,24.981" id="Fill-29" fill="#DF2D1C" class="icon__color"></path>
        <path d="M43.6339,25.8974 C45.0859,25.2154 45.8849,24.3234 45.9849,22.8774 C46.0459,22.0024 46.4999,21.4514 47.5259,21.4014 C48.2129,21.3684 48.8819,21.0214 49.5639,20.8314 C50.8809,20.4634 51.5289,20.9414 51.5739,22.3284 C51.5879,22.7254 51.5719,23.1314 51.5009,23.5214 C51.3559,24.3144 50.8569,24.6124 50.1069,24.3104 C49.4419,24.0424 48.8169,23.6774 48.1629,23.3784 C46.7529,22.7344 46.3289,22.9994 46.2509,24.6054 C46.2159,25.3224 46.3109,26.0484 46.2369,26.7594 C46.1999,27.1034 45.9669,27.6224 45.7159,27.6954 C45.4359,27.7764 44.9749,27.5104 44.7019,27.2714 C44.3549,26.9664 44.1169,26.5354 43.6339,25.8974" id="Fill-31" fill="#DF2D1C" class="icon__color"></path>
        <path d="M48.4562,11.5491 C48.6372,13.1141 48.4252,14.0841 47.5602,14.8361 C46.6372,15.6381 45.6222,15.9261 44.4782,15.3331 C43.9832,15.0771 43.5222,14.7511 43.0192,14.5111 C41.6062,13.8351 41.2512,13.9811 40.9252,15.5191 C40.7512,16.3421 40.5412,17.1271 39.7272,17.4531 C39.3662,17.5981 38.7832,17.5231 38.4452,17.3141 C37.9302,16.9961 38.1182,16.5071 38.4722,16.0931 C38.8352,15.6691 39.2382,15.2611 39.5122,14.7821 C40.1322,13.6961 41.1552,13.3221 42.1682,13.7281 C44.7552,14.7651 46.6472,13.8461 48.4562,11.5491" id="Fill-33" fill="#DF2D1C" class="icon__color"></path>
        <path d="M36.2174,29.409 C36.0274,30.668 35.9064,31.943 35.6214,33.181 C35.4504,33.927 34.8624,34.142 34.1244,33.758 C33.0024,33.173 31.8494,32.644 30.7504,32.019 C30.4674,31.858 30.3394,31.425 29.8584,30.683 C31.3944,31.255 32.4184,31.298 33.1564,30.127 C33.3314,29.849 33.9684,29.841 34.4024,29.75 C35.0104,29.624 35.6264,29.536 36.2384,29.432 L36.2174,29.409 Z" id="Fill-35" fill="#DF2D1C" class="icon__color"></path>
        <path d="M26.9853,18.6922 C27.5913,18.9522 28.1503,19.2102 28.7233,19.4332 C30.0523,19.9512 30.1473,20.2622 29.2973,21.4032 C28.3153,22.7192 27.4973,23.0052 26.0643,22.5332 C24.8583,22.1362 24.6083,21.4082 25.3903,20.4482 C25.8823,19.8442 26.4373,19.2912 26.9853,18.6922" id="Fill-37" fill="#DF2D1C" class="icon__color"></path>
        <path d="M32.0211,24.9997 C32.9751,25.4367 33.7421,25.8757 34.5651,26.1407 C35.3481,26.3917 35.6171,26.8067 35.3611,27.5577 C35.0931,28.3437 34.5461,28.4577 33.8401,28.1317 C33.4891,27.9697 33.1291,27.8247 32.6651,27.6257 C32.3381,28.3457 32.0551,28.9677 31.7611,29.6147 C30.1601,28.4487 30.1661,28.4417 30.9641,27.0487 C31.3151,26.4347 31.6151,25.7917 32.0211,24.9997" id="Fill-39" fill="#DF2D1C" class="icon__color"></path>
        <path d="M50.5389,13.0161 C51.6449,13.1951 52.4989,13.3111 53.3389,13.4871 C53.5249,13.5251 53.7399,13.7451 53.8169,13.9331 C54.0819,14.5851 53.5629,15.9801 52.8989,16.4841 C52.1039,17.0881 51.4299,16.7311 50.7569,16.2231 C49.5569,15.3171 49.3709,14.6311 50.0929,13.4481 C50.2369,13.2111 50.5049,13.0481 50.5389,13.0161" id="Fill-41" fill="#DF2D1C" class="icon__color"></path>
        <path d="M42.2554,27.0912 C43.6734,28.0022 44.9334,28.7692 46.1444,29.6072 C46.8984,30.1292 46.5224,30.9282 46.3554,31.5572 C46.1444,32.3482 45.5224,32.0212 44.9954,31.8382 C42.6104,31.0132 41.8994,29.8162 42.2554,27.0912" id="Fill-43" fill="#DF2D1C" class="icon__color"></path>
        <path d="M37.5922,31.2944 C38.5252,31.3384 38.9922,31.8524 39.0052,32.7704 C39.0192,33.7124 39.0292,34.6614 38.9322,35.5964 C38.8252,36.6274 38.3202,37.0814 37.6582,36.9124 C36.8192,36.6974 36.2262,35.7494 36.4652,34.9234 C36.8102,33.7334 37.1982,32.5564 37.5922,31.2944" id="Fill-45" fill="#DF2D1C" class="icon__color"></path>
        <path d="M42.0142,17.9216 C42.0342,17.6066 42.0492,17.2906 42.0762,16.9756 C42.1462,16.1776 42.5182,15.7236 43.3092,16.1956 C44.7622,17.0626 46.2182,17.3656 47.8182,16.6186 C47.9982,16.5346 48.5592,16.8016 48.5522,16.8536 C48.4952,17.2846 48.3712,18.0606 48.2212,18.0716 C46.7162,18.1766 45.1552,19.8006 43.6902,17.9446 C43.2092,17.3346 42.5642,17.5266 41.9812,17.8936 L42.0142,17.9216 Z" id="Fill-47" fill="#DF2D1C" class="icon__color"></path>
        <path d="M53.4767,20.2875 C53.9067,19.6805 54.2977,19.1895 54.6227,18.6585 C55.1887,17.7305 56.0707,18.0605 56.7627,18.2485 C57.0437,18.3245 57.1657,19.1505 57.2697,19.6545 C57.3317,19.9505 57.2717,20.3025 57.1687,20.5955 C56.7737,21.7195 55.7447,22.0555 54.7447,21.3755 C54.3007,21.0725 53.9217,20.6745 53.4767,20.2875" id="Fill-49" fill="#DF2D1C" class="icon__color"></path>
        <path d="M49.9581,10.6024 C51.1111,9.8474 51.9741,9.2014 52.9131,8.6964 C53.5491,8.3534 53.9391,8.7744 54.0721,9.4174 C54.2461,10.2544 54.0241,10.9544 53.3631,11.5254 C52.6391,12.1514 51.9211,12.0064 51.2041,11.5524 C50.8801,11.3464 50.5891,11.0874 49.9581,10.6024" id="Fill-51" fill="#DF2D1C" class="icon__color"></path>
        <path d="M35.6059,17.2026 C35.6199,18.2766 34.7269,19.4266 33.7359,19.6136 C33.2579,19.7026 32.6659,19.5406 32.2359,19.2966 C32.1089,19.2246 32.2699,18.4396 32.4609,18.0626 C32.7429,17.5066 33.0959,16.9356 33.5639,16.5436 C33.8389,16.3126 34.4479,16.2746 34.8089,16.4106 C35.1759,16.5486 35.4219,17.0066 35.6059,17.2026" id="Fill-53" fill="#DF2D1C" class="icon__color"></path>
        <path d="M36.2389,29.4316 C36.5209,28.4496 36.8029,27.4676 37.1409,26.2916 C37.8949,26.7206 38.5539,27.1116 39.2289,27.4736 C39.7259,27.7406 40.7039,27.6176 40.2769,28.6296 C39.8419,29.6596 38.9869,29.9976 38.0359,29.7346 C37.4449,29.5706 36.8249,29.5136 36.2179,29.4086 L36.2389,29.4316 Z" id="Fill-55" fill="#DF2D1C" class="icon__color"></path>
        <path d="M34.5956,35.944 C35.5716,36.801 36.3756,37.506 37.2686,38.29 C36.6176,39.304 35.6446,39.819 34.7506,40.395 C34.1846,40.76 33.6506,40.345 33.7786,39.648 C33.9886,38.512 34.2726,37.389 34.5956,35.944" id="Fill-57" fill="#DF2D1C" class="icon__color"></path>
        <path d="M30.9433,21.7201 C30.7873,22.7401 30.6183,23.7581 30.4803,24.7801 C30.3763,25.5501 30.0943,26.2461 29.2623,26.3151 C28.9203,26.3431 28.4313,25.9461 28.1953,25.6111 C27.6923,24.8971 27.9553,24.3331 28.6553,23.8091 C29.4803,23.1931 30.1993,22.4351 30.9633,21.7391 L30.9433,21.7201 Z" id="Fill-59" fill="#DF2D1C" class="icon__color"></path>
        <path d="M43.828,19.762 C44.219,20.23 44.725,20.562 44.716,20.88 C44.693,21.728 44.506,22.586 44.254,23.401 C44.185,23.624 43.661,23.708 43.345,23.855 C43.215,23.53 42.927,23.174 42.984,22.886 C43.176,21.912 43.492,20.964 43.828,19.762" id="Fill-61" fill="#DF2D1C" class="icon__color"></path>
        <path d="M41.6223,51.8664 C41.3383,53.3094 40.8633,54.7974 39.3193,55.6524 C38.4283,56.1454 37.8663,55.9474 37.4223,55.0144 C36.7693,53.6424 37.0463,52.3784 38.2753,51.4544 C38.7103,51.1274 39.2393,50.9184 39.7383,50.6854 C40.9143,50.1374 41.5833,50.5094 41.6223,51.8664" id="Fill-63" fill="#FFFFFF"></path>
        <path d="M50.0092,50.73 C49.8402,50.605 49.3872,50.44 49.2802,50.148 C49.1352,49.752 49.1042,49.176 49.2962,48.827 C49.6322,48.215 50.1082,47.633 50.6542,47.201 C51.0302,46.903 51.7432,46.631 52.0892,46.797 C52.4722,46.982 52.7632,47.661 52.8202,48.157 C52.9612,49.389 51.5802,50.681 50.0092,50.73" id="Fill-65" fill="#FFFFFF"></path>
        <path d="M13.6434,51.8817 C13.9414,50.6087 14.1984,49.7087 14.3544,48.7917 C14.4834,48.0307 13.8164,47.4907 12.8204,47.4577 C12.0504,47.4317 11.8684,47.9677 11.9004,48.5517 C11.9664,49.7517 12.2944,50.8557 13.6434,51.8817 M16.0554,42.1487 C15.9074,41.8667 15.7284,41.3697 15.6384,41.3857 C15.2924,41.4457 14.8354,41.5827 14.6694,41.8467 C14.0454,42.8427 13.5024,43.8917 12.9624,44.9377 C12.6594,45.5237 12.9764,46.0297 13.6624,46.1157 C14.4384,46.2127 15.1334,46.0807 15.3644,45.2087 C15.6284,44.2137 15.8214,43.1987 16.0554,42.1487 M20.9434,47.7787 C20.0164,47.7787 19.3944,47.7627 18.7734,47.7807 C16.4084,47.8517 15.3374,48.9097 15.2684,51.2257 C15.2444,52.0387 15.6634,52.4007 16.4604,52.1957 C18.6504,51.6327 20.2604,50.4437 20.9434,47.7787 M18.9994,46.2807 C19.5664,46.3527 20.1254,46.5047 20.6704,46.4637 C20.9954,46.4387 21.4614,46.1827 21.5824,45.9067 C22.2704,44.3377 20.9444,41.2407 19.3574,40.5687 C18.3784,40.1527 17.8324,40.3947 17.6214,41.4377 C17.3694,42.6887 17.1744,43.9517 16.9984,45.2157 C16.8354,46.3747 16.9314,46.4657 18.0624,46.4147 C18.3784,46.3997 18.6924,46.3257 18.9994,46.2807 M23.0824,45.3347 C22.7544,49.0027 21.2234,51.9997 17.5004,53.8627 C14.4154,55.4057 9.9964,53.0957 9.7494,49.0167 C9.4964,44.8347 12.4644,40.5807 16.4004,39.2807 C19.3724,38.2997 22.4024,40.2077 22.9504,43.4267 C23.0434,43.9727 23.0304,44.5357 23.0824,45.3347" id="Fill-67" fill="#000000"></path>
        <path d="M18.9993,46.2803 C18.6933,46.3253 18.3783,46.4003 18.0623,46.4143 C16.9313,46.4653 16.8353,46.3753 16.9983,45.2153 C17.1753,43.9513 17.3693,42.6883 17.6223,41.4383 C17.8323,40.3953 18.3783,40.1533 19.3573,40.5683 C20.9443,41.2413 22.2703,44.3373 21.5823,45.9073 C21.4613,46.1823 20.9953,46.4393 20.6703,46.4633 C20.1253,46.5053 19.5663,46.3533 18.9993,46.2803" id="Fill-69" fill="#FFFFFF"></path>
        <path d="M20.943,47.7782 C20.26,50.4432 18.65,51.6322 16.461,52.1952 C15.664,52.4002 15.244,52.0392 15.269,51.2262 C15.338,48.9092 16.408,47.8522 18.773,47.7812 C19.395,47.7622 20.017,47.7782 20.943,47.7782" id="Fill-71" fill="#FFFFFF"></path>
        <path d="M16.0552,42.1488 C15.8212,43.1988 15.6282,44.2138 15.3642,45.2088 C15.1332,46.0808 14.4382,46.2128 13.6622,46.1158 C12.9762,46.0298 12.6602,45.5238 12.9622,44.9378 C13.5022,43.8918 14.0452,42.8428 14.6692,41.8468 C14.8352,41.5828 15.2922,41.4458 15.6392,41.3858 C15.7282,41.3698 15.9072,41.8668 16.0552,42.1488" id="Fill-73" fill="#FFFFFF"></path>
        <path d="M13.6434,51.8817 C12.2944,50.8557 11.9664,49.7517 11.9004,48.5517 C11.8684,47.9677 12.0504,47.4317 12.8204,47.4577 C13.8164,47.4907 14.4834,48.0307 14.3544,48.7917 C14.1984,49.7087 13.9414,50.6087 13.6434,51.8817" id="Fill-75" fill="#FFFFFF"></path>
        <path d="M41.6223,51.8664 C41.5833,50.5094 40.9143,50.1374 39.7383,50.6854 C39.2393,50.9184 38.7103,51.1274 38.2753,51.4544 C37.0463,52.3784 36.7693,53.6424 37.4223,55.0144 C37.8663,55.9474 38.4283,56.1454 39.3193,55.6524 C40.8633,54.7974 41.3383,53.3094 41.6223,51.8664 M43.2753,52.0194 C42.9013,53.1594 42.6263,54.4164 42.0843,55.5444 C41.2833,57.2104 40.0363,57.8674 38.6963,57.5974 C36.5633,57.1664 35.2903,55.8744 35.1333,53.9794 C34.8863,50.9924 37.7893,47.9924 40.8123,48.2534 C41.4083,48.3054 42.1483,48.8504 42.4693,49.3814 C42.9013,50.0964 42.9913,51.0184 43.2753,52.0194" id="Fill-77" fill="#000000"></path>
        <path d="M50.0092,50.73 C51.5802,50.681 52.9612,49.389 52.8202,48.157 C52.7632,47.661 52.4722,46.982 52.0892,46.797 C51.7432,46.631 51.0302,46.903 50.6542,47.201 C50.1082,47.633 49.6322,48.215 49.2962,48.827 C49.1042,49.176 49.1352,49.752 49.2802,50.148 C49.3872,50.44 49.8402,50.605 50.0092,50.73 M54.0212,48.407 C53.9602,50.973 50.8672,52.745 48.7312,51.554 C47.3922,50.808 46.9622,49.339 47.9072,48.111 C48.5772,47.242 49.4392,46.469 50.3472,45.845 C52.0312,44.686 53.4392,45.322 53.8832,47.334 C53.9692,47.722 53.9862,48.126 54.0212,48.407" id="Fill-79" fill="#000000"></path>
    </g>
</svg>
