<svg width="68px" height="70px" viewBox="330 230 68 70" version="1.1" xmlns="http://www.w3.org/2000/svg" xmlns:xlink="http://www.w3.org/1999/xlink">
    <defs></defs>
    <g id="Group" stroke="none" stroke-width="1" fill="none" fill-rule="evenodd" transform="translate(330.000000, 230.000000)">
        <path d="M42.9687,24.4363 C42.9137,24.4793 42.8057,24.5513 42.8117,24.5613 C42.8737,24.6773 42.9537,24.7833 43.0297,24.8923 C43.0837,24.8493 43.1897,24.7783 43.1837,24.7653 C43.1227,24.6503 43.0437,24.5443 42.9687,24.4363 L42.9687,24.4363 Z M45.3057,24.4583 C46.3837,25.3383 46.3837,25.3383 47.2247,24.4583 L45.3057,24.4583 Z M39.1387,7.0903 C39.4057,7.7243 39.4467,8.0893 39.6507,8.2663 C41.0267,9.4603 41.0387,10.7793 40.3027,12.3533 C39.3647,14.3593 38.5877,16.4403 37.7307,18.5133 C38.5377,19.2663 39.2347,19.2173 39.6957,18.2873 C40.5817,16.4993 41.5157,14.7183 42.1967,12.8493 C43.1237,10.3053 41.9287,7.9503 39.1387,7.0903 L39.1387,7.0903 Z M44.1327,22.2473 C45.7907,20.9693 47.2177,20.1743 48.2287,19.0163 C49.6227,17.4213 50.7547,15.5843 51.8817,13.7783 C52.1827,13.2963 52.1917,12.5203 52.0797,11.9283 C51.9887,11.4503 51.5937,10.8203 51.1847,10.6743 C50.8027,10.5373 50.0507,10.8043 49.7677,11.1463 C49.1737,11.8673 48.6957,12.7173 48.3197,13.5803 C47.2517,16.0323 46.7367,18.7843 44.2607,20.4333 C44.0097,20.6013 44.1777,21.3993 44.1327,22.2473 L44.1327,22.2473 Z M49.7637,40.2793 C50.2517,40.4343 50.5537,40.6273 50.8397,40.6073 C56.9197,40.1803 61.1507,36.6983 64.5657,32.0523 C66.2747,29.7283 66.1427,26.9223 65.8967,24.1833 C65.6047,20.9393 62.7937,18.6843 59.7967,19.7843 C57.2847,20.7073 55.0537,22.3963 52.6987,23.7463 C53.7537,24.2343 54.6227,24.2273 55.4757,24.3413 C57.3377,24.5913 57.8697,25.2473 57.9787,27.1473 C58.0027,27.5683 58.1187,28.0583 58.3677,28.3783 C59.8157,30.2343 59.9727,31.0293 58.3297,32.6613 C56.8187,34.1623 54.9977,35.3603 53.2647,36.6253 C51.9437,37.5903 50.2347,38.1413 49.7637,40.2793 L49.7637,40.2793 Z M28.4087,51.6063 C30.9987,49.7103 32.9377,47.3563 34.2247,44.4953 C36.3797,39.7043 38.0917,34.6793 41.6557,30.6403 C41.9647,30.2903 42.1457,29.8213 42.3577,29.3933 C43.0247,28.0493 43.0287,26.8163 41.8567,25.6843 C41.4337,25.2763 41.1937,24.6793 40.8247,24.0963 C41.2367,23.7833 41.4737,23.5973 41.7177,23.4203 C42.0057,23.2113 42.2987,23.0113 42.9777,22.5353 C40.6627,21.5693 38.7257,20.7603 36.7727,19.9453 C34.0267,23.2793 33.4737,27.0353 33.5337,30.7303 C33.6227,36.2143 32.4077,41.3183 30.3697,46.3173 C29.6597,48.0583 29.0587,49.8423 28.4087,51.6063 L28.4087,51.6063 Z M56.6237,26.3583 C55.3647,26.1053 54.5737,25.9233 53.7757,25.7893 C51.1657,25.3513 48.7847,26.2153 46.3477,26.9743 C45.2997,27.3003 44.7627,27.7663 44.3287,28.7193 C43.6747,30.1573 42.8497,31.5203 42.0637,32.8963 C40.6837,35.3133 38.9627,37.5913 37.9477,40.1503 C35.8957,45.3233 33.2987,50.0543 28.9977,53.7963 C29.2497,54.1083 29.3987,54.4153 29.6427,54.5753 C32.5747,56.4933 34.2357,59.3783 35.7417,62.4113 C36.4117,63.7613 37.1017,65.1563 38.0657,66.2893 C38.7337,67.0733 39.8537,67.8473 40.8287,67.9273 C43.8847,68.1773 46.4397,67.0893 48.1357,64.3393 C50.3437,60.7593 52.2327,57.1103 51.4707,52.6823 C51.3767,52.1363 51.4957,51.5543 51.4007,51.0103 C50.9447,48.3933 51.0857,45.5523 48.6477,43.6573 C48.3717,43.4433 48.2697,42.9673 48.1507,42.5933 C47.4437,40.3693 48.1677,38.1633 50.2257,36.7183 C51.9217,35.5283 53.7417,34.5143 55.4627,33.3563 C56.1107,32.9213 56.7557,32.3803 57.1717,31.7373 C57.4617,31.2883 57.5467,30.5153 57.3617,30.0233 C57.2577,29.7473 56.4207,29.6633 55.9087,29.6453 C55.2657,29.6233 54.6177,29.7553 53.9717,29.8213 C53.8957,29.6473 53.8207,29.4743 53.7447,29.3003 C54.5747,28.4523 55.4047,27.6043 56.6237,26.3583 L56.6237,26.3583 Z M21.0587,8.9333 C19.7457,9.7943 19.5807,10.6383 19.7527,11.7903 C19.9277,12.9523 19.9937,14.2103 19.7377,15.3423 C19.1447,17.9683 18.3857,20.5633 17.5647,23.1293 C17.3457,23.8113 16.6927,24.8233 16.1757,24.8633 C13.5607,25.0633 12.3537,27.0563 10.9647,28.7273 C9.0287,31.0553 7.2427,33.5153 5.4927,35.9903 C4.0707,38.0013 2.6137,40.0073 2.4087,42.6293 C2.1687,45.7023 2.2067,48.8253 3.6647,51.5193 C5.9727,55.7823 12.7807,58.1503 17.5497,56.6603 C19.7587,55.9703 21.8977,55.0593 24.1097,54.3793 C25.5647,53.9323 26.3617,52.9903 26.8657,51.6453 C28.0697,48.4283 29.4977,45.2793 30.4567,41.9923 C31.2997,39.1013 31.9157,36.0793 32.1187,33.0813 C32.4287,28.5063 31.5047,23.8433 33.2157,19.3733 C33.2987,19.1583 33.3107,18.8943 33.2837,18.6623 C32.8397,14.8743 33.0837,10.9123 31.0797,7.4843 C30.2687,6.0963 29.0887,4.7083 27.7297,3.9063 C25.7647,2.7463 23.5407,1.9563 21.0887,2.4463 C20.1667,2.6303 19.1757,2.5133 18.2187,2.4753 C15.7637,2.3793 15.4457,2.5493 15.6007,4.8873 C15.8397,8.5133 15.6107,12.0593 14.5607,15.5503 C14.3567,16.2293 14.2317,16.9793 14.2867,17.6793 C14.4127,19.2923 14.5907,20.9303 16.1347,22.1893 C16.4877,20.9653 16.8187,19.9913 17.0467,18.9933 C17.6577,16.3163 18.9757,13.7593 18.2557,10.8493 C18.1067,10.2473 18.4697,9.4373 18.7827,8.8173 C19.8337,6.7333 21.0477,6.5583 22.8777,8.0603 C23.2507,8.3673 23.8167,8.5933 24.2947,8.5963 C27.5097,8.6153 28.6757,9.4093 29.2167,12.5363 C29.6927,15.2843 29.9337,18.0643 32.7417,20.2353 C30.8687,20.6193 29.9507,20.0443 29.5167,18.9783 C28.8897,17.4403 28.4867,15.8083 28.0207,14.2073 C27.8007,13.4503 27.7727,12.6183 27.4477,11.9173 C27.0547,11.0683 26.5727,10.1453 25.3557,10.2613 C24.2397,10.3683 24.4347,11.3503 24.1037,12.0263 C23.8647,12.5133 23.2507,12.8163 22.8047,13.2013 C22.4647,12.7273 22.0097,12.2963 21.8097,11.7683 C21.4877,10.9243 21.3337,10.0153 21.0587,8.9333 L21.0587,8.9333 Z M35.7177,18.4163 C37.5867,16.2063 38.3667,13.4393 39.2547,10.7443 C39.3727,10.3883 39.0707,9.8473 38.8607,9.4443 C38.6817,9.0993 38.1797,8.8563 38.1317,8.5233 C38.0147,7.7193 37.7587,6.6063 38.1617,6.1463 C38.5657,5.6853 39.7987,5.5743 40.4977,5.8123 C43.5607,6.8523 44.8877,10.9543 43.2997,14.1063 C42.7247,15.2453 42.0667,16.3503 41.5837,17.5263 C41.3067,18.1993 41.3047,18.9863 41.4367,19.8763 C43.5097,19.2783 44.9287,18.0703 45.6997,16.1443 C46.1147,15.1053 46.4007,14.0123 46.8467,12.9883 C47.2277,12.1153 47.6717,11.2463 48.2347,10.4833 C49.3067,9.0293 50.5377,8.6163 51.7187,9.1603 C53.1607,9.8253 54.1017,11.6313 53.5787,13.1673 C52.6127,16.0033 51.0657,18.5073 48.7827,20.5003 C48.1357,21.0643 47.4347,21.5673 46.5977,22.2253 C47.9277,23.3483 49.2337,23.1303 50.3227,22.6423 C52.8627,21.5023 55.3797,20.2713 57.7637,18.8413 C59.1807,17.9923 60.4137,17.4473 61.9787,18.2963 C62.3817,18.5153 62.8997,18.5393 63.3717,18.6123 C66.3027,19.0643 66.9137,19.4633 67.3077,22.4503 C67.5977,24.6453 67.6207,26.9403 67.3207,29.1293 C66.9687,31.6993 65.6947,33.8343 63.5917,35.6123 C61.0867,37.7323 58.8597,40.1613 55.5767,41.1203 C54.7347,41.3663 53.9077,41.6653 53.0627,41.8983 C51.2437,42.3993 50.9677,42.7393 51.5557,44.6183 C52.6447,48.0963 53.0787,51.6733 52.9307,55.2663 C52.8507,57.2053 52.1607,59.1443 51.5737,61.0303 C51.1257,62.4693 50.3717,63.8103 49.8177,65.2203 C48.1557,69.4473 40.7457,71.2033 37.6137,67.9423 C36.2637,66.5363 35.2737,64.7203 34.3797,62.9583 C33.1747,60.5833 31.9007,58.3093 29.8377,56.5593 C28.8097,55.6883 27.7947,55.1493 26.3547,55.6623 C24.0277,56.4903 21.5737,56.9923 19.3017,57.9393 C15.6087,59.4803 12.0517,58.8813 8.5727,57.5243 C3.6157,55.5903 1.2107,52.0323 0.9347,46.5003 C0.6747,41.3133 2.7497,37.4073 5.7757,33.6563 C8.5687,30.1943 11.3357,26.7113 14.3077,22.9973 C12.2187,19.9543 12.9227,16.4343 13.8207,12.7673 C14.3197,10.7263 14.0147,8.4873 14.0567,6.3373 C14.0707,5.6183 14.0077,4.8973 14.0247,4.1783 C14.0857,1.6563 14.8637,0.9163 17.3807,0.9343 C18.4997,0.9423 19.6207,0.9823 20.7367,0.9253 C29.5277,0.4783 33.6407,5.9393 34.3727,13.3963 C34.5337,15.0283 34.7347,16.6573 34.9167,18.2873 C35.1837,18.3303 35.4507,18.3733 35.7177,18.4163 L35.7177,18.4163 Z" id="Fill-220" fill="#000000"></path>
        <path d="M14.4941,36.8662 C13.0161,36.8432 10.9781,39.1552 11.2291,40.3412 C11.3071,40.7072 11.5151,41.0932 11.7741,41.3652 C12.6271,42.2622 14.1571,42.1792 15.2241,41.2292 C16.4261,40.1592 16.6141,38.7272 15.6271,37.6912 C15.2641,37.3102 14.7661,37.0592 14.4941,36.8662 M21.0581,8.9332 C21.3341,10.0152 21.4881,10.9242 21.8091,11.7682 C22.0101,12.2962 22.4641,12.7272 22.8051,13.2022 C23.2511,12.8162 23.8651,12.5132 24.1031,12.0262 C24.4341,11.3502 24.2401,10.3682 25.3561,10.2612 C26.5731,10.1452 27.0541,11.0682 27.4481,11.9172 C27.7731,12.6182 27.8011,13.4502 28.0211,14.2072 C28.4871,15.8082 28.8901,17.4402 29.5161,18.9782 C29.9501,20.0442 30.8681,20.6192 32.7421,20.2352 C29.9341,18.0642 29.6921,15.2842 29.2171,12.5362 C28.6761,9.4092 27.5101,8.6152 24.2951,8.5962 C23.8161,8.5932 23.2511,8.3672 22.8771,8.0602 C21.0471,6.5582 19.8331,6.7332 18.7821,8.8172 C18.4691,9.4372 18.1071,10.2472 18.2561,10.8492 C18.9751,13.7592 17.6571,16.3172 17.0461,18.9932 C16.8191,19.9912 16.4871,20.9662 16.1341,22.1892 C14.5901,20.9302 14.4121,19.2922 14.2861,17.6792 C14.2321,16.9792 14.3561,16.2292 14.5601,15.5502 C15.6111,12.0592 15.8391,8.5132 15.6001,4.8872 C15.4461,2.5492 15.7641,2.3792 18.2191,2.4752 C19.1761,2.5132 20.1661,2.6302 21.0881,2.4462 C23.5411,1.9562 25.7641,2.7462 27.7301,3.9062 C29.0881,4.7082 30.2681,6.0962 31.0801,7.4842 C33.0831,10.9122 32.8401,14.8742 33.2831,18.6622 C33.3111,18.8942 33.2981,19.1582 33.2161,19.3732 C31.5041,23.8432 32.4291,28.5062 32.1191,33.0812 C31.9161,36.0802 31.3001,39.1012 30.4561,41.9922 C29.4981,45.2792 28.0701,48.4282 26.8661,51.6452 C26.3621,52.9902 25.5651,53.9322 24.1091,54.3792 C21.8981,55.0592 19.7581,55.9702 17.5491,56.6602 C12.7811,58.1502 5.9721,55.7822 3.6641,51.5192 C2.2061,48.8252 2.1681,45.7022 2.4081,42.6292 C2.6131,40.0082 4.0701,38.0012 5.4921,35.9902 C7.2421,33.5152 9.0291,31.0562 10.9651,28.7272 C12.3541,27.0562 13.5611,25.0632 16.1761,24.8632 C16.6921,24.8232 17.3451,23.8122 17.5641,23.1292 C18.3861,20.5632 19.1441,17.9692 19.7381,15.3422 C19.9941,14.2102 19.9271,12.9522 19.7531,11.7902 C19.5801,10.6382 19.7461,9.7942 21.0581,8.9332" id="Fill-222" fill="#3B82EE" class="icon__color"></path>
        <path d="M41.8525,46.329 C42.0065,45.268 41.4885,44.76 40.5835,44.651 C39.3735,44.504 37.9005,44.427 37.3685,45.624 C36.9385,46.591 37.1465,47.923 37.3415,49.046 C37.4165,49.484 38.2225,50.075 38.7065,50.086 C39.1925,50.097 39.9415,49.573 40.1325,49.103 C40.5055,48.187 40.5695,47.145 40.7685,46.119 C41.0385,46.171 41.3995,46.241 41.8525,46.329 M56.6235,26.359 C55.4045,27.604 54.5745,28.452 53.7445,29.3 C53.8205,29.474 53.8965,29.648 53.9715,29.821 C54.6175,29.755 55.2655,29.623 55.9085,29.646 C56.4205,29.664 57.2575,29.747 57.3615,30.023 C57.5465,30.516 57.4615,31.288 57.1715,31.738 C56.7555,32.38 56.1105,32.921 55.4625,33.357 C53.7415,34.514 51.9225,35.528 50.2255,36.719 C48.1675,38.163 47.4435,40.369 48.1505,42.593 C48.2695,42.968 48.3715,43.443 48.6475,43.657 C51.0855,45.552 50.9445,48.393 51.4005,51.01 C51.4955,51.555 51.3765,52.137 51.4705,52.682 C52.2325,57.11 50.3435,60.759 48.1355,64.34 C46.4395,67.089 43.8845,68.178 40.8285,67.927 C39.8535,67.847 38.7335,67.074 38.0665,66.289 C37.1015,65.156 36.4115,63.762 35.7415,62.411 C34.2365,59.378 32.5745,56.493 29.6435,54.576 C29.3985,54.415 29.2495,54.108 28.9975,53.796 C33.2985,50.055 35.8955,45.323 37.9475,40.151 C38.9625,37.591 40.6835,35.313 42.0645,32.896 C42.8495,31.52 43.6745,30.158 44.3295,28.72 C44.7625,27.766 45.3005,27.3 46.3475,26.974 C48.7845,26.215 51.1655,25.351 53.7755,25.789 C54.5745,25.923 55.3645,26.105 56.6235,26.359" id="Fill-224" fill="#3B82EE" class="icon__color"></path>
        <path d="M28.4084,51.6066 C29.0594,49.8426 29.6594,48.0576 30.3694,46.3176 C32.4074,41.3186 33.6234,36.2146 33.5334,30.7306 C33.4734,27.0356 34.0274,23.2796 36.7724,19.9456 C38.7254,20.7606 40.6634,21.5686 42.9774,22.5346 C42.2994,23.0106 42.0054,23.2116 41.7174,23.4206 C41.4734,23.5976 41.2364,23.7836 40.8254,24.0966 C41.1944,24.6796 41.4344,25.2766 41.8564,25.6836 C43.0294,26.8166 43.0254,28.0486 42.3574,29.3936 C42.1454,29.8216 41.9644,30.2906 41.6554,30.6406 C38.0914,34.6796 36.3794,39.7036 34.2244,44.4956 C32.9374,47.3556 30.9984,49.7096 28.4084,51.6066" id="Fill-226" fill="#FFFFFF"></path>
        <path d="M49.7634,40.2795 C50.2344,38.1415 51.9434,37.5905 53.2644,36.6255 C54.9974,35.3605 56.8194,34.1625 58.3294,32.6615 C59.9734,31.0295 59.8154,30.2345 58.3684,28.3785 C58.1184,28.0575 58.0034,27.5675 57.9794,27.1475 C57.8694,25.2465 57.3384,24.5915 55.4754,24.3415 C54.6224,24.2275 53.7534,24.2345 52.6984,23.7465 C55.0544,22.3965 57.2844,20.7065 59.7974,19.7845 C62.7944,18.6845 65.6044,20.9395 65.8964,24.1835 C66.1434,26.9225 66.2744,29.7285 64.5664,32.0525 C61.1504,36.6975 56.9194,40.1805 50.8394,40.6075 C50.5534,40.6275 50.2514,40.4345 49.7634,40.2795" id="Fill-228" fill="#3B82EE" class="icon__color"></path>
        <path d="M44.1328,22.2476 C44.1778,21.3986 44.0088,20.6006 44.2608,20.4336 C46.7368,18.7846 47.2518,16.0316 48.3198,13.5806 C48.6958,12.7176 49.1738,11.8676 49.7678,11.1466 C50.0498,10.8046 50.8018,10.5376 51.1848,10.6746 C51.5938,10.8206 51.9888,11.4506 52.0788,11.9276 C52.1918,12.5206 52.1828,13.2956 51.8818,13.7786 C50.7548,15.5846 49.6228,17.4216 48.2288,19.0166 C47.2178,20.1746 45.7908,20.9696 44.1328,22.2476" id="Fill-230" fill="#FFFFFF"></path>
        <path d="M39.1389,7.0903 C41.9279,7.9503 43.1229,10.3053 42.1959,12.8493 C41.5149,14.7183 40.5819,16.4993 39.6959,18.2873 C39.2349,19.2173 38.5379,19.2663 37.7309,18.5133 C38.5879,16.4403 39.3649,14.3593 40.3029,12.3533 C41.0389,10.7793 41.0269,9.4603 39.6509,8.2663 C39.4469,8.0893 39.4049,7.7243 39.1389,7.0903" id="Fill-232" fill="#FFFFFF"></path>
        <path d="M45.3054,24.4587 L47.2254,24.4587 C46.3844,25.3387 46.3844,25.3387 45.3054,24.4587" id="Fill-234" fill="#FFFFFF"></path>
        <path d="M42.9692,24.4359 C43.0432,24.5439 43.1232,24.6499 43.1832,24.7659 C43.1892,24.7779 43.0832,24.8489 43.0292,24.8929 C42.9542,24.7839 42.8742,24.6769 42.8112,24.5609 C42.8062,24.5509 42.9132,24.4799 42.9692,24.4359" id="Fill-236" fill="#FFFFFF"></path>
        <path d="M14.8804,38.363 C14.1634,38.675 13.6384,38.744 13.4184,39.041 C13.1644,39.383 13.1804,39.925 13.0794,40.381 C13.5404,40.235 14.1024,40.201 14.4324,39.907 C14.6964,39.672 14.6804,39.121 14.8804,38.363 M14.4944,36.866 C14.7664,37.059 15.2644,37.311 15.6274,37.691 C16.6144,38.727 16.4264,40.159 15.2244,41.23 C14.1574,42.179 12.6274,42.262 11.7734,41.365 C11.5154,41.093 11.3064,40.707 11.2294,40.341 C10.9774,39.155 13.0154,36.844 14.4944,36.866" id="Fill-238" fill="#000000"></path>
        <path d="M39.006,47.0034 C38.898,46.9924 38.791,46.9824 38.683,46.9714 C38.698,47.2054 38.713,47.4404 38.728,47.6744 C38.803,47.6714 38.877,47.6684 38.952,47.6644 C38.97,47.4444 38.988,47.2234 39.006,47.0034 M41.852,46.3294 C41.4,46.2414 41.039,46.1714 40.769,46.1184 C40.57,47.1454 40.506,48.1874 40.133,49.1034 C39.942,49.5734 39.192,50.0974 38.706,50.0864 C38.222,50.0754 37.417,49.4844 37.341,49.0464 C37.147,47.9224 36.938,46.5904 37.369,45.6244 C37.901,44.4274 39.373,44.5044 40.584,44.6504 C41.488,44.7604 42.006,45.2674 41.852,46.3294" id="Fill-240" fill="#000000"></path>
        <path d="M14.8804,38.363 C14.6804,39.121 14.6964,39.672 14.4324,39.907 C14.1024,40.201 13.5404,40.235 13.0794,40.381 C13.1804,39.925 13.1644,39.383 13.4184,39.041 C13.6384,38.744 14.1634,38.675 14.8804,38.363" id="Fill-242" fill="#FFFFFF"></path>
        <path d="M39.006,47.0034 C38.988,47.2234 38.97,47.4444 38.952,47.6644 C38.877,47.6684 38.803,47.6714 38.728,47.6744 C38.713,47.4404 38.698,47.2054 38.683,46.9714 C38.791,46.9824 38.898,46.9924 39.006,47.0034" id="Fill-244" fill="#FFFFFF"></path>
    </g>
</svg>
