<svg width="78px" height="62px" viewBox="276 296 78 62" version="1.1" xmlns="http://www.w3.org/2000/svg" xmlns:xlink="http://www.w3.org/1999/xlink">
    <defs></defs>
    <g id="Group-6" stroke="none" stroke-width="1" fill="none" fill-rule="evenodd" transform="translate(276.000000, 296.000000)">
        <g id="Group-4">
            <g id="Group-155" transform="translate(0.000000, 0.826000)">
                <path d="M62.5176,56.4726 C60.9276,54.7326 57.8776,49.9726 56.0676,48.3526 C55.4876,47.8426 54.9076,47.4826 54.3176,47.2726 C55.3376,46.7626 56.3276,46.1926 57.3076,45.5626 C58.2176,44.9626 59.1976,44.4626 60.0576,43.9726 C63.5376,46.9526 64.5376,52.9826 62.5176,56.4726" id="Fill-149" fill="#FFFFFF"></path>
                <path d="M49.2976,48.4726 C51.1576,47.1426 52.7776,46.7226 54.3176,47.2726 C53.3376,47.7826 52.3376,48.2326 51.3176,48.6326 C50.6476,48.5926 49.9676,48.6226 49.2976,48.4726" id="Fill-151" fill="#000000"></path>
                <path d="M12.9976,38.3326 C12.6076,37.1526 11.7376,36.8426 10.6676,36.5926 C8.1876,36.0126 5.7076,35.3726 3.2576,34.6526 C2.3076,34.3726 1.4476,33.8126 0.1176,33.1626 C0.9776,32.3726 1.4376,31.7126 2.0776,31.4026 C4.9976,29.9426 7.9976,28.6426 10.9076,27.1526 C11.5976,26.8026 12.1776,26.0326 12.5576,25.3226 C13.6376,23.3026 14.6876,21.2426 15.5676,19.1226 C15.8976,18.3026 16.0576,17.1726 15.7676,16.3726 C14.9176,14.0626 13.8276,11.8526 12.7876,9.6126 C12.5276,9.0426 12.1176,8.5426 11.7476,7.9526 C12.8376,6.2326 14.5576,5.7426 16.2676,5.6126 C19.9776,5.3126 23.4876,6.0426 26.1976,8.8326 C27.4876,10.1626 28.7476,10.1426 30.4876,9.8826 C34.0776,9.3626 37.7376,9.2526 41.3676,9.0826 C44.8176,8.9226 47.0376,7.2826 48.0376,3.8926 C48.3676,2.7726 48.6676,1.6326 48.9676,0.5626 C56.3576,1.0726 58.9776,6.1126 58.0476,11.3326 C57.9676,11.7226 57.9676,12.1226 57.9076,12.5226 C57.4876,15.2326 58.9776,17.2226 61.7776,17.5326 C62.9576,17.6626 64.1776,17.6426 65.3676,17.5426 C69.0676,17.2626 72.0576,18.9726 74.8076,21.0726 C76.5976,22.4526 77.5276,24.4326 76.9476,26.8126 C76.8076,27.3526 76.6576,27.9826 76.2876,28.3326 C73.7976,30.7026 71.2176,33.0526 67.6076,33.4826 C66.2376,33.6426 65.7876,34.3126 65.3176,35.4626 C64.5076,37.4326 63.5476,39.3826 62.3876,41.1626 C61.5976,42.4026 61.5576,43.1826 62.5476,44.3026 C65.3776,47.4826 65.9576,55.0726 63.6776,58.5826 C63.3376,59.1226 62.6176,59.4126 62.0676,59.8226 C61.7376,59.3426 61.2476,58.9026 61.0876,58.3626 C60.2876,55.6926 56.9276,50.9526 54.8376,49.3426 C54.0776,48.7426 52.7676,48.8026 51.6976,48.6726 C51.5676,48.6526 51.4476,48.6426 51.3176,48.6326 C52.3376,48.2326 53.3376,47.7826 54.3176,47.2726 C54.9076,47.4826 55.4876,47.8426 56.0676,48.3526 C57.8776,49.9726 60.9276,54.7326 62.5176,56.4726 C64.5376,52.9826 63.5376,46.9526 60.0576,43.9726 C59.1976,44.4626 58.2176,44.9626 57.3076,45.5626 C56.3276,46.1926 55.3376,46.7626 54.3176,47.2726 C52.7776,46.7226 51.1576,47.1426 49.2976,48.4726 C49.9676,48.6226 50.6476,48.5926 51.3176,48.6326 C46.7476,50.4526 41.8876,51.3426 36.9076,51.8126 C34.6676,52.0326 34.6576,51.9326 33.9476,54.3326 C32.7276,58.4726 26.8476,61.4826 22.5176,59.9826 C22.6876,59.4226 22.8376,58.8426 23.0376,58.2726 C23.5176,56.9326 24.1376,55.6126 24.4976,54.2426 C25.2276,51.4026 24.8976,50.7126 22.3376,49.1726 C18.0276,46.5926 14.6276,43.2126 12.9976,38.3326 M11.7376,33.4226 L11.7376,28.5226 C8.6076,29.8426 5.8176,30.5926 3.1276,33.0126 C5.7776,33.7126 7.8776,34.3226 10.0176,34.8026 C11.0076,35.0326 11.7376,34.5926 11.7376,33.4226 M26.1976,52.7226 C25.7476,54.6426 25.3776,56.5726 24.9476,58.6626 C27.5876,58.8626 31.5876,56.2826 32.1876,54.0326 C32.3276,53.4926 32.1776,52.3626 31.9876,52.3226 C30.3076,51.9526 28.5976,51.7326 26.8776,51.6026 C26.6776,51.5826 26.2976,52.3026 26.1976,52.7226 M22.7976,47.3326 C24.7676,48.5926 27.0776,49.8026 29.3376,50.0426 C32.9476,50.4326 36.7176,50.4126 40.2876,49.7926 C44.2476,49.1026 48.1176,47.6926 51.9276,46.2926 C54.0676,45.5126 56.0876,44.2626 57.9876,42.9626 C60.6976,41.1126 62.6176,38.5726 63.4476,35.3226 C63.9276,33.4226 63.1576,31.5026 63.7876,29.4826 C64.1976,28.1526 63.3976,26.3626 62.8976,24.8626 C60.5776,17.9026 54.8276,14.5426 48.6176,12.0126 C44.1176,10.1726 39.2876,10.1026 34.4876,11.3226 C33.5876,11.5526 32.5376,11.6726 31.6476,11.4626 C29.8576,11.0326 28.6876,11.4426 28.2276,13.5526 C26.4376,12.0426 24.9376,12.8326 23.4776,13.7026 C18.8076,16.4826 15.9476,20.6126 14.1376,25.6726 C13.2876,28.0526 13.5776,30.3826 13.5976,32.7426 C13.6176,36.3426 14.9176,39.6126 17.1076,42.3526 C18.6676,44.2926 20.6876,45.9926 22.7976,47.3326 M17.6376,15.8926 C20.2276,14.1926 22.7676,12.5226 25.3176,10.8426 C23.2176,7.2226 17.4376,5.9426 14.4376,8.5726 C15.5176,11.0326 16.6076,13.5426 17.6376,15.8926 M47.0476,9.3826 C48.6276,10.1326 50.0076,10.7426 51.3376,11.4426 C52.7176,12.1526 54.0476,12.9626 55.4276,13.7526 C57.9276,7.8926 55.6576,3.1126 50.6876,2.8326 C49.4876,4.9926 48.3076,7.1226 47.0476,9.3826 M73.5776,22.2126 C71.9776,21.0526 70.1476,20.0926 68.2776,19.5026 C66.5076,18.9426 64.5576,18.9426 62.6176,19.5726 C63.4876,21.6326 64.4476,23.4826 65.0376,25.4326 C65.6376,27.4026 65.8776,29.4726 66.3576,31.9426 C66.9576,31.8626 67.6976,31.9126 68.2976,31.6426 C70.0376,30.8526 71.8076,30.0826 73.3876,29.0426 C75.9676,27.3426 76.0876,24.0226 73.5776,22.2126" id="Fill-153" fill="#000000"></path>
            </g>
            <path d="M38.2017,44.9107 C42.6067,45.0157 46.3757,43.6117 50.0147,41.3017 C52.9917,39.4127 55.1117,37.0007 56.2707,33.7177 C57.8807,29.1567 56.5767,25.0007 52.4157,22.5207 C49.6887,20.8957 46.7317,19.6327 43.8067,18.3727 C40.4237,16.9147 36.7277,17.3677 33.1847,17.1007 C29.2257,16.8017 25.7777,18.3817 23.7137,21.9897 C22.6557,23.8407 21.6937,25.8417 21.1977,27.8967 C20.3397,31.4517 20.2827,35.0337 22.6617,38.2077 C24.4047,40.5337 26.2767,42.7297 29.2847,43.3527 C32.2377,43.9647 35.2277,44.3987 38.2017,44.9107 M28.2257,14.3797 C28.6877,12.2677 29.8617,11.8547 31.6457,12.2837 C32.5367,12.4987 33.5837,12.3827 34.4927,12.1507 C39.2847,10.9277 44.1157,10.9957 48.6207,12.8367 C54.8267,15.3727 60.5787,18.7297 62.9007,25.6847 C63.4017,27.1877 64.2007,28.9827 63.7887,30.3087 C63.1617,32.3257 63.9277,34.2487 63.4447,36.1497 C62.6187,39.3967 60.6987,41.9347 57.9897,43.7847 C56.0887,45.0837 54.0697,46.3357 51.9247,47.1237 C48.1227,48.5207 44.2517,49.9297 40.2847,50.6217 C36.7197,51.2437 32.9507,51.2567 29.3427,50.8707 C27.0757,50.6287 24.7707,49.4217 22.7937,48.1607 C20.6847,46.8147 18.6647,45.1187 17.1057,43.1737 C14.9177,40.4427 13.6217,37.1667 13.5977,33.5687 C13.5817,31.2097 13.2897,28.8817 14.1407,26.5007 C15.9517,21.4357 18.8127,17.3067 23.4787,14.5327 C24.9397,13.6637 26.4347,12.8717 28.2257,14.3797" id="Fill-156" fill="#3B82EE" class="icon__color"></path>
            <path d="M66.357,32.773 C65.875,30.298 65.64,28.225 65.042,26.263 C64.445,24.304 63.485,22.456 62.615,20.395 C64.559,19.773 66.511,19.766 68.273,20.326 C70.144,20.92 71.979,21.881 73.575,23.034 C76.09,24.85 75.971,28.172 73.392,29.867 C71.808,30.909 70.036,31.681 68.3,32.468 C67.701,32.74 66.955,32.688 66.357,32.773" id="Fill-158" fill="#FFFFFF"></path>
            <path d="M47.0454,10.2126 C48.3034,7.9466 49.4854,5.8196 50.6834,3.6616 C55.6614,3.9356 57.9254,8.7216 55.4234,14.5746 C54.0454,13.7896 52.7174,12.9826 51.3424,12.2646 C50.0094,11.5686 48.6294,10.9636 47.0454,10.2126" id="Fill-160" fill="#FFFFFF"></path>
            <path d="M25.3168,11.672 C22.7718,13.346 20.2248,15.021 17.6398,16.721 C16.6108,14.364 15.5178,11.859 14.4418,9.395 C17.4328,6.77 23.2138,8.053 25.3168,11.672" id="Fill-162" fill="#FFFFFF"></path>
            <path d="M24.95,59.4916 C25.381,57.4026 25.753,55.4676 26.197,53.5496 C26.295,53.1266 26.677,52.4116 26.882,52.4276 C28.594,52.5636 30.307,52.7816 31.983,53.1456 C32.177,53.1876 32.333,54.3186 32.188,54.8596 C31.585,57.1056 27.585,59.6876 24.95,59.4916" id="Fill-164" fill="#FFFFFF"></path>
            <path d="M11.7349,29.3438 L11.7349,34.2508 C11.7339,35.4228 11.0089,35.8548 10.0159,35.6308 C7.8829,35.1498 5.7779,34.5378 3.1309,33.8388 C5.8189,31.4148 8.6109,30.6708 11.7349,29.3438" id="Fill-166" fill="#FFFFFF"></path>
            <path d="M38.4932,35.1657 C38.8932,34.9617 39.8872,34.6977 40.5012,34.0657 C41.0162,33.5347 41.5132,32.3607 41.2582,31.8547 C40.8612,31.0647 39.8882,30.4497 39.0242,30.0537 C38.5522,29.8367 37.7872,30.1657 37.1832,30.3477 C35.5792,30.8307 34.8852,31.9587 35.1302,33.5717 C35.2732,34.5107 36.4962,35.2047 38.4932,35.1657 M28.9982,41.1897 C33.7362,43.0427 38.2832,43.1507 43.1812,42.4347 C40.9352,39.4387 39.5312,35.9517 35.1992,36.3247 C35.1242,36.3317 35.0412,36.2997 34.9682,36.2717 C33.9122,35.8687 33.1372,36.2547 32.4612,37.0847 C31.4102,38.3767 30.3162,39.6337 28.9982,41.1897 M30.0602,18.9907 C31.4562,18.7137 32.1242,19.6347 32.6462,20.6557 C33.6622,22.6417 34.7702,24.6037 35.5452,26.6857 C36.6702,29.7137 39.7602,27.7357 41.4952,29.2067 C41.8462,29.5037 42.7952,29.1877 43.4332,29.0207 C43.7872,28.9267 44.0632,28.5487 44.3822,28.3087 C45.6562,27.3497 46.9022,26.3457 48.2252,25.4587 C48.8112,25.0657 49.5572,24.9127 50.2302,24.6497 C50.3772,24.8377 50.5242,25.0257 50.6712,25.2127 C50.2232,25.7637 49.8532,26.4097 49.3132,26.8457 C47.7632,28.0997 46.1222,29.2387 44.5692,30.4887 C44.1172,30.8527 43.7682,31.3997 43.5022,31.9277 C42.9472,33.0317 42.6682,34.3287 41.9252,35.2697 C40.9742,36.4777 41.0742,37.5447 41.9602,38.4827 C43.1402,39.7337 43.8242,41.8587 46.2152,41.3337 C46.3682,41.2997 46.5142,41.2177 46.6502,41.1377 C48.9232,39.7957 51.2002,38.4427 52.7962,36.2657 C55.4872,32.5947 56.0372,27.8347 52.1372,24.4317 C50.1852,22.7287 48.0022,21.6227 45.5972,20.6487 C40.9272,18.7587 36.0422,19.1317 31.2302,18.6957 C30.8632,18.6627 30.4712,18.9027 30.0902,19.0157 C29.3542,19.3187 28.5592,19.5277 27.8922,19.9427 C26.4562,20.8377 25.1652,21.9027 24.7192,23.6657 C24.2372,25.5707 23.7772,27.4807 23.2572,29.3757 C22.3182,32.7977 22.5542,35.9357 25.2602,38.5667 C26.9072,40.1677 27.2142,40.2147 28.9222,38.5617 C30.0662,37.4537 31.1412,36.2747 32.2102,35.0937 C32.4602,34.8187 32.5912,34.4197 32.7212,34.0567 C33.1982,32.7297 33.7152,31.4117 34.0882,30.0547 C34.2802,29.3547 34.3872,28.5257 34.1962,27.8507 C33.9192,26.8697 33.3272,25.9787 32.8862,25.0417 C31.9392,23.0267 31.0012,21.0077 30.0602,18.9907 M38.2022,44.9107 C35.2282,44.3987 32.2382,43.9647 29.2852,43.3527 C26.2772,42.7297 24.4042,40.5337 22.6612,38.2077 C20.2832,35.0337 20.3402,31.4517 21.1982,27.8977 C21.6942,25.8417 22.6562,23.8407 23.7142,21.9907 C25.7772,18.3817 29.2262,16.8017 33.1842,17.1007 C36.7282,17.3677 40.4232,16.9147 43.8072,18.3727 C46.7322,19.6327 49.6892,20.8957 52.4152,22.5207 C56.5762,25.0007 57.8802,29.1567 56.2712,33.7177 C55.1122,37.0007 52.9912,39.4127 50.0152,41.3017 C46.3762,43.6117 42.6062,45.0157 38.2022,44.9107" id="Fill-168" fill="#000000"></path>
            <path d="M30.0905,19.0159 C30.4715,18.9029 30.8635,18.6629 31.2305,18.6959 C36.0425,19.1319 40.9265,18.7589 45.5975,20.6489 C48.0015,21.6219 50.1845,22.7289 52.1375,24.4319 C56.0365,27.8339 55.4875,32.5939 52.7965,36.2659 C51.2005,38.4419 48.9225,39.7959 46.6505,41.1379 C46.5135,41.2179 46.3675,41.2999 46.2155,41.3329 C43.8245,41.8579 43.1405,39.7339 41.9595,38.4829 C41.0735,37.5449 40.9735,36.4769 41.9255,35.2699 C42.6675,34.3279 42.9465,33.0309 43.5025,31.9279 C43.7685,31.3989 44.1175,30.8519 44.5695,30.4879 C46.1225,29.2389 47.7635,28.0989 49.3125,26.8459 C49.8525,26.4089 50.2235,25.7629 50.6715,25.2129 C50.5245,25.0249 50.3775,24.8379 50.2305,24.6499 C49.5575,24.9119 48.8115,25.0659 48.2255,25.4589 C46.9015,26.3459 45.6565,27.3489 44.3815,28.3089 C44.0635,28.5489 43.7875,28.9269 43.4335,29.0199 C42.7955,29.1879 41.8465,29.5039 41.4955,29.2059 C39.7605,27.7359 36.6705,29.7129 35.5445,26.6849 C34.7705,24.6029 33.6615,22.6419 32.6455,20.6549 C32.1245,19.6349 31.4555,18.7139 30.0605,18.9909 L30.0905,19.0159 Z" id="Fill-170" fill="#FFFFFF"></path>
            <path d="M30.0601,18.9906 C31.0021,21.0076 31.9391,23.0266 32.8861,25.0416 C33.3271,25.9786 33.9191,26.8696 34.1961,27.8506 C34.3871,28.5256 34.2801,29.3546 34.0881,30.0546 C33.7151,31.4116 33.1981,32.7296 32.7211,34.0566 C32.5911,34.4196 32.4601,34.8186 32.2111,35.0936 C31.1411,36.2746 30.0661,37.4546 28.9221,38.5616 C27.2141,40.2146 26.9071,40.1676 25.2601,38.5666 C22.5541,35.9356 22.3181,32.7976 23.2571,29.3756 C23.7771,27.4806 24.2371,25.5706 24.7191,23.6656 C25.1651,21.9026 26.4561,20.8376 27.8921,19.9426 C28.5591,19.5276 29.3541,19.3186 30.0901,19.0156 L30.0601,18.9906 Z" id="Fill-172" fill="#FFFFFF"></path>
            <path d="M28.9987,41.1899 C30.3157,39.6329 31.4097,38.3769 32.4617,37.0849 C33.1377,36.2539 33.9127,35.8679 34.9677,36.2719 C35.0417,36.2999 35.1247,36.3319 35.1997,36.3249 C39.5317,35.9519 40.9357,39.4389 43.1807,42.4339 C38.2837,43.1509 33.7357,43.0429 28.9987,41.1899" id="Fill-174" fill="#FFFFFF"></path>
            <path d="M38.4932,35.1657 C36.4962,35.2047 35.2732,34.5107 35.1302,33.5717 C34.8852,31.9587 35.5792,30.8307 37.1832,30.3477 C37.7872,30.1657 38.5522,29.8367 39.0242,30.0537 C39.8882,30.4497 40.8612,31.0647 41.2582,31.8547 C41.5132,32.3607 41.0162,33.5347 40.5012,34.0657 C39.8872,34.6977 38.8932,34.9617 38.4932,35.1657" id="Fill-176" fill="#3B82EE" class="icon__color"></path>
        </g>
    </g>
</svg>
