<svg width="71px" height="61px" viewBox="237 215 71 61" version="1.1" xmlns="http://www.w3.org/2000/svg" xmlns:xlink="http://www.w3.org/1999/xlink">
    <defs></defs>
    <g id="Group" stroke="none" stroke-width="1" fill="none" fill-rule="evenodd" transform="translate(237.000000, 215.000000)">
        <path d="M60.9455,34.5647 C61.4815,33.9387 61.7205,33.6237 61.9965,33.3437 C64.1765,31.1297 64.1935,30.7627 61.9875,28.5497 C60.9875,27.5467 59.9165,26.6127 58.7815,25.5577 C59.4595,24.3367 60.0985,23.2417 60.6845,22.1187 C61.4535,20.6457 61.8795,19.1507 60.8795,17.5797 C59.3435,15.1647 57.4745,13.1477 54.6915,12.1577 C53.1135,11.5957 51.5455,11.0077 49.9735,10.4317 C49.3955,9.1797 48.6505,8.0647 47.6335,7.3227 C46.0265,6.1497 44.3165,5.0487 42.5035,4.2467 C40.7135,3.4537 38.7695,2.7267 36.8445,2.5677 C29.8155,1.9867 23.7355,4.7747 17.9895,8.4387 C17.1895,8.9487 16.6835,9.4117 15.5055,9.2587 C13.6915,9.0227 11.7865,9.5837 10.6615,11.2927 C9.5745,12.9447 8.6105,14.6837 7.6795,16.4307 C6.7975,18.0847 6.5385,19.7107 8.7365,20.8707 C8.0335,21.6167 7.4855,22.1717 6.9685,22.7537 C6.4385,23.3497 5.8835,23.9357 5.4345,24.5917 C3.6295,27.2297 3.6955,27.9637 6.0395,30.2337 C5.1555,31.1987 4.2635,32.1797 3.3635,33.1537 C2.3165,34.2867 1.5855,35.6997 2.3425,37.0757 C3.1875,38.6097 2.7015,39.7417 2.1035,41.0857 C1.2135,43.0837 1.6195,43.9917 3.6235,45.1427 C3.8115,45.2497 3.9355,45.4667 4.1005,45.6437 C4.0195,45.9067 3.9745,46.1397 3.8765,46.3477 C3.7755,46.5627 3.5975,46.7427 3.4985,46.9587 C2.4695,49.1977 3.3875,50.8707 5.8345,50.8627 C7.0375,50.8597 8.2435,50.3187 9.4395,49.9877 C10.1155,49.7997 10.7585,49.4647 11.4425,49.3367 C13.8885,48.8797 14.5155,48.1577 14.5145,45.6167 C14.5145,44.8977 14.4215,44.1707 14.4985,43.4617 C14.5455,43.0267 14.7395,42.3497 15.0345,42.2437 C17.0435,41.5197 16.9155,39.6957 17.3385,38.1237 C17.9325,35.9157 18.5885,33.7247 19.2495,31.5357 C19.2975,31.3777 19.6035,31.2977 19.9665,31.0707 C20.0935,31.5387 20.3155,31.9047 20.2585,32.2197 C19.7285,35.1227 19.3695,38.0847 18.5115,40.8917 C17.8965,42.9057 18.1105,44.5957 18.8585,46.4417 C20.7165,51.0267 24.1345,54.4127 27.5435,57.7787 C28.2565,58.4827 29.5585,58.9707 30.5615,58.9277 C33.4315,58.8037 36.2605,58.3217 38.8065,56.7637 C41.9995,54.8107 44.4405,52.0697 46.8675,49.3067 C47.1025,49.0397 47.1395,48.5997 47.2635,48.2537 C47.0345,48.0017 46.9045,47.7867 46.7165,47.6617 C43.3775,45.4537 43.0615,44.5027 44.1925,40.7957 C44.3655,40.2297 44.2115,39.3957 43.8945,38.8777 C42.6155,36.7877 43.0935,34.9597 45.6965,33.5227 C45.4405,34.4057 45.1675,35.0407 45.0915,35.6977 C45.0125,36.3787 44.8415,37.3947 45.2025,37.7217 C46.6945,39.0737 46.1905,40.3667 45.5165,41.8337 C44.5675,43.9007 45.1415,45.3317 47.2365,46.2627 C48.0895,46.6417 49.0165,46.8537 49.8695,47.1297 C50.0005,50.8847 50.8605,52.1567 53.8345,53.0887 C54.2925,53.2317 54.7575,53.3547 55.2255,53.4587 C56.4015,53.7197 57.5345,53.9247 58.0765,55.3037 C58.2375,55.7137 59.1055,56.0027 59.6805,56.0647 C61.8385,56.2987 63.3815,55.4307 63.8985,53.3237 C64.2375,53.2577 64.4125,53.1657 64.5465,53.2067 C66.6185,53.8407 67.4415,52.0737 68.3475,50.9567 C69.3055,49.7757 68.3225,48.5547 67.4925,47.5447 C67.1885,47.1747 66.8415,46.8397 66.5015,46.5017 C65.6275,45.6327 64.7465,44.7717 63.6865,43.7287 C64.5685,43.3807 65.0765,43.1917 65.5765,42.9817 C67.3325,42.2457 67.5515,41.6697 66.3635,40.1487 C65.3365,38.8337 64.1325,37.6537 62.9745,36.4447 C62.3865,35.8307 61.7285,35.2847 60.9455,34.5647 M3.5945,30.5417 C1.8325,28.3717 2.4475,26.3127 3.9145,24.3977 C5.0865,22.8687 5.6995,21.5117 5.5295,19.3047 C5.2005,15.0067 8.3235,8.6747 13.8775,7.9587 C16.7415,7.5907 19.0975,6.1447 21.5145,4.7627 C25.8965,2.2547 30.6025,0.8937 35.6735,0.8917 C38.4505,0.8907 41.0355,1.5537 43.4205,3.0267 C46.4685,4.9097 49.7805,6.3887 52.1605,9.2467 C52.6735,9.8617 53.6625,10.1147 54.4675,10.4487 C57.6515,11.7707 60.2605,13.7297 62.1195,16.7147 C63.3015,18.6127 63.5555,20.3747 62.3215,22.3017 C61.7685,23.1667 61.3195,24.0977 60.7385,25.1537 C61.5555,25.9807 62.3295,26.7637 63.1035,27.5467 C65.9655,30.4467 66.0115,31.2257 63.3475,34.4927 C63.9005,35.0887 64.4665,35.7237 65.0605,36.3327 C65.6175,36.9047 66.2295,37.4247 66.7725,38.0107 C69.2825,40.7217 69.3065,41.7417 66.8395,44.6197 C67.5615,45.4077 68.3385,46.1867 69.0385,47.0307 C71.2575,49.7067 70.9495,51.4297 68.0515,53.2467 C66.9745,53.9227 66.0425,54.8317 64.9575,55.4927 C63.7435,56.2337 62.4805,56.9487 61.1495,57.4267 C59.6305,57.9727 57.8985,57.7447 56.9055,56.5527 C55.6605,55.0557 53.9585,54.7827 52.4325,53.9877 C50.9195,53.1997 49.5915,52.0557 47.8965,50.8687 C47.1475,51.6377 46.1515,52.6327 45.1855,53.6557 C41.8555,57.1777 37.9775,59.6527 33.0705,60.3937 C30.1585,60.8327 27.6755,60.2587 25.6545,58.0637 C22.0295,54.1257 18.2455,50.2917 16.8695,44.8537 C16.8205,44.6597 16.6205,44.5027 16.3025,44.0777 C16.1715,44.6687 16.0525,45.0097 16.0255,45.3587 C15.7625,48.8167 15.0355,49.6397 11.5905,50.5507 C10.9195,50.7277 10.3155,51.1677 9.6865,51.4957 C8.1445,52.3007 6.5265,52.6367 4.8225,52.1757 C2.6545,51.5897 1.4555,49.9087 1.7655,47.7157 C1.9105,46.6937 1.8535,45.8707 1.1665,45.0497 C0.0815,43.7547 0.0575,42.2257 0.6725,40.7507 C1.1235,39.6687 1.3125,38.7367 0.8515,37.5647 C0.2305,35.9897 0.4935,34.4447 1.6905,33.1027 C2.3735,32.3377 2.9235,31.4547 3.5945,30.5417" id="Fill-268" fill="#000000"></path>
        <path d="M35.9492,29.9484 C36.3162,30.8584 35.7812,32.3884 37.3742,32.7434 C38.2642,32.9414 39.1502,31.4194 39.2152,29.8264 C39.2632,28.6264 38.5362,28.0984 37.5212,27.9434 C36.5772,27.8004 35.9302,28.6424 35.9492,29.9484 M29.7412,30.2054 C29.7612,28.3864 28.6952,27.0514 27.5602,27.0954 C26.6132,27.1324 25.8402,27.5144 25.7332,28.5854 C25.6092,29.8234 27.0482,31.4144 28.2452,31.2004 C28.8652,31.0894 29.3912,30.4514 29.7412,30.2054 M31.7972,54.5494 C33.0902,54.1954 34.4462,53.9864 35.6632,53.4584 C38.4022,52.2724 38.6352,49.3784 36.2192,47.6014 C33.8642,45.8694 29.4652,46.0394 27.2942,47.9464 C26.0752,49.0184 25.8992,50.1374 26.7562,51.5364 C27.8932,53.3914 29.5782,54.2814 31.7972,54.5494 M60.9452,34.5644 C61.7282,35.2854 62.3872,35.8304 62.9742,36.4444 C64.1322,37.6534 65.3362,38.8334 66.3632,40.1484 C67.5512,41.6694 67.3322,42.2454 65.5762,42.9824 C65.0762,43.1914 64.5682,43.3814 63.6862,43.7284 C64.7472,44.7714 65.6282,45.6334 66.5012,46.5014 C66.8412,46.8394 67.1882,47.1744 67.4922,47.5444 C68.3222,48.5544 69.3052,49.7754 68.3472,50.9564 C67.4412,52.0734 66.6182,53.8404 64.5462,53.2064 C64.4122,53.1654 64.2372,53.2574 63.8982,53.3234 C63.3812,55.4304 61.8382,56.2984 59.6802,56.0654 C59.1062,56.0034 58.2372,55.7134 58.0762,55.3044 C57.5342,53.9254 56.4012,53.7194 55.2252,53.4584 C54.7572,53.3544 54.2922,53.2314 53.8352,53.0884 C50.8602,52.1564 50.0002,50.8854 49.8692,47.1294 C49.0162,46.8544 48.0892,46.6414 47.2362,46.2624 C45.1412,45.3314 44.5682,43.9004 45.5172,41.8344 C46.1912,40.3674 46.6942,39.0734 45.2022,37.7214 C44.8412,37.3944 45.0122,36.3794 45.0912,35.6974 C45.1672,35.0404 45.4402,34.4054 45.6962,33.5224 C43.0932,34.9604 42.6152,36.7874 43.8942,38.8774 C44.2112,39.3954 44.3652,40.2294 44.1932,40.7954 C43.0622,44.5034 43.3782,45.4534 46.7162,47.6624 C46.9052,47.7874 47.0342,48.0014 47.2632,48.2534 C47.1392,48.5994 47.1022,49.0394 46.8682,49.3064 C44.4402,52.0694 41.9992,54.8114 38.8062,56.7644 C36.2602,58.3214 33.4312,58.8034 30.5622,58.9274 C29.5582,58.9704 28.2562,58.4824 27.5432,57.7784 C24.1342,54.4124 20.7162,51.0274 18.8582,46.4414 C18.1102,44.5964 17.8962,42.9054 18.5112,40.8914 C19.3692,38.0844 19.7282,35.1224 20.2582,32.2194 C20.3152,31.9044 20.0932,31.5384 19.9672,31.0714 C19.6032,31.2974 19.2972,31.3774 19.2492,31.5354 C18.5882,33.7244 17.9332,35.9164 17.3382,38.1244 C16.9152,39.6954 17.0432,41.5194 15.0342,42.2434 C14.7392,42.3494 14.5452,43.0274 14.4982,43.4614 C14.4212,44.1704 14.5152,44.8974 14.5152,45.6164 C14.5152,48.1574 13.8892,48.8804 11.4422,49.3374 C10.7582,49.4654 10.1162,49.8004 9.4392,49.9874 C8.2442,50.3184 7.0372,50.8594 5.8342,50.8634 C3.3872,50.8704 2.4702,49.1974 3.4982,46.9584 C3.5982,46.7424 3.7762,46.5634 3.8762,46.3474 C3.9742,46.1394 4.0192,45.9074 4.1002,45.6444 C3.9362,45.4664 3.8112,45.2504 3.6232,45.1424 C1.6192,43.9914 1.2132,43.0834 2.1032,41.0854 C2.7022,39.7424 3.1872,38.6104 2.3422,37.0754 C1.5852,35.6994 2.3162,34.2874 3.3632,33.1544 C4.2642,32.1804 5.1562,31.1994 6.0402,30.2334 C3.6952,27.9634 3.6292,27.2304 5.4342,24.5914 C5.8832,23.9354 6.4382,23.3504 6.9682,22.7534 C7.4852,22.1714 8.0332,21.6164 8.7362,20.8704 C6.5382,19.7104 6.7972,18.0844 7.6792,16.4304 C8.6112,14.6834 9.5752,12.9454 10.6622,11.2924 C11.7862,9.5844 13.6912,9.0234 15.5052,9.2584 C16.6832,9.4124 17.1892,8.9484 17.9902,8.4384 C23.7362,4.7744 29.8162,1.9864 36.8442,2.5674 C38.7702,2.7274 40.7132,3.4534 42.5042,4.2464 C44.3162,5.0484 46.0272,6.1494 47.6332,7.3224 C48.6502,8.0654 49.3952,9.1794 49.9732,10.4324 C51.5462,11.0084 53.1142,11.5964 54.6912,12.1574 C57.4742,13.1474 59.3432,15.1654 60.8802,17.5794 C61.8802,19.1504 61.4532,20.6464 60.6842,22.1194 C60.0982,23.2414 59.4592,24.3374 58.7812,25.5574 C59.9162,26.6124 60.9872,27.5464 61.9882,28.5504 C64.1932,30.7624 64.1772,31.1304 61.9962,33.3444 C61.7202,33.6234 61.4812,33.9384 60.9452,34.5644" id="Fill-270" fill="#3B82EE" class="icon__color"></path>
        <path d="M31.7974,54.5497 C29.5774,54.2817 27.8934,53.3907 26.7564,51.5357 C25.8994,50.1377 26.0744,49.0187 27.2944,47.9467 C29.4654,46.0397 33.8634,45.8687 36.2184,47.6007 C38.6354,49.3787 38.4024,52.2727 35.6634,53.4587 C34.4454,53.9867 33.0904,54.1957 31.7974,54.5497" id="Fill-272" fill="#000000"></path>
        <path d="M29.7412,30.2056 C29.3912,30.4516 28.8652,31.0896 28.2452,31.2006 C27.0482,31.4136 25.6092,29.8236 25.7332,28.5856 C25.8402,27.5146 26.6132,27.1326 27.5602,27.0956 C28.6952,27.0516 29.7612,28.3866 29.7412,30.2056" id="Fill-274" fill="#000000"></path>
        <path d="M35.9492,29.9484 C35.9302,28.6424 36.5772,27.8004 37.5212,27.9434 C38.5362,28.0984 39.2632,28.6264 39.2152,29.8264 C39.1502,31.4194 38.2642,32.9414 37.3742,32.7434 C35.7812,32.3884 36.3162,30.8584 35.9492,29.9484" id="Fill-276" fill="#000000"></path>
    </g>
</svg>
