<svg width="60px" height="47px" viewBox="45 172 60 47" version="1.1" xmlns="http://www.w3.org/2000/svg" xmlns:xlink="http://www.w3.org/1999/xlink">
    <defs></defs>
    <g id="Group-2" stroke="none" stroke-width="1" fill="none" fill-rule="evenodd" transform="translate(45.000000, 172.000000)">
        <path d="M33.4297,39.031 C33.2357,38.8 33.0637,38.497 32.9857,38.52 C32.7477,38.589 32.5467,38.783 32.3317,38.929 C32.4897,39.056 32.6357,39.262 32.8087,39.289 C32.9727,39.314 33.1657,39.15 33.4297,39.031 M28.4287,40.784 C29.4307,41.112 30.1297,41.341 31.0237,41.634 C30.7097,39.47 29.7507,40.081 28.4287,40.784 M26.9597,40.916 C26.1317,42.748 26.1317,42.748 27.7807,43.717 C27.5247,42.845 27.3167,42.134 26.9597,40.916 M22.0827,5.713 C26.3567,7.702 30.4707,9.617 34.5647,11.522 C35.8387,9.049 35.6827,8.32 33.4507,7.486 C31.5447,6.774 30.5017,5.688 30.7747,3.574 C30.8017,3.366 30.6557,3.136 30.5937,2.926 C25.5327,3.175 23.4607,3.846 22.0827,5.713 M45.6847,32.329 C44.0727,31.641 42.6337,32.41 41.3577,33.123 C39.1547,34.355 37.1057,35.864 34.9067,37.313 C35.1107,37.904 35.3147,38.407 35.4537,38.927 C35.5537,39.304 35.6837,39.737 35.5847,40.084 C35.4887,40.42 35.1517,40.887 34.8627,40.934 C33.1357,41.213 33.3117,44.57 30.7567,43.451 C30.5567,43.363 30.2847,43.439 30.0367,43.439 C29.9517,43.546 29.7787,43.663 29.7747,43.784 C29.7507,44.716 30.0757,45.973 28.7787,46.109 C27.9737,46.194 26.6617,45.785 26.3157,45.177 C24.6837,42.313 22.2667,42.332 19.4097,42.478 C14.1147,42.749 9.5167,41 6.1317,36.661 C5.7057,36.115 5.1187,35.641 4.5137,35.298 C2.0077,33.879 1.9947,33.902 2.4387,31.057 C-0.1153,29.129 -0.1363,28.075 2.5347,26.299 C4.6237,24.91 6.1387,23.258 6.5597,20.656 C7.5687,14.411 11.5647,10.464 16.9707,7.786 C18.5227,7.017 19.8837,6.314 20.6877,4.65 C21.5357,2.897 23.4027,2.516 25.0937,2.091 C26.8677,1.644 28.6867,1.37 30.4887,1.041 C32.3127,0.708 33.1497,1.496 32.5937,3.226 C32.1367,4.65 32.4977,5.494 33.7607,6.175 C37.4437,8.16 37.4327,8.177 36.1557,11.995 C36.1087,12.137 36.1497,12.308 36.1497,12.546 C37.7747,14.358 39.9697,15.272 42.2257,16.106 C43.1237,16.438 43.7647,16.194 44.3267,15.488 C46.2127,13.123 48.3947,10.99 49.5347,8.071 C50.2047,6.357 51.6497,6.212 52.4297,7.869 C53.1077,9.309 53.1907,11.055 53.3977,12.684 C53.5447,13.837 53.4727,15.02 53.4747,16.189 C53.4757,16.971 53.6027,17.805 53.3797,18.524 C52.9327,19.963 53.5827,20.648 54.7957,21.063 C55.7757,21.399 56.8167,21.59 57.7537,22.015 C59.3387,22.733 59.4997,23.83 58.1497,24.925 C57.3037,25.611 56.2697,26.066 55.0627,26.775 C55.5767,27.513 56.0527,28.197 56.5287,28.88 C57.5757,30.383 58.7997,31.796 59.6207,33.413 C60.5097,35.162 59.5497,36.246 57.6317,35.881 C56.9327,35.748 56.2817,35.36 55.5827,35.228 C54.3557,34.997 53.1087,34.869 51.8697,34.706 C50.3737,34.51 48.8297,34.482 47.4007,34.061 C46.7127,33.858 46.2427,32.919 45.6737,32.313 C49.6827,32.902 53.6907,33.49 58.0577,34.131 C57.7517,33.281 57.7047,32.858 57.4807,32.575 C56.5947,31.454 55.6787,30.355 54.7277,29.29 C53.1867,27.563 53.3457,26.274 55.2937,25.002 C55.9247,24.59 56.5367,24.149 57.5147,23.474 C55.9407,22.944 54.8037,22.611 53.7057,22.179 C51.9527,21.491 51.5477,20.507 51.6687,18.634 C51.8357,16.026 51.8167,13.404 51.8077,10.788 C51.8057,10.313 51.4677,9.839 51.2207,9.199 C49.7587,11.092 48.5057,12.813 47.1497,14.447 C45.7117,16.179 45.6687,16.144 46.3177,18.204 C45.9187,18.249 45.5417,18.358 45.1777,18.323 C42.2387,18.038 39.7057,16.68 37.2217,15.23 C34.1197,13.418 31.0567,11.538 27.9507,9.733 C27.2967,9.354 26.5257,9.176 25.8197,8.909 C25.5547,9.542 25.3837,9.951 25.1557,10.494 C24.4887,10.131 23.9147,9.873 23.3977,9.529 C20.9507,7.902 18.4747,8.226 16.1917,9.696 C12.1717,12.285 9.1017,15.722 8.1957,20.572 C7.6427,23.539 6.2077,25.713 3.6977,27.297 C3.2427,27.584 2.9617,28.145 2.3367,28.897 C3.8707,29.127 4.9207,29.285 6.5067,29.523 C5.7587,30.311 5.3177,30.784 4.8667,31.248 C3.7307,32.414 3.8057,32.915 5.1507,33.777 C5.7437,34.158 6.3887,34.567 6.7847,35.124 C9.1647,38.478 12.4897,40.162 16.4607,40.693 C18.5687,40.975 20.7067,41.224 22.8427,40.235 C22.7057,39.545 22.6097,39.01 22.4907,38.479 C22.3067,37.659 22.1607,36.734 23.2497,36.582 C24.1667,36.454 24.2687,37.246 24.3807,38.038 C24.6157,39.698 25.0147,39.938 26.5817,39.455 C27.5667,39.152 28.5827,38.811 29.4397,38.261 C31.5557,36.904 33.5797,35.404 35.6617,33.993 C36.0127,33.755 36.4607,33.641 36.8787,33.528 C37.3767,33.393 38.0247,33.485 38.3767,33.197 C41.2967,30.811 44.7497,30.423 48.3147,30.437 C48.7807,30.438 49.2447,30.656 49.7097,30.773 C49.7137,30.96 49.7177,31.147 49.7217,31.334 C48.3767,31.665 47.0307,31.997 45.6847,32.329" id="Fill-118" fill="#000000"></path>
        <path d="M19.5459,19.164 C17.9379,19.32 17.4499,20.073 17.3389,21.117 C17.2399,22.042 17.6169,22.726 18.6309,22.71 C19.6989,22.693 20.5959,22.103 20.5629,21.028 C20.5419,20.344 19.8469,19.681 19.5459,19.164 M34.1169,20.995 C33.7029,23.063 33.3149,24.841 33.9279,26.915 C35.9879,24.972 36.0399,23.296 34.1169,20.995 M28.3309,21.434 C27.7009,24.164 27.1309,26.636 26.4509,29.581 C27.5989,29.45 28.6139,29.642 29.1289,29.221 C31.0969,27.612 30.7259,23.296 28.3309,21.434 M45.6849,32.329 C47.0309,31.997 48.3759,31.665 49.7219,31.334 C49.7179,31.147 49.7139,30.96 49.7099,30.773 C49.2449,30.656 48.7809,30.438 48.3149,30.437 C44.7499,30.423 41.2959,30.811 38.3769,33.197 C38.0239,33.485 37.3759,33.393 36.8789,33.528 C36.4609,33.641 36.0129,33.755 35.6619,33.993 C33.5799,35.404 31.5559,36.904 29.4399,38.261 C28.5829,38.811 27.5669,39.152 26.5819,39.455 C25.0149,39.938 24.6159,39.698 24.3809,38.038 C24.2689,37.246 24.1669,36.454 23.2499,36.582 C22.1599,36.734 22.3069,37.659 22.4909,38.479 C22.6089,39.01 22.7059,39.545 22.8429,40.235 C20.7059,41.224 18.5689,40.975 16.4609,40.693 C12.4899,40.162 9.1649,38.478 6.7849,35.124 C6.3889,34.567 5.7439,34.157 5.1509,33.777 C3.8059,32.915 3.7309,32.414 4.8669,31.248 C5.3179,30.784 5.7589,30.311 6.5069,29.523 C4.9209,29.285 3.8709,29.127 2.3359,28.897 C2.9619,28.145 3.2429,27.584 3.6979,27.297 C6.2069,25.713 7.6419,23.539 8.1959,20.572 C9.1019,15.722 12.1719,12.284 16.1919,9.696 C18.4749,8.225 20.9499,7.902 23.3979,9.529 C23.9149,9.873 24.4889,10.131 25.1559,10.494 C25.3829,9.951 25.5539,9.542 25.8199,8.909 C26.5259,9.176 27.2969,9.354 27.9499,9.733 C31.0569,11.537 34.1189,13.418 37.2219,15.23 C39.7049,16.68 42.2389,18.038 45.1769,18.323 C45.5409,18.358 45.9189,18.249 46.3179,18.204 C45.6679,16.144 45.7109,16.179 47.1489,14.447 C48.5059,12.813 49.7589,11.092 51.2209,9.199 C51.4679,9.839 51.8059,10.313 51.8069,10.787 C51.8169,13.404 51.8359,16.026 51.6679,18.634 C51.5479,20.507 51.9529,21.491 53.7059,22.179 C54.8039,22.611 55.9409,22.944 57.5139,23.474 C56.5359,24.149 55.9249,24.59 55.2939,25.002 C53.3449,26.274 53.1859,27.562 54.7279,29.29 C55.6789,30.355 56.5949,31.454 57.4799,32.575 C57.7039,32.858 57.7519,33.281 58.0579,34.131 C53.6899,33.49 49.6819,32.902 45.6739,32.313 L45.6849,32.329" id="Fill-120" fill="#3B82EE" class="icon__color"></path>
        <path d="M22.083,5.7129 C23.461,3.8459 25.533,3.1749 30.594,2.9259 C30.656,3.1359 30.802,3.3659 30.775,3.5739 C30.501,5.6879 31.545,6.7739 33.451,7.4859 C35.682,8.3199 35.838,9.0489 34.565,11.5219 C30.471,9.6169 26.356,7.7019 22.083,5.7129" id="Fill-122" fill="#FFFFFF"></path>
        <path d="M26.9592,40.9156 C27.3162,42.1346 27.5252,42.8456 27.7812,43.7166 C26.1322,42.7476 26.1322,42.7476 26.9592,40.9156" id="Fill-124" fill="#FFFFFF"></path>
        <path d="M28.4283,40.784 C29.7513,40.081 30.7093,39.47 31.0243,41.634 C30.1293,41.341 29.4303,41.112 28.4283,40.784" id="Fill-126" fill="#FFFFFF"></path>
        <path d="M33.4297,39.031 C33.1657,39.15 32.9727,39.314 32.8087,39.289 C32.6357,39.262 32.4897,39.056 32.3317,38.929 C32.5467,38.783 32.7477,38.589 32.9857,38.52 C33.0637,38.497 33.2357,38.8 33.4297,39.031" id="Fill-128" fill="#FFFFFF"></path>
        <path d="M28.3309,21.4338 C30.7259,23.2958 31.0969,27.6118 29.1289,29.2208 C28.6139,29.6418 27.5989,29.4498 26.4509,29.5808 C27.1309,26.6358 27.7009,24.1648 28.3309,21.4338" id="Fill-130" fill="#000000"></path>
        <path d="M34.1165,20.9946 C36.0405,23.2966 35.9885,24.9726 33.9275,26.9146 C33.3145,24.8406 33.7035,23.0626 34.1165,20.9946" id="Fill-132" fill="#000000"></path>
        <path d="M19.1157,21.1474 C19.1787,21.0484 19.2457,20.9514 19.2987,20.8464 C19.3027,20.8374 19.2097,20.7794 19.1617,20.7434 C19.0997,20.8414 19.0327,20.9384 18.9817,21.0424 C18.9767,21.0534 19.0677,21.1114 19.1157,21.1474 M19.5457,19.1644 C19.8477,19.6804 20.5417,20.3444 20.5627,21.0284 C20.5957,22.1024 19.6987,22.6934 18.6307,22.7104 C17.6167,22.7264 17.2407,22.0424 17.3387,21.1174 C17.4497,20.0734 17.9377,19.3204 19.5457,19.1644" id="Fill-134" fill="#000000"></path>
        <path d="M19.1153,21.1472 C19.0683,21.1112 18.9763,21.0532 18.9813,21.0422 C19.0323,20.9382 19.0993,20.8422 19.1623,20.7432 C19.2093,20.7792 19.3033,20.8372 19.2983,20.8472 C19.2463,20.9512 19.1793,21.0482 19.1153,21.1472" id="Fill-136" fill="#FFFFFF"></path>
    </g>
</svg>
