<svg width="75px" height="62px" viewBox="97 278 75 62" version="1.1" xmlns="http://www.w3.org/2000/svg" xmlns:xlink="http://www.w3.org/1999/xlink">
    <defs></defs>
    <g id="Group" stroke="none" stroke-width="1" fill="none" fill-rule="evenodd" transform="translate(97.000000, 278.000000)">
        <path d="M10.3794,32.9199 C8.9684,33.0559 8.9104,34.0439 9.2434,35.0159 C9.7334,36.4439 10.2934,37.8749 11.0364,39.1839 C11.8604,40.6359 13.0044,41.9039 13.8694,43.3349 C15.7874,46.5089 16.5614,49.8079 14.6344,53.3059 C14.3044,53.9039 14.1014,54.5729 13.8624,55.1539 C15.5914,56.4219 18.6274,56.9429 19.5634,55.9629 C20.9474,54.5129 22.3754,54.7989 23.9324,55.3399 C24.9884,55.7069 26.0274,56.1279 27.0964,56.4509 C28.6134,56.9109 30.1334,57.3879 31.6854,57.6879 C32.4264,57.8319 33.5224,57.8839 33.9724,57.4609 C35.2964,56.2189 36.9524,55.6529 38.4484,54.7699 C39.9094,53.9079 40.1914,52.6639 39.4004,51.0989 C39.0044,50.3169 38.5004,49.5789 38.1864,48.7659 C37.3414,46.5759 38.2964,43.1609 40.1284,41.7869 C40.3734,41.6039 40.9554,41.5639 41.1634,41.7309 C41.3564,41.8849 41.3154,42.4129 41.2634,42.7589 C41.2334,42.9609 40.9804,43.1299 40.8254,43.3109 C38.8684,45.5879 38.6894,46.9789 40.0334,49.5849 C40.2894,50.0809 40.5824,50.5579 40.8604,51.0429 C41.4784,52.1219 41.4564,53.1549 40.7094,54.1819 C40.1334,54.9749 39.6084,55.8059 39.0414,56.6489 C40.5094,56.7919 41.7664,55.6409 43.3744,56.2919 C42.1654,58.3009 39.7674,57.5639 38.3294,58.8129 C42.5154,60.2929 48.3524,59.0849 52.4914,55.9299 C52.1224,55.4199 51.7464,54.8989 51.4014,54.4219 C53.4944,53.7699 55.4254,53.1689 57.3964,52.5549 C57.9194,53.5129 58.7214,53.7249 59.7004,53.0389 C60.3794,52.5629 61.0084,52.1629 61.8924,52.6369 C62.1584,52.7799 62.6454,52.6509 62.9744,52.5129 C65.6254,51.4009 67.8814,49.6619 69.2294,47.1729 C71.4654,43.0449 72.6094,38.5039 72.5544,33.8119 C72.4784,27.3209 70.2404,21.4659 66.5524,16.1539 C64.5814,13.3159 62.9524,10.3059 61.8764,7.0109 C61.7174,6.5219 61.5364,6.0409 61.3654,5.5579 C57.8434,7.0549 56.4704,10.0459 55.3944,13.1589 C55.0244,14.2309 54.9734,15.6249 55.3274,16.6869 C55.8964,18.3929 56.6554,20.1769 57.8094,21.5199 C61.0024,25.2399 63.1064,29.2589 62.7424,34.3129 C62.5484,37.0199 61.0424,39.0439 59.4274,41.0279 C59.3664,41.1029 59.1324,41.0379 58.9274,41.0379 C58.6784,40.0899 58.5164,39.0819 58.1524,38.1539 C56.7634,34.6219 53.9074,32.6059 50.5564,31.2759 C48.0654,30.2859 45.5734,30.0869 43.5434,32.4599 C43.0784,33.0029 42.4634,33.6759 41.3644,33.1009 C41.6524,32.6289 41.8254,32.1879 42.1304,31.8759 C42.9114,31.0769 43.7654,30.3489 44.5644,29.5669 C47.8274,26.3749 49.7794,20.2119 47.0554,15.3509 C46.2834,15.4979 45.4824,15.6539 45.1114,14.4859 C43.9854,10.9399 41.3984,8.3799 38.9514,5.7489 C37.9874,4.7119 36.8954,3.7919 35.7694,2.7319 C34.4384,4.2799 33.2004,5.6239 32.0744,7.0569 C30.9054,8.5439 29.8444,10.1159 28.8754,11.4589 C26.1284,11.2299 23.5224,11.0279 20.9204,10.7809 C20.5564,10.7459 20.1644,10.5519 19.8684,10.3239 C17.9144,8.8239 16.0274,7.2349 14.0314,5.7939 C12.4474,4.6509 10.9064,3.3609 8.7024,2.8839 C8.4784,4.0279 8.2524,5.0259 8.0924,6.0349 C7.5824,9.2409 6.4564,12.1399 4.3974,14.7239 C3.5904,15.7359 2.9784,17.1339 2.8594,18.4099 C2.6774,20.3709 2.8544,22.3999 3.1364,24.3629 C3.5854,27.4869 5.3004,29.7599 8.1794,31.1829 C8.9964,31.5869 9.6364,32.3489 10.3584,32.9459 L10.3794,32.9199 Z M22.7024,56.2549 C19.7954,58.6659 16.5894,58.2409 13.4954,57.4779 C11.3294,56.9429 10.8654,55.0559 12.0514,53.1119 C12.5494,52.2949 12.9054,51.3469 13.5514,50.6749 C14.7644,49.4129 14.6674,48.0609 14.0274,46.6949 C13.3554,45.2589 12.6544,43.7919 11.6974,42.5439 C9.7154,39.9559 8.1914,37.2309 7.7844,33.9319 C7.7084,33.3129 7.2464,32.4329 6.7404,32.2319 C5.1064,31.5819 4.3474,30.2109 3.4114,28.9169 C1.1654,25.8119 0.4224,22.4359 1.3164,18.7049 C1.5964,17.5399 1.8384,16.3639 2.1764,15.2169 C2.3014,14.7929 2.5824,14.3539 2.9154,14.0639 C5.3314,11.9559 6.5094,9.2439 6.9414,6.1319 C7.1694,4.4889 7.4584,2.8549 7.7374,1.1079 C10.1234,1.1699 11.7254,2.4379 13.3124,3.5229 C15.6734,5.1359 17.8544,7.0129 20.1484,8.7279 C20.5644,9.0379 21.1454,9.2109 21.6714,9.2759 C23.3304,9.4799 25.0054,9.5649 26.6644,9.7709 C27.6454,9.8939 28.2734,9.6009 28.8894,8.7869 C30.6734,6.4309 32.5594,4.1519 34.4284,1.8619 C35.3834,0.6909 35.9094,0.5559 36.9684,1.6699 C39.4954,4.3299 41.9064,7.1029 44.3284,9.8609 C44.9934,10.6189 45.3154,11.6519 46.7304,11.4239 C47.5814,11.2869 48.1064,12.1159 48.3894,12.9149 C50.1504,17.8789 51.1284,22.8139 47.8864,27.6149 C47.5914,28.0519 47.4554,28.5959 47.1904,29.2219 C53.0344,29.7829 57.0724,32.7469 59.7934,38.1499 C60.3534,37.0829 60.9994,36.3689 61.0924,35.5889 C61.5614,31.6739 61.1484,27.8799 58.4964,24.7339 C56.7744,22.6919 55.4834,20.4179 54.3094,18.0589 C53.2794,15.9889 53.4814,13.8239 54.2414,11.7579 C55.1804,9.2029 56.3294,6.7939 58.8594,5.2649 C60.3254,4.3789 61.8144,3.2869 62.0644,1.3039 C62.0814,1.1749 62.2454,1.0369 62.3754,0.9599 C62.5004,0.8859 62.6694,0.8839 62.9834,0.8139 C63.1154,1.2169 63.4314,1.6669 63.3624,2.0469 C62.4174,7.2019 65.0344,11.1959 67.7204,15.0849 C70.1174,18.5559 71.7324,22.3129 72.9404,26.3259 C74.9494,32.9989 74.0944,39.3919 71.5964,45.7549 C70.0344,49.7349 67.2654,52.4509 63.4494,54.0529 C61.7964,54.7469 59.8924,54.8579 58.0924,55.1819 C56.6674,55.4389 55.4234,55.8979 54.2014,56.8069 C50.5894,59.4949 46.4014,60.8289 41.9304,61.0759 C40.1174,61.1759 38.2644,60.9009 36.5884,59.9929 C36.0354,59.6929 35.4254,59.3369 34.8264,59.3089 C30.5494,59.1079 26.4354,58.2819 22.7024,56.2549 L22.7024,56.2549 Z" id="Fill-58" fill="#000000"></path>
        <path d="M34.5799,28.3802 C36.4779,28.2842 36.4779,28.2842 36.8349,26.9072 C35.8779,26.9212 35.1629,27.2352 34.5799,28.3802 M46.2249,48.4582 C45.6369,48.5782 45.2159,48.5592 44.9359,48.7482 C44.5789,48.9882 44.2849,49.3692 44.0809,49.7522 C44.0299,49.8472 44.4799,50.4002 44.6119,50.3692 C45.0889,50.2572 45.6029,50.0672 45.9539,49.7442 C46.1699,49.5462 46.1149,49.0532 46.2249,48.4582 M10.1219,26.7872 C11.9259,27.1322 11.9569,27.1152 13.0349,25.3412 C11.5069,25.3912 11.5069,25.3912 10.1219,26.7872 M36.4079,23.7712 C37.1249,22.7182 38.6579,22.7092 38.9239,21.2172 C36.6479,21.0812 35.8209,21.8542 36.4079,23.7712 M12.4309,21.8352 C10.6099,21.0612 9.4729,21.7462 8.0899,22.6002 C9.7799,23.3632 11.0009,23.1212 12.4309,21.8352 M14.9799,17.6522 C16.0759,17.4512 16.9789,17.2692 17.8879,17.1232 C18.7759,16.9812 19.7539,17.3902 20.5869,16.7842 C19.9469,15.0652 19.0969,14.4562 17.6919,14.6342 C16.1319,14.8312 15.1389,15.8922 14.9799,17.6522 M32.9599,18.1892 C32.3699,16.5902 31.2789,16.0882 29.9269,16.2042 C28.3489,16.3382 27.5619,17.2732 27.1639,19.3982 C29.0659,19.0012 30.8929,18.6202 32.9599,18.1892 M24.4049,23.1152 C23.9329,22.8692 23.5189,22.6422 23.0949,22.4342 C22.6669,22.2242 22.2389,21.8912 21.7959,21.8642 C21.1349,21.8242 20.3229,21.7982 19.8219,22.1332 C18.7079,22.8792 18.6519,23.9962 19.6379,24.9632 C20.8039,26.1082 22.0689,27.1582 23.3459,28.1802 C23.5729,28.3622 24.2919,28.3592 24.3999,28.1932 C25.2689,26.8492 26.5229,25.9172 27.6579,24.8472 C27.9989,24.5262 28.0809,23.8172 28.0919,23.2812 C28.1169,22.1282 27.2209,21.4942 26.1769,21.9322 C25.6069,22.1722 25.1249,22.6232 24.4049,23.1152 M10.3579,32.9462 C9.6369,32.3482 8.9959,31.5872 8.1789,31.1832 C5.2999,29.7602 3.5849,27.4872 3.1369,24.3632 C2.8549,22.4002 2.6769,20.3712 2.8599,18.4092 C2.9779,17.1332 3.5899,15.7362 4.3969,14.7242 C6.4569,12.1402 7.5819,9.2412 8.0919,6.0342 C8.2529,5.0262 8.4789,4.0282 8.7019,2.8842 C10.9059,3.3612 12.4479,4.6512 14.0319,5.7942 C16.0269,7.2342 17.9149,8.8242 19.8679,10.3242 C20.1649,10.5522 20.5559,10.7462 20.9199,10.7802 C23.5219,11.0282 26.1279,11.2302 28.8749,11.4582 C29.8439,10.1162 30.9049,8.5442 32.0739,7.0572 C33.2009,5.6242 34.4389,4.2802 35.7689,2.7322 C36.8959,3.7922 37.9869,4.7112 38.9519,5.7482 C41.3979,8.3792 43.9859,10.9402 45.1109,14.4852 C45.4819,15.6532 46.2829,15.4982 47.0549,15.3512 C49.7799,20.2112 47.8269,26.3752 44.5649,29.5672 C43.7659,30.3492 42.9119,31.0762 42.1309,31.8762 C41.8259,32.1882 41.6529,32.6292 41.3649,33.1002 C42.4629,33.6762 43.0789,33.0032 43.5439,32.4602 C45.5739,30.0872 48.0649,30.2862 50.5559,31.2752 C53.9069,32.6062 56.7629,34.6222 58.1519,38.1542 C58.5169,39.0822 58.6789,40.0902 58.9279,41.0372 C59.1329,41.0372 59.3659,41.1032 59.4269,41.0282 C61.0419,39.0442 62.5479,37.0192 62.7429,34.3132 C63.1059,29.2592 61.0029,25.2402 57.8089,21.5202 C56.6559,20.1772 55.8959,18.3932 55.3269,16.6872 C54.9729,15.6242 55.0239,14.2312 55.3939,13.1592 C56.4699,10.0462 57.8429,7.0552 61.3659,5.5582 C61.5359,6.0412 61.7169,6.5222 61.8769,7.0112 C62.9529,10.3052 64.5819,13.3162 66.5519,16.1532 C70.2399,21.4662 72.4789,27.3202 72.5549,33.8122 C72.6099,38.5042 71.4659,43.0452 69.2289,47.1732 C67.8809,49.6612 65.6249,51.4002 62.9749,52.5122 C62.6449,52.6512 62.1579,52.7802 61.8919,52.6372 C61.0079,52.1622 60.3789,52.5622 59.6999,53.0392 C58.7219,53.7252 57.9189,53.5122 57.3969,52.5552 C55.4249,53.1682 53.4939,53.7702 51.4019,54.4222 C51.7469,54.8992 52.1229,55.4192 52.4919,55.9302 C48.3519,59.0842 42.5149,60.2922 38.3289,58.8122 C39.7669,57.5642 42.1649,58.3002 43.3749,56.2922 C41.7659,55.6412 40.5089,56.7922 39.0419,56.6492 C39.6089,55.8062 40.1329,54.9752 40.7099,54.1812 C41.4559,53.1552 41.4789,52.1222 40.8609,51.0432 C40.5829,50.5582 40.2899,50.0812 40.0329,49.5842 C38.6889,46.9792 38.8689,45.5882 40.8249,43.3102 C40.9809,43.1292 41.2339,42.9602 41.2639,42.7592 C41.3159,42.4132 41.3559,41.8852 41.1639,41.7302 C40.9559,41.5642 40.3729,41.6032 40.1289,41.7862 C38.2959,43.1612 37.3409,46.5752 38.1869,48.7662 C38.4999,49.5782 39.0039,50.3162 39.3999,51.0992 C40.1909,52.6642 39.9089,53.9072 38.4489,54.7692 C36.9529,55.6532 35.2959,56.2192 33.9729,57.4612 C33.5219,57.8842 32.4259,57.8312 31.6849,57.6882 C30.1339,57.3872 28.6129,56.9112 27.0969,56.4512 C26.0279,56.1272 24.9889,55.7072 23.9319,55.3402 C22.3749,54.7992 20.9469,54.5122 19.5629,55.9622 C18.6269,56.9432 15.5919,56.4212 13.8629,55.1542 C14.1019,54.5722 14.3049,53.9042 14.6339,53.3062 C16.5609,49.8072 15.7869,46.5092 13.8689,43.3352 C13.0039,41.9032 11.8609,40.6352 11.0359,39.1842 C10.2929,37.8752 9.7339,36.4442 9.2439,35.0162 C8.9099,34.0442 8.9679,33.0562 10.3789,32.9202 C12.1729,34.0662 14.1409,33.4052 16.5409,33.7492 C15.9109,33.2822 15.7449,33.0522 15.5709,33.0462 C13.8339,32.9922 12.0959,32.9742 10.3579,32.9462" id="Fill-60" fill="#3B82EE" class="icon__color"></path>
        <path d="M24.4049,23.1152 C25.1249,22.6232 25.6069,22.1722 26.1769,21.9322 C27.2209,21.4942 28.1169,22.1282 28.0919,23.2812 C28.0809,23.8172 27.9989,24.5262 27.6579,24.8472 C26.5229,25.9172 25.2689,26.8502 24.3999,28.1932 C24.2919,28.3592 23.5729,28.3622 23.3459,28.1802 C22.0689,27.1582 20.8039,26.1082 19.6379,24.9632 C18.6519,23.9962 18.7079,22.8792 19.8219,22.1332 C20.3229,21.7982 21.1349,21.8242 21.7959,21.8642 C22.2389,21.8912 22.6669,22.2242 23.0949,22.4342 C23.5189,22.6422 23.9329,22.8692 24.4049,23.1152" id="Fill-62" fill="#000000"></path>
        <path d="M32.9601,18.1896 C30.8931,18.6206 29.0661,19.0016 27.1641,19.3976 C27.5621,17.2726 28.3481,16.3386 29.9271,16.2036 C31.2791,16.0886 32.3701,16.5896 32.9601,18.1896" id="Fill-64" fill="#000000"></path>
        <path d="M14.9803,17.6525 C15.1393,15.8925 16.1313,14.8315 17.6913,14.6345 C19.0973,14.4555 19.9463,15.0655 20.5873,16.7845 C19.7543,17.3905 18.7763,16.9815 17.8883,17.1235 C16.9793,17.2695 16.0763,17.4515 14.9803,17.6525" id="Fill-66" fill="#000000"></path>
        <path d="M12.4308,21.8353 C11.0008,23.1213 9.7798,23.3633 8.0898,22.6003 C9.4728,21.7463 10.6098,21.0613 12.4308,21.8353" id="Fill-68" fill="#000000"></path>
        <path d="M36.4084,23.7712 C35.8204,21.8542 36.6484,21.0812 38.9234,21.2182 C38.6584,22.7092 37.1244,22.7182 36.4084,23.7712" id="Fill-70" fill="#000000"></path>
        <path d="M10.1219,26.7875 C11.5069,25.3915 11.5069,25.3915 13.0349,25.3415 C11.9569,27.1155 11.9259,27.1325 10.1219,26.7875" id="Fill-72" fill="#000000"></path>
        <path d="M10.3584,32.9463 C12.0964,32.9743 13.8344,32.9923 15.5714,33.0463 C15.7444,33.0513 15.9114,33.2813 16.5414,33.7493 C14.1404,33.4053 12.1734,34.0663 10.3794,32.9203 L10.3584,32.9463 Z" id="Fill-74" fill="#000000"></path>
        <path d="M46.225,48.4587 C46.115,49.0537 46.17,49.5467 45.954,49.7447 C45.603,50.0667 45.089,50.2567 44.611,50.3687 C44.479,50.3997 44.03,49.8477 44.08,49.7527 C44.285,49.3697 44.579,48.9877 44.936,48.7477 C45.216,48.5587 45.637,48.5787 46.225,48.4587" id="Fill-76" fill="#000000"></path>
        <path d="M34.5799,28.3802 C35.1629,27.2352 35.8779,26.9212 36.8349,26.9072 C36.4779,28.2842 36.4779,28.2842 34.5799,28.3802" id="Fill-78" fill="#000000"></path>
    </g>
</svg>
