<svg width="100px" height="80px" viewBox="463 276 100 80" version="1.1" xmlns="http://www.w3.org/2000/svg" xmlns:xlink="http://www.w3.org/1999/xlink">
    <defs></defs>
    <g id="Group" stroke="none" stroke-width="1" fill="none" fill-rule="evenodd" transform="translate(463.000000, 276.000000)">
        <path d="M58.7749,46.3872 C58.9369,46.4672 59.0109,46.5362 59.0579,46.5202 C59.1939,46.4762 59.3189,46.3972 59.4479,46.3322 C59.2549,46.3482 59.0629,46.3632 58.7749,46.3872 M78.9399,28.4122 C78.9749,28.2022 79.0089,27.9922 79.0439,27.7822 C77.9809,27.6072 76.9179,27.4322 75.8539,27.2572 C75.8259,27.4342 75.7969,27.6122 75.7689,27.7902 C76.8259,27.9972 77.8829,28.2052 78.9399,28.4122 M79.1759,68.5152 C78.8869,68.6402 78.5979,68.7662 78.3089,68.8912 C77.7289,67.8162 77.0719,66.7742 76.5849,65.6582 C75.4999,63.1772 75.3439,63.1442 72.8829,64.0432 C71.4759,64.5572 69.9729,64.9642 68.4889,65.0652 C67.1879,65.1542 66.3949,65.5542 65.9189,66.7502 C65.6549,67.4142 65.1919,67.9962 64.9049,68.6532 C64.1549,70.3672 63.4519,72.1022 62.5079,74.3612 C63.9689,74.3702 64.9039,74.4862 65.8059,74.3642 C71.0239,73.6562 76.2529,73.0032 81.4359,72.0852 C83.2729,71.7602 84.9869,70.7382 86.7609,70.0452 C89.3709,69.0262 90.1589,66.8112 90.4139,64.3272 C90.9939,58.6652 88.8769,53.9872 84.9459,50.0572 C83.9319,49.0442 82.6599,48.3862 81.1679,48.7022 C81.0509,49.0072 80.9049,49.1952 80.9519,49.2902 C82.2349,51.9342 81.6799,54.7692 81.7879,57.5252 C81.8539,59.1962 81.1389,60.6412 79.8429,61.7192 C77.8949,63.3382 77.6339,64.2872 78.5639,66.6272 C78.8079,67.2402 78.9739,67.8852 79.1759,68.5152 M68.7169,39.3012 C68.0589,40.2592 68.3319,41.5412 66.6859,41.7682 C66.1789,41.8382 65.3139,43.4292 65.5299,43.9182 C66.5299,46.1792 65.9029,48.7072 66.8289,50.8792 C67.4019,52.2232 68.5249,53.3422 69.4479,54.5252 C70.1119,55.3762 70.8539,56.1662 71.9079,57.3842 C69.5849,58.2152 67.6849,58.8952 65.9519,59.5152 C65.9449,60.5462 65.9379,61.6592 65.9309,62.7482 C68.0599,64.2442 70.1479,63.5732 72.2559,62.6782 C73.9889,61.9422 75.5549,60.8542 77.5719,60.7302 C78.8629,60.6512 79.6869,59.4762 79.8659,58.2452 C80.3769,54.7332 79.7599,51.4482 77.5049,48.5722 C76.3329,47.0772 75.8279,45.3022 75.0809,43.1542 C75.8749,43.4082 76.2339,43.4132 76.4109,43.5962 C78.1379,45.3822 80.3529,46.0632 82.6339,46.8952 C84.6219,47.6202 86.6649,49.1092 87.8859,50.8272 C90.1929,54.0702 92.0119,57.7062 92.0409,61.8742 C92.0499,63.1312 92.4469,63.9652 93.7359,64.3192 C91.7229,69.3252 88.0479,72.2682 83.1359,73.3322 C78.1589,74.4102 73.0579,74.9202 68.0089,75.6602 C67.1839,75.7812 66.3449,75.8062 65.5119,75.8752 C68.7579,76.6962 71.9259,77.5612 75.1419,77.8302 C78.9379,78.1472 82.7769,77.9922 86.5969,77.9622 C90.4539,77.9332 93.0059,75.4012 95.6179,73.0442 C95.8929,72.7972 96.0659,72.3652 96.1479,71.9892 C97.2529,66.9242 98.8409,61.9232 98.2119,56.6252 C97.4609,50.2972 96.3059,44.1082 91.7139,39.2322 C88.5099,35.8312 85.1139,32.7662 80.1939,31.9722 C78.3359,31.6712 76.5729,30.7782 74.7709,30.1432 C73.3529,29.6422 71.9729,28.9912 70.5199,28.6392 C67.2049,27.8342 63.7089,27.5592 60.5489,26.3722 C53.1649,23.5982 45.9339,20.4152 38.5729,17.3692 C38.6409,18.9122 37.5929,18.3592 36.6949,17.9032 C35.6339,20.6092 34.5949,23.1082 30.9319,23.3672 C31.3519,22.6242 31.5979,22.1892 31.8359,21.7682 C31.2849,21.5472 30.7379,21.3272 30.1719,21.1002 C31.6809,19.6802 33.1499,18.4722 34.4009,17.0692 C35.5369,15.7942 35.1239,15.0682 33.4759,14.6292 C32.3479,14.3282 31.1519,13.9312 30.2429,13.2392 C28.4709,11.8902 26.7909,10.3892 25.2319,8.7962 C22.6139,6.1202 19.4439,4.3392 15.8399,3.8822 C12.5999,3.4722 9.3639,3.2342 6.1749,2.4252 C5.3599,2.2192 3.8819,2.6762 3.4839,3.3132 C3.0659,3.9802 3.3219,5.3652 3.7529,6.1912 C4.2859,7.2142 5.3569,7.9412 6.0989,8.8732 C7.4319,10.5472 8.9949,12.1312 9.9219,14.0172 C11.7659,17.7712 13.8219,21.1832 17.9199,22.8342 C18.1119,22.9122 18.2319,23.1702 18.4659,23.4352 C18.1199,23.7562 17.8049,24.0482 17.3179,24.4992 C18.1759,25.2522 19.0199,25.9542 19.8189,26.7032 C20.9229,27.7382 22.1379,28.6972 23.0469,29.8872 C24.5559,31.8622 24.5909,34.6232 23.1309,36.0842 C21.8409,37.3752 20.3719,38.5082 18.8809,39.5692 C18.2669,40.0072 17.3989,40.2312 16.6279,40.2822 C13.6999,40.4782 10.7649,40.5582 7.8329,40.7002 C7.5499,40.7142 7.2739,40.8532 7.3179,40.8402 C7.7519,41.7732 8.0959,42.6282 8.5359,43.4312 C9.0039,44.2852 9.5629,45.0892 10.1379,46.0042 C11.4429,46.0132 12.9989,46.0232 14.6819,46.0342 C14.4789,45.3052 14.3429,44.8152 14.1519,44.1302 C17.9219,43.0362 21.0619,41.1862 23.6509,38.2932 C24.9569,36.8332 25.8409,35.4092 25.9349,33.4692 C26.0049,32.0182 26.1549,30.5722 26.2929,28.8262 C27.9479,30.0302 27.5369,31.7372 28.1469,33.0682 C29.2339,32.0212 28.3919,29.9912 30.1929,29.1412 C31.2769,31.8212 30.3329,34.2332 29.6449,36.9222 C30.9809,37.5192 32.2579,38.1122 33.5519,38.6632 C34.6539,39.1312 36.1779,39.2472 36.7939,40.0642 C37.7069,41.2742 38.8349,41.6012 40.0669,41.8802 C44.8109,42.9562 49.5359,44.1862 54.3359,44.9252 C57.2799,45.3792 60.3459,45.0452 63.4959,45.0652 C63.9329,41.8412 65.0929,39.5352 68.7169,39.3012 M26.6909,67.5722 C26.6199,67.5492 26.5499,67.5262 26.4789,67.5032 C26.5559,67.5182 26.6339,67.5332 26.7109,67.5482 C28.0169,69.3762 30.0109,69.9322 32.0319,70.4912 C36.2579,71.6612 40.5749,72.6062 44.6569,74.1632 C48.9289,75.7932 53.1429,75.9362 57.4299,75.2102 C56.3999,75.0682 55.2629,75.0362 54.1989,74.7402 C50.3609,73.6762 46.5309,72.5772 42.7309,71.3892 C37.4689,69.7452 32.2099,68.1222 26.6909,67.5722 M58.4189,78.8272 C58.2129,78.0302 58.0449,77.3822 57.8609,76.6702 C56.9779,76.6642 56.1769,76.5562 55.4109,76.6722 C52.1739,77.1642 49.1059,76.7062 45.9909,75.6642 C41.5329,74.1712 36.9319,73.1062 32.4499,71.6792 C30.5019,71.0582 28.6659,70.0502 26.8319,69.1142 C24.7699,68.0612 22.7639,66.8952 20.7379,65.7722 C19.9889,65.3572 19.2519,64.9222 18.5089,64.4962 C18.5489,64.2972 18.5879,64.0982 18.6269,63.8982 C19.2299,63.9022 19.9259,63.7082 20.4189,63.9422 C24.1539,65.7142 28.2179,66.1702 32.1699,67.1222 C37.5969,68.4312 42.9959,69.9522 48.2639,71.7932 C51.7969,73.0282 55.3349,73.6782 59.0199,73.7612 C59.5199,73.7722 60.2579,73.5752 60.4949,73.2172 C62.6549,69.9462 64.9479,66.6872 63.9239,62.4002 C63.9079,62.3332 63.8309,62.2802 63.7639,62.1982 C60.3399,63.3532 56.8339,64.0832 52.6549,64.0952 C55.4529,61.3632 58.7629,60.9832 61.7449,59.9272 C61.7659,59.7492 61.7869,59.5712 61.8089,59.3942 C60.0299,58.8252 58.2509,58.2562 56.2899,57.6292 C57.2039,56.1482 58.3659,56.4052 59.3789,56.6282 C60.7009,56.9192 61.9679,57.4452 63.2699,57.8332 C65.3829,58.4622 66.8489,58.1992 68.7539,56.8272 C68.5309,56.4512 68.3819,55.9682 68.0569,55.6902 C66.0179,53.9482 64.9499,51.6242 64.2829,49.1402 C63.8829,47.6522 63.0419,47.0652 61.6969,47.3482 C58.3479,48.0522 55.2629,46.9962 52.0479,46.3472 C46.0709,45.1392 40.2989,43.3012 34.5159,41.4482 C32.3299,40.7482 30.0429,40.2552 28.3869,38.0672 C27.5899,39.2042 26.8279,40.2002 26.1609,41.2562 C23.1879,45.9602 18.3639,47.2262 13.3779,47.7312 C10.5759,48.0152 7.8179,48.0672 5.2649,49.3992 C5.0679,49.5022 4.8019,49.5102 4.5719,49.4952 C4.4349,49.4862 4.3059,49.3492 3.8219,49.0582 C4.5829,48.4192 5.2499,47.8602 6.2339,47.0352 C4.3759,47.2032 2.8269,47.3432 1.2779,47.4832 C1.2139,47.2612 1.1499,47.0392 1.0859,46.8182 C2.1049,46.3852 3.1769,46.0432 4.1299,45.4942 C5.1269,44.9192 6.0089,44.1442 7.0819,43.3522 C5.2569,41.3972 2.7119,42.2392 0.8339,40.8892 C2.7039,39.1502 5.1489,40.3472 7.1789,39.1872 C6.3439,38.3252 5.5359,37.4902 4.7289,36.6562 C4.8319,36.4972 4.9359,36.3392 5.0399,36.1802 C5.6729,36.3902 6.3229,36.5582 6.9339,36.8182 C8.8219,37.6232 10.6359,38.6892 12.5959,39.2082 C13.8199,39.5312 15.2589,39.0682 16.5969,38.9242 C18.1099,38.7602 18.5779,37.6592 19.0979,36.3962 C19.5979,35.1802 20.3329,33.9142 21.3139,33.0812 C22.5089,32.0672 22.3559,31.1652 21.6369,30.1992 C20.9769,29.3122 20.0949,28.5932 19.3199,27.7912 C17.7709,26.1872 16.2279,24.5772 14.6829,22.9692 C14.1859,22.4532 13.7549,21.8442 13.1819,21.4362 C10.4259,19.4742 8.7409,16.6822 7.0769,13.8452 C6.0719,12.1292 4.8969,10.5122 3.8579,8.8142 C2.9869,7.3922 1.9879,5.9952 1.4299,4.4482 C0.5759,2.0822 2.1349,0.1522 4.6789,0.1212 C5.1549,0.1152 5.6889,0.0722 6.1009,0.2582 C8.7169,1.4402 11.5059,1.4372 14.2869,1.7152 C17.5849,2.0442 20.5849,3.4632 23.4009,5.1932 C27.7559,7.8672 31.8899,10.8462 36.0119,13.8732 C39.5229,16.4522 43.4779,18.4002 47.7779,19.6552 C50.8129,20.5422 53.6629,22.0982 56.5469,23.4592 C60.8429,25.4852 65.2339,26.5532 70.0209,25.5972 C72.8869,25.0252 75.7559,25.2822 78.5019,26.3992 C78.9449,26.5802 79.4189,26.7252 79.8079,26.9912 C82.8269,29.0552 85.8459,31.1212 88.8229,33.2452 C89.5919,33.7942 90.3109,34.4772 90.8839,35.2272 C95.7259,41.5762 98.9779,48.6032 99.5049,56.6662 C99.6699,59.1902 99.4599,61.7532 99.2359,64.2832 C99.1029,65.7822 98.5679,67.2422 98.2799,68.7322 C97.0949,74.8452 92.9109,78.5952 86.6839,79.0752 C84.5379,79.2402 82.3889,79.5012 80.2429,79.4882 C78.5049,79.4782 76.7639,79.1562 75.0329,78.9142 C71.8009,78.4622 68.5749,77.9692 65.3469,77.4882 C64.8729,77.4172 64.3939,77.3512 63.9329,77.2252 C62.1979,76.7502 60.6119,76.7822 59.3769,78.3562 C59.2119,78.5662 58.8519,78.6232 58.4189,78.8272" id="Fill-206" fill="#000000"></path>
        <path d="M17.0307,10.3153 C16.1367,10.3273 15.2297,10.5363 15.0567,11.7473 C14.8867,12.9393 16.2307,14.3273 17.5717,14.4003 C18.6847,14.4613 19.6207,13.6723 19.6847,12.6193 C19.7567,11.4373 18.6307,10.4153 17.0307,10.3153 M68.7177,39.3013 C65.0927,39.5353 63.9327,41.8413 63.4957,45.0653 C60.3467,45.0453 57.2807,45.3793 54.3357,44.9253 C49.5367,44.1863 44.8107,42.9563 40.0667,41.8803 C38.8347,41.6013 37.7067,41.2743 36.7937,40.0643 C36.1777,39.2473 34.6537,39.1313 33.5517,38.6633 C32.2577,38.1123 30.9807,37.5193 29.6447,36.9223 C30.3327,34.2333 31.2767,31.8213 30.1937,29.1413 C28.3917,29.9913 29.2337,32.0213 28.1467,33.0683 C27.5367,31.7373 27.9477,30.0303 26.2927,28.8263 C26.1547,30.5723 26.0047,32.0183 25.9347,33.4693 C25.8407,35.4093 24.9577,36.8333 23.6507,38.2933 C21.0617,41.1863 17.9227,43.0363 14.1527,44.1303 C14.3427,44.8153 14.4787,45.3053 14.6817,46.0343 C12.9987,46.0233 11.4427,46.0133 10.1377,46.0043 C9.5627,45.0893 9.0037,44.2853 8.5357,43.4313 C8.0957,42.6283 7.7517,41.7733 7.3187,40.8403 C7.2737,40.8533 7.5507,40.7133 7.8327,40.7003 C10.7647,40.5583 13.7007,40.4783 16.6287,40.2823 C17.3987,40.2313 18.2667,40.0073 18.8807,39.5693 C20.3717,38.5083 21.8407,37.3753 23.1317,36.0843 C24.5907,34.6233 24.5557,31.8623 23.0467,29.8873 C22.1387,28.6973 20.9237,27.7383 19.8187,26.7033 C19.0197,25.9543 18.1757,25.2523 17.3177,24.4993 C17.8047,24.0483 18.1197,23.7563 18.4657,23.4353 C18.2317,23.1703 18.1127,22.9123 17.9197,22.8343 C13.8217,21.1833 11.7667,17.7713 9.9217,14.0173 C8.9947,12.1313 7.4327,10.5473 6.0987,8.8733 C5.3567,7.9413 4.2857,7.2143 3.7527,6.1913 C3.3217,5.3653 3.0657,3.9803 3.4837,3.3133 C3.8827,2.6763 5.3597,2.2193 6.1747,2.4253 C9.3637,3.2343 12.5997,3.4723 15.8397,3.8823 C19.4437,4.3393 22.6137,6.1203 25.2317,8.7963 C26.7907,10.3893 28.4707,11.8903 30.2437,13.2393 C31.1517,13.9313 32.3477,14.3283 33.4757,14.6293 C35.1247,15.0683 35.5377,15.7943 34.4007,17.0693 C33.1507,18.4723 31.6817,19.6803 30.1717,21.1003 C30.7377,21.3273 31.2847,21.5473 31.8357,21.7683 C31.5977,22.1893 31.3517,22.6243 30.9317,23.3673 C34.5947,23.1083 35.6337,20.6083 36.6957,17.9033 C37.5927,18.3593 38.6407,18.9123 38.5727,17.3683 C45.9347,20.4153 53.1647,23.5983 60.5487,26.3723 C63.7097,27.5593 67.2047,27.8333 70.5197,28.6393 C71.9727,28.9913 73.3527,29.6423 74.7707,30.1433 C76.5727,30.7783 78.3367,31.6713 80.1937,31.9713 C85.1137,32.7663 88.5097,35.8313 91.7137,39.2323 C96.3067,44.1083 97.4607,50.2973 98.2117,56.6253 C98.8407,61.9233 97.2527,66.9243 96.1487,71.9893 C96.0667,72.3653 95.8927,72.7973 95.6187,73.0443 C93.0057,75.4013 90.4547,77.9333 86.5967,77.9623 C82.7767,77.9923 78.9377,78.1473 75.1417,77.8293 C71.9257,77.5613 68.7587,76.6963 65.5117,75.8753 C66.3447,75.8063 67.1837,75.7813 68.0097,75.6603 C73.0587,74.9203 78.1587,74.4103 83.1357,73.3323 C88.0477,72.2683 91.7227,69.3253 93.7357,64.3193 C92.4467,63.9653 92.0497,63.1313 92.0407,61.8743 C92.0117,57.7063 90.1927,54.0703 87.8867,50.8273 C86.6647,49.1093 84.6217,47.6203 82.6337,46.8953 C80.3527,46.0633 78.1387,45.3823 76.4107,43.5963 C76.2337,43.4133 75.8747,43.4083 75.0807,43.1543 C75.8277,45.3023 76.3327,47.0773 77.5047,48.5723 C79.7597,51.4473 80.3777,54.7333 79.8667,58.2453 C79.6867,59.4763 78.8627,60.6513 77.5717,60.7303 C75.5547,60.8543 73.9887,61.9423 72.2557,62.6783 C70.1487,63.5733 68.0597,64.2443 65.9307,62.7483 C65.9377,61.6593 65.9447,60.5463 65.9517,59.5153 C67.6857,58.8953 69.5857,58.2153 71.9077,57.3843 C70.8547,56.1663 70.1127,55.3763 69.4477,54.5253 C68.5247,53.3423 67.4027,52.2233 66.8287,50.8793 C65.9027,48.7073 66.5297,46.1793 65.5297,43.9183 C65.3137,43.4293 66.1787,41.8383 66.6857,41.7683 C68.3317,41.5413 68.0587,40.2593 68.7177,39.3013" id="Fill-208" fill="#3B82EE" class="icon__color"></path>
        <path d="M26.8705,67.7237 C32.3925,68.2377 37.6625,69.8267 42.9345,71.4377 C46.7425,72.6007 50.5795,73.6747 54.4245,74.7147 C55.4895,75.0027 56.6275,75.0277 57.6585,75.1637 C53.3765,75.9167 49.1615,75.8017 44.8785,74.1987 C40.7865,72.6687 36.4635,71.7507 32.2295,70.6087 C30.2055,70.0627 28.2085,69.5187 26.8905,67.7007 L26.8705,67.7237 Z" id="Fill-210" fill="#3B82EE" class="icon__color"></path>
        <path d="M78.9401,28.4122 C77.8831,28.2052 76.8261,27.9972 75.7691,27.7902 C75.7971,27.6122 75.8261,27.4342 75.8541,27.2572 C76.9171,27.4322 77.9811,27.6072 79.0441,27.7822 C79.0091,27.9922 78.9751,28.2022 78.9401,28.4122" id="Fill-212" fill="#3B82EE" class="icon__color"></path>
        <path d="M58.7749,46.3872 C59.0629,46.3632 59.2549,46.3482 59.4479,46.3322 C59.3189,46.3972 59.1939,46.4762 59.0579,46.5202 C59.0109,46.5362 58.9369,46.4672 58.7749,46.3872" id="Fill-214" fill="#FFFFFF"></path>
        <path d="M26.89,67.7003 C26.813,67.6853 26.736,67.6713 26.659,67.6563 C26.729,67.6783 26.8,67.7013 26.87,67.7233 L26.89,67.7003 Z" id="Fill-216" fill="#FFFFFF"></path>
        <path d="M17.0307,10.3153 C18.6307,10.4153 19.7567,11.4373 19.6847,12.6193 C19.6207,13.6723 18.6847,14.4613 17.5717,14.4003 C16.2307,14.3273 14.8867,12.9393 15.0567,11.7473 C15.2297,10.5363 16.1367,10.3273 17.0307,10.3153" id="Fill-218" fill="#000000"></path>
    </g>
</svg>
