<svg width="68px" height="61px" viewBox="246 524 68 61" version="1.1" xmlns="http://www.w3.org/2000/svg" xmlns:xlink="http://www.w3.org/1999/xlink">
    <defs></defs>
    <g id="Group" stroke="none" stroke-width="1" fill="none" fill-rule="evenodd" transform="translate(246.000000, 524.000000)">
        <path d="M21.7735,1.3074 C20.0385,1.5554 18.5215,1.4964 17.2365,2.0134 C14.7355,3.0194 12.3565,4.3314 9.9475,5.5574 C9.3875,5.8424 8.7945,6.2004 8.4155,6.6804 C6.6375,8.9354 4.8295,11.1774 3.2255,13.5544 C1.6705,15.8574 1.8785,18.3834 2.8305,20.9034 C3.1005,21.6184 3.2025,22.3964 3.4115,23.1364 C3.9625,25.0874 3.5945,27.3134 5.0865,28.9814 C7.1175,31.2514 9.0525,33.6304 11.2645,35.7124 C14.1755,38.4524 17.7535,39.9444 21.6925,40.7634 C24.1725,41.2784 26.5945,42.1814 28.9515,43.1354 C31.0915,44.0014 32.6505,45.5814 33.4445,47.8464 C33.8135,48.8974 34.3555,49.8874 34.8015,50.9124 C36.6585,55.1824 40.1845,57.3034 44.4925,58.3444 C45.7255,58.6424 47.0235,58.7784 48.2945,58.7934 C52.1745,58.8394 55.9085,58.0994 58.4175,54.8914 C60.0175,52.8444 61.3965,50.4734 62.2545,48.0294 C63.6775,43.9734 64.7055,39.7664 65.7045,35.5764 C66.6535,31.5964 65.5205,29.2564 62.0065,27.1834 C61.3875,26.8184 60.7465,26.4904 60.1125,26.1504 C55.9155,23.9024 52.1455,21.1404 49.2985,17.2474 C47.3725,14.6134 44.6585,13.1974 41.6155,12.2244 C38.8055,11.3244 36.0545,10.2424 33.2635,9.2814 C31.7695,8.7674 30.7695,7.8694 30.6155,6.2334 C30.4105,4.0674 28.9045,2.9954 27.1065,2.4264 C25.3025,1.8554 23.3885,1.6324 21.7735,1.3074 M48.2895,60.4824 C46.0505,59.9554 43.7575,59.5934 41.5845,58.8684 C36.6055,57.2054 33.9535,53.2644 32.2555,48.6034 C31.3175,46.0274 29.5075,44.5314 27.0545,43.7114 C25.0875,43.0544 23.0915,42.3974 21.0545,42.0484 C16.3675,41.2454 12.4865,38.9774 9.2295,35.6694 C6.7255,33.1264 3.8055,30.7534 2.8015,27.1524 C1.8825,23.8554 1.2565,20.4544 0.8165,17.0574 C0.6685,15.9204 1.2565,14.5074 1.9155,13.4834 C3.4675,11.0714 5.1905,8.7574 7.0005,6.5314 C7.7295,5.6364 8.8195,4.9954 9.8325,4.3824 C11.4025,3.4324 13.0875,2.6714 14.6515,1.7114 C16.7815,0.4024 19.0875,-0.1466 21.5305,0.0694 C23.5935,0.2524 25.6965,0.4674 27.6715,1.0454 C29.8005,1.6684 31.5915,3.0164 32.0555,5.3824 C32.4135,7.2054 33.5165,8.1364 35.1405,8.6744 C37.3385,9.4024 39.5195,10.1894 41.7385,10.8434 C45.2665,11.8834 48.4485,13.4554 50.7055,16.4724 C53.5935,20.3334 57.2995,23.1434 61.6185,25.2064 C62.1935,25.4814 62.7345,25.8304 63.2885,26.1484 C67.0365,28.2984 68.4285,30.6074 67.5025,34.8574 C66.0455,41.5484 64.7575,48.3684 60.9485,54.2654 C58.3675,58.2614 54.4405,59.9924 49.7955,60.2614 C49.3205,60.2894 48.8385,60.2084 48.3595,60.1774 C48.3365,60.2794 48.3125,60.3804 48.2895,60.4824" id="Fill-126" fill="#000000"></path>
        <path d="M21.7735,1.3074 C23.3885,1.6324 25.3025,1.8554 27.1065,2.4264 C28.9045,2.9954 30.4105,4.0674 30.6155,6.2334 C30.7695,7.8694 31.7695,8.7674 33.2635,9.2814 C36.0545,10.2424 38.8055,11.3244 41.6155,12.2244 C44.6585,13.1974 47.3725,14.6134 49.2985,17.2474 C52.1455,21.1404 55.9155,23.9024 60.1125,26.1504 C60.7465,26.4904 61.3875,26.8184 62.0065,27.1834 C65.5205,29.2564 66.6535,31.5964 65.7045,35.5764 C64.7055,39.7664 63.6775,43.9734 62.2545,48.0294 C61.3965,50.4734 60.0175,52.8444 58.4175,54.8914 C55.9085,58.0994 52.1745,58.8394 48.2945,58.7934 C47.0235,58.7784 45.7255,58.6424 44.4925,58.3444 C40.1845,57.3034 36.6585,55.1824 34.8015,50.9124 C34.3555,49.8874 33.8135,48.8974 33.4445,47.8464 C32.6505,45.5814 31.0915,44.0014 28.9515,43.1354 C26.5945,42.1814 24.1725,41.2784 21.6925,40.7634 C17.7535,39.9444 14.1755,38.4524 11.2645,35.7124 C9.0525,33.6304 7.1175,31.2514 5.0865,28.9814 C3.5945,27.3134 3.9625,25.0874 3.4115,23.1364 C3.2025,22.3964 3.1005,21.6184 2.8305,20.9034 C1.8785,18.3834 1.6705,15.8574 3.2255,13.5544 C4.8295,11.1774 6.6375,8.9354 8.4155,6.6804 C8.7945,6.2004 9.3875,5.8424 9.9475,5.5574 C12.3565,4.3314 14.7355,3.0194 17.2365,2.0134 C18.5215,1.4964 20.0385,1.5554 21.7735,1.3074" id="Fill-128" fill="#9CEDFF" class="icon__color"></path>
    </g>
</svg>
