<svg width="88px" height="34px" viewBox="475 596 88 34" version="1.1" xmlns="http://www.w3.org/2000/svg" xmlns:xlink="http://www.w3.org/1999/xlink">
    <defs></defs>
    <g id="Group-12" stroke="none" stroke-width="1" fill="none" fill-rule="evenodd" transform="translate(475.000000, 596.000000)">
        <path d="M78.829,30.8551 C78.878,30.7031 78.928,30.5501 78.977,30.3981 C76.928,29.8101 74.849,29.3051 72.835,28.6141 C70.017,27.6481 67.306,26.4471 65.719,23.6861 C64.452,21.4811 63.112,19.3091 62.002,17.0261 C59.978,12.8661 54.738,10.2941 50.367,11.6881 C48.182,12.3851 46.113,13.4681 44.036,14.4671 C40.883,15.9821 39.857,15.7691 38.271,12.7101 C37.209,10.6621 36.422,8.4721 35.492,6.3551 C34.144,3.2871 31.54,1.8101 28.233,2.0011 C24.734,2.2021 22.557,4.2411 20.807,6.9831 C20.294,7.7871 19.858,8.6641 19.232,9.3711 C18.316,10.4051 17.73,10.3361 16.939,9.2451 C16.518,8.6651 16.218,7.9981 15.796,7.4181 C12.782,3.2781 7.964,4.0641 5.609,7.2231 C2.863,10.9051 1.22,15.1061 2.167,19.7951 C2.744,22.6531 3.964,25.0211 7.003,25.4931 C8.179,25.6761 9.395,25.8631 10.481,26.3151 C13.905,27.7401 17.446,28.5661 21.131,28.9371 C25.657,29.3931 30.161,30.0971 34.692,30.4841 C42.001,31.1081 49.319,31.8941 56.642,31.9921 C63.81,32.0881 70.989,31.4101 78.163,31.0611 C78.388,31.0511 78.607,30.9261 78.829,30.8551 M18.119,8.2271 C19.439,6.4901 20.515,4.9151 21.75,3.4781 C26.007,-1.4719 33.947,-0.3629 36.712,5.5691 C37.622,7.5211 38.293,9.5841 39.194,11.5411 C40.419,14.2011 41.206,14.3801 43.826,12.9311 C45.149,12.2001 46.474,11.4401 47.876,10.8921 C54.661,8.2401 60.904,10.8451 63.859,17.4631 C64.412,18.7021 65.008,19.9321 65.707,21.0921 C67.7,24.4021 70.584,26.5631 74.378,27.3771 C77.549,28.0571 80.516,29.5801 83.956,29.2621 C85.062,29.1591 86.289,30.3611 87.718,31.0981 C87.179,31.3971 86.84,31.7291 86.466,31.7731 C75.603,33.0591 64.701,33.9561 53.761,33.6781 C48.03,33.5321 42.305,32.8341 36.595,32.2191 C30.405,31.5531 24.167,31.0351 18.078,29.8151 C12.809,28.7601 7.392,27.8121 2.687,24.8331 C1.856,24.3071 1.092,24.0251 1.359,22.6801 C1.524,21.8501 0.811,20.8831 0.679,19.9511 C-0.097,14.4411 1.642,9.6311 5.266,5.5951 C8.416,2.0861 13.591,2.5211 16.546,6.2491 C17.038,6.8701 17.532,7.4901 18.119,8.2271" id="Fill-118" fill="#000000"></path>
        <path d="M78.829,30.8551 C78.607,30.9261 78.388,31.0511 78.163,31.0611 C70.989,31.4101 63.81,32.0881 56.642,31.9921 C49.319,31.8941 42.001,31.1081 34.692,30.4841 C30.161,30.0971 25.657,29.3931 21.131,28.9371 C17.446,28.5661 13.905,27.7401 10.481,26.3151 C9.395,25.8631 8.179,25.6761 7.003,25.4931 C3.964,25.0211 2.744,22.6531 2.167,19.7951 C1.22,15.1061 2.863,10.9051 5.609,7.2231 C7.964,4.0641 12.782,3.2781 15.796,7.4181 C16.218,7.9981 16.518,8.6651 16.939,9.2451 C17.73,10.3361 18.316,10.4051 19.232,9.3711 C19.858,8.6641 20.294,7.7871 20.807,6.9831 C22.557,4.2411 24.734,2.2021 28.233,2.0011 C31.54,1.8101 34.144,3.2871 35.492,6.3551 C36.422,8.4721 37.209,10.6621 38.271,12.7101 C39.857,15.7691 40.883,15.9821 44.036,14.4671 C46.113,13.4681 48.182,12.3851 50.367,11.6881 C54.738,10.2941 59.978,12.8661 62.002,17.0261 C63.112,19.3091 64.452,21.4811 65.719,23.6861 C67.306,26.4471 70.017,27.6481 72.835,28.6141 C74.849,29.3051 76.928,29.8101 78.977,30.3981 C78.928,30.5501 78.878,30.7031 78.829,30.8551" id="Fill-120" fill="#9CEDFF" class="icon__color"></path>
    </g>
</svg>
