<svg width="56px" height="77px" viewBox="280 304 56 77" version="1.1" xmlns="http://www.w3.org/2000/svg" xmlns:xlink="http://www.w3.org/1999/xlink">
    <defs></defs>
    <g id="Group-26" stroke="none" stroke-width="1" fill="none" fill-rule="evenodd" transform="translate(280.000000, 304.000000)">
        <path d="M21.3199,2.9279 C21.2999,2.8349 21.2799,2.7419 21.2599,2.6489 C19.7939,2.9489 18.1759,2.9499 16.8919,3.6059 C13.1519,5.5159 9.9919,8.2109 8.1289,12.0529 C6.8119,14.7689 5.7289,17.6159 4.7629,20.4789 C1.9719,28.7469 0.9299,37.2609 1.2909,45.9799 C1.5039,51.1289 2.0719,56.1539 4.5989,60.7709 C7.0149,65.1849 9.9289,69.2359 14.5599,71.4609 C19.2249,73.7019 24.2739,74.7709 29.4629,75.0329 C29.9359,75.0569 30.4239,74.9809 30.8909,74.8869 C35.1319,74.0369 39.3499,73.0839 43.1409,70.8899 C46.9019,68.7139 49.8209,65.7469 51.3639,61.5949 C52.7709,57.8059 53.2439,53.8249 53.4299,49.8409 C53.6909,44.2629 53.8829,38.6579 52.5609,33.1559 C50.9619,26.5009 48.4089,20.2259 44.7229,14.4579 C42.8869,11.5839 41.3639,8.4339 38.3959,6.4189 C37.2759,5.6589 36.2869,4.7079 35.1859,3.9159 C33.3979,2.6299 31.3989,1.8579 29.1769,1.8299 C28.7119,1.8239 28.2429,2.1119 27.6379,2.3099 C28.5609,3.0639 29.2679,3.6429 30.3199,4.5039 C27.8289,4.3279 25.9459,4.0589 24.0699,4.1009 C22.1509,4.1439 20.2399,4.4929 18.3249,4.7069 C18.2739,4.5249 18.2229,4.3439 18.1709,4.1619 C19.2209,3.7509 20.2699,3.3389 21.3199,2.9279 M55.0229,45.4839 C55.1159,50.8549 54.6789,56.1579 53.1269,61.3459 C52.2949,64.1249 50.5849,66.2609 48.7799,68.4199 C45.5229,72.3169 40.9459,73.7049 36.4129,75.2549 C28.7709,77.8669 21.5619,75.8869 14.5429,73.0169 C12.5669,72.2089 10.9329,70.4309 9.3129,68.9159 C3.0819,63.0879 0.1269,55.8739 0.0919,47.3259 C0.0709,42.0589 -0.2471,36.8099 0.6259,31.5649 C1.7749,24.6659 3.5499,17.9459 6.7849,11.7499 C8.6189,8.2379 10.9379,4.9489 14.7159,3.0279 C17.4479,1.6389 20.3819,1.4949 23.3049,1.1579 C24.6479,1.0029 25.9969,0.8909 27.3409,0.7399 C30.5459,0.3819 33.4249,1.0199 36.2149,2.8109 C42.8789,7.0879 46.3129,13.7879 49.6909,20.4749 C52.5499,26.1329 54.2979,32.2239 54.9839,38.5479 C55.2319,40.8349 55.0229,43.1709 55.0229,45.4839" id="Fill-5" fill="#000000"></path>
        <path d="M21.3199,2.9279 C20.2699,3.3389 19.2209,3.7509 18.1709,4.1619 C18.2229,4.3439 18.2739,4.5249 18.3249,4.7069 C20.2399,4.4929 22.1509,4.1439 24.0699,4.1009 C25.9459,4.0589 27.8289,4.3279 30.3199,4.5039 C29.2679,3.6429 28.5609,3.0639 27.6379,2.3099 C28.2429,2.1119 28.7119,1.8239 29.1769,1.8299 C31.3989,1.8579 33.3979,2.6299 35.1859,3.9159 C36.2869,4.7079 37.2759,5.6589 38.3959,6.4189 C41.3639,8.4339 42.8869,11.5839 44.7229,14.4579 C48.4089,20.2259 50.9619,26.5009 52.5609,33.1559 C53.8829,38.6579 53.6909,44.2629 53.4299,49.8409 C53.2439,53.8249 52.7709,57.8059 51.3639,61.5949 C49.8209,65.7469 46.9019,68.7139 43.1409,70.8899 C39.3499,73.0839 35.1319,74.0369 30.8909,74.8869 C30.4239,74.9809 29.9359,75.0569 29.4629,75.0329 C24.2739,74.7709 19.2249,73.7019 14.5599,71.4609 C9.9289,69.2359 7.0149,65.1849 4.5989,60.7709 C2.0719,56.1539 1.5039,51.1289 1.2909,45.9799 C0.9299,37.2609 1.9719,28.7469 4.7629,20.4789 C5.7289,17.6159 6.8119,14.7689 8.1289,12.0529 C9.9919,8.2109 13.1519,5.5159 16.8919,3.6059 C18.1759,2.9499 19.7939,2.9489 21.2599,2.6489 C21.2799,2.7419 21.2999,2.8349 21.3199,2.9279" id="Fill-7" fill="#9CEDFF" class="icon__color"></path>
    </g>
</svg>
