<svg width="52px" height="55px" viewBox="238 420 52 55" version="1.1" xmlns="http://www.w3.org/2000/svg" xmlns:xlink="http://www.w3.org/1999/xlink">
    <defs></defs>
    <g id="Group-23" stroke="none" stroke-width="1" fill="none" fill-rule="evenodd" transform="translate(238.000000, 420.000000)">
        <path d="M9.383,1.6634 C6.388,1.4624 2.869,3.9224 2.358,6.5324 C2.041,8.1524 1.77,9.9674 3.056,11.3324 C5.07,13.4704 7.161,15.4604 9.887,16.8454 C11.71,17.7724 13.078,19.6054 14.61,21.0744 C14.78,21.2374 14.711,21.6714 14.715,21.9804 C14.732,23.0584 14.716,24.1374 14.742,25.2164 C14.772,26.4824 15.025,27.7764 14.846,29.0104 C14.233,33.2284 13.062,37.2764 10.877,41.0004 C9.95,42.5804 9.246,44.2924 8.458,45.9534 C7.601,47.7604 8.039,49.2354 9.324,50.7704 C12.409,54.4554 18.395,53.3534 21.79,51.6494 C23.498,50.7924 25.158,49.8204 26.763,48.7814 C29.701,46.8774 32.594,47.0854 35.622,48.5824 C37.403,49.4624 39.272,50.2224 41.176,50.7834 C44.037,51.6254 46.661,50.8044 48.558,48.6074 C50.451,46.4144 50.311,43.6784 49.354,41.1084 C48.466,38.7204 47.123,36.4994 46.278,34.0994 C45.383,31.5604 44.817,28.9034 44.156,26.2854 C43.903,25.2814 44.085,24.0384 43.551,23.2584 C41.71,20.5614 42.619,18.1264 44.249,15.9934 C45.96,13.7534 46.851,11.2644 47.572,8.6414 C48.172,6.4624 47.851,5.5914 45.866,4.5854 C42.575,2.9164 39.212,3.0354 35.921,4.5474 C33.821,5.5114 31.865,6.7924 29.756,7.7344 C26.861,9.0254 23.705,9.7414 20.716,8.5694 C18.715,7.7854 16.8,6.3044 15.364,4.6784 C13.593,2.6744 11.337,2.2534 9.383,1.6634 M8.683,0.3314 C11.52,0.5384 13.95,1.3474 15.88,3.3994 C16.587,4.1514 17.435,4.7704 18.215,5.4534 C21.836,8.6204 25.696,7.9694 29.593,6.1144 C31.61,5.1554 33.551,4.0364 35.566,3.0714 C39.471,1.1994 43.343,1.5104 47.055,3.5774 C49.903,5.1634 50.381,6.7714 49.163,9.7564 C48.65,11.0124 48.221,12.3174 47.569,13.4964 C44.942,18.2424 45.251,23.2924 45.915,28.3834 C46.018,29.1684 46.223,29.9644 46.53,30.6924 C47.895,33.9244 49.371,37.1104 50.696,40.3594 C51.924,43.3714 52.33,46.4444 50.095,49.1984 C47.683,52.1704 44.417,53.0104 40.815,52.1494 C38.896,51.6914 37.038,50.8424 35.26,49.9544 C32.568,48.6074 30.016,48.1794 27.383,50.0764 C26.289,50.8654 24.969,51.3404 23.866,52.1204 C21.274,53.9564 18.299,54.6234 15.262,54.7014 C11.615,54.7964 8.87,52.8514 6.994,49.8274 C6.563,49.1324 6.511,47.9054 6.801,47.1134 C7.731,44.5804 8.804,42.0864 10.004,39.6674 C12.346,34.9444 14.159,30.1314 13.094,24.7374 C12.488,21.6674 11.198,19.1074 8.233,17.4444 C6.244,16.3294 4.554,14.6454 2.825,13.1094 C-0.668,10.0034 0.208,6.6134 1.917,4.0474 C3.468,1.7194 5.827,0.3244 8.683,0.3314" id="Fill-122" fill="#000000"></path>
        <path d="M9.383,1.6634 C11.337,2.2534 13.593,2.6744 15.364,4.6784 C16.8,6.3044 18.715,7.7854 20.716,8.5694 C23.705,9.7414 26.861,9.0254 29.756,7.7344 C31.865,6.7924 33.821,5.5114 35.921,4.5474 C39.212,3.0354 42.575,2.9164 45.866,4.5854 C47.851,5.5914 48.172,6.4624 47.572,8.6414 C46.851,11.2644 45.96,13.7534 44.249,15.9934 C42.619,18.1264 41.71,20.5614 43.551,23.2584 C44.085,24.0384 43.903,25.2814 44.156,26.2854 C44.817,28.9034 45.383,31.5604 46.278,34.0994 C47.123,36.4994 48.466,38.7204 49.354,41.1084 C50.311,43.6784 50.451,46.4144 48.558,48.6074 C46.661,50.8044 44.037,51.6254 41.176,50.7834 C39.272,50.2224 37.403,49.4624 35.622,48.5824 C32.594,47.0854 29.701,46.8774 26.763,48.7814 C25.158,49.8204 23.498,50.7924 21.79,51.6494 C18.395,53.3534 12.409,54.4554 9.324,50.7704 C8.039,49.2354 7.601,47.7604 8.458,45.9534 C9.246,44.2924 9.95,42.5804 10.877,41.0004 C13.062,37.2764 14.233,33.2284 14.846,29.0104 C15.025,27.7764 14.772,26.4824 14.742,25.2164 C14.716,24.1374 14.732,23.0584 14.715,21.9804 C14.711,21.6714 14.78,21.2374 14.61,21.0744 C13.078,19.6054 11.71,17.7724 9.887,16.8454 C7.161,15.4604 5.07,13.4704 3.056,11.3324 C1.77,9.9674 2.041,8.1524 2.358,6.5324 C2.869,3.9224 6.388,1.4624 9.383,1.6634" id="Fill-124" fill="#9CEDFF" class="icon__color"></path>
    </g>
</svg>
