<svg width="72px" height="63px" viewBox="306 617 72 63" version="1.1" xmlns="http://www.w3.org/2000/svg" xmlns:xlink="http://www.w3.org/1999/xlink">
    <defs></defs>
    <g id="Group-14" stroke="none" stroke-width="1" fill="none" fill-rule="evenodd" transform="translate(306.000000, 617.000000)">
        <path d="M44.967,9.0383 C41.569,7.1893 39.033,8.0053 37.457,11.2523 C36.725,12.7583 36.109,14.3273 35.281,15.7763 C33.87,18.2443 31.872,18.9913 29.502,17.5933 C24.37,14.5673 19.71,11.0753 19.589,4.2563 C19.573,3.3723 19.398,2.3513 18.206,2.3813 C16.998,2.4113 16.646,3.4093 16.587,4.4053 C16.54,5.1923 16.755,5.9913 16.798,6.7873 C16.839,7.5433 16.807,8.3033 16.807,9.1573 C16.268,9.1573 15.825,9.2903 15.678,9.1373 C14.216,7.6203 12.802,6.0563 11.369,4.4993 C11.23,4.5443 11.051,4.5553 10.944,4.6493 C10.768,4.8033 10.624,5.0013 10.494,5.1993 C8.674,7.9593 8.698,11.0053 9.549,13.9753 C11.317,20.1483 13.755,26.0263 17.728,31.1903 C19.581,33.6003 21.059,36.2693 21.835,39.2613 C22.138,40.4263 22.621,41.7043 21.416,42.5653 C20.204,43.4313 19.083,42.6583 18.185,41.8473 C17.185,40.9423 16.394,39.8033 15.387,38.9073 C14.21,37.8603 12.975,36.8313 11.619,36.0483 C10.553,35.4323 9.094,34.7243 8.114,36.0053 C7.124,37.2993 8.342,38.3473 9.074,39.3753 C9.68,40.2283 10.231,41.1203 10.807,41.9943 C10.672,42.1693 10.538,42.3443 10.403,42.5183 C9.667,42.3843 8.936,42.2153 8.196,42.1243 C6.625,41.9293 5.045,41.6273 3.477,41.6683 C2.744,41.6873 1.578,42.2813 1.429,42.8343 C1.267,43.4393 1.862,44.6413 2.465,44.9793 C3.892,45.7763 5.517,46.7003 7.065,46.7073 C11.23,46.7263 14.894,47.7653 18.215,50.3123 C19.392,51.2163 20.853,51.8503 22.28,52.3053 C24.255,52.9353 25.677,53.8983 26.246,56.0233 C26.729,57.8293 28.043,58.9713 29.778,59.6283 C32.223,55.4863 32.296,55.7343 37.329,54.2393 C40.749,53.2233 43.097,54.2523 45.144,56.7063 C46.787,58.6753 48.909,59.5953 51.348,59.9913 C53.448,60.3323 54.069,59.6673 53.859,57.5063 C53.697,55.8463 53.465,54.1393 53.679,52.5063 C54.11,49.2113 58.25,47.1483 61.212,48.5963 C62.287,49.1213 63.353,49.6673 64.41,50.2283 C66.639,51.4123 68.956,49.2103 68.9,47.1773 C68.85,45.3493 68.338,43.7243 67.032,42.3893 C66.611,41.9583 66.243,41.4743 65.873,41.0393 C66.903,39.7443 67.813,38.6433 68.674,37.5053 C70.069,35.6633 69.913,34.6973 67.809,33.6013 C64.851,32.0603 61.831,31.6233 58.603,33.0903 C56.663,33.9723 54.554,34.5923 52.456,34.9933 C48.37,35.7733 45.797,30.7333 46.319,28.1733 C46.762,26.0083 47.949,24.6843 50.23,24.2083 C52.733,23.6853 53.262,22.3243 52.225,19.9693 C51.743,18.8753 51.031,18.0983 49.854,17.7843 C49.081,17.5783 48.305,17.3793 47.547,17.1273 C44.516,16.1183 43.277,13.4483 44.434,10.4613 C44.6,10.0323 44.757,9.6003 44.967,9.0383 M68.615,51.1333 C68.263,51.4933 67.911,51.8523 67.558,52.2123 C65.351,52.4413 63.508,51.4603 61.719,50.3873 C60.109,49.4223 58.517,48.8493 56.835,50.1473 C55.164,51.4373 54.485,53.1003 54.96,55.2163 C55.204,56.3063 55.39,57.4193 55.478,58.5313 C55.619,60.3233 54.791,61.2743 52.999,61.3113 C49.691,61.3803 46.621,60.7663 44.44,57.9293 C44.051,57.4233 43.682,56.8313 43.161,56.5143 C42.229,55.9463 41.177,55.1533 40.194,55.1803 C38.271,55.2313 36.322,55.6433 34.456,56.1653 C32.644,56.6723 31.465,58.6183 31.419,60.6153 C31.405,61.1973 31.417,61.7783 31.16,62.4603 C28.98,60.3383 25.817,59.3593 24.892,56.1333 C24.432,54.5283 23.21,53.7963 21.673,53.7483 C20.529,53.7133 19.981,53.1243 19.159,52.4313 C16.009,49.7733 12.502,47.6873 8.131,47.8843 C6.15,47.9733 4.325,47.4983 2.637,46.4883 C2.162,46.2043 1.576,45.9203 1.331,45.4763 C0.817,44.5453 0.096,43.4693 0.189,42.5243 C0.325,41.1423 1.592,40.4503 3.002,40.3983 C4.497,40.3443 5.995,40.3863 7.854,40.3863 C7.473,39.5953 7.206,39.0833 6.975,38.5543 C6.431,37.3113 6.285,36.0803 7.276,34.9753 C8.192,33.9553 9.417,33.7043 10.555,34.2943 C12.302,35.2013 14.01,36.2363 15.568,37.4333 C16.626,38.2453 17.357,39.4703 18.316,40.4303 C18.837,40.9513 19.527,41.3023 20.254,41.8083 C21.387,39.8903 20.563,38.3893 19.863,37.0733 C18.705,34.8953 17.346,32.8113 15.921,30.7943 C12.224,25.5603 9.762,19.7463 8.247,13.5963 C7.474,10.4563 7.329,7.0783 9.459,4.1363 C10.857,2.2063 12.304,2.2523 13.464,4.3333 C13.889,5.0973 14.288,5.8773 14.721,6.6363 C14.784,6.7463 14.975,6.7823 15.283,6.9483 C15.283,6.0273 15.284,5.1923 15.283,4.3573 C15.282,3.0523 15.865,2.0433 16.903,1.3073 C18.201,0.3873 19.653,0.6503 20.315,2.0913 C20.767,3.0773 20.995,4.2223 21.071,5.3133 C21.336,9.1353 23.239,11.8923 26.356,13.9513 C27.488,14.6993 28.543,15.5623 29.678,16.3063 C31.521,17.5133 33,17.1923 34.062,15.2723 C34.754,14.0213 35.301,12.6823 35.823,11.3473 C37.829,6.2223 41.506,6.0273 45.545,7.4893 C46.614,7.8753 46.995,8.6923 46.587,9.7963 C46.393,10.3203 46.167,10.8323 45.957,11.3503 C44.915,13.9123 45.23,14.6593 47.838,15.7363 C48.354,15.9493 48.882,16.1873 49.426,16.2663 C51.483,16.5653 52.625,17.9053 53.461,19.6453 C54.837,22.5103 53.907,24.6313 50.854,25.5543 C48.287,26.3303 47.348,27.7423 47.865,30.0513 C48.443,32.6333 50.429,34.1363 52.906,33.6023 C54.608,33.2343 56.308,32.6693 57.879,31.9203 C61.64,30.1263 65.236,30.6693 68.652,32.6153 C71.67,34.3333 71.827,37.2163 69.248,39.5033 C68.784,39.9153 68.312,40.3203 67.71,40.8443 C70.308,44.1383 71.358,47.5123 68.615,51.1333" id="Fill-100" fill="#000000"></path>
        <path d="M44.967,9.0383 C44.757,9.6003 44.6,10.0323 44.434,10.4613 C43.277,13.4483 44.516,16.1183 47.547,17.1273 C48.305,17.3793 49.081,17.5783 49.854,17.7843 C51.031,18.0983 51.743,18.8753 52.225,19.9693 C53.262,22.3243 52.733,23.6853 50.23,24.2083 C47.949,24.6843 46.762,26.0083 46.319,28.1733 C45.797,30.7333 48.37,35.7733 52.456,34.9933 C54.554,34.5923 56.663,33.9723 58.603,33.0903 C61.831,31.6233 64.851,32.0603 67.809,33.6013 C69.913,34.6973 70.069,35.6633 68.674,37.5053 C67.813,38.6433 66.903,39.7443 65.873,41.0393 C66.243,41.4743 66.611,41.9583 67.032,42.3893 C68.338,43.7243 68.85,45.3493 68.9,47.1773 C68.956,49.2103 66.639,51.4123 64.41,50.2283 C63.353,49.6673 62.287,49.1213 61.212,48.5963 C58.25,47.1483 54.11,49.2113 53.679,52.5063 C53.465,54.1393 53.697,55.8463 53.859,57.5063 C54.069,59.6673 53.448,60.3323 51.348,59.9913 C48.909,59.5953 46.787,58.6753 45.144,56.7063 C43.097,54.2523 40.749,53.2233 37.329,54.2393 C32.296,55.7343 32.223,55.4863 29.778,59.6283 C28.043,58.9713 26.729,57.8293 26.246,56.0233 C25.677,53.8983 24.255,52.9353 22.28,52.3053 C20.853,51.8503 19.392,51.2163 18.215,50.3123 C14.894,47.7653 11.23,46.7263 7.065,46.7073 C5.517,46.7003 3.892,45.7763 2.465,44.9793 C1.862,44.6413 1.267,43.4393 1.429,42.8343 C1.578,42.2813 2.744,41.6873 3.477,41.6683 C5.045,41.6273 6.625,41.9293 8.196,42.1243 C8.936,42.2153 9.667,42.3843 10.403,42.5183 C10.538,42.3443 10.672,42.1693 10.807,41.9943 C10.231,41.1203 9.68,40.2283 9.074,39.3753 C8.342,38.3473 7.124,37.2993 8.114,36.0053 C9.094,34.7243 10.553,35.4323 11.619,36.0483 C12.975,36.8313 14.21,37.8603 15.387,38.9073 C16.394,39.8033 17.185,40.9423 18.185,41.8473 C19.083,42.6583 20.204,43.4313 21.416,42.5653 C22.621,41.7043 22.138,40.4263 21.835,39.2613 C21.059,36.2693 19.581,33.6003 17.728,31.1903 C13.755,26.0263 11.317,20.1483 9.549,13.9753 C8.698,11.0053 8.674,7.9593 10.494,5.1993 C10.624,5.0013 10.768,4.8033 10.944,4.6493 C11.051,4.5553 11.23,4.5443 11.369,4.4993 C12.802,6.0563 14.216,7.6203 15.678,9.1373 C15.825,9.2903 16.268,9.1573 16.807,9.1573 C16.807,8.3033 16.839,7.5433 16.798,6.7873 C16.755,5.9913 16.54,5.1923 16.587,4.4053 C16.646,3.4093 16.998,2.4113 18.206,2.3813 C19.398,2.3513 19.573,3.3723 19.589,4.2563 C19.71,11.0753 24.37,14.5673 29.502,17.5933 C31.872,18.9913 33.87,18.2443 35.281,15.7763 C36.109,14.3273 36.725,12.7583 37.457,11.2523 C39.033,8.0053 41.569,7.1893 44.967,9.0383" id="Fill-102" fill="#9CEDFF" class="icon__color"></path>
    </g>
</svg>
