<svg width="43px" height="64px" viewBox="60 479 43 64" version="1.1" xmlns="http://www.w3.org/2000/svg" xmlns:xlink="http://www.w3.org/1999/xlink">
    <defs></defs>
    <g id="Group-19" stroke="none" stroke-width="1" fill="none" fill-rule="evenodd" transform="translate(60.000000, 479.000000)">
        <path d="M2.8369,6.3283 C2.7069,8.6953 2.5499,10.9873 2.4619,13.2813 C2.1839,20.4643 2.9459,27.6403 2.4389,34.8383 C1.9839,41.2893 1.9419,47.7713 1.7769,54.2403 C1.7239,56.2893 1.8619,58.3433 1.9119,60.3473 C5.8789,60.3473 9.5369,60.4303 13.1889,60.3243 C16.8609,60.2173 20.5289,59.9483 24.1949,59.6973 C25.7019,59.5943 27.2159,59.4413 28.6959,59.1563 C31.7529,58.5673 34.7899,57.8833 37.8319,57.2183 C38.5139,57.0693 39.1789,56.8403 40.0679,56.5863 C40.1799,53.1443 40.3069,49.8063 40.3879,46.4673 C40.4179,45.2723 40.2719,44.0723 40.3219,42.8793 C40.5299,37.9313 40.9169,32.9863 40.9789,28.0373 C41.0469,22.6893 40.7839,17.3383 40.7599,11.9873 C40.7529,10.4863 40.1349,9.4413 39.1459,8.4243 C37.5339,6.7683 35.9819,5.0523 34.4679,3.3063 C33.9439,2.7013 33.4479,2.3523 32.6289,2.5283 C30.7569,2.9313 28.8429,3.1783 27.0089,3.7083 C21.9999,5.1543 16.9759,6.3783 11.6989,6.1613 C9.3839,6.0663 7.0619,6.1253 4.7429,6.1383 C4.2039,6.1413 3.6659,6.2423 2.8369,6.3283 M42.2759,57.7433 C41.9729,58.2423 41.5669,58.9123 41.0589,59.7513 C38.9829,58.2803 36.9209,59.1543 34.8679,59.6003 C30.5759,60.5323 26.3029,61.4593 21.8579,61.4483 C18.9199,61.4413 15.9829,61.9163 13.0399,62.0313 C10.0159,62.1503 6.9839,62.1473 3.9569,62.0883 C2.7689,62.0653 1.5619,61.6303 0.8279,63.1003 C0.4719,62.6473 0.2059,62.4653 0.2109,62.2923 C0.4099,55.7493 0.6539,49.2073 0.8479,42.6633 C1.0039,37.3933 1.1809,32.1223 1.2049,26.8513 C1.2319,20.7803 1.0969,14.7073 1.0409,8.6353 C1.0169,5.9643 2.2829,4.6603 4.8669,4.6283 C8.3029,4.5873 11.7389,4.4553 15.1739,4.4953 C19.0039,4.5393 22.5599,3.3083 26.1879,2.3793 C28.5739,1.7683 30.9709,1.1973 33.3529,0.5713 C34.3569,0.3063 34.8129,0.7993 35.1879,1.6223 C36.2089,3.8663 37.9899,5.4593 39.7989,7.0593 C40.5809,7.7513 42.1579,7.5063 42.1959,9.0583 C42.2209,10.0933 42.2369,11.1283 42.2559,12.1643 C42.3469,17.3513 42.5199,22.5383 42.5029,27.7253 C42.4879,32.4353 42.2679,37.1453 42.1319,41.8553 C42.0049,46.2433 41.8419,50.6303 41.7659,55.0193 C41.7519,55.8563 42.0699,56.6993 42.2759,57.7433" id="Fill-1" fill="#000000"></path>
        <path d="M2.8369,6.3283 C3.6659,6.2423 4.2039,6.1413 4.7429,6.1383 C7.0619,6.1253 9.3839,6.0663 11.6989,6.1613 C16.9759,6.3783 21.9999,5.1543 27.0089,3.7083 C28.8429,3.1783 30.7569,2.9313 32.6289,2.5283 C33.4479,2.3523 33.9439,2.7013 34.4679,3.3063 C35.9819,5.0523 37.5339,6.7683 39.1459,8.4243 C40.1349,9.4413 40.7529,10.4863 40.7599,11.9873 C40.7839,17.3383 41.0469,22.6893 40.9789,28.0373 C40.9169,32.9863 40.5299,37.9313 40.3219,42.8793 C40.2719,44.0723 40.4179,45.2723 40.3879,46.4673 C40.3069,49.8063 40.1799,53.1443 40.0679,56.5863 C39.1789,56.8403 38.5139,57.0693 37.8319,57.2183 C34.7899,57.8833 31.7529,58.5673 28.6959,59.1563 C27.2159,59.4413 25.7019,59.5943 24.1949,59.6973 C20.5289,59.9483 16.8609,60.2173 13.1889,60.3243 C9.5369,60.4303 5.8789,60.3473 1.9119,60.3473 C1.8619,58.3433 1.7239,56.2893 1.7769,54.2403 C1.9419,47.7713 1.9839,41.2893 2.4389,34.8383 C2.9459,27.6403 2.1839,20.4643 2.4619,13.2813 C2.5499,10.9873 2.7069,8.6953 2.8369,6.3283" id="Fill-3" fill="#9CEDFF" class="icon__color"></path>
    </g>
</svg>
