<svg width="29px" height="124px" viewBox="672 439 29 124" version="1.1" xmlns="http://www.w3.org/2000/svg" xmlns:xlink="http://www.w3.org/1999/xlink">
    <defs></defs>
    <g id="Group-9" stroke="none" stroke-width="1" fill="none" fill-rule="evenodd" transform="translate(672.000000, 439.000000)">
        <path d="M11.6472,117.3782 C11.9272,117.3132 12.2072,117.2472 12.4872,117.1822 C12.4872,116.2612 12.5112,115.3392 12.4832,114.4192 C12.4192,112.3552 12.9632,110.4712 14.1282,108.7752 C15.5732,106.6702 17.1062,104.6222 18.4862,102.4762 C21.5512,97.7102 23.0252,92.7282 21.0312,87.0262 C20.4632,85.4002 20.8292,83.3972 20.9842,81.5852 C21.1052,80.1642 21.6462,78.7842 21.8512,77.3642 C22.3672,73.7922 22.7802,70.1872 21.4112,66.7122 C20.2142,63.6742 18.9962,60.6292 17.5322,57.7152 C16.0212,54.7062 16.1092,51.8042 17.0502,48.6742 C17.7312,46.4082 18.1362,44.0182 18.3262,41.6562 C18.8052,35.7072 18.3682,29.6492 20.8692,23.9782 C21.7362,22.0122 22.3332,19.9282 23.1102,17.9202 C23.3342,17.3432 23.6452,16.7052 24.1072,16.3282 C29.1632,12.1932 26.8272,6.7582 23.0072,3.7422 C21.5792,2.6162 20.0772,1.6242 18.1992,2.2432 C16.3242,2.8612 14.4672,3.5992 12.7152,4.5032 C10.9542,5.4122 10.2562,7.1672 9.9222,9.0362 C9.8432,9.4782 9.8472,10.0242 10.0392,10.4102 C11.3042,12.9552 11.0942,14.3582 8.7192,15.5672 C5.9082,16.9992 5.0942,19.2342 4.9302,22.1992 C4.6432,27.3692 4.1272,32.5312 3.5322,37.6762 C3.1932,40.6062 2.5312,43.5002 1.9702,46.4022 C1.6862,47.8752 1.8562,49.2242 2.5452,50.5762 C3.8142,53.0662 5.0322,55.5842 6.1842,58.1292 C7.6112,61.2822 8.5842,64.5302 8.3982,68.0782 C8.1562,72.6852 7.8692,77.3052 7.9762,81.9102 C8.1312,88.6112 8.4912,95.3142 9.0162,101.9962 C9.3532,106.2852 10.1122,110.5432 10.7542,114.8052 C10.8872,115.6872 11.3412,116.5222 11.6472,117.3782 M13.1132,123.0532 C12.2752,121.7282 11.4662,120.6702 10.8922,119.4982 C8.9242,115.4812 8.1382,111.1242 7.8592,106.7362 C7.1362,95.3322 6.1002,83.9382 6.3332,72.4922 C6.3552,71.3782 6.4602,70.2552 6.6492,69.1572 C7.1672,66.1492 6.8262,63.2362 5.6042,60.4712 C4.3122,57.5472 2.8912,54.6782 1.4722,51.8112 C0.3952,49.6362 0.2342,47.3892 0.6332,45.0362 C1.5432,39.6802 2.5082,34.3312 3.2602,28.9522 C3.5792,26.6702 3.3512,24.3182 3.5002,22.0062 C3.6842,19.1442 4.2062,16.4382 7.2152,14.9922 C7.7382,14.7412 8.1562,13.9092 8.2842,13.2762 C8.5532,11.9532 8.6802,10.5862 8.7152,9.2332 C8.7882,6.4022 10.1372,4.3292 12.4982,2.9682 C13.8702,2.1782 15.4172,1.6812 16.9062,1.1072 C19.8372,-0.0238 22.2882,1.1172 24.3742,3.0272 C28.0312,6.3762 29.9712,10.8332 26.8112,15.7572 C23.3702,21.1172 20.8562,27.0432 20.1282,33.5002 C19.8522,35.9412 19.8412,38.4332 19.9512,40.8912 C20.0862,43.9312 19.3822,46.7852 18.3312,49.5522 C17.3472,52.1452 17.5902,54.5572 18.7852,56.9602 C19.6032,58.6072 20.3162,60.3222 21.2812,61.8782 C24.4132,66.9242 24.0882,72.3752 23.3362,77.8932 C23.2502,78.5232 23.0682,79.1472 22.8752,79.7552 C21.9252,82.7462 22.0932,85.6482 22.9582,88.6902 C24.6222,94.5492 22.6162,99.7022 19.2482,104.4512 C17.9102,106.3382 16.4802,108.1602 15.1572,110.0572 C14.0282,111.6772 14.1472,113.5332 14.3532,115.3812 C14.5042,116.7302 14.6402,118.0802 14.7802,119.4292 C14.9112,120.7012 14.5292,121.7702 13.1132,123.0532" id="Fill-96" fill="#000000"></path>
        <path d="M11.6472,117.3782 C11.3412,116.5222 10.8872,115.6872 10.7542,114.8052 C10.1122,110.5432 9.3532,106.2852 9.0162,101.9962 C8.4912,95.3142 8.1312,88.6112 7.9762,81.9102 C7.8692,77.3052 8.1562,72.6852 8.3982,68.0782 C8.5842,64.5302 7.6112,61.2822 6.1842,58.1292 C5.0322,55.5842 3.8142,53.0662 2.5452,50.5762 C1.8562,49.2242 1.6862,47.8752 1.9702,46.4022 C2.5312,43.5002 3.1932,40.6062 3.5322,37.6762 C4.1272,32.5312 4.6432,27.3692 4.9302,22.1992 C5.0942,19.2342 5.9082,16.9992 8.7192,15.5672 C11.0942,14.3582 11.3042,12.9552 10.0392,10.4102 C9.8472,10.0242 9.8432,9.4782 9.9222,9.0362 C10.2562,7.1672 10.9542,5.4122 12.7152,4.5032 C14.4672,3.5992 16.3242,2.8612 18.1992,2.2432 C20.0772,1.6242 21.5792,2.6162 23.0072,3.7422 C26.8272,6.7582 29.1632,12.1932 24.1072,16.3282 C23.6452,16.7052 23.3342,17.3432 23.1102,17.9202 C22.3332,19.9282 21.7362,22.0122 20.8692,23.9782 C18.3682,29.6492 18.8052,35.7072 18.3262,41.6562 C18.1362,44.0182 17.7312,46.4082 17.0502,48.6742 C16.1092,51.8042 16.0212,54.7062 17.5322,57.7152 C18.9962,60.6292 20.2142,63.6742 21.4112,66.7122 C22.7802,70.1872 22.3672,73.7922 21.8512,77.3642 C21.6462,78.7842 21.1052,80.1642 20.9842,81.5852 C20.8292,83.3972 20.4632,85.4002 21.0312,87.0262 C23.0252,92.7282 21.5512,97.7102 18.4862,102.4762 C17.1062,104.6222 15.5732,106.6702 14.1282,108.7752 C12.9632,110.4712 12.4192,112.3552 12.4832,114.4192 C12.5112,115.3392 12.4872,116.2612 12.4872,117.1822 C12.2072,117.2472 11.9272,117.3132 11.6472,117.3782" id="Fill-98" fill="#9CEDFF" class="icon__color"></path>
    </g>
</svg>
