<svg width="153px" height="56px" viewBox="226 574 153 56" version="1.1" xmlns="http://www.w3.org/2000/svg" xmlns:xlink="http://www.w3.org/1999/xlink">
    <defs></defs>
    <g id="Group-22" stroke="none" stroke-width="1" fill="none" fill-rule="evenodd" transform="translate(226.000000, 574.000000)">
        <path d="M16.0037,17.3034 C12.6727,17.8454 12.9397,20.1604 13.0927,22.4444 C13.2927,25.4394 14.9337,27.8404 16.2777,30.3734 C18.1937,33.9824 19.9817,37.5974 19.9767,41.8774 C19.9707,45.9524 21.9087,48.9954 25.4947,51.0634 C28.6637,52.8904 32.2007,52.3814 34.5127,49.5174 C35.3157,48.5224 35.9937,47.4214 36.8417,46.4694 C41.1667,41.6184 47.1157,40.0274 52.0007,45.8684 C53.0257,47.0934 54.0677,48.3034 55.0897,49.5294 C56.7407,51.5084 58.9467,52.6774 61.3437,53.2914 C64.3877,54.0704 66.7227,52.5584 68.7687,50.4084 C71.0717,47.9874 73.2697,45.4074 75.8677,43.3404 C78.8977,40.9294 82.9847,41.6134 85.6207,44.4244 C87.2057,46.1134 88.8057,47.7914 90.4617,49.4104 C93.6047,52.4844 97.0277,54.1944 101.6877,52.7134 C105.8307,51.3954 109.5787,49.7194 112.3447,46.2464 C113.4387,44.8734 114.5407,43.4914 115.7777,42.2524 C117.8047,40.2214 120.2977,39.3684 123.1907,39.6314 C128.1967,40.0864 133.2077,40.4924 138.2187,40.8864 C138.8457,40.9364 139.5297,40.9184 140.1157,40.7194 C143.7777,39.4754 146.9327,37.4434 148.9317,34.0704 C150.6117,31.2354 151.2247,28.0384 150.0237,24.9044 C149.4217,23.3354 148.0017,22.0834 146.9627,20.6804 C145.0317,18.0694 142.0247,16.9634 139.4067,15.3274 C138.7727,14.9314 137.8967,14.8724 137.1177,14.7694 C135.6947,14.5834 134.2637,14.4434 132.8317,14.3504 C130.8537,14.2224 128.8667,13.8304 126.9397,14.7624 C123.0947,16.6224 119.6437,19.0474 116.4307,21.8424 C115.1707,22.9374 114.2917,24.1654 114.3067,25.9404 C114.3217,27.6884 114.2147,29.4384 114.1357,31.1854 C114.1067,31.8164 114.0707,32.4604 113.9247,33.0714 C112.9707,37.0824 108.7507,38.3154 105.4067,38.0764 C104.0767,37.9814 103.0227,37.4214 102.4107,36.0474 C102.0347,35.2034 101.2847,34.5104 100.6437,33.8014 C99.2847,32.2974 98.1837,30.6554 97.8177,28.6264 C97.6347,27.6084 97.5937,26.5664 97.4457,25.5414 C96.9377,22.0304 96.1037,18.5614 92.2267,17.3764 C88.0227,16.0914 83.7437,16.1004 79.5197,17.6834 C74.7367,19.4754 71.1407,22.8134 67.5487,26.2714 C65.9187,27.8404 63.8347,28.9764 61.8517,30.1274 C60.6247,30.8394 59.1817,31.1674 57.8687,31.7424 C55.3597,32.8434 52.7957,32.8574 50.4517,31.5834 C47.7277,30.1044 45.1367,28.3554 42.6107,26.5514 C41.7587,25.9434 41.1897,24.8634 40.6497,23.9094 C39.4287,21.7554 38.2797,19.5604 37.1557,17.3544 C36.5887,16.2414 35.7057,15.5414 34.5177,15.5894 C32.7137,15.6614 30.8757,15.7884 29.1327,16.2184 C26.8567,16.7804 26.1187,16.6444 25.0257,14.6014 C24.5757,13.7584 24.2547,12.8464 23.8667,11.9684 C22.7127,9.3554 21.2087,7.0884 18.4917,5.7864 C16.2027,4.6884 14.0387,3.3314 11.7517,2.2284 C11.1017,1.9144 10.2037,1.9714 9.4407,2.0574 C7.1877,2.3114 5.5607,3.8034 3.7687,5.0044 C1.9847,6.1994 2.3117,7.8424 2.5337,9.4994 C2.7417,11.0504 4.0507,11.1504 5.2077,11.4514 C7.8227,12.1304 10.2197,13.1374 11.5117,15.7604 C11.7857,16.3184 12.0827,16.8644 12.4167,17.5074 C13.5317,16.9824 14.5257,15.6564 16.0037,17.3034 M112.2877,29.2734 C112.3307,28.3954 112.3917,27.5174 112.4147,26.6384 C112.4787,24.0744 113.5177,22.0954 115.5847,20.4944 C118.6207,18.1434 121.6097,15.7874 125.0417,13.9764 C127.3817,12.7414 129.6997,12.4324 132.2117,12.7674 C132.9237,12.8624 133.6267,13.0774 134.3397,13.1104 C142.2767,13.4694 147.5747,17.8674 151.5157,24.3244 C151.8797,24.9194 152.2457,25.6354 152.2597,26.3034 C152.3907,32.5794 149.9517,37.4654 144.3077,40.5194 C141.6647,41.9494 138.9907,42.7184 135.8267,42.2294 C131.5767,41.5724 127.2417,41.3894 122.9347,41.1934 C119.9087,41.0554 117.3827,42.1054 115.5957,44.8144 C111.7537,50.6344 106.2407,53.8084 99.3457,54.6674 C95.5917,55.1344 92.6737,53.3444 90.0237,51.0964 C88.1407,49.4994 86.4887,47.6244 84.7867,45.8244 C82.1857,43.0734 79.3207,42.6524 76.2667,44.9514 C74.6967,46.1324 73.4637,47.7584 72.0557,49.1594 C70.5327,50.6734 69.0657,52.2594 67.4207,53.6294 C65.6457,55.1074 63.4167,55.4154 61.2727,54.8174 C58.3327,53.9954 55.5847,52.6974 53.6367,50.1544 C52.6167,48.8224 51.5747,47.5044 50.4817,46.2314 C48.0137,43.3554 44.4647,42.7924 41.1917,44.6404 C39.2487,45.7364 37.8667,47.3474 36.6287,49.1464 C35.3897,50.9454 33.9577,52.5344 31.7587,53.2184 C28.4137,54.2604 23.5637,52.6344 21.2787,49.5504 C19.8847,47.6704 18.8117,45.5874 18.7367,43.1764 C18.5777,38.0654 16.8167,33.5244 14.1247,29.2394 C12.7197,27.0024 11.7207,24.5834 11.4837,21.8554 C11.3417,20.2244 10.8197,18.6034 10.2997,17.0324 C9.4437,14.4414 7.2017,13.4834 4.8287,12.8974 C1.5357,12.0844 0.1207,10.1084 0.7347,6.7754 C0.8297,6.2564 1.0887,5.6244 1.4837,5.3274 C3.9017,3.5144 6.1587,1.4114 9.3017,0.8284 C10.7977,0.5514 12.0487,0.8074 13.3707,1.6654 C15.1637,2.8294 17.1397,3.7244 19.0747,4.6584 C22.4707,6.2984 24.2597,9.2714 25.7387,12.5174 C25.9037,12.8794 25.9847,13.2804 26.1377,13.6484 C26.8347,15.3164 27.1397,15.4974 28.8527,14.8344 C31.1897,13.9284 33.5507,13.8094 35.8797,14.6364 C36.7047,14.9304 37.5747,15.6054 38.0257,16.3484 C39.3917,18.5954 40.5347,20.9774 41.8247,23.2734 C42.2857,24.0944 42.7667,25.0384 43.5007,25.5504 C45.9147,27.2324 48.3637,28.9054 50.9637,30.2684 C53.1797,31.4304 55.5917,31.3364 57.8947,30.1544 C60.2957,28.9224 62.8887,27.9814 65.0827,26.4584 C67.3597,24.8774 69.2007,22.6824 71.3357,20.8794 C76.5977,16.4374 82.6387,14.2244 89.5437,15.3224 C96.5017,16.4284 98.4167,19.5854 98.9577,25.2444 C99.2627,28.4364 100.0757,31.1664 102.4517,33.3614 C102.7967,33.6794 103.0207,34.1294 103.2947,34.5234 C104.8207,36.7184 105.7687,37.0684 108.3467,36.3844 C110.7647,35.7434 112.1047,34.3614 112.3227,32.1504 C112.4157,31.2004 112.3377,30.2344 112.3377,29.2754 C112.3217,29.2744 112.3047,29.2744 112.2877,29.2734" id="Fill-88" fill="#000000"></path>
        <path d="M16.0037,17.3034 C14.5257,15.6564 13.5317,16.9824 12.4167,17.5074 C12.0827,16.8644 11.7857,16.3184 11.5117,15.7604 C10.2197,13.1374 7.8227,12.1304 5.2077,11.4514 C4.0507,11.1504 2.7417,11.0504 2.5337,9.4994 C2.3117,7.8424 1.9847,6.1994 3.7687,5.0044 C5.5607,3.8034 7.1877,2.3114 9.4407,2.0574 C10.2037,1.9714 11.1017,1.9144 11.7517,2.2284 C14.0387,3.3314 16.2027,4.6884 18.4917,5.7864 C21.2087,7.0884 22.7127,9.3554 23.8667,11.9684 C24.2547,12.8464 24.5757,13.7584 25.0257,14.6014 C26.1187,16.6444 26.8567,16.7804 29.1327,16.2184 C30.8757,15.7884 32.7137,15.6614 34.5177,15.5894 C35.7057,15.5414 36.5887,16.2414 37.1557,17.3544 C38.2797,19.5604 39.4287,21.7554 40.6497,23.9094 C41.1897,24.8634 41.7587,25.9434 42.6107,26.5514 C45.1367,28.3554 47.7277,30.1044 50.4517,31.5834 C52.7957,32.8574 55.3597,32.8434 57.8687,31.7424 C59.1817,31.1674 60.6247,30.8394 61.8517,30.1274 C63.8347,28.9764 65.9187,27.8404 67.5487,26.2714 C71.1407,22.8134 74.7367,19.4754 79.5197,17.6834 C83.7437,16.1004 88.0227,16.0914 92.2267,17.3764 C96.1037,18.5614 96.9377,22.0304 97.4457,25.5414 C97.5937,26.5664 97.6347,27.6084 97.8177,28.6264 C98.1837,30.6554 99.2847,32.2974 100.6437,33.8014 C101.2847,34.5104 102.0347,35.2034 102.4107,36.0474 C103.0227,37.4214 104.0767,37.9814 105.4067,38.0764 C108.7507,38.3154 112.9707,37.0824 113.9247,33.0714 C114.0707,32.4604 114.1067,31.8164 114.1357,31.1854 C114.2147,29.4384 114.3217,27.6884 114.3067,25.9404 C114.2917,24.1654 115.1707,22.9374 116.4307,21.8424 C119.6437,19.0474 123.0947,16.6224 126.9397,14.7624 C128.8667,13.8304 130.8537,14.2224 132.8317,14.3504 C134.2637,14.4434 135.6947,14.5834 137.1177,14.7694 C137.8967,14.8724 138.7727,14.9314 139.4067,15.3274 C142.0247,16.9634 145.0317,18.0694 146.9627,20.6804 C148.0017,22.0834 149.4217,23.3354 150.0237,24.9044 C151.2247,28.0384 150.6117,31.2354 148.9317,34.0704 C146.9327,37.4434 143.7777,39.4754 140.1157,40.7194 C139.5297,40.9184 138.8457,40.9364 138.2187,40.8864 C133.2077,40.4924 128.1967,40.0864 123.1907,39.6314 C120.2977,39.3684 117.8047,40.2214 115.7777,42.2524 C114.5407,43.4914 113.4387,44.8734 112.3447,46.2464 C109.5787,49.7194 105.8307,51.3954 101.6877,52.7134 C97.0277,54.1944 93.6047,52.4844 90.4617,49.4104 C88.8057,47.7914 87.2057,46.1134 85.6207,44.4244 C82.9847,41.6134 78.8977,40.9294 75.8677,43.3404 C73.2697,45.4074 71.0717,47.9874 68.7687,50.4084 C66.7227,52.5584 64.3877,54.0704 61.3437,53.2914 C58.9467,52.6774 56.7407,51.5084 55.0897,49.5294 C54.0677,48.3034 53.0257,47.0934 52.0007,45.8684 C47.1157,40.0274 41.1667,41.6184 36.8417,46.4694 C35.9937,47.4214 35.3157,48.5224 34.5127,49.5174 C32.2007,52.3814 28.6637,52.8904 25.4947,51.0634 C21.9087,48.9954 19.9707,45.9524 19.9767,41.8774 C19.9817,37.5974 18.1937,33.9824 16.2777,30.3734 C14.9337,27.8404 13.2927,25.4394 13.0927,22.4444 C12.9397,20.1604 12.6727,17.8454 16.0037,17.3034" id="Fill-90" fill="#9CEDFF" class="icon__color"></path>
    </g>
</svg>
