<svg width="83px" height="54px" viewBox="120 564 83 54" version="1.1" xmlns="http://www.w3.org/2000/svg" xmlns:xlink="http://www.w3.org/1999/xlink">
    <defs></defs>
    <g id="Group-17" stroke="none" stroke-width="1" fill="none" fill-rule="evenodd" transform="translate(120.000000, 564.000000)">
        <path d="M7.5605,6.9316 C6.1765,8.3186 4.6295,9.4396 3.6505,10.9326 C1.0555,14.8896 2.1375,18.8896 4.0515,22.7646 C5.7835,26.2696 8.8105,28.6246 11.9275,30.6676 C16.0185,33.3486 17.9905,37.0886 18.7935,41.6916 C18.9725,42.7136 19.1635,43.7426 19.4665,44.7316 C21.3305,50.8156 27.2925,52.9756 32.6975,49.6686 C34.5875,48.5126 36.6245,47.5206 38.7105,46.7816 C41.4095,45.8266 44.0595,46.2736 46.4985,47.8606 C49.9395,50.1026 51.0235,49.9886 53.9865,47.0496 C56.5935,44.4626 59.1615,41.8366 61.7415,39.2216 C64.4635,36.4616 67.3955,35.0616 71.4205,36.6676 C74.8835,38.0486 77.4425,36.7226 79.0505,33.3316 C79.3235,32.7566 79.5325,32.1466 79.7095,31.5336 C80.9685,27.1556 80.6135,22.8476 79.1455,18.5806 C78.6415,17.1176 77.6675,16.1626 76.2885,15.5296 C71.7855,13.4646 67.5025,14.1076 63.5865,16.8666 C60.0535,19.3556 56.2305,21.0226 52.0525,21.9876 C48.6045,22.7846 47.4665,22.1286 46.5395,18.6346 C46.3165,17.7906 46.2475,16.9056 46.1115,16.0386 C45.9375,14.9346 45.8245,13.8166 45.5845,12.7276 C45.0995,10.5306 43.8185,9.1126 41.6145,8.3546 C37.7645,7.0306 33.8235,7.3306 29.9955,7.9026 C26.3305,8.4496 23.7805,7.3576 21.7475,4.4546 C20.0325,2.0056 19.1475,1.6156 16.2745,2.4926 C14.9535,2.8946 13.7725,3.7766 12.5495,4.4786 C11.9335,4.8326 11.3465,5.2446 10.7815,5.6766 C10.1205,6.1826 9.4995,6.7396 8.6455,7.4536 C8.6125,7.4386 8.2045,7.2416 7.5605,6.9316 M82.3185,25.4746 C82.2025,29.1576 81.7295,32.1856 80.1095,34.9916 C78.4945,37.7896 75.9915,38.9476 72.3585,38.4036 C72.1215,38.3676 71.8695,38.3416 71.6595,38.2396 C67.5845,36.2666 64.8725,38.3726 62.2465,41.1966 C59.6945,43.9416 57.0225,46.5876 54.2485,49.1066 C51.7605,51.3666 49.6425,51.5686 46.8365,49.6156 C43.2685,47.1326 39.8095,47.4196 36.2395,49.3386 C34.6205,50.2086 33.0485,51.1686 31.4695,52.1106 C29.7825,53.1176 28.0465,53.2236 26.1655,52.6806 C20.9665,51.1806 18.1275,47.7046 17.3925,42.4236 C17.0125,39.6916 16.4285,36.9636 14.5485,34.8996 C13.0115,33.2116 11.1255,31.8056 9.2615,30.4566 C6.0855,28.1566 3.5735,25.3496 1.8485,21.8186 C-0.8875,16.2176 0.7425,7.8256 8.2425,4.8206 C9.9295,4.1436 11.4765,3.1206 13.0995,2.2796 C13.9485,1.8406 14.7885,1.3386 15.6925,1.0596 C18.9175,0.0636 20.9225,0.5836 22.7795,3.3166 C24.6965,6.1386 26.9855,6.8876 30.3615,6.3456 C34.2815,5.7166 38.3105,5.7136 42.2175,7.0646 C44.9835,8.0216 46.6715,9.8216 47.2575,12.6326 C47.6165,14.3506 47.7565,16.1126 48.0885,17.8366 C48.6825,20.9136 49.1365,21.1326 52.0925,20.4656 C56.3885,19.4966 60.0665,17.2966 63.7655,15.0326 C67.8945,12.5046 72.2365,12.1966 76.8185,14.1226 C79.8045,15.3776 80.9325,17.7916 81.6395,20.5366 C82.0945,22.3016 82.1505,24.1696 82.3185,25.4746" id="Fill-110" fill="#000000"></path>
        <path d="M7.5605,6.9316 C8.2045,7.2416 8.6125,7.4386 8.6455,7.4536 C9.4995,6.7396 10.1205,6.1826 10.7815,5.6766 C11.3465,5.2446 11.9335,4.8326 12.5495,4.4786 C13.7725,3.7766 14.9535,2.8946 16.2745,2.4926 C19.1475,1.6156 20.0325,2.0056 21.7475,4.4546 C23.7805,7.3576 26.3305,8.4496 29.9955,7.9026 C33.8235,7.3306 37.7645,7.0306 41.6145,8.3546 C43.8185,9.1126 45.0995,10.5306 45.5845,12.7276 C45.8245,13.8166 45.9375,14.9346 46.1115,16.0386 C46.2475,16.9056 46.3165,17.7906 46.5395,18.6346 C47.4665,22.1286 48.6045,22.7846 52.0525,21.9876 C56.2305,21.0226 60.0535,19.3556 63.5865,16.8666 C67.5025,14.1076 71.7855,13.4646 76.2885,15.5296 C77.6675,16.1626 78.6415,17.1176 79.1455,18.5806 C80.6135,22.8476 80.9685,27.1556 79.7095,31.5336 C79.5325,32.1466 79.3235,32.7566 79.0505,33.3316 C77.4425,36.7226 74.8835,38.0486 71.4205,36.6676 C67.3955,35.0616 64.4635,36.4616 61.7415,39.2216 C59.1615,41.8366 56.5935,44.4626 53.9865,47.0496 C51.0235,49.9886 49.9395,50.1026 46.4985,47.8606 C44.0595,46.2736 41.4095,45.8266 38.7105,46.7816 C36.6245,47.5206 34.5875,48.5126 32.6975,49.6686 C27.2925,52.9756 21.3305,50.8156 19.4665,44.7316 C19.1635,43.7426 18.9725,42.7136 18.7935,41.6916 C17.9905,37.0886 16.0185,33.3486 11.9275,30.6676 C8.8105,28.6246 5.7835,26.2696 4.0515,22.7646 C2.1375,18.8896 1.0555,14.8896 3.6505,10.9326 C4.6295,9.4396 6.1765,8.3186 7.5605,6.9316" id="Fill-112" fill="#9CEDFF" class="icon__color"></path>
    </g>
</svg>
