<svg width="70px" height="24px" viewBox="458 418 70 24" version="1.1" xmlns="http://www.w3.org/2000/svg" xmlns:xlink="http://www.w3.org/1999/xlink">
    <defs></defs>
    <g id="Group-28" stroke="none" stroke-width="1" fill="none" fill-rule="evenodd" transform="translate(458.000000, 418.000000)">
        <path d="M58.8219,18.7625 C55.6189,17.3245 52.7519,16.1385 49.9849,14.7525 C48.5719,14.0455 47.3489,12.9625 46.0209,12.0785 C42.3579,9.6405 38.8229,9.8855 35.4169,12.6165 C35.1049,12.8655 34.7689,13.0845 34.4559,13.3325 C32.5129,14.8695 32.1899,14.8595 30.5129,13.1465 C30.0659,12.6895 29.5899,12.2475 29.2249,11.7285 C26.9809,8.5355 23.9049,6.2305 20.8609,3.9045 C17.3369,1.2115 13.5669,1.0605 10.0159,3.6875 C5.9029,6.7315 3.1219,10.6395 2.5599,15.9615 C2.1389,19.9485 2.3349,20.4665 6.1959,21.4805 C6.5819,21.5825 6.9699,21.7345 7.3609,21.7465 C11.1079,21.8645 14.8579,22.0735 18.6039,22.0275 C23.4699,21.9675 28.3329,21.6235 33.1999,21.5375 C40.4709,21.4075 47.6979,20.7955 54.8909,19.7775 C56.1319,19.6015 57.3349,19.1545 58.8219,18.7625 M31.8039,12.9205 C34.1079,11.5625 35.6369,10.5365 37.2739,9.7265 C39.7939,8.4795 42.3719,8.5185 44.8689,9.8695 C46.0619,10.5145 47.2989,11.1265 48.3649,11.9495 C53.5299,15.9375 59.4749,17.3675 65.8549,17.5165 C67.1339,17.5465 68.5899,17.0315 69.8479,18.6435 C69.1189,18.8625 68.5829,19.0845 68.0249,19.1805 C64.4139,19.8015 60.8039,20.4355 57.1819,20.9885 C53.4759,21.5535 49.7709,22.2945 46.0409,22.4955 C37.1969,22.9705 28.3399,23.2665 19.4849,23.4415 C15.3419,23.5235 11.1479,23.4535 7.0559,22.8835 C4.6319,22.5455 2.3619,21.0985 0.0919,20.1775 C0.7149,17.2825 0.9699,14.6185 1.8779,12.2005 C3.5919,7.6405 6.2469,3.6545 10.8019,1.4075 C14.4409,-0.3875 17.9899,0.1345 21.2019,2.4935 C24.4819,4.9025 27.7839,7.3165 30.1819,10.7045 C30.7319,11.4815 31.3059,12.2405 31.8039,12.9205" id="Fill-134" fill="#000000"></path>
        <path d="M58.8219,18.7625 C57.3349,19.1545 56.1319,19.6015 54.8909,19.7775 C47.6979,20.7955 40.4709,21.4075 33.1999,21.5375 C28.3329,21.6235 23.4699,21.9675 18.6039,22.0275 C14.8579,22.0735 11.1079,21.8645 7.3609,21.7465 C6.9699,21.7345 6.5819,21.5825 6.1959,21.4805 C2.3349,20.4665 2.1389,19.9485 2.5599,15.9615 C3.1219,10.6395 5.9029,6.7315 10.0159,3.6875 C13.5669,1.0605 17.3369,1.2115 20.8609,3.9045 C23.9049,6.2305 26.9809,8.5355 29.2249,11.7285 C29.5899,12.2475 30.0659,12.6895 30.5129,13.1465 C32.1899,14.8595 32.5129,14.8695 34.4559,13.3325 C34.7689,13.0845 35.1049,12.8655 35.4169,12.6165 C38.8229,9.8855 42.3579,9.6405 46.0209,12.0785 C47.3489,12.9625 48.5719,14.0455 49.9849,14.7525 C52.7519,16.1385 55.6189,17.3245 58.8219,18.7625" id="Fill-136" fill="#9CEDFF" class="icon__color"></path>
    </g>
</svg>
