<svg width="41px" height="54px" viewBox="209 527 41 54" version="1.1" xmlns="http://www.w3.org/2000/svg" xmlns:xlink="http://www.w3.org/1999/xlink">
    <defs></defs>
    <g id="Group-21" stroke="none" stroke-width="1" fill="none" fill-rule="evenodd" transform="translate(209.000000, 527.000000)">
        <path d="M10.5103,47.3866 C10.8863,47.2566 11.2803,47.1646 11.6343,46.9896 C15.0583,45.2946 18.4603,43.5526 21.9003,41.8906 C24.8723,40.4546 26.6913,41.5966 26.8293,44.9246 C26.8553,45.5616 26.7453,46.2026 26.7673,46.8396 C26.8103,48.1146 26.8043,49.4056 27.0193,50.6546 C27.1063,51.1626 27.7423,51.9756 28.0823,51.9526 C28.6773,51.9126 29.4423,51.4606 29.7553,50.9486 C30.0963,50.3916 30.1093,49.5646 30.0823,48.8626 C29.9853,46.3936 29.8963,43.9186 29.6433,41.4626 C29.3013,38.1446 29.8633,36.9066 32.8073,35.2156 C33.0843,35.0566 33.4093,34.9606 33.6483,34.7596 C35.4313,33.2566 37.5833,32.0856 38.5353,29.5996 C36.8453,28.8916 35.8253,29.7676 34.7713,30.6326 C31.3703,33.4226 28.5323,32.5566 27.0893,28.4386 C25.7493,24.6136 26.6883,21.2136 28.7183,17.9626 C29.9003,16.0666 31.1723,14.2266 32.3433,12.3256 C32.5843,11.9346 32.5593,11.3816 32.6923,10.7316 C30.9673,11.2476 29.4983,11.6236 28.0743,12.1266 C25.1023,13.1766 23.6373,15.2736 23.5083,18.4656 C23.4763,19.2576 23.4733,20.0806 23.2543,20.8306 C22.7373,22.6026 21.4613,23.0356 19.9453,21.9866 C18.2223,20.7936 17.6173,19.0836 17.5753,17.0186 C17.5173,14.1026 17.2853,11.1896 17.1273,8.2756 C16.9263,8.2496 16.7243,8.2226 16.5233,8.1956 C15.3833,10.7866 14.6993,13.5406 14.0013,16.2846 C13.4303,18.5296 13.8463,20.6866 14.5473,22.8636 C15.6063,26.1506 17.7193,28.7336 19.8273,31.3456 C20.2343,31.8496 20.5393,32.4366 20.8963,32.9946 C19.5333,33.9506 18.5943,33.3326 17.7493,32.7926 C16.0003,31.6746 14.2833,30.5006 12.6203,29.2586 C10.7033,27.8256 8.9283,26.1956 6.9613,24.8396 C5.5193,23.8456 3.8673,23.1566 1.8493,22.0876 C2.6083,25.0326 4.1123,26.5716 6.0423,27.8116 C8.1903,29.1926 10.3523,30.5576 12.4273,32.0426 C14.0473,33.2006 15.5403,34.5376 17.1043,35.7756 C17.2743,35.9096 17.5443,35.9186 17.7273,35.9726 C18.3433,35.5796 18.9083,35.2176 19.5793,34.7876 C20.2783,35.9856 20.3223,36.8656 19.7873,38.0436 C18.5093,40.8566 16.4723,42.8576 13.9613,44.5356 C12.7273,45.3596 11.6683,46.4436 10.5293,47.4096 C10.4703,47.4466 10.4113,47.4846 10.3513,47.5216 L10.5103,47.3866 M37.8053,5.4506 C38.0433,7.3416 37.0113,8.2196 36.3513,9.2286 C34.0793,12.6986 31.6563,16.0756 29.5243,19.6276 C28.0533,22.0766 27.5033,24.7786 28.4633,27.6856 C29.5193,30.8866 31.1053,31.5326 33.7023,29.3896 C35.8613,27.6086 38.0263,27.1986 40.5833,28.5756 C40.5943,30.1806 39.8173,31.3856 38.7353,32.3266 C37.0543,33.7886 35.3683,35.3086 33.4653,36.4336 C31.5993,37.5376 30.9473,38.8736 31.1903,40.9566 C31.4673,43.3336 31.6353,45.7346 31.6503,48.1256 C31.6583,49.3736 31.3963,50.6836 30.9643,51.8586 C30.4783,53.1846 29.0753,53.8676 27.8813,53.6366 C26.5093,53.3706 25.8993,52.4776 25.7723,51.1066 C25.5753,48.9786 25.2703,46.8606 25.0443,44.7356 C24.8563,42.9736 24.1133,42.4026 22.5043,43.1586 C19.2513,44.6886 16.0703,46.3716 12.8553,47.9826 C11.7853,48.5186 10.7303,49.1096 9.6113,49.5166 C8.9293,49.7656 8.1373,49.7126 6.9793,49.8416 C7.7573,47.4456 9.0033,46.0226 10.6243,44.8006 C12.5943,43.3166 14.6053,41.8496 16.3693,40.1386 C18.0573,38.5016 17.9023,38.0406 15.9503,36.6056 C12.0973,33.7736 8.2103,30.9886 4.3713,28.1376 C2.0403,26.4066 0.4193,24.1846 0.1403,21.1926 C0.0863,20.6086 0.2373,20.0066 0.3153,19.1866 C6.3183,22.3496 11.4203,26.2856 16.5893,30.0596 C15.4983,27.9656 14.3143,25.9126 13.3373,23.7656 C12.0403,20.9176 11.8633,18.0106 12.6603,14.8886 C13.8693,10.1506 15.5213,5.7436 19.1883,2.3216 C20.1173,1.4546 21.0653,0.6976 22.9403,0.5006 C22.3943,1.3506 22.2073,1.8416 21.8593,2.1516 C18.8783,4.8066 17.8983,7.9976 18.9303,11.8916 C19.2503,13.0976 19.1023,14.4246 19.1873,15.6946 C19.2613,16.8056 19.1923,17.9666 19.5073,19.0086 C19.7183,19.7026 20.4933,20.2266 21.0153,20.8266 C21.1983,20.7546 21.3813,20.6826 21.5633,20.6106 C21.6643,19.9406 21.9163,19.2536 21.8413,18.6036 C21.3983,14.7196 24.1033,12.2426 27.6213,10.7266 C28.4953,10.3496 29.4623,10.1926 30.3673,9.8806 C32.1873,9.2516 33.9333,8.5246 35.3193,7.0716 C35.9163,6.4456 36.7983,6.0906 37.8053,5.4506" id="Fill-104" fill="#000000"></path>
        <path d="M10.5296,47.4096 C11.6676,46.4436 12.7276,45.3596 13.9606,44.5356 C16.4726,42.8576 18.5096,40.8566 19.7866,38.0436 C20.3216,36.8656 20.2786,35.9856 19.5796,34.7876 C18.9086,35.2176 18.3436,35.5796 17.7276,35.9726 C17.5446,35.9186 17.2746,35.9096 17.1046,35.7756 C15.5406,34.5376 14.0476,33.2006 12.4276,32.0426 C10.3516,30.5576 8.1906,29.1926 6.0426,27.8116 C4.1126,26.5716 2.6076,25.0326 1.8496,22.0876 C3.8676,23.1566 5.5196,23.8456 6.9616,24.8396 C8.9286,26.1956 10.7036,27.8256 12.6206,29.2586 C14.2826,30.5006 16.0006,31.6746 17.7486,32.7926 C18.5946,33.3326 19.5336,33.9506 20.8966,32.9946 C20.5386,32.4366 20.2346,31.8496 19.8276,31.3456 C17.7196,28.7336 15.6066,26.1506 14.5476,22.8636 C13.8466,20.6866 13.4306,18.5296 14.0016,16.2846 C14.6996,13.5406 15.3826,10.7866 16.5236,8.1956 C16.7246,8.2226 16.9256,8.2496 17.1266,8.2756 C17.2846,11.1896 17.5176,14.1026 17.5756,17.0186 C17.6166,19.0836 18.2226,20.7936 19.9456,21.9866 C21.4616,23.0356 22.7376,22.6026 23.2546,20.8306 C23.4726,20.0806 23.4766,19.2576 23.5086,18.4656 C23.6376,15.2736 25.1026,13.1766 28.0746,12.1266 C29.4986,11.6236 30.9666,11.2476 32.6926,10.7316 C32.5596,11.3816 32.5846,11.9346 32.3436,12.3256 C31.1716,14.2266 29.9006,16.0666 28.7176,17.9626 C26.6886,21.2136 25.7486,24.6136 27.0896,28.4386 C28.5326,32.5566 31.3706,33.4226 34.7716,30.6326 C35.8256,29.7676 36.8456,28.8916 38.5346,29.5996 C37.5826,32.0856 35.4316,33.2566 33.6486,34.7596 C33.4096,34.9606 33.0836,35.0566 32.8066,35.2156 C29.8636,36.9066 29.3016,38.1446 29.6436,41.4626 C29.8966,43.9186 29.9856,46.3936 30.0816,48.8626 C30.1096,49.5646 30.0966,50.3916 29.7556,50.9486 C29.4416,51.4606 28.6776,51.9126 28.0816,51.9526 C27.7426,51.9756 27.1066,51.1626 27.0196,50.6546 C26.8046,49.4056 26.8106,48.1146 26.7666,46.8396 C26.7456,46.2026 26.8556,45.5616 26.8296,44.9246 C26.6906,41.5966 24.8726,40.4546 21.9006,41.8906 C18.4606,43.5526 15.0586,45.2946 11.6346,46.9896 C11.2806,47.1646 10.8856,47.2566 10.5106,47.3866 L10.5296,47.4096 Z" id="Fill-106" fill="#9CEDFF" class="icon__color"></path>
    </g>
</svg>
