<svg width="75px" height="92px" viewBox="28 591 75 92" version="1.1" xmlns="http://www.w3.org/2000/svg" xmlns:xlink="http://www.w3.org/1999/xlink">
    <defs>
        <polygon id="path-1" points="0 0.493666989 0 90.9995 74.4421835 90.9995 74.4421835 0.493666989 0 0.493666989"></polygon>
    </defs>
    <g id="Group-18" stroke="none" stroke-width="1" fill="none" fill-rule="evenodd" transform="translate(28.000000, 591.000000)">
        <g id="Group-15" transform="translate(0.000000, 0.452000)">
            <mask id="mask-2" fill="white">
                <use xlink:href="#path-1"></use>
            </mask>
            <g id="Clip-14"></g>
            <path d="M53.8318,7.0975 C52.4048,8.7995 50.8178,9.5355 48.8298,9.4385 C46.8948,9.3445 45.3188,8.4845 43.8078,7.3845 C42.2588,6.2575 40.8208,4.7815 39.0828,4.1445 C32.7788,1.8345 26.3598,0.9025 20.0308,4.1625 C17.6898,5.3685 15.4258,6.7255 13.1268,8.0145 C10.6398,9.4075 8.8688,9.1515 6.8868,7.1435 C6.4048,6.6555 5.8638,6.2275 5.1988,5.6375 C4.5028,6.8935 4.0188,7.9905 3.3328,8.9435 C2.6018,9.9585 2.6898,10.7485 3.3798,11.7475 C4.3758,13.1885 5.2698,14.7115 6.0828,16.2645 C7.7378,19.4245 7.4778,22.5775 5.8628,25.6875 C5.5898,26.2125 5.3958,26.7795 5.1598,27.3395 C6.1768,27.7465 7.1108,27.8955 7.7498,28.4115 C13.1658,32.7805 14.9598,36.1555 13.4958,42.2115 C13.2708,43.1425 13.0108,44.0695 12.6908,44.9715 C12.1028,46.6285 11.3948,48.2455 10.8468,49.9145 C8.9288,55.7515 9.5418,61.0785 14.0288,65.6515 C16.3458,68.0145 18.9498,69.9565 21.8468,71.5365 C27.3778,74.5525 31.8278,78.6935 34.9248,84.2195 C35.5358,85.3095 36.0958,86.4265 36.7898,87.7395 C37.3778,87.1055 37.8508,86.6955 38.2038,86.2005 C40.6508,82.7705 44.1148,80.9195 48.0478,79.7765 C53.0268,78.3305 58.0268,76.9535 62.9768,75.4135 C68.5668,73.6745 71.1848,69.2905 72.3448,63.9715 C73.3748,59.2485 71.2838,55.1475 68.8128,51.3665 C65.6698,46.5605 63.7648,41.2235 61.7018,35.9485 C61.1878,34.6355 61.0388,33.1585 60.8618,31.7395 C60.7038,30.4785 61.1058,29.3525 62.2708,28.6505 C62.6728,28.4075 63.1208,28.2425 63.7208,27.9595 C62.5658,26.8805 61.9328,26.2865 61.2978,25.6955 C58.9528,23.5145 57.5158,20.9335 57.9158,17.6235 C58.1358,15.8035 58.5198,14.0045 58.7758,12.1885 C58.9198,11.1665 59.1318,10.0735 57.9698,9.4155 C56.6568,8.6725 55.3368,7.9405 53.8318,7.0975 M63.3258,7.7695 C63.3258,8.4745 63.5138,9.2475 63.2868,9.8685 C62.8328,11.1055 63.2488,11.7775 64.2588,12.4585 C65.2788,13.1475 66.1548,14.0485 67.0948,14.8575 C66.9748,15.0685 66.8548,15.2795 66.7348,15.4905 C65.9558,15.1445 65.1408,14.8615 64.4048,14.4415 C62.3638,13.2775 61.4318,13.5395 60.4458,15.6435 C59.0288,18.6675 59.6478,21.6525 62.1768,23.8695 C62.7758,24.3945 63.4078,24.8885 64.0638,25.3415 C66.2228,26.8335 66.1938,28.2455 63.8378,29.6005 C62.8738,30.1545 62.4108,30.8505 62.4828,31.9035 C62.5358,32.6945 62.5458,33.5305 62.8128,34.2585 C64.7928,39.6545 66.7588,45.0545 69.8398,49.9695 C71.1098,51.9965 72.2668,54.1185 73.2378,56.3015 C75.4538,61.2795 74.4198,65.9835 71.6998,70.4615 C69.2728,74.4545 65.6798,76.7125 61.1478,77.6745 C59.1208,78.1045 57.1448,78.7825 55.1508,79.3645 C52.8528,80.0345 50.5468,80.6775 48.2688,81.4125 C44.3718,82.6685 40.9378,84.5755 38.8338,88.3165 C38.3748,89.1315 37.7558,89.8575 36.9438,90.9995 C36.2458,89.8445 35.7308,89.0115 35.2348,88.1675 C33.9018,85.8965 32.6688,83.5625 31.2308,81.3615 C28.2838,76.8515 23.6468,74.3885 19.2528,71.6075 C17.0398,70.2065 14.9318,68.5795 12.9958,66.8145 C8.6848,62.8865 7.6918,57.8085 8.7458,52.3225 C9.2238,49.8385 10.3258,47.4775 11.1108,45.0485 C11.4778,43.9125 11.7888,42.7565 12.0818,41.5985 C13.2138,37.1335 11.6728,33.6245 8.2098,30.7915 C6.6268,29.4975 5.9358,29.2415 2.4708,28.9935 C2.6578,28.4645 2.7218,27.9175 3.0058,27.5335 C7.4178,21.5855 5.8168,16.8525 1.3838,12.0935 C-0.4702,10.1025 -0.4372,10.1505 1.3368,8.0645 C2.1508,7.1065 2.8128,6.0015 3.4338,4.9005 C4.2268,3.4965 4.6308,3.3285 6.0518,4.2095 C6.5868,4.5415 7.0788,4.9645 7.5278,5.4095 C9.7888,7.6515 10.5438,7.6255 13.3638,6.0155 C16.1988,4.3965 19.1558,2.9775 22.1148,1.5895 C25.3698,0.0635 28.8308,0.4955 32.2628,0.7545 C36.9648,1.1105 41.0318,2.9465 44.6808,5.8665 C45.4808,6.5065 46.3908,7.0805 47.3418,7.4475 C49.1098,8.1285 50.7168,7.9755 52.0948,6.3695 C53.5868,4.6295 53.6438,4.7355 55.5678,6.0855 C56.5438,6.7705 57.6288,7.3005 58.6608,7.9055 C60.0698,8.7305 61.4628,9.2595 62.7578,7.3865 C62.9468,7.5145 63.1368,7.6415 63.3258,7.7695" id="Fill-13" fill="#000000" mask="url(#mask-2)"></path>
        </g>
        <path d="M53.8318,7.5495 C55.3368,8.3925 56.6568,9.1245 57.9698,9.8675 C59.1318,10.5255 58.9198,11.6185 58.7758,12.6405 C58.5198,14.4565 58.1358,16.2555 57.9158,18.0755 C57.5158,21.3855 58.9528,23.9665 61.2978,26.1475 C61.9328,26.7385 62.5658,27.3325 63.7208,28.4115 C63.1208,28.6945 62.6728,28.8595 62.2708,29.1025 C61.1058,29.8045 60.7038,30.9305 60.8618,32.1915 C61.0388,33.6105 61.1878,35.0875 61.7018,36.4005 C63.7648,41.6755 65.6698,47.0125 68.8128,51.8185 C71.2838,55.5995 73.3748,59.7005 72.3448,64.4235 C71.1848,69.7425 68.5668,74.1265 62.9768,75.8655 C58.0268,77.4055 53.0268,78.7825 48.0478,80.2285 C44.1148,81.3715 40.6508,83.2225 38.2038,86.6525 C37.8508,87.1475 37.3778,87.5575 36.7898,88.1915 C36.0958,86.8785 35.5358,85.7615 34.9248,84.6715 C31.8278,79.1455 27.3778,75.0045 21.8468,71.9885 C18.9498,70.4085 16.3458,68.4665 14.0288,66.1035 C9.5418,61.5305 8.9288,56.2035 10.8468,50.3665 C11.3948,48.6975 12.1028,47.0805 12.6908,45.4235 C13.0108,44.5215 13.2708,43.5945 13.4958,42.6635 C14.9598,36.6075 13.1658,33.2325 7.7498,28.8635 C7.1108,28.3475 6.1768,28.1985 5.1598,27.7915 C5.3958,27.2315 5.5898,26.6645 5.8628,26.1395 C7.4778,23.0295 7.7378,19.8765 6.0828,16.7165 C5.2698,15.1635 4.3758,13.6405 3.3798,12.1995 C2.6898,11.2005 2.6018,10.4105 3.3328,9.3955 C4.0188,8.4425 4.5028,7.3455 5.1988,6.0895 C5.8638,6.6795 6.4048,7.1075 6.8868,7.5955 C8.8688,9.6035 10.6398,9.8595 13.1268,8.4665 C15.4258,7.1775 17.6898,5.8205 20.0308,4.6145 C26.3598,1.3545 32.7788,2.2865 39.0828,4.5965 C40.8208,5.2335 42.2588,6.7095 43.8078,7.8365 C45.3188,8.9365 46.8948,9.7965 48.8298,9.8905 C50.8178,9.9875 52.4048,9.2515 53.8318,7.5495" id="Fill-16" fill="#9CEDFF" class="icon__color"></path>
    </g>
</svg>
