<svg width="37px" height="41px" viewBox="441 485 37 41" version="1.1" xmlns="http://www.w3.org/2000/svg" xmlns:xlink="http://www.w3.org/1999/xlink">
    <defs></defs>
    <g id="Group-2" stroke="none" stroke-width="1" fill="none" fill-rule="evenodd" transform="translate(441.000000, 485.000000)">
        <path d="M1.8636,19.4578 C2.8966,27.7748 7.1346,34.3008 14.5306,38.7268 C15.3816,39.2358 16.8506,39.4198 17.7306,39.0448 C20.7216,37.7688 24.0236,36.6838 26.3966,34.6018 C32.3466,29.3808 35.2696,22.6358 34.4546,14.5408 C33.7046,7.0988 28.1616,3.3588 21.4716,2.1668 C18.8936,1.7078 16.0696,2.2028 13.4266,2.6588 C11.1656,3.0488 8.9526,3.8878 7.5536,6.0158 C6.7386,7.2568 5.9586,8.5828 4.8946,9.5878 C2.0636,12.2618 2.3296,15.7888 1.8636,19.4578 M18.2306,0.4188 C22.4616,-0.1752 26.0626,1.5598 29.5616,3.5578 C34.1636,6.1858 35.9436,10.5588 36.4726,15.5078 C37.0096,20.5338 35.2926,25.0668 33.0206,29.4638 C30.0366,35.2418 25.0706,38.4418 19.1626,40.5068 C17.4166,41.1168 15.6176,41.2188 14.0776,40.1948 C11.8996,38.7468 9.6296,37.2948 7.8496,35.4168 C2.7146,29.9978 -0.2054,23.6678 0.3376,15.9358 C0.8356,8.8438 8.8706,-0.3122 17.0326,0.4138 C17.4286,0.4488 17.8306,0.4188 18.2306,0.4188" id="Fill-38" fill="#000000"></path>
        <path d="M1.8636,19.4578 C2.3296,15.7888 2.0636,12.2618 4.8946,9.5878 C5.9586,8.5828 6.7386,7.2568 7.5536,6.0158 C8.9526,3.8878 11.1656,3.0488 13.4266,2.6588 C16.0696,2.2028 18.8936,1.7078 21.4716,2.1668 C28.1616,3.3588 33.7046,7.0988 34.4546,14.5408 C35.2696,22.6358 32.3466,29.3808 26.3966,34.6018 C24.0236,36.6838 20.7216,37.7688 17.7306,39.0448 C16.8506,39.4198 15.3816,39.2358 14.5306,38.7268 C7.1346,34.3008 2.8966,27.7748 1.8636,19.4578" id="Fill-40" fill="#9CEDFF" class="icon__color"></path>
    </g>
</svg>
