<svg width="54px" height="78px" viewBox="134 430 54 78" version="1.1" xmlns="http://www.w3.org/2000/svg" xmlns:xlink="http://www.w3.org/1999/xlink">
    <defs></defs>
    <g id="Group-20" stroke="none" stroke-width="1" fill="none" fill-rule="evenodd" transform="translate(134.000000, 430.000000)">
        <path d="M32.8505,26.406 C33.0175,26.542 33.1835,26.677 33.3505,26.813 C33.1265,27.345 32.9275,27.889 32.6745,28.407 C31.8035,30.185 30.6945,31.881 30.0755,33.741 C28.5875,38.212 27.3045,42.752 25.9795,47.275 C23.5865,55.441 22.8535,63.744 24.0605,72.185 C24.1935,73.119 24.4905,74.051 24.8665,74.917 C25.0135,75.257 25.6045,75.63 25.9565,75.597 C26.3335,75.561 26.8675,75.126 26.9795,74.758 C27.2075,74.011 27.2635,73.193 27.2755,72.402 C27.3615,66.974 27.1365,61.548 28.2715,56.16 C29.4665,50.486 30.9845,44.946 34.2645,40.111 C35.6815,38.022 37.6415,36.306 39.3115,34.382 C42.2425,31.005 45.1675,27.621 48.0305,24.186 C48.7345,23.341 49.3725,22.348 49.7185,21.316 C50.5045,18.974 51.2275,16.593 51.7195,14.176 C52.2785,11.429 51.3165,9.015 49.6415,6.797 C46.9175,3.191 43.2105,1.593 38.8525,1.673 C36.5065,1.716 34.0085,1.21 31.7995,2.493 C29.3735,3.902 26.8385,5.188 24.6355,6.894 C22.7015,8.392 21.1305,10.37 19.4555,12.188 C18.2735,13.471 16.9715,14.715 16.0965,16.197 C13.8675,19.973 11.9095,23.907 9.7285,27.711 C7.5865,31.445 6.2615,35.412 5.7215,39.674 C5.4105,42.13 5.1205,44.605 4.5575,47.01 C3.4265,51.84 2.2765,56.656 2.5005,61.661 C2.6105,64.136 2.6855,66.635 3.1125,69.064 C3.3945,70.666 4.1255,72.248 4.9365,73.678 C5.6245,74.889 6.8695,75.231 8.3495,74.552 C8.2885,73.951 8.2685,73.407 8.1735,72.876 C7.5675,69.485 7.1865,66.093 7.5245,62.631 C7.8105,59.69 7.8085,56.719 8.1425,53.785 C8.5485,50.222 8.7525,46.553 9.8065,43.167 C11.1985,38.694 13.3395,34.455 15.1435,30.109 C16.4745,26.904 18.1975,23.988 20.7575,21.564 C22.9585,19.481 24.9295,17.155 27.1185,15.058 C28.1425,14.078 29.4095,13.334 30.6305,12.589 C31.0265,12.348 31.6295,12.447 32.4975,12.35 C31.7415,14.909 30.5635,16.872 29.2405,18.733 C25.4575,24.056 22.6445,29.822 20.6635,36.058 C19.5815,39.463 18.2735,42.811 16.1955,45.836 C15.0495,47.506 14.1975,49.517 13.7545,51.496 C13.2005,53.97 13.1495,56.564 12.9825,59.113 C12.8365,61.345 12.9915,63.606 12.7215,65.819 C12.3675,68.716 13.4615,71.323 13.9835,74.047 C14.0695,74.494 14.3305,74.908 14.6185,75.595 C16.1595,73.264 16.2805,71.426 16.2305,69.605 C16.1015,64.988 16.7225,60.461 18.3805,56.188 C20.0675,51.839 21.1955,47.359 22.2685,42.852 C23.6855,36.896 27.0555,32.099 31.1185,27.706 C31.6015,27.185 32.2685,26.835 32.8505,26.406 M28.0905,34.143 C24.7745,38.042 23.7725,42.478 22.7095,46.901 C22.1895,49.064 21.7615,51.289 20.8995,53.32 C18.4205,59.166 17.4765,65.258 17.3995,71.549 C17.3865,72.642 17.2065,73.812 16.7645,74.793 C16.4565,75.477 15.6305,76.237 14.9265,76.366 C13.7535,76.58 12.9995,75.577 12.7335,74.545 C12.2185,72.538 11.5535,70.485 11.5435,68.448 C11.5185,63.344 11.6665,58.225 12.0565,53.136 C12.2815,50.191 13.5675,47.536 15.0725,44.9 C16.9945,41.533 18.4665,37.863 19.7495,34.19 C21.3945,29.481 23.5955,25.091 26.2425,20.897 C27.3315,19.172 28.4525,17.468 29.5595,15.755 C29.4425,15.651 29.3255,15.547 29.2085,15.444 C28.7845,15.725 28.2955,15.942 27.9465,16.298 C25.8775,18.407 23.9525,20.669 21.7685,22.648 C18.7575,25.376 17.0595,28.841 15.5615,32.487 C14.7745,34.402 13.8775,36.273 12.9865,38.142 C10.8185,42.687 9.9255,47.553 9.4695,52.5 C9.1115,56.392 8.8085,60.306 8.8155,64.209 C8.8205,67.143 9.3475,70.077 9.6645,73.008 C9.7735,74.017 10.3845,75.306 9.2525,75.843 C8.3615,76.265 7.0065,76.308 6.0855,75.944 C3.7925,75.037 2.3775,73.105 1.8945,70.738 C0.9315,66.027 0.3565,61.23 1.0885,56.447 C2.1015,49.817 3.4565,43.241 4.5215,36.618 C5.0025,33.628 6.2425,30.981 7.5615,28.336 C9.0585,25.332 10.5265,22.309 12.1415,19.368 C16.2505,11.886 21.9975,6.05 29.7005,2.234 C30.7745,1.702 31.7915,0.875 32.9215,0.678 C35.0005,0.315 37.1465,0.176 39.2595,0.219 C40.8355,0.252 42.4035,0.715 43.9745,0.991 C44.2885,1.046 44.6395,1.052 44.9045,1.202 C49.3615,3.725 55.2105,8.828 52.9615,15.852 C52.2805,17.976 51.7415,20.151 50.9525,22.232 C50.5375,23.326 49.8375,24.366 49.0695,25.261 C45.1305,29.853 41.1905,34.447 37.1275,38.929 C33.7375,42.67 32.0965,47.238 30.7485,51.918 C29.0775,57.717 28.6055,63.685 28.7765,69.718 C28.8245,71.383 28.5695,73.06 28.4075,74.727 C28.2735,76.103 27.4015,76.893 26.1145,77.155 C24.8595,77.41 24.1655,76.486 23.6935,75.575 C23.1865,74.599 22.7135,73.516 22.5995,72.44 C21.7765,64.686 21.8405,56.98 23.9935,49.39 C25.3855,44.479 26.6475,39.532 28.0905,34.143" id="Fill-84" fill="#000000"></path>
        <path d="M32.8505,26.406 C32.2685,26.835 31.6015,27.185 31.1185,27.706 C27.0555,32.099 23.6855,36.896 22.2685,42.852 C21.1955,47.359 20.0675,51.839 18.3805,56.188 C16.7225,60.461 16.1015,64.988 16.2305,69.605 C16.2805,71.426 16.1595,73.264 14.6185,75.595 C14.3305,74.908 14.0695,74.494 13.9835,74.047 C13.4615,71.323 12.3675,68.716 12.7215,65.819 C12.9915,63.606 12.8365,61.345 12.9825,59.113 C13.1495,56.564 13.2005,53.97 13.7545,51.496 C14.1975,49.517 15.0495,47.506 16.1955,45.836 C18.2735,42.811 19.5815,39.463 20.6635,36.058 C22.6445,29.822 25.4575,24.056 29.2405,18.733 C30.5635,16.872 31.7415,14.909 32.4975,12.35 C31.6295,12.447 31.0265,12.348 30.6305,12.589 C29.4095,13.334 28.1425,14.078 27.1185,15.058 C24.9295,17.155 22.9585,19.481 20.7575,21.564 C18.1975,23.988 16.4745,26.904 15.1435,30.109 C13.3395,34.455 11.1985,38.694 9.8065,43.167 C8.7525,46.553 8.5485,50.222 8.1425,53.785 C7.8085,56.719 7.8105,59.69 7.5245,62.631 C7.1865,66.093 7.5675,69.485 8.1735,72.876 C8.2685,73.407 8.2885,73.951 8.3495,74.552 C6.8695,75.231 5.6245,74.889 4.9365,73.678 C4.1255,72.248 3.3945,70.666 3.1125,69.064 C2.6855,66.635 2.6105,64.136 2.5005,61.661 C2.2765,56.656 3.4265,51.84 4.5575,47.01 C5.1205,44.605 5.4105,42.13 5.7215,39.674 C6.2615,35.412 7.5865,31.445 9.7285,27.711 C11.9095,23.907 13.8675,19.973 16.0965,16.197 C16.9715,14.715 18.2735,13.471 19.4555,12.188 C21.1305,10.37 22.7015,8.392 24.6355,6.894 C26.8385,5.188 29.3735,3.902 31.7995,2.493 C34.0085,1.21 36.5065,1.716 38.8525,1.673 C43.2105,1.593 46.9175,3.191 49.6415,6.797 C51.3165,9.015 52.2785,11.429 51.7195,14.176 C51.2275,16.593 50.5045,18.974 49.7185,21.316 C49.3725,22.348 48.7345,23.341 48.0305,24.186 C45.1675,27.621 42.2425,31.005 39.3115,34.382 C37.6415,36.306 35.6815,38.022 34.2645,40.111 C30.9845,44.946 29.4665,50.486 28.2715,56.16 C27.1365,61.548 27.3615,66.974 27.2755,72.402 C27.2635,73.193 27.2075,74.011 26.9795,74.758 C26.8675,75.126 26.3335,75.561 25.9565,75.597 C25.6045,75.63 25.0135,75.257 24.8665,74.917 C24.4905,74.051 24.1935,73.119 24.0605,72.185 C22.8535,63.744 23.5865,55.441 25.9795,47.275 C27.3045,42.752 28.5875,38.212 30.0755,33.741 C30.6945,31.881 31.8035,30.185 32.6745,28.407 C32.9275,27.889 33.1265,27.345 33.3505,26.813 C33.1835,26.677 33.0175,26.542 32.8505,26.406" id="Fill-86" fill="#9CEDFF" class="icon__color"></path>
    </g>
</svg>
