<svg width="45px" height="36px" viewBox="570 568 45 36" version="1.1" xmlns="http://www.w3.org/2000/svg" xmlns:xlink="http://www.w3.org/1999/xlink">
    <defs></defs>
    <g id="Group-31" stroke="none" stroke-width="1" fill="none" fill-rule="evenodd" transform="translate(570.000000, 568.000000)">
        <g id="Group-11">
            <path d="M19.2194,16.0871 L19.2194,2.1941 C14.6364,2.8611 10.3144,3.4851 5.9934,4.1231 C4.8854,4.2871 3.7554,4.3761 3.5144,5.8741 C3.1984,7.8411 3.4984,8.7791 5.0404,9.7451 C5.6454,10.1241 6.3004,10.4281 6.9534,10.7211 C10.5164,12.3211 14.0844,13.9111 17.6544,15.4941 C18.1434,15.7111 18.6564,15.8751 19.2194,16.0871 M2.1684,31.8711 C8.8374,28.2371 13.0144,22.4821 18.3844,18.0431 C15.9814,15.9681 5.3644,11.0961 2.8544,10.9861 C2.6314,17.7991 2.4074,24.6081 2.1684,31.8711 M21.3554,2.9171 C21.1634,4.9971 20.9814,6.7251 20.8474,8.4571 C20.5734,12.0121 21.1234,15.3271 22.6134,18.6831 C24.3504,22.5981 25.3844,26.8271 26.6754,30.9351 C26.8344,31.4401 26.6974,32.0371 26.6974,32.5921 C26.4684,32.6501 26.2404,32.7091 26.0124,32.7671 C25.6924,32.1271 25.2794,31.5161 25.0694,30.8411 C24.1194,27.7951 23.2364,24.7281 22.3074,21.6761 C21.9674,20.5591 21.6874,19.3821 20.2644,18.6021 C15.2154,23.2511 10.1744,27.8911 4.9514,32.7001 C8.0514,32.8481 10.9074,32.9721 13.7624,33.1231 C17.6634,33.3311 21.5604,33.6261 25.4644,33.7251 C26.2964,33.7461 27.3224,33.2801 27.9574,32.7051 C31.2674,29.7111 34.4674,26.5951 37.7334,23.5521 C39.1054,22.2731 40.5464,21.0661 42.0584,19.7361 C35.4694,13.6691 29.3614,7.4911 21.3554,2.9171 M44.9584,19.7641 C44.4554,20.2151 43.8984,20.7241 43.3304,21.2201 C39.2404,24.7921 34.7684,28.0221 31.1824,32.0431 C28.5094,35.0381 25.8074,35.6191 22.1904,35.2811 C17.0304,34.7991 11.8364,34.6911 6.6574,34.4031 C5.2374,34.3241 3.8174,34.2061 2.4044,34.0421 C0.9314,33.8711 0.3334,33.0531 0.4094,31.6361 C0.5964,28.1361 0.6934,24.6321 0.9074,21.1341 C1.2334,15.7961 1.5904,10.4601 2.0144,5.1291 C2.1624,3.2661 2.7244,2.8611 4.5894,2.6081 C9.4874,1.9431 14.3864,1.2771 19.2764,0.5591 C20.2784,0.4121 21.0574,0.5231 21.9434,1.1281 C28.2144,5.4161 34.1434,10.1111 39.6214,15.3861 C41.2064,16.9121 43.0264,18.1931 44.9584,19.7641" id="Fill-18" fill="#000000"></path>
            <path d="M21.3556,2.9174 C29.3616,7.4914 35.4696,13.6694 42.0586,19.7364 C40.5466,21.0664 39.1056,22.2724 37.7326,23.5524 C34.4676,26.5954 31.2676,29.7114 27.9576,32.7054 C27.3216,33.2794 26.2956,33.7464 25.4636,33.7254 C21.5606,33.6264 17.6626,33.3304 13.7626,33.1234 C10.9076,32.9714 8.0516,32.8484 4.9506,32.7004 C10.1746,27.8914 15.2156,23.2504 20.2646,18.6024 C21.6866,19.3824 21.9676,20.5594 22.3076,21.6754 C23.2366,24.7284 24.1186,27.7954 25.0686,30.8414 C25.2796,31.5154 25.6926,32.1274 26.0116,32.7674 C26.2406,32.7084 26.4686,32.6504 26.6976,32.5914 C26.6976,32.0374 26.8346,31.4394 26.6756,30.9354 C25.3846,26.8274 24.3506,22.5984 22.6126,18.6834 C21.1236,15.3274 20.5736,12.0124 20.8476,8.4574 C20.9816,6.7254 21.1636,4.9974 21.3556,2.9174" id="Fill-20" fill="#9CEDFF" class="icon__color"></path>
            <path d="M2.1686,31.8711 C2.4076,24.6081 2.6306,17.7991 2.8546,10.9861 C5.3646,11.0961 15.9816,15.9681 18.3846,18.0431 C13.0146,22.4821 8.8376,28.2371 2.1686,31.8711" id="Fill-22" fill="#FFFFFF"></path>
            <path d="M19.2194,16.0871 C18.6564,15.8751 18.1434,15.7111 17.6544,15.4941 C14.0844,13.9111 10.5164,12.3211 6.9534,10.7211 C6.3004,10.4281 5.6454,10.1241 5.0404,9.7451 C3.4984,8.7791 3.1984,7.8411 3.5144,5.8741 C3.7554,4.3761 4.8854,4.2871 5.9934,4.1231 C10.3144,3.4851 14.6364,2.8611 19.2194,2.1941 L19.2194,16.0871 Z" id="Fill-24" fill="#FFFFFF"></path>
        </g>
    </g>
</svg>
