<svg width="81px" height="34px" viewBox="156 270 81 34" version="1.1" xmlns="http://www.w3.org/2000/svg" xmlns:xlink="http://www.w3.org/1999/xlink">
    <defs></defs>
    <g id="Group-2" stroke="none" stroke-width="1" fill="none" fill-rule="evenodd" transform="translate(156.000000, 270.000000)">
        <path d="M2.8431,2.124 C2.7511,3.349 2.6291,4.198 2.6351,5.045 C2.6571,8.48 2.7411,11.915 2.7581,15.351 C2.7771,19.106 2.6931,22.862 2.7541,26.616 C2.8031,29.649 3.8201,30.621 6.7871,30.658 C10.5311,30.704 14.2751,30.741 18.0191,30.726 C30.4801,30.676 42.9401,30.587 55.4011,30.544 C60.2591,30.527 65.1191,30.553 69.9771,30.642 C71.6461,30.672 73.3071,31.014 74.9781,31.106 C77.2561,31.23 77.5121,30.911 77.3791,28.723 C77.0701,23.625 76.7891,18.525 76.4861,13.427 C76.3351,10.875 76.2541,8.315 75.9721,5.777 C75.6591,2.96 75.0351,2.421 72.3491,2.487 C70.5201,2.532 68.6951,2.764 66.8691,2.93 C63.0571,3.275 59.2521,3.732 55.4341,3.951 C52.4121,4.124 49.3721,3.965 46.3421,4.034 C41.4071,4.147 36.4741,4.337 31.5391,4.471 C28.9841,4.54 26.4121,4.39 23.8781,4.644 C20.0101,5.031 16.2461,4.607 12.4731,3.856 C9.3661,3.237 6.2371,2.73 2.8431,2.124 M80.8071,33.145 C79.9361,33.145 78.9771,33.233 78.0381,33.13 C72.6501,32.543 67.3001,31.949 61.8281,32.121 C51.7731,32.436 41.7031,32.249 31.6391,32.264 C27.8061,32.27 23.9731,32.311 20.1421,32.234 C16.9511,32.17 13.7641,31.926 10.5731,31.822 C8.6661,31.76 6.7551,31.82 4.8461,31.815 C3.2541,31.812 2.5781,30.947 2.0221,29.463 C0.8761,26.411 1.3931,23.285 1.2681,20.206 C1.0411,14.622 1.1061,9.026 1.0461,3.435 C1.0401,2.875 0.9921,2.316 0.9911,1.756 C0.9871,0.612 1.5141,0.184 2.6711,0.429 C5.6401,1.058 8.6451,1.536 11.5881,2.264 C15.6811,3.276 19.7791,3.425 23.9621,3.052 C26.7411,2.805 29.5541,2.961 32.3501,2.871 C42.8021,2.532 53.2551,2.217 63.7031,1.781 C67.0441,1.642 70.3641,1.061 73.7051,0.861 C76.3181,0.704 76.5931,0.944 77.1811,3.432 C77.6021,5.211 77.9131,7.042 78.0161,8.865 C78.2731,13.413 78.3361,17.973 78.5751,22.523 C78.6961,24.833 78.9061,27.154 79.3141,29.427 C79.5361,30.668 80.2561,31.819 80.8071,33.145" id="Fill-50" fill="#000000"></path>
        <path d="M2.8431,2.124 C6.2371,2.73 9.3661,3.237 12.4731,3.856 C16.2461,4.607 20.0101,5.031 23.8781,4.644 C26.4121,4.39 28.9841,4.54 31.5391,4.471 C36.4741,4.337 41.4071,4.147 46.3421,4.034 C49.3721,3.965 52.4121,4.124 55.4341,3.951 C59.2521,3.732 63.0571,3.275 66.8691,2.93 C68.6951,2.764 70.5201,2.532 72.3491,2.487 C75.0351,2.421 75.6591,2.96 75.9721,5.777 C76.2541,8.315 76.3351,10.875 76.4861,13.427 C76.7891,18.525 77.0701,23.625 77.3791,28.723 C77.5121,30.911 77.2561,31.23 74.9781,31.106 C73.3071,31.014 71.6461,30.672 69.9771,30.642 C65.1191,30.553 60.2591,30.527 55.4011,30.544 C42.9401,30.587 30.4801,30.676 18.0191,30.726 C14.2751,30.741 10.5311,30.704 6.7871,30.658 C3.8201,30.621 2.8031,29.649 2.7541,26.616 C2.6931,22.862 2.7771,19.106 2.7581,15.351 C2.7411,11.915 2.6571,8.48 2.6351,5.045 C2.6291,4.198 2.7511,3.349 2.8431,2.124" id="Fill-56" fill="#9CEDFF" class="icon__color"></path>
    </g>
</svg>
