<svg id="Layer_1" data-name="Layer 1" xmlns="http://www.w3.org/2000/svg" xmlns:xlink="http://www.w3.org/1999/xlink" viewBox="0 0 469.73 85.93">
  <defs>
    <style>
      .cls-2 {
        clip-path: url(#clip-path);
      }
    </style>
    <clipPath id="clip-path" transform="translate(0 0)">
      <rect class="cls-1" width="469.73" height="85.93"/>
    </clipPath>
  </defs>
  <g class="cls-2">
    <path class="cls-3" d="M10.22,34.49h5.9a21,21,0,0,0,6.35-.92,15.77,15.77,0,0,0,5-2.6A11.67,11.67,0,0,0,32,21.52a12.81,12.81,0,0,0-1-5,11.6,11.6,0,0,0-2.66-3.93A12.11,12.11,0,0,0,24.36,10a14.11,14.11,0,0,0-5.15-.92h-9V34.49ZM0,5.33H21A35.25,35.25,0,0,1,30.67,6.5a20.31,20.31,0,0,1,6.88,3.3,13.94,13.94,0,0,1,4.15,5,14.47,14.47,0,0,1,1.4,6.35A13.17,13.17,0,0,1,42,26.48a14.5,14.5,0,0,1-3,4.45,19.33,19.33,0,0,1-4.72,3.45,25.29,25.29,0,0,1-6.07,2.25L50.35,66.15H38.51L17.38,37.55H10.22v28.6H0V5.33Z" transform="translate(0 0)"/>
    <path class="cls-3" d="M84.7,34.32a13,13,0,0,0-.94-5,12.3,12.3,0,0,0-2.58-4,12,12,0,0,0-3.84-2.64,11.76,11.76,0,0,0-4.74-1,9,9,0,0,0-4,1,11.58,11.58,0,0,0-3.45,2.62,14,14,0,0,0-2.49,4,15.74,15.74,0,0,0-1.2,5ZM75.4,67.15a22.4,22.4,0,0,1-8.93-1.79,23.45,23.45,0,0,1-7.29-4.87,23,23,0,0,1-4.93-7.2,21.75,21.75,0,0,1-1.81-8.84A31.77,31.77,0,0,1,54.09,34a25.06,25.06,0,0,1,4.67-8.3A21.23,21.23,0,0,1,66,20.26a22.29,22.29,0,0,1,9.45-2A21.63,21.63,0,0,1,84,19.91a20.57,20.57,0,0,1,6.59,4.34,19.7,19.7,0,0,1,4.28,6.31,19,19,0,0,1,1.53,7.51h-35a30.09,30.09,0,0,0,1.22,8.75,22.36,22.36,0,0,0,3.41,7,16,16,0,0,0,5.24,4.58A13.75,13.75,0,0,0,77.93,60a17.51,17.51,0,0,0,5.85-1,20.67,20.67,0,0,0,5.07-2.58,17.49,17.49,0,0,0,3.86-3.67A13.27,13.27,0,0,0,95,48.55l2.66,1.18a21.63,21.63,0,0,1-3.25,6.79A26.58,26.58,0,0,1,89.13,62a25.19,25.19,0,0,1-6.55,3.73,19.79,19.79,0,0,1-7.18,1.38" transform="translate(0 0)"/>
    <path class="cls-3" d="M126.35,67.15a20.83,20.83,0,0,1-8.62-1.81,22.06,22.06,0,0,1-7-5A23.34,23.34,0,0,1,106,53a23.73,23.73,0,0,1-1.72-9,26.31,26.31,0,0,1,1.9-10,25.87,25.87,0,0,1,5.22-8.17,24.66,24.66,0,0,1,7.73-5.5,22.59,22.59,0,0,1,9.48-2,29.17,29.17,0,0,1,7.25.85,20.13,20.13,0,0,1,5.72,2.36,12.12,12.12,0,0,1,3.75,3.56,7.86,7.86,0,0,1,1.35,4.41,3.88,3.88,0,0,1-.55,2,5.84,5.84,0,0,1-1.42,1.64,7.17,7.17,0,0,1-2,1.11,6.42,6.42,0,0,1-2.25.42,5.4,5.4,0,0,1-2.27-.46A5.84,5.84,0,0,1,136.46,33a4.89,4.89,0,0,1-1.09-1.64,5,5,0,0,1-.37-1.88,12.72,12.72,0,0,0-.35-3A5.91,5.91,0,0,0,133.42,24a5.83,5.83,0,0,0-2.4-1.62,10.92,10.92,0,0,0-3.89-.59,12.45,12.45,0,0,0-5.72,1.29,12.92,12.92,0,0,0-4.28,3.47,15.45,15.45,0,0,0-2.66,5.13,21,21,0,0,0-.92,6.27,30.07,30.07,0,0,0,1.18,8.51,23.44,23.44,0,0,0,3.32,7,16.58,16.58,0,0,0,5.15,4.78A13,13,0,0,0,129.93,60a14.36,14.36,0,0,0,5.68-1,13.26,13.26,0,0,0,4.17-2.77,17.42,17.42,0,0,0,3-4.06,41.9,41.9,0,0,0,2.27-4.89l2.8,1.14a32.74,32.74,0,0,1-3.19,7.9A23.08,23.08,0,0,1,140,62.22a19.43,19.43,0,0,1-6.16,3.67,21.31,21.31,0,0,1-7.44,1.27" transform="translate(0 0)"/>
    <path class="cls-3" d="M187.54,53.49a8.93,8.93,0,0,0,.92,4A9.74,9.74,0,0,0,191,60.71a12.71,12.71,0,0,0,4,2.18,15.26,15.26,0,0,0,5.07.81A9.61,9.61,0,0,0,205,62.37a12.79,12.79,0,0,0,4-3.78,19.45,19.45,0,0,0,2.71-5.83,27,27,0,0,0,1-7.53,39.6,39.6,0,0,0-.92-9.06,21,21,0,0,0-2.55-6.44,11.19,11.19,0,0,0-3.86-3.84,9.72,9.72,0,0,0-4.89-1.27,12,12,0,0,0-3.91.63,16.13,16.13,0,0,0-3.49,1.68,18.61,18.61,0,0,0-3,2.42,23.86,23.86,0,0,0-2.49,2.86V53.49Zm-9.3-34.23h9.3v9.56q1.4-1.79,3.12-3.65a26.57,26.57,0,0,1,3.82-3.38,20.37,20.37,0,0,1,4.61-2.51,15,15,0,0,1,5.52-1A16.32,16.32,0,0,1,212.16,20,17.79,17.79,0,0,1,218,24.78a22,22,0,0,1,3.71,7A27.46,27.46,0,0,1,223,40.34a34.14,34.14,0,0,1-1.62,10.72,25.74,25.74,0,0,1-4.58,8.49,20.86,20.86,0,0,1-7.2,5.59,22,22,0,0,1-9.52,2,31,31,0,0,1-3.62-.2,21.44,21.44,0,0,1-3.16-.61,18.3,18.3,0,0,1-2.9-1.07,25.41,25.41,0,0,1-2.84-1.57V85.93h-9.3V19.25Z" transform="translate(0 0)"/>
    <path class="cls-3" d="M262.36,34.32a13,13,0,0,0-.94-5,12.33,12.33,0,0,0-2.58-4A12,12,0,0,0,255,22.75a11.75,11.75,0,0,0-4.74-1,9,9,0,0,0-4,1,11.57,11.57,0,0,0-3.45,2.62,14,14,0,0,0-2.49,4,15.74,15.74,0,0,0-1.2,5Zm-9.3,32.84a22.4,22.4,0,0,1-8.93-1.79,23.45,23.45,0,0,1-7.29-4.87,23,23,0,0,1-4.93-7.2,21.74,21.74,0,0,1-1.81-8.84A31.72,31.72,0,0,1,231.75,34a25.06,25.06,0,0,1,4.67-8.3,21.23,21.23,0,0,1,7.27-5.46,22.28,22.28,0,0,1,9.45-2,21.63,21.63,0,0,1,8.47,1.62,20.57,20.57,0,0,1,6.59,4.34,19.7,19.7,0,0,1,4.28,6.31A18.94,18.94,0,0,1,274,38.07H239a30.06,30.06,0,0,0,1.22,8.75,22.33,22.33,0,0,0,3.41,7,16,16,0,0,0,5.24,4.58A13.75,13.75,0,0,0,255.59,60a17.51,17.51,0,0,0,5.85-1,20.68,20.68,0,0,0,5.07-2.58,17.49,17.49,0,0,0,3.86-3.67,13.27,13.27,0,0,0,2.25-4.26l2.66,1.18A21.68,21.68,0,0,1,272,56.52,26.58,26.58,0,0,1,266.79,62a25.18,25.18,0,0,1-6.55,3.73,19.79,19.79,0,0,1-7.18,1.38" transform="translate(0 0)"/>
    <path class="cls-3" d="M325.76,61.7h11a31,31,0,0,0,7.73-.85A16.3,16.3,0,0,0,350,58.47a9.55,9.55,0,0,0,3.17-3.69,10.92,10.92,0,0,0,1-4.74,15.42,15.42,0,0,0-.92-5.37,10.35,10.35,0,0,0-3-4.3,15.13,15.13,0,0,0-5.46-2.86,28,28,0,0,0-8.25-1H325.76V61.7Zm0-29h13a15.9,15.9,0,0,0,5.46-.87,11.51,11.51,0,0,0,4-2.42,10.31,10.31,0,0,0,2.49-3.65,12.07,12.07,0,0,0,.85-4.58,11.45,11.45,0,0,0-1-4.85,9.49,9.49,0,0,0-3.14-3.73A15.77,15.77,0,0,0,342,10.22a32.44,32.44,0,0,0-7.86-.83h-8.43V32.7ZM315.54,5.33H340a34.29,34.29,0,0,1,8.91,1.09,23,23,0,0,1,7,3.06,14.66,14.66,0,0,1,4.52,4.72A11.77,11.77,0,0,1,362,20.26a17.29,17.29,0,0,1-.53,4.45,10.47,10.47,0,0,1-1.79,3.65,15,15,0,0,1-3.4,3.19,36.55,36.55,0,0,1-5.37,3v0.17a22,22,0,0,1,5.87,1.77,15.18,15.18,0,0,1,4.5,3.17,13.59,13.59,0,0,1,2.86,4.43,14.87,14.87,0,0,1,1,5.57,14.25,14.25,0,0,1-1.51,6.46,15.66,15.66,0,0,1-4.28,5.24,20.74,20.74,0,0,1-6.7,3.49,28.5,28.5,0,0,1-8.78,1.27H315.54V5.33Z" transform="translate(0 0)"/>
    <path class="cls-3" d="M398.77,63.7a9.4,9.4,0,0,0,5-1.42,13.64,13.64,0,0,0,4-3.8,18.34,18.34,0,0,0,2.6-5.57,24.18,24.18,0,0,0,.92-6.72,49.37,49.37,0,0,0-.87-9.54,24.31,24.31,0,0,0-2.84-7.75,13.92,13.92,0,0,0-12.84-7.12,8.51,8.51,0,0,0-4.54,1.35,13.52,13.52,0,0,0-3.86,3.71,19.77,19.77,0,0,0-2.69,5.5,21.81,21.81,0,0,0-1,6.68,40.61,40.61,0,0,0,1.09,9.61,27,27,0,0,0,3.14,7.84A16.31,16.31,0,0,0,392,61.76a12.3,12.3,0,0,0,6.81,1.94M397,67.15a25.85,25.85,0,0,1-9.93-1.88,24.25,24.25,0,0,1-7.86-5.11,23.44,23.44,0,0,1-7-16.85,25.64,25.64,0,0,1,1.86-9.76,24.46,24.46,0,0,1,5.15-7.95,24.2,24.2,0,0,1,7.86-5.35,24.85,24.85,0,0,1,9.93-2,26.63,26.63,0,0,1,9.89,1.79A24.45,24.45,0,0,1,414.75,25a22.26,22.26,0,0,1,7,16.35,27,27,0,0,1-1.86,10,25.44,25.44,0,0,1-5.17,8.21,24.4,24.4,0,0,1-7.84,5.55,23.85,23.85,0,0,1-9.89,2" transform="translate(0 0)"/>
  </g>
  <polygon class="cls-3" points="460.08 19.3 447.2 35.02 435.71 19.3 424.76 19.3 441.35 42.18 421.7 66.15 426.81 66.15 443.79 45.45 458.73 66.15 469.73 66.15 469.73 66.15 449.6 38.29 465.19 19.3 460.08 19.3"/>
  <rect class="cls-3" x="156.98" y="19.45" width="9.26" height="46.7"/>
  <g class="cls-2">
    <path class="cls-3" d="M168.13,6.48A6.7,6.7,0,0,1,161.66,13a6.78,6.78,0,0,1-6.57-6.57A6.77,6.77,0,0,1,161.66,0a6.69,6.69,0,0,1,6.48,6.47" transform="translate(0 0)"/>
  </g>
</svg>
