<svg width="62px" height="46px" viewBox="252 349 62 46" version="1.1" xmlns="http://www.w3.org/2000/svg" xmlns:xlink="http://www.w3.org/1999/xlink">
    <defs></defs>
    <g id="Group" stroke="none" stroke-width="1" fill="none" fill-rule="evenodd" transform="translate(252.000000, 349.000000)">
        <g id="Group-9">
            <path d="M55.6426,10.3752 C56.8196,11.6262 57.1676,13.1962 57.7616,14.6392 C57.9716,15.1502 58.0616,15.9742 58.4206,16.1162 C60.0326,16.7542 59.8036,18.0952 59.8416,19.3352 C59.8876,20.8522 59.8866,22.3722 59.8566,23.8902 C59.8466,24.4012 59.6836,24.9082 59.3196,25.4052 C58.1036,20.4332 56.8866,15.4612 55.6426,10.3752" id="Fill-198" fill="#40641C" class="icon__color"></path>
            <path d="M55.6426,10.3752 C56.8866,15.4612 58.1036,20.4332 59.3196,25.4052 C59.6836,24.9082 59.8466,24.4012 59.8566,23.8902 C59.8866,22.3722 59.8876,20.8522 59.8416,19.3352 C59.8036,18.0952 60.0326,16.7542 58.4206,16.1162 C58.0616,15.9742 57.9716,15.1502 57.7616,14.6392 C57.1676,13.1962 56.8196,11.6262 55.6426,10.3752 M56.6236,41.6272 C57.7016,39.1842 58.3466,35.5382 58.3016,32.4742 C58.2306,27.5762 57.3886,22.7772 56.1746,18.0642 C55.2616,14.5182 54.0436,11.0442 52.8256,7.5862 C52.1806,5.7552 50.9856,4.3042 48.6036,3.6652 C48.5326,9.9072 45.7646,14.9062 42.1186,19.5062 C42.5226,19.7782 42.8336,19.9872 43.2956,20.2982 C42.8416,20.9162 42.5616,21.5242 42.0916,21.8902 C40.9866,22.7502 40.8266,23.7302 41.1376,25.0572 C42.5446,31.0682 46.0166,35.5412 51.2006,38.7332 C52.8896,39.7732 54.7036,40.6102 56.6236,41.6272 M46.7946,3.4502 C44.1336,3.4452 41.4986,2.9912 38.9166,2.0882 C36.6476,1.2942 33.7936,1.7302 31.9926,2.9032 C33.1436,3.3002 34.5306,3.0812 35.5176,4.1372 C35.2816,4.2822 35.1396,4.4422 35.0426,4.4182 C32.6126,3.8272 30.3156,4.0242 28.1746,5.4342 C27.7916,5.6862 27.2216,5.9842 26.8546,5.8732 C25.7956,5.5522 25.1266,6.1452 24.5126,6.7322 C23.0836,8.1002 21.7326,9.5492 20.3556,10.9712 C19.9686,11.3702 19.6796,11.9702 19.2136,12.1702 C16.9736,13.1292 15.7366,15.1302 14.1596,16.7882 C12.8446,18.1722 11.4806,19.5152 10.0666,20.7972 C7.9496,22.7182 5.7686,24.5692 3.6426,26.4262 C4.4856,28.2152 5.8696,29.0532 8.2536,29.3662 C13.9196,30.1112 19.5626,29.9982 25.1806,28.9392 C28.2806,28.3552 31.1346,27.1102 33.8376,25.5352 C35.8706,24.3502 38.1766,23.4182 39.0016,20.8662 C39.0686,20.6592 39.3016,20.4942 39.4826,20.3392 C42.4886,17.7842 44.2876,14.4312 45.8936,10.9082 C46.9836,8.5142 47.7016,6.1522 46.7946,3.4502 M56.9276,45.0452 C55.5746,42.5272 53.4836,41.4892 51.4706,40.4132 C45.3206,37.1262 41.5226,32.0812 39.9186,25.3312 C39.8296,24.9562 39.6686,24.5992 39.4786,24.0542 C38.0606,24.8432 36.6926,25.4832 35.4546,26.3162 C31.3056,29.1052 26.6566,30.3282 21.7846,31.0622 C17.3066,31.7372 12.8606,31.5312 8.4336,30.8852 C5.5056,30.4572 2.6776,29.6002 0.4596,26.9142 C1.1106,26.3822 1.6886,25.8982 2.2796,25.4302 C3.5876,24.3912 4.9086,23.3702 6.2086,22.3222 C6.6436,21.9722 6.9866,21.4982 7.4476,21.1952 C10.9096,18.9202 13.1886,15.4642 16.0866,12.6322 C18.8736,9.9072 21.7256,7.1602 24.9246,4.9722 C27.1946,3.4192 29.9526,2.5362 32.4296,1.1772 C34.4186,0.0862 36.9546,0.2132 39.2346,0.9012 C41.9396,1.7192 44.6626,2.2162 47.4936,1.9692 C49.9756,1.7522 51.7276,3.1462 53.3846,4.6822 C54.8426,6.0342 56.2376,7.4542 57.6446,8.8602 C57.9766,9.1922 58.3356,9.5452 58.5326,9.9602 C61.0286,15.2232 62.1366,20.6562 60.7726,26.4752 C60.2296,28.7902 59.8886,31.1792 59.7276,33.5522 C59.5146,36.6772 59.0886,39.7432 58.1276,42.7202 C57.9006,43.4222 57.4496,44.0522 56.9276,45.0452" id="Fill-200" fill="#000000"></path>
            <path d="M18.027,22.6842 C18.715,22.7812 19.171,22.9722 19.56,22.8802 C21.672,22.3802 23.705,21.6662 25.393,20.2272 C26.61,19.1902 27.793,18.1122 29.02,17.0872 C29.596,16.6062 30.241,16.2062 31.097,15.5982 C31.709,17.3492 31.469,18.7632 31.376,20.1682 C31.283,21.5692 30.463,23.0582 31.78,24.4162 C32.045,24.1632 32.346,24.0142 32.359,23.8432 C32.563,21.1442 32.975,18.4262 32.81,15.7452 C32.719,14.2592 32.964,13.3362 34.062,12.4512 C35.804,11.0472 37.487,9.5712 39.187,8.1152 C39.657,7.7122 40.25,7.3292 39.616,6.2752 C39.027,6.6442 38.423,6.9422 37.916,7.3572 C36.803,8.2682 35.725,9.2232 34.661,10.1912 C33.992,10.8002 33.282,11.0562 32.345,11.2032 C29.119,11.7102 25.928,12.4412 22.727,13.1002 C22.073,13.2352 21.392,13.3682 20.865,14.2222 C24.209,14.8192 27.153,13.2662 30.623,13.4642 C28.781,15.7002 26.868,17.3772 24.827,18.8172 C22.795,20.2502 20.495,21.3042 18.027,22.6842 M46.795,3.4502 C47.702,6.1522 46.984,8.5142 45.893,10.9082 C44.288,14.4312 42.488,17.7842 39.483,20.3392 C39.302,20.4942 39.069,20.6592 39.002,20.8662 C38.176,23.4182 35.87,24.3502 33.837,25.5352 C31.135,27.1102 28.281,28.3552 25.181,28.9392 C19.562,29.9982 13.92,30.1112 8.254,29.3662 C5.87,29.0532 4.486,28.2152 3.642,26.4262 C5.769,24.5692 7.949,22.7182 10.067,20.7972 C11.48,19.5152 12.844,18.1722 14.16,16.7882 C15.736,15.1302 16.974,13.1292 19.214,12.1702 C19.68,11.9702 19.969,11.3702 20.355,10.9712 C21.732,9.5492 23.084,8.1002 24.513,6.7322 C25.126,6.1452 25.795,5.5522 26.855,5.8732 C27.221,5.9842 27.791,5.6862 28.175,5.4342 C30.316,4.0242 32.613,3.8272 35.042,4.4182 C35.14,4.4422 35.282,4.2822 35.518,4.1372 C34.531,3.0812 33.144,3.3002 31.993,2.9032 C33.793,1.7302 36.647,1.2942 38.917,2.0882 C41.499,2.9912 44.133,3.4452 46.795,3.4502" id="Fill-202" fill="#40641C" class="icon__color"></path>
            <path d="M55.24,23.9351 C55.047,23.3971 55.03,23.0091 54.83,22.8491 C53.262,21.5971 52.424,19.9381 51.9,18.0411 C51.669,17.2041 51.267,16.3941 50.83,15.6371 C50.295,14.7101 49.7,13.7821 48.248,13.4561 C48.848,14.5901 49.325,15.4921 49.803,16.3931 C50.337,17.4031 50.403,18.4961 49.665,19.3341 C47.71,21.5551 47.772,24.5481 46.579,27.0581 C46.286,27.6741 45.906,28.7121 46.98,29.4731 C48.865,27.1201 48.509,23.7621 50.694,21.5031 C51.751,22.9411 51.505,24.4101 51.623,25.8081 C51.798,27.8741 51.964,29.9431 52.232,31.9981 C52.281,32.3751 52.8,32.6911 53.102,33.0351 C53.266,32.9651 53.43,32.8951 53.594,32.8251 C53.594,31.9791 53.655,31.1271 53.582,30.2871 C53.407,28.2981 53.16,26.3151 52.97,24.3261 C52.952,24.1291 53.131,23.9121 53.212,23.7201 C53.855,23.7881 54.439,23.8501 55.24,23.9351 M56.623,41.6271 C54.703,40.6101 52.889,39.7731 51.201,38.7331 C46.017,35.5411 42.544,31.0681 41.137,25.0571 C40.827,23.7301 40.986,22.7511 42.092,21.8901 C42.561,21.5241 42.842,20.9161 43.296,20.2981 C42.833,19.9871 42.522,19.7781 42.118,19.5061 C45.765,14.9061 48.532,9.9081 48.604,3.6651 C50.986,4.3041 52.18,5.7561 52.825,7.5861 C54.044,11.0441 55.262,14.5181 56.175,18.0641 C57.388,22.7771 58.231,27.5761 58.302,32.4741 C58.346,35.5381 57.701,39.1841 56.623,41.6271" id="Fill-204" fill="#40641C" class="icon__color"></path>
            <path d="M18.027,22.6842 C20.495,21.3042 22.795,20.2502 24.827,18.8172 C26.868,17.3772 28.781,15.7002 30.623,13.4642 C27.153,13.2662 24.209,14.8192 20.865,14.2222 C21.392,13.3682 22.073,13.2352 22.727,13.1002 C25.928,12.4412 29.119,11.7102 32.345,11.2032 C33.282,11.0562 33.992,10.8002 34.661,10.1912 C35.725,9.2232 36.803,8.2682 37.916,7.3572 C38.423,6.9422 39.027,6.6442 39.616,6.2752 C40.25,7.3292 39.657,7.7122 39.187,8.1152 C37.487,9.5712 35.804,11.0472 34.062,12.4512 C32.964,13.3362 32.719,14.2592 32.81,15.7452 C32.975,18.4262 32.563,21.1442 32.359,23.8432 C32.346,24.0142 32.045,24.1632 31.78,24.4162 C30.463,23.0582 31.283,21.5692 31.376,20.1682 C31.469,18.7632 31.709,17.3492 31.097,15.5982 C30.241,16.2062 29.596,16.6062 29.02,17.0872 C27.793,18.1122 26.61,19.1902 25.393,20.2272 C23.705,21.6662 21.672,22.3802 19.56,22.8802 C19.171,22.9722 18.715,22.7812 18.027,22.6842" id="Fill-206" fill="#000000"></path>
            <path d="M55.24,23.9351 C54.439,23.8501 53.855,23.7881 53.212,23.7201 C53.131,23.9121 52.952,24.1291 52.97,24.3261 C53.16,26.3151 53.407,28.2981 53.582,30.2871 C53.655,31.1271 53.594,31.9791 53.594,32.8251 C53.43,32.8951 53.266,32.9651 53.102,33.0351 C52.8,32.6911 52.281,32.3751 52.232,31.9981 C51.964,29.9431 51.798,27.8741 51.623,25.8081 C51.505,24.4101 51.751,22.9411 50.694,21.5031 C48.509,23.7621 48.865,27.1201 46.98,29.4731 C45.906,28.7121 46.286,27.6741 46.579,27.0581 C47.772,24.5481 47.71,21.5551 49.665,19.3341 C50.403,18.4961 50.337,17.4031 49.803,16.3931 C49.325,15.4921 48.848,14.5901 48.248,13.4561 C49.7,13.7821 50.295,14.7101 50.83,15.6371 C51.267,16.3941 51.669,17.2041 51.9,18.0411 C52.424,19.9381 53.262,21.5971 54.83,22.8491 C55.03,23.0091 55.047,23.3971 55.24,23.9351" id="Fill-208" fill="#000000"></path>
        </g>
    </g>
</svg>
