<svg width="78px" height="62px" viewBox="-68 437 78 62" version="1.1" xmlns="http://www.w3.org/2000/svg" xmlns:xlink="http://www.w3.org/1999/xlink">
    <defs></defs>
    <g id="Group" stroke="none" stroke-width="1" fill="none" fill-rule="evenodd" transform="translate(-68.000000, 437.000000)">
        <g id="Group-10">
            <path d="M52.7577,40.4294 C52.6857,40.5114 52.6147,40.5924 52.5427,40.6744 C52.8367,40.9244 53.1307,41.1744 53.4247,41.4234 C53.4997,41.3344 53.5747,41.2444 53.6497,41.1544 C53.3527,40.9124 53.0547,40.6714 52.7577,40.4294 M36.1017,19.4624 C34.9387,17.1424 34.0607,15.1024 32.9397,13.2064 C29.2697,6.9974 24.4177,5.7004 18.3227,6.5894 C17.0337,6.7774 16.1027,7.4804 15.8527,8.8534 C15.2227,12.3104 14.5627,15.7624 13.9837,19.2274 C13.4717,22.2954 14.6807,24.6944 17.0767,26.5574 C18.0207,27.2914 19.0217,27.9544 19.9277,28.7304 C20.2697,29.0234 20.4177,29.5444 20.6547,29.9614 C20.5107,30.1254 20.3667,30.2894 20.2237,30.4524 C19.0977,29.8074 17.9337,29.2194 16.8527,28.5064 C13.3457,26.1974 8.9997,26.6474 6.6767,29.6244 C5.6007,31.0044 4.5767,32.4244 3.4937,33.7994 C1.8777,35.8494 1.5337,37.4394 2.9627,39.4934 C4.1227,41.1614 5.6417,42.7214 7.8297,43.1014 C10.1087,43.4984 12.3947,43.8694 14.6097,42.6384 C16.2727,41.7144 18.0237,40.9484 19.7447,40.1314 C20.2577,39.8884 20.8017,39.7114 21.3307,39.5034 L21.7347,40.0454 C21.1297,40.6734 20.6107,41.4334 19.8997,41.9004 C18.6367,42.7314 17.3057,43.5034 15.9117,44.0784 C14.5447,44.6414 14.0977,45.5084 14.3387,46.8834 C14.6967,48.9304 14.8397,51.0404 15.4427,53.0104 C15.9157,54.5544 16.6347,56.2824 17.7927,57.3094 C20.8167,59.9864 24.0967,60.1364 27.4747,57.8604 C29.3737,56.5814 30.9307,54.8034 32.6877,53.3054 C33.9327,52.2434 34.4507,51.1944 33.4577,49.6084 C32.9777,48.8414 32.8217,47.7984 32.7697,46.8654 C32.7407,46.3324 33.2157,45.7714 33.4637,45.2224 C33.6517,45.2644 33.8397,45.3074 34.0277,45.3494 C34.3447,46.6244 34.5187,47.9564 35.0027,49.1634 C36.5467,53.0144 39.1787,56.1174 42.1877,58.8844 C43.7467,60.3174 45.7257,60.6244 47.8147,60.2794 C48.6707,60.1384 49.5667,59.9734 50.4117,60.0794 C56.1907,60.7994 60.1577,56.6004 59.0317,50.8944 C58.9237,50.3464 58.8697,49.7884 58.7607,49.2404 C58.2377,46.6014 57.2307,44.4564 54.2917,43.5974 C52.8857,43.1874 51.6457,42.1494 50.3977,41.2984 C50.0167,41.0384 49.8557,40.4554 49.5197,39.8964 C50.1637,39.6974 50.5717,39.5724 51.0177,39.4344 C48.2267,37.0444 48.2267,37.0444 48.0857,35.7604 C50.4377,37.3394 52.7417,38.8784 55.0347,40.4354 C55.3607,40.6574 55.7197,40.9154 55.9077,41.2454 C56.7677,42.7584 58.1487,42.8314 59.6517,42.7604 C64.1927,42.5444 68.4707,41.2544 72.5877,39.4584 C74.6247,38.5704 75.8267,36.8964 75.6937,34.5104 C75.6447,33.6324 75.5377,32.7474 75.6017,31.8754 C75.7047,30.4574 75.1667,29.3854 74.0747,28.5544 C71.6797,26.7314 69.2897,24.9014 66.8617,23.1234 C66.3597,22.7554 65.7177,22.5564 65.1157,22.3514 C61.4957,21.1214 58.2307,21.8654 55.1277,24.0034 C53.9027,24.8484 52.4717,25.4214 51.0797,25.9784 C50.7067,26.1284 49.7487,25.8234 49.7207,25.6294 C49.6417,25.1004 49.7407,24.3264 50.0937,24.0054 C50.5787,23.5644 51.4147,23.1514 52.0047,23.2564 C53.3987,23.5054 53.8647,22.6434 54.3867,21.7324 C56.7757,17.5674 57.2617,13.0734 56.1377,8.5154 C55.3787,5.4404 53.5907,2.9624 50.0397,2.5404 C48.4597,2.3524 46.8677,2.1094 45.2837,2.1284 C38.4927,2.2104 33.5317,9.8294 36.0977,16.0974 C36.4587,16.9804 37.2187,17.9024 36.1017,19.4624 M35.0297,53.1684 C34.0217,54.2484 33.1417,55.3904 32.0647,56.3004 C30.5487,57.5824 28.9987,58.8994 27.2647,59.8334 C22.8177,62.2294 16.9917,60.2274 14.8647,55.6374 C14.2717,54.3564 13.9867,52.9114 13.6997,51.5134 C13.2837,49.4904 12.9927,47.4414 12.6197,45.2294 C11.4637,45.1044 10.4557,44.9724 9.4437,44.8884 C5.8507,44.5904 3.1027,42.9544 1.2017,39.8584 C0.1187,38.0944 0.0737,36.3684 1.2387,34.6924 C2.7427,32.5284 4.1757,30.2804 5.9407,28.3414 C7.6357,26.4784 9.8607,25.3484 12.5607,25.7124 C12.9537,25.7654 13.3517,25.7794 13.7487,25.7954 C13.8117,25.7974 13.8777,25.7104 14.0577,25.5834 C11.7827,21.9684 12.6467,18.1204 13.3857,14.2844 C13.7477,12.4034 14.2697,10.5464 14.5157,8.6524 C14.7697,6.6954 15.8157,5.6494 17.6477,5.2184 C23.1447,3.9264 27.9297,5.1624 31.9207,9.2244 C32.4747,9.7874 33.0037,10.3764 33.7067,11.1284 C33.9987,10.5134 34.2707,10.0704 34.4277,9.5904 C37.0487,1.5304 42.3227,-0.5786 50.3587,1.0694 C54.9567,2.0124 57.1367,5.0894 57.8607,9.3334 C58.4257,12.6454 58.5007,16.0224 57.1437,19.2484 C56.9307,19.7544 56.8217,20.3044 56.5897,21.0904 C57.6017,20.8654 58.4137,20.6624 59.2347,20.5074 C63.2797,19.7434 66.8307,20.6064 69.7427,23.6614 C70.3417,24.2894 70.9857,25.0034 71.7557,25.3164 C75.6997,26.9224 77.5177,29.6364 77.2917,34.0204 C77.1327,37.0894 75.9597,39.3404 73.3457,40.6164 C70.9957,41.7624 68.4547,42.5754 65.9277,43.2844 C63.7127,43.9064 61.4007,44.1804 58.8897,44.6534 C59.0807,45.3224 59.2627,45.9754 59.4547,46.6254 C59.8147,47.8474 60.1417,49.0804 60.5497,50.2864 C62.7447,56.7754 56.5527,61.7714 51.4447,61.6804 C49.8477,61.6524 48.2497,61.7444 46.6527,61.7974 C44.2917,61.8764 42.2127,61.1754 40.5927,59.4344 C38.8057,57.5134 37.1037,55.5124 35.0297,53.1684" id="Fill-11" fill="#000000"></path>
            <path d="M22.9758,29.8848 C22.8988,29.7858 22.8258,29.6808 22.7378,29.5928 C22.7278,29.5838 22.6258,29.6678 22.5668,29.7088 C22.6428,29.8078 22.7158,29.9118 22.8038,30.0008 C22.8128,30.0098 22.9158,29.9258 22.9758,29.8848 M31.8338,34.6528 C31.7348,37.7198 34.1178,40.4108 36.9998,40.4868 C39.5328,40.5538 42.0568,37.9258 42.1518,35.1228 C42.2548,32.0738 39.8768,29.4018 36.9648,29.2918 C33.8968,29.1758 31.9448,31.2148 31.8338,34.6528 M36.1018,19.4618 C37.2188,17.9028 36.4588,16.9808 36.0978,16.0978 C33.5308,9.8298 38.4928,2.2098 45.2838,2.1278 C46.8678,2.1088 48.4598,2.3518 50.0398,2.5408 C53.5908,2.9628 55.3788,5.4398 56.1378,8.5158 C57.2618,13.0728 56.7758,17.5678 54.3868,21.7328 C53.8648,22.6438 53.3988,23.5058 52.0048,23.2568 C51.4148,23.1508 50.5778,23.5638 50.0938,24.0048 C49.7408,24.3258 49.6418,25.0998 49.7208,25.6298 C49.7488,25.8238 50.7068,26.1278 51.0798,25.9788 C52.4718,25.4208 53.9028,24.8478 55.1278,24.0038 C58.2308,21.8648 61.4958,21.1218 65.1158,22.3518 C65.7178,22.5568 66.3598,22.7558 66.8618,23.1228 C69.2898,24.9018 71.6798,26.7318 74.0748,28.5548 C75.1668,29.3858 75.7048,30.4578 75.6018,31.8758 C75.5378,32.7478 75.6448,33.6328 75.6938,34.5108 C75.8268,36.8968 74.6248,38.5698 72.5878,39.4588 C68.4708,41.2538 64.1928,42.5438 59.6518,42.7598 C58.1488,42.8318 56.7678,42.7588 55.9078,41.2458 C55.7198,40.9158 55.3608,40.6578 55.0348,40.4358 C52.7418,38.8788 50.4378,37.3398 48.0858,35.7598 C48.2258,37.0448 48.2258,37.0448 51.0178,39.4348 C50.5718,39.5718 50.1638,39.6978 49.5198,39.8968 C49.8558,40.4558 50.0168,41.0388 50.3978,41.2978 C51.6458,42.1488 52.8858,43.1878 54.2918,43.5978 C57.2308,44.4568 58.2378,46.6008 58.7608,49.2408 C58.8688,49.7878 58.9238,50.3468 59.0318,50.8948 C60.1578,56.5998 56.1908,60.7998 50.4118,60.0788 C49.5668,59.9738 48.6708,60.1388 47.8148,60.2798 C45.7258,60.6248 43.7468,60.3178 42.1878,58.8838 C39.1788,56.1168 36.5468,53.0138 35.0028,49.1638 C34.5188,47.9558 34.3448,46.6248 34.0278,45.3498 C33.8398,45.3068 33.6518,45.2648 33.4638,45.2228 C33.2158,45.7708 32.7408,46.3328 32.7698,46.8658 C32.8218,47.7978 32.9778,48.8418 33.4578,49.6088 C34.4508,51.1948 33.9328,52.2438 32.6878,53.3048 C30.9308,54.8038 29.3728,56.5818 27.4748,57.8608 C24.0968,60.1368 20.8168,59.9868 17.7928,57.3088 C16.6338,56.2828 15.9158,54.5548 15.4428,53.0098 C14.8398,51.0398 14.6968,48.9298 14.3388,46.8838 C14.0978,45.5078 14.5448,44.6418 15.9108,44.0778 C17.3058,43.5038 18.6368,42.7318 19.8998,41.9008 C20.6108,41.4338 21.1298,40.6738 21.7348,40.0448 L21.3308,39.5038 C20.8008,39.7108 20.2578,39.8888 19.7448,40.1318 C18.0238,40.9488 16.2728,41.7148 14.6098,42.6388 C12.3948,43.8698 10.1088,43.4978 7.8298,43.1018 C5.6418,42.7218 4.1228,41.1608 2.9628,39.4928 C1.5338,37.4388 1.8778,35.8498 3.4928,33.7988 C4.5768,32.4248 5.6008,31.0038 6.6768,29.6238 C8.9998,26.6468 13.3458,26.1978 16.8528,28.5068 C17.9338,29.2188 19.0978,29.8078 20.2238,30.4528 C20.3668,30.2888 20.5108,30.1248 20.6548,29.9608 C20.4178,29.5438 20.2698,29.0238 19.9278,28.7308 C19.0218,27.9548 18.0198,27.2908 17.0768,26.5568 C14.6808,24.6938 13.4718,22.2958 13.9838,19.2278 C14.5628,15.7618 15.2228,12.3098 15.8528,8.8528 C16.1028,7.4808 17.0338,6.7768 18.3228,6.5888 C24.4178,5.7008 29.2698,6.9978 32.9398,13.2068 C34.0608,15.1028 34.9388,17.1428 36.1018,19.4618" id="Fill-13" fill="#40641C" class="icon__color"></path>
            <path d="M52.7577,40.4294 C53.0547,40.6714 53.3527,40.9124 53.6497,41.1544 C53.5747,41.2444 53.4997,41.3344 53.4247,41.4234 C53.1307,41.1744 52.8367,40.9244 52.5427,40.6744 C52.6147,40.5924 52.6857,40.5114 52.7577,40.4294" id="Fill-15" fill="#FFFFFF"></path>
            <path d="M36.9341,32.1621 C37.2621,31.7131 37.5851,31.2701 37.9921,30.7131 C36.4461,30.2781 35.7711,30.5241 34.8361,31.9161 C33.9221,33.2761 33.2581,34.3941 33.5851,35.9581 C33.8921,37.4311 35.7221,38.5441 37.2591,38.2901 C38.9491,38.0101 40.5691,36.1711 40.4611,34.6561 C40.3541,33.1581 39.6581,32.6681 37.4431,32.5051 C37.3151,32.4961 37.1981,32.3451 36.9341,32.1621 M31.8341,34.6521 C31.9451,31.2151 33.8961,29.1761 36.9651,29.2921 C39.8771,29.4011 42.2551,32.0741 42.1521,35.1231 C42.0571,37.9251 39.5331,40.5541 37.0001,40.4871 C34.1181,40.4111 31.7351,37.7201 31.8341,34.6521" id="Fill-17" fill="#000000"></path>
            <path d="M22.9754,29.8851 C22.9154,29.9261 22.8134,30.0101 22.8034,30.0011 C22.7154,29.9121 22.6434,29.8081 22.5664,29.7081 C22.6254,29.6681 22.7284,29.5841 22.7374,29.5931 C22.8264,29.6811 22.8984,29.7851 22.9754,29.8851" id="Fill-19" fill="#000000"></path>
            <path d="M36.9341,32.1621 C37.1981,32.3451 37.3151,32.4961 37.4431,32.5051 C39.6581,32.6681 40.3541,33.1581 40.4611,34.6561 C40.5691,36.1711 38.9491,38.0101 37.2591,38.2901 C35.7221,38.5441 33.8921,37.4311 33.5851,35.9581 C33.2581,34.3941 33.9221,33.2761 34.8361,31.9161 C35.7711,30.5241 36.4461,30.2781 37.9921,30.7131 C37.5851,31.2701 37.2621,31.7131 36.9341,32.1621" id="Fill-21" fill="#FFFFFF"></path>
        </g>
    </g>
</svg>
