<svg width="37px" height="50px" viewBox="321 427 37 50" version="1.1" xmlns="http://www.w3.org/2000/svg" xmlns:xlink="http://www.w3.org/1999/xlink">
    <defs></defs>
    <g id="Group" stroke="none" stroke-width="1" fill="none" fill-rule="evenodd" transform="translate(322.000000, 427.000000)">
        <g id="Group-32">
            <path d="M14.0948,39.3898 C13.8518,39.5918 13.6178,39.7028 13.6258,39.7918 C13.8378,42.0728 14.0048,44.3628 14.3498,46.6258 C14.4668,47.3978 15.2798,47.6628 16.0808,47.5688 C17.2698,47.4288 18.4568,47.2648 19.6478,47.1348 C20.6068,47.0298 21.1188,46.4858 21.0938,45.5568 C21.0298,43.1658 20.9368,40.7738 20.7768,38.3878 C20.7528,38.0258 20.3128,37.6908 19.9168,37.1378 C19.3878,38.0378 19.0228,38.7198 18.6018,39.3638 C17.6178,40.8698 16.9758,41.0168 15.4448,40.1448 C14.9818,39.8808 14.5138,39.6238 14.0948,39.3898 M32.7608,30.0718 C32.1028,27.4818 29.3508,26.7348 28.5238,24.4218 C30.2508,23.4358 32.3308,24.8838 33.8218,23.4388 C32.5778,20.8668 29.0188,21.6088 27.7198,18.9468 C28.3918,18.5948 28.9588,18.2968 29.5738,17.9748 C27.7308,16.0658 26.0328,14.2868 24.3068,12.5348 C23.9758,12.1988 23.5628,11.9188 23.1428,11.6978 C20.2728,10.1848 17.9888,8.0228 16.0938,5.4188 C15.7368,4.9278 15.3538,4.4558 14.8138,3.7558 C12.4108,7.4668 10.2928,11.1028 7.0088,13.8618 C7.8628,13.5608 8.7178,13.2598 9.6918,12.9158 C9.8028,13.3778 10.0288,13.7628 9.9188,13.9448 C8.6528,16.0308 7.3358,18.0848 6.0208,20.1678 C6.9158,20.6958 8.0758,19.1578 9.1788,20.5548 C8.1278,23.7008 5.3808,25.8488 3.5488,28.6148 C4.1868,28.5128 4.6908,28.2988 5.1868,28.0688 C5.9118,27.7318 6.6878,27.2338 7.3518,28.0468 C7.9478,28.7758 7.3498,29.4028 6.9198,29.9638 C5.7528,31.4828 4.5358,32.9638 3.3848,34.4948 C2.9408,35.0858 2.3408,35.6818 2.6378,36.8098 C3.9628,36.3358 5.1358,35.9168 6.5978,35.3938 C7.1228,36.7238 7.6418,38.0388 8.1968,39.4458 C8.5888,39.1208 8.7898,38.9888 8.9468,38.8168 C9.1618,38.5818 9.3288,38.3028 9.5418,38.0658 C11.6628,35.7038 12.5448,35.6598 14.8938,37.7398 C15.4528,38.2348 16.0708,38.6638 16.8148,39.2418 C17.2978,38.3038 17.6148,37.6728 17.9448,37.0488 C18.7048,35.6088 19.1528,35.4198 20.5988,36.0478 C21.2538,36.3328 21.8368,36.7848 22.4908,37.0738 C23.4058,37.4778 24.3568,37.7998 25.6398,38.2898 L25.6398,34.3948 C27.8788,33.9208 29.7898,35.5858 31.9958,34.6828 C31.1568,33.3268 30.4298,32.1518 29.5458,30.7248 C30.7938,30.4708 31.6918,30.2888 32.7608,30.0718 M7.0108,15.7358 C5.4588,15.8728 4.1868,15.9848 2.9138,16.0978 C2.8358,15.9298 2.7578,15.7628 2.6788,15.5948 C3.5778,14.6738 4.3568,13.5788 5.3968,12.8628 C8.8078,10.5168 10.9238,7.1558 12.9768,3.7088 C13.5668,2.7178 14.2928,1.8078 15.1458,0.5908 C15.5988,1.4248 15.8828,1.8768 16.0998,2.3588 C17.7098,5.9278 20.1128,8.6748 23.9088,10.0198 C24.3428,10.1738 24.8138,10.3898 25.1208,10.7158 C26.9728,12.6828 28.7858,14.6878 30.6048,16.6868 C31.0338,17.1598 31.4748,17.6318 31.8348,18.1558 C32.3918,18.9678 32.1418,19.5198 30.6318,19.7438 C32.0158,20.3538 32.9738,20.7038 33.8578,21.1908 C34.4618,21.5228 35.1178,21.9448 35.4778,22.5038 C36.2978,23.7758 35.8338,24.8858 34.3808,25.2388 C33.4658,25.4608 32.5028,25.4818 31.2708,25.6288 C31.8768,26.2948 32.3818,26.8458 32.8818,27.4028 C33.3608,27.9378 33.8948,28.4368 34.2948,29.0258 C35.0488,30.1358 34.9258,30.6958 33.8438,31.4118 C33.4578,31.6668 33.0128,31.8338 32.4528,32.1108 C32.8068,32.7558 33.1348,33.2758 33.3868,33.8288 C34.1288,35.4608 33.6578,36.3178 31.8938,36.3488 C30.3958,36.3748 28.8948,36.2158 27.2588,36.1308 C27.2058,36.8698 27.2048,37.5718 27.0958,38.2568 C26.8918,39.5268 26.3498,39.9008 25.1038,39.6518 C24.4148,39.5148 23.7438,39.2908 22.8248,39.0398 C22.7378,39.8048 22.6148,40.3968 22.6128,40.9908 C22.6078,42.6688 22.7378,44.3508 22.6538,46.0238 C22.5588,47.9288 21.8928,48.5738 19.9978,48.7518 C18.3278,48.9078 16.6458,48.9358 14.9728,49.0678 C13.7838,49.1618 13.1458,48.5818 12.9618,47.4908 C12.6308,45.5228 12.3858,43.5408 12.0548,41.5738 C11.9118,40.7248 11.6438,39.8968 11.3608,38.7728 C9.9788,39.9088 8.7988,40.8778 7.6148,41.8508 C6.0928,40.7588 6.5838,39.0128 5.6368,37.7668 C3.9148,37.7578 2.0568,38.9938 -0.0002,37.6318 C1.2488,35.0488 2.8128,32.7328 4.7378,30.4608 C3.0468,30.0508 1.6308,31.4418 0.2038,30.6048 C-0.2292,29.6598 0.4438,29.2288 0.9228,28.7228 C2.2968,27.2728 3.6958,25.8478 5.0368,24.3688 C5.5548,23.7958 5.9418,23.1038 6.6088,22.1528 C4.7898,22.2438 3.3598,22.3158 2.0378,22.3828 C1.5238,21.3358 2.0998,21.0128 2.5918,20.5808 C3.8458,19.4778 5.0748,18.3448 6.2638,17.1728 C6.5688,16.8728 6.6858,16.3818 7.0108,15.7358" id="Fill-102" fill="#000000"></path>
            <path d="M32.761,30.0716 C31.691,30.2886 30.793,30.4716 29.546,30.7246 C30.429,32.1516 31.156,33.3266 31.996,34.6826 C29.789,35.5866 27.879,33.9206 25.64,34.3956 L25.64,38.2896 C24.357,37.7996 23.406,37.4776 22.491,37.0736 C21.837,36.7846 21.254,36.3326 20.598,36.0476 C19.153,35.4196 18.705,35.6086 17.945,37.0486 C17.615,37.6726 17.297,38.3036 16.815,39.2416 C16.07,38.6636 15.453,38.2346 14.894,37.7396 C12.545,35.6596 11.663,35.7036 9.542,38.0656 C9.329,38.3026 9.161,38.5816 8.946,38.8166 C8.79,38.9886 8.589,39.1206 8.197,39.4456 C7.642,38.0396 7.123,36.7246 6.598,35.3946 C5.136,35.9166 3.963,36.3356 2.637,36.8096 C2.34,35.6816 2.941,35.0856 3.385,34.4946 C4.536,32.9636 5.753,31.4826 6.92,29.9636 C7.35,29.4026 7.947,28.7756 7.352,28.0466 C6.688,27.2346 5.912,27.7316 5.187,28.0686 C4.691,28.2986 4.186,28.5126 3.548,28.6146 C5.381,25.8496 8.128,23.7006 9.179,20.5546 C8.076,19.1576 6.916,20.6956 6.021,20.1676 C7.336,18.0856 8.653,16.0306 9.918,13.9456 C10.029,13.7636 9.803,13.3776 9.692,12.9166 C8.717,13.2596 7.863,13.5606 7.009,13.8616 C10.293,11.1026 12.41,7.4666 14.814,3.7556 C15.354,4.4556 15.737,4.9276 16.094,5.4186 C17.989,8.0236 20.273,10.1846 23.143,11.6976 C23.563,11.9186 23.975,12.1986 24.307,12.5346 C26.033,14.2866 27.731,16.0656 29.574,17.9746 C28.959,18.2966 28.391,18.5946 27.719,18.9466 C29.018,21.6086 32.578,20.8666 33.822,23.4386 C32.331,24.8836 30.251,23.4356 28.524,24.4216 C29.351,26.7356 32.103,27.4816 32.761,30.0716" id="Fill-104" fill="#40641C" class="icon__color"></path>
            <path d="M14.0948,39.3898 C14.5138,39.6238 14.9818,39.8808 15.4448,40.1448 C16.9758,41.0168 17.6178,40.8698 18.6018,39.3638 C19.0228,38.7198 19.3878,38.0378 19.9168,37.1378 C20.3128,37.6908 20.7528,38.0258 20.7768,38.3878 C20.9368,40.7738 21.0298,43.1658 21.0938,45.5568 C21.1188,46.4858 20.6068,47.0298 19.6478,47.1348 C18.4568,47.2648 17.2698,47.4288 16.0808,47.5688 C15.2798,47.6628 14.4668,47.3978 14.3498,46.6258 C14.0048,44.3628 13.8378,42.0728 13.6258,39.7918 C13.6178,39.7028 13.8518,39.5918 14.0948,39.3898" id="Fill-106" fill="#FFFFFF"></path>
        </g>
    </g>
</svg>
