<svg width="40px" height="75px" viewBox="600 299 40 75" version="1.1" xmlns="http://www.w3.org/2000/svg" xmlns:xlink="http://www.w3.org/1999/xlink">
    <defs></defs>
    <g id="Group" stroke="none" stroke-width="1" fill="none" fill-rule="evenodd" transform="translate(600.000000, 299.000000)">
        <g id="Group-25">
            <path d="M7.8636,7.8673 C9.2376,9.2653 9.6356,11.7493 8.8946,13.9053 C7.4996,11.9583 7.6806,10.0763 7.8636,7.8673" id="Fill-300" fill="#000000"></path>
            <g id="Group-320" transform="translate(0.000000, 0.078000)">
                <path d="M30.1106,33.4054 C28.5906,32.9854 27.4606,33.1954 26.1106,34.2554 C27.7206,34.4554 28.9806,34.8554 30.1106,33.4054 M30.7606,31.3954 C30.7606,30.1054 30.8806,28.9154 30.7206,27.7654 C30.5706,26.6954 29.9306,25.6054 28.7606,25.6654 C27.0606,25.7654 25.0006,24.8454 23.8006,26.9554 C23.7206,27.0954 23.6406,27.2354 23.5906,27.3854 C23.2506,28.4154 23.9006,31.3454 24.7306,32.4054 C25.1106,30.7154 24.8206,28.7154 27.1106,27.6754 L27.1106,31.9854 C28.3506,31.7854 29.4906,31.5954 30.7606,31.3954 M30.7906,48.9354 C31.9506,48.1254 32.5506,47.1854 32.3206,45.7254 C31.9106,43.0454 31.5906,40.3554 31.1706,37.6754 C31.0906,37.1554 30.7706,36.6854 30.5106,36.1054 C29.7806,36.2254 29.1306,36.2254 28.5506,36.4254 C25.5406,37.5154 22.4606,37.4454 19.3306,37.1454 C14.1806,36.6454 9.0206,36.2554 3.3806,35.7754 C3.5406,37.0554 3.6206,37.9954 3.7906,38.9054 C4.2506,41.4954 4.9306,44.0554 5.1806,46.6554 C5.4006,48.9754 6.6206,50.0554 8.6806,50.5254 C9.2206,50.6554 9.7806,50.7154 10.3306,50.7654 C13.1806,51.0454 16.0406,51.3654 18.9006,51.5654 C23.1106,51.8654 27.1806,51.4454 30.7906,48.9354 M32.7206,31.8154 C34.9206,29.6654 34.8206,28.6354 32.3006,26.7354 C32.4406,28.4554 32.5706,30.0454 32.7206,31.8154 M33.6506,68.5254 C36.9106,65.8154 36.7406,67.1554 35.5906,63.2254 C35.5306,63.0154 35.3306,62.8554 35.1306,62.5954 C33.8506,63.0454 32.6106,63.5854 31.3106,63.9154 C25.2006,65.4854 19.0006,65.4254 12.8006,64.5454 C11.2306,64.3254 9.6806,63.8854 8.1606,63.4354 C7.5506,63.2554 7.0306,62.7654 6.4706,62.4154 C6.9206,61.9854 7.2506,61.8454 7.5106,61.9254 C10.0406,62.7154 12.6206,63.0954 15.2506,63.4054 C20.3006,64.0154 25.2806,63.7554 30.2306,62.7254 C31.9406,62.3754 33.5706,61.7154 34.9606,60.6354 C34.6306,58.9754 34.3106,57.4154 34.0006,55.8554 C33.7006,54.3254 33.4006,52.7854 33.0606,51.0754 C23.9506,54.7354 14.9406,52.9554 5.9306,51.7254 C5.8306,52.0454 5.7006,52.2654 5.7106,52.4854 C5.7406,55.7954 5.8006,59.1154 5.8406,62.4254 C5.8606,64.0554 5.8706,65.6854 5.8706,67.3154 C5.8706,68.5554 6.3506,69.2954 7.3806,69.7754 C8.1006,70.1054 8.8506,70.4154 9.6106,70.6554 C14.7206,72.2154 19.9906,72.6154 25.2606,72.2254 C28.0106,72.0254 31.1106,71.9554 32.8406,69.0054 C32.9806,68.7754 33.4106,68.7254 33.6506,68.5254 M39.3706,70.1454 C39.4506,70.3554 39.4506,70.6154 39.4106,70.8354 C39.3906,70.9654 39.2206,71.0654 39.0506,71.2354 C37.5006,70.8754 37.8006,69.1654 36.7506,68.0854 C36.1706,68.6554 35.5306,69.1954 34.9906,69.8254 C33.8106,71.2054 32.3306,72.0954 30.6406,72.6854 C27.8106,73.6554 24.9006,74.1754 21.9206,73.9054 C18.5106,73.5954 15.1106,73.1754 11.7306,72.6254 C10.1706,72.3654 8.6806,71.7354 7.1706,71.2154 C5.3606,70.5854 4.6006,69.2254 4.5906,67.3354 C4.5606,62.6254 4.6506,57.8954 4.3906,53.1954 C4.2006,49.7054 3.6206,46.2254 3.0706,42.7654 C2.6406,40.0254 1.8606,37.3354 2.1406,34.4854 C3.0706,33.7154 4.0606,33.5054 5.1606,33.7354 C5.8106,34.7054 6.6906,35.3854 7.9506,35.4254 C7.9506,35.2754 7.9906,35.0954 7.9206,34.9754 C7.8706,34.8854 7.7906,34.7054 7.7006,34.4554 C8.1006,34.5354 8.5006,34.5954 8.9006,34.6354 C13.0306,35.0454 17.1706,35.3954 21.3106,35.7354 C22.1806,35.8054 23.0606,35.7454 24.4806,35.7454 C21.0806,33.7354 19.5106,30.3254 20.1006,26.6954 C21.2406,26.6054 22.1406,26.1054 22.8406,24.9854 C23.2906,24.2754 24.3406,23.8554 25.2006,23.4854 C26.8906,22.7554 27.0106,22.6754 26.7906,20.8854 C26.4906,18.4854 25.7906,16.2054 24.6006,14.0854 C22.7606,10.7854 20.5006,7.7854 17.9006,5.0654 C14.6506,1.6654 8.9706,1.5554 5.5506,4.7554 C4.1406,6.0854 3.7006,7.9154 3.2906,9.6954 C2.6106,12.6554 2.2506,15.6554 2.2706,18.7154 C2.3106,23.0854 3.2806,27.0954 6.1006,30.5354 C6.4006,30.8854 7.2406,33.3254 7.7006,34.4554 C7.0906,34.3454 6.4906,34.1854 5.9106,33.9654 C5.6506,33.8654 5.4006,33.7954 5.1606,33.7354 C4.3906,32.5954 3.9406,31.0454 3.5506,29.6454 C3.1906,28.3554 2.5406,27.1354 2.0906,25.8654 C0.5806,21.5954 0.8706,17.1954 1.3106,12.8254 C1.4706,11.1654 1.8906,9.5154 2.3406,7.9054 C3.6606,3.1254 7.9306,0.3854 12.9106,0.9454 C15.1606,1.1954 17.0706,2.1154 18.6206,3.6854 C21.9506,7.0554 24.7806,10.8154 26.8006,15.1254 C27.9706,17.6254 28.4806,20.2854 28.3906,23.2154 C29.4906,23.7754 30.6106,24.3454 31.7506,24.9154 C32.3206,25.1954 32.9406,25.3954 33.4806,25.7354 C36.0406,27.3554 36.5106,29.1454 35.0806,31.8154 C34.7406,32.4454 34.4006,33.1454 33.8706,33.5854 C32.2806,34.8854 32.2206,36.4954 32.5706,38.3154 C32.9506,40.3554 32.8306,42.5654 33.5806,44.4454 C34.4406,46.6054 34.1606,48.7854 34.5306,50.9354 C35.6506,57.4654 36.9606,63.9454 39.3706,70.1454" id="Fill-302" fill="#000000"></path>
                <path d="M35.5906,63.2254 C36.7406,67.1554 36.9106,65.8154 33.6506,68.5254 C33.4106,68.7254 32.9806,68.7754 32.8406,69.0054 C31.1106,71.9554 28.0106,72.0254 25.2606,72.2254 C19.9906,72.6154 14.7206,72.2154 9.6106,70.6554 C8.8506,70.4154 8.1006,70.1054 7.3806,69.7754 C6.3506,69.2954 5.8706,68.5554 5.8706,67.3154 C5.8706,65.6854 5.8606,64.0554 5.8406,62.4254 L6.4706,62.4154 C7.0306,62.7654 7.5506,63.2554 8.1606,63.4354 C9.6806,63.8854 11.2306,64.3254 12.8006,64.5454 C19.0006,65.4254 25.2006,65.4854 31.3106,63.9154 C32.6106,63.5854 33.8506,63.0454 35.1306,62.5954 C35.3306,62.8554 35.5306,63.0154 35.5906,63.2254" id="Fill-304" fill="#FFFFFF"></path>
                <path d="M34.0006,55.8554 C34.3106,57.4154 34.6306,58.9754 34.9606,60.6354 C33.5706,61.7154 31.9406,62.3754 30.2306,62.7254 C25.2806,63.7554 20.3006,64.0154 15.2506,63.4054 C12.6206,63.0954 10.0406,62.7154 7.5106,61.9254 C7.2506,61.8454 6.9206,61.9854 6.4706,62.4154 L5.8406,62.4254 C5.8006,59.1154 5.7406,55.7954 5.7106,52.4854 C5.7006,52.2654 5.8306,52.0454 5.9306,51.7254 C14.9406,52.9554 23.9506,54.7354 33.0606,51.0754 C33.4006,52.7854 33.7006,54.3254 34.0006,55.8554" id="Fill-306" fill="#FFFFFF"></path>
                <path d="M32.3006,26.7354 C34.8206,28.6354 34.9206,29.6654 32.7206,31.8154 C32.5706,30.0454 32.4406,28.4554 32.3006,26.7354" id="Fill-308" fill="#40641C" class="icon__color"></path>
                <path d="M32.3206,45.7254 C32.5506,47.1854 31.9506,48.1254 30.7906,48.9354 C27.1806,51.4454 23.1106,51.8654 18.9006,51.5654 C16.0406,51.3654 13.1806,51.0454 10.3306,50.7654 C9.7806,50.7154 9.2206,50.6554 8.6806,50.5254 C6.6206,50.0554 5.4006,48.9754 5.1806,46.6554 C4.9306,44.0554 4.2506,41.4954 3.7906,38.9054 C3.6206,37.9954 3.5406,37.0554 3.3806,35.7754 C9.0206,36.2554 14.1806,36.6454 19.3306,37.1454 C22.4606,37.4454 25.5406,37.5154 28.5506,36.4254 C29.1306,36.2254 29.7806,36.2254 30.5106,36.1054 C30.7706,36.6854 31.0906,37.1554 31.1706,37.6754 C31.5906,40.3554 31.9106,43.0454 32.3206,45.7254" id="Fill-310" fill="#FFFFFF"></path>
                <path d="M30.7206,27.7654 C30.8806,28.9154 30.7606,30.1054 30.7606,31.3954 C29.4906,31.5954 28.3506,31.7854 27.1106,31.9854 L27.1106,27.6754 C24.8206,28.7154 25.1106,30.7154 24.7306,32.4054 C23.9006,31.3454 23.2506,28.4154 23.5906,27.3854 C23.6406,27.2354 23.7206,27.0954 23.8006,26.9554 C25.0006,24.8454 27.0606,25.7654 28.7606,25.6654 C29.9306,25.6054 30.5706,26.6954 30.7206,27.7654" id="Fill-312" fill="#40641C" class="icon__color"></path>
                <path d="M26.1106,34.2554 C27.4606,33.1954 28.5906,32.9854 30.1106,33.4054 C28.9806,34.8554 27.7206,34.4554 26.1106,34.2554" id="Fill-314" fill="#40641C" class="icon__color"></path>
                <path d="M26.7906,20.8854 C27.0106,22.6754 26.8906,22.7554 25.2006,23.4854 C24.3406,23.8554 23.2906,24.2754 22.8406,24.9854 C22.1406,26.1054 21.2406,26.6054 20.1006,26.6954 C19.5106,30.3254 21.0806,33.7354 24.4806,35.7454 C23.0606,35.7454 22.1806,35.8054 21.3106,35.7354 C17.1706,35.3954 13.0306,35.0454 8.9006,34.6354 C8.5006,34.5954 8.1006,34.5354 7.7006,34.4554 C7.2406,33.3254 6.4006,30.8854 6.1006,30.5354 C3.2806,27.0954 2.3106,23.0854 2.2706,18.7154 C2.2506,15.6554 2.6106,12.6554 3.2906,9.6954 C3.7006,7.9154 4.1406,6.0854 5.5506,4.7554 C8.9706,1.5554 14.6506,1.6654 17.9006,5.0654 C20.5006,7.7854 22.7606,10.7854 24.6006,14.0854 C25.7906,16.2054 26.4906,18.4854 26.7906,20.8854" id="Fill-316" fill="#40641C" class="icon__color"></path>
                <path d="M7.9206,34.9754 C7.9906,35.0954 7.9506,35.2754 7.9506,35.4254 C6.6906,35.3854 5.8106,34.7054 5.1606,33.7354 C5.4006,33.7954 5.6506,33.8654 5.9106,33.9654 C6.4906,34.1854 7.0906,34.3454 7.7006,34.4554 C7.7906,34.7054 7.8706,34.8854 7.9206,34.9754" id="Fill-318" fill="#000000"></path>
            </g>
            <path d="M12.0941,26.7346 C12.0281,28.3126 10.9531,29.2996 9.7481,30.1366 C9.5061,30.3046 8.8801,30.0866 8.5451,29.8706 C8.4261,29.7936 8.5181,29.0516 8.7341,28.8546 C9.6541,28.0166 10.6571,27.2696 11.6301,26.4886 C11.7841,26.5706 11.9391,26.6526 12.0941,26.7346" id="Fill-321" fill="#000000"></path>
            <path d="M13.3016,19.5969 C14.4806,17.9929 15.6346,17.2129 17.8246,17.1979 C17.2526,17.9819 17.0506,18.4919 16.6766,18.7249 C15.7926,19.2759 14.9166,20.0229 13.3016,19.5969" id="Fill-323" fill="#000000"></path>
        </g>
    </g>
</svg>
