<svg width="55px" height="24px" viewBox="497 524 55 24" version="1.1" xmlns="http://www.w3.org/2000/svg" xmlns:xlink="http://www.w3.org/1999/xlink">
    <defs></defs>
    <g id="Group" stroke="none" stroke-width="1" fill="none" fill-rule="evenodd" transform="translate(497.000000, 524.000000)">
        <g id="Group-27" transform="translate(0.000000, 0.053656)">
            <path d="M49.6383,2.8327 C48.0883,1.9437 46.4653,1.7807 44.8163,1.7667 C40.1083,1.7257 35.4633,2.3437 30.8073,2.9617 C25.3953,3.6787 20.4093,5.5507 15.9403,8.5607 C13.0663,10.4967 10.5773,13.0057 7.9263,15.2717 C7.8663,15.3227 7.9453,15.5357 7.9663,15.7457 C9.4633,15.2177 10.9433,14.6887 12.4283,14.1747 C15.3633,13.1567 18.3573,12.2817 21.2253,11.1007 C25.4983,9.3407 29.6413,7.2627 33.9183,5.5117 C38.4483,3.6567 43.1263,2.3647 48.1263,2.9917 C48.6163,3.0537 49.1333,2.8917 49.6383,2.8327 M0.3353,22.7647 C0.6563,22.2627 0.9173,21.7057 1.3113,21.2697 C2.1133,20.3837 2.9073,19.4567 3.8503,18.7377 C5.5623,17.4327 6.5283,15.5337 7.9223,13.9907 C9.3613,12.3977 10.9613,10.9387 12.5743,9.5157 C15.4933,6.9417 18.9383,5.2947 22.5623,3.9427 C26.8673,2.3357 31.2973,1.4187 35.8743,1.1097 C37.6263,0.9917 39.3633,0.6527 41.1153,0.5197 C45.3953,0.1967 49.5343,1.2657 53.7153,1.9027 C53.9133,1.9327 54.0823,2.1587 54.3713,2.3727 C53.7463,3.5007 52.7233,3.4267 51.7093,3.4877 C46.9973,3.7727 42.2553,4.1477 37.7943,5.7147 C33.3673,7.2697 29.1133,9.3167 24.7773,11.1347 C22.7933,11.9657 20.8523,12.9717 18.7913,13.5317 C14.9193,14.5837 11.1623,15.9047 7.6053,17.7377 C6.5093,18.3027 5.5263,19.1777 4.6593,20.0727 C3.5433,21.2237 2.5353,22.1177 0.3353,22.7647" id="Fill-210" fill="#000000"></path>
            <path d="M49.6383,2.8327 C49.1333,2.8917 48.6163,3.0537 48.1263,2.9917 C43.1263,2.3647 38.4483,3.6567 33.9183,5.5117 C29.6413,7.2627 25.4983,9.3407 21.2253,11.1007 C18.3573,12.2817 15.3633,13.1567 12.4283,14.1747 C10.9433,14.6887 9.4633,15.2177 7.9663,15.7457 C7.9453,15.5357 7.8663,15.3227 7.9263,15.2717 C10.5773,13.0057 13.0663,10.4967 15.9403,8.5607 C20.4093,5.5507 25.3953,3.6787 30.8073,2.9617 C35.4633,2.3437 40.1083,1.7257 44.8163,1.7667 C46.4653,1.7807 48.0883,1.9437 49.6383,2.8327" id="Fill-212" fill="#40641C" class="icon__color"></path>
        </g>
    </g>
</svg>
