<svg width="48px" height="69px" viewBox="388 84 48 69" version="1.1" xmlns="http://www.w3.org/2000/svg" xmlns:xlink="http://www.w3.org/1999/xlink">
    <defs></defs>
    <g id="Group" stroke="none" stroke-width="1" fill="none" fill-rule="evenodd" transform="translate(388.000000, 84.000000)">
        <g id="Group-23" transform="translate(0.598500, 0.538700)">
            <path d="M30.1089,66.499 C34.8919,66.374 38.7859,64.794 42.3449,62.4 C43.8469,61.39 44.5999,59.748 44.8059,57.915 C44.8779,57.28 44.8569,56.622 45.0249,56.015 C45.3809,54.733 45.1399,53.619 44.2009,52.713 C43.5759,52.11 43.3929,51.481 43.4089,50.606 C43.4419,48.835 42.9909,47.152 42.1479,45.556 C41.7099,44.726 41.5009,43.769 41.2409,42.854 C40.3929,39.877 39.7009,36.859 38.0019,34.181 C37.5729,33.506 37.3619,32.472 37.5099,31.69 C37.9609,29.315 36.8359,27.404 35.6769,25.67 C33.9459,23.08 32.0269,20.656 31.8799,17.37 C31.8729,17.215 31.8439,17.026 31.7509,16.914 C30.0209,14.83 29.7169,12.165 28.7499,9.77 C28.1209,8.212 27.4299,6.723 27.1709,5.042 C27.0669,4.364 26.7369,3.662 26.3309,3.101 C25.5829,2.066 23.4079,2.126 23.0899,3.212 C22.7289,4.441 22.5799,5.7 21.4319,6.526 C21.2969,6.623 21.2599,6.988 21.3129,7.194 C21.6629,8.542 20.8499,9.498 20.2059,10.486 C18.3619,13.314 16.9499,16.295 16.4409,19.683 C16.3049,20.593 15.7239,21.431 15.3829,22.317 C14.9869,23.348 14.4059,24.375 14.3139,25.439 C14.1969,26.789 13.7349,27.868 12.9749,28.942 C12.4869,29.632 11.9229,30.499 11.9389,31.276 C12.0099,34.543 9.9459,36.552 7.8369,38.471 C6.8919,39.33 6.1489,40.1 6.0839,41.416 C6.0299,42.496 5.6499,43.522 4.7219,44.099 C3.4629,44.882 3.2909,45.861 3.6939,47.171 C3.9899,48.132 3.8869,49.07 3.0149,49.781 C2.2929,50.369 2.1979,51.173 2.5229,51.958 C3.2079,53.608 1.8169,55.451 3.0389,57.046 C3.1189,57.15 2.9269,57.482 2.8349,57.696 C2.1079,59.393 2.1209,59.972 3.6419,60.718 C6.4149,62.078 9.1799,63.583 12.4049,63.628 C13.7759,63.647 15.1129,63.764 16.3129,64.547 C16.6359,64.758 17.0479,64.891 17.4349,64.94 C21.7909,65.49 26.1499,66.016 30.1089,66.499 M30.1329,67.837 C25.9239,67.249 21.3899,67.035 17.1029,65.893 C13.1169,64.832 8.8869,64.679 5.1129,62.78 C3.6049,62.021 2.0209,61.415 1.1599,59.833 C0.9419,59.431 0.6379,58.855 0.7719,58.517 C1.6779,56.226 1.3129,53.886 1.1049,51.572 C0.9759,50.137 1.9889,49.249 2.3409,48.095 C2.6619,47.041 1.8009,45.771 2.4709,44.61 C2.5509,44.472 2.5929,44.289 2.7079,44.197 C4.2369,42.989 4.9879,41.426 5.1419,39.474 C5.1829,38.946 5.7279,38.266 6.2259,37.999 C8.1039,36.992 8.8759,35.056 10.1279,33.539 C10.5299,33.052 10.6249,32.189 10.6059,31.505 C10.5669,30.139 10.9749,28.978 11.8649,27.992 C12.6499,27.122 13.0329,26.152 13.1369,24.976 C13.2119,24.12 13.4309,23.192 13.8719,22.47 C14.7749,20.993 14.9919,19.348 15.4509,17.744 C16.1499,15.305 16.9509,12.877 18.4239,10.746 C19.2359,9.572 20.1539,8.444 19.9199,6.826 C19.8639,6.44 20.2619,5.976 20.4839,5.565 C20.7829,5.012 21.2959,4.508 21.3959,3.927 C21.6519,2.434 22.4209,1.561 23.8169,0.955 C25.4029,0.268 25.9279,0.091 26.8839,1.357 C27.6239,2.335 28.2559,3.58 28.4079,4.774 C28.6379,6.584 29.3029,8.152 30.1459,9.698 C30.6459,10.615 30.9949,11.507 30.9819,12.629 C30.9739,13.394 31.5339,14.243 32.0279,14.918 C32.8529,16.046 33.5379,17.154 33.3939,18.637 C33.3509,19.087 33.4759,19.622 33.6999,20.017 C34.7209,21.811 35.8499,23.544 36.8519,25.347 C37.6249,26.739 38.3109,28.185 38.9429,29.647 C39.1119,30.037 39.0549,30.612 38.9079,31.036 C38.4939,32.235 38.7819,33.224 39.5809,34.14 C39.7879,34.379 39.9959,34.654 40.0889,34.949 C40.8469,37.364 41.6169,39.776 42.2959,42.214 C42.5729,43.207 42.5419,44.266 43.7359,44.78 C44.0829,44.93 44.3519,45.521 44.4429,45.954 C44.8009,47.66 45.7479,49.235 45.5299,51.078 C45.4779,51.511 45.6989,52.012 45.8959,52.433 C47.9689,56.864 45.7889,62.816 41.3459,64.698 C39.2189,65.598 37.0929,66.535 34.8899,67.205 C33.4639,67.639 31.9009,67.621 30.1329,67.837" id="Fill-132" fill="#000000"></path>
            <path d="M13.4526,48.2418 C13.2626,48.0998 12.9696,47.7618 12.6046,47.6388 C12.1756,47.4948 11.6816,47.4898 11.2196,47.5128 C10.8726,47.5308 10.5316,47.6878 10.1886,47.7838 C10.3246,48.1288 10.3646,48.6178 10.6186,48.7878 C11.1266,49.1268 11.7326,49.3678 12.3306,49.5088 C13.1476,49.7018 13.5056,49.3358 13.4526,48.2418 M26.0676,32.6968 C24.9706,31.9358 24.6276,31.0428 25.1666,29.8228 C25.3476,29.4148 25.2986,28.8958 25.3076,28.4268 C25.3096,28.3128 25.1296,28.1008 25.0296,28.0978 C24.8246,28.0938 24.4916,28.1408 24.4286,28.2708 C23.9456,29.2748 23.4416,30.3018 23.7926,31.4608 C24.0906,32.4458 24.9326,32.6948 26.0676,32.6968 M26.9276,57.0568 C28.1026,58.0958 29.1336,57.3098 30.1466,57.1708 C31.2376,57.0208 32.3416,56.9128 33.4076,56.6538 C34.4476,56.4018 35.3256,55.8468 35.9436,54.5588 C35.3266,54.6178 34.9616,54.5438 34.7496,54.6898 C33.2526,55.7208 31.5956,55.9998 29.8116,56.0628 C28.8686,56.0968 27.8476,56.3548 26.9276,57.0568 M30.1086,66.4988 C26.1496,66.0158 21.7906,65.4898 17.4346,64.9398 C17.0486,64.8918 16.6366,64.7578 16.3126,64.5468 C15.1126,63.7638 13.7756,63.6468 12.4046,63.6278 C9.1806,63.5828 6.4146,62.0778 3.6416,60.7178 C2.1206,59.9718 2.1076,59.3928 2.8346,57.6958 C2.9266,57.4818 3.1186,57.1498 3.0386,57.0458 C1.8166,55.4518 3.2076,53.6078 2.5226,51.9578 C2.1976,51.1738 2.2936,50.3688 3.0156,49.7808 C3.8876,49.0698 3.9896,48.1318 3.6936,47.1708 C3.2906,45.8608 3.4626,44.8818 4.7216,44.0988 C5.6506,43.5218 6.0296,42.4958 6.0836,41.4158 C6.1486,40.0998 6.8916,39.3298 7.8366,38.4708 C9.9466,36.5518 12.0096,34.5428 11.9396,31.2758 C11.9226,30.4998 12.4866,29.6318 12.9756,28.9418 C13.7346,27.8678 14.1976,26.7888 14.3136,25.4388 C14.4056,24.3748 14.9866,23.3478 15.3836,22.3168 C15.7236,21.4318 16.3046,20.5928 16.4416,19.6828 C16.9496,16.2958 18.3616,13.3148 20.2056,10.4868 C20.8506,9.4978 21.6626,8.5418 21.3126,7.1938 C21.2596,6.9878 21.2966,6.6228 21.4316,6.5258 C22.5796,5.6998 22.7286,4.4408 23.0896,3.2118 C23.4076,2.1268 25.5826,2.0658 26.3316,3.1008 C26.7376,3.6628 27.0666,4.3638 27.1716,5.0418 C27.4296,6.7238 28.1206,8.2118 28.7496,9.7698 C29.7176,12.1648 30.0206,14.8298 31.7506,16.9138 C31.8436,17.0258 31.8726,17.2148 31.8796,17.3708 C32.0266,20.6558 33.9456,23.0798 35.6766,25.6698 C36.8356,27.4038 37.9606,29.3158 37.5096,31.6898 C37.3616,32.4718 37.5726,33.5058 38.0016,34.1818 C39.7006,36.8588 40.3936,39.8778 41.2406,42.8538 C41.5006,43.7688 41.7096,44.7268 42.1476,45.5558 C42.9906,47.1518 43.4426,48.8348 43.4096,50.6058 C43.3926,51.4808 43.5756,52.1098 44.2006,52.7128 C45.1406,53.6188 45.3806,54.7328 45.0246,56.0148 C44.8566,56.6218 44.8776,57.2808 44.8066,57.9148 C44.6006,59.7478 43.8466,61.3898 42.3446,62.3998 C38.7856,64.7938 34.8926,66.3748 30.1086,66.4988" id="Fill-134" fill="#40641C" class="icon__color"></path>
            <path d="M26.9275,57.0568 C27.8475,56.3548 28.8695,56.0968 29.8115,56.0628 C31.5965,55.9998 33.2525,55.7208 34.7495,54.6898 C34.9615,54.5438 35.3265,54.6178 35.9435,54.5588 C35.3255,55.8468 34.4475,56.4018 33.4075,56.6538 C32.3415,56.9128 31.2375,57.0208 30.1465,57.1708 C29.1335,57.3098 28.1025,58.0958 26.9275,57.0568" id="Fill-136" fill="#000000"></path>
            <path d="M26.0679,32.6967 C24.9329,32.6947 24.0899,32.4457 23.7929,31.4607 C23.4419,30.3017 23.9459,29.2747 24.4289,28.2707 C24.4919,28.1407 24.8239,28.0937 25.0299,28.0977 C25.1299,28.1007 25.3099,28.3127 25.3079,28.4277 C25.2989,28.8957 25.3469,29.4147 25.1669,29.8227 C24.6279,31.0427 24.9709,31.9357 26.0679,32.6967" id="Fill-138" fill="#000000"></path>
            <path d="M13.4526,48.2418 C13.5056,49.3358 13.1476,49.7018 12.3306,49.5088 C11.7326,49.3678 11.1266,49.1268 10.6186,48.7878 C10.3646,48.6178 10.3246,48.1288 10.1886,47.7838 C10.5316,47.6878 10.8726,47.5308 11.2196,47.5128 C11.6816,47.4898 12.1756,47.4948 12.6046,47.6388 C12.9696,47.7618 13.2626,48.0998 13.4526,48.2418" id="Fill-140" fill="#000000"></path>
            <path d="M17.9617,59.5658 C17.5757,61.3698 18.1127,62.8888 17.0937,64.3148 C15.8627,63.7978 16.1167,62.6228 15.6337,61.7238 C16.3427,61.0658 16.9927,60.4638 17.9617,59.5658" id="Fill-142" fill="#40641C" class="icon__color"></path>
        </g>
    </g>
</svg>
