<svg width="77px" height="75px" viewBox="372 144 77 75" version="1.1" xmlns="http://www.w3.org/2000/svg" xmlns:xlink="http://www.w3.org/1999/xlink">
    <defs></defs>
    <g id="Group" stroke="none" stroke-width="1" fill="none" fill-rule="evenodd" transform="translate(372.000000, 144.000000)">
        <g id="Group-5">
            <path d="M42.5038,72.6836 C46.5988,61.0726 43.3668,50.5716 37.4498,40.4916 C37.5958,40.4056 37.7418,40.3186 37.8878,40.2316 C38.2838,40.5016 38.7798,40.6936 39.0588,41.0536 C40.9138,43.4496 42.9678,45.7406 44.4658,48.3476 C45.6298,50.3736 46.4358,52.7566 46.7738,55.0726 C47.4398,59.6396 47.5618,64.2776 47.0958,68.8916 C46.7828,71.9816 46.0308,72.5796 42.5038,72.6836" id="Fill-233" fill="#40641C" class="icon__color"></path>
            <g id="Group-4">
                <path d="M42.5038,72.6836 C46.0308,72.5796 46.7828,71.9816 47.0958,68.8916 C47.5618,64.2776 47.4398,59.6396 46.7738,55.0726 C46.4358,52.7566 45.6298,50.3736 44.4658,48.3476 C42.9678,45.7406 40.9138,43.4496 39.0588,41.0536 C38.7798,40.6936 38.2838,40.5016 37.8878,40.2316 C37.7418,40.3186 37.5958,40.4056 37.4498,40.4916 C43.3668,50.5716 46.5988,61.0726 42.5038,72.6836 M31.7268,39.4336 C29.7948,38.9756 27.8338,38.2186 25.8368,38.1036 C22.8298,37.9306 19.7918,38.3586 16.7768,38.2526 C12.8698,38.1156 9.3758,39.0576 6.1798,41.3086 C4.2228,42.6866 3.1138,44.5536 2.7508,46.8426 C2.2788,49.8136 4.3928,52.1736 7.3978,52.1506 C8.1158,52.1456 8.8378,51.9986 9.5498,52.0456 C10.0308,52.0776 10.4968,52.3356 10.8638,52.4576 C10.8988,52.8066 10.9358,52.8976 10.9088,52.9606 C10.8158,53.1756 10.7488,53.4346 10.5858,53.5826 C8.4568,55.5236 7.9908,57.7546 8.9608,60.5056 C9.6778,62.5406 10.7578,64.0246 12.8028,64.7606 C16.2588,66.0036 19.8248,66.2816 23.4378,65.8556 C26.0778,65.5446 28.5118,64.3556 30.0888,62.3456 C34.6288,56.5596 37.1698,50.0546 35.8808,42.5146 C35.7748,41.8966 35.3568,41.3316 34.8318,40.1996 C33.7648,41.5566 32.8778,42.3756 32.3728,43.3856 C31.0898,45.9526 29.9948,48.6126 28.7888,51.2196 C28.3948,52.0706 28.3648,53.3016 26.8828,53.3786 C26.7938,52.9746 26.5908,52.6236 26.6818,52.3856 C28.2768,48.2266 29.9078,44.0816 31.7268,39.4336 M36.9258,36.9236 C38.3928,36.0746 39.3978,35.4506 40.4398,34.8986 C43.6928,33.1726 47.1098,32.8206 50.6448,33.8286 C50.9958,33.9286 51.2488,34.3716 51.5468,34.6556 C51.5308,34.8266 51.5138,34.9986 51.4968,35.1696 C47.0568,34.9096 42.5798,34.5156 39.0188,38.0386 C43.2048,40.3096 47.2008,42.6246 51.3358,44.6596 C53.5888,45.7676 56.0188,46.7586 58.4738,47.1576 C61.7958,47.6966 65.1328,47.0846 68.3758,46.0076 C73.3788,44.3456 75.4078,40.6046 73.8818,35.5516 C72.9778,32.5546 71.8428,31.6716 68.7278,31.5396 C67.9048,31.5046 67.0818,31.4626 66.2598,31.4236 C66.1788,31.2196 66.0978,31.0166 66.0168,30.8126 C66.8098,30.1006 67.6278,29.4146 68.3888,28.6706 C69.8628,27.2286 70.9948,25.4656 70.6928,23.4066 C70.3668,21.1806 69.2288,19.2336 67.3888,17.7396 C62.9278,14.1156 54.3738,13.1736 49.2558,18.6786 C44.3408,23.9656 39.8018,29.4886 36.9258,36.9236 M32.1918,37.7396 C32.2848,37.7976 32.3788,37.8566 32.3588,37.8446 C32.3778,37.8526 32.2748,37.8076 32.1718,37.7636 C31.8688,36.9506 31.5318,36.1486 31.2698,35.3236 C30.4038,32.5976 29.6978,29.8116 28.6738,27.1476 C27.8458,24.9966 26.6308,22.9966 25.6248,20.9116 C25.4268,20.5006 25.3998,20.0076 25.2938,19.5526 C30.1748,23.9826 32.1928,29.7596 33.5158,36.4756 C34.2348,35.4956 34.6178,35.0496 34.9158,34.5526 C35.5708,33.4576 36.0798,32.2596 36.8318,31.2386 C39.7488,27.2776 41.2248,22.8616 41.9338,17.9906 C42.5978,13.4286 41.5198,9.4626 39.3158,5.6296 C38.2048,3.6976 36.5128,2.7626 34.2958,2.3826 C30.3128,1.6996 24.5208,5.1376 22.9418,8.9116 C22.6498,9.6086 22.4608,10.3486 22.2558,10.9696 C21.8438,11.0146 21.6568,11.0946 21.5358,11.0366 C20.9658,10.7626 20.4218,10.4356 19.8548,10.1526 C16.2718,8.3616 11.2448,9.7586 9.9088,13.1396 C7.0348,20.4086 8.7948,27.3976 16.9178,30.9166 C18.2358,31.4876 19.5228,32.1296 20.8358,32.7136 C24.6178,34.3956 28.4058,36.0646 32.1918,37.7396 M69.9678,29.6306 C76.8968,31.3596 77.1848,40.0426 74.5878,43.7256 C73.5398,45.2106 71.8168,46.5266 70.1168,47.1886 C63.8418,49.6346 57.4978,49.8956 51.3328,46.6676 C49.4218,45.6666 47.5828,44.5316 45.6928,43.4916 C44.8648,43.0366 43.9908,42.6636 42.7548,42.5796 C43.2108,43.2486 43.6148,43.9596 44.1308,44.5776 C47.3908,48.4856 48.8428,53.0556 49.0288,58.0596 C49.1338,60.8536 49.0868,63.6536 49.0738,66.4506 C49.0698,67.3276 49.0118,68.2116 48.8808,69.0786 C48.1518,73.9106 45.7868,75.4876 40.4978,74.4176 C40.6908,73.5396 40.8048,72.6366 41.0888,71.7916 C43.6668,64.1316 42.5718,56.6576 39.9828,49.2586 C39.7738,48.6596 39.4558,48.0936 39.1508,47.5336 C39.0458,47.3406 38.8258,47.2106 38.5318,46.9316 C38.3638,47.2726 38.1428,47.5206 38.1288,47.7796 C37.8548,52.8836 35.9948,57.4356 33.1118,61.5566 C29.4368,66.8086 24.2068,68.5566 18.0248,67.6806 C16.1408,67.4146 14.2418,66.9816 12.4588,66.3286 C8.1888,64.7666 5.9918,60.5976 6.9058,56.1476 C7.0168,55.6096 7.1298,55.0716 7.2648,54.4226 C6.4778,54.0946 5.7478,53.8076 5.0318,53.4886 C0.9258,51.6646 -0.5232,46.9246 2.1188,43.2966 C5.4688,38.6966 10.2838,36.8436 15.8248,36.6956 C18.6958,36.6196 21.5698,36.6826 24.6278,36.2326 C23.6748,35.7836 22.6968,35.3796 21.7718,34.8776 C18.4928,33.0946 14.9138,31.9876 11.8728,29.6176 C5.7468,24.8436 6.0378,16.3206 8.8868,11.3596 C10.8798,7.8886 15.0818,7.4406 18.5878,7.9856 C19.2868,8.0946 19.9608,8.3596 20.7168,8.5726 C21.0508,8.1506 21.3968,7.8176 21.6198,7.4166 C23.4858,4.0626 26.4958,2.0246 30.0068,1.0446 C34.2328,-0.1354 38.3548,0.6916 40.7408,4.6276 C43.4228,9.0526 44.3008,13.8106 43.6288,18.9006 C43.5088,19.8096 43.4348,20.7256 43.7468,21.7846 C45.1558,20.3116 46.5698,18.8426 47.9728,17.3636 C54.0428,10.9646 65.2148,12.0726 69.8488,17.8576 C70.5918,18.7846 71.2548,19.7956 71.8208,20.8396 C72.8458,22.7296 72.9128,24.6286 71.6778,26.5116 C71.0718,27.4336 70.6088,28.4496 69.9678,29.6306" id="Fill-225" fill="#000000"></path>
                <path d="M36.926,36.9232 C39.802,29.4882 44.341,23.9652 49.256,18.6782 C54.374,13.1732 62.928,14.1152 67.389,17.7392 C69.229,19.2342 70.367,21.1802 70.693,23.4062 C70.995,25.4652 69.863,27.2292 68.389,28.6702 C67.628,29.4152 66.81,30.1002 66.017,30.8132 C66.098,31.0162 66.179,31.2202 66.26,31.4232 C67.082,31.4622 67.905,31.5052 68.727,31.5402 C71.843,31.6722 72.978,32.5542 73.882,35.5512 C75.408,40.6042 73.379,44.3452 68.376,46.0072 C65.133,47.0842 61.796,47.6962 58.474,47.1572 C56.019,46.7592 53.589,45.7682 51.336,44.6592 C47.201,42.6252 43.205,40.3092 39.019,38.0392 C42.58,34.5152 47.057,34.9092 51.497,35.1702 C51.514,34.9982 51.531,34.8272 51.547,34.6552 C51.249,34.3712 50.996,33.9292 50.645,33.8292 C47.11,32.8212 43.693,33.1732 40.44,34.8982 C39.398,35.4512 38.393,36.0742 36.926,36.9232" id="Fill-227" fill="#40641C" class="icon__color"></path>
                <path d="M32.1916,37.7395 C28.4056,36.0655 24.6176,34.3955 20.8356,32.7135 C19.5236,32.1295 18.2366,31.4875 16.9186,30.9165 C8.7956,27.3975 7.0356,20.4085 9.9086,13.1395 C11.2446,9.7585 16.2726,8.3615 19.8556,10.1525 C20.4216,10.4355 20.9666,10.7625 21.5366,11.0365 C21.6566,11.0945 21.8436,11.0145 22.2556,10.9695 C22.4606,10.3485 22.6506,9.6085 22.9416,8.9115 C24.5206,5.1375 30.3136,1.7005 34.2966,2.3825 C36.5126,2.7625 38.2046,3.6975 39.3166,5.6305 C41.5206,9.4625 42.5976,13.4285 41.9336,17.9905 C41.2246,22.8615 39.7486,27.2775 36.8326,31.2385 C36.0806,32.2595 35.5716,33.4575 34.9156,34.5525 C34.6176,35.0495 34.2346,35.4955 33.5156,36.4755 C32.1936,29.7595 30.1746,23.9825 25.2936,19.5525 C25.3996,20.0075 25.4266,20.5015 25.6256,20.9115 C26.6306,22.9965 27.8466,24.9965 28.6736,27.1475 C29.6986,29.8115 30.4036,32.5975 31.2696,35.3235 C31.5326,36.1485 31.8686,36.9505 32.1716,37.7635 L32.1916,37.7395 Z" id="Fill-229" fill="#40641C" class="icon__color"></path>
                <path d="M31.7267,39.4337 C29.9077,44.0817 28.2767,48.2267 26.6817,52.3857 C26.5907,52.6237 26.7937,52.9747 26.8827,53.3787 C28.3647,53.3017 28.3947,52.0707 28.7887,51.2197 C29.9947,48.6127 31.0897,45.9527 32.3727,43.3857 C32.8777,42.3757 33.7647,41.5557 34.8317,40.1987 C35.3567,41.3317 35.7757,41.8967 35.8807,42.5147 C37.1697,50.0547 34.6287,56.5597 30.0887,62.3457 C28.5117,64.3557 26.0777,65.5447 23.4377,65.8557 C19.8247,66.2807 16.2587,66.0037 12.8037,64.7607 C10.7577,64.0247 9.6777,62.5407 8.9607,60.5057 C7.9907,57.7547 8.4567,55.5237 10.5857,53.5827 C10.7487,53.4347 10.8157,53.1757 10.9087,52.9607 C10.9357,52.8977 10.8987,52.8067 10.8637,52.4577 C10.4967,52.3357 10.0307,52.0777 9.5497,52.0457 C8.8377,51.9987 8.1157,52.1457 7.3977,52.1507 C4.3937,52.1737 2.2787,49.8137 2.7507,46.8427 C3.1147,44.5537 4.2227,42.6867 6.1797,41.3087 C9.3757,39.0577 12.8697,38.1157 16.7777,38.2527 C19.7917,38.3587 22.8297,37.9307 25.8367,38.1037 C27.8347,38.2187 29.7947,38.9747 31.7267,39.4337" id="Fill-231" fill="#40641C" class="icon__color"></path>
                <path d="M32.1717,37.7634 C32.2747,37.8074 32.3777,37.8524 32.3597,37.8444 C32.3787,37.8564 32.2847,37.7974 32.1917,37.7394 L32.1717,37.7634 Z" id="Fill-235" fill="#FFFFFF"></path>
            </g>
        </g>
    </g>
</svg>
