<svg width="33px" height="88px" viewBox="276 185 33 88" version="1.1" xmlns="http://www.w3.org/2000/svg" xmlns:xlink="http://www.w3.org/1999/xlink">
    <defs></defs>
    <g id="Group" stroke="none" stroke-width="1" fill="none" fill-rule="evenodd" transform="translate(276.000000, 185.000000)">
        <g id="Group-20" transform="translate(0.726720, 0.000000)">
            <g id="Group-19">
                <g id="Group-13">
                    <path d="M9.9854,68.9673 C10.1454,73.7763 10.3184,79.0283 10.4994,84.2783 C10.5094,84.5943 10.4834,84.9793 10.6474,85.2053 C10.9034,85.5573 11.3074,86.0223 11.6514,86.0253 C11.9624,86.0283 12.4074,85.5273 12.5564,85.1533 C12.7234,84.7363 12.6104,84.2113 12.6414,83.7353 C12.9144,79.5283 13.2314,75.3233 13.4534,71.1133 C13.5784,68.7283 13.5734,66.3353 13.5624,63.9463 C13.5604,63.5353 13.3484,62.9183 13.0414,62.7533 C12.0724,62.2323 10.0664,63.3743 10.0034,64.4663 C9.9274,65.8153 9.9854,67.1723 9.9854,68.9673 M12.4324,1.8833 C10.3444,2.2523 8.0694,2.6463 5.7984,3.0603 C4.9384,3.2183 4.4824,3.7333 4.1814,4.5993 C3.1174,7.6603 2.8674,10.7403 3.6214,13.8983 C3.7514,14.4413 3.9394,15.0003 3.9174,15.5443 C3.7864,18.8843 3.6164,22.2223 3.4284,25.5593 C3.3834,26.3483 3.1154,27.1343 3.1384,27.9153 C3.1774,29.2123 3.1664,30.4183 2.3904,31.5843 C2.0384,32.1123 1.9464,32.9883 2.0834,33.6343 C2.4744,35.4893 2.2684,37.2903 1.9004,39.0973 C1.4414,41.3423 1.5554,43.6453 2.2284,45.7373 C2.8104,47.5483 3.0764,49.2463 2.7334,51.0623 C2.5584,51.9913 2.2624,52.9003 1.9934,53.8103 C1.4654,55.5993 1.8224,57.8053 3.0464,58.4023 C5.2534,59.4803 7.3114,60.9423 9.8304,61.3143 C11.3504,61.5383 12.7264,61.4883 13.4304,59.7913 C13.7224,59.0873 14.2204,58.8493 14.9644,59.1463 C17.4174,60.1273 19.2644,58.6123 21.1744,57.5323 C21.5364,57.3273 21.7134,56.6013 21.7724,56.0933 C21.9624,54.4383 22.0824,52.7733 22.1824,51.1093 C22.2874,49.3813 22.7684,47.6583 21.9764,45.9233 C21.7564,45.4413 22.0114,44.6663 22.2134,44.0823 C22.8904,42.1283 22.9544,40.2133 22.3314,38.2153 C21.7904,36.4843 21.9524,34.8023 22.9144,33.1453 C23.4044,32.3013 23.7794,31.1023 23.5824,30.2003 C22.9144,27.1473 22.6504,24.1413 22.8524,20.9943 C23.0904,17.2833 22.0984,13.5623 22.6974,9.8023 C23.1424,7.0073 22.3144,4.6393 19.9494,2.8543 C19.1824,2.2763 18.5874,1.8943 17.5954,2.2333 C17.0364,2.4243 16.3574,2.3213 15.7394,2.2703 C14.7094,2.1843 13.6854,2.0333 12.4324,1.8833 M9.0274,80.4303 C8.9724,75.4893 8.8964,70.5483 8.8804,65.6083 C8.8764,64.3723 8.6544,63.5413 7.4614,62.7393 C6.0794,61.8093 4.8144,60.7833 3.2044,60.2113 C1.7494,59.6943 0.8834,58.5213 0.6764,56.9853 C0.4984,55.6663 0.4364,54.4053 0.8324,53.0103 C1.3524,51.1803 2.0144,49.1623 0.8394,47.2363 C0.6854,46.9833 0.6564,46.6193 0.6594,46.3073 C0.6944,43.2033 0.2454,40.0963 0.8684,36.9913 C1.0464,36.1033 0.9384,35.0723 0.6654,34.1993 C0.2954,33.0123 0.3674,31.9943 1.1344,31.0533 C1.7334,30.3203 1.9124,29.5683 1.7554,28.6133 C1.6304,27.8483 1.7154,27.0123 1.8754,26.2433 C2.7604,21.9803 2.8904,17.7153 2.0464,13.4353 C1.6104,11.2213 1.4904,9.0103 1.8414,6.7653 C1.9744,5.9143 2.1374,4.8893 1.7934,4.1863 C1.2954,3.1693 1.5614,2.5973 2.3924,2.2733 C4.4354,1.4783 6.3384,0.5793 8.7834,0.7953 C11.7514,1.0583 14.8164,1.4263 17.8434,0.6863 C18.5734,0.5073 19.6604,0.8133 20.2714,1.2933 C23.4344,3.7823 25.1714,6.8673 24.0544,11.0903 C23.7764,12.1413 23.7904,13.3323 23.9384,14.4233 C24.4014,17.8443 24.3984,21.2603 24.1914,24.6953 C24.1354,25.6263 24.3294,26.6123 24.6024,27.5143 C25.3044,29.8333 25.4454,32.0443 23.9904,34.1623 C23.2654,35.2193 23.2274,36.4213 23.6164,37.6173 C24.3814,39.9713 24.5254,42.2973 23.5644,44.6503 C23.3694,45.1293 23.3614,45.7883 23.5154,46.2883 C24.1594,48.3693 23.7174,50.3943 23.4054,52.4493 C23.2284,53.6103 23.1234,54.8203 23.2464,55.9803 C23.3934,57.3693 22.9414,58.3633 21.7694,58.9673 C20.0784,59.8393 18.4744,60.9603 16.4614,61.0363 C15.5784,61.0693 15.2324,61.6073 15.2294,62.4673 C15.2234,64.3053 15.2504,66.1473 15.1324,67.9793 C14.9544,70.7643 14.6104,73.5393 14.4404,76.3253 C14.2904,78.7943 14.2804,81.2713 14.2114,83.7443 C14.2004,84.1443 14.2224,84.5453 14.1994,84.9433 C14.0584,87.3273 12.0864,88.4883 10.0224,87.3013 C9.5934,87.0543 9.2974,86.2583 9.2664,85.6973 C9.1704,83.9453 9.2314,82.1843 9.2314,80.4273 C9.1634,80.4283 9.0954,80.4293 9.0274,80.4303" id="Fill-1" fill="#000000"></path>
                    <path d="M12.4324,1.8831 C13.6854,2.0341 14.7094,2.1841 15.7394,2.2701 C16.3574,2.3211 17.0364,2.4241 17.5954,2.2331 C18.5864,1.8941 19.1824,2.2761 19.9494,2.8541 C22.3144,4.6391 23.1424,7.0071 22.6974,9.8021 C22.0984,13.5621 23.0904,17.2831 22.8524,20.9941 C22.6504,24.1421 22.9144,27.1481 23.5824,30.2011 C23.7794,31.1021 23.4044,32.3011 22.9144,33.1451 C21.9524,34.8031 21.7904,36.4841 22.3314,38.2161 C22.9544,40.2131 22.8904,42.1281 22.2134,44.0821 C22.0114,44.6661 21.7564,45.4411 21.9764,45.9231 C22.7684,47.6581 22.2874,49.3811 22.1824,51.1101 C22.0824,52.7731 21.9624,54.4381 21.7724,56.0931 C21.7134,56.6021 21.5364,57.3281 21.1744,57.5321 C19.2644,58.6121 17.4174,60.1271 14.9644,59.1471 C14.2204,58.8491 13.7224,59.0871 13.4304,59.7911 C12.7264,61.4881 11.3504,61.5391 9.8304,61.3141 C7.3114,60.9431 5.2534,59.4801 3.0454,58.4021 C1.8224,57.8051 1.4654,55.6001 1.9934,53.8101 C2.2624,52.9001 2.5584,51.9921 2.7334,51.0621 C3.0764,49.2471 2.8104,47.5481 2.2284,45.7371 C1.5554,43.6451 1.4414,41.3431 1.9004,39.0971 C2.2684,37.2901 2.4744,35.4891 2.0834,33.6341 C1.9464,32.9891 2.0384,32.1121 2.3904,31.5841 C3.1664,30.4181 3.1764,29.2121 3.1384,27.9161 C3.1154,27.1341 3.3834,26.3491 3.4284,25.5601 C3.6164,22.2231 3.7864,18.8841 3.9174,15.5451 C3.9394,15.0001 3.7504,14.4411 3.6214,13.8981 C2.8674,10.7401 3.1174,7.6601 4.1814,4.5991 C4.4824,3.7331 4.9384,3.2181 5.7984,3.0611 C8.0694,2.6461 10.3444,2.2521 12.4324,1.8831" id="Fill-3" fill="#40641C" class="icon__color"></path>
                    <path d="M9.9854,68.9673 C9.9854,67.1723 9.9274,65.8153 10.0034,64.4663 C10.0664,63.3743 12.0724,62.2323 13.0414,62.7533 C13.3484,62.9183 13.5604,63.5353 13.5624,63.9463 C13.5734,66.3353 13.5784,68.7283 13.4534,71.1133 C13.2314,75.3233 12.9144,79.5283 12.6414,83.7353 C12.6104,84.2113 12.7234,84.7363 12.5564,85.1533 C12.4074,85.5273 11.9624,86.0283 11.6514,86.0253 C11.3074,86.0223 10.9034,85.5573 10.6474,85.2053 C10.4834,84.9793 10.5094,84.5943 10.4994,84.2783 C10.3184,79.0283 10.1454,73.7763 9.9854,68.9673" id="Fill-5" fill="#FFFFFF"></path>
                </g>
                <path d="M29.8588,64.882 C30.3768,65.392 30.8948,65.901 31.4118,66.411 C31.2838,66.532 31.1558,66.653 31.0288,66.775 C30.5228,66.253 30.0178,65.732 29.5128,65.21 C29.6278,65.101 29.7438,64.991 29.8588,64.882" id="Fill-65" fill="#FFFFFF"></path>
            </g>
        </g>
    </g>
</svg>
