<svg width="60px" height="119px" viewBox="668 364 60 119" version="1.1" xmlns="http://www.w3.org/2000/svg" xmlns:xlink="http://www.w3.org/1999/xlink">
    <defs></defs>
    <g id="Group" stroke="none" stroke-width="1" fill="none" fill-rule="evenodd" transform="translate(668.000000, 364.000000)">
        <g id="Group-28">
            <g id="Group-197" transform="translate(0.000000, 0.078000)">
                <path d="M57.8572,19.7654 C56.3872,18.1854 55.2672,16.9854 54.0072,15.6454 C56.8372,16.1354 57.4672,16.7554 57.8572,19.7654" id="Fill-181" fill="#40641C" class="icon__color"></path>
                <path d="M43.2872,14.3554 C43.5272,15.3754 43.0272,16.3754 42.1472,17.1054 C40.8472,18.1954 39.7772,19.4254 39.1972,21.0954 C38.9472,21.8054 38.2872,22.3954 37.7772,23.0054 C35.7472,25.4054 34.4972,28.2554 32.7572,31.2154 C34.7172,29.9854 34.6472,29.9454 35.7072,28.3154 C37.3572,25.7754 39.0372,23.2354 41.5172,21.3854 C44.3972,19.2554 47.4072,17.3754 51.1472,17.3154 C51.0372,16.7254 50.9372,16.1854 50.8372,15.6354 C50.9872,15.5554 51.1372,15.4654 51.2872,15.3754 C53.8872,17.1254 56.4272,18.9054 57.5672,22.1254 C58.0572,23.5054 58.0172,24.8054 57.3172,26.0554 C55.6572,29.0154 53.7172,31.5754 50.3272,32.9354 C47.6072,34.0254 45.1872,35.8354 42.5872,37.2054 C39.0572,39.0754 35.5272,40.9254 31.9072,42.5954 C30.5372,43.2254 28.9272,43.3454 27.2172,43.7554 C29.5972,45.3754 31.6972,43.3854 34.2972,43.5554 C32.6272,44.5454 31.2872,45.3454 29.9372,46.1454 C29.4872,45.7154 29.1672,45.4054 28.7872,45.0454 C28.2672,45.3354 27.7872,45.6054 27.3072,45.8754 C24.8372,47.2154 22.2672,47.9254 19.5072,46.8354 C18.7772,46.5454 17.8972,46.2754 17.4372,45.7054 C16.0272,43.9854 14.1972,43.5354 12.0472,43.5954 C9.9672,41.2754 8.4172,38.5554 7.1172,35.7654 C6.4872,34.4154 6.5372,32.6154 6.6872,31.0654 C6.9072,28.7754 7.4972,26.5254 7.9372,24.2654 C8.2972,22.3854 8.7172,20.5154 9.0172,18.6254 C9.2872,16.9354 9.0472,15.2754 8.3772,13.6954 C8.1572,13.1754 7.9372,12.6554 7.7272,12.1454 C6.3372,8.6654 6.3372,8.6654 3.2972,6.6654 C3.9272,5.4954 4.9772,5.3154 6.0772,5.5754 C6.9172,5.7754 7.7972,6.0854 8.4972,6.5754 C10.7872,8.1854 12.9672,9.9454 14.0172,12.6954 C14.0672,12.8454 14.1272,13.0254 14.2372,13.1154 C16.9572,15.2654 16.4772,18.6054 17.2672,21.4454 C18.1072,24.4354 17.9272,27.4454 16.9972,30.4254 C16.6472,31.5454 16.4772,32.7254 16.1072,34.3954 C17.4772,33.5454 18.2972,33.0254 19.0472,32.5554 C19.2972,29.4154 19.6972,26.3254 19.7372,23.2254 C19.7872,18.9654 18.9072,14.8054 17.3172,10.8554 C16.8972,9.8054 16.8872,8.9854 17.5872,8.2154 C18.6572,7.0454 19.6772,5.7554 20.9672,4.8754 C23.7972,2.9354 27.1272,2.2754 30.4772,2.0554 C32.4372,1.9254 34.3472,2.7454 35.7972,3.9754 C37.9072,5.7754 39.9072,7.7754 41.6272,9.9554 C42.5472,11.1354 42.9272,12.8354 43.2872,14.3554 M26.7872,27.4154 C27.1172,26.6554 27.5072,25.9154 27.7772,25.1354 C28.1172,24.1754 28.3972,23.1954 28.6572,22.2054 C29.4872,18.9554 30.3872,15.7254 31.0972,12.4554 C31.4372,10.9054 31.0672,10.5354 29.4172,9.7454 C29.2372,10.1654 28.9172,10.5854 28.8972,11.0154 C28.6572,15.8354 27.8472,20.5354 26.1172,25.0654 C25.9472,25.4954 25.8772,25.9954 25.8572,26.4654 C25.8572,26.7354 26.0572,27.0154 26.1572,27.2854 C26.3672,27.3254 26.5772,27.3754 26.7872,27.4154" id="Fill-183" fill="#40641C" class="icon__color"></path>
                <path d="M28.6573,22.2054 C28.3973,23.1954 28.1173,24.1754 27.7773,25.1354 C27.5073,25.9154 27.1173,26.6554 26.7873,27.4154 C26.5773,27.3754 26.3673,27.3254 26.1573,27.2854 C26.0573,27.0154 25.8573,26.7354 25.8573,26.4654 C25.8773,25.9954 25.9473,25.4954 26.1173,25.0654 C27.8473,20.5354 28.6573,15.8354 28.8973,11.0154 C28.9173,10.5854 29.2373,10.1654 29.4173,9.7454 C31.0673,10.5354 31.4373,10.9054 31.0973,12.4554 C30.3873,15.7254 29.4873,18.9554 28.6573,22.2054" id="Fill-185" fill="#000000"></path>
                <path d="M19.7473,4.2954 C20.0873,4.0354 20.4373,3.8054 20.8073,3.5954 C20.9573,3.6954 21.0773,3.7854 21.1673,3.8354 C20.6073,4.0654 20.2473,4.3254 19.8973,4.3154 C19.8573,4.3154 19.7973,4.3054 19.7473,4.2954" id="Fill-187" fill="#000000"></path>
                <path d="M19.7372,4.2954 C18.8272,4.9754 18.0072,5.7954 17.3272,6.8154 C16.4872,8.0554 15.6072,9.2654 14.6372,10.6454 C14.0372,10.0754 13.5272,9.5954 13.0272,9.1054 C11.5972,7.7054 12.1472,6.1654 12.7872,4.6754 C13.4372,3.1654 14.6272,2.5454 16.2772,2.8554 C16.9372,2.9754 18.9072,4.1154 19.7372,4.2954" id="Fill-189" fill="#40641C" class="icon__color"></path>
                <path d="M17.0673,48.1454 C18.6773,47.8754 19.8473,48.6154 21.0473,49.1554 C21.0473,49.3854 21.0773,49.4854 21.0373,49.5454 C20.4073,50.5454 19.7173,51.8854 18.4173,51.4754 C17.0773,51.0554 17.0973,49.5454 17.0673,48.1454" id="Fill-191" fill="#40641C" class="icon__color"></path>
                <path d="M5.8273,116.1154 C4.9673,115.7454 4.4773,115.5354 3.7273,115.2154 C4.2373,112.6854 4.5273,110.1254 5.2873,107.7154 C7.8073,99.6954 9.7073,91.5354 11.2873,83.2954 C12.2873,78.1154 13.5473,72.9954 14.5573,67.8254 C15.3673,63.6654 15.9673,59.4754 16.6673,55.3054 C16.7973,54.5354 16.9273,53.7654 17.0473,53.0654 C18.3273,52.8454 19.3973,52.6654 20.5873,52.4654 C16.3373,73.6654 12.6173,95.0854 5.8273,116.1154" id="Fill-193" fill="#FFFFFF"></path>
                <path d="M5.8273,116.1154 C12.6173,95.0854 16.3373,73.6654 20.5873,52.4654 C19.3973,52.6654 18.3273,52.8454 17.0473,53.0654 C16.9273,53.7654 16.7973,54.5354 16.6673,55.3054 C15.9673,59.4754 15.3673,63.6654 14.5573,67.8254 C13.5473,72.9954 12.2873,78.1154 11.2873,83.2954 C9.7073,91.5354 7.8073,99.6954 5.2873,107.7154 C4.5273,110.1254 4.2373,112.6854 3.7273,115.2154 C4.4773,115.5354 4.9673,115.7454 5.8273,116.1154 M12.7873,4.6754 C12.1473,6.1654 11.5973,7.7054 13.0273,9.1054 C13.5273,9.5954 14.0373,10.0754 14.6373,10.6454 C15.6073,9.2654 16.4873,8.0554 17.3273,6.8154 C18.0073,5.7954 18.8273,4.9754 19.7373,4.2954 C18.9073,4.1154 16.9373,2.9754 16.2773,2.8554 C14.6273,2.5454 13.4373,3.1654 12.7873,4.6754 M57.3173,26.0554 C58.0173,24.8054 58.0573,23.5054 57.5673,22.1254 C56.4273,18.9054 53.8873,17.1254 51.2873,15.3754 C51.1373,15.4654 50.9873,15.5554 50.8373,15.6354 C50.9373,16.1854 51.0373,16.7254 51.1473,17.3154 C47.4073,17.3754 44.3973,19.2554 41.5173,21.3854 C39.0373,23.2354 37.3573,25.7754 35.7073,28.3154 C34.6473,29.9454 34.7173,29.9854 32.7573,31.2154 C34.4973,28.2554 35.7473,25.4054 37.7773,23.0054 C38.2873,22.3954 38.9473,21.8054 39.1973,21.0954 C39.7773,19.4254 40.8473,18.1954 42.1473,17.1054 C43.0273,16.3754 43.5273,15.3754 43.2873,14.3554 C42.9273,12.8354 42.5473,11.1354 41.6273,9.9554 C39.9073,7.7754 37.9073,5.7754 35.7973,3.9754 C34.3473,2.7454 32.4373,1.9254 30.4773,2.0554 C27.1273,2.2754 23.7973,2.9354 20.9673,4.8754 C19.6773,5.7554 18.6573,7.0454 17.5873,8.2154 C16.8873,8.9854 16.8973,9.8054 17.3173,10.8554 C18.9073,14.8054 19.7873,18.9654 19.7373,23.2254 C19.6973,26.3254 19.2973,29.4154 19.0473,32.5554 C18.2973,33.0254 17.4773,33.5454 16.1073,34.3954 C16.4773,32.7254 16.6473,31.5454 16.9973,30.4254 C17.9273,27.4454 18.1073,24.4354 17.2673,21.4454 C16.4773,18.6054 16.9573,15.2654 14.2373,13.1154 C14.1273,13.0254 14.0673,12.8454 14.0173,12.6954 C12.9673,9.9454 10.7873,8.1854 8.4973,6.5754 C7.7973,6.0854 6.9173,5.7754 6.0773,5.5754 C4.9773,5.3154 3.9273,5.4954 3.2973,6.6654 C6.3373,8.6654 6.3373,8.6654 7.7273,12.1454 C7.9373,12.6554 8.1573,13.1754 8.3773,13.6954 C9.0473,15.2754 9.2873,16.9354 9.0173,18.6254 C8.7173,20.5154 8.2973,22.3854 7.9373,24.2654 C7.4973,26.5254 6.9073,28.7754 6.6873,31.0654 C6.5373,32.6154 6.4873,34.4154 7.1173,35.7654 C8.4173,38.5554 9.9673,41.2754 12.0473,43.5954 C14.1973,43.5354 16.0273,43.9854 17.4373,45.7054 C17.8973,46.2754 18.7773,46.5454 19.5073,46.8354 C22.2673,47.9254 24.8373,47.2154 27.3073,45.8754 C27.7873,45.6054 28.2673,45.3354 28.7873,45.0454 C29.1673,45.4054 29.4873,45.7154 29.9373,46.1454 C31.2873,45.3454 32.6273,44.5454 34.2973,43.5554 C31.6973,43.3854 29.5973,45.3754 27.2173,43.7554 C28.9273,43.3454 30.5373,43.2254 31.9073,42.5954 C35.5273,40.9254 39.0573,39.0754 42.5873,37.2054 C45.1873,35.8354 47.6073,34.0254 50.3273,32.9354 C53.7173,31.5754 55.6573,29.0154 57.3173,26.0554 M50.7073,34.1454 C47.6873,35.4354 44.8573,37.0454 42.1673,38.9454 C40.9973,39.7654 39.6273,40.2854 38.3773,40.9954 C37.8473,41.3054 37.2273,41.6854 36.9473,42.1954 C35.0673,45.6454 31.6673,46.9754 28.3273,48.2454 C26.7273,48.8554 24.9073,48.9054 23.1973,49.2254 C22.8973,49.2854 22.5973,49.3954 22.1073,49.5354 C22.7573,51.1754 21.9273,52.5754 21.5973,54.0754 C20.7973,57.6554 20.0273,61.2454 19.3073,64.8454 C17.6573,73.0654 16.3273,81.3454 14.1373,89.4454 C13.1973,92.9154 12.6073,96.4754 11.7073,99.9454 C10.6673,103.9654 9.4373,107.9354 8.3073,111.9254 C7.9273,113.2254 7.5873,114.5354 7.2073,115.8454 C6.8973,116.9054 6.2773,117.4354 5.0773,117.2354 C4.3073,117.1154 3.5073,117.2154 2.4073,117.2154 C2.4373,116.6154 2.3773,115.9354 2.5373,115.3054 C3.6773,110.6554 4.8273,106.0054 6.0273,101.3754 C8.3273,92.4754 10.1973,83.4854 11.8773,74.4554 C12.3373,71.9454 13.0673,69.4854 13.5273,66.9654 C14.3173,62.5654 14.9473,58.1454 15.7073,53.7354 C16.3473,49.9854 14.5773,47.2254 11.8873,45.0554 C7.3573,41.3954 5.0573,36.7054 4.8573,30.9754 C4.8073,29.7354 5.2673,28.4654 5.5873,27.2354 C6.3073,24.5354 7.1573,21.8754 7.7973,19.1554 C8.1473,17.6854 8.1673,16.1554 7.5373,14.6854 C7.0973,13.6554 6.7473,12.5854 6.4373,11.5154 C5.8973,9.5854 4.5973,8.4054 2.8273,7.6154 C2.1473,7.3154 1.4973,6.9354 0.7573,6.5454 C3.5173,3.8054 6.2373,3.8654 10.8973,6.6654 C11.3273,5.8254 11.7373,4.9954 12.1773,4.1654 C13.5673,1.5754 14.2673,1.2354 17.1673,1.7754 C17.7073,1.8754 18.2573,2.0254 18.7873,2.1854 C18.9673,2.2454 20.1273,3.1254 20.8073,3.5954 C20.4373,3.8054 20.0873,4.0354 19.7473,4.2954 C19.7973,4.3054 19.8573,4.3154 19.8973,4.3154 C20.2473,4.3254 20.6073,4.0654 21.1673,3.8354 C21.0773,3.7854 20.9573,3.6954 20.8073,3.5954 C22.0173,2.8554 23.3673,2.3054 24.7373,1.8154 C25.9273,1.3854 27.2273,1.3054 28.4773,1.0154 C31.9073,0.2354 34.7773,1.4554 37.3273,3.5754 C38.6773,4.6854 39.8473,6.0154 41.0673,7.2754 C42.8173,9.0954 44.2373,11.0854 44.3873,13.7354 C44.4073,14.1154 44.6573,14.4754 44.8073,14.8554 C46.7073,14.3854 48.5273,13.8954 50.3573,13.5154 C51.9873,13.1854 53.6473,13.0054 55.2873,12.7154 C56.2773,12.5354 56.7473,13.1854 57.2273,13.8254 C60.6373,18.3154 60.6273,23.8654 57.3973,28.5454 C55.6573,31.0554 53.4973,32.9554 50.7073,34.1454 M57.8573,19.7654 C57.4673,16.7554 56.8373,16.1354 54.0073,15.6454 C55.2673,16.9854 56.3873,18.1854 57.8573,19.7654 M18.4173,51.4754 C19.7173,51.8854 20.4073,50.5454 21.0373,49.5454 C21.0773,49.4854 21.0473,49.3854 21.0473,49.1554 C19.8473,48.6154 18.6773,47.8754 17.0673,48.1454 C17.0973,49.5454 17.0773,51.0554 18.4173,51.4754" id="Fill-195" fill="#000000"></path>
            </g>
        </g>
    </g>
</svg>
