<svg width="58px" height="71px" viewBox="256 219 58 71" version="1.1" xmlns="http://www.w3.org/2000/svg" xmlns:xlink="http://www.w3.org/1999/xlink">
    <defs>
        <polygon id="path-1" points="57.406625 0.922 0.102156995 0.922 0.102156995 69.1841456 57.406625 69.1841456 57.406625 0.922"></polygon>
    </defs>
    <g id="Group" stroke="none" stroke-width="1" fill="none" fill-rule="evenodd" transform="translate(256.000000, 219.000000)">
        <g id="Group-3">
            <g id="Group-93" transform="translate(0.000000, 0.078000)">
                <mask id="mask-2" fill="white">
                    <use xlink:href="#path-1"></use>
                </mask>
                <g id="Clip-92"></g>
                <path d="M34.058,67.9767 C36.936,67.9187 39.552,67.9187 42.161,67.7847 C43.175,67.7327 44.244,67.5367 45.167,67.1307 C49.059,65.4187 52.128,62.6847 54.511,59.1837 C55.483,57.7557 55.813,56.1177 55.941,54.4177 C56.018,53.3807 55.676,52.7027 54.865,51.9617 C52.556,49.8507 50.632,47.3367 49.43,44.4677 C48.067,41.2157 46.704,38.0147 44.623,35.1357 C43.41,33.4587 42.444,31.6047 41.293,29.8797 C40.688,28.9727 39.959,28.1397 39.225,27.3287 C38.372,26.3887 37.217,25.6417 36.619,24.5727 C35.798,23.1047 34.71,22.0767 33.329,21.2047 C31.747,20.2057 30.398,18.8997 29.885,17.0467 C29.338,15.0717 28.12,13.7307 26.533,12.5397 C25.745,11.9477 24.918,11.1047 24.629,10.2077 C23.577,6.9507 20.725,5.2457 18.629,2.8987 C18.448,2.6947 17.784,2.9227 17.345,2.9497 C17.422,3.3047 17.379,3.7797 17.596,3.9957 C19.465,5.8647 19.929,8.2477 20.384,10.7247 C20.751,12.7237 21.599,14.6187 21.809,16.6887 C21.87,17.2937 22.545,17.8847 23.036,18.3867 C23.938,19.3087 24.383,20.3547 24.2,21.6387 C23.947,23.4257 24.499,24.8167 25.782,26.1657 C27.23,27.6887 28.202,29.5897 27.507,31.8467 C27.142,33.0337 27.568,33.9547 28.46,34.5827 C30.742,36.1907 31.229,38.5157 31.405,41.0717 C31.468,41.9817 31.777,42.9537 32.24,43.7407 C33.298,45.5367 33.694,47.4067 33.535,49.4707 C33.477,50.2227 33.545,51.1317 33.921,51.7447 C35.276,53.9487 35.207,56.1327 34.144,58.3637 C33.542,59.6267 33.459,60.7717 34.438,61.9077 C34.792,62.3167 35.028,62.8617 35.204,63.3837 C35.749,65.0017 35.728,65.0087 37.18,65.3807 C36.692,66.8307 34.857,66.6757 34.058,67.9767 M15.441,65.1717 C16.956,65.5917 18.14,66.2767 19.23,66.1507 C21.876,65.8457 24.29,66.6277 26.772,67.1857 C28.633,67.6047 30.447,67.2557 32.193,66.6487 C34.15,65.9677 34.769,64.2647 33.434,62.6747 C32.081,61.0647 32.117,59.6247 32.905,57.8407 C33.737,55.9557 33.967,54.0027 32.574,52.1697 C31.955,51.3557 32.024,50.3977 32.162,49.4087 C32.423,47.5337 32.074,45.8087 30.992,44.1597 C30.414,43.2777 30.093,42.0977 30.037,41.0317 C29.917,38.7777 29.507,36.8257 27.469,35.4117 C26.216,34.5427 25.835,33.1957 26.226,31.5687 C26.432,30.7097 26.239,29.6427 25.905,28.7957 C25.536,27.8587 24.857,27.0207 24.212,26.2207 C23.163,24.9177 22.49,23.5677 22.849,21.8147 C22.968,21.2337 22.966,20.3367 22.618,20.0017 C20.833,18.2857 20.394,16.1647 19.91,13.8317 C19.565,12.1647 18.95,10.5007 18.707,8.7627 C18.455,6.9607 17.61,5.4877 16.061,4.2527 C15.842,4.6157 15.608,4.8537 15.546,5.1297 C14.407,10.1887 12.084,14.8997 11.212,20.0427 C10.786,22.5557 10.154,25.0347 9.573,27.5197 C9.228,28.9967 8.932,30.5057 8.377,31.9067 C7.71,33.5897 7.115,35.4007 5.32,36.3357 C4.554,36.7347 4.574,37.4667 4.456,38.1837 C4.174,39.9107 4.155,41.7867 3.425,43.3127 C2.109,46.0637 1.233,48.7557 2.022,51.7947 C1.367,54.1247 1.938,56.1767 2.887,58.3937 C3.594,60.0447 4.612,61.0997 6.002,61.7927 C8.027,62.8007 10.182,63.5617 12.324,64.3067 C12.855,64.4907 13.571,64.2847 14.159,64.1127 C14.6,63.9837 14.97,63.6187 15.374,63.3637 C15.844,63.0677 16.39,62.6157 16.803,63.3147 C17.173,63.9397 16.687,64.3327 16.152,64.6237 C15.97,64.7217 15.819,64.8767 15.441,65.1717 M40.399,68.9887 C39.44,68.9887 38.463,68.8677 37.527,69.0127 C35.283,69.3607 33.162,69.1487 30.915,68.6487 C27.676,67.9287 24.305,67.7517 20.979,67.4797 C18.658,67.2907 16.425,67.0287 14.242,66.0377 C12.227,65.1237 9.955,64.7857 7.91,63.9227 C6.312,63.2487 4.877,62.1797 3.398,61.2417 C3.005,60.9927 2.592,60.6407 2.398,60.2357 C1.612,58.5947 0.884,56.9247 0.195,55.2417 C0.056,54.9037 0.088,54.4347 0.193,54.0687 C0.711,52.2487 0.637,50.4177 0.283,48.6027 C0.1,47.6617 0.298,46.8907 0.772,46.1047 C2.285,43.5977 3.154,40.9107 3.195,37.9447 C3.211,36.7407 3.557,35.6077 4.847,34.9677 C5.369,34.7087 5.836,34.1137 6.08,33.5617 C6.787,31.9657 7.563,30.3597 7.956,28.6747 C8.805,25.0327 9.424,21.3377 10.157,17.6697 C10.298,16.9677 10.511,16.2777 10.73,15.5947 C11.483,13.2437 12.216,10.8847 13.028,8.5537 C13.784,6.3827 14.319,4.1127 15.695,2.1997 C16.648,0.8767 18.527,0.5177 19.881,1.4217 C20.068,1.5467 20.288,1.7457 20.331,1.9457 C20.668,3.4857 21.906,4.2707 22.944,5.2607 C24.207,6.4657 25.41,7.7207 25.832,9.5637 C25.993,10.2647 26.588,11.0027 27.191,11.4407 C29.119,12.8407 30.653,14.4057 31.234,16.8607 C31.634,18.5487 32.967,19.7277 34.441,20.5987 C35.861,21.4367 36.89,22.5497 37.762,23.9527 C38.372,24.9337 39.332,25.7527 40.276,26.4557 C41.577,27.4247 42.812,28.2837 42.991,30.1397 C43.069,30.9407 43.747,31.6967 44.197,32.4467 C45.755,35.0477 47.341,37.6307 48.892,40.2347 C49.176,40.7117 49.462,41.2397 49.543,41.7747 C49.998,44.7777 52.113,46.8457 53.711,49.1897 C54.225,49.9437 55.062,50.5427 55.866,51.0187 C56.878,51.6197 57.31,52.4347 57.381,53.5517 C57.511,55.5957 57.156,57.4897 56.095,59.2967 C53.925,62.9967 50.721,65.6037 47.157,67.7737 C45.127,69.0087 42.751,69.1137 40.399,68.9887" id="Fill-91" fill="#000000" mask="url(#mask-2)"></path>
            </g>
            <path d="M15.4412,65.2502 C15.8192,64.9552 15.9702,64.8002 16.1522,64.7012 C16.6862,64.4112 17.1722,64.0182 16.8022,63.3922 C16.3892,62.6942 15.8442,63.1462 15.3742,63.4422 C14.9692,63.6962 14.5992,64.0622 14.1592,64.1912 C13.5712,64.3632 12.8552,64.5692 12.3242,64.3842 C10.1822,63.6402 8.0272,62.8792 6.0022,61.8702 C4.6122,61.1782 3.5942,60.1222 2.8872,58.4712 C1.9382,56.2552 1.3672,54.2032 2.0222,51.8732 C1.2332,48.8342 2.1092,46.1412 3.4242,43.3912 C4.1552,41.8642 4.1742,39.9892 4.4562,38.2612 C4.5742,37.5452 4.5542,36.8122 5.3192,36.4142 C7.1142,35.4782 7.7102,33.6672 8.3772,31.9842 C8.9322,30.5832 9.2282,29.0742 9.5732,27.5982 C10.1542,25.1132 10.7862,22.6332 11.2122,20.1202 C12.0842,14.9772 14.4062,10.2672 15.5462,5.2082 C15.6082,4.9322 15.8422,4.6942 16.0612,4.3312 C17.6102,5.5662 18.4542,7.0382 18.7072,8.8412 C18.9502,10.5782 19.5652,12.2432 19.9102,13.9102 C20.3942,16.2432 20.8332,18.3632 22.6182,20.0802 C22.9662,20.4152 22.9682,21.3122 22.8492,21.8922 C22.4902,23.6462 23.1632,24.9962 24.2122,26.2992 C24.8562,27.0992 25.5362,27.9372 25.9052,28.8742 C26.2392,29.7202 26.4322,30.7872 26.2262,31.6462 C25.8352,33.2732 26.2162,34.6202 27.4692,35.4892 C29.5072,36.9032 29.9172,38.8552 30.0362,41.1102 C30.0932,42.1752 30.4142,43.3562 30.9922,44.2372 C32.0742,45.8872 32.4232,47.6122 32.1622,49.4862 C32.0242,50.4752 31.9552,51.4332 32.5732,52.2472 C33.9672,54.0812 33.7372,56.0332 32.9042,57.9192 C32.1172,59.7032 32.0812,61.1422 33.4332,62.7532 C34.7692,64.3432 34.1502,66.0462 32.1932,66.7272 C30.4472,67.3342 28.6332,67.6832 26.7722,67.2642 C24.2902,66.7052 21.8762,65.9242 19.2302,66.2292 C18.1402,66.3542 16.9562,65.6702 15.4412,65.2502" id="Fill-94" fill="#40641C" class="icon__color"></path>
            <path d="M34.058,68.0547 C34.857,66.7537 36.692,66.9087 37.18,65.4587 C35.728,65.0867 35.749,65.0797 35.204,63.4617 C35.028,62.9397 34.792,62.3947 34.438,61.9857 C33.459,60.8497 33.542,59.7047 34.144,58.4417 C35.207,56.2107 35.276,54.0267 33.921,51.8227 C33.545,51.2097 33.477,50.3007 33.535,49.5487 C33.694,47.4847 33.298,45.6147 32.24,43.8187 C31.777,43.0317 31.468,42.0597 31.405,41.1497 C31.229,38.5937 30.742,36.2687 28.46,34.6607 C27.568,34.0327 27.142,33.1117 27.507,31.9247 C28.202,29.6677 27.23,27.7667 25.782,26.2437 C24.499,24.8947 23.947,23.5037 24.2,21.7167 C24.383,20.4327 23.938,19.3867 23.036,18.4647 C22.545,17.9627 21.87,17.3717 21.809,16.7667 C21.599,14.6967 20.751,12.8017 20.384,10.8027 C19.929,8.3257 19.465,5.9427 17.596,4.0737 C17.379,3.8577 17.422,3.3827 17.345,3.0277 C17.784,3.0007 18.448,2.7727 18.629,2.9767 C20.725,5.3237 23.577,7.0287 24.629,10.2857 C24.918,11.1827 25.745,12.0257 26.533,12.6177 C28.12,13.8087 29.338,15.1497 29.885,17.1247 C30.398,18.9777 31.747,20.2837 33.329,21.2827 C34.71,22.1547 35.798,23.1827 36.619,24.6507 C37.217,25.7197 38.372,26.4667 39.225,27.4067 C39.959,28.2177 40.688,29.0507 41.293,29.9577 C42.444,31.6827 43.41,33.5367 44.623,35.2137 C46.704,38.0927 48.067,41.2937 49.43,44.5457 C50.632,47.4147 52.556,49.9287 54.865,52.0397 C55.676,52.7807 56.018,53.4587 55.941,54.4957 C55.813,56.1957 55.483,57.8337 54.511,59.2617 C52.128,62.7627 49.059,65.4967 45.167,67.2087 C44.244,67.6147 43.175,67.8107 42.161,67.8627 C39.552,67.9967 36.936,67.9967 34.058,68.0547" id="Fill-96" fill="#40641C" class="icon__color"></path>
        </g>
    </g>
</svg>
