<svg width="40px" height="101px" viewBox="4 206 40 101" version="1.1" xmlns="http://www.w3.org/2000/svg" xmlns:xlink="http://www.w3.org/1999/xlink">
    <defs></defs>
    <g id="Group" stroke="none" stroke-width="1" fill="none" fill-rule="evenodd" transform="translate(4.000000, 206.000000)">
        <path d="M36.1372,54.9509 C35.9352,54.9949 35.7322,55.0379 35.5302,55.0819 C35.5302,56.6699 35.6442,58.2679 35.5072,59.8439 C35.1952,63.4309 33.4612,66.2679 30.3132,67.9779 C26.7752,69.8999 23.9252,68.2429 23.4712,64.2219 C23.1362,61.2549 23.3122,58.1019 25.4062,55.5499 C26.1802,54.6059 26.2892,53.6319 26.1572,52.4309 C25.9402,50.4609 25.8082,48.4449 25.9802,46.4769 C26.2732,43.1109 26.2972,39.8269 25.5972,36.4709 C24.9802,33.5119 24.9872,30.4889 26.4142,27.5739 C27.8962,24.5459 28.8382,21.3319 28.7642,17.8699 C28.7242,16.0449 29.0052,14.2139 29.0932,12.3829 C29.1472,11.2669 29.1662,10.1419 29.1002,9.0269 C28.9712,6.8569 27.9612,5.0189 26.5712,3.4439 C25.0632,1.7349 22.7212,2.2979 22.1272,4.4909 C21.7962,5.7109 21.6192,7.0099 21.6122,8.2739 C21.5892,12.2699 21.6052,16.2599 22.3552,20.2259 C22.6772,21.9259 22.6582,23.7509 22.4502,25.4769 C22.1402,28.0359 20.3222,28.9779 17.9472,28.0559 C17.4262,27.8539 16.9312,27.5569 16.3942,27.4299 C14.8312,27.0599 13.8552,27.8709 13.9502,29.4409 C14.0332,30.8209 14.6542,31.8859 15.9382,32.4899 C16.6612,32.8299 17.4072,33.1199 18.1322,33.4569 C19.3512,34.0229 20.0752,34.9279 20.5532,36.2429 C21.7132,39.4329 21.0462,42.4339 19.7712,45.3269 C18.0972,49.1239 17.4312,52.9159 18.8252,56.9449 C19.4512,58.7509 18.7502,60.3239 17.3782,61.4549 C15.6862,62.8499 13.6332,63.6019 11.4552,63.8529 C10.8712,63.9209 10.1922,63.6599 9.6392,63.3839 C8.0722,62.6009 7.4192,61.1999 7.1362,59.5269 C6.7362,57.1669 6.5032,54.7339 5.7322,52.4929 C4.5922,49.1739 4.1582,45.8209 4.2002,42.3579 C4.2132,41.3189 4.2202,40.2759 4.1362,39.2429 C4.1072,38.8809 3.7962,38.5409 3.6142,38.1919 C3.1392,39.0429 3.0192,39.8129 2.9522,40.5879 C2.6882,43.6149 2.4822,46.6459 2.1792,49.6679 C1.7312,54.1449 1.9402,58.5969 2.2782,63.0739 C2.5172,66.2349 3.9992,68.5059 6.3352,70.3549 C7.3282,71.1409 8.4492,71.8219 9.6092,72.3229 C10.9102,72.8859 11.4132,73.8559 11.4882,75.1199 C11.5352,75.9089 11.4242,76.7129 11.3302,77.5029 C10.9362,80.8329 10.5472,84.1629 10.0932,87.4849 C10.0132,88.0759 9.6442,88.6299 9.3992,89.1979 C8.0032,92.4219 8.3542,95.5879 9.7562,98.6999 C9.9112,99.0429 10.2632,99.3109 10.5562,99.5769 C11.4552,100.3919 11.6112,100.4179 12.4002,99.3809 C12.9702,98.6309 13.3672,98.2279 14.2832,99.0039 C15.1102,99.7059 15.9632,99.2459 16.5892,98.5259 C17.2382,97.7789 17.5542,96.9329 17.3852,95.8749 C16.9942,93.4309 16.7522,90.9629 16.3552,88.5199 C15.7712,84.9359 15.5292,81.3789 16.6062,77.8359 C17.5942,74.5829 19.4292,73.0919 22.7622,73.4289 C24.9572,73.6509 27.0952,74.4219 29.2672,74.9099 C30.0282,75.0809 30.8792,75.3899 31.5772,75.2069 C35.1252,74.2779 38.2462,71.5189 38.2452,67.7069 C38.2442,64.7589 38.0092,61.8029 37.7122,58.8669 C37.5702,57.4589 37.0242,56.0989 36.1372,54.9509 M5.3802,42.6909 C5.0962,45.8779 5.8852,48.8689 6.9132,51.8469 C7.4032,53.2669 7.6132,54.7839 7.9242,56.2629 C8.1862,57.5139 8.3322,58.7939 8.6702,60.0219 C9.2122,61.9919 10.2252,62.6519 12.2362,62.3059 C13.1642,62.1469 14.0782,61.7689 14.9342,61.3559 C17.3532,60.1919 17.8762,59.1639 17.1772,56.5869 C16.0762,52.5319 16.6372,48.7039 18.3112,44.9139 C19.3832,42.4869 20.0542,39.9889 19.3032,37.2359 C18.8782,35.6769 18.0282,34.7129 16.6822,34.0429 C16.1812,33.7949 15.6472,33.6149 15.1412,33.3779 C13.7412,32.7209 12.9212,31.5929 12.5632,30.1129 C11.8492,27.1539 13.8812,25.1639 16.8102,25.9729 C17.3452,26.1199 17.8282,26.4429 18.3582,26.6179 C19.7572,27.0809 20.6082,26.7239 20.7962,25.2499 C21.0052,23.6079 21.0572,21.8829 20.7952,20.2549 C20.2082,16.6049 19.9442,12.9439 20.0452,9.2649 C20.0962,7.4439 20.3492,5.6009 20.7592,3.8249 C21.4102,1.0089 24.6932,-0.0721 26.9792,1.7149 C27.5942,2.1949 28.1522,2.8319 28.5332,3.5109 C29.6762,5.5479 30.4672,7.7299 30.6782,10.0739 C30.7422,10.7789 30.7752,11.5609 30.5382,12.2039 C29.9092,13.9109 29.9362,15.5809 30.1472,17.3699 C30.5602,20.8909 29.3662,24.2119 28.0512,27.3579 C26.6822,30.6319 26.4892,33.8069 27.2842,37.1829 C28.1052,40.6719 27.7972,44.1869 27.1812,47.6679 C26.9222,49.1319 26.8962,50.5689 27.4272,51.9209 C28.1062,53.6479 27.5722,54.9529 26.5332,56.3369 C24.6972,58.7799 24.3712,61.6399 24.9842,64.5329 C25.5312,67.1089 27.4902,67.9409 29.6802,66.5129 C32.1152,64.9249 33.7222,62.6579 33.9442,59.6409 C34.0562,58.1269 34.0282,56.6029 34.1032,55.0859 C34.1502,54.1289 34.1312,52.9289 35.1872,52.6229 C36.4192,52.2659 36.9962,53.4339 37.4592,54.3289 C38.3772,56.0999 39.2762,57.8959 39.3782,59.9569 C39.5092,62.5829 39.9302,65.2299 39.7332,67.8309 C39.3252,73.2129 36.3462,75.1569 31.8242,76.5319 C30.6072,76.9019 29.0412,76.2429 27.6642,75.9319 C26.1122,75.5819 24.6132,74.9789 23.0532,74.6879 C20.8622,74.2789 19.7592,74.8329 18.7532,76.8349 C17.7012,78.9289 17.0812,81.1419 17.4592,83.5459 C17.9182,86.4589 18.3582,89.3749 18.7292,92.2999 C18.8992,93.6409 18.9512,95.0059 18.9392,96.3589 C18.9172,99.0699 17.1392,100.7999 14.4002,100.8589 C13.6812,100.8739 12.9402,100.7299 12.2462,100.8589 C10.0722,101.2609 8.8692,100.0659 8.1882,98.3079 C7.1292,95.5769 6.6442,92.7299 7.6642,89.8669 C9.2382,85.4479 9.5072,80.8059 10.1062,76.2199 C10.2882,74.8279 9.7312,73.8359 8.4742,73.0469 C6.7982,71.9929 5.2342,70.7469 3.6952,69.4929 C2.2152,68.2859 1.3052,66.6769 1.1312,64.7609 C0.7122,60.1519 0.0802,55.5639 0.6772,50.8979 C1.2052,46.7799 1.4052,42.6209 1.7772,38.4819 C1.8702,37.4509 2.0232,36.4179 2.2462,35.4069 C2.3172,35.0869 2.6782,34.6499 2.9592,34.6059 C3.2562,34.5599 3.7302,34.8389 3.9282,35.1169 C5.0262,36.6579 5.5492,38.3989 5.5032,40.2959 C5.4842,41.0949 5.4222,41.8929 5.3802,42.6909" id="Fill-7" fill="#000000"></path>
        <path d="M36.1372,54.9509 C37.0242,56.0989 37.5702,57.4589 37.7122,58.8669 C38.0092,61.8029 38.2442,64.7589 38.2452,67.7069 C38.2462,71.5189 35.1252,74.2779 31.5772,75.2069 C30.8792,75.3899 30.0282,75.0809 29.2672,74.9099 C27.0952,74.4219 24.9572,73.6509 22.7622,73.4289 C19.4292,73.0919 17.5942,74.5829 16.6062,77.8359 C15.5292,81.3789 15.7712,84.9359 16.3552,88.5199 C16.7522,90.9629 16.9942,93.4309 17.3852,95.8749 C17.5542,96.9329 17.2382,97.7789 16.5892,98.5259 C15.9632,99.2459 15.1102,99.7059 14.2832,99.0039 C13.3672,98.2279 12.9702,98.6309 12.4002,99.3809 C11.6112,100.4179 11.4552,100.3919 10.5562,99.5769 C10.2632,99.3109 9.9112,99.0429 9.7562,98.6999 C8.3542,95.5879 8.0032,92.4219 9.3992,89.1979 C9.6442,88.6299 10.0132,88.0759 10.0932,87.4849 C10.5472,84.1629 10.9362,80.8329 11.3302,77.5029 C11.4242,76.7129 11.5352,75.9089 11.4882,75.1199 C11.4132,73.8559 10.9102,72.8859 9.6092,72.3229 C8.4492,71.8219 7.3282,71.1409 6.3352,70.3549 C3.9992,68.5059 2.5172,66.2349 2.2782,63.0739 C1.9402,58.5969 1.7312,54.1449 2.1792,49.6679 C2.4822,46.6459 2.6882,43.6149 2.9522,40.5879 C3.0192,39.8129 3.1392,39.0429 3.6142,38.1919 C3.7962,38.5409 4.1072,38.8809 4.1362,39.2429 C4.2202,40.2759 4.2132,41.3189 4.2002,42.3579 C4.1582,45.8209 4.5922,49.1739 5.7322,52.4929 C6.5032,54.7339 6.7362,57.1669 7.1362,59.5269 C7.4192,61.1999 8.0722,62.6009 9.6392,63.3839 C10.1922,63.6599 10.8712,63.9209 11.4552,63.8529 C13.6332,63.6019 15.6862,62.8499 17.3782,61.4549 C18.7502,60.3239 19.4512,58.7509 18.8252,56.9449 C17.4312,52.9159 18.0972,49.1239 19.7712,45.3269 C21.0462,42.4339 21.7132,39.4329 20.5532,36.2429 C20.0752,34.9279 19.3512,34.0229 18.1322,33.4569 C17.4072,33.1199 16.6612,32.8299 15.9382,32.4899 C14.6542,31.8859 14.0332,30.8209 13.9502,29.4409 C13.8552,27.8709 14.8312,27.0599 16.3942,27.4299 C16.9312,27.5569 17.4262,27.8539 17.9472,28.0559 C20.3222,28.9779 22.1402,28.0359 22.4502,25.4769 C22.6582,23.7509 22.6772,21.9259 22.3552,20.2259 C21.6052,16.2599 21.5892,12.2699 21.6122,8.2739 C21.6192,7.0099 21.7962,5.7109 22.1272,4.4909 C22.7212,2.2979 25.0632,1.7349 26.5712,3.4439 C27.9612,5.0189 28.9712,6.8569 29.1002,9.0269 C29.1662,10.1419 29.1472,11.2669 29.0932,12.3829 C29.0052,14.2139 28.7242,16.0449 28.7642,17.8699 C28.8382,21.3319 27.8962,24.5459 26.4142,27.5739 C24.9872,30.4889 24.9802,33.5119 25.5972,36.4709 C26.2972,39.8269 26.2732,43.1109 25.9802,46.4769 C25.8082,48.4449 25.9402,50.4609 26.1572,52.4309 C26.2892,53.6319 26.1802,54.6059 25.4062,55.5499 C23.3122,58.1019 23.1362,61.2549 23.4712,64.2219 C23.9252,68.2429 26.7752,69.8999 30.3132,67.9779 C33.4612,66.2679 35.1952,63.4309 35.5072,59.8439 C35.6442,58.2679 35.5302,56.6699 35.5302,55.0819 C35.7322,55.0379 35.9352,54.9949 36.1372,54.9509" id="Fill-9" fill="#40641C" class="icon__color"></path>
    </g>
</svg>
