<svg width="46px" height="41px" viewBox="-75 566 46 41" version="1.1" xmlns="http://www.w3.org/2000/svg" xmlns:xlink="http://www.w3.org/1999/xlink">
    <defs></defs>
    <g id="Group" stroke="none" stroke-width="1" fill="none" fill-rule="evenodd" transform="translate(-75.000000, 566.000000)">
        <g id="Group-14">
            <path d="M16.4073,26.8998 C12.5343,29.4008 12.4013,34.4558 15.7983,37.3148 C17.3983,38.6608 19.0663,39.5108 21.2583,38.7108 C24.0953,37.6758 26.7643,32.8378 26.0473,29.5578 C22.4513,30.2918 19.0583,29.9168 16.4073,26.8998 M15.1163,25.0338 C14.8603,23.6768 14.4033,22.3568 14.4243,21.0448 C14.4443,19.7178 14.9363,18.3978 15.2233,17.0748 C15.2403,16.9968 15.2653,16.9198 15.2883,16.8438 C15.5533,15.9818 15.1703,15.5058 14.3853,15.1838 C10.6043,13.6368 6.2033,14.5228 3.3143,17.4378 C0.4463,20.3308 1.2843,24.4808 5.0463,26.0158 C8.2143,27.3078 11.3053,26.4598 14.3893,25.6538 C14.6603,25.5828 14.8653,25.2558 15.1163,25.0338 M28.2713,28.5068 C29.2903,29.2298 30.0263,30.0278 30.9303,30.3458 C34.3923,31.5658 37.8603,32.0848 41.2913,30.0608 C44.4973,28.1698 45.3653,24.7908 43.2733,21.7218 C41.4953,19.1138 38.9113,17.8108 35.8683,17.3738 C34.3353,17.1538 33.8533,17.5308 33.6233,19.4088 C33.2453,22.4998 31.8423,24.9898 29.6213,27.0888 C29.2763,27.4148 28.9653,27.7758 28.2713,28.5068 M31.8693,18.7298 C31.8733,15.9068 30.1403,13.5408 27.8023,12.2238 C25.2453,10.7848 21.0073,12.1808 19.3583,13.6978 C16.5523,16.2798 15.4883,19.3618 16.6163,23.1878 C17.7613,27.0708 21.9813,29.2648 25.7803,27.7338 C29.2113,26.3508 31.8633,22.4298 31.8693,18.7298 M33.3763,15.7828 C34.2353,15.8988 35.0913,16.0388 35.9523,16.1258 C40.1833,16.5508 43.3593,18.5238 45.1123,22.4778 C46.4823,25.5648 45.6433,28.5078 42.9053,30.5548 C38.9513,33.5128 34.7023,33.1938 30.3583,31.6378 C29.6853,31.3968 29.0503,31.0508 28.3943,30.7618 C28.3303,30.7338 28.2403,30.7658 27.9473,30.7808 C27.7733,31.3628 27.5593,32.0118 27.3833,32.6708 C26.8363,34.7178 25.8393,36.4758 24.4093,38.0708 C20.1923,42.7768 15.2163,39.7858 13.1213,36.1958 C11.6623,33.6938 11.5893,31.6978 12.3743,27.9638 C11.3263,28.0158 10.3593,28.0058 9.4083,28.1218 C5.6293,28.5838 1.4333,26.1838 0.3473,22.8748 C-0.2337,21.1038 -0.1407,19.4048 1.0523,17.8758 C3.8473,14.2948 7.2473,12.1298 12.0253,13.1908 C12.6483,13.3298 13.2773,13.4458 13.8953,13.6068 C16.7563,14.3528 16.7553,14.3568 18.6123,11.6378 C18.2663,11.1158 17.8753,10.5368 17.4933,9.9518 C15.3693,6.6968 16.3943,3.1898 19.9063,1.6028 C24.9303,-0.6672 29.5083,0.6778 33.6213,3.6808 C36.8423,6.0318 37.4933,10.9038 35.3813,14.3368 C34.9773,14.9928 34.0433,15.3218 33.3543,15.8008 C33.8343,14.6338 34.3603,13.4828 34.7863,12.2958 C35.7563,9.5858 35.0663,6.6378 32.9083,4.8948 C29.9733,2.5238 26.5703,1.5418 22.8293,2.1688 C21.0113,2.4728 19.2603,3.0988 18.2453,4.8798 C17.3263,6.4908 17.7983,7.9638 18.6893,9.3728 C19.4893,10.6398 20.5703,10.5918 22.0003,10.4038 C26.1173,9.8608 30.0103,10.2788 32.3313,14.4888 C32.5943,14.9678 33.0243,15.3538 33.3763,15.7828" id="Fill-270" fill="#000000"></path>
            <path d="M31.8689,18.7302 C31.8629,22.4292 29.2109,26.3512 25.7809,27.7332 C21.9809,29.2652 17.7619,27.0702 16.6169,23.1882 C15.4879,19.3622 16.5529,16.2792 19.3589,13.6982 C21.0079,12.1812 25.2449,10.7852 27.8019,12.2242 C30.1409,13.5402 31.8729,15.9062 31.8689,18.7302" id="Fill-272" fill="#FFFFFF"></path>
            <path d="M28.2717,28.5067 C28.9647,27.7757 29.2767,27.4147 29.6217,27.0887 C31.8427,24.9897 33.2447,22.4997 33.6237,19.4087 C33.8527,17.5317 34.3357,17.1537 35.8687,17.3737 C38.9117,17.8107 41.4957,19.1147 43.2737,21.7227 C45.3657,24.7907 44.4977,28.1697 41.2907,30.0617 C37.8607,32.0847 34.3917,31.5657 30.9307,30.3457 C30.0267,30.0277 29.2907,29.2297 28.2717,28.5067" id="Fill-274" fill="#40641C" class="icon__color"></path>
            <path d="M33.3768,15.7833 C33.0238,15.3543 32.5948,14.9673 32.3308,14.4893 C30.0098,10.2793 26.1178,9.8603 22.0008,10.4033 C20.5708,10.5923 19.4888,10.6393 18.6888,9.3733 C17.7978,7.9643 17.3258,6.4913 18.2448,4.8793 C19.2608,3.0983 21.0108,2.4733 22.8298,2.1683 C26.5708,1.5423 29.9738,2.5243 32.9078,4.8953 C35.0658,6.6383 35.7568,9.5853 34.7858,12.2953 C34.3608,13.4823 33.8348,14.6333 33.3548,15.8013 L33.3768,15.7833 Z" id="Fill-276" fill="#40641C" class="icon__color"></path>
            <path d="M15.1159,25.0343 C14.8649,25.2563 14.6609,25.5823 14.3899,25.6533 C11.3049,26.4593 8.2139,27.3073 5.0459,26.0153 C1.2839,24.4813 0.4459,20.3313 3.3139,17.4373 C6.2039,14.5223 10.6039,13.6363 14.3849,15.1843 C15.1709,15.5053 15.5529,15.9823 15.2879,16.8443 C15.2649,16.9203 15.2399,16.9963 15.2229,17.0743 C14.9369,18.3973 14.4439,19.7173 14.4239,21.0453 C14.4039,22.3573 14.8609,23.6763 15.1159,25.0343" id="Fill-278" fill="#40641C" class="icon__color"></path>
            <path d="M16.4073,26.8998 C19.0583,29.9168 22.4513,30.2918 26.0473,29.5578 C26.7643,32.8378 24.0953,37.6758 21.2583,38.7108 C19.0663,39.5108 17.3983,38.6608 15.7983,37.3148 C12.4013,34.4558 12.5343,29.4008 16.4073,26.8998" id="Fill-280" fill="#40641C" class="icon__color"></path>
        </g>
    </g>
</svg>
