<svg width="58px" height="70px" viewBox="118 205 58 70" version="1.1" xmlns="http://www.w3.org/2000/svg" xmlns:xlink="http://www.w3.org/1999/xlink">
    <defs></defs>
    <g id="Group" stroke="none" stroke-width="1" fill="none" fill-rule="evenodd" transform="translate(118.000000, 205.000000)">
        <g id="Group-2">
            <g id="Group-180" transform="translate(0.000000, 0.078000)">
                <path d="M48.2106,63.8354 C47.5906,64.7354 46.9606,65.6354 46.3406,66.5454 C45.7606,66.3654 45.2906,66.2554 44.8606,66.0754 C40.4706,64.1554 36.0706,62.2454 31.6806,60.3154 L31.9806,58.2154 C31.3406,50.5754 31.1306,43.4954 32.5506,36.3954 C34.0906,37.9154 34.4606,39.9454 35.3106,41.7254 C36.1606,43.5254 37.0206,45.3354 37.8806,47.1354 C38.7106,48.8654 39.5306,50.5954 40.3606,52.3254 C41.2406,54.1154 42.0706,55.9354 43.0306,57.6854 C43.9406,59.3654 44.3006,61.3654 46.1406,63.1554 L48.2106,63.8354 Z" id="Fill-160" fill="#40641C" class="icon__color"></path>
                <path id="Fill-162" fill="#000000"></path>
                <path d="M30.4306,54.4454 C30.5006,55.6654 30.5606,56.8954 31.9806,58.2154 L31.6806,60.3154 C30.2206,59.6654 28.7606,59.0154 27.3006,58.3654 C20.2106,55.1954 14.1006,50.6354 8.9106,44.8654 C8.5706,44.4854 8.2306,44.0854 7.9106,43.6754 L10.2406,43.1054 C10.3106,43.2054 10.3806,43.3054 10.4606,43.4054 C10.6606,43.0054 10.8206,42.8154 10.8506,42.6154 C12.0906,34.6454 13.3106,26.6754 14.5606,18.7054 C14.7706,17.3454 15.2306,16.1054 16.7306,15.2354 C17.9706,16.7654 19.1606,18.2454 20.3706,19.7254 C23.1006,23.0554 25.8206,26.3954 28.5906,29.7054 C29.5206,30.8154 30.0406,32.0154 29.6506,33.4254 C29.1106,35.4154 29.4406,37.3854 29.5706,39.3754 C29.8806,44.3954 30.1406,49.4254 30.4306,54.4454" id="Fill-164" fill="#40641C" class="icon__color"></path>
                <path d="M25.0506,0.9454 C24.2406,0.4154 23.5106,0.3354 22.8306,0.3954 C25.5206,-0.2846 30.3306,1.3254 33.6906,3.2854 C32.6106,3.2254 31.4106,3.4454 30.4706,3.0454 C28.1706,2.0954 25.8406,1.5054 23.3906,1.4054 C23.5606,1.3854 23.7306,1.3754 23.8806,1.3754 C24.1806,1.3754 24.4906,1.1654 25.0506,0.9454" id="Fill-166" fill="#000000"></path>
                <path d="M22.8306,0.3954 C23.5106,0.3354 24.2406,0.4154 25.0506,0.9454 C24.4906,1.1654 24.1806,1.3754 23.8806,1.3754 C23.7306,1.3754 23.5606,1.3854 23.3906,1.4054 C23.1306,1.3954 22.8706,1.3854 22.6106,1.3854 C22.2606,1.3854 21.9206,1.2154 21.4706,1.1154 C21.8106,0.7654 22.2706,0.5354 22.8206,0.3954 L22.8306,0.3954 Z" id="Fill-168" fill="#000000"></path>
                <path d="M19.9706,14.5554 C20.7906,14.7154 21.6106,14.8654 22.9006,15.1054 C21.9806,15.5754 21.4506,15.8454 20.8306,16.1654 C20.4406,15.7054 20.1106,15.3154 19.7706,14.9254 C19.8406,14.8054 19.9006,14.6854 19.9706,14.5554" id="Fill-170" fill="#000000"></path>
                <path d="M32.5506,36.3954 C31.1306,43.4954 31.3406,50.5754 31.9806,58.2154 C30.5606,56.8954 30.5006,55.6654 30.4306,54.4454 C30.1406,49.4254 29.8806,44.3954 29.5706,39.3754 C29.4406,37.3854 29.1106,35.4154 29.6506,33.4254 C30.0406,32.0154 29.5206,30.8154 28.5906,29.7054 C25.8206,26.3954 23.1006,23.0554 20.3706,19.7254 C19.1606,18.2454 17.9706,16.7654 16.7306,15.2354 C15.2306,16.1054 14.7706,17.3454 14.5606,18.7054 C13.3106,26.6754 12.0906,34.6454 10.8506,42.6154 C10.8206,42.8154 10.6606,43.0054 10.4606,43.4054 C10.3806,43.3054 10.3106,43.2054 10.2406,43.1054 C9.6506,42.2354 9.5506,41.3654 9.6406,40.4554 C10.1406,35.2054 10.6106,29.9554 11.2006,24.7154 C11.5606,21.4454 12.2906,18.2654 14.2006,15.4654 C14.5506,14.9454 14.7306,14.3154 15.1406,13.4154 C13.1406,11.3054 11.1906,9.2354 9.1406,7.0754 C9.2106,7.0654 9.2806,7.0454 9.3406,7.0454 C10.3206,6.9454 11.0306,7.6154 11.6906,8.2454 C12.8306,9.3554 13.8906,10.5554 15.0106,11.6954 C15.5406,12.2454 16.1106,12.7454 16.8206,13.1354 C16.8006,11.5754 15.5206,10.9154 14.7006,9.9454 C13.9206,8.9954 13.0806,8.0954 12.2606,7.1654 C12.4106,7.0154 12.5506,6.8654 12.7006,6.7154 C13.3906,7.2754 14.1706,7.7554 14.7606,8.4154 C15.6706,9.4254 16.5006,10.5054 17.2606,11.6354 C18.0406,12.7854 19.0706,13.3454 20.4106,13.5554 C25.3806,14.3454 30.3406,15.1654 35.3006,15.9954 C36.2506,16.1454 37.1906,16.3254 38.1206,16.5554 C39.9406,17.0154 41.7506,17.5154 43.5206,18.4554 C43.1206,18.5054 42.7106,18.6454 42.3206,18.5954 C37.4106,17.9454 32.5106,17.2254 27.6006,16.6154 C26.1006,16.4254 24.5706,16.4954 23.0606,16.5454 C22.6406,16.5554 22.2306,16.9054 21.7306,17.1354 C21.8606,17.5354 21.8906,17.8754 22.0606,18.1054 C25.2906,22.5654 28.5706,27.0054 31.7706,31.4954 C32.7906,32.9154 34.0206,33.8454 35.6406,34.5354 C39.9706,36.3954 44.2306,38.4254 48.5006,40.4254 C49.9906,41.1254 51.4206,41.9554 52.9506,43.4954 C52.0106,43.5554 51.5706,43.6554 51.1706,43.5854 C48.1006,43.0854 45.6506,41.1854 42.9406,39.8554 C40.5206,38.6754 38.1206,37.4554 35.7106,36.2454 C35.5706,36.3754 35.4306,36.5054 35.2906,36.6454 C36.6406,39.4654 38.0106,42.2754 39.3406,45.1154 C40.6506,47.9354 41.9506,50.7654 43.1906,53.6154 C44.4506,56.5154 45.7906,59.3854 46.1406,63.1554 C44.3006,61.3654 43.9406,59.3654 43.0306,57.6854 C42.0706,55.9354 41.2406,54.1154 40.3606,52.3254 C39.5306,50.5954 38.7106,48.8654 37.8806,47.1354 C37.0206,45.3354 36.1606,43.5254 35.3106,41.7254 C34.4606,39.9454 34.0906,37.9154 32.5506,36.3954 M22.9006,15.1054 C21.6106,14.8654 20.7906,14.7154 19.9706,14.5554 C19.9006,14.6854 19.8406,14.8054 19.7706,14.9254 C20.1106,15.3154 20.4406,15.7054 20.8306,16.1654 C21.4506,15.8454 21.9806,15.5754 22.9006,15.1054" id="Fill-172" fill="#000000"></path>
                <path d="M30.4706,3.0454 C31.4106,3.4454 32.6106,3.2254 33.6906,3.2854 C33.7006,3.2854 33.7006,3.2954 33.7106,3.2954 L33.7206,3.2954 L33.7306,3.2954 C34.2506,4.8554 35.6506,4.9954 36.9606,5.3354 C37.7106,5.5354 38.5206,5.7454 39.1206,6.1954 C40.5206,7.2354 41.8206,8.4254 43.1506,9.5654 C46.5906,12.5254 49.5206,15.9854 51.1906,20.1554 C53.9806,27.0754 55.7206,34.3054 56.1206,41.8054 C56.3706,46.6054 55.6906,51.1954 53.4806,55.5154 C51.9706,58.4554 50.1006,61.1454 48.2106,63.8354 L46.1406,63.1554 C45.7906,59.3854 44.4506,56.5154 43.1906,53.6154 C41.9506,50.7654 40.6506,47.9354 39.3406,45.1154 C38.0106,42.2754 36.6406,39.4654 35.2906,36.6454 C35.4306,36.5054 35.5706,36.3754 35.7106,36.2454 C38.1206,37.4554 40.5206,38.6754 42.9406,39.8554 C45.6506,41.1854 48.1006,43.0854 51.1706,43.5854 C51.5706,43.6554 52.0106,43.5554 52.9506,43.4954 C51.4206,41.9554 49.9906,41.1254 48.5006,40.4254 C44.2306,38.4254 39.9706,36.3954 35.6406,34.5354 C34.0206,33.8454 32.7906,32.9154 31.7706,31.4954 C28.5706,27.0054 25.2906,22.5654 22.0606,18.1054 C21.8906,17.8754 21.8606,17.5354 21.7306,17.1354 C22.2306,16.9054 22.6406,16.5554 23.0606,16.5454 C24.5706,16.4954 26.1006,16.4254 27.6006,16.6154 C32.5106,17.2254 37.4106,17.9454 42.3206,18.5954 C42.7106,18.6454 43.1206,18.5054 43.5206,18.4554 C41.7506,17.5154 39.9406,17.0154 38.1206,16.5554 C37.1906,16.3254 36.2506,16.1454 35.3006,15.9954 C30.3406,15.1654 25.3806,14.3454 20.4106,13.5554 C19.0706,13.3454 18.0406,12.7854 17.2606,11.6354 C16.5006,10.5054 15.6706,9.4254 14.7606,8.4154 C14.1706,7.7554 13.3906,7.2754 12.7006,6.7154 C12.5506,6.8654 12.4106,7.0154 12.2606,7.1654 C13.0806,8.0954 13.9206,8.9954 14.7006,9.9454 C15.5206,10.9154 16.8006,11.5754 16.8206,13.1354 C16.1106,12.7454 15.5406,12.2454 15.0106,11.6954 C13.8906,10.5554 12.8306,9.3554 11.6906,8.2454 C11.0306,7.6154 10.3206,6.9454 9.3406,7.0454 L8.9506,6.1254 C12.8106,4.4854 19.9306,1.7254 23.3906,1.4054 C25.8406,1.5054 28.1706,2.0954 30.4706,3.0454" id="Fill-174" fill="#40641C" class="icon__color"></path>
                <path d="M9.6406,40.4554 C9.5506,41.3654 9.6506,42.2354 10.2406,43.1054 L7.9106,43.6754 C7.5806,43.2754 7.2706,42.8554 6.9906,42.4254 C3.0306,36.3354 1.4606,29.5654 1.5806,22.3954 C1.6506,17.9454 2.6706,13.6554 4.7806,9.7254 C5.4006,8.5754 6.3306,7.2754 7.4506,6.7754 C7.8606,6.5954 8.3706,6.3754 8.9506,6.1254 L9.3406,7.0454 C9.2806,7.0454 9.2106,7.0654 9.1406,7.0754 C11.1906,9.2354 13.1406,11.3054 15.1406,13.4154 C14.7306,14.3154 14.5506,14.9454 14.2006,15.4654 C12.2906,18.2654 11.5606,21.4454 11.2006,24.7154 C10.6106,29.9554 10.1406,35.2054 9.6406,40.4554" id="Fill-176" fill="#40641C" class="icon__color"></path>
                <path d="M53.4806,55.5154 C55.6906,51.1954 56.3706,46.6054 56.1206,41.8054 C55.7206,34.3054 53.9806,27.0754 51.1906,20.1554 C49.5206,15.9854 46.5906,12.5254 43.1506,9.5654 C41.8206,8.4254 40.5206,7.2354 39.1206,6.1954 C38.5206,5.7454 37.7106,5.5354 36.9606,5.3354 C35.6506,4.9954 34.2506,4.8554 33.7306,3.2954 C37.5306,3.9554 40.6906,5.8854 43.5706,8.3254 C49.0806,12.9954 52.8006,18.7854 54.7006,25.8154 C56.3306,31.8654 57.3806,37.9654 57.4906,44.2354 C57.5906,49.7054 55.9006,54.6154 53.0706,59.1854 C51.6806,61.4354 50.1406,63.5754 48.7406,65.8154 C48.3006,66.5154 48.1306,67.3854 47.7706,68.3554 C47.5706,68.3354 47.1706,68.3854 46.8506,68.2454 C40.2006,65.3054 33.5606,62.3654 26.9206,59.3954 C19.9706,56.2954 13.9006,51.9354 8.7106,46.3954 C4.5106,41.9054 1.8406,36.6254 1.1906,30.4254 C0.9306,27.8954 0.1406,25.4354 0.4106,22.8254 C0.8406,18.8354 1.4506,14.8554 2.9506,11.1654 C3.7606,9.1654 5.4506,7.5054 6.8206,5.7654 C7.2006,5.2954 7.8406,4.9154 8.4306,4.7554 C10.8106,4.0954 19.3606,1.0654 21.7806,0.5654 C22.1106,0.4954 22.4606,0.4254 22.8206,0.3954 C22.2706,0.5354 21.8106,0.7654 21.4706,1.1154 C21.9206,1.2154 22.2606,1.3854 22.6106,1.3854 C22.8706,1.3854 23.1306,1.3954 23.3906,1.4054 C19.9306,1.7254 12.8106,4.4854 8.9506,6.1254 C8.3706,6.3754 7.8606,6.5954 7.4506,6.7754 C6.3306,7.2754 5.4006,8.5754 4.7806,9.7254 C2.6706,13.6554 1.6506,17.9454 1.5806,22.3954 C1.4606,29.5654 3.0306,36.3354 6.9906,42.4254 C7.2706,42.8554 7.5806,43.2754 7.9106,43.6754 C8.2306,44.0854 8.5706,44.4854 8.9106,44.8654 C14.1006,50.6354 20.2106,55.1954 27.3006,58.3654 C28.7606,59.0154 30.2206,59.6654 31.6806,60.3154 C36.0706,62.2454 40.4706,64.1554 44.8606,66.0754 C45.2906,66.2554 45.7606,66.3654 46.3406,66.5454 C46.9606,65.6354 47.5906,64.7354 48.2106,63.8354 C50.1006,61.1454 51.9706,58.4554 53.4806,55.5154" id="Fill-178" fill="#000000"></path>
            </g>
        </g>
    </g>
</svg>
