<svg width="29px" height="29px" viewBox="231 629 29 29" version="1.1" xmlns="http://www.w3.org/2000/svg" xmlns:xlink="http://www.w3.org/1999/xlink">
    <defs></defs>
    <g id="Group" stroke="none" stroke-width="1" fill="none" fill-rule="evenodd" transform="translate(231.000000, 629.000000)">
        <g id="Group-21">
            <path d="M4.8278,17.5234 C4.1208,18.0574 3.1088,18.4224 2.9448,19.0204 C2.4058,20.9734 1.9378,23.0164 3.2738,24.9224 C4.0918,26.0904 4.3878,26.1374 5.8528,25.8564 C8.2818,25.3904 10.6768,25.1934 13.0578,26.3904 C14.8338,27.2844 16.7878,27.8954 18.8488,27.2894 C20.3038,26.8614 21.7658,26.4404 23.1838,25.9074 C25.0848,25.1934 25.7558,23.4264 26.5638,21.7684 C27.1978,20.4694 26.5578,19.4914 26.0638,18.5104 L23.8928,18.5104 C24.1868,17.4634 24.4198,16.6284 24.6568,15.7934 C25.0928,14.2554 24.8398,12.8534 23.4418,11.9954 C22.2268,11.2494 22.1158,10.3834 22.5198,9.1714 C22.8628,8.1434 22.7628,7.2234 21.8808,6.3414 C20.6638,5.1274 19.6348,3.7244 18.4868,2.3554 C17.7208,2.7914 17.0558,3.1694 16.4148,3.5334 C15.9508,3.1824 15.5838,2.9054 15.1388,2.5684 C14.4778,3.0254 13.4598,3.3464 13.2878,3.9214 C12.8288,5.4534 11.9788,6.5834 10.7968,7.5674 C10.5788,7.7484 10.4098,8.1344 10.4198,8.4184 C10.4878,10.3824 9.2308,11.2124 7.4898,11.6964 C7.9498,14.0394 6.2598,14.7134 4.6018,15.3734 C4.6878,16.1954 4.7608,16.8864 4.8278,17.5234 M5.8168,13.2344 C5.8178,11.2284 6.8358,10.1504 8.5878,9.7024 C8.7438,7.9714 9.3028,6.5494 10.7848,5.5934 C11.1368,5.3654 11.3868,4.8324 11.4928,4.3944 C11.8618,2.8694 13.0148,2.1504 14.1378,1.2104 C15.5458,0.0304 16.8798,1.2284 18.2338,0.8454 C18.7588,0.6974 19.6058,1.7224 20.3168,2.1974 C21.8098,3.1934 22.3438,4.9524 23.5098,6.2164 C23.8348,6.5684 23.9388,7.2084 23.9718,7.7274 C24.0208,8.5144 23.9198,9.3114 23.8948,9.8664 C24.8988,10.9744 25.7128,11.9334 26.5928,12.8284 C27.7448,13.9994 28.3618,15.2004 27.6078,16.9024 C27.3758,17.4244 27.6178,18.3054 27.9168,18.8804 C28.5618,20.1234 28.4988,21.1834 27.9378,22.4884 C26.6418,25.5054 24.6788,27.5544 21.3158,28.0174 C21.2378,28.0284 21.1558,28.0454 21.0848,28.0794 C18.3618,29.3654 15.6758,29.0404 13.0038,27.9024 C10.7358,26.9364 8.4538,26.5564 6.0788,27.6054 C5.6898,27.7774 5.1198,27.6794 4.6748,27.5554 C2.5318,26.9584 0.3228,23.4834 0.7898,21.3144 C1.1158,19.8014 1.0498,18.0674 2.6558,17.0854 C2.8278,16.9804 2.9838,16.6724 2.9708,16.4704 C2.8448,14.5854 4.0178,13.7654 5.8168,13.2344" id="Fill-98" fill="#000000"></path>
            <path d="M4.8278,17.5234 C4.7608,16.8864 4.6878,16.1954 4.6018,15.3734 C6.2598,14.7134 7.9498,14.0394 7.4898,11.6964 C9.2308,11.2124 10.4878,10.3824 10.4198,8.4184 C10.4098,8.1344 10.5788,7.7484 10.7968,7.5674 C11.9788,6.5834 12.8288,5.4534 13.2878,3.9214 C13.4598,3.3464 14.4778,3.0254 15.1388,2.5684 C15.5838,2.9054 15.9508,3.1824 16.4148,3.5334 C17.0558,3.1694 17.7208,2.7914 18.4868,2.3554 C19.6348,3.7244 20.6638,5.1274 21.8808,6.3414 C22.7628,7.2234 22.8628,8.1434 22.5198,9.1714 C22.1158,10.3834 22.2268,11.2494 23.4418,11.9954 C24.8398,12.8534 25.0928,14.2554 24.6568,15.7934 C24.4198,16.6284 24.1868,17.4634 23.8928,18.5104 L26.0638,18.5104 C26.5578,19.4914 27.1978,20.4694 26.5638,21.7684 C25.7558,23.4264 25.0848,25.1934 23.1838,25.9074 C21.7658,26.4404 20.3038,26.8614 18.8488,27.2894 C16.7878,27.8954 14.8338,27.2844 13.0578,26.3904 C10.6768,25.1934 8.2818,25.3904 5.8528,25.8564 C4.3878,26.1374 4.0918,26.0904 3.2738,24.9224 C1.9378,23.0164 2.4058,20.9734 2.9448,19.0204 C3.1088,18.4224 4.1208,18.0574 4.8278,17.5234" id="Fill-100" fill="#40641C" class="icon__color"></path>
        </g>
    </g>
</svg>
