<svg width="34px" height="35px" viewBox="71 471 34 35" version="1.1" xmlns="http://www.w3.org/2000/svg" xmlns:xlink="http://www.w3.org/1999/xlink">
    <defs></defs>
    <g id="Group" stroke="none" stroke-width="1" fill="none" fill-rule="evenodd" transform="translate(71.000000, 471.000000)">
        <g id="Group-15">
            <path d="M24.9445,8.3346 C24.4265,7.2226 24.1285,6.3056 23.6045,5.5436 C23.1515,4.8836 22.3045,4.2556 21.5945,5.0546 C20.4395,6.3546 19.2405,7.7306 18.5685,9.2936 C18.2535,10.0266 18.8615,11.5136 19.5215,12.2186 C20.3255,13.0766 21.4015,12.6786 22.1265,11.6396 C22.3875,11.2656 22.9285,11.0946 23.2205,10.7336 C23.8285,9.9806 24.3565,9.1626 24.9445,8.3346 M12.3685,15.2856 C10.3425,18.2326 10.6065,19.5936 13.8715,21.7646 C14.0045,21.8526 14.1565,21.9276 14.2575,22.0446 C15.4575,23.4426 16.8435,23.0586 18.1715,22.3666 C20.0535,21.3846 20.3225,19.4926 20.5275,17.6576 C20.8415,14.8336 19.8145,13.7186 17.0485,13.8686 C16.4525,13.9006 15.8865,14.3296 15.2875,14.5136 C14.4835,14.7606 13.6605,14.9476 12.3685,15.2856 M8.8395,17.5146 C5.6755,17.8366 2.1725,21.9516 2.4625,25.3666 C2.5745,26.6866 3.4065,27.3346 4.5685,27.6506 C6.8805,28.2796 10.7435,26.7056 11.8505,24.5736 C12.1105,24.0726 12.0595,23.2016 11.7975,22.6786 C10.9655,21.0206 9.9655,19.4476 8.8395,17.5146 M16.4425,10.2356 C15.8605,7.9786 15.2895,5.3306 13.3825,3.2406 C12.1045,1.8396 10.7055,1.7366 9.0945,2.7466 C7.4795,3.7596 7.0215,5.4376 6.8955,7.0776 C6.7015,9.5866 7.0875,12.0326 9.4565,13.6166 C10.1795,14.1006 10.8095,14.2436 11.6165,13.6146 C13.0825,12.4726 14.6585,11.4716 16.4425,10.2356 M22.1585,22.1196 C22.2515,21.8796 22.3435,21.6386 22.4365,21.3986 C23.1835,21.4616 23.9305,21.5456 24.6795,21.5856 C27.0865,21.7166 29.0735,20.8456 30.5105,18.9186 C31.5285,17.5536 31.8495,15.9976 31.0045,14.4206 C30.1595,12.8436 28.8115,11.8696 26.9935,11.8136 C26.4435,11.7976 25.6855,12.0836 25.3565,12.4966 C23.8185,14.4246 22.1395,16.1536 22.0525,19.0196 C21.9625,21.9896 19.7765,23.8066 16.8115,24.3746 C16.2875,24.4746 15.7705,24.6086 15.2185,24.7346 C15.5145,27.4626 16.9855,29.3836 18.5135,31.3696 C19.8925,33.1626 23.4015,33.0446 24.8335,31.2116 C26.6015,28.9506 26.1365,24.9876 23.7945,23.3206 C23.2435,22.9276 22.7035,22.5196 22.1585,22.1196 M14.4135,13.0686 C14.7315,12.9056 15.0505,12.7426 15.3685,12.5796 C15.5645,12.5296 15.7595,12.4786 15.4115,12.5686 C15.7255,12.3926 15.5505,12.4906 15.3755,12.5886 C15.0525,12.7456 14.7285,12.9026 14.4055,13.0596 C14.3155,13.1166 14.2265,13.1736 14.1375,13.2316 C14.2295,13.1776 14.3215,13.1236 14.4135,13.0686 M26.5965,23.5046 C27.6015,25.4936 28.0235,27.4406 27.4825,29.5716 C26.8695,31.9896 25.4065,33.5736 23.0785,34.1496 C20.8805,34.6936 18.7865,34.3876 17.3675,32.2436 C16.0185,30.2056 14.6115,28.2076 13.1425,26.0646 C12.5885,26.4956 11.9855,26.9836 11.3625,27.4446 C8.7285,29.3946 5.8915,29.9536 2.7845,28.6936 C1.1065,28.0136 0.5215,27.3936 0.8525,25.6026 C1.5925,21.6036 2.7815,17.8046 7.2065,16.2546 C7.6475,16.1006 8.0445,15.8186 8.7855,15.4236 C8.1275,14.6966 7.5825,14.0786 7.0195,13.4766 C3.5185,9.7316 4.7675,4.5046 7.3395,1.9966 C9.9915,-0.5894 13.2765,-0.1224 15.1495,3.0816 C15.9465,4.4456 16.6715,5.8506 17.4995,7.3656 C18.5575,6.1146 19.3925,4.9596 20.3965,3.9786 C21.9555,2.4566 23.3085,2.4716 24.6415,4.2136 C25.4775,5.3076 26.2025,6.6976 26.3735,8.0326 C26.5755,9.6046 27.2175,10.1636 28.6395,10.5746 C32.4515,11.6766 34.4265,15.7926 32.6245,18.8266 C31.5985,20.5526 30.2195,22.0146 28.2245,22.7256 C27.7195,22.9046 27.2515,23.1866 26.5965,23.5046" id="Fill-282" fill="#000000"></path>
            <path d="M22.1587,22.1195 C22.7037,22.5205 23.2437,22.9275 23.7947,23.3205 C26.1357,24.9875 26.6007,28.9505 24.8337,31.2115 C23.4007,33.0445 19.8917,33.1625 18.5137,31.3695 C16.9857,29.3835 15.5147,27.4625 15.2187,24.7345 C15.7707,24.6085 16.2877,24.4745 16.8117,24.3745 C19.7767,23.8065 21.9627,21.9895 22.0527,19.0195 C22.1397,16.1535 23.8187,14.4245 25.3557,12.4965 C25.6857,12.0835 26.4437,11.7975 26.9927,11.8145 C28.8107,11.8695 30.1597,12.8435 31.0047,14.4215 C31.8497,15.9985 31.5287,17.5535 30.5107,18.9185 C29.0737,20.8455 27.0867,21.7165 24.6797,21.5855 C23.9307,21.5455 23.1837,21.4625 22.4357,21.3985 C22.3437,21.6385 22.2517,21.8795 22.1587,22.1195" id="Fill-284" fill="#FFFFFF"></path>
            <path d="M16.4427,10.2361 C14.6587,11.4721 13.0827,12.4731 11.6167,13.6151 C10.8097,14.2431 10.1797,14.1001 9.4567,13.6171 C7.0877,12.0331 6.7017,9.5871 6.8957,7.0781 C7.0217,5.4371 7.4787,3.7591 9.0947,2.7461 C10.7057,1.7371 12.1047,1.8401 13.3817,3.2401 C15.2897,5.3311 15.8607,7.9791 16.4427,10.2361" id="Fill-286" fill="#FFFFFF"></path>
            <path d="M8.8399,17.5145 C9.9649,19.4475 10.9649,21.0205 11.7979,22.6785 C12.0599,23.2015 12.1109,24.0735 11.8509,24.5735 C10.7429,26.7055 6.8809,28.2795 4.5689,27.6505 C3.4069,27.3345 2.5739,26.6865 2.4619,25.3665 C2.1729,21.9515 5.6759,17.8365 8.8399,17.5145" id="Fill-288" fill="#FFFFFF"></path>
            <path d="M12.3684,15.2857 C13.6604,14.9477 14.4834,14.7607 15.2874,14.5137 C15.8864,14.3297 16.4524,13.9007 17.0494,13.8687 C19.8144,13.7187 20.8414,14.8337 20.5274,17.6577 C20.3234,19.4927 20.0534,21.3837 18.1714,22.3657 C16.8434,23.0587 15.4584,23.4427 14.2574,22.0447 C14.1564,21.9277 14.0044,21.8527 13.8714,21.7647 C10.6064,19.5937 10.3424,18.2327 12.3684,15.2857" id="Fill-290" fill="#40641C" class="icon__color"></path>
            <path d="M24.9445,8.3346 C24.3565,9.1626 23.8285,9.9806 23.2205,10.7336 C22.9285,11.0946 22.3875,11.2656 22.1265,11.6396 C21.4015,12.6786 20.3255,13.0766 19.5215,12.2186 C18.8615,11.5136 18.2535,10.0266 18.5685,9.2936 C19.2405,7.7306 20.4395,6.3546 21.5945,5.0546 C22.3045,4.2556 23.1515,4.8836 23.6045,5.5436 C24.1285,6.3056 24.4265,7.2226 24.9445,8.3346" id="Fill-292" fill="#FFFFFF"></path>
            <path d="M15.3759,12.5885 C15.5509,12.4905 15.7259,12.3925 15.4109,12.5685 C15.7599,12.4785 15.5639,12.5295 15.3679,12.5795 L15.3759,12.5885 Z" id="Fill-294" fill="#FFFFFF"></path>
            <path d="M15.3683,12.5798 C15.0503,12.7428 14.7323,12.9058 14.4133,13.0688 L14.4053,13.0588 C14.7283,12.9018 15.0523,12.7458 15.3763,12.5888 L15.3683,12.5798 Z" id="Fill-296" fill="#FFFFFF"></path>
            <path d="M14.4137,13.069 L14.1377,13.231 C14.2267,13.174 14.3157,13.117 14.4047,13.059 L14.4137,13.069 Z" id="Fill-298" fill="#FFFFFF"></path>
        </g>
    </g>
</svg>
