<svg width="39px" height="40px" viewBox="416 523 39 40" version="1.1" xmlns="http://www.w3.org/2000/svg" xmlns:xlink="http://www.w3.org/1999/xlink">
    <defs></defs>
    <g id="Group" stroke="none" stroke-width="1" fill="none" fill-rule="evenodd" transform="translate(416.000000, 523.000000)">
        <g id="Group-31">
            <path d="M12.8642,22.7307 C9.7992,23.2157 8.0652,25.2047 6.3352,27.1477 C5.4922,28.0937 4.7532,29.1617 4.1342,30.2687 C3.5872,31.2487 3.2462,32.4067 4.0392,33.4287 C4.8792,34.5107 6.0232,35.0037 7.4332,34.6857 C7.9772,34.5637 8.5312,34.4727 9.0842,34.3947 C11.0472,34.1167 12.5042,33.0857 13.4072,31.3487 C14.0642,30.0867 14.5952,28.7587 15.1742,27.4567 C15.5242,26.6697 16.0412,26.3987 16.8492,26.7847 C16.8882,27.1047 17.0052,27.3707 16.9312,27.5637 C16.0562,29.8587 16.8642,31.8457 18.1982,33.6177 C19.9882,35.9977 22.2832,37.6607 25.4262,37.6887 C27.5112,37.7067 28.4702,36.8087 28.8702,34.7977 C29.5552,31.3507 28.7422,28.4637 25.9132,26.2467 C25.4212,25.8607 24.8032,25.4957 25.3242,24.5217 C25.9262,24.4847 26.6402,24.5117 27.3252,24.3817 C28.2572,24.2057 29.3572,24.1557 30.0512,23.6197 C32.0612,22.0637 33.9752,20.3637 35.7742,18.5677 C36.3962,17.9477 36.7222,16.9067 36.8862,16.0037 C36.9712,15.5317 36.5472,14.6947 36.1142,14.4547 C34.8272,13.7437 33.4642,13.4747 32.0302,14.3377 C30.6682,15.1587 29.2142,15.8327 27.7742,16.5177 C27.0662,16.8547 26.3032,17.1597 25.3302,16.5037 C25.5822,15.0017 25.8422,13.4447 26.1042,11.8887 C26.6292,8.7727 25.7302,6.0267 23.8282,3.5987 C22.5462,1.9607 20.2922,1.3497 18.4232,2.0067 C17.2162,2.4307 16.3182,3.1197 16.3002,4.5697 C16.2942,5.0207 16.2152,5.5287 15.9942,5.9077 C15.0632,7.5037 15.4502,9.2057 15.6572,10.8317 C15.8662,12.4667 15.9052,14.2827 17.5992,15.3407 C17.7312,15.4237 17.6952,15.7757 17.7352,15.9987 C16.3022,16.4057 16.2632,16.4607 15.5312,15.9077 C14.4502,15.0907 13.4232,14.2027 12.3752,13.3427 C10.3722,11.6967 8.2992,10.2407 5.5052,10.4517 C3.4582,10.6057 2.4082,11.7197 2.3672,13.8287 C2.3582,14.3007 2.2642,14.7717 2.2022,15.2427 C1.9892,16.8397 2.6102,18.0837 3.9252,18.9257 C5.6742,20.0467 7.4382,21.0897 9.6412,21.2097 C10.6562,21.2647 11.9092,21.2197 12.8642,22.7307 M13.9332,12.8987 C13.9332,11.7967 13.9282,11.2007 13.9342,10.6047 C13.9512,8.9287 13.8672,7.2427 14.0162,5.5787 C14.2442,3.0337 15.6312,1.2427 18.0772,0.4607 C20.4892,-0.3103 22.6582,0.2557 24.4512,2.0757 C27.0402,4.7037 27.9302,7.9197 27.6382,11.5187 C27.5552,12.5347 27.3772,13.5437 27.2092,14.8027 C29.1742,14.2867 30.9852,14.0427 32.5002,12.9917 C34.2412,11.7837 35.8982,12.3717 37.4612,13.1917 C38.7702,13.8777 39.2592,15.8237 38.3822,17.4797 C37.5792,18.9987 36.5332,20.5127 35.2452,21.6247 C33.2182,23.3767 30.8982,24.7907 28.5652,26.4447 C28.7012,26.6657 28.9622,27.1327 29.2652,27.5707 C31.1002,30.2257 31.0692,33.1357 30.3222,36.0827 C29.9472,37.5607 28.8902,38.5287 27.3792,38.9717 C25.3352,39.5717 23.3082,39.2917 21.5792,38.2627 C19.6332,37.1037 17.4932,35.9997 16.6922,33.5457 C16.5092,32.9857 15.9652,32.5427 15.5672,32.0207 C14.6642,32.8337 13.8612,33.5737 13.0402,34.2907 C11.0202,36.0547 8.4812,36.3227 6.0382,36.2117 C3.2772,36.0867 1.1242,34.1647 2.4142,30.9537 C3.1662,29.0817 4.5302,27.4297 5.7622,25.7867 C6.5102,24.7897 7.5332,24.0007 8.5572,22.9957 C6.8012,22.0957 5.2202,21.3807 3.7352,20.5047 C0.6852,18.7077 -0.3078,15.8247 0.8642,12.4847 C1.6672,10.1977 3.3332,8.9967 5.7692,9.0187 C7.6492,9.0357 9.3982,9.4867 10.9112,10.6927 C11.7622,11.3717 12.6702,11.9807 13.9332,12.8987" id="Fill-108" fill="#000000"></path>
            <path d="M18.6347,24.9997 C20.1137,24.9797 21.7067,23.3677 21.6897,21.9067 C21.6767,20.7007 19.9457,19.1617 18.5427,19.1087 C17.1507,19.0557 15.0687,20.9137 15.0757,22.2027 C15.0847,23.7117 16.7567,25.0257 18.6347,24.9997 M12.8637,22.7307 C11.9097,21.2197 10.6567,21.2647 9.6417,21.2097 C7.4377,21.0897 5.6737,20.0467 3.9247,18.9257 C2.6107,18.0837 1.9897,16.8397 2.2017,15.2427 C2.2647,14.7717 2.3577,14.3007 2.3667,13.8287 C2.4077,11.7197 3.4587,10.6057 5.5057,10.4517 C8.2997,10.2407 10.3727,11.6967 12.3757,13.3427 C13.4227,14.2027 14.4507,15.0907 15.5317,15.9077 C16.2637,16.4607 16.3027,16.4057 17.7357,15.9987 C17.6947,15.7757 17.7317,15.4237 17.5997,15.3407 C15.9057,14.2827 15.8657,12.4667 15.6577,10.8317 C15.4507,9.2057 15.0627,7.5037 15.9937,5.9077 C16.2147,5.5287 16.2947,5.0207 16.2997,4.5697 C16.3177,3.1197 17.2167,2.4307 18.4227,2.0067 C20.2917,1.3497 22.5457,1.9607 23.8287,3.5987 C25.7297,6.0267 26.6297,8.7727 26.1047,11.8887 C25.8417,13.4447 25.5827,15.0017 25.3307,16.5037 C26.3027,17.1597 27.0667,16.8547 27.7747,16.5177 C29.2137,15.8327 30.6677,15.1587 32.0307,14.3377 C33.4637,13.4747 34.8277,13.7437 36.1137,14.4547 C36.5467,14.6947 36.9707,15.5317 36.8857,16.0037 C36.7227,16.9067 36.3957,17.9477 35.7747,18.5677 C33.9747,20.3637 32.0617,22.0637 30.0517,23.6197 C29.3577,24.1557 28.2577,24.2057 27.3247,24.3817 C26.6397,24.5117 25.9257,24.4847 25.3237,24.5217 C24.8037,25.4957 25.4207,25.8607 25.9137,26.2467 C28.7417,28.4637 29.5547,31.3507 28.8697,34.7977 C28.4707,36.8087 27.5107,37.7067 25.4257,37.6887 C22.2827,37.6607 19.9877,35.9977 18.1977,33.6177 C16.8637,31.8457 16.0567,29.8587 16.9317,27.5637 C17.0047,27.3707 16.8877,27.1047 16.8487,26.7847 C16.0417,26.3987 15.5237,26.6697 15.1737,27.4567 C14.5947,28.7587 14.0637,30.0867 13.4067,31.3487 C12.5037,33.0857 11.0477,34.1167 9.0837,34.3947 C8.5307,34.4727 7.9777,34.5637 7.4327,34.6857 C6.0227,35.0037 4.8787,34.5107 4.0397,33.4287 C3.2467,32.4067 3.5867,31.2487 4.1347,30.2687 C4.7537,29.1617 5.4927,28.0937 6.3347,27.1477 C8.0657,25.2047 9.7987,23.2157 12.8637,22.7307" id="Fill-110" fill="#40641C" class="icon__color"></path>
            <path d="M20.0872,22.076 C20.0902,21.354 19.3002,20.707 18.4512,20.737 C17.5762,20.768 16.6602,21.561 16.6562,22.291 C16.6522,22.94 17.4922,23.613 18.3362,23.638 C19.1912,23.662 20.0842,22.866 20.0872,22.076 M18.6352,25 C16.7562,25.026 15.0842,23.711 15.0762,22.203 C15.0692,20.914 17.1512,19.056 18.5432,19.108 C19.9452,19.161 21.6772,20.701 21.6902,21.907 C21.7062,23.368 20.1142,24.979 18.6352,25" id="Fill-112" fill="#000000"></path>
            <path d="M20.0872,22.076 C20.0842,22.866 19.1912,23.662 18.3362,23.638 C17.4922,23.613 16.6522,22.94 16.6562,22.291 C16.6602,21.561 17.5762,20.768 18.4512,20.737 C19.3002,20.707 20.0902,21.354 20.0872,22.076" id="Fill-114" fill="#FFFFFF"></path>
        </g>
    </g>
</svg>
