<svg width="55px" height="39px" viewBox="92 566 55 39" version="1.1" xmlns="http://www.w3.org/2000/svg" xmlns:xlink="http://www.w3.org/1999/xlink">
    <defs></defs>
    <g id="Group" stroke="none" stroke-width="1" fill="none" fill-rule="evenodd" transform="translate(92.000000, 566.000000)">
        <g id="Group-18">
            <path d="M3.5255,22.5487 C3.4105,22.6577 3.2945,22.7677 3.1795,22.8767 C3.6845,23.3987 4.1895,23.9197 4.6955,24.4417 C4.8225,24.3197 4.9505,24.1987 5.0785,24.0777 C4.5615,23.5677 4.0435,23.0587 3.5255,22.5487 M26.9375,17.5357 C26.7395,17.5867 26.5415,17.6367 26.3435,17.6877 C26.0555,17.1767 25.6225,16.6967 25.5035,16.1497 C24.9255,13.4977 24.4085,10.8327 23.9295,8.1607 C23.8355,7.6347 23.8785,7.0047 24.0845,6.5187 C24.6545,5.1637 24.1175,4.1817 23.1595,3.3327 C22.0375,2.3377 20.8825,2.8607 19.8315,3.4607 C18.5955,4.1667 17.4315,4.9987 16.3735,5.6857 C17.5945,8.4207 18.9945,11.0287 19.9255,13.7957 C20.8265,16.4757 23.2955,18.4977 23.1345,21.6357 C22.4015,21.2047 21.9405,20.6267 21.5545,20.0027 C20.0005,17.4877 18.5155,14.9297 16.9125,12.4477 C15.9665,10.9827 14.7485,9.6897 13.8385,8.2057 C12.9785,6.8047 11.0205,6.1497 9.9355,7.3207 C8.7005,8.6517 7.6695,10.1937 6.6845,11.7307 C5.9545,12.8687 6.2475,13.9417 7.1875,14.9787 C9.8145,17.8757 12.3715,20.8367 14.9215,23.8027 C15.3155,24.2617 15.5285,24.8767 15.8245,25.4187 C15.6465,25.5627 15.4685,25.7067 15.2915,25.8507 C10.7145,24.1697 8.3305,19.4607 4.1405,17.2837 C2.4815,18.7117 2.3455,19.4117 3.7585,20.7817 C5.2105,22.1897 6.8345,23.4197 8.3825,24.7267 C8.1015,25.0577 7.8335,25.3717 7.4365,25.8397 C8.8625,26.5167 10.0515,27.0817 11.4085,27.7267 C11.2935,26.9817 11.2305,26.5717 11.1225,25.8747 C11.8515,26.2707 12.4255,26.4287 12.7765,26.7987 C15.0225,29.1547 17.3275,31.4677 19.3935,33.9767 C20.8495,35.7447 22.4215,36.9767 24.7785,37.0177 C29.0075,37.0917 33.0045,36.5877 36.3445,33.5287 C38.4565,31.5947 40.9125,30.0387 43.0675,28.1457 C44.8555,26.5757 46.4255,24.7567 48.0995,23.0567 C50.7035,20.4137 52.3945,17.2927 52.8385,13.5957 C53.0315,11.9887 52.2965,10.6247 50.9805,9.6657 C49.6415,8.6897 48.8725,8.8527 48.0865,10.3027 C47.4015,11.5657 46.9265,12.9497 46.1725,14.1657 C45.2215,15.6997 44.1205,17.1477 42.9935,18.5607 C42.7525,18.8637 42.1245,18.8577 41.6755,18.9947 C41.5565,18.8547 41.4385,18.7157 41.3195,18.5767 C41.6855,17.8247 41.9825,17.0277 42.4305,16.3287 C43.9185,14.0087 44.9445,11.5127 45.4185,8.8007 C45.7815,6.7207 45.0815,5.8257 42.9725,5.5947 C42.4965,5.5427 42.0125,5.5787 41.5355,5.5397 C40.1115,5.4227 39.3145,5.8687 39.1935,7.4867 C39.1075,8.6387 38.6525,9.7907 38.2135,10.8827 C37.8445,11.8027 37.1785,12.6017 36.7925,13.5167 C36.2665,14.7607 35.9545,16.0967 35.4055,17.3297 C35.1345,17.9397 34.5405,18.4067 33.9495,19.1057 C33.6565,18.4757 33.4395,18.2397 33.4775,18.0567 C34.4055,13.6227 35.3605,9.1937 36.3165,4.7337 C33.9375,2.4017 29.4945,1.6797 26.9785,3.3337 C27.3255,4.3417 28.2365,5.3957 27.0105,6.5017 C26.7805,6.7087 27.0205,7.4097 26.9985,7.8807 C26.9605,8.6707 27.1005,9.5597 26.7845,10.2267 C26.1115,11.6497 26.2975,12.9957 26.6015,14.4287 C26.8155,15.4427 26.8325,16.4987 26.9375,17.5357 M26.2045,38.6727 C22.2355,38.3267 18.9595,37.0327 16.8645,33.5727 C15.4665,31.2637 13.1135,30.1527 10.8955,28.9197 C8.9435,27.8347 6.8935,26.9247 4.8695,25.9737 C1.5665,24.4227 0.0635,21.2517 1.0875,17.8987 C1.2035,17.5197 1.2715,17.0177 1.5435,16.8117 C3.3935,15.4027 3.5405,13.0767 4.6355,11.3057 C6.0455,9.0277 7.9625,7.0547 9.7435,5.0227 C10.1275,4.5847 10.8865,4.1957 11.4395,4.2357 C13.7535,4.4007 15.4325,2.8827 17.4105,2.1807 C17.8605,2.0207 18.2675,1.6807 18.7235,1.6087 C22.3005,1.0457 25.9265,0.8357 29.4845,0.1127 C29.9095,0.0267 30.4645,0.1987 30.8635,0.4217 C34.5815,2.5037 38.6755,3.0037 42.8145,3.3277 C42.9745,3.3407 43.1355,3.3437 43.2925,3.3657 C45.7435,3.7197 52.8975,8.3197 54.1785,10.3847 C55.3545,12.2797 54.9635,14.3787 54.2875,16.1677 C53.3705,18.5957 52.1875,21.0677 50.5505,23.0527 C46.3135,28.1887 41.2385,32.4997 35.7385,36.2347 C32.8905,38.1677 29.3985,38.2077 26.2045,38.6727" id="Fill-61" fill="#000000"></path>
            <path d="M26.9379,17.5357 C26.8329,16.4987 26.8159,15.4427 26.6009,14.4287 C26.2969,12.9957 26.1109,11.6497 26.7849,10.2267 C27.0999,9.5597 26.9609,8.6707 26.9979,7.8807 C27.0209,7.4097 26.7809,6.7087 27.0099,6.5017 C28.2369,5.3957 27.3249,4.3417 26.9779,3.3337 C29.4939,1.6797 33.9369,2.4017 36.3169,4.7337 C35.3609,9.1937 34.4059,13.6227 33.4779,18.0567 C33.4399,18.2397 33.6569,18.4747 33.9499,19.1057 C34.5399,18.4067 35.1349,17.9397 35.4059,17.3297 C35.9539,16.0967 36.2669,14.7607 36.7919,13.5167 C37.1789,12.6017 37.8439,11.8027 38.2139,10.8827 C38.6529,9.7907 39.1079,8.6387 39.1939,7.4857 C39.3149,5.8687 40.1109,5.4227 41.5349,5.5397 C42.0129,5.5787 42.4969,5.5427 42.9719,5.5947 C45.0809,5.8257 45.7819,6.7207 45.4179,8.8007 C44.9449,11.5127 43.9189,14.0087 42.4309,16.3287 C41.9819,17.0277 41.6859,17.8247 41.3199,18.5767 C41.4379,18.7157 41.5569,18.8547 41.6749,18.9947 C42.1249,18.8577 42.7519,18.8637 42.9939,18.5607 C44.1199,17.1477 45.2219,15.6997 46.1729,14.1657 C46.9259,12.9497 47.4009,11.5657 48.0869,10.3027 C48.8729,8.8527 49.6409,8.6897 50.9799,9.6657 C52.2969,10.6247 53.0319,11.9887 52.8379,13.5957 C52.3949,17.2927 50.7039,20.4137 48.0999,23.0567 C46.4249,24.7567 44.8559,26.5757 43.0679,28.1457 C40.9129,30.0387 38.4569,31.5947 36.3439,33.5287 C33.0039,36.5877 29.0079,37.0917 24.7779,37.0177 C22.4219,36.9767 20.8499,35.7447 19.3939,33.9767 C17.3279,31.4677 15.0219,29.1547 12.7769,26.7987 C12.4249,26.4287 11.8519,26.2707 11.1229,25.8747 C11.2299,26.5717 11.2929,26.9817 11.4079,27.7267 C10.0519,27.0817 8.8619,26.5167 7.4359,25.8397 C7.8339,25.3717 8.1009,25.0577 8.3829,24.7267 C6.8349,23.4197 5.2109,22.1887 3.7579,20.7817 C2.3449,19.4117 2.4819,18.7117 4.1409,17.2837 C8.3309,19.4607 10.7149,24.1697 15.2909,25.8507 C15.4689,25.7067 15.6469,25.5627 15.8249,25.4187 C15.5279,24.8767 15.3159,24.2617 14.9219,23.8027 C12.3709,20.8367 9.8139,17.8757 7.1869,14.9787 C6.2479,13.9417 5.9549,12.8687 6.6849,11.7307 C7.6699,10.1937 8.6999,8.6517 9.9349,7.3207 C11.0209,6.1497 12.9789,6.8037 13.8379,8.2057 C14.7479,9.6897 15.9669,10.9827 16.9129,12.4477 C18.5149,14.9297 19.9999,17.4877 21.5549,20.0027 C21.9409,20.6267 22.4019,21.2047 23.1339,21.6357 C23.2959,18.4977 20.8269,16.4757 19.9249,13.7947 C18.9949,11.0287 17.5939,8.4207 16.3739,5.6857 C17.4309,4.9977 18.5949,4.1657 19.8319,3.4607 C20.8829,2.8607 22.0369,2.3377 23.1599,3.3327 C24.1179,4.1817 24.6549,5.1637 24.0839,6.5177 C23.8789,7.0047 23.8359,7.6347 23.9299,8.1607 C24.4079,10.8327 24.9259,13.4977 25.5039,16.1497 C25.6229,16.6967 26.0559,17.1767 26.3439,17.6867 C26.5419,17.6367 26.7399,17.5857 26.9379,17.5357" id="Fill-63" fill="#40641C" class="icon__color"></path>
        </g>
    </g>
</svg>
