<svg width="48px" height="77px" viewBox="332 480 48 77" version="1.1" xmlns="http://www.w3.org/2000/svg" xmlns:xlink="http://www.w3.org/1999/xlink">
    <defs></defs>
    <g id="Group-4" stroke="none" stroke-width="1" fill="none" fill-rule="evenodd" transform="translate(332.000000, 480.000000)">
        <g id="Group-281" transform="translate(0.000000, 0.911000)">
            <path d="M36.7906,61.7211 C38.3106,64.7911 40.0606,67.7511 41.7006,70.7611 C42.4606,72.1711 42.2006,72.6211 40.6006,72.6011 C35.7306,72.5611 30.8706,72.4211 26.0006,72.4811 C22.5006,72.5311 18.9906,72.8511 15.4906,73.0411 C14.6906,73.0811 13.9006,73.1011 13.1006,73.1411 C10.2306,73.2811 7.3706,73.4411 4.5006,73.5811 C3.8806,73.6111 3.2506,73.5811 2.0906,73.5811 C2.9906,71.3111 3.6706,69.4511 4.4506,67.6311 C5.2606,65.7311 6.2006,63.8811 7.0006,61.9711 C7.6206,60.5011 7.6206,60.3911 9.2306,60.3411 C14.4206,60.1911 19.6006,60.0511 24.7906,59.9111 C27.5006,59.8311 30.2106,59.7811 32.9206,59.6511 C34.6606,59.5711 35.9306,59.9911 36.7906,61.7211" id="Fill-213" fill="#DF2D1C" class="icon__color"></path>
            <path d="M29.7206,17.1911 C28.4006,17.5711 27.1906,17.2511 25.9406,17.0111 C25.0106,16.8411 24.6306,16.3111 24.5806,15.3511 C24.5006,13.9211 24.3106,12.5011 24.1106,11.0811 C24.0906,10.9711 24.0106,10.8711 23.9006,10.7811 C25.2006,9.0211 27.0006,8.7711 28.2106,9.3111 C28.9306,9.6311 29.7806,9.6511 30.5006,9.9711 C30.9606,10.1711 31.5306,10.6311 31.6106,11.0611 C31.8406,12.3111 31.9906,13.6011 31.9106,14.8611 C31.7906,16.5411 31.4406,16.6911 29.7206,17.1911" id="Fill-215" fill="#FFFFFF"></path>
            <path d="M29.5406,25.231 C29.5806,25.231 29.6206,25.231 29.6606,25.221 C29.8106,25.211 29.9606,25.191 30.1106,25.161 C30.2706,25.131 30.4206,25.101 30.5806,25.051 C31.7706,24.701 32.1306,24.971 32.6006,26.111 C32.7806,26.541 32.9206,27.021 32.9606,27.491 C33.0906,29.041 32.7006,29.481 31.1006,29.541 C29.1106,29.611 27.1206,29.681 25.1306,29.651 C24.8206,29.641 24.3306,29.151 24.2606,28.821 C24.0906,27.961 24.7706,25.961 24.7606,24.991 C26.1506,25.191 28.0706,25.381 29.5406,25.231" id="Fill-217" fill="#FFFFFF"></path>
            <path d="M23.6706,36.7511 C24.8306,36.5911 27.2906,36.8411 27.9206,36.7111 C29.3306,36.4311 29.8706,36.7511 30.0806,38.1711 C30.2206,39.1011 30.2306,40.0911 30.0706,41.0211 C29.8306,42.4211 29.2106,42.8411 27.7706,42.8911 C26.8906,42.9211 26.0106,42.9311 25.1306,42.9511 C24.2006,42.9811 23.8806,42.5511 23.9306,41.6211 C23.9806,40.7511 23.9006,39.8711 23.7806,39.0111 C23.7406,38.7411 23.7706,37.3911 23.6706,36.7511" id="Fill-219" fill="#FFFFFF"></path>
            <path d="M24.1606,24.851 C24.4406,24.691 24.7106,24.491 25.0106,24.441 C26.1906,24.231 28.3406,23.891 29.9306,23.671 C28.8006,23.831 27.6906,24.041 26.5706,24.241 C26.2506,24.301 25.9606,24.541 25.6506,24.691 C26.9906,24.911 28.2506,25.311 29.5406,25.231 C28.0706,25.381 26.1506,25.191 24.7606,24.991 L24.7606,24.871 C24.5606,24.871 24.3606,24.861 24.1606,24.851" id="Fill-221" fill="#000000"></path>
            <path d="M23.9306,9.6111 C24.1206,7.8011 24.9406,7.4111 25.9006,7.4611 C25.2306,7.4611 24.4306,8.4011 23.9306,9.6111" id="Fill-223" fill="#DF2D1C" class="icon__color"></path>
            <path d="M24.7406,49.5311 C25.2806,49.9811 25.5206,50.2511 25.8206,50.3911 C27.4406,51.1611 29.1706,51.3111 30.9406,51.3111 C32.3806,51.3011 32.4906,51.4711 32.2406,52.8011 C32.1506,53.2711 32.0106,53.7311 31.8806,54.1911 C31.5906,55.2111 30.9106,55.5311 29.8806,55.4011 C28.1606,55.2011 26.4306,55.0711 24.5706,54.9011 C24.1306,53.8111 26.0106,50.6211 24.7306,49.5311 L24.7406,49.5311 Z" id="Fill-225" fill="#FFFFFF"></path>
            <path d="M24.7606,24.871 L24.7606,24.991 C24.5206,24.961 24.3006,24.921 24.1006,24.891 C24.1106,24.891 24.1106,24.881 24.1106,24.881 C24.1306,24.871 24.1406,24.861 24.1606,24.851 C24.3606,24.861 24.5606,24.871 24.7606,24.871" id="Fill-227" fill="#000000"></path>
            <path d="M22.4506,56.4411 C22.8806,54.5711 24.3206,51.3311 24.7306,49.5311 C26.0106,50.6211 24.1306,53.8111 24.5706,54.9011 L22.4506,56.4411 Z" id="Fill-229" fill="#000000"></path>
            <path d="M24.2606,28.821 C24.0806,27.921 24.0806,26.991 24.0006,26.071 C23.8506,26.071 23.7006,26.061 23.5406,26.061 C23.7006,25.621 23.8906,25.221 24.1006,24.891 C24.3006,24.921 24.5206,24.961 24.7606,24.991 C24.7706,25.961 24.0906,27.961 24.2606,28.821" id="Fill-231" fill="#000000"></path>
            <path d="M24.1306,24.851 L24.1606,24.851 C24.1406,24.861 24.1306,24.871 24.1106,24.881 C24.1206,24.871 24.1206,24.861 24.1306,24.851" id="Fill-233" fill="#000000"></path>
            <path d="M23.0706,11.1711 C23.0806,10.9311 23.3706,10.6911 23.5306,10.4611 C23.5606,10.4911 23.5806,10.5111 23.6106,10.5311 C23.5306,10.8411 23.4806,11.1611 23.4506,11.4711 C23.5906,11.2211 23.7406,10.9911 23.9006,10.7811 C24.0106,10.8711 24.0906,10.9711 24.1106,11.0811 C24.3106,12.5011 24.5006,13.9211 24.5806,15.3511 C24.6306,16.3111 25.0106,16.8411 25.9406,17.0111 C27.1906,17.2511 28.4006,17.5711 29.7206,17.1911 C31.4406,16.6911 31.7906,16.5411 31.9106,14.8611 C31.9906,13.6011 31.8406,12.3111 31.6106,11.0611 C31.5306,10.6311 30.9606,10.1711 30.5006,9.9711 C29.7806,9.6511 28.9306,9.6311 28.2106,9.3111 C26.8506,8.7111 25.5406,8.2811 23.9106,9.7411 C23.9106,9.7011 23.9206,9.6511 23.9306,9.6111 C24.4306,8.4011 25.2306,7.4611 25.9006,7.4611 L25.9506,7.4611 C27.1306,7.5411 28.3306,7.7811 29.4606,8.1411 C30.7206,8.5411 32.3306,8.8311 33.0306,9.7411 C33.6606,10.5811 33.3006,12.1911 33.3406,13.4611 C33.3606,14.5011 33.3806,15.5511 33.3006,16.5811 C33.2306,17.5111 32.8206,18.3511 31.7906,18.4911 C29.4206,18.8311 27.0406,19.1511 24.6706,18.4011 C23.2206,17.9411 23.0506,17.7511 23.0406,16.2011 C23.0306,14.5211 23.0306,12.8511 23.0706,11.1711" id="Fill-235" fill="#000000"></path>
            <path d="M24.0206,31.601 C23.3906,31.821 22.8206,31.531 22.7906,30.851 C22.7406,29.601 22.9706,27.601 23.5406,26.061 C23.7006,26.061 23.8506,26.071 24.0006,26.071 C24.0806,26.991 24.0806,27.921 24.2606,28.821 C24.3306,29.151 24.8206,29.641 25.1306,29.651 C27.1206,29.681 29.1106,29.611 31.1006,29.541 C32.7006,29.481 33.0906,29.041 32.9606,27.491 C32.9206,27.021 32.7806,26.541 32.6006,26.111 C32.1306,24.971 31.7706,24.701 30.5806,25.051 C30.4306,25.091 30.2706,25.131 30.1106,25.161 C29.9606,25.191 29.8106,25.211 29.6606,25.221 C29.6206,25.231 29.5806,25.231 29.5406,25.231 C28.2506,25.311 26.9906,24.911 25.6506,24.691 C25.9606,24.541 26.2506,24.301 26.5706,24.241 C27.6906,24.041 28.8006,23.831 29.9306,23.671 C30.3606,23.611 30.7406,23.561 31.0606,23.521 C32.8206,23.311 33.7906,24.001 34.1506,25.741 C34.3606,26.751 34.4406,27.801 34.5006,28.831 C34.5906,30.111 34.0806,30.761 32.8106,31.021 C32.1906,31.151 31.5406,31.151 30.9106,31.161 C28.6006,31.181 26.2806,30.841 24.0206,31.601" id="Fill-237" fill="#000000"></path>
            <path d="M23.9106,9.741 C25.5406,8.281 26.8506,8.711 28.2106,9.311 C27.0006,8.771 25.2006,9.021 23.9006,10.781 C23.8106,10.701 23.7006,10.621 23.6106,10.531 C23.7006,10.211 23.8006,9.901 23.9306,9.611 C23.9206,9.651 23.9106,9.701 23.9106,9.741" id="Fill-239" fill="#000000"></path>
            <path d="M22.6206,39.011 C22.6206,38.981 22.6306,38.941 22.6406,38.891 C22.7306,38.621 23.0006,38.371 23.1706,38.111 C23.3806,38.411 23.7306,38.681 23.7806,39.011 C23.9006,39.871 23.9806,40.751 23.9306,41.621 C23.8806,42.551 24.2006,42.981 25.1306,42.951 C26.0106,42.931 26.8906,42.921 27.7706,42.891 C29.2106,42.841 29.8306,42.421 30.0706,41.021 C30.2306,40.091 30.2206,39.101 30.0806,38.171 C29.8706,36.751 29.3306,36.431 27.9206,36.711 L27.6906,35.361 C28.6006,35.241 29.5706,35.381 30.4906,35.551 C30.7806,35.601 31.0806,36.101 31.1906,36.451 C31.8506,38.661 31.9106,40.851 30.9006,42.991 C30.4906,43.871 29.8406,44.401 28.8806,44.441 C27.1206,44.511 25.3606,44.581 23.6106,44.551 C22.4406,44.541 22.2806,44.261 22.3606,43.071 C22.4406,41.711 22.4806,40.361 22.6206,39.011" id="Fill-241" fill="#000000"></path>
            <path d="M23.6706,36.7511 C23.7706,37.3911 23.7406,38.7411 23.7806,39.0111 C23.7306,38.6811 23.3806,38.4111 23.1706,38.1111 C23.0006,38.3711 22.7306,38.6211 22.6406,38.8911 C22.7406,38.4911 23.1406,37.4111 23.4006,36.8111 C23.4806,36.7811 23.5706,36.7711 23.6706,36.7511" id="Fill-243" fill="#000000"></path>
            <path d="M23.6106,10.5311 C23.7006,10.6211 23.8106,10.7011 23.9006,10.7811 C23.7406,10.9911 23.5906,11.2211 23.4506,11.4711 C23.4806,11.1611 23.5306,10.8411 23.6106,10.5311" id="Fill-245" fill="#000000"></path>
            <path d="M23.6706,36.7511 C23.5706,36.7711 23.4806,36.7811 23.4006,36.8111 C23.4706,36.6311 23.5306,36.5011 23.5706,36.4411 C23.6106,36.4911 23.6406,36.6011 23.6706,36.7511" id="Fill-247" fill="#000000"></path>
            <path d="M23.3806,36.8111 C23.6306,35.3611 26.7506,35.4811 27.6906,35.3611 L27.9206,36.7111 C27.2906,36.8411 24.8306,36.5911 23.6706,36.7511 C23.6406,36.6011 23.6106,36.4911 23.5706,36.4411 C23.5306,36.5011 23.4706,36.6311 23.4006,36.8111 L23.3806,36.8111 Z" id="Fill-249" fill="#000000"></path>
            <path d="M22.7906,30.851 C22.7206,29.221 22.3806,27.531 23.3806,26.051 C23.4306,26.051 23.4906,26.061 23.5406,26.061 C22.9706,27.601 22.7406,29.601 22.7906,30.851" id="Fill-251" fill="#DF2D1C" class="icon__color"></path>
            <path d="M23.1506,56.6611 C22.9306,56.6711 22.7006,56.5211 22.4506,56.4411 L24.5706,54.9011 C26.4306,55.0711 28.1606,55.2011 29.8806,55.4011 C30.9106,55.5311 31.5906,55.2111 31.8806,54.1911 C32.0106,53.7311 32.1506,53.2711 32.2406,52.8011 C32.4906,51.4711 32.3806,51.3011 30.9406,51.3111 C29.1706,51.3111 27.4406,51.1611 25.8206,50.3911 C25.5206,50.2511 25.2806,49.9811 24.7406,49.5311 L24.7406,49.5211 C24.7106,49.5011 24.6806,49.4811 24.6506,49.4511 C25.4406,49.3711 25.8206,49.2411 26.1406,49.3211 C28.2606,49.8511 30.3906,49.8511 32.5506,49.6211 C33.9706,49.4711 34.2906,49.8011 34.0606,51.2211 C33.8506,52.5511 33.6206,53.9011 33.1806,55.1711 C32.6506,56.6911 31.7006,57.3411 30.2706,57.0311 C27.9006,56.5211 25.5306,56.5311 23.1506,56.6611" id="Fill-253" fill="#000000"></path>
            <path d="M10.7306,42.7211 C10.6506,42.7111 10.5806,42.6711 10.5006,42.6611 C7.7206,42.2111 7.7306,42.2111 7.6506,39.3911 C7.6306,38.5211 7.4806,37.6511 7.4706,36.7811 C7.4606,35.4111 7.7906,35.0411 9.0906,34.9511 C10.1206,34.8811 11.1606,34.8211 12.1806,34.9111 C12.5006,34.9411 13.0006,35.4311 13.0506,35.7711 C13.1706,36.6211 13.0906,37.5011 13.0906,38.3811 L12.9706,38.3811 C12.9306,39.2511 12.9206,40.1211 12.8406,40.9911 C12.7006,42.6111 12.2706,42.9411 10.7306,42.7211" id="Fill-255" fill="#FFFFFF"></path>
            <path d="M10.8906,50.3011 C11.0806,50.2811 11.5706,50.2911 12.0206,50.1811 C13.4006,49.8511 13.8406,49.7611 14.2406,51.7811 C14.9006,55.0511 14.9006,55.1911 11.5706,55.2911 C11.1706,55.3011 10.7806,55.3311 10.3806,55.3111 C8.9506,55.2511 8.5506,54.8911 8.3906,53.5111 C8.3606,53.2011 8.3706,52.8811 8.3606,52.5611 C8.3106,50.3311 8.3106,50.3311 10.8906,50.3011" id="Fill-257" fill="#FFFFFF"></path>
            <path d="M10.6206,24.3611 C11.7106,23.9111 11.9706,23.9911 12.3806,25.1211 C12.7006,26.0111 12.8706,26.9511 13.1606,27.8511 C13.7506,29.6511 13.1406,30.2411 11.1406,30.3711 C10.1806,30.2411 9.1606,30.1511 8.1506,29.9411 C7.8306,29.8711 7.4806,29.5311 7.3206,29.2211 C7.1106,28.8111 7.0506,28.3111 6.9606,27.8511 C6.5706,25.7011 6.5806,25.7211 8.6506,25.1411 C9.3206,24.9511 9.9706,24.6311 10.6206,24.3611" id="Fill-259" fill="#FFFFFF"></path>
            <path d="M7.0506,10.4411 C8.4806,10.5611 9.9206,10.6711 11.3606,10.6511 C12.5306,10.6311 13.7006,10.3811 15.0906,10.2011 C14.8106,11.9311 14.5906,13.4811 14.3006,15.0311 C13.9206,17.0111 13.5006,17.3511 11.4106,17.5011 C8.2406,17.7311 8.0706,17.5711 7.8506,14.3611 C7.8406,14.2611 7.8406,14.1311 7.8306,13.9911 C7.7806,13.0511 7.6806,11.3811 7.0506,10.4411" id="Fill-261" fill="#FFFFFF"></path>
            <path d="M10.3806,55.3111 C10.7806,55.3311 11.1706,55.3011 11.5706,55.2911 C14.9006,55.1911 14.9006,55.0511 14.2406,51.7811 C13.8406,49.7611 13.4006,49.8511 12.0206,50.1811 C11.5706,50.2911 11.0806,50.2811 10.8906,50.3011 C8.3106,50.3311 8.3106,50.3311 8.3606,52.5611 C8.3706,52.8811 8.3606,53.2011 8.3906,53.5111 C8.5506,54.8911 8.9506,55.2511 10.3806,55.3111 L10.3806,55.3111 Z M11.6706,56.5411 C10.6306,56.5411 9.6006,56.5811 8.5706,56.5311 C7.6406,56.4911 7.1206,56.0111 7.1506,55.0111 C7.2006,53.5711 7.1406,52.1411 7.2506,50.7111 C7.3406,49.3211 7.7906,48.9011 9.1706,48.7711 C10.6706,48.6311 12.1806,48.5811 13.6906,48.4611 C14.3406,48.4011 14.8206,48.6611 14.9506,49.2711 C15.3506,51.1311 15.8106,52.9811 16.0006,54.8711 C16.1206,56.1911 15.6506,56.5111 14.2906,56.5911 C13.4206,56.6411 12.5406,56.6011 11.6706,56.6011 L11.6706,56.5411 Z" id="Fill-263" fill="#000000"></path>
            <path d="M11.7706,44.1911 C10.1906,44.1111 8.6106,44.0511 7.0406,43.8611 C6.7306,43.8311 6.2806,43.2711 6.2506,42.9311 C6.1606,41.5811 6.2206,40.2211 6.2206,38.8711 L6.3906,38.8711 C6.3906,37.6711 6.4206,36.4811 6.3806,35.2911 C6.3506,34.5311 6.6706,33.9511 7.3606,33.8711 C9.3306,33.6411 11.3106,33.4911 13.2906,33.4111 C14.1406,33.3811 14.5806,34.0311 14.5806,34.8411 C14.5906,35.8811 14.5306,36.9211 14.4606,37.9511 C14.3706,39.3011 14.2306,40.6411 14.1306,41.9911 C13.9906,43.8211 13.5106,44.2811 11.7706,44.1911 M10.5006,42.6611 C10.5806,42.6711 10.6506,42.7111 10.7306,42.7211 C12.2706,42.9411 12.7006,42.6111 12.8406,40.9911 C12.9206,40.1211 12.9306,39.2511 12.9706,38.3811 L13.0906,38.3811 C13.0906,37.5011 13.1706,36.6211 13.0506,35.7711 C13.0006,35.4311 12.5006,34.9411 12.1806,34.9111 C11.1606,34.8211 10.1206,34.8811 9.0906,34.9511 C7.7906,35.0411 7.4606,35.4111 7.4706,36.7811 C7.4806,37.6511 7.6306,38.5211 7.6506,39.3911 C7.7306,42.2111 7.7206,42.2111 10.5006,42.6611" id="Fill-265" fill="#000000"></path>
            <path d="M7.0506,10.4411 C6.9006,10.4311 6.7506,10.4111 6.6006,10.4011 C6.5406,10.4011 6.4706,10.3611 6.4106,10.3011 C6.4006,10.1311 6.3906,9.9811 6.3806,9.8411 C6.6606,9.9611 6.8806,10.1711 7.0506,10.4411" id="Fill-267" fill="#000000"></path>
            <path d="M6.7706,16.0311 C6.7606,15.9211 6.7506,15.8111 6.7406,15.6911 C6.7406,15.8111 6.7506,15.9211 6.7706,16.0311" id="Fill-269" fill="#000000"></path>
            <path d="M6.6006,10.401 C6.7506,10.411 6.9006,10.431 7.0506,10.441 C7.6806,11.381 7.7806,13.051 7.8306,13.991 C7.7706,13.121 7.6706,12.261 6.5006,11.761 C6.4706,11.221 6.4406,10.731 6.4106,10.301 C6.4706,10.361 6.5406,10.401 6.6006,10.401" id="Fill-271" fill="#000000"></path>
            <path d="M7.8506,14.3611 C8.0706,17.5711 8.2406,17.7311 11.4106,17.5011 C13.5006,17.3511 13.9206,17.0111 14.3006,15.0311 C14.5906,13.4811 14.8106,11.9311 15.0906,10.2011 C13.7006,10.3811 12.5306,10.6311 11.3606,10.6511 C9.9206,10.6711 8.4806,10.5611 7.0506,10.4411 C6.8806,10.1711 6.6606,9.9611 6.3806,9.8411 C6.3906,9.9811 6.4006,10.1311 6.4106,10.3011 C6.2606,10.1711 6.1306,9.9311 6.0706,9.7611 C6.0306,9.6411 6.3106,9.2811 6.4906,9.2511 C7.1806,9.1411 7.8906,9.1211 8.5906,9.0711 C9.6906,8.9911 10.7906,8.9511 11.8806,8.8211 C13.1406,8.6911 14.3906,8.4811 15.6506,8.3111 C16.4806,8.2011 16.9606,8.6711 16.8206,9.4011 C16.3206,12.0611 15.7806,14.7211 15.1006,17.3411 C14.9506,17.8811 14.1606,18.5311 13.5906,18.6311 C11.9506,18.9111 10.2706,18.9711 8.6006,19.0211 C7.5806,19.0511 6.9606,18.4311 6.8706,17.4011 C6.8406,17.0111 6.8006,16.5511 6.7706,16.0311 C6.7506,15.9211 6.7406,15.8111 6.7406,15.6911 C6.7406,15.5311 6.7206,15.3611 6.7106,15.1911 C6.6406,14.0811 6.5706,12.8511 6.5006,11.7611 C7.6706,12.2611 7.7706,13.1211 7.8306,13.9911 C7.8406,14.1311 7.8406,14.2611 7.8506,14.3611" id="Fill-273" fill="#000000"></path>
            <path d="M30.9006,42.991 C31.9106,40.851 31.8506,38.661 31.1906,36.451 C31.0806,36.101 30.7806,35.601 30.4906,35.551 C29.5706,35.381 28.6006,35.241 27.6906,35.361 C26.7506,35.481 23.6306,35.361 23.3806,36.811 L23.4006,36.811 C23.1406,37.411 22.7406,38.491 22.6406,38.891 C22.6306,38.941 22.6206,38.981 22.6206,39.011 C22.4806,40.361 22.4406,41.711 22.3606,43.071 C22.2806,44.261 22.4406,44.541 23.6106,44.551 C25.3606,44.581 27.1206,44.511 28.8806,44.441 C29.8406,44.401 30.4906,43.871 30.9006,42.991 M7.0406,43.861 C8.6106,44.051 10.1906,44.111 11.7706,44.191 C13.5106,44.281 13.9906,43.821 14.1306,41.991 C14.2306,40.641 14.3706,39.301 14.4606,37.951 C14.5306,36.921 14.5906,35.881 14.5806,34.841 C14.5806,34.031 14.1406,33.381 13.2906,33.411 C11.3106,33.491 9.3306,33.641 7.3606,33.871 C6.6706,33.951 6.3506,34.531 6.3806,35.291 C6.4206,36.481 6.3906,37.671 6.3906,38.871 L6.2206,38.871 C6.2206,40.221 6.1606,41.581 6.2506,42.931 C6.2806,43.271 6.7306,43.831 7.0406,43.861 M16.2606,58.331 C14.1906,58.401 12.1206,58.621 10.0506,58.721 C9.0106,58.761 7.9706,58.731 6.9306,58.691 C3.7406,58.571 3.0906,57.821 2.7006,53.991 C2.5706,52.731 2.6406,51.441 2.6306,50.171 C2.6206,48.891 2.6206,47.611 2.6206,46.591 C2.4706,42.021 2.1906,37.711 2.2006,33.401 C2.2106,27.981 2.4106,22.551 2.5906,17.121 C2.6906,14.101 2.8806,11.081 3.1006,8.061 C3.1306,7.561 3.3606,6.851 3.7306,6.641 C4.9606,5.941 6.2606,5.041 7.6006,4.891 C12.3506,4.361 17.1306,4.081 21.9106,3.761 C26.8406,3.441 31.7806,3.181 36.7106,2.921 C38.3106,2.831 39.9106,2.841 41.5006,2.741 C42.6006,2.671 43.1406,3.181 43.3006,4.201 C43.3906,4.831 43.5506,5.471 43.5406,6.101 C43.4706,10.331 43.3706,14.551 43.2706,18.781 C43.2106,21.341 43.1406,23.891 43.0906,26.451 C42.9806,31.791 42.8606,37.141 42.7606,42.491 C42.7106,45.041 42.7206,47.601 42.6306,50.151 C42.5406,52.471 42.4006,54.781 42.2006,57.081 C42.0606,58.591 41.7406,58.821 40.1606,58.691 C38.2506,58.531 36.3506,58.291 34.4406,58.101 C33.7306,58.031 33.0106,57.921 32.3006,57.931 C26.9506,58.051 21.6106,58.171 16.2606,58.331 M8.5706,56.531 C9.6006,56.581 10.6306,56.541 11.6706,56.541 L11.6706,56.601 C12.5406,56.601 13.4206,56.641 14.2906,56.591 C15.6506,56.511 16.1206,56.191 16.0006,54.871 C15.8106,52.981 15.3506,51.131 14.9506,49.271 C14.8206,48.661 14.3406,48.401 13.6906,48.461 C12.1806,48.581 10.6706,48.631 9.1706,48.771 C7.7906,48.901 7.3406,49.321 7.2506,50.711 C7.1406,52.141 7.2006,53.571 7.1506,55.011 C7.1206,56.011 7.6406,56.491 8.5706,56.531 M9.8106,31.611 L9.8106,31.581 C11.0006,31.581 12.2106,31.681 13.3906,31.551 C14.6106,31.421 15.1706,30.761 14.9306,29.601 C14.4806,27.421 13.8506,25.271 13.2206,23.141 C12.9306,22.171 12.1106,22.061 11.2606,22.381 C9.7106,22.981 8.1806,23.661 6.6206,24.221 C5.8206,24.511 5.4306,25.011 5.4606,25.821 C5.5306,27.331 5.6406,28.841 5.7306,30.351 C5.7906,31.251 6.3606,31.581 7.1706,31.601 C8.0506,31.631 8.9306,31.611 9.8106,31.611 M22.4506,56.441 C22.7006,56.521 22.9306,56.671 23.1506,56.661 C25.5306,56.531 27.9006,56.521 30.2706,57.031 C31.7006,57.341 32.6506,56.691 33.1806,55.171 C33.6206,53.901 33.8506,52.551 34.0606,51.221 C34.2906,49.801 33.9706,49.471 32.5506,49.621 C30.3906,49.851 28.2606,49.851 26.1406,49.321 C25.8206,49.241 25.4406,49.371 24.6506,49.451 C24.6806,49.481 24.7106,49.501 24.7406,49.521 L24.7406,49.531 L24.7306,49.531 C24.3206,51.331 22.8806,54.571 22.4506,56.441 M23.0406,16.201 C23.0506,17.751 23.2206,17.941 24.6706,18.401 C27.0406,19.151 29.4206,18.831 31.7906,18.491 C32.8206,18.351 33.2306,17.511 33.3006,16.581 C33.3806,15.551 33.3606,14.501 33.3406,13.461 C33.3006,12.191 33.6606,10.581 33.0306,9.741 C32.3306,8.831 30.7206,8.541 29.4606,8.141 C28.3306,7.781 27.1306,7.541 25.9506,7.461 L25.9006,7.461 C24.9406,7.411 24.1206,7.801 23.9306,9.611 C23.8006,9.901 23.7006,10.211 23.6106,10.531 C23.5806,10.511 23.5606,10.491 23.5306,10.461 C23.3706,10.691 23.0806,10.931 23.0706,11.171 C23.0306,12.851 23.0306,14.521 23.0406,16.201 M22.7906,30.851 C22.8206,31.531 23.3906,31.821 24.0206,31.601 C26.2806,30.841 28.6006,31.181 30.9106,31.161 C31.5406,31.151 32.1906,31.151 32.8106,31.021 C34.0806,30.761 34.5906,30.111 34.5006,28.831 C34.4406,27.801 34.3606,26.751 34.1506,25.741 C33.7906,24.001 32.8206,23.311 31.0606,23.521 C30.7406,23.561 30.3606,23.611 29.9306,23.671 C28.3406,23.891 26.1906,24.231 25.0106,24.441 C24.7106,24.491 24.4406,24.691 24.1606,24.851 L24.1306,24.851 C24.1206,24.861 24.1206,24.871 24.1106,24.881 C24.1106,24.881 24.1106,24.891 24.1006,24.891 C23.8906,25.221 23.7006,25.621 23.5406,26.061 C23.4906,26.061 23.4306,26.051 23.3806,26.051 C22.3806,27.531 22.7206,29.221 22.7906,30.851 M6.8706,17.401 C6.9606,18.431 7.5806,19.051 8.6006,19.021 C10.2706,18.971 11.9506,18.911 13.5906,18.631 C14.1606,18.531 14.9506,17.881 15.1006,17.341 C15.7806,14.721 16.3206,12.061 16.8206,9.401 C16.9606,8.671 16.4806,8.201 15.6506,8.311 C14.3906,8.481 13.1406,8.691 11.8806,8.821 C10.7906,8.951 9.6906,8.991 8.5906,9.071 C7.8906,9.121 7.1806,9.141 6.4906,9.251 C6.3106,9.281 6.0306,9.641 6.0706,9.761 C6.1306,9.931 6.2606,10.171 6.4106,10.301 C6.4406,10.731 6.4706,11.221 6.5006,11.761 C6.4906,11.751 6.4706,11.751 6.4606,11.741 C6.5506,12.891 6.6206,14.041 6.7106,15.191 C6.7206,15.361 6.7406,15.531 6.7406,15.691 C6.7506,15.811 6.7606,15.921 6.7706,16.031 C6.8006,16.551 6.8406,17.011 6.8706,17.401" id="Fill-275" fill="#DF2D1C" class="icon__color"></path>
            <path d="M12.3806,25.121 C11.9706,23.991 11.7106,23.911 10.6206,24.361 C9.9706,24.631 9.3206,24.951 8.6506,25.141 C6.5806,25.721 6.5706,25.701 6.9606,27.851 C7.0506,28.311 7.1106,28.811 7.3206,29.221 C7.4806,29.531 7.8306,29.871 8.1506,29.941 C9.1606,30.151 10.1806,30.241 11.1406,30.371 C13.1406,30.241 13.7506,29.651 13.1606,27.851 C12.8706,26.951 12.7006,26.011 12.3806,25.121 M6.6206,24.221 C8.1806,23.661 9.7106,22.981 11.2606,22.381 C12.1106,22.061 12.9306,22.171 13.2206,23.141 C13.8506,25.271 14.4806,27.421 14.9306,29.601 C15.1706,30.761 14.6106,31.421 13.3906,31.551 C12.2106,31.681 11.0006,31.581 9.8106,31.581 L9.8106,31.611 C8.9306,31.611 8.0506,31.631 7.1706,31.601 C6.3606,31.581 5.7906,31.251 5.7306,30.351 C5.6406,28.841 5.5306,27.331 5.4606,25.821 C5.4306,25.011 5.8206,24.511 6.6206,24.221" id="Fill-277" fill="#000000"></path>
            <path d="M4.4506,67.6311 C3.6706,69.4511 2.9906,71.3111 2.0906,73.5811 C3.2506,73.5811 3.8806,73.6111 4.5006,73.5811 C7.3706,73.4411 10.2306,73.2811 13.1006,73.1411 C13.9006,73.1011 14.6906,73.0811 15.4906,73.0411 C18.9906,72.8511 22.5006,72.5311 26.0006,72.4811 C30.8706,72.4211 35.7306,72.5611 40.6006,72.6011 C42.2006,72.6211 42.4606,72.1711 41.7006,70.7611 C40.0606,67.7511 38.3106,64.7911 36.7906,61.7211 C35.9306,59.9911 34.6606,59.5711 32.9206,59.6511 C30.2106,59.7811 27.5006,59.8311 24.7906,59.9111 C19.6006,60.0511 14.4206,60.1911 9.2306,60.3411 C7.6206,60.3911 7.6206,60.5011 7.0006,61.9711 C6.2006,63.8811 5.2606,65.7311 4.4506,67.6311 M2.7006,53.9911 C3.0906,57.8211 3.7406,58.5711 6.9306,58.6911 C7.9706,58.7311 9.0106,58.7611 10.0506,58.7211 C12.1206,58.6211 14.1906,58.4011 16.2606,58.3311 C21.6106,58.1711 26.9506,58.0511 32.3006,57.9311 C33.0106,57.9211 33.7306,58.0311 34.4406,58.1011 C36.3506,58.2911 38.2506,58.5311 40.1606,58.6911 C41.7406,58.8211 42.0606,58.5911 42.2006,57.0811 C42.4006,54.7811 42.5406,52.4711 42.6306,50.1511 C42.7206,47.6011 42.7106,45.0411 42.7606,42.4911 C42.8606,37.1411 42.9806,31.7911 43.0906,26.4511 C43.1406,23.8911 43.2106,21.3411 43.2706,18.7811 C43.3706,14.5511 43.4706,10.3311 43.5406,6.1011 C43.5506,5.4711 43.3906,4.8311 43.3006,4.2011 C43.1406,3.1811 42.6006,2.6711 41.5006,2.7411 C39.9106,2.8411 38.3106,2.8311 36.7106,2.9211 C31.7806,3.1811 26.8406,3.4411 21.9106,3.7611 C17.1306,4.0811 12.3506,4.3611 7.6006,4.8911 C6.2606,5.0411 4.9606,5.9411 3.7306,6.6411 C3.3606,6.8511 3.1306,7.5611 3.1006,8.0611 C2.8806,11.0811 2.6906,14.1011 2.5906,17.1211 C2.4106,22.5511 2.2106,27.9811 2.2006,33.4011 C2.1906,37.7111 2.4706,42.0211 2.6206,46.5911 C2.6206,47.6111 2.6206,48.8911 2.6306,50.1711 C2.6406,51.4411 2.5706,52.7311 2.7006,53.9911 M12.6806,74.6411 C9.4106,74.7911 6.1406,75.0011 2.8706,75.1911 C2.6406,75.2011 2.3906,75.1911 2.1606,75.1811 C0.5706,75.0711 0.2606,74.6911 0.8106,73.2611 C1.8406,70.5711 2.9606,67.9311 4.0206,65.2511 C4.4506,64.1511 4.8906,63.0411 5.2206,61.9011 C5.7106,60.1711 5.6706,60.1611 3.8106,60.2911 C3.1706,60.3311 2.5306,60.4211 1.9006,60.4011 C1.5306,60.3811 1.1806,60.1811 0.8206,60.0611 C0.9706,59.7411 1.1606,59.4311 1.2806,59.1011 C1.4306,58.6811 1.6406,58.2411 1.6206,57.8111 C1.4106,52.7911 1.0306,47.7711 0.9406,42.7411 C0.8306,35.7911 0.8606,28.8411 0.9506,21.8811 C1.0106,17.4911 1.3006,13.1011 1.5006,8.7211 C1.5406,8.0011 1.5806,7.2511 1.8206,6.5911 C2.0106,6.0411 2.3706,5.3811 2.8506,5.1311 C4.6906,4.1611 6.5406,3.2211 8.6906,3.0911 C13.5406,2.7811 18.4006,2.3811 23.2506,2.0811 C28.9106,1.7311 34.5706,1.4511 40.2306,1.1011 C41.4206,1.0311 42.6006,0.7011 43.7906,0.6211 C45.2006,0.5311 45.4506,0.9411 45.1306,2.2811 C44.9506,3.0311 44.8006,3.8511 44.8906,4.6111 C45.3506,8.8311 45.2206,13.0411 44.9706,17.2811 C44.7006,21.6711 44.8506,26.0711 44.7106,30.4611 C44.5806,34.9311 44.2906,39.4011 44.1206,43.8711 C44.0406,45.8611 44.1206,47.8511 44.0506,49.8411 C43.9706,52.4011 43.8306,54.9511 43.6906,57.5011 C43.6106,59.0111 43.8106,59.3611 45.2106,59.6211 C45.6806,59.7111 46.1706,59.6711 46.6406,59.6811 C47.2006,59.6911 47.6806,59.9211 47.5206,60.5011 C47.4206,60.8311 46.9206,61.1811 46.5406,61.2811 C46.1006,61.3911 45.5806,61.3111 45.1206,61.1911 C44.0606,60.9011 43.4106,61.1011 43.3506,62.3511 C43.3406,62.5811 42.9906,62.7911 42.8006,63.0111 C42.5506,62.7411 42.2206,62.5211 42.0706,62.2011 C41.3206,60.5811 40.5906,60.1111 39.0106,60.3411 C38.4506,60.4211 38.1106,60.7311 38.3506,61.3311 C38.6006,61.9111 38.9006,62.4811 39.2106,63.0411 C40.6706,65.7111 42.1406,68.3611 43.6006,71.0211 C43.7506,71.3011 43.9306,71.5711 44.0406,71.8711 C44.5006,73.2411 43.8106,74.2411 42.3706,74.2011 C39.4106,74.1111 36.4606,73.9711 32.2606,73.8011 C26.5606,74.0411 19.6206,74.3211 12.6806,74.6411" id="Fill-279" fill="#000000"></path>
        </g>
    </g>
</svg>
