<svg width="37px" height="63px" viewBox="222 445 37 63" version="1.1" xmlns="http://www.w3.org/2000/svg" xmlns:xlink="http://www.w3.org/1999/xlink">
    <defs></defs>
    <g id="Group-5" stroke="none" stroke-width="1" fill="none" fill-rule="evenodd" transform="translate(222.000000, 445.000000)">
        <path d="M21.6981,61.0452 C21.7491,60.8702 21.8001,60.6942 21.8511,60.5192 C21.2821,60.4142 20.5791,60.0462 20.1701,60.2542 C19.1181,60.7912 18.5461,60.5952 18.2191,59.5082 C18.0721,59.0212 17.8471,58.4962 17.2981,58.9272 C17.0601,59.1142 16.9901,59.8632 17.1711,60.1512 C17.4221,60.5512 17.9591,60.9542 18.4141,61.0062 C19.4961,61.1282 20.6021,61.0452 21.6981,61.0452 M33.6271,24.2012 C33.8871,24.0092 34.0611,23.9442 34.1181,23.8252 C34.2531,23.5402 34.3491,23.2342 34.4321,22.9292 C35.2661,19.8742 34.9841,16.7472 34.9821,13.6452 C34.9801,10.2852 34.6341,10.0512 31.3661,10.7762 C31.2101,10.8112 31.0031,10.7772 30.9031,10.8672 C30.5791,11.1612 30.1191,11.4512 30.0211,11.8252 C29.2711,14.6702 29.1281,17.4222 31.1411,19.9402 C31.8761,20.8582 32.2791,22.0382 32.8591,23.0852 C33.0761,23.4762 33.3671,23.8282 33.6271,24.2012 M5.5271,27.4992 C8.0521,27.4992 10.2631,27.5302 12.4731,27.4872 C13.7481,27.4622 15.0281,27.3742 16.2941,27.2142 C19.2231,26.8432 22.1491,26.4342 25.0691,25.9972 C27.2541,25.6692 29.4281,25.2732 31.9131,24.8552 C31.1971,23.2152 30.6691,21.8052 29.9861,20.4752 C27.2761,15.2002 23.7441,10.4392 20.4921,5.5042 C20.1851,5.0382 19.8241,4.6032 19.4541,4.1852 C18.3521,2.9402 18.0501,2.9292 17.2171,4.4072 C15.2951,7.8182 13.3531,11.2242 11.5911,14.7192 C9.5491,18.7712 7.6911,22.9152 5.5271,27.4992 M5.9561,30.5992 C4.6031,31.3372 4.6871,31.3362 4.7021,32.8122 C4.7331,35.9262 4.6681,39.0412 4.6401,42.1552 C4.6271,43.5122 4.5571,44.8702 4.5991,46.2252 C4.6801,48.8612 4.8191,51.4952 4.9391,54.1302 C5.0111,55.7252 5.0211,57.3292 5.2131,58.9102 C5.2801,59.4572 5.7391,60.3162 6.1471,60.3992 C7.8551,60.7442 9.6091,60.8952 11.3531,60.9972 C11.6601,61.0152 12.1571,60.5142 12.2891,60.1522 C12.4721,59.6482 12.4451,59.0462 12.4191,58.4902 C12.2841,55.6482 12.8641,52.9142 13.7441,50.2472 C14.1161,49.1222 14.5971,47.9812 15.2751,47.0222 C17.2971,44.1602 21.6731,44.6282 23.0291,47.8302 C24.2351,50.6782 24.5411,53.6902 24.3161,56.7552 C24.2401,57.7912 24.0731,58.8212 23.9051,59.8472 C23.7721,60.6682 24.0651,61.0502 24.9071,61.0462 C27.0671,61.0362 29.2271,61.0162 31.3861,61.0582 C32.4171,61.0782 32.9581,60.5732 33.4311,59.7192 C34.1801,58.3682 34.0581,56.9252 34.0291,55.5022 C33.9041,49.1872 33.9521,42.8822 34.3491,36.5712 C34.5131,33.9642 34.1441,31.3082 33.8481,28.6942 C33.6551,26.9962 32.9271,26.5322 31.1911,26.7602 C27.1531,27.2902 23.1141,27.8192 19.0951,28.4732 C16.2441,28.9372 13.4061,29.3062 10.5111,29.1342 C8.6111,29.0212 6.7321,29.1812 4.5921,29.8382 C5.2151,30.1852 5.5841,30.3912 5.9561,30.5992 M0.5261,28.1312 C2.8161,28.3142 3.4491,26.8632 4.3571,25.4082 C7.4591,20.4372 9.3401,14.8742 12.1761,9.7862 C13.7311,6.9972 15.3271,4.2292 16.9981,1.5082 C17.9101,0.0242 18.3641,0.0512 19.3991,1.5282 C21.8261,4.9922 24.2071,8.4882 26.6041,11.9732 C26.9611,12.4922 27.3001,13.0222 27.7861,13.7572 C28.4601,12.7002 28.1211,11.7642 28.1311,10.8842 C28.1451,9.5672 28.2851,9.4002 29.5991,9.2382 C30.8651,9.0812 32.1301,8.9072 33.3981,8.7722 C35.3651,8.5622 36.2221,9.2202 36.5031,11.1692 C36.5821,11.7192 36.5541,12.2852 36.5641,12.8442 C36.6381,17.0752 36.5171,21.2852 35.7661,25.4742 C35.5041,26.9382 35.4891,28.5292 35.7551,29.9892 C36.4691,33.8972 36.0201,37.8002 35.9861,41.7042 C35.9551,45.2122 35.9141,48.7212 35.7801,52.2262 C35.6841,54.7692 35.6141,57.3372 35.1921,59.8362 C34.7951,62.1932 34.0771,62.6732 31.7731,62.6902 C24.8221,62.7442 17.8701,62.7722 10.9191,62.7072 C9.1751,62.6912 7.4241,62.3502 5.6961,62.0482 C3.9961,61.7522 3.7421,61.5332 3.6911,59.6642 C3.5161,53.3622 3.4311,47.0592 3.3341,40.7562 C3.2931,38.1212 3.3071,35.4852 3.2961,32.8502 C3.2901,31.2332 2.8711,29.8602 1.2331,29.1292 C1.0031,29.0262 0.8911,28.6622 0.5261,28.1312" id="Fill-145" fill="#000000"></path>
        <path d="M5.956,30.599 C5.585,30.392 5.215,30.186 4.592,29.838 C6.732,29.181 8.611,29.022 10.511,29.134 C13.406,29.307 16.244,28.937 19.095,28.473 C23.114,27.819 27.153,27.29 31.191,26.76 C32.927,26.532 33.655,26.996 33.848,28.694 C34.144,31.308 34.513,33.964 34.349,36.571 C33.952,42.883 33.904,49.187 34.029,55.503 C34.058,56.925 34.18,58.368 33.431,59.72 C32.958,60.573 32.417,61.078 31.386,61.058 C29.227,61.017 27.067,61.036 24.907,61.046 C24.065,61.05 23.772,60.668 23.906,59.847 C24.073,58.821 24.24,57.791 24.316,56.756 C24.541,53.69 24.235,50.679 23.029,47.83 C21.673,44.628 17.297,44.16 15.275,47.022 C14.597,47.981 14.116,49.123 13.745,50.247 C12.864,52.914 12.284,55.648 12.419,58.491 C12.445,59.046 12.472,59.648 12.289,60.152 C12.157,60.515 11.66,61.016 11.353,60.998 C9.609,60.896 7.855,60.744 6.147,60.399 C5.739,60.316 5.28,59.457 5.213,58.91 C5.021,57.329 5.011,55.725 4.939,54.13 C4.819,51.495 4.68,48.861 4.599,46.225 C4.558,44.87 4.627,43.512 4.64,42.156 C4.668,39.041 4.733,35.926 4.702,32.812 C4.687,31.336 4.603,31.337 5.956,30.599" id="Fill-147" fill="#DF2D1C" class="icon__color"></path>
        <path d="M21.3485,20.176 C21.4865,18.97 20.9085,18.099 19.9435,17.596 C19.0495,17.131 18.0175,17.22 17.2715,17.969 C16.4395,18.804 15.5615,19.672 15.0095,20.691 C14.0155,22.524 14.8725,24.821 16.6315,25.562 C18.1575,26.205 20.2145,24.994 20.8345,22.988 C21.1145,22.084 21.1835,21.115 21.3485,20.176 M5.5265,27.499 C7.6905,22.916 9.5485,18.771 11.5915,14.719 C13.3525,11.225 15.2945,7.819 17.2175,4.408 C18.0505,2.93 18.3525,2.941 19.4535,4.185 C19.8245,4.603 20.1855,5.038 20.4925,5.504 C23.7445,10.439 27.2755,15.2 29.9865,20.475 C30.6695,21.805 31.1965,23.215 31.9125,24.856 C29.4275,25.273 27.2535,25.67 25.0695,25.997 C22.1485,26.435 19.2235,26.843 16.2935,27.214 C15.0285,27.374 13.7485,27.462 12.4725,27.487 C10.2635,27.531 8.0515,27.499 5.5265,27.499" id="Fill-149" fill="#DF2D1C" class="icon__color"></path>
        <path d="M33.6268,24.2016 C33.3668,23.8276 33.0768,23.4766 32.8588,23.0846 C32.2788,22.0386 31.8758,20.8586 31.1418,19.9406 C29.1288,17.4226 29.2708,14.6706 30.0208,11.8256 C30.1198,11.4516 30.5788,11.1606 30.9038,10.8676 C31.0028,10.7766 31.2108,10.8116 31.3658,10.7766 C34.6338,10.0506 34.9808,10.2856 34.9828,13.6456 C34.9848,16.7476 35.2668,19.8746 34.4318,22.9296 C34.3488,23.2346 34.2528,23.5406 34.1178,23.8246 C34.0608,23.9446 33.8868,24.0086 33.6268,24.2016" id="Fill-151" fill="#DF2D1C" class="icon__color"></path>
        <path d="M21.6981,61.0452 C20.6021,61.0452 19.4961,61.1282 18.4141,61.0062 C17.9591,60.9542 17.4221,60.5512 17.1711,60.1512 C16.9901,59.8632 17.0601,59.1142 17.2981,58.9272 C17.8471,58.4962 18.0721,59.0212 18.2191,59.5082 C18.5461,60.5952 19.1181,60.7912 20.1701,60.2542 C20.5791,60.0462 21.2821,60.4142 21.8511,60.5192 C21.8001,60.6942 21.7491,60.8702 21.6981,61.0452" id="Fill-153" fill="#FFFFFF"></path>
        <path d="M16.7976,24.0117 C18.3466,24.5667 19.0526,23.6327 19.7306,22.6657 C20.3986,21.7107 20.7476,20.6687 20.3516,19.5187 C20.0286,18.5807 19.0176,18.1847 18.2366,18.8167 C17.5196,19.3967 16.8946,20.1727 16.4476,20.9827 C15.8986,21.9747 16.1966,22.3317 17.4966,22.6527 C17.6896,22.7007 17.8616,22.8327 18.1696,22.9887 C17.6326,23.3887 17.2156,23.7007 16.7976,24.0117 M21.3486,20.1757 C21.1836,21.1157 21.1146,22.0847 20.8346,22.9887 C20.2146,24.9937 18.1576,26.2047 16.6316,25.5617 C14.8726,24.8207 14.0156,22.5247 15.0096,20.6907 C15.5616,19.6717 16.4396,18.8037 17.2716,17.9687 C18.0176,17.2197 19.0496,17.1307 19.9436,17.5957 C20.9086,18.0987 21.4866,18.9707 21.3486,20.1757" id="Fill-155" fill="#000000"></path>
        <path d="M16.7976,24.0117 C17.2156,23.7007 17.6326,23.3887 18.1696,22.9887 C17.8616,22.8327 17.6896,22.7007 17.4966,22.6527 C16.1966,22.3317 15.8986,21.9747 16.4476,20.9827 C16.8946,20.1727 17.5196,19.3967 18.2366,18.8167 C19.0176,18.1847 20.0286,18.5807 20.3516,19.5187 C20.7476,20.6687 20.3986,21.7107 19.7306,22.6657 C19.0526,23.6327 18.3466,24.5667 16.7976,24.0117" id="Fill-157" fill="#FFFFFF"></path>
    </g>
</svg>
