<svg width="41px" height="95px" viewBox="591 460 41 95" version="1.1" xmlns="http://www.w3.org/2000/svg" xmlns:xlink="http://www.w3.org/1999/xlink">
    <defs></defs>
    <g id="Group" stroke="none" stroke-width="1" fill="none" fill-rule="evenodd" transform="translate(591.000000, 460.000000)">
        <g id="Group-212" transform="translate(0.000000, 0.911000)">
            <path d="M34.027,82.8356 C34.197,83.1556 34.137,83.6156 34.137,84.0056 C34.147,86.1456 33.667,86.8056 31.607,86.9556 C29.727,87.0856 27.817,86.9856 25.627,86.9856 C25.727,86.0256 25.817,85.3256 25.857,84.6156 C25.957,82.9356 25.927,82.8456 27.417,82.6056 C29.287,82.3056 31.187,82.1356 33.077,82.0156 C33.387,82.0056 33.827,82.4856 34.027,82.8356" id="Fill-174" fill="#DF2D1C" class="icon__color"></path>
            <path d="M20.967,84.5756 C20.887,81.7856 20.897,78.9856 20.877,76.1856 C20.867,74.4556 21.117,74.1256 22.747,74.1956 C26.177,74.3556 29.607,74.5756 33.027,74.8256 C34.457,74.9356 34.737,75.4856 34.417,76.9356 C34.247,77.7056 34.047,78.4956 34.067,79.2656 C34.097,80.3456 33.567,80.6356 32.637,80.7056 C30.257,80.8756 27.877,81.1356 25.497,81.2856 C24.687,81.3356 24.057,81.4556 23.997,82.3956 C23.877,84.2256 23.737,86.0456 23.727,87.8756 C23.727,88.6956 24.437,88.7756 25.147,88.7456 C27.537,88.6256 29.937,88.5556 32.337,88.4656 C32.567,88.4556 32.797,88.4656 33.287,88.4656 C33.247,89.1456 33.207,89.6156 33.187,90.0956 C33.157,90.9956 32.647,91.3956 31.807,91.3956 C28.687,91.3956 25.567,91.3756 22.457,91.3556 C21.637,91.3456 21.397,90.7856 21.347,90.0756 C21.217,88.2456 21.017,86.4156 20.967,84.5756" id="Fill-176" fill="#DF2D1C" class="icon__color"></path>
            <path d="M19.6871,90.2556 C20.2571,90.2956 20.8171,90.5056 20.6471,91.1956 C20.6171,91.3256 19.9971,91.4656 19.3071,91.5756 C19.5371,91.1356 19.6471,90.7056 19.6871,90.2556" id="Fill-178" fill="#000000"></path>
            <path d="M6.8071,28.7056 C7.7371,27.0356 7.5671,25.3456 7.1771,23.6556 C7.1371,23.4856 6.8471,23.2656 6.6671,23.2556 C6.5071,23.2456 6.1771,23.5056 6.1771,23.6356 C6.2071,25.3456 5.9671,27.0756 6.8071,28.7056 L6.8071,28.7056 Z M7.9371,15.4356 C7.9971,14.4056 7.9671,13.3656 7.9671,11.9856 C7.7571,10.3356 7.5271,8.3556 7.2371,6.3956 C7.1971,6.1556 6.8371,5.9556 6.6271,5.7456 C6.4171,5.9456 6.0871,6.1256 6.0271,6.3756 C5.8971,6.8256 5.8671,7.3256 5.9071,7.7956 C6.1171,10.0156 6.3671,12.2356 6.6071,14.4556 C6.6471,14.8456 6.6771,15.2556 6.8071,15.6256 C6.8771,15.7956 7.2171,16.0356 7.3371,15.9856 C7.5871,15.8956 7.9271,15.6456 7.9371,15.4356 L7.9371,15.4356 Z M15.0971,27.2156 C15.0971,26.1056 15.1171,24.9956 15.0771,23.8956 C15.0771,23.7356 14.8071,23.4556 14.6771,23.4556 C14.4971,23.4656 14.2071,23.6856 14.1871,23.8456 C13.9971,25.4056 13.8171,26.9756 13.7171,28.5556 C13.6771,29.2556 13.7671,29.9756 13.8871,30.6756 C13.9271,30.9356 14.2171,31.1556 14.3971,31.3956 C14.6071,31.1056 14.9771,30.8256 14.9971,30.5356 C15.0771,29.4256 15.0271,28.3156 15.0271,27.2156 L15.0971,27.2156 Z M15.7671,16.7256 C15.8871,16.3456 15.9471,15.9356 15.9171,15.5456 C15.7771,13.4856 15.6371,11.4256 15.4171,9.3656 C15.3471,8.7256 15.4671,7.7856 14.5371,7.7156 C14.3571,7.7156 14.0871,8.8456 14.0271,9.0056 C14.2171,11.5156 14.3471,13.4956 14.5171,15.4756 C14.5671,15.9356 14.7371,16.3956 14.8971,16.8356 C14.9371,16.9556 15.1671,17.1256 15.2471,17.0956 C15.4471,17.0256 15.7171,16.8856 15.7671,16.7256 L15.7671,16.7256 Z M19.8271,22.5756 C19.7571,26.9356 19.6971,31.2956 19.6371,35.6456 L18.7771,35.6356 C18.7971,35.4856 18.5371,35.1956 18.3571,35.1356 C17.9071,34.9956 17.4171,34.8656 16.9571,34.8956 C14.8071,35.0156 12.6571,35.1556 10.5171,35.3756 C8.3771,35.5856 6.2471,35.9756 4.1071,36.1556 C2.3671,36.2956 2.1971,36.0756 2.1571,34.2956 C2.0071,26.8656 1.8471,19.4356 1.7171,12.0056 C1.6671,8.9956 1.5471,6.0256 2.9971,3.1656 C3.5471,2.0856 4.0471,1.7756 5.0971,1.7656 C8.2171,1.7456 11.3271,1.6556 14.4471,1.6556 C15.5671,1.6456 16.6871,1.7356 17.7971,1.8956 C19.9871,2.2056 20.2371,2.4556 20.3171,4.5956 C20.3971,6.5956 20.4071,8.5956 20.3471,10.5856 C20.2071,14.5856 19.8971,18.5756 19.8271,22.5756 L19.8271,22.5756 Z" id="Fill-180" fill="#DF2D1C" class="icon__color"></path>
            <path d="M14.537,7.7156 C15.467,7.7856 15.347,8.7256 15.417,9.3656 C15.637,11.4256 15.777,13.4856 15.917,15.5456 C15.947,15.9356 15.887,16.3456 15.767,16.7256 C15.717,16.8856 15.447,17.0256 15.247,17.0956 C15.167,17.1256 14.937,16.9556 14.897,16.8356 C14.737,16.3956 14.567,15.9356 14.517,15.4756 C14.347,13.4956 14.217,11.5156 14.027,9.0056 C14.087,8.8456 14.357,7.7156 14.537,7.7156" id="Fill-182" fill="#000000"></path>
            <path d="M13.717,28.5556 C13.817,26.9756 13.997,25.4056 14.187,23.8456 C14.207,23.6856 14.497,23.4656 14.677,23.4556 C14.807,23.4556 15.077,23.7356 15.077,23.8956 C15.117,24.9956 15.097,26.1056 15.097,27.2156 L15.027,27.2156 C15.027,28.3156 15.077,29.4256 14.997,30.5356 C14.977,30.8256 14.607,31.1056 14.397,31.3956 C14.217,31.1556 13.927,30.9356 13.887,30.6756 C13.767,29.9756 13.677,29.2556 13.717,28.5556" id="Fill-184" fill="#000000"></path>
            <path d="M13.387,76.9756 C13.497,78.7756 13.537,80.5856 13.567,82.3956 C13.567,82.5556 13.307,82.7256 13.167,82.8856 C12.957,82.6956 12.607,82.5456 12.557,82.3256 C12.107,80.3156 12.037,78.2856 12.797,76.0956 C13.007,76.3856 13.367,76.6656 13.387,76.9756" id="Fill-186" fill="#000000"></path>
            <path d="M12.4971,49.3656 C12.2771,47.3156 12.0871,45.2656 11.8771,43.2256 C11.8571,42.9856 11.6871,42.7156 11.7571,42.5356 C11.9471,42.0456 12.1571,41.2756 12.4871,41.2056 C13.3671,41.0256 13.1271,41.8956 13.1771,42.3656 C13.3771,44.4856 13.5571,46.6156 13.6671,48.7456 C13.7071,49.4156 13.6971,50.1656 12.8071,50.7756 C12.6771,50.1856 12.5471,49.7856 12.4971,49.3656" id="Fill-188" fill="#000000"></path>
            <path d="M12.9771,61.2456 C13.6471,64.2056 13.2671,69.5556 12.3371,71.4456 C11.3971,69.7656 12.1471,68.1256 12.1071,66.5656 C12.0671,64.9356 12.0471,63.2556 12.9771,61.2456" id="Fill-190" fill="#000000"></path>
            <path d="M7.967,11.9856 C7.967,13.3656 7.997,14.4056 7.937,15.4356 C7.927,15.6456 7.587,15.8956 7.337,15.9856 C7.217,16.0356 6.877,15.7956 6.807,15.6256 C6.677,15.2556 6.647,14.8456 6.607,14.4556 C6.367,12.2356 6.117,10.0156 5.907,7.7956 C5.867,7.3256 5.897,6.8256 6.027,6.3756 C6.087,6.1256 6.417,5.9456 6.627,5.7456 C6.837,5.9556 7.197,6.1556 7.237,6.3956 C7.527,8.3556 7.757,10.3356 7.967,11.9856" id="Fill-192" fill="#000000"></path>
            <path d="M7.757,44.0456 C7.847,45.1456 7.787,46.2556 7.787,47.3656 L7.917,47.3656 C7.827,48.7056 7.777,50.0456 7.637,51.3856 C7.617,51.6356 7.287,51.8556 7.097,52.0956 C6.877,51.8256 6.467,51.5556 6.457,51.2756 C6.397,48.8256 6.377,46.3756 6.427,43.9256 C6.437,43.5756 6.877,43.2356 7.117,42.8856 C7.337,43.2756 7.727,43.6456 7.757,44.0456" id="Fill-194" fill="#000000"></path>
            <path d="M6.517,70.2856 C5.967,67.6756 5.737,65.4456 6.137,63.1656 C6.187,62.8656 6.287,62.4956 6.497,62.3156 C6.637,62.1856 7.247,62.3156 7.247,62.3456 C7.347,63.9156 7.457,65.4856 7.437,67.0456 C7.437,68.0256 7.717,69.1056 6.517,70.2856" id="Fill-196" fill="#000000"></path>
            <path d="M6.8071,28.7056 C5.9671,27.0756 6.2071,25.3456 6.1771,23.6356 C6.1771,23.5056 6.5071,23.2456 6.6671,23.2556 C6.8471,23.2656 7.1371,23.4856 7.1771,23.6556 C7.5671,25.3456 7.7371,27.0356 6.8071,28.7056" id="Fill-198" fill="#000000"></path>
            <path d="M6.8671,80.0856 C7.0171,81.3556 7.1771,82.6256 7.2471,83.8956 C7.2671,84.2156 6.9971,84.5456 6.8571,84.8756 C6.5971,84.6056 6.1871,84.3756 6.1271,84.0656 C5.8171,82.5856 5.6171,81.0756 5.3671,79.5356 C5.4571,79.1756 5.5371,78.7856 5.6671,78.4256 C5.7171,78.3056 5.9171,78.1456 6.0271,78.1656 C6.2371,78.1956 6.5571,78.3056 6.5971,78.4456 C6.7371,78.9756 6.8071,79.5356 6.8671,80.0856" id="Fill-200" fill="#000000"></path>
            <path d="M7.9171,47.3656 L7.7871,47.3656 C7.7871,46.2556 7.8471,45.1456 7.7571,44.0456 C7.7271,43.6456 7.3371,43.2756 7.1171,42.8856 C6.8771,43.2356 6.4371,43.5756 6.4271,43.9256 C6.3771,46.3756 6.3971,48.8256 6.4571,51.2756 C6.4671,51.5556 6.8771,51.8256 7.0971,52.0956 C7.2871,51.8556 7.6171,51.6356 7.6371,51.3856 C7.7771,50.0456 7.8271,48.7056 7.9171,47.3656 M12.8071,50.7756 C13.6971,50.1656 13.7071,49.4156 13.6671,48.7456 C13.5571,46.6156 13.3771,44.4856 13.1771,42.3656 C13.1271,41.8956 13.3671,41.0256 12.4871,41.2056 C12.1571,41.2756 11.9471,42.0456 11.7571,42.5356 C11.6871,42.7156 11.8571,42.9856 11.8771,43.2256 C12.0871,45.2656 12.2771,47.3156 12.4971,49.3656 C12.5471,49.7856 12.6771,50.1856 12.8071,50.7756 M12.1071,66.5656 C12.1471,68.1256 11.3971,69.7656 12.3371,71.4456 C13.2671,69.5556 13.6471,64.2056 12.9771,61.2456 C12.0471,63.2556 12.0671,64.9356 12.1071,66.5656 M17.4071,72.0956 C14.5371,72.2156 11.6771,72.3156 8.8071,72.4556 C7.2171,72.5256 5.6271,72.6256 4.0371,72.7756 C3.8171,72.8056 3.6271,73.1956 3.4271,73.4156 L2.8271,73.4656 C2.0471,63.0656 1.8771,52.6456 1.7671,42.2156 C1.7571,41.1856 1.9771,40.1556 2.0571,39.1256 C2.1371,38.1156 2.7071,37.7656 3.6471,37.7356 C4.9971,37.6756 6.3571,37.5656 7.7071,37.4556 C10.7171,37.2156 13.6771,36.2956 16.7571,36.7056 C17.2771,36.7756 17.8571,36.5756 18.3671,36.3856 C18.5771,36.2956 18.7471,35.9056 18.7771,35.6356 L19.6371,35.6456 C19.5071,45.3656 19.3871,55.0756 19.2471,64.7856 C19.2171,66.6956 18.9771,68.6056 18.8371,70.5156 C18.7771,71.4356 18.4071,72.0556 17.4071,72.0956 M6.5171,70.2856 C7.7171,69.1056 7.4371,68.0256 7.4371,67.0456 C7.4571,65.4856 7.3471,63.9156 7.2471,62.3456 C7.2471,62.3156 6.6371,62.1856 6.4971,62.3156 C6.2871,62.4956 6.1871,62.8656 6.1371,63.1656 C5.7371,65.4456 5.9671,67.6756 6.5171,70.2856" id="Fill-202" fill="#DF2D1C" class="icon__color"></path>
            <path d="M19.707,89.2156 C19.727,89.5656 19.727,89.9156 19.687,90.2556 C19.657,90.2456 19.627,90.2456 19.597,90.2456 C18.967,90.2156 16.267,90.2256 15.637,90.2756 C12.937,90.4956 10.237,90.7356 7.537,90.9556 C7.527,90.8956 7.527,90.8256 7.517,90.7656 C6.147,90.8856 4.757,90.9456 3.387,91.1256 C3.387,89.3156 3.287,85.8456 3.247,84.1456 C3.167,81.2756 3.207,78.3856 2.977,75.5256 C2.917,74.8356 2.867,74.1556 2.827,73.4656 L3.427,73.4156 C3.657,73.5856 3.887,73.9056 4.117,73.9056 C7.857,73.9456 11.607,74.0356 15.357,73.9256 C17.647,73.8556 19.207,74.9656 19.307,77.2356 C19.467,81.2256 19.537,85.2156 19.707,89.2156 M5.667,78.4256 C5.537,78.7856 5.457,79.1756 5.367,79.5356 C5.617,81.0756 5.817,82.5856 6.127,84.0656 C6.187,84.3756 6.597,84.6056 6.857,84.8756 C6.997,84.5456 7.267,84.2156 7.247,83.8956 C7.177,82.6256 7.017,81.3556 6.867,80.0856 C6.807,79.5356 6.737,78.9756 6.597,78.4456 C6.557,78.3056 6.237,78.1956 6.027,78.1656 C5.917,78.1456 5.717,78.3056 5.667,78.4256 M12.797,76.0956 C12.037,78.2856 12.107,80.3156 12.557,82.3256 C12.607,82.5456 12.957,82.6956 13.167,82.8856 C13.307,82.7256 13.567,82.5556 13.567,82.3956 C13.537,80.5856 13.497,78.7756 13.387,76.9756 C13.367,76.6656 13.007,76.3856 12.797,76.0956" id="Fill-204" fill="#DF2D1C" class="icon__color"></path>
            <path d="M3.387,91.3256 C3.387,91.5456 3.017,91.7556 2.807,91.9656 C2.647,91.7956 2.387,91.6556 2.347,91.4656 C2.347,91.4456 2.337,91.4256 2.337,91.3956 C2.607,91.2456 2.967,91.1856 3.247,91.1456 C3.297,91.1356 3.337,91.1356 3.387,91.1256 L3.387,91.3256 Z" id="Fill-206" fill="#000000"></path>
            <path d="M3.4371,92.5956 C2.8771,92.6356 2.0371,93.2256 1.8971,92.2056 C1.8371,91.7856 2.0371,91.5456 2.3371,91.3956 C2.3371,91.4256 2.3471,91.4456 2.3471,91.4656 C2.3871,91.6556 2.6471,91.7956 2.8071,91.9656 C3.0171,91.7556 3.3871,91.5456 3.3871,91.3256 L3.3871,91.1256 C4.7571,90.9456 6.1471,90.8856 7.5171,90.7656 C7.5271,90.8256 7.5271,90.8956 7.5371,90.9556 C10.2371,90.7356 12.9371,90.4956 15.6371,90.2756 C16.2671,90.2256 18.9671,90.2156 19.5971,90.2456 C19.6271,90.2456 19.6571,90.2456 19.6871,90.2556 C19.6471,90.7056 19.5371,91.1356 19.3071,91.5756 C18.5971,91.6956 17.8171,91.7856 17.5471,91.8056 C17.4071,91.8056 15.7171,91.8856 12.5071,92.0356 C10.4371,92.1356 8.3671,92.2456 6.3071,92.3656 C5.3471,92.4256 4.3971,92.5356 3.4371,92.5956" id="Fill-208" fill="#000000"></path>
            <path d="M2.157,34.2956 C2.197,36.0756 2.367,36.2956 4.107,36.1556 C6.247,35.9756 8.377,35.5856 10.517,35.3756 C12.657,35.1556 14.807,35.0156 16.957,34.8956 C17.417,34.8656 17.907,34.9956 18.357,35.1356 C18.537,35.1956 18.797,35.4856 18.777,35.6356 C18.747,35.9056 18.577,36.2956 18.367,36.3856 C17.857,36.5756 17.277,36.7756 16.757,36.7056 C13.677,36.2956 10.717,37.2156 7.707,37.4556 C6.357,37.5656 4.997,37.6756 3.647,37.7356 C2.707,37.7656 2.137,38.1156 2.057,39.1256 C1.977,40.1556 1.757,41.1856 1.767,42.2156 C1.877,52.6456 2.047,63.0656 2.827,73.4656 C2.867,74.1556 2.917,74.8356 2.977,75.5256 C3.207,78.3856 3.167,81.2756 3.247,84.1456 C3.287,85.8456 3.387,89.3156 3.387,91.1256 C3.337,91.1356 3.297,91.1356 3.247,91.1456 C2.967,91.1856 2.607,91.2456 2.337,91.3956 C2.207,90.6756 2.047,88.2756 2.017,87.6656 C1.527,77.8456 0.947,68.0356 0.617,58.2056 C0.357,50.4556 0.287,42.7056 0.817,34.9456 C1.057,31.4556 0.667,27.9256 0.637,24.4056 C0.587,18.5756 0.587,12.7356 0.577,6.8956 C0.567,5.6156 0.537,4.3456 1.557,3.3056 C1.847,3.0156 1.857,2.4256 1.967,1.9656 C2.367,0.3356 2.537,0.1556 4.217,0.1356 C7.657,0.0956 11.097,0.0356 14.537,0.1056 C16.367,0.1356 18.187,0.4456 20.017,0.5756 C20.877,0.6356 21.347,1.0656 21.507,1.8556 C21.647,2.5556 21.817,3.2756 21.797,3.9856 C21.727,7.7356 21.607,11.4856 21.487,15.2456 C21.457,16.2856 21.377,17.3156 21.367,18.3556 C21.337,25.6356 21.357,32.9156 21.277,40.1856 C21.167,48.8156 20.987,57.4456 20.807,66.0756 C20.787,67.4256 20.517,68.7756 20.487,70.1356 C20.447,71.8156 20.857,72.4156 22.467,72.5356 C26.207,72.8056 29.967,72.9356 33.717,73.0856 C35.537,73.1556 37.377,73.1056 39.207,73.2056 C39.537,73.2256 39.847,73.7156 40.167,73.9956 C39.827,74.2656 39.527,74.7156 39.137,74.7956 C38.157,74.9956 36.757,74.6856 36.237,75.2456 C35.677,75.8456 35.837,77.1956 35.857,78.2256 C35.917,81.0056 36.067,83.7856 36.167,86.5656 C36.177,86.9356 36.177,87.4256 35.967,87.6656 C35.077,88.7156 34.957,89.9656 34.777,91.2356 C34.607,92.5456 34.237,92.8356 32.887,92.9456 C32.017,93.0156 31.127,92.9956 30.257,92.9956 C26.427,93.0056 22.597,93.0056 18.107,93.0056 C18.687,92.5156 19.067,92.0456 19.307,91.5756 C19.997,91.4656 20.617,91.3256 20.647,91.1956 C20.817,90.5056 20.257,90.2956 19.687,90.2556 C19.727,89.9156 19.727,89.5656 19.707,89.2156 C19.537,85.2156 19.467,81.2256 19.307,77.2356 C19.207,74.9656 17.647,73.8556 15.357,73.9256 C11.607,74.0356 7.857,73.9456 4.117,73.9056 C3.887,73.9056 3.657,73.5856 3.427,73.4156 C3.627,73.1956 3.817,72.8056 4.037,72.7756 C5.627,72.6256 7.217,72.5256 8.807,72.4556 C11.677,72.3156 14.537,72.2156 17.407,72.0956 C18.407,72.0556 18.777,71.4356 18.837,70.5156 C18.977,68.6056 19.217,66.6956 19.247,64.7856 C19.387,55.0756 19.507,45.3656 19.637,35.6456 C19.697,31.2956 19.757,26.9356 19.827,22.5756 C19.897,18.5756 20.207,14.5856 20.347,10.5856 C20.407,8.5956 20.397,6.5956 20.317,4.5956 C20.237,2.4556 19.987,2.2056 17.797,1.8956 C16.687,1.7356 15.567,1.6456 14.447,1.6556 C11.327,1.6556 8.217,1.7456 5.097,1.7656 C4.047,1.7756 3.547,2.0856 2.997,3.1656 C1.547,6.0256 1.667,8.9956 1.717,12.0056 C1.847,19.4356 2.007,26.8656 2.157,34.2956 M23.727,87.8756 C23.737,86.0456 23.877,84.2256 23.997,82.3956 C24.057,81.4556 24.687,81.3356 25.497,81.2856 C27.877,81.1356 30.257,80.8756 32.637,80.7056 C33.567,80.6356 34.097,80.3456 34.067,79.2656 C34.047,78.4956 34.247,77.7056 34.417,76.9356 C34.737,75.4856 34.457,74.9356 33.027,74.8256 C29.607,74.5756 26.177,74.3556 22.747,74.1956 C21.117,74.1256 20.867,74.4556 20.877,76.1856 C20.897,78.9856 20.887,81.7856 20.967,84.5756 C21.017,86.4156 21.217,88.2456 21.347,90.0756 C21.397,90.7856 21.637,91.3456 22.457,91.3556 C25.567,91.3756 28.687,91.3956 31.807,91.3956 C32.647,91.3956 33.157,90.9956 33.187,90.0956 C33.207,89.6156 33.247,89.1456 33.287,88.4656 C32.797,88.4656 32.567,88.4556 32.337,88.4656 C29.937,88.5556 27.537,88.6256 25.147,88.7456 C24.437,88.7756 23.727,88.6956 23.727,87.8756 M27.417,82.6056 C25.927,82.8456 25.957,82.9356 25.857,84.6156 C25.817,85.3256 25.727,86.0256 25.627,86.9856 C27.817,86.9856 29.727,87.0856 31.607,86.9556 C33.667,86.8056 34.147,86.1456 34.137,84.0056 C34.137,83.6156 34.197,83.1556 34.027,82.8356 C33.827,82.4856 33.387,82.0056 33.077,82.0156 C31.187,82.1356 29.287,82.3056 27.417,82.6056" id="Fill-210" fill="#000000"></path>
        </g>
    </g>
</svg>
