<svg width="76px" height="108px" viewBox="67 503 76 108" version="1.1" xmlns="http://www.w3.org/2000/svg" xmlns:xlink="http://www.w3.org/1999/xlink">
    <defs>
        <polygon id="path-1" points="2.71050543e-20 0.126951094 2.71050543e-20 106.174977 75.8742551 106.174977 75.8742551 0.126951094 0 0.126951094"></polygon>
    </defs>
    <g id="Group-6" stroke="none" stroke-width="1" fill="none" fill-rule="evenodd" transform="translate(67.000000, 503.000000)">
        <g id="Group-3" transform="translate(0.000000, 0.911000)">
            <mask id="mask-2" fill="white">
                <use xlink:href="#path-1"></use>
            </mask>
            <g id="Clip-2"></g>
            <path d="M70.2688,28.6216 C71.3588,27.1056 72.0628,25.7366 72.1758,24.2246 C72.5628,19.0606 72.8558,13.8886 73.1288,8.7176 C73.1698,7.9386 72.9968,7.1156 72.7478,6.3716 C72.6378,6.0456 72.0328,5.6026 71.7458,5.6626 C68.4738,6.3426 65.2398,5.9756 61.9908,5.5076 C60.8088,5.3366 60.5428,5.6726 60.4468,7.0346 C60.2788,9.4126 60.2738,11.8166 59.8898,14.1596 C59.6938,15.3566 59.9938,16.1136 60.6618,16.9666 C62.7748,19.6656 64.8048,22.4306 66.9448,25.1066 C67.8838,26.2816 69.0118,27.3046 70.2688,28.6216 M38.6638,86.3666 L38.6638,86.3906 C39.4628,86.3906 40.2618,86.4016 41.0608,86.3876 C41.8588,86.3736 42.6588,86.3626 43.4538,86.3006 C44.4578,86.2226 45.8128,86.4456 46.3608,85.8906 C46.9398,85.3036 46.8488,83.9586 46.8768,82.9396 C46.9768,79.3536 47.1698,75.7506 46.0778,72.2536 C45.4298,70.1816 45.0458,69.8346 42.8408,69.7946 C38.8478,69.7216 34.8528,69.7126 30.8598,69.7486 C28.8768,69.7676 28.5918,70.0256 28.7738,72.0126 C29.1678,76.2976 29.7058,80.5686 30.1788,84.8456 C30.2968,85.9186 30.9238,86.3686 31.9548,86.3666 C34.1908,86.3646 36.4278,86.3666 38.6638,86.3666 M42.3248,35.8676 C42.3238,35.8836 42.3238,35.9006 42.3238,35.9166 L43.2808,35.9166 C45.3308,35.9176 45.4918,35.8356 45.3028,33.7376 C45.0448,30.8816 44.6558,28.0366 44.2728,25.1936 C44.1008,23.9186 43.6668,23.6646 42.2858,23.7466 C36.9558,24.0626 31.6248,24.3696 26.2948,24.6816 C25.8958,24.7046 25.4928,24.7006 25.1008,24.7646 C21.0538,25.4216 16.9988,25.2006 12.9508,24.8266 C12.1398,24.7526 11.5628,24.8616 11.0838,25.5186 C9.1588,28.1596 7.1958,30.7726 5.3138,33.4436 C4.8928,34.0406 3.9178,34.7376 4.5398,35.4716 C4.9208,35.9216 5.9848,35.9326 6.7348,35.9086 C9.7608,35.8156 12.7838,35.5486 15.8098,35.4996 C22.5778,35.3906 29.3448,35.7136 36.1148,35.5846 C38.1818,35.5456 40.2538,35.7666 42.3248,35.8676 M18.5108,23.4776 C18.5148,23.5416 18.5198,23.6056 18.5238,23.6696 C21.6188,23.4456 24.7118,23.2046 27.8078,22.9996 C32.6578,22.6786 37.5108,22.3966 42.3608,22.0636 C43.7098,21.9706 43.8858,21.7236 43.7088,20.4346 C43.4598,18.6186 43.1468,16.8106 42.8958,14.9946 C42.4388,11.6786 42.0628,8.3496 41.5458,5.0426 C41.1598,2.5786 40.9558,2.5206 38.4188,2.5206 C36.3498,2.5206 34.2518,2.6196 32.2208,2.3136 C30.8988,2.1146 30.1488,2.4536 29.3358,3.3766 C25.8588,7.3286 22.2718,11.1856 18.8398,15.1766 C17.0238,17.2886 15.4068,19.5766 13.7718,21.8376 C12.8758,23.0776 13.0938,23.4216 14.6798,23.4706 C15.9558,23.5096 17.2338,23.4776 18.5108,23.4776 M61.1108,35.5856 L61.1108,35.5476 C61.9898,35.5476 62.8688,35.5466 63.7478,35.5476 C64.7068,35.5476 65.6658,35.5606 66.6248,35.5456 C69.2258,35.5076 69.3548,35.3856 69.2778,32.8456 C69.2638,32.3816 69.0438,31.9276 68.9898,31.4606 C68.7958,29.7886 67.3648,28.9506 66.4988,27.7376 C64.0878,24.3586 61.6798,20.9746 59.1608,17.6756 C55.6288,13.0506 51.8238,8.6206 48.9898,3.5016 C48.3608,2.3656 47.4938,1.9516 46.2868,1.8926 C44.6288,1.8126 44.2928,2.0716 44.4088,3.7266 C44.6668,7.3916 44.9278,11.0576 45.2748,14.7146 C45.8418,20.6766 46.4748,26.6316 47.0908,32.5886 C47.1568,33.2226 47.2598,33.8586 47.4068,34.4786 C47.7288,35.8366 47.9818,35.9956 49.4148,35.8536 C50.2868,35.7666 51.1568,35.6066 52.0298,35.5976 C55.0558,35.5656 58.0838,35.5856 61.1108,35.5856 M65.9668,103.4646 C65.9808,103.5726 65.9938,103.6806 66.0068,103.7876 C67.9788,103.5776 69.9488,103.3246 71.9258,103.1696 C73.6438,103.0356 73.8048,102.9216 73.6518,101.1716 C73.3388,97.5916 73.0158,94.0126 72.6768,90.4346 C72.5118,88.6876 72.2168,88.4476 70.3708,88.5526 C68.2198,88.6746 66.0708,88.9376 63.9198,88.9416 C62.3328,88.9446 60.7468,88.5976 59.1558,88.4646 C55.2588,88.1386 51.3748,87.9826 47.4448,88.1796 C43.0718,88.3986 38.6708,88.0576 34.2818,87.9726 C33.4038,87.9556 32.4998,87.8766 31.6518,88.0456 C30.9978,88.1756 30.3888,88.9356 29.8018,88.8886 C29.2198,88.8416 28.7148,88.0946 28.1258,87.7386 C27.8798,87.5896 27.5028,87.6226 27.1868,87.6296 C23.9938,87.7016 20.8018,87.8436 17.6098,87.8496 C14.4208,87.8546 11.2318,87.6856 8.0428,87.6726 C6.2168,87.6656 4.3888,87.7966 2.5648,87.9086 C1.8008,87.9546 1.4278,88.3966 1.5438,89.2026 C2.1858,93.6306 2.7798,98.0646 3.4758,102.4836 C3.7178,104.0186 4.2778,104.4636 5.9338,104.5996 C7.3628,104.7176 8.8078,104.6686 10.2458,104.6576 C13.3628,104.6326 16.4818,104.6226 19.5968,104.5346 C22.3078,104.4576 25.0168,104.1626 27.7258,104.1736 C33.0728,104.1946 38.4188,104.3776 43.7668,104.4566 C45.7578,104.4866 47.7518,104.4296 49.7438,104.3846 C53.2538,104.3066 56.7658,104.2636 60.2708,104.0946 C62.1758,104.0026 64.0688,103.6826 65.9668,103.4646 M71.1268,86.9026 C70.7088,82.7126 70.2898,78.6806 69.9108,74.6446 C69.7548,72.9846 69.6018,71.3156 69.5958,69.6506 C69.5888,67.8176 69.8528,65.9826 69.8238,64.1506 C69.7038,56.4786 69.5188,48.8076 69.3568,41.1366 C69.3368,40.1766 69.3198,39.2176 69.2928,38.2586 C69.2738,37.5996 68.9428,37.2116 68.2688,37.1876 C67.7898,37.1716 67.3098,37.1936 66.8308,37.2036 C60.6928,37.3266 54.5548,37.5456 48.4178,37.5476 C42.3578,37.5506 36.2988,37.2926 30.2378,37.2266 C24.5638,37.1656 18.8888,37.1876 13.2138,37.2126 C10.7418,37.2236 8.2698,37.3776 5.7968,37.3836 C3.6148,37.3896 3.2898,37.6396 3.2388,39.7796 C3.1228,44.6526 3.0278,49.5266 2.8888,54.3986 C2.6858,61.5106 2.4908,68.6236 2.2128,75.7326 C2.0998,78.6016 1.7888,81.4636 1.5408,84.3266 C1.4128,85.7946 1.9318,86.3916 3.4348,86.3336 C4.4708,86.2926 5.5218,86.0286 6.5348,86.1446 C13.3308,86.9236 20.1068,85.9586 26.8928,85.9836 C28.4268,85.9896 28.6508,85.6966 28.5218,84.0316 C28.3808,82.2026 28.0428,80.3906 27.8378,78.5656 C27.5178,75.7106 27.2538,72.8476 26.9298,69.9926 C26.8168,68.9896 27.2818,68.4856 28.1848,68.2896 C28.5728,68.2056 28.9768,68.1576 29.3728,68.1576 C34.0908,68.1586 38.8088,68.1896 43.5258,68.1726 C45.5848,68.1656 46.9138,69.1406 47.3528,71.0936 C47.8248,73.1896 48.2458,75.3216 48.4028,77.4586 C48.5788,79.8386 48.4188,82.2416 48.4298,84.6346 C48.4368,86.1156 48.6208,86.3066 50.0378,86.4156 C50.5148,86.4516 50.9988,86.3956 51.4758,86.4326 C54.7368,86.6846 57.9968,86.9366 61.2548,87.2146 C64.5208,87.4936 67.7698,87.5116 71.1268,86.9026 M58.0438,13.4596 C58.6348,11.4776 58.9298,9.8716 58.8548,8.1826 C58.8048,7.0666 58.7878,5.9376 58.9038,4.8306 C59.0218,3.7076 59.3748,3.5096 60.5198,3.6646 C62.2588,3.9016 64.0158,4.0646 65.7278,4.4316 C67.6788,4.8506 69.5338,4.5106 71.4148,4.0986 C73.4458,3.6536 74.0048,4.0196 74.4238,6.0206 C74.5218,6.4876 74.6088,6.9726 74.5938,7.4466 C74.4438,12.3186 74.3368,17.1936 74.0748,22.0596 C73.9678,24.0456 73.5728,26.0236 73.1788,27.9786 C73.0718,28.5076 72.5778,29.0566 72.1148,29.3986 C70.7018,30.4436 70.0538,32.3616 70.7488,34.0106 C70.8718,34.3016 71.2888,34.5336 71.6198,34.6546 C71.9778,34.7846 72.4198,34.6806 72.7798,34.8076 C73.3878,35.0226 73.5068,35.9776 72.9448,36.1016 C70.4698,36.6496 70.8578,38.5036 70.8878,40.2446 C70.9568,44.2426 70.9818,48.2426 71.0658,52.2406 C71.1628,56.8756 71.4948,61.5146 71.3738,66.1426 C71.2398,71.2826 71.5998,76.3646 72.2408,81.4466 C72.3498,82.3166 72.3348,83.2016 72.3988,84.0786 C72.4338,84.5556 72.3358,85.1996 72.6008,85.4756 C74.3608,87.3036 73.8298,89.6716 74.1298,91.8066 C74.7068,95.9106 74.6308,100.1036 75.8368,104.1266 C75.9398,104.4726 75.8098,104.9196 75.6948,105.2906 C75.4478,106.0916 74.8328,106.3386 74.2978,105.6986 C73.4868,104.7306 72.4968,104.7806 71.4648,104.8236 C68.9118,104.9296 66.3178,104.8216 63.8178,105.2516 C60.3958,105.8406 56.9728,105.7956 53.5438,105.8816 C51.7118,105.9286 49.8748,105.7986 48.0428,105.8376 C45.4858,105.8916 42.9298,106.1376 40.3758,106.1066 C35.9838,106.0526 31.5948,105.7636 27.2038,105.7366 C24.2518,105.7176 21.2998,106.0396 18.3458,106.1016 C14.3508,106.1846 10.3528,106.1746 6.3568,106.1746 C5.8878,106.1746 5.4228,105.9626 4.9498,105.8916 C3.2848,105.6396 2.4648,104.6516 2.2678,103.0066 C1.9828,100.6256 1.6678,98.2466 1.2978,95.8776 C0.9538,93.6706 0.4848,91.4836 0.1458,89.2776 C0.0038,88.3586 -0.0392,87.4026 0.0368,86.4766 C0.2248,84.1716 0.6408,81.8796 0.7288,79.5736 C1.0978,69.8246 1.4088,60.0736 1.6838,50.3226 C1.7988,46.2466 1.7908,42.1666 1.8008,38.0876 C1.8048,36.3656 2.2168,34.9256 3.3238,33.4666 C7.1848,28.3796 10.7618,23.0776 14.6138,17.9826 C17.1158,14.6726 19.8718,11.5516 22.5798,8.4016 C24.7158,5.9166 26.9878,3.5466 29.1238,1.0606 C29.8028,0.2696 30.3938,0.1566 31.3948,0.3876 C32.9328,0.7426 34.5458,0.9796 36.1188,0.9376 C38.9838,0.8606 41.8418,0.5436 44.7018,0.3226 C45.3398,0.2736 45.9758,0.2076 46.6128,0.1486 C48.1058,0.0106 49.1038,0.5236 49.8858,1.9396 C52.0888,5.9276 54.6958,9.6546 58.0438,13.4596" id="Fill-1" fill="#000000" mask="url(#mask-2)"></path>
        </g>
        <path d="M71.127,87.8138 C67.769,88.4228 64.52,88.4048 61.255,88.1258 C57.997,87.8478 54.736,87.5948 51.476,87.3428 C50.999,87.3068 50.515,87.3628 50.037,87.3268 C48.62,87.2178 48.437,87.0268 48.43,85.5458 C48.419,83.1528 48.578,80.7488 48.403,78.3698 C48.245,76.2318 47.825,74.1008 47.353,72.0048 C46.913,70.0518 45.585,69.0758 43.526,69.0838 C38.809,69.1008 34.091,69.0688 29.373,69.0688 C28.977,69.0688 28.573,69.1158 28.185,69.2008 C27.282,69.3968 26.816,69.9008 26.93,70.9038 C27.254,73.7588 27.517,76.6208 27.838,79.4768 C28.043,81.3018 28.381,83.1138 28.522,84.9428 C28.65,86.6078 28.427,86.9008 26.893,86.8948 C20.107,86.8698 13.33,87.8348 6.535,87.0558 C5.522,86.9398 4.47,87.2038 3.435,87.2438 C1.932,87.3028 1.413,86.7058 1.54,85.2378 C1.789,82.3748 2.1,79.5128 2.212,76.6438 C2.491,69.5348 2.686,62.4218 2.889,55.3098 C3.028,50.4368 3.122,45.5638 3.239,40.6908 C3.29,38.5498 3.615,38.2998 5.797,38.2948 C8.269,38.2878 10.741,38.1338 13.214,38.1238 C18.889,38.0988 24.564,38.0768 30.238,38.1378 C36.298,38.2028 42.358,38.4608 48.418,38.4588 C54.555,38.4558 60.693,38.2378 66.83,38.1148 C67.31,38.1048 67.79,38.0828 68.268,38.0988 C68.943,38.1228 69.274,38.5098 69.292,39.1698 C69.319,40.1288 69.337,41.0878 69.357,42.0478 C69.519,49.7188 69.704,57.3898 69.824,65.0618 C69.852,66.8938 69.589,68.7288 69.596,70.5618 C69.602,72.2268 69.755,73.8948 69.911,75.5558 C70.29,79.5918 70.709,83.6238 71.127,87.8138" id="Fill-4" fill="#DF2D1C" class="icon__color"></path>
        <path d="M65.9672,104.376 C64.0692,104.593 62.1752,104.914 60.2712,105.005 C56.7652,105.174 53.2542,105.217 49.7442,105.296 C47.7522,105.34 45.7582,105.398 43.7662,105.368 C38.4192,105.288 33.0732,105.105 27.7252,105.084 C25.0172,105.074 22.3082,105.369 19.5972,105.445 C16.4812,105.534 13.3632,105.544 10.2462,105.568 C8.8082,105.58 7.3632,105.629 5.9332,105.511 C4.2782,105.375 3.7182,104.929 3.4762,103.395 C2.7802,98.976 2.1852,94.541 1.5442,90.114 C1.4272,89.308 1.8012,88.866 2.5642,88.819 C4.3892,88.708 6.2172,88.577 8.0432,88.584 C11.2322,88.596 14.4212,88.766 17.6092,88.761 C20.8022,88.755 23.9942,88.613 27.1862,88.541 C27.5022,88.533 27.8802,88.5 28.1262,88.649 C28.7152,89.006 29.2192,89.753 29.8022,89.799 C30.3882,89.847 30.9972,89.086 31.6522,88.956 C32.5002,88.788 33.4032,88.866 34.2822,88.883 C38.6712,88.968 43.0712,89.309 47.4442,89.09 C51.3752,88.894 55.2582,89.05 59.1552,89.376 C60.7472,89.509 62.3322,89.855 63.9202,89.852 C66.0702,89.848 68.2192,89.586 70.3702,89.464 C72.2162,89.359 72.5112,89.599 72.6772,91.346 C73.0162,94.924 73.3382,98.503 73.6522,102.083 C73.8052,103.832 73.6432,103.947 71.9262,104.081 C69.9492,104.236 67.9792,104.489 66.0062,104.699 C65.9932,104.591 65.9802,104.484 65.9672,104.376" id="Fill-6" fill="#DF2D1C" class="icon__color"></path>
        <path d="M61.1104,36.4962 C58.0834,36.4962 55.0564,36.4762 52.0294,36.5082 C51.1574,36.5182 50.2864,36.6772 49.4144,36.7642 C47.9814,36.9072 47.7284,36.7482 47.4064,35.3902 C47.2594,34.7692 47.1564,34.1342 47.0904,33.4992 C46.4744,27.5432 45.8414,21.5872 45.2754,15.6262 C44.9274,11.9692 44.6664,8.3032 44.4084,4.6382 C44.2924,2.9822 44.6284,2.7232 46.2874,2.8042 C47.4934,2.8622 48.3604,3.2762 48.9894,4.4122 C51.8244,9.5312 55.6284,13.9612 59.1614,18.5872 C61.6804,21.8852 64.0874,25.2692 66.4994,28.6482 C67.3644,29.8612 68.7964,30.7002 68.9894,32.3712 C69.0444,32.8382 69.2634,33.2932 69.2774,33.7572 C69.3544,36.2972 69.2264,36.4182 66.6254,36.4572 C65.6664,36.4712 64.7064,36.4582 63.7474,36.4582 L61.1104,36.4582 L61.1104,36.4962" id="Fill-8" fill="#FFFFFF"></path>
        <path d="M18.5108,24.3891 C17.2338,24.3891 15.9558,24.4201 14.6798,24.3811 C13.0938,24.3321 12.8758,23.9881 13.7718,22.7491 C15.4068,20.4881 17.0238,18.1991 18.8398,16.0871 C22.2718,12.0971 25.8588,8.2391 29.3358,4.2871 C30.1488,3.3641 30.8988,3.0251 32.2208,3.2241 C34.2518,3.5301 36.3498,3.4321 38.4188,3.4321 C40.9558,3.4321 41.1598,3.4901 41.5458,5.9541 C42.0628,9.2601 42.4388,12.5891 42.8958,15.9061 C43.1468,17.7221 43.4598,19.5291 43.7088,21.3461 C43.8858,22.6351 43.7098,22.8811 42.3608,22.9741 C37.5108,23.3081 32.6578,23.5901 27.8078,23.9111 C24.7118,24.1161 21.6188,24.3561 18.5238,24.5811 C18.5198,24.5171 18.5148,24.4531 18.5108,24.3891" id="Fill-10" fill="#DF2D1C" class="icon__color"></path>
        <path d="M42.3243,36.7788 C40.2543,36.6768 38.1813,36.4568 36.1143,36.4958 C29.3443,36.6248 22.5773,36.3018 15.8103,36.4108 C12.7833,36.4598 9.7613,36.7268 6.7343,36.8198 C5.9843,36.8428 4.9213,36.8328 4.5393,36.3828 C3.9183,35.6488 4.8923,34.9518 5.3133,34.3548 C7.1953,31.6838 9.1593,29.0708 11.0833,26.4298 C11.5623,25.7718 12.1403,25.6628 12.9513,25.7378 C16.9993,26.1118 21.0543,26.3328 25.1013,25.6758 C25.4933,25.6118 25.8963,25.6158 26.2943,25.5928 C31.6253,25.2808 36.9553,24.9738 42.2853,24.6578 C43.6673,24.5758 44.1013,24.8288 44.2733,26.1038 C44.6563,28.9478 45.0443,31.7928 45.3023,34.6488 C45.4913,36.7468 45.3313,36.8288 43.2813,36.8278 C42.9613,36.8268 42.6423,36.8278 42.3233,36.8278 C42.3233,36.8108 42.3243,36.7948 42.3243,36.7788" id="Fill-12" fill="#FFFFFF"></path>
        <path d="M38.6641,87.2772 C36.4271,87.2772 34.1911,87.2752 31.9541,87.2782 C30.9231,87.2792 30.2971,86.8302 30.1781,85.7572 C29.7061,81.4802 29.1681,77.2082 28.7741,72.9242 C28.5911,70.9372 28.8771,70.6782 30.8601,70.6602 C34.8531,70.6232 38.8481,70.6332 42.8401,70.7052 C45.0461,70.7452 45.4301,71.0932 46.0771,73.1652 C47.1691,76.6612 46.9761,80.2652 46.8771,83.8512 C46.8481,84.8692 46.9401,86.2142 46.3611,86.8012 C45.8131,87.3562 44.4571,87.1342 43.4541,87.2122 C42.6591,87.2742 41.8591,87.2852 41.0611,87.2982 C40.2621,87.3122 39.4631,87.3012 38.6641,87.3012 L38.6641,87.2772" id="Fill-14" fill="#FFFFFF"></path>
        <path d="M70.2688,29.5326 C69.0118,28.2156 67.8838,27.1926 66.9448,26.0176 C64.8048,23.3416 62.7748,20.5766 60.6618,17.8776 C59.9938,17.0246 59.6938,16.2676 59.8898,15.0706 C60.2738,12.7276 60.2788,10.3236 60.4468,7.9456 C60.5428,6.5836 60.8088,6.2476 61.9908,6.4186 C65.2398,6.8866 68.4738,7.2536 71.7458,6.5736 C72.0328,6.5136 72.6378,6.9566 72.7478,7.2826 C72.9968,8.0266 73.1698,8.8496 73.1288,9.6286 C72.8558,14.7996 72.5628,19.9716 72.1758,25.1356 C72.0628,26.6476 71.3588,28.0166 70.2688,29.5326" id="Fill-16" fill="#DF2D1C" class="icon__color"></path>
    </g>
</svg>
